<?xml version="1.0" encoding="utf-8"?>
<!-- Generated by IcoMoon.io -->
<!DOCTYPE svg PUBLIC "-//W3C//DTD SVG 1.1//EN" "http://www.w3.org/Graphics/SVG/1.1/DTD/svg11.dtd">
<svg version="1.1" xmlns="http://www.w3.org/2000/svg" xmlns:xlink="http://www.w3.org/1999/xlink" width="32" height="32" viewBox="0 0 32 32">
<path fill="#444444" d="M28 8v16c0 1.104-0.896 2-2 2h-21c0 1.104 0.896 2 2 2h21c1.104 0 2-0.896 2-2v-16c0-1.104-0.896-2-2-2zM27 23v-16c0-1.104-0.896-2-2-2h-21c-1.104 0-2 0.896-2 2v16c0 1.104 0.896 2 2 2h21c1.104 0 2-0.896 2-2zM4 7h21v16h-21v-16zM15.627 17.311l-2.988-3.181-2.989 5.104-2.242-2.343-2.429 5.129h19.055l-4.297-11.245-4.11 6.536zM8 14c1.104 0 2-0.896 2-2s-0.896-2-2-2-2 0.896-2 2 0.896 2 2 2z"></path>
</svg>
