<?xml version="1.0" encoding="utf-8"?>
<!-- Generated by IcoMoon.io -->
<!DOCTYPE svg PUBLIC "-//W3C//DTD SVG 1.1//EN" "http://www.w3.org/Graphics/SVG/1.1/DTD/svg11.dtd">
<svg version="1.1" xmlns="http://www.w3.org/2000/svg" xmlns:xlink="http://www.w3.org/1999/xlink" width="32" height="32" viewBox="0 0 32 32">
<path fill="#444444" d="M3 29v-25h25v25h-25zM26 6h-21v6h2.017c0.149-1.12 0.746-1.959 1.462-1.959 0.717 0 1.314 0.839 1.462 1.959h1.071c0.144-1.131 0.745-1.979 1.466-1.979s1.322 0.849 1.466 1.979h7.067c0.144-1.131 0.745-1.979 1.466-1.979 0.722 0 1.322 0.849 1.467 1.979h2.056v-6zM26 13h-2.050c-0.134 1.151-0.741 2.021-1.472 2.021-0.729 0-1.336-0.869-1.471-2.021h-7.057c-0.134 1.151-0.741 2.021-1.471 2.021s-1.337-0.87-1.471-2.021h-1.057c-0.129 1.161-0.738 2.041-1.472 2.041s-1.343-0.88-1.472-2.041h-2.007v7h7.992c0.144-1.131 0.746-1.979 1.466-1.979 0.721 0 1.323 0.849 1.467 1.979h0.999c0.129-1.161 0.738-2.042 1.473-2.042 0.733 0 1.342 0.881 1.472 2.042h1.12c0.139-1.142 0.744-2 1.47-2s1.331 0.858 1.47 2h2.071v-7zM26 21h-2.072c-0.139 1.141-0.744 2-1.47 2s-1.331-0.859-1.47-2h-1.13c-0.149 1.119-0.746 1.958-1.462 1.958s-1.314-0.839-1.463-1.958h-1.004c-0.134 1.151-0.741 2.021-1.471 2.021-0.729 0-1.336-0.869-1.471-2.021h-7.987v6h21v-6z"></path>
</svg>
