<?xml version="1.0" encoding="utf-8"?>
<!-- Generated by IcoMoon.io -->
<!DOCTYPE svg PUBLIC "-//W3C//DTD SVG 1.1//EN" "http://www.w3.org/Graphics/SVG/1.1/DTD/svg11.dtd">
<svg version="1.1" xmlns="http://www.w3.org/2000/svg" xmlns:xlink="http://www.w3.org/1999/xlink" width="32" height="32" viewBox="0 0 32 32">
<path fill="#444444" d="M5.738 2.796l-2.943 2.942c-0.195 0.196-0.195 0.512 0 0.707 0.098 0.098 0.226 0.146 0.354 0.146s0.256-0.049 0.354-0.146l2.943-2.942c0.195-0.195 0.195-0.512 0-0.707s-0.512-0.195-0.708 0zM28.496 25.553l-2.943 2.942c-0.195 0.195-0.195 0.512 0 0.707 0.098 0.098 0.226 0.146 0.354 0.146s0.256-0.049 0.354-0.146l2.943-2.942c0.195-0.195 0.195-0.512 0-0.707s-0.513-0.196-0.708 0zM26.652 2.992c-0.195-0.195-0.512-0.195-0.707 0s-0.195 0.512 0 0.707l2.747 2.746c0.098 0.098 0.226 0.146 0.354 0.146s0.256-0.049 0.354-0.146c0.195-0.195 0.195-0.512 0-0.707l-2.748-2.746zM2.992 25.945c-0.195 0.195-0.195 0.512 0 0.707l2.747 2.746c0.098 0.098 0.226 0.146 0.354 0.146s0.256-0.049 0.354-0.146c0.195-0.195 0.195-0.512 0-0.707l-2.747-2.746c-0.197-0.195-0.513-0.195-0.708 0zM4.532 9.86c-0.204 0.38-0.381 0.771-0.544 1.164-1.309 3.164-1.31 6.791-0.001 9.952 0.202 0.487 0.427 0.953 0.668 1.383 0.583 1.041 1.306 1.996 2.148 2.838 0.964 0.965 2.069 1.769 3.284 2.389 0.308 0.157 0.621 0.296 0.938 0.427 1.582 0.655 3.256 0.987 4.975 0.987s3.393-0.332 4.976-0.987c0.001 0 0.001-0.001 0.002-0.002 0.393-0.162 0.782-0.34 1.161-0.543 1.125-0.602 2.154-1.366 3.058-2.271 0.904-0.903 1.668-1.932 2.271-3.059 0.203-0.38 0.382-0.769 0.545-1.164 0 0 0-0.001 0-0.001 1.307-3.163 1.307-6.789-0.001-9.949-0.131-0.316-0.271-0.631-0.427-0.938-0.619-1.214-1.423-2.318-2.389-3.284-0.841-0.841-1.795-1.563-2.837-2.147-0.429-0.241-0.895-0.467-1.384-0.669-3.163-1.309-6.783-1.309-9.951 0.001 0 0-0.001 0-0.001 0-0.395 0.164-0.784 0.341-1.164 0.545-1.124 0.602-2.152 1.366-3.056 2.271-0.904 0.903-1.669 1.931-2.271 3.057zM14.1 11.414c0 0 0 0 0 0 0.432-0.178 0.877-0.295 1.322-0.347 0.466-0.055 0.939-0.043 1.402 0.035 0.368 0.061 0.73 0.165 1.077 0.307 0 0 0 0 0.001 0 0.604 0.25 1.146 0.612 1.611 1.077 0.461 0.461 0.822 1.003 1.073 1.612 0 0 0 0 0 0.001s0 0 0 0c0.211 0.511 0.335 1.042 0.37 1.58 0.019 0.297 0.011 0.599-0.023 0.896-0.052 0.446-0.168 0.891-0.347 1.322 0 0 0 0 0 0s0 0 0 0.001c-0.251 0.609-0.612 1.151-1.073 1.612-0.46 0.46-1.003 0.821-1.613 1.073 0 0 0 0 0 0-0.432 0.177-0.877 0.295-1.322 0.346-0.297 0.035-0.596 0.043-0.897 0.023-0.537-0.034-1.069-0.159-1.581-0.37-0.61-0.252-1.153-0.613-1.613-1.073-0.465-0.465-0.827-1.006-1.077-1.611-0.143-0.346-0.247-0.709-0.309-1.078-0.078-0.465-0.089-0.937-0.035-1.401 0.052-0.446 0.168-0.891 0.347-1.322 0 0 0 0 0 0s0 0 0-0.001c0.251-0.609 0.612-1.151 1.073-1.612 0.461-0.457 1.004-0.818 1.614-1.070zM27.271 11.873c0.966 2.648 0.966 5.604 0 8.254l-5.588-2.314c0.119-0.368 0.2-0.743 0.244-1.12 0.042-0.356 0.051-0.719 0.028-1.076-0.031-0.483-0.122-0.962-0.272-1.429l5.588-2.315zM10.116 16.989c0.047 0.279 0.114 0.555 0.199 0.824l-5.586 2.315c-0.966-2.648-0.965-5.604 0.001-8.254l5.587 2.314c-0.119 0.368-0.2 0.743-0.244 1.119-0.064 0.558-0.051 1.124 0.043 1.682zM7.51 24.49c-0.777-0.777-1.444-1.658-1.983-2.62-0.146-0.26-0.285-0.533-0.416-0.818l5.586-2.313c0.281 0.546 0.645 1.042 1.083 1.481 0.436 0.437 0.934 0.799 1.483 1.080l-2.316 5.591c-0.136-0.062-0.271-0.127-0.406-0.195-1.121-0.574-2.141-1.315-3.031-2.206zM11.873 27.271l2.315-5.589c0.467 0.15 0.946 0.241 1.428 0.272 0.358 0.021 0.718 0.015 1.078-0.028 0.376-0.044 0.75-0.126 1.118-0.244l2.315 5.589c-2.643 0.968-5.611 0.968-8.254 0zM24.49 24.49c-0.834 0.835-1.784 1.54-2.824 2.097-0.202 0.108-0.407 0.209-0.614 0.304l-2.316-5.591c0.55-0.281 1.047-0.643 1.483-1.080 0.437-0.436 0.799-0.934 1.080-1.483l5.59 2.315c-0.095 0.208-0.195 0.413-0.304 0.615-0.555 1.040-1.26 1.989-2.095 2.823zM24.49 7.51c0.892 0.892 1.633 1.911 2.205 3.032 0.069 0.134 0.133 0.269 0.196 0.406l-5.591 2.315c-0.282-0.549-0.643-1.047-1.080-1.483-0.439-0.439-0.936-0.803-1.482-1.084l2.315-5.586c0.286 0.132 0.56 0.271 0.819 0.417 0.961 0.539 1.842 1.206 2.618 1.983zM20.128 4.729l-2.315 5.587c-0.27-0.086-0.546-0.152-0.824-0.199-0.553-0.094-1.12-0.108-1.683-0.042-0.376 0.044-0.75 0.126-1.118 0.244l-2.315-5.589c2.645-0.969 5.612-0.969 8.255-0.001zM10.333 5.413c0.202-0.108 0.407-0.209 0.615-0.303l2.315 5.59c-0.55 0.281-1.047 0.644-1.483 1.080s-0.799 0.934-1.080 1.483l-5.59-2.315c0.094-0.208 0.194-0.413 0.303-0.615 0.557-1.040 1.262-1.989 2.097-2.823 0.834-0.835 1.784-1.54 2.823-2.097zM23.418 29.041c-4.576 2.607-10.261 2.607-14.837 0-0.241-0.136-0.546-0.054-0.682 0.188-0.137 0.239-0.053 0.545 0.187 0.682 2.441 1.391 5.177 2.085 7.914 2.085s5.473-0.694 7.914-2.085c0.24-0.137 0.324-0.442 0.187-0.682-0.138-0.242-0.443-0.324-0.683-0.188zM2.090 8.087c-2.781 4.881-2.781 10.945 0 15.826 0.092 0.162 0.261 0.253 0.435 0.253 0.084 0 0.169-0.021 0.247-0.065 0.24-0.137 0.324-0.442 0.187-0.682-2.607-4.576-2.607-10.262 0-14.838 0.137-0.239 0.053-0.545-0.187-0.682-0.241-0.135-0.546-0.052-0.682 0.188zM29.91 23.913c2.781-4.881 2.781-10.945 0-15.826-0.137-0.24-0.444-0.323-0.682-0.188-0.24 0.137-0.324 0.442-0.187 0.682 2.607 4.576 2.607 10.262 0 14.838-0.137 0.239-0.053 0.545 0.187 0.682 0.078 0.044 0.163 0.065 0.247 0.065 0.174 0 0.343-0.091 0.435-0.253zM8.582 2.959c4.576-2.607 10.261-2.607 14.837 0 0.078 0.044 0.163 0.065 0.247 0.065 0.174 0 0.343-0.091 0.435-0.253 0.137-0.239 0.053-0.545-0.187-0.682-4.882-2.781-10.945-2.781-15.827 0-0.24 0.137-0.324 0.442-0.187 0.682 0.136 0.241 0.441 0.322 0.682 0.188z"></path>
</svg>
