<?xml version="1.0" encoding="utf-8"?>
<!-- Generated by IcoMoon.io -->
<!DOCTYPE svg PUBLIC "-//W3C//DTD SVG 1.1//EN" "http://www.w3.org/Graphics/SVG/1.1/DTD/svg11.dtd">
<svg version="1.1" xmlns="http://www.w3.org/2000/svg" xmlns:xlink="http://www.w3.org/1999/xlink" width="32" height="32" viewBox="0 0 32 32">
<path fill="#444444" d="M4 18h-4v12c0 1.105 0.894 2 2 2h12v-4h-10v-10zM4 4h10v-4h-12c-1.105 0-2 0.894-2 2v12h4v-10zM28 28h-10v4h12c1.105 0 2-0.895 2-2v-12h-4v10zM30 0h-12v4h10v10h4v-12c0-1.105-0.895-2-2-2zM18 14v-6h-4v6h-6v4h6v6h4v-6h6v-4z"></path>
</svg>
