<?xml version="1.0" encoding="utf-8"?>
<!-- Generated by IcoMoon.io -->
<!DOCTYPE svg PUBLIC "-//W3C//DTD SVG 1.1//EN" "http://www.w3.org/Graphics/SVG/1.1/DTD/svg11.dtd">
<svg version="1.1" xmlns="http://www.w3.org/2000/svg" xmlns:xlink="http://www.w3.org/1999/xlink" width="24" height="24" viewBox="0 0 24 24">
<path fill="#444444" d="M18.383 4.318c-0.374-0.155-0.804-0.069-1.090 0.217-1.264 1.263-3.321 1.264-4.586 0-2.045-2.043-5.37-2.043-7.414 0-0.188 0.187-0.293 0.442-0.293 0.707v13c0 0.552 0.448 1 1 1s1-0.448 1-1v-4.553c1.271-0.997 3.121-0.911 4.293 0.26 2.045 2.043 5.371 2.043 7.414 0 0.188-0.188 0.293-0.442 0.293-0.707v-8c0-0.405-0.244-0.769-0.617-0.924zM11.293 5.949c1.54 1.539 3.808 1.918 5.707 1.138v2.311c-1.446 0.916-3.387 0.749-4.646-0.51-1.448-1.447-3.598-1.743-5.354-0.927v-2.272c1.271-0.997 3.121-0.912 4.293 0.26zM12.707 12.534c-1.022-1.021-2.365-1.532-3.707-1.532-0.681 0-1.361 0.131-2 0.394v-2.311c1.446-0.916 3.387-0.749 4.646 0.51 0.925 0.924 2.139 1.386 3.354 1.386 0.687 0 1.366-0.164 2-0.459v2.272c-1.272 0.997-3.122 0.911-4.293-0.26z"></path>
</svg>
