<?xml version="1.0" encoding="utf-8"?>
<!-- Generated by IcoMoon.io -->
<!DOCTYPE svg PUBLIC "-//W3C//DTD SVG 1.1//EN" "http://www.w3.org/Graphics/SVG/1.1/DTD/svg11.dtd">
<svg version="1.1" xmlns="http://www.w3.org/2000/svg" xmlns:xlink="http://www.w3.org/1999/xlink" width="48" height="48" viewBox="0 0 48 48">
<path fill="#444444" d="M0 42c8.49 3.85 18.569 6 28.5 6 3.22 0 6.39-0.15 9.48-0.66 1.209-0.2 2.779-0.65 3.459-1.17 0.951-0.731 1.561-1.88 1.561-3.17 0-1.189-0.52-2.27-1.35-3h0.35c2.21 0 4-1.79 4-4s-1.79-4-4-4h2c2.21 0 4-1.79 4-4s-1.79-4-4-4c2.21 0 4-1.79 4-4s-1.79-4-4-4l-17.939 0c-1.381 0-2.5-1.12-2.5-2.5l1.259-8.311c0.119-0.378 0.18-0.779 0.18-1.189 0-2.21-1.79-4-4-4-1.85 0-3.41 1.26-3.86 2.96l-0.17 0.57c-2.57 8.18-8.39 15.651-16.97 20.47v18z"></path>
</svg>
