<?xml version="1.0" encoding="utf-8"?>
<!-- Generated by IcoMoon.io -->
<!DOCTYPE svg PUBLIC "-//W3C//DTD SVG 1.1//EN" "http://www.w3.org/Graphics/SVG/1.1/DTD/svg11.dtd">
<svg version="1.1" xmlns="http://www.w3.org/2000/svg" xmlns:xlink="http://www.w3.org/1999/xlink" width="18" height="18" viewBox="0 0 18 18">
<path fill="#444444" d="M8 6.829v5.171c0 0.552 0.448 1 1 1s1-0.448 1-1v-5.171c1.165-0.412 2-1.523 2-2.829 0-1.657-1.343-3-3-3s-3 1.343-3 3c0 1.306 0.835 2.417 2 2.829zM16 7h-2c-0.552 0-1 0.448-1 1s0.448 1 1 1h0.5c0.276 0 0.5 0.224 0.5 0.5v5c0 0.276-0.224 0.5-0.5 0.5h-11c-0.276 0-0.5-0.224-0.5-0.5v-5c0-0.276 0.224-0.5 0.5-0.5h0.5c0.552 0 1-0.448 1-1s-0.448-1-1-1h-2c-0.552 0-1 0.448-1 1v8c0 0.552 0.448 1 1 1h14c0.552 0 1-0.448 1-1v-8c0-0.552-0.448-1-1-1z"></path>
</svg>
