<?xml version="1.0" encoding="utf-8"?>
<!-- Generated by IcoMoon.io -->
<!DOCTYPE svg PUBLIC "-//W3C//DTD SVG 1.1//EN" "http://www.w3.org/Graphics/SVG/1.1/DTD/svg11.dtd">
<svg version="1.1" xmlns="http://www.w3.org/2000/svg" xmlns:xlink="http://www.w3.org/1999/xlink" width="32" height="32" viewBox="0 0 32 32">
<path fill="#444444" d="M32 22c0 1.104-0.896 2-2 2v2.184c1.162 0.414 2 1.512 2 2.816 0 1.656-1.344 3-3 3-1.305 0-2.403-0.838-2.816-2h-2.184c0 1.104-0.896 2-2 2s-2-0.896-2-2h-2c0 1.104-0.896 2-2 2s-2-0.896-2-2h-2c0 1.104-0.896 2-2 2s-2-0.896-2-2h-2.184c-0.413 1.162-1.512 2-2.816 2-1.657 0-3-1.344-3-3 0-1.305 0.837-2.402 2-2.816v-2.184c-1.104 0-2-0.896-2-2s0.896-2 2-2v-2c-1.104 0-2-0.896-2-2s0.896-2 2-2v-2c-1.104 0-2-0.896-2-2s0.896-2 2-2v-2.184c-1.163-0.413-2-1.512-2-2.816 0-1.657 1.343-3 3-3 1.304 0 2.403 0.837 2.816 2h2.184c0-1.104 0.896-2 2-2s2 0.896 2 2h2c0-1.104 0.896-2 2-2s2 0.896 2 2h2c0-1.104 0.896-2 2-2s2 0.896 2 2h2.184c0.413-1.163 1.511-2 2.816-2 1.656 0 3 1.343 3 3 0 1.304-0.838 2.403-2 2.816v2.184c1.104 0 2 0.896 2 2s-0.896 2-2 2v2c1.104 0 2 0.896 2 2s-0.896 2-2 2v2c1.104 0 2 0.896 2 2zM26 7c0-0.552-0.447-1-1-1h-18c-0.552 0-1 0.448-1 1v18c0 0.553 0.448 1 1 1h18c0.553 0 1-0.447 1-1v-18z"></path>
</svg>
