<?xml version="1.0" encoding="utf-8"?>
<!-- Generated by IcoMoon.io -->
<!DOCTYPE svg PUBLIC "-//W3C//DTD SVG 1.1//EN" "http://www.w3.org/Graphics/SVG/1.1/DTD/svg11.dtd">
<svg version="1.1" xmlns="http://www.w3.org/2000/svg" xmlns:xlink="http://www.w3.org/1999/xlink" width="48" height="48" viewBox="0 0 48 48">
<path fill="#444444" d="M20 29v5h8v-5c0-2.21-1.79-4-4-4s-4 1.79-4 4zM13 16.5v5c0 1.38 1.12 2.5 2.5 2.5s2.5-1.12 2.5-2.5v-5c0-1.38-1.12-2.5-2.5-2.5s-2.5 1.12-2.5 2.5zM30 16.5v5c0 1.38 1.12 2.5 2.5 2.5s2.5-1.12 2.5-2.5v-5c0-1.38-1.12-2.5-2.5-2.5s-2.5 1.12-2.5 2.5zM0 44c0 2.21 1.79 4 4 4h40c2.21 0 4-1.79 4-4l-0-40c0-2.21-1.79-4-4-4h-40c-2.21 0-4 1.79-4 4v40zM7 24c0-4.83 0.98-9.42 2.75-13.61l0.1-0.25c0.32-0.68 1.010-1.14 1.81-1.14h24.68c0.801 0 1.49 0.46 1.811 1.14l0.1 0.25c1.769 4.19 2.749 8.78 2.749 13.61s-0.98 9.42-2.75 13.61l-0.1 0.25c-0.32 0.68-1.009 1.14-1.81 1.14h-24.68c-0.8 0-1.49-0.46-1.81-1.14l-0.1-0.25c-1.77-4.19-2.75-8.78-2.75-13.61z"></path>
</svg>
