<?xml version="1.0" encoding="UTF-8"?>
<!DOCTYPE svg PUBLIC "-//W3C//DTD SVG 1.1//EN" "http://www.w3.org/Graphics/SVG/1.1/DTD/svg11.dtd">
<!-- Creator: CorelDRAW X8 -->
<svg xmlns="http://www.w3.org/2000/svg" xml:space="preserve" width="3.12317in" height="2.42131in" version="1.1" style="shape-rendering:geometricPrecision; text-rendering:geometricPrecision; image-rendering:optimizeQuality; fill-rule:evenodd; clip-rule:evenodd"
viewBox="0 0 1427 1107"
 xmlns:xlink="http://www.w3.org/1999/xlink">
 <defs>
  <style type="text/css">
   <![CDATA[
    .fil0 {fill:black}
   ]]>
  </style>
 </defs>
 <g id="Layer_x0020_1">
  <metadata id="CorelCorpID_0Corel-Layer"/>
  <path class="fil0" d="M448 714l177 0 0 -268 178 0 0 268 176 0 -265 265 -266 -265zm-448 -164l0 -38c2,-33 11,-66 27,-98 20,-39 17,-31 39,-58 15,-20 31,-32 51,-47 13,-9 25,-15 41,-23 72,-35 109,-21 160,-21 -4,-28 -5,-35 2,-65 8,-34 27,-69 50,-92 55,-55 151,-74 223,-32 43,26 39,36 59,49 3,-10 35,-39 44,-48 110,-98 292,-103 409,-14 9,6 15,10 22,17 29,28 53,51 73,89 5,10 9,15 14,25 16,39 29,88 29,129 53,13 96,43 127,78 41,46 57,101 57,170 0,72 -40,139 -93,180 -37,29 -87,52 -143,52 -53,0 -105,0 -157,0 -19,0 -17,1 -27,12l-293 292 -82 -80c-27,-28 -52,-53 -79,-80 -27,-27 -53,-52 -80,-79l-59 -61c-10,-7 -20,-4 -35,-4 -52,0 -111,4 -158,-4 -124,-20 -212,-129 -221,-249z"/>
 </g>
</svg>
