<?xml version="1.0" encoding="utf-8"?>
<!-- Generated by IcoMoon.io -->
<!DOCTYPE svg PUBLIC "-//W3C//DTD SVG 1.1//EN" "http://www.w3.org/Graphics/SVG/1.1/DTD/svg11.dtd">
<svg version="1.1" xmlns="http://www.w3.org/2000/svg" xmlns:xlink="http://www.w3.org/1999/xlink" width="24" height="24" viewBox="0 0 24 24">
<path fill="#444444" d="M8 11c0 0.552-0.448 1-1 1s-1-0.448-1-1c0-0.552 0.448-1 1-1s1 0.448 1 1z"></path>
<path fill="#444444" d="M21.585 7.188c-0.262-0.188-0.599-0.241-0.901-0.137l-1.707 0.568c-0.188-1.477-1.451-2.62-2.977-2.62h-11c-1.654 0-3 1.347-3 3v6c0 1.653 1.346 3 3 3h3v1.111l0.008 0.090c0.066 0.738 0.381 1.423 0.887 1.928 0.562 0.562 1.311 0.872 2.104 0.872s1.542-0.31 2.104-0.87c0.574-0.577 0.898-1.346 0.896-2.113v-1.017h2c1.524 0 2.789-1.145 2.978-2.62l1.707 0.568c0.303 0.104 0.64 0.051 0.9-0.138 0.262-0.188 0.415-0.49 0.415-0.812v-6c0.001-0.318-0.153-0.621-0.414-0.81zM12 18.023c0.001 0.248-0.119 0.5-0.309 0.689s-0.441 0.286-0.692 0.286c-0.25 0-0.501-0.097-0.69-0.286-0.19-0.189-0.285-0.441-0.309-0.691v-2.021h2v2.023zM17 14c0 0.552-0.448 1-1 1h-11c-0.552 0-1-0.448-1-1v-6c0-0.552 0.448-1 1-1h11c0.552 0 1 0.448 1 1v6zM20 12.611c0 0-1.895-0.605-2-0.605v-2.012c0.105 0 2-0.605 2-0.605v3.222z"></path>
</svg>
