<?xml version="1.0" encoding="utf-8"?>
<!-- Generated by IcoMoon.io -->
<!DOCTYPE svg PUBLIC "-//W3C//DTD SVG 1.1//EN" "http://www.w3.org/Graphics/SVG/1.1/DTD/svg11.dtd">
<svg version="1.1" xmlns="http://www.w3.org/2000/svg" xmlns:xlink="http://www.w3.org/1999/xlink" width="24" height="24" viewBox="0 0 24 24">
<path fill="#444444" d="M21 1h-18c-1.654 0-3 1.346-3 3v11c0 1.654 1.346 3 3 3h6v2h-3c-0.552 0-1 0.448-1 1s0.448 1 1 1h12c0.552 0 1-0.448 1-1s-0.448-1-1-1h-3v-2h6c1.654 0 3-1.346 3-3v-11c0-1.654-1.346-3-3-3zM14 20h-4v-2h4v2zM22 15c0 0.551-0.449 1-1 1h-18c-0.551 0-1-0.449-1-1v-11c0-0.551 0.449-1 1-1h18c0.551 0 1 0.449 1 1v11z"></path>
<path fill="#444444" d="M20 4h-16c-0.55 0-1 0.45-1 1v8c0 0.55 0.45 1 1 1h16c0.55 0 1-0.45 1-1v-8c0-0.55-0.45-1-1-1zM20 13h-16v-8h16v8z"></path>
</svg>
