<?xml version="1.0" encoding="utf-8"?>
<!-- Generated by IcoMoon.io -->
<!DOCTYPE svg PUBLIC "-//W3C//DTD SVG 1.1//EN" "http://www.w3.org/Graphics/SVG/1.1/DTD/svg11.dtd">
<svg version="1.1" xmlns="http://www.w3.org/2000/svg" xmlns:xlink="http://www.w3.org/1999/xlink" width="24" height="32" viewBox="0 0 24 32">
<path fill="#444444" d="M18 2h-18v28h24v-22l-6-6zM2 4h7.994c-0.412 0.128-0.853 0.47-1.082 1.34-0.414 1.544-0.22 4.086 0.488 6.542-0.754 2.538-3.832 8.646-4.040 9.009-0.488 0.152-2.042 0.738-3.36 1.869v-18.76zM10.848 13.608c1.801 4.681 2.969 4.673 4.225 5.237-2.624 0.404-4.628 0.693-7.267 1.857-0.115 0.201 2.391-4.56 3.042-7.095zM22 28l-20-0.012c0.024 0.002 0.034 0.012 0.058 0.012 1.057 0 2.648-0.656 5.643-5.699 1.193-0.482 2.252-0.84 2.452-0.904 1.838-0.465 3.906-0.832 5.861-1.043 1.701 0.85 3.959 1.428 5.244 1.51 0.301 0.016 0.502-0.037 0.742-0.063v6.199zM22 18.293c-0.74-0.459-1.688-0.781-2.785-0.781-0.758 0-1.582 0.043-2.459 0.137-0.842-0.406-2.893-1.022-4.6-5.944 0.534-3.238 0.397-5.424 0.397-5.424 0.212-1.654-0.729-2.276-1.613-2.276 0 0-0.009-0.004-0.011-0.004h5.070l6 6v8.293z"></path>
</svg>
