<?xml version="1.0" encoding="utf-8"?>
<!-- Generated by IcoMoon.io -->
<!DOCTYPE svg PUBLIC "-//W3C//DTD SVG 1.1//EN" "http://www.w3.org/Graphics/SVG/1.1/DTD/svg11.dtd">
<svg version="1.1" xmlns="http://www.w3.org/2000/svg" xmlns:xlink="http://www.w3.org/1999/xlink" width="32" height="32" viewBox="0 0 32 32">
<path fill="#444444" d="M26.034 16.767l-4.090-4.090h2.396c-0.022-0.060-0.045-0.119-0.068-0.178-1.421-3.602-4.933-6.15-9.040-6.15-5.365 0-9.715 4.35-9.715 9.715s4.35 9.716 9.715 9.716c3.947 0 7.344-2.354 8.864-5.733 0.015-0.031 0.024-0.066 0.038-0.099l2.605 2.589c-0.017 0.030-0.029 0.064-0.047 0.096-0.004 0.007-0.008 0.014-0.012 0.020-2.299 3.972-6.594 6.643-11.513 6.643-7.34-0.002-13.292-5.954-13.292-13.296s5.952-13.294 13.294-13.294c6.138 0 11.303 4.158 12.833 9.812 0.015 0.052 0.019 0.107 0.032 0.159h2.091l-4.091 4.090z"></path>
</svg>
