<?xml version="1.0" encoding="utf-8"?>
<!-- Generated by IcoMoon.io -->
<!DOCTYPE svg PUBLIC "-//W3C//DTD SVG 1.1//EN" "http://www.w3.org/Graphics/SVG/1.1/DTD/svg11.dtd">
<svg version="1.1" xmlns="http://www.w3.org/2000/svg" xmlns:xlink="http://www.w3.org/1999/xlink" width="24" height="32" viewBox="0 0 24 32">
<path fill="#444444" d="M0 30v-28h18l6 6v22h-24zM22 10l-6-6h-14v24h20v-18zM10 16h-6v-8h6v8zM8 10h-2v4h2v-4zM8 24h2v2h-6v-2h2v-4h-2v-2h4v6zM16 14h2v2h-6v-2h2v-4h-2v-2h4v6zM18 26h-6v-8h6v8zM16 20h-2v4h2v-4z"></path>
</svg>
