<?xml version="1.0" encoding="utf-8"?>
<!-- Generated by IcoMoon.io -->
<!DOCTYPE svg PUBLIC "-//W3C//DTD SVG 1.1//EN" "http://www.w3.org/Graphics/SVG/1.1/DTD/svg11.dtd">
<svg version="1.1" xmlns="http://www.w3.org/2000/svg" xmlns:xlink="http://www.w3.org/1999/xlink" width="32" height="32" viewBox="0 0 32 32">
<path fill="#444444" d="M16.902 6.004h9.125l-0.020 9.229-3.129-3.128-2.949 2.949c0.662 1.164 1.043 2.507 1.043 3.941 0 4.418-3.58 8-8 8-4.418 0-8-3.582-8-8s3.582-8 8-8c1.525 0 2.946 0.435 4.16 1.176l2.918-2.956-3.148-3.211zM8.973 18.996c0 2.209 1.791 4 4 4s4-1.791 4-4-1.791-4-4-4-4 1.791-4 4z"></path>
</svg>
