<?xml version="1.0" encoding="utf-8"?>
<!-- Generated by IcoMoon.io -->
<!DOCTYPE svg PUBLIC "-//W3C//DTD SVG 1.1//EN" "http://www.w3.org/Graphics/SVG/1.1/DTD/svg11.dtd">
<svg version="1.1" xmlns="http://www.w3.org/2000/svg" xmlns:xlink="http://www.w3.org/1999/xlink" width="32" height="32" viewBox="0 0 32 32">
<path fill="#444444" d="M30 32h-28c-1.105 0-2-0.895-2-2v-28c0-1.105 0.895-2 2-2h20l-4 4h-14v24h24v-14l4-4v20c0 1.105-0.895 2-2 2zM8 24v-6l18-18h2l4 4v2l-18 18h-6zM17 17l11-11-2-2-11 11 2 2zM12 18l-2 2v2h2l2-2-2-2z"></path>
</svg>
