<?xml version="1.0" encoding="utf-8"?>
<!-- Generated by IcoMoon.io -->
<!DOCTYPE svg PUBLIC "-//W3C//DTD SVG 1.1//EN" "http://www.w3.org/Graphics/SVG/1.1/DTD/svg11.dtd">
<svg version="1.1" xmlns="http://www.w3.org/2000/svg" xmlns:xlink="http://www.w3.org/1999/xlink" width="24" height="24" viewBox="0 0 24 24">
<path fill="#444444" d="M6 16h12v-6h-12v6zM7 11h10v4h-10v-4zM6 8h12v1h-12zM6 17h5v1h-5zM6 19h3v1h-3zM10.035 19.059h1v1h-1zM13 17h5v1h-5zM13 19h5v1h-5zM20 4v-0.941c0-1.159-0.998-2.059-3.465-2.059h-12c-1.654 0-2.535 1.404-2.535 3.059v17c0 1.654 0.881 2.941 2.535 2.941h14c1.654 0 1.465 0 3.465 0v-20h-2zM20 22h-15.465c-0.551 0-0.535-0.391-0.535-0.941v-17c0-0.551-0.016-1.059 0.535-1.059h13.465v1h-12v2h14v16z"></path>
</svg>
