<?xml version="1.0" encoding="utf-8"?>
<!-- Generated by IcoMoon.io -->
<!DOCTYPE svg PUBLIC "-//W3C//DTD SVG 1.1//EN" "http://www.w3.org/Graphics/SVG/1.1/DTD/svg11.dtd">
<svg version="1.1" xmlns="http://www.w3.org/2000/svg" xmlns:xlink="http://www.w3.org/1999/xlink" width="28" height="32" viewBox="0 0 28 32">
<path fill="#444444" d="M16 10h-4v4h-4v4h4v4h4v-4h4v-4h-4v-4zM26 2c-1 0-23 0-24 0s-2 1-2 2 0 23 0 24 1 2 2 2 23 0 24 0 2-1 2-2 0-23 0-24-1-2-2-2zM24 25c0 0.5-0.531 1-1 1s-17.438 0-18 0-1-0.375-1-1c0-0.5 0-17.5 0-18s0.5-1 1-1 17.531 0 18 0 1 0.5 1 1 0 17.5 0 18z"></path>
</svg>
