<?xml version="1.0" encoding="utf-8"?>
<!-- Generated by IcoMoon.io -->
<!DOCTYPE svg PUBLIC "-//W3C//DTD SVG 1.1//EN" "http://www.w3.org/Graphics/SVG/1.1/DTD/svg11.dtd">
<svg version="1.1" xmlns="http://www.w3.org/2000/svg" xmlns:xlink="http://www.w3.org/1999/xlink" width="48" height="48" viewBox="0 0 48 48">
<path fill="#444444" d="M21 24.5c0-1.38 1.12-2.5 2.5-2.5s2.5 1.12 2.5 2.5-1.12 2.5-2.5 2.5-2.5-1.12-2.5-2.5zM23.5 18c-3.59 0-6.5 2.91-6.5 6.5s2.91 6.5 6.5 6.5 6.5-2.91 6.5-6.5-2.91-6.5-6.5-6.5zM6.66 29.28c0.38 1.35 0.92 2.63 1.6 3.819l-3 3.28c-0.859 0.86-0.859 2.25 0 3.11l3.25 3.25c0.86 0.859 2.25 0.859 3.11 0l3.28-3c1.189 0.68 2.47 1.22 3.819 1.6l0.281 4.461c0 1.22 0.98 2.2 2.2 2.2h4.6c1.22 0 2.2-0.98 2.2-2.2l0.279-4.46c1.351-0.38 2.631-0.92 3.82-1.6l3.28 3c0.86 0.859 2.25 0.859 3.11 0l3.25-3.25c0.859-0.86 0.859-2.25 0-3.11l-3-3.28c0.68-1.189 1.22-2.47 1.6-3.819l4.461-0.281c1.22 0 2.2-0.98 2.2-2.2v-4.6c0-1.22-0.98-2.2-2.2-2.2l-4.46-0.28c-0.38-1.35-0.92-2.63-1.6-3.82l3-3.28c0.859-0.86 0.859-2.25 0-3.11l-3.25-3.25c-0.86-0.86-2.25-0.86-3.11 0l-3.28 3c-1.189-0.68-2.47-1.22-3.82-1.6l-0.28-4.46c0-1.22-0.98-2.2-2.2-2.2h-4.6c-1.22 0-2.2 0.98-2.2 2.2l-0.28 4.46c-1.35 0.38-2.63 0.92-3.819 1.6l-3.28-3c-0.86-0.86-2.25-0.86-3.11 0l-3.251 3.25c-0.859 0.86-0.859 2.25 0 3.11l3 3.28c-0.68 1.19-1.22 2.47-1.6 3.82l-4.46 0.28c-1.22 0-2.2 0.98-2.2 2.2v4.6c0 1.22 0.98 2.2 2.2 2.2l4.46 0.28zM23.5 14c5.8 0 10.5 4.7 10.5 10.5s-4.7 10.5-10.5 10.5-10.5-4.7-10.5-10.5 4.7-10.5 10.5-10.5z"></path>
</svg>
