<?xml version="1.0" encoding="utf-8"?>
<!-- Generated by IcoMoon.io -->
<!DOCTYPE svg PUBLIC "-//W3C//DTD SVG 1.1//EN" "http://www.w3.org/Graphics/SVG/1.1/DTD/svg11.dtd">
<svg version="1.1" xmlns="http://www.w3.org/2000/svg" xmlns:xlink="http://www.w3.org/1999/xlink" width="32" height="32" viewBox="0 0 32 32">
<path fill="#444444" d="M30 24h-2v-20h-20v-2c0-1.105 0.895-2 2-2h20c1.105 0 2 0.894 2 2v20c0 1.105-0.895 2-2 2zM26 8v22c0 1.105-0.895 2-2 2h-22c-1.105 0-2-0.895-2-2v-22c0-1.106 0.894-2 2-2h22c1.105 0 2 0.894 2 2zM22 10h-18v6h18v-6zM22 20h-18v8h18v-8zM8 14h-2v-2h2v2zM12 14h-2v-2h2v2zM20 14h-6v-2h6v2z"></path>
</svg>
