<?xml version="1.0" encoding="utf-8"?>
<!-- Generated by IcoMoon.io -->
<!DOCTYPE svg PUBLIC "-//W3C//DTD SVG 1.1//EN" "http://www.w3.org/Graphics/SVG/1.1/DTD/svg11.dtd">
<svg version="1.1" xmlns="http://www.w3.org/2000/svg" xmlns:xlink="http://www.w3.org/1999/xlink" width="32" height="32" viewBox="0 0 32 32">
<path fill="#444444" d="M16 3c-7.18 0-13 5.82-13 13s5.82 13 13 13 13-5.82 13-13-5.82-13-13-13zM19.546 20.68c-0.839 1.137-2.003 1.705-3.492 1.705-1.19 0-2.16-0.319-2.911-0.959-0.75-0.641-1.199-1.502-1.346-2.582l2.469-0.256c0.070 0.559 0.278 1 0.623 1.324 0.345 0.326 0.742 0.488 1.192 0.488 0.515 0 0.949-0.209 1.307-0.627 0.355-0.418 0.534-1.049 0.534-1.893 0-0.79-0.178-1.383-0.532-1.778-0.355-0.395-0.818-0.593-1.388-0.593-0.71 0-1.348 0.312-1.911 0.938l-1.997-0.289 1.266-6.711h6.531v2.312h-4.658l-0.397 2.192c0.553-0.273 1.117-0.411 1.693-0.411 1.099 0 2.030 0.399 2.795 1.196s1.146 1.832 1.146 3.103c-0.001 1.062-0.309 2.009-0.924 2.841z"></path>
</svg>
