<?xml version="1.0" encoding="utf-8"?>
<!-- Generated by IcoMoon.io -->
<!DOCTYPE svg PUBLIC "-//W3C//DTD SVG 1.1//EN" "http://www.w3.org/Graphics/SVG/1.1/DTD/svg11.dtd">
<svg version="1.1" xmlns="http://www.w3.org/2000/svg" xmlns:xlink="http://www.w3.org/1999/xlink" width="48" height="48" viewBox="0 0 48 48">
<path fill="#444444" d="M21 34.82v10.68c0 1.38 1.12 2.5 2.5 2.5s2.5-1.12 2.5-2.5l-0-10.68c8.48-1.21 15-8.5 15-17.32 0-9.67-7.83-17.5-17.5-17.5s-17.5 7.83-17.5 17.5c0 8.82 6.52 16.11 15 17.32zM25 19.41c0.939-1.57 0.1-3.189-1.78-3.189-1.94 0-2.84 1.719-2.84 4.029 0 2.25 2.030 5.189 4.62 5.189 4.38 0 7.5-3.5 7.5-7.439 0-5.439-4.37-9.47-9.5-9.47-6.060 0-9.75 4.72-9.75 10.47 0 1.34 0.020 2.8 0.4 4.74 0.29 1.449-1.26 1.59-1.65 0.63-0.69-1.681-1.44-4.37-1.44-6.37 0-7.811 5.25-13 12.44-13 6.88 0 13 5.689 13 13 0 4.75-3.5 11-10.439 11-5.431 0-9.281-3.5-9.281-9 0-3.75 2.56-7.5 7.25-7.5 3.72 0 5.47 3.471 5.47 5.12 0 0.7-0.141 2.46-1.189 3.38-1.221 1.061-3.531-0.16-2.811-1.59z"></path>
</svg>
