<?xml version="1.0" encoding="utf-8"?>
<!-- Generated by IcoMoon.io -->
<!DOCTYPE svg PUBLIC "-//W3C//DTD SVG 1.1//EN" "http://www.w3.org/Graphics/SVG/1.1/DTD/svg11.dtd">
<svg version="1.1" xmlns="http://www.w3.org/2000/svg" xmlns:xlink="http://www.w3.org/1999/xlink" width="32" height="32" viewBox="0 0 32 32">
<path fill="#444444" d="M21.562 2h-11.551l-8.261 8.239v11.521l8.261 8.24 11.551-0.073 8.188-8.167v-11.521l-8.188-8.239zM28.75 21.349l-7.604 7.583-10.725 0.068-7.671-7.651v-10.699l7.671-7.65h10.726l7.604 7.65v10.699zM24.191 15.977c0.192-0.051 0.353-0.141 0.48-0.27 0.114-0.116 0.198-0.242 0.25-0.379 0.053-0.138 0.079-0.297 0.079-0.48 0-0.199-0.034-0.372-0.104-0.52-0.069-0.146-0.174-0.267-0.314-0.36-0.123-0.080-0.265-0.137-0.428-0.17s-0.365-0.051-0.607-0.051h-0.641v2.305h0.527c0.313 0 0.566-0.025 0.758-0.075zM20.003 14.225c-0.153-0.201-0.339-0.352-0.557-0.452s-0.462-0.15-0.733-0.15c-0.281 0-0.527 0.049-0.737 0.146-0.21 0.099-0.396 0.25-0.558 0.456-0.153 0.198-0.271 0.447-0.354 0.746s-0.123 0.639-0.123 1.017c0 0.764 0.16 1.349 0.48 1.754 0.321 0.405 0.751 0.607 1.291 0.607s0.969-0.202 1.288-0.607 0.479-0.99 0.479-1.754c0-0.386-0.042-0.727-0.125-1.024-0.083-0.298-0.2-0.544-0.351-0.739zM10.626 3.5l-7.376 7.356v10.286l7.376 7.357 10.313-0.065 7.311-7.292v-10.286l-7.311-7.356h-10.313zM10.502 17.915c-0.093 0.221-0.223 0.408-0.389 0.562-0.188 0.169-0.4 0.3-0.636 0.391s-0.531 0.137-0.886 0.137c-0.423 0-0.781-0.044-1.077-0.131s-0.574-0.194-0.834-0.322v-0.969h0.055c0.256 0.238 0.545 0.423 0.868 0.554s0.635 0.196 0.935 0.196c0.428 0 0.751-0.089 0.97-0.267s0.329-0.413 0.329-0.705c0-0.23-0.058-0.42-0.173-0.565s-0.298-0.253-0.549-0.323c-0.181-0.053-0.345-0.096-0.493-0.129s-0.336-0.080-0.56-0.138c-0.201-0.052-0.382-0.118-0.54-0.199-0.159-0.080-0.301-0.186-0.423-0.316-0.12-0.128-0.214-0.278-0.28-0.451s-0.1-0.373-0.1-0.601c0-0.472 0.184-0.866 0.552-1.186s0.838-0.479 1.409-0.479c0.326 0 0.635 0.033 0.926 0.098s0.561 0.157 0.809 0.276v0.923h-0.059c-0.186-0.167-0.423-0.312-0.713-0.438s-0.595-0.188-0.913-0.188c-0.36 0-0.651 0.084-0.873 0.252s-0.333 0.388-0.333 0.661c0 0.247 0.065 0.443 0.196 0.589s0.32 0.253 0.568 0.32c0.164 0.044 0.365 0.095 0.603 0.15s0.435 0.107 0.592 0.154c0.401 0.123 0.695 0.308 0.88 0.556 0.186 0.247 0.278 0.552 0.278 0.914 0 0.228-0.046 0.452-0.139 0.674zM15.887 13.888h-1.891v5.008h-0.961v-5.008h-1.828v-0.875h4.68v0.875zM22.133 13.075h1.461c0.344 0 0.637 0.029 0.879 0.086s0.456 0.15 0.641 0.277c0.216 0.148 0.386 0.337 0.508 0.564 0.122 0.229 0.184 0.504 0.184 0.826 0 0.253-0.045 0.492-0.135 0.717-0.090 0.226-0.214 0.418-0.373 0.576-0.2 0.198-0.437 0.348-0.707 0.449-0.271 0.102-0.613 0.152-1.027 0.152h-0.656v2.172h-0.773v-5.819zM21.285 15.987c0 0.473-0.060 0.899-0.18 1.28s-0.293 0.7-0.521 0.959c-0.237 0.271-0.514 0.472-0.83 0.601-0.317 0.129-0.665 0.193-1.046 0.193-0.394 0-0.748-0.066-1.063-0.199s-0.586-0.331-0.813-0.595c-0.224-0.259-0.396-0.577-0.516-0.955-0.12-0.379-0.18-0.807-0.18-1.284 0-0.49 0.061-0.921 0.182-1.291s0.294-0.689 0.518-0.955c0.225-0.259 0.495-0.455 0.812-0.589 0.316-0.135 0.671-0.202 1.062-0.202 0.396 0 0.753 0.069 1.071 0.208 0.317 0.138 0.586 0.332 0.805 0.583 0.222 0.256 0.394 0.572 0.517 0.951 0.121 0.378 0.182 0.81 0.182 1.295z"></path>
</svg>
