<?xml version="1.0" encoding="utf-8"?>
<!-- Generated by IcoMoon.io -->
<!DOCTYPE svg PUBLIC "-//W3C//DTD SVG 1.1//EN" "http://www.w3.org/Graphics/SVG/1.1/DTD/svg11.dtd">
<svg version="1.1" xmlns="http://www.w3.org/2000/svg" xmlns:xlink="http://www.w3.org/1999/xlink" width="23" height="32" viewBox="0 0 23 32">
<path fill="#444444" d="M11.514 6c0.276 0 0.5-0.224 0.5-0.5v-1.5h0.486c0.276 0 0.5-0.224 0.5-0.5v-3c0-0.276-0.224-0.5-0.5-0.5h-2c-0.276 0-0.5 0.224-0.5 0.5v3c0 0.276 0.224 0.5 0.5 0.5h0.514v1.5c0 0.276 0.223 0.5 0.5 0.5zM11 1h1v2h-1v-2zM0.268 31.817c0.074 0.039 0.153 0.058 0.232 0.058 0.18 0 0.354-0.098 0.442-0.268l4.292-8.173c1.925 0.967 4.059 1.49 6.279 1.49 2.214 0 4.344-0.521 6.265-1.483l4.278 8.166c0.090 0.17 0.264 0.268 0.443 0.268 0.078 0 0.158-0.019 0.232-0.057 0.244-0.129 0.339-0.431 0.211-0.676l-4.288-8.185c0.991-0.59 1.922-1.292 2.758-2.128 0.975-0.975 0.975-2.561 0-3.535-0.945-0.945-2.594-0.943-3.535 0-0.473 0.473-0.994 0.88-1.545 1.23l-2.358-4.501c0.913-0.729 1.511-1.837 1.511-3.093 0-2.19-1.782-3.973-3.973-3.973s-3.97 1.783-3.97 3.974c0 1.255 0.596 2.362 1.507 3.091l-2.363 4.498c-0.548-0.35-1.066-0.755-1.536-1.225-0.945-0.945-2.594-0.943-3.535 0-0.975 0.975-0.975 2.561 0 3.535 0.832 0.832 1.759 1.532 2.745 2.12l-4.302 8.192c-0.129 0.245-0.035 0.547 0.21 0.675zM3.382 17.562c0.401 0 0.778 0.156 1.062 0.439 1.886 1.886 4.396 2.924 7.070 2.924s5.186-1.038 7.072-2.924c0.566-0.567 1.555-0.565 2.121 0 0.585 0.585 0.585 1.536 0 2.121-2.452 2.451-5.718 3.802-9.193 3.802-3.477 0-6.74-1.351-9.191-3.802-0.585-0.585-0.585-1.536 0-2.121 0.282-0.282 0.658-0.439 1.059-0.439zM8.542 10.931c0-1.639 1.333-2.973 2.972-2.973s2.973 1.334 2.973 2.973-1.334 2.973-2.973 2.973-2.972-1.335-2.972-2.973zM9.899 14.553c0.494 0.221 1.039 0.351 1.615 0.351 0.574 0 1.117-0.128 1.61-0.348l2.335 4.457c-1.214 0.592-2.553 0.914-3.945 0.914-1.396 0-2.738-0.323-3.954-0.918l2.339-4.456z"></path>
</svg>
