<?xml version="1.0" encoding="utf-8"?>
<!-- Generated by IcoMoon.io -->
<!DOCTYPE svg PUBLIC "-//W3C//DTD SVG 1.1//EN" "http://www.w3.org/Graphics/SVG/1.1/DTD/svg11.dtd">
<svg version="1.1" xmlns="http://www.w3.org/2000/svg" xmlns:xlink="http://www.w3.org/1999/xlink" width="32" height="32" viewBox="0 0 32 32">
<path fill="#444444" d="M16 4c-6.628 0-12 5.373-12 12s5.372 12 12 12c6.627 0 12-5.373 12-12s-5.373-12-12-12zM20 9.812c0.828 0 1.5 0.896 1.5 2s-0.672 2-1.5 2-1.5-0.896-1.5-2 0.672-2 1.5-2zM11.925 9.825c0.828 0 1.5 0.896 1.5 2s-0.672 2-1.5 2-1.5-0.896-1.5-2 0.672-2 1.5-2zM15.875 23.312c-4.105 0-6.857-2.687-7.352-7.156h0.969c0.785 3.458 2.91 5.188 6.375 5.188s5.59-1.729 6.375-5.188h1c-0.494 4.47-3.262 7.156-7.367 7.156z"></path>
</svg>
