<?xml version="1.0" encoding="utf-8"?>
<!-- Generated by IcoMoon.io -->
<!DOCTYPE svg PUBLIC "-//W3C//DTD SVG 1.1//EN" "http://www.w3.org/Graphics/SVG/1.1/DTD/svg11.dtd">
<svg version="1.1" xmlns="http://www.w3.org/2000/svg" xmlns:xlink="http://www.w3.org/1999/xlink" width="27" height="32" viewBox="0 0 27 32">
<path fill="#444444" d="M13.5 0c-8.937 0-13.208 5.047-13.386 5.262-0.073 0.090-0.114 0.202-0.114 0.319v10.054c0 8.504 7.826 13.553 11.19 15.329 0.244 0.129 0.546 0.035 0.676-0.209 0.129-0.244 0.035-0.547-0.209-0.676-3.98-2.101-10.657-6.771-10.657-14.445v-9.863c0.702-0.755 4.632-4.597 12-4.765v30.494c0 0.276 0.224 0.5 0.5 0.5 0.149 0 0.283-0.065 0.375-0.169 1.637-0.704 13.125-6.015 13.125-16.331v-10c0-0.117-0.041-0.23-0.115-0.319-0.148-0.179-3.714-4.375-11.141-5.124-0.275-0.019-0.521 0.173-0.548 0.447-0.028 0.275 0.173 0.52 0.447 0.548 6.287 0.634 9.703 3.945 10.357 4.64v9.808c0 8.952-9.363 13.949-12 15.179v-30.179c0-0.276-0.224-0.5-0.5-0.5z"></path>
</svg>
