<?xml version="1.0" encoding="utf-8"?>
<!-- Generated by IcoMoon.io -->
<!DOCTYPE svg PUBLIC "-//W3C//DTD SVG 1.1//EN" "http://www.w3.org/Graphics/SVG/1.1/DTD/svg11.dtd">
<svg version="1.1" xmlns="http://www.w3.org/2000/svg" xmlns:xlink="http://www.w3.org/1999/xlink" width="24" height="24" viewBox="0 0 24 24">
<path fill="#444444" d="M18 7c0-1.654-1.346-3-3-3h-6c-1.654 0-3 1.346-3 3-1.654 0-3 1.346-3 3v7c0 1.654 1.346 3 3 3h12c1.654 0 3-1.346 3-3v-7c0-1.654-1.346-3-3-3zM9 6h6c0.551 0 1 0.449 1 1h-8c0-0.551 0.449-1 1-1zM19 17c0 0.551-0.449 1-1 1h-12c-0.551 0-1-0.449-1-1v-1h14v1zM5 15v-5c0-0.551 0.449-1 1-1h12c0.551 0 1 0.449 1 1v5h-14z"></path>
<path fill="#444444" d="M13 12h-2c-0.55 0-1 0.45-1 1s0.45 1 1 1h2c0.55 0 1-0.45 1-1s-0.45-1-1-1z"></path>
</svg>
