<?xml version="1.0" encoding="utf-8"?>
<!-- Generated by IcoMoon.io -->
<!DOCTYPE svg PUBLIC "-//W3C//DTD SVG 1.1//EN" "http://www.w3.org/Graphics/SVG/1.1/DTD/svg11.dtd">
<svg version="1.1" xmlns="http://www.w3.org/2000/svg" xmlns:xlink="http://www.w3.org/1999/xlink" width="18" height="18" viewBox="0 0 18 18">
<path fill="#444444" d="M17 1h-16c-0.552 0-1 0.448-1 1v14c0 0.552 0.448 1 1 1h16c0.552 0 1-0.448 1-1v-14c0-0.552-0.448-1-1-1zM16 14.5c0 0.276-0.224 0.5-0.5 0.5h-8.098l5.602-5.602 2.996 2.996v2.106zM16 9.606l-2.17-2.17c-0.035-0.051-0.075-0.1-0.12-0.145-0.196-0.196-0.455-0.293-0.712-0.29-0.256-0.003-0.513 0.093-0.709 0.289-0.040 0.040-0.076 0.084-0.108 0.129l-7.582 7.582h-2.098c-0.276 0-0.5-0.224-0.5-0.5v-11c0-0.276 0.224-0.5 0.5-0.5h12.999c0.276 0 0.5 0.224 0.5 0.5v6.106z"></path>
<path fill="#444444" d="M6 5c-1.105 0-2 0.895-2 2s0.895 2 2 2c1.104 0 2-0.895 2-2s-0.896-2-2-2z"></path>
</svg>
