<?xml version="1.0" encoding="utf-8"?>
<!-- Generated by IcoMoon.io -->
<!DOCTYPE svg PUBLIC "-//W3C//DTD SVG 1.1//EN" "http://www.w3.org/Graphics/SVG/1.1/DTD/svg11.dtd">
<svg version="1.1" xmlns="http://www.w3.org/2000/svg" xmlns:xlink="http://www.w3.org/1999/xlink" width="48" height="48" viewBox="0 0 48 48">
<path fill="#444444" d="M9.010 11.86v0.14c0.32 8.8 1.96 16.67 2.71 17.439 1.74 2.32 7.13 6.141 10.17 8.061 0.75 0.48 1.39 0.57 2.11 0.59 0.72-0.020 1.359-0.14 2.109-0.59 3.101-1.83 8.561-5.74 10.291-8.061 0.76-0.769 2.28-8.639 2.6-17.439l0.010-0.14c0-0.81-0.52-1.51-1.24-1.77-3.77-1.31-9.29-1.66-13.76-1.66-4.48 0-10 0.35-13.76 1.66-0.721 0.26-1.24 0.96-1.24 1.77zM0 6.090l0.010 0.22c0.51 14.080 2.769 26.46 3.99 27.69 2.8 3.721 11.75 9.5 16.59 12.66 1.15 0.75 2.25 1.311 3.41 1.34 1.16-0.029 2.26-0.59 3.41-1.34 4.84-3.16 13.79-8.939 16.59-12.66 1.22-1.23 3.48-13.61 3.99-27.69l0.010-0.22c0-1.3-0.84-2.43-2-2.84-6.070-2.1-14.78-3.25-22-3.25-7.221 0-15.931 1.15-22 3.25-1.16 0.41-2 1.54-2 2.84zM4.85 9.36c0-1.040 0.67-1.93 1.59-2.26 4.8-1.66 11.85-2.1 17.56-2.1s12.76 0.44 17.561 2.1c0.92 0.33 1.59 1.22 1.59 2.26l-0.011 0.17c-0.41 11.15-2.34 21.27-3.31 22.25-2.221 2.94-9.301 7.659-13.13 10.159-0.91 0.591-1.78 1.041-2.7 1.061-0.92-0.020-1.79-0.47-2.7-1.061-3.83-2.5-10.91-7.219-13.13-10.159-0.97-0.98-2.9-11.1-3.311-22.25l-0.009-0.17z"></path>
</svg>
