<?xml version="1.0" encoding="utf-8"?>
<!-- Generated by IcoMoon.io -->
<!DOCTYPE svg PUBLIC "-//W3C//DTD SVG 1.1//EN" "http://www.w3.org/Graphics/SVG/1.1/DTD/svg11.dtd">
<svg version="1.1" xmlns="http://www.w3.org/2000/svg" xmlns:xlink="http://www.w3.org/1999/xlink" width="32" height="32" viewBox="0 0 32 32">
<path fill="#444444" d="M22.016 0h-22.016v31.938l8.051-6.578 8.019 6.64 8.012-6.633 7.918 6.617v-21.984l-9.984-10zM28.020 23.938l-3.953-3.227-7.996 6.617-7.98-6.609-4.086 3.219c0 0 0-17.359 0-20 2.102 0 7.809 0 12.008 0v12h12.007c0 2.73 0 8 0 8zM20.016 11.938c0-1.543 0-5.914 0-8 1.617 1.617 6.402 6.398 8.004 8-2.047 0-6.45 0-8.004 0z"></path>
</svg>
