<?xml version="1.0" encoding="utf-8"?>
<!-- Generated by IcoMoon.io -->
<!DOCTYPE svg PUBLIC "-//W3C//DTD SVG 1.1//EN" "http://www.w3.org/Graphics/SVG/1.1/DTD/svg11.dtd">
<svg version="1.1" xmlns="http://www.w3.org/2000/svg" xmlns:xlink="http://www.w3.org/1999/xlink" width="24" height="24" viewBox="0 0 24 24">
<path fill="#444444" d="M8 3h-2c-0.825 0-1.575 0.337-2.119 0.881s-0.881 1.294-0.881 2.119v2c0 0.825 0.337 1.575 0.881 2.119s1.294 0.881 2.119 0.881h2c0.825 0 1.575-0.337 2.119-0.881s0.881-1.294 0.881-2.119v-2c0-0.825-0.337-1.575-0.881-2.119s-1.294-0.881-2.119-0.881z"></path>
<path fill="#444444" d="M18 3h-2c-0.825 0-1.575 0.337-2.119 0.881s-0.881 1.294-0.881 2.119v2c0 0.825 0.337 1.575 0.881 2.119s1.294 0.881 2.119 0.881h2c0.825 0 1.575-0.337 2.119-0.881s0.881-1.294 0.881-2.119v-2c0-0.825-0.337-1.575-0.881-2.119s-1.294-0.881-2.119-0.881z"></path>
<path fill="#444444" d="M8 13h-2c-0.825 0-1.575 0.337-2.119 0.881s-0.881 1.294-0.881 2.119v2c0 0.825 0.337 1.575 0.881 2.119s1.294 0.881 2.119 0.881h2c0.825 0 1.575-0.337 2.119-0.881s0.881-1.294 0.881-2.119v-2c0-0.825-0.337-1.575-0.881-2.119s-1.294-0.881-2.119-0.881z"></path>
<path fill="#444444" d="M18 13h-2c-0.825 0-1.575 0.337-2.119 0.881s-0.881 1.294-0.881 2.119v2c0 0.825 0.337 1.575 0.881 2.119s1.294 0.881 2.119 0.881h2c0.825 0 1.575-0.337 2.119-0.881s0.881-1.294 0.881-2.119v-2c0-0.825-0.337-1.575-0.881-2.119s-1.294-0.881-2.119-0.881z"></path>
</svg>
