<?xml version="1.0" encoding="utf-8"?>
<!-- Generated by IcoMoon.io -->
<!DOCTYPE svg PUBLIC "-//W3C//DTD SVG 1.1//EN" "http://www.w3.org/Graphics/SVG/1.1/DTD/svg11.dtd">
<svg version="1.1" xmlns="http://www.w3.org/2000/svg" xmlns:xlink="http://www.w3.org/1999/xlink" width="24" height="24" viewBox="0 0 24 24">
<path fill="#444444" d="M11.016 12.984v-6h1.969v6h-1.969zM21 3.984l-2.344 2.391q2.344 2.344 2.344 5.625 0 2.766-1.688 4.922t-4.313 2.813v-2.063q1.781-0.609 2.883-2.156t1.102-3.516q0-2.484-1.734-4.219l-2.25 2.203v-6h6zM11.016 17.016v-2.016h1.969v2.016h-1.969zM3 12q0-2.766 1.688-4.922t4.313-2.813v2.063q-1.781 0.609-2.883 2.156t-1.102 3.516q0 2.484 1.734 4.219l2.25-2.203v6h-6l2.344-2.391q-2.344-2.344-2.344-5.625z"></path>
</svg>
