<?xml version="1.0" encoding="utf-8"?>
<!-- Generated by IcoMoon.io -->
<!DOCTYPE svg PUBLIC "-//W3C//DTD SVG 1.1//EN" "http://www.w3.org/Graphics/SVG/1.1/DTD/svg11.dtd">
<svg version="1.1" xmlns="http://www.w3.org/2000/svg" xmlns:xlink="http://www.w3.org/1999/xlink" width="24" height="24" viewBox="0 0 24 24">
<path fill="#444444" d="M15.992 8v9h1v-9h-1zM5.992 2v4h-4v14h4v1c0 0.55 0.492 1 1.041 1h13.959v-20h-15zM6.992 16h-1v-6h1v6zM18.992 18h-1v1h1v1h-11v-1h1v-1h-1v-9h-3v8h2v1h-3v-10h4v-1h11v11zM18.992 6h-11v-2h11v2zM16.992 19h-1v-1h1v1zM14.992 19h-1v-1h1v1zM12.992 19h-1v-1h1v1zM10.992 19h-1v-1h1v1zM13.992 8v9h1v-9h-1z"></path>
</svg>
