<?xml version="1.0" encoding="utf-8"?>
<!-- Generated by IcoMoon.io -->
<!DOCTYPE svg PUBLIC "-//W3C//DTD SVG 1.1//EN" "http://www.w3.org/Graphics/SVG/1.1/DTD/svg11.dtd">
<svg version="1.1" xmlns="http://www.w3.org/2000/svg" xmlns:xlink="http://www.w3.org/1999/xlink" width="20" height="32" viewBox="0 0 20 32">
<path fill="#444444" d="M10 6c-5.524 0-10 4.476-10 10s4.476 10 10 10c5.523 0 10-4.477 10-10s-4.477-10-10-10zM10 10c0.864 0 1.678 0.19 2.42 0.518l-7.902 7.902c-0.327-0.742-0.518-1.556-0.518-2.42 0-3.313 2.686-6 6-6zM10 22c-0.876 0-1.704-0.199-2.456-0.535l7.935-7.891c0.33 0.744 0.521 1.56 0.521 2.426 0 3.314-2.686 6-6 6z"></path>
</svg>
