<?xml version="1.0" encoding="utf-8"?>
<!-- Generated by IcoMoon.io -->
<!DOCTYPE svg PUBLIC "-//W3C//DTD SVG 1.1//EN" "http://www.w3.org/Graphics/SVG/1.1/DTD/svg11.dtd">
<svg version="1.1" xmlns="http://www.w3.org/2000/svg" xmlns:xlink="http://www.w3.org/1999/xlink" width="26" height="32" viewBox="0 0 26 32">
<path fill="#444444" d="M14.584 3.097c-7.126-0.875-13.612 4.193-14.487 11.319s4.193 13.612 11.319 14.487c2.232 0.274 4.535-0.029 6.666-0.936l-0-0.001c0.763-0.324 1.118-1.204 0.795-1.967s-1.204-1.118-1.967-0.795l-0-0c-1.64 0.698-3.411 0.931-5.128 0.721-5.482-0.673-9.38-5.663-8.707-11.144s5.662-9.38 11.144-8.707c5.482 0.673 9.38 5.662 8.707 11.144-0.135 1.096-0.673 1.741-1.925 1.741-1.328 0-2-1.434-2-2.538v-3.922c0-0.828-0.672-1.5-1.5-1.5-0.303 0-0.585 0.090-0.821 0.245-0.803-0.633-1.795-1.058-2.948-1.2-3.289-0.404-6.283 1.935-6.686 5.224s1.935 6.283 5.224 6.686c1.793 0.22 3.632-0.46 4.933-1.66 0.78 0.879 1.871 1.488 3.129 1.643 2.741 0.337 5.236-1.613 5.572-4.353 0.875-7.126-4.193-13.612-11.319-14.487zM15.978 16.366c-0.202 1.644-1.699 2.814-3.343 2.612s-2.814-1.699-2.612-3.343c0.202-1.644 1.699-2.814 3.343-2.612s2.814 1.699 2.612 3.343z"></path>
</svg>
