<?xml version="1.0" encoding="utf-8"?>
<!-- Generated by IcoMoon.io -->
<!DOCTYPE svg PUBLIC "-//W3C//DTD SVG 1.1//EN" "http://www.w3.org/Graphics/SVG/1.1/DTD/svg11.dtd">
<svg version="1.1" xmlns="http://www.w3.org/2000/svg" xmlns:xlink="http://www.w3.org/1999/xlink" width="32" height="32" viewBox="0 0 32 32">
<path fill="#444444" d="M15 2l-15 4v18l15 4 15-4v-18l-15-4zM1.996 22.529l-0.012-13.529 12.016 3.204 0 13.526-12.004-3.201zM1.984 7l5.008-1.335 13.008 3.473-5 1.333-13.016-3.471zM28.004 22.529l-12.004 3.201 0-13.526 4-1.067v4.875l4-1.067v-4.875l4.016-1.071-0.012 13.529zM24 8.071v-0.004l-13.008-3.469 4.008-1.069 13.016 3.471-4.016 1.071z"></path>
</svg>
