<?xml version="1.0" encoding="utf-8"?>
<!-- Generated by IcoMoon.io -->
<!DOCTYPE svg PUBLIC "-//W3C//DTD SVG 1.1//EN" "http://www.w3.org/Graphics/SVG/1.1/DTD/svg11.dtd">
<svg version="1.1" xmlns="http://www.w3.org/2000/svg" xmlns:xlink="http://www.w3.org/1999/xlink" width="24" height="24" viewBox="0 0 24 24">
<path fill="#444444" d="M17 5c-0.771 0-1.468 0.301-2 0.779v-1.779c0-1.654-1.346-3-3-3s-3 1.346-3 3v4.779c-0.532-0.478-1.229-0.779-2-0.779-1.654 0-3 1.346-3 3v6h16v-9c0-1.654-1.346-3-3-3zM12 3c0.551 0 1 0.448 1 1v11h-2v-11c0-0.552 0.449-1 1-1zM8 15h-2v-4c0-0.552 0.449-1 1-1s1 0.448 1 1v4zM18 15h-2v-7c0-0.552 0.449-1 1-1s1 0.448 1 1v7z"></path>
<path fill="#444444" d="M19 21h-14c-0.552 0-1-0.447-1-1s0.448-1 1-1h14c0.552 0 1 0.447 1 1s-0.448 1-1 1z"></path>
</svg>
