<?xml version="1.0" encoding="utf-8"?>
<!-- Generated by IcoMoon.io -->
<!DOCTYPE svg PUBLIC "-//W3C//DTD SVG 1.1//EN" "http://www.w3.org/Graphics/SVG/1.1/DTD/svg11.dtd">
<svg version="1.1" xmlns="http://www.w3.org/2000/svg" xmlns:xlink="http://www.w3.org/1999/xlink" width="42" height="32" viewBox="0 0 42 32">
<path fill="#444444" d="M8.5 0h-7c-0.827 0-1.5 0.673-1.5 1.5v6c0 0.276 0.224 0.5 0.5 0.5s0.5-0.224 0.5-0.5v-6c0-0.276 0.225-0.5 0.5-0.5h7c0.276 0 0.5-0.224 0.5-0.5s-0.224-0.5-0.5-0.5zM40.5 0h-7c-0.276 0-0.5 0.224-0.5 0.5s0.224 0.5 0.5 0.5h7c0.275 0 0.5 0.224 0.5 0.5v6c0 0.276 0.224 0.5 0.5 0.5s0.5-0.224 0.5-0.5v-6c0-0.827-0.673-1.5-1.5-1.5zM41.5 24c-0.276 0-0.5 0.224-0.5 0.5v6c0 0.276-0.225 0.5-0.5 0.5h-7c-0.276 0-0.5 0.224-0.5 0.5s0.224 0.5 0.5 0.5h7c0.827 0 1.5-0.673 1.5-1.5v-6c0-0.276-0.224-0.5-0.5-0.5zM0.5 24c-0.276 0-0.5 0.224-0.5 0.5v6c0 0.827 0.673 1.5 1.5 1.5h7c0.276 0 0.5-0.224 0.5-0.5s-0.224-0.5-0.5-0.5h-7c-0.275 0-0.5-0.224-0.5-0.5v-6c0-0.276-0.224-0.5-0.5-0.5zM23.5 19c0.276 0 0.5-0.224 0.5-0.5v-5c0-0.276-0.224-0.5-0.5-0.5h-5c-0.276 0-0.5 0.224-0.5 0.5v5c0 0.276 0.224 0.5 0.5 0.5h5zM19 14h4v4h-4v-4z"></path>
</svg>
