<?xml version="1.0" encoding="utf-8"?>
<!-- Generated by IcoMoon.io -->
<!DOCTYPE svg PUBLIC "-//W3C//DTD SVG 1.1//EN" "http://www.w3.org/Graphics/SVG/1.1/DTD/svg11.dtd">
<svg version="1.1" xmlns="http://www.w3.org/2000/svg" xmlns:xlink="http://www.w3.org/1999/xlink" width="42" height="32" viewBox="0 0 42 32">
<path fill="#444444" d="M39.5 6h-7.5c-1.927 0-1.998-1.797-2-2v-1c0-1.258-1.39-3-4-3h-9.969c-2.935 0-4 1.794-4 3v0.994c-0.001 0.082-0.048 2.006-2.031 2.006h-7.5c-1.379 0-2.5 1.122-2.5 2.5v18c0 1.378 1.121 2.5 2.5 2.5h6c0.276 0 0.5-0.224 0.5-0.5s-0.224-0.5-0.5-0.5h-6c-0.827 0-1.5-0.673-1.5-1.5v-12.5h8c-0.644 1.54-1 3.229-1 5 0 7.168 5.832 13 13 13s13-5.832 13-13c0-1.771-0.359-3.46-1.003-5h8.003v12.5c0 0.827-0.673 1.5-1.5 1.5h-7c-0.276 0-0.5 0.224-0.5 0.5s0.224 0.5 0.5 0.5h7c1.379 0 2.5-1.122 2.5-2.5v-18c0-1.378-1.121-2.5-2.5-2.5zM21 31c-6.617 0-12-5.383-12-12s5.383-12 12-12 12 5.383 12 12-5.383 12-12 12zM32.75 13c-0.074 0-0.143 0.018-0.206 0.047-2.164-4.179-6.522-7.047-11.544-7.047s-9.38 2.868-11.544 7.047c-0.063-0.029-0.132-0.047-0.206-0.047h-8.25v-4.5c0-0.827 0.673-1.5 1.5-1.5h7.5c2.368 0 3.019-1.958 3.031-3v-1c0-0.804 0.799-2 3-2h9.969c2.094 0 3 1.324 3 2v1c0 1.038 0.627 3 3 3h7.5c0.827 0 1.5 0.673 1.5 1.5v4.5h-8.25zM9.5 5c0.276 0 0.5-0.224 0.5-0.5v-1c0-0.827-0.673-1.5-1.5-1.5h-4c-0.827 0-1.5 0.673-1.5 1.5v1c0 0.276 0.224 0.5 0.5 0.5s0.5-0.224 0.5-0.5v-1c0-0.276 0.225-0.5 0.5-0.5h4c0.275 0 0.5 0.224 0.5 0.5v1c0 0.276 0.224 0.5 0.5 0.5zM21 10c-4.963 0-9 4.038-9 9s4.037 9 9 9 9-4.038 9-9-4.037-9-9-9zM21 27c-4.411 0-8-3.589-8-8s3.589-8 8-8 8 3.589 8 8-3.589 8-8 8z"></path>
</svg>
