<?xml version="1.0" encoding="utf-8"?>
<!-- Generated by IcoMoon.io -->
<!DOCTYPE svg PUBLIC "-//W3C//DTD SVG 1.1//EN" "http://www.w3.org/Graphics/SVG/1.1/DTD/svg11.dtd">
<svg version="1.1" xmlns="http://www.w3.org/2000/svg" xmlns:xlink="http://www.w3.org/1999/xlink" width="48" height="48" viewBox="0 0 48 48">
<path fill="#444444" d="M0 44c0 2.21 1.79 4 4 4h40c2.21 0 4-1.79 4-4l-0-30c0-2.21-1.79-4-4-4h-8v-6c0-2.21-1.79-4-4-4h-16c-2.21 0-4 1.79-4 4v6h-8c-2.21 0-4 1.79-4 4v30zM31 10h-14v-2.8c0-1.22 0.98-2.2 2.2-2.2h9.6c1.22 0 2.2 0.98 2.2 2.2v2.8zM14.2 24h4.8v-4.8c0-1.22 0.98-2.2 2.2-2.2h5.6c1.22 0 2.2 0.98 2.2 2.2l-0 4.8h4.8c1.22 0 2.2 0.98 2.2 2.2v5.6c0 1.22-0.98 2.2-2.2 2.2h-4.8v4.8c0 1.22-0.98 2.2-2.2 2.2h-5.6c-1.22 0-2.2-0.98-2.2-2.2l0-4.8h-4.8c-1.22 0-2.2-0.98-2.2-2.2v-5.6c0-1.22 0.98-2.2 2.2-2.2z"></path>
</svg>
