<?xml version="1.0" encoding="utf-8"?>
<!-- Generated by IcoMoon.io -->
<!DOCTYPE svg PUBLIC "-//W3C//DTD SVG 1.1//EN" "http://www.w3.org/Graphics/SVG/1.1/DTD/svg11.dtd">
<svg version="1.1" xmlns="http://www.w3.org/2000/svg" xmlns:xlink="http://www.w3.org/1999/xlink" width="32" height="32" viewBox="0 0 32 32">
<path fill="#444444" d="M28 15h-0.049c-0.492 5.275-4.759 11-9.951 11v4h6c0.553 0 1 0.447 1 1s-0.447 1-1 1h-16c-0.553 0-1-0.447-1-1s0.447-1 1-1h6v-4c-5.192 0-9.458-5.725-9.951-11h-0.049v-6c0-1.104 0.896-2 2-2s2 0.896 2 2v5c0 4.418 3.582 8 8 8s8-3.582 8-8v-5c0-1.104 0.896-2 2-2s2 0.896 2 2v6zM16 18c-2.762 0-4-2.238-4-5v-8c0-2.761 1.238-5 4-5s4 2.239 4 5v8c0 2.762-1.238 5-4 5zM17.5 14c0.276 0 0.5-0.224 0.5-0.5s-0.224-0.5-0.5-0.5-0.5 0.225-0.5 0.5c0 0.276 0.224 0.5 0.5 0.5zM14.5 8c-0.276 0-0.5 0.225-0.5 0.5s0.224 0.5 0.5 0.5 0.5-0.224 0.5-0.5c0-0.275-0.224-0.5-0.5-0.5zM15 6.5c0-0.276-0.224-0.5-0.5-0.5s-0.5 0.224-0.5 0.5c0 0.276 0.224 0.5 0.5 0.5s0.5-0.224 0.5-0.5zM15.5 11c-0.276 0-0.5 0.225-0.5 0.5s0.224 0.5 0.5 0.5 0.5-0.224 0.5-0.5c0-0.275-0.224-0.5-0.5-0.5zM16.5 11c0.276 0 0.5-0.224 0.5-0.5s-0.224-0.5-0.5-0.5-0.5 0.225-0.5 0.5c0 0.276 0.224 0.5 0.5 0.5zM15.5 10c0.276 0 0.5-0.224 0.5-0.5s-0.224-0.5-0.5-0.5-0.5 0.225-0.5 0.5c0 0.276 0.224 0.5 0.5 0.5zM14.5 10c-0.276 0-0.5 0.225-0.5 0.5s0.224 0.5 0.5 0.5 0.5-0.224 0.5-0.5c0-0.275-0.224-0.5-0.5-0.5zM15.5 8c0.276 0 0.5-0.224 0.5-0.5s-0.224-0.5-0.5-0.5-0.5 0.224-0.5 0.5c0 0.276 0.224 0.5 0.5 0.5zM16.5 7c0.276 0 0.5-0.224 0.5-0.5s-0.224-0.5-0.5-0.5-0.5 0.224-0.5 0.5c0 0.276 0.224 0.5 0.5 0.5zM16.5 8c-0.276 0-0.5 0.225-0.5 0.5s0.224 0.5 0.5 0.5 0.5-0.224 0.5-0.5c0-0.275-0.224-0.5-0.5-0.5zM17.5 8c0.276 0 0.5-0.224 0.5-0.5s-0.224-0.5-0.5-0.5-0.5 0.224-0.5 0.5c0 0.276 0.224 0.5 0.5 0.5zM17.5 9c-0.276 0-0.5 0.225-0.5 0.5s0.224 0.5 0.5 0.5 0.5-0.224 0.5-0.5c0-0.275-0.224-0.5-0.5-0.5zM17.5 11c-0.276 0-0.5 0.225-0.5 0.5s0.224 0.5 0.5 0.5 0.5-0.224 0.5-0.5c0-0.275-0.224-0.5-0.5-0.5zM16.5 13c0.276 0 0.5-0.224 0.5-0.5s-0.224-0.5-0.5-0.5-0.5 0.225-0.5 0.5c0 0.276 0.224 0.5 0.5 0.5zM15.5 14c0.276 0 0.5-0.224 0.5-0.5s-0.224-0.5-0.5-0.5-0.5 0.225-0.5 0.5c0 0.276 0.224 0.5 0.5 0.5zM14.5 13c0.276 0 0.5-0.224 0.5-0.5s-0.224-0.5-0.5-0.5-0.5 0.225-0.5 0.5c0 0.276 0.224 0.5 0.5 0.5zM14.5 4c-0.276 0-0.5 0.224-0.5 0.5s0.224 0.5 0.5 0.5 0.5-0.224 0.5-0.5c0-0.276-0.224-0.5-0.5-0.5zM15.5 5c-0.276 0-0.5 0.224-0.5 0.5s0.224 0.5 0.5 0.5 0.5-0.224 0.5-0.5c0-0.276-0.224-0.5-0.5-0.5zM16.5 4c-0.276 0-0.5 0.224-0.5 0.5s0.224 0.5 0.5 0.5 0.5-0.224 0.5-0.5c0-0.276-0.224-0.5-0.5-0.5zM17.5 5c-0.276 0-0.5 0.224-0.5 0.5s0.224 0.5 0.5 0.5 0.5-0.224 0.5-0.5c0-0.276-0.224-0.5-0.5-0.5z"></path>
</svg>
