<?xml version="1.0" encoding="utf-8"?>
<!-- Generated by IcoMoon.io -->
<!DOCTYPE svg PUBLIC "-//W3C//DTD SVG 1.1//EN" "http://www.w3.org/Graphics/SVG/1.1/DTD/svg11.dtd">
<svg version="1.1" xmlns="http://www.w3.org/2000/svg" xmlns:xlink="http://www.w3.org/1999/xlink" width="32" height="32" viewBox="0 0 32 32">
<path fill="#444444" d="M31.12 31.12c-1.174 1.174-3.077 1.174-4.25 0l-5.304-5.304c-2.18 1.399-4.758 2.232-7.541 2.232-7.745 0-14.024-6.278-14.024-14.024s6.279-14.024 14.024-14.024c7.746 0 14.024 6.278 14.024 14.024 0 2.782-0.834 5.361-2.232 7.542l5.304 5.304c1.174 1.174 1.174 3.076 0 4.249zM14.024 4.007c-5.532 0-10.017 4.484-10.017 10.017s4.485 10.017 10.017 10.017c5.533 0 10.017-4.484 10.017-10.017s-4.484-10.017-10.017-10.017z"></path>
</svg>
