<?xml version="1.0" encoding="utf-8"?>
<!-- Generated by IcoMoon.io -->
<!DOCTYPE svg PUBLIC "-//W3C//DTD SVG 1.1//EN" "http://www.w3.org/Graphics/SVG/1.1/DTD/svg11.dtd">
<svg version="1.1" xmlns="http://www.w3.org/2000/svg" xmlns:xlink="http://www.w3.org/1999/xlink" width="32" height="32" viewBox="0 0 32 32">
<path fill="#444444" d="M12.065 16c-0-0.005-0-0.010-0-0.016 0-2.221 1.801-4.022 4.022-4.022 2.204 0 3.994 1.774 4.021 3.972 0 0.071 0 0.076 0 0.082 0 2.221-1.801 4.022-4.022 4.022-2.204 0-3.995-1.774-4.021-3.972zM28.709 6.026c-0.346 0.284-0.766 0.475-1.249 0.475-1.108 0-2.011-0.901-2.011-2.022 0-0.489 0.196-0.924 0.487-1.28-2.231-1.729-4.933-2.894-7.878-3.263-0.103 1.020-0.927 1.825-1.972 1.825s-1.881-0.814-1.972-1.848c-2.985 0.387-5.703 1.573-7.953 3.364 0.255 0.34 0.436 0.742 0.436 1.2 0 1.121-0.896 2.022-2.011 2.022-0.447 0-0.849-0.174-1.182-0.427-2.101 2.733-3.405 6.12-3.405 9.841 0 8.931 7.203 16.173 16.086 16.173s16.086-7.242 16.086-16.173c0-3.756-1.319-7.159-3.464-9.887zM16.086 23.957c-4.442 0-8.043-3.601-8.043-8.043 0-2.223 0.9-4.23 2.357-5.687l5.687-5.687 5.678 5.678c1.462 1.457 2.365 3.472 2.365 5.695 0 4.446-3.601 8.043-8.043 8.043z"></path>
</svg>
