<?xml version="1.0" encoding="utf-8"?>
<!-- Generated by IcoMoon.io -->
<!DOCTYPE svg PUBLIC "-//W3C//DTD SVG 1.1//EN" "http://www.w3.org/Graphics/SVG/1.1/DTD/svg11.dtd">
<svg version="1.1" xmlns="http://www.w3.org/2000/svg" xmlns:xlink="http://www.w3.org/1999/xlink" width="24" height="24" viewBox="0 0 24 24">
<path fill="#444444" d="M13.3 17c0 0.718-0.582 1.3-1.3 1.3s-1.3-0.582-1.3-1.3c0-0.718 0.582-1.3 1.3-1.3s1.3 0.582 1.3 1.3z"></path>
<path fill="#444444" d="M18 4c-2.206 0-4 1.794-4 4v3h-4v-1h-3c-1.104 0-2 0.896-2 2v7c0 1.104 0.896 2 2 2h10c1.104 0 2-0.896 2-2v-7c0-1.104-0.896-2-2-2h-1v-2c0-1.104 0.896-2 2-2s2 0.896 2 2v3c0 0.552 0.448 1 1 1s1-0.448 1-1v-3c0-2.206-1.794-4-4-4zM17 19h-10v-7h10.003l-0.003 7z"></path>
</svg>
