<?xml version="1.0" encoding="utf-8"?>
<!-- Generated by IcoMoon.io -->
<!DOCTYPE svg PUBLIC "-//W3C//DTD SVG 1.1//EN" "http://www.w3.org/Graphics/SVG/1.1/DTD/svg11.dtd">
<svg version="1.1" xmlns="http://www.w3.org/2000/svg" xmlns:xlink="http://www.w3.org/1999/xlink" width="24" height="24" viewBox="0 0 24 24">
<path fill="#444444" d="M17 7h-11c-1.654 0-3 1.346-3 3v7c0 1.654 1.346 3 3 3h11c1.654 0 3-1.346 3-3v-7c0-1.654-1.346-3-3-3zM18 17c0 0.552-0.448 1-1 1h-11c-0.552 0-1-0.448-1-1v-4h13v4zM18 11h-13v-1c0-0.552 0.448-1 1-1h11c0.552 0 1 0.448 1 1v1z"></path>
<path fill="#444444" d="M14 16h2c0.276 0 0.5-0.224 0.5-0.5s-0.224-0.5-0.5-0.5h-2c-0.276 0-0.5 0.224-0.5 0.5s0.224 0.5 0.5 0.5z"></path>
</svg>
