<?xml version="1.0" encoding="utf-8"?>
<!-- Generated by IcoMoon.io -->
<!DOCTYPE svg PUBLIC "-//W3C//DTD SVG 1.1//EN" "http://www.w3.org/Graphics/SVG/1.1/DTD/svg11.dtd">
<svg version="1.1" xmlns="http://www.w3.org/2000/svg" xmlns:xlink="http://www.w3.org/1999/xlink" width="32" height="32" viewBox="0 0 32 32">
<path fill="#444444" d="M32 8c0-4.416-3.586-8-8-8-2.984 0-5.562 1.658-6.938 4.086 0-0.002 0.004-0.004 0.004-0.006-0.367-0.035-0.723-0.111-1.098-0.111-6.629 0-12 5.371-12 12 0 2.527 0.789 4.867 2.121 6.797l-6.089 9.234 9.289-6.062c1.91 1.281 4.207 2.031 6.68 2.031 6.629 0 12-5.371 12-12 0-0.346-0.070-0.67-0.102-1.008 2.453-1.367 4.133-3.955 4.133-6.961zM15.969 23.969c-4.414 0-8-3.586-8-8 0-4.412 3.586-8 8-8 0.012 0 0.023 0.004 0.031 0.004 0-0.008 0.004-0.014 0.004-0.020 0 0.016-0.004 0.031-0.004 0.047 0 0.695 0.117 1.355 0.281 1.998l-3.172 3.174c-1.562 1.562-1.562 4.094 0 5.656s4.094 1.562 5.656 0l3.141-3.141c0.66 0.18 1.344 0.305 2.059 0.309-0.016 4.402-3.594 7.973-7.996 7.973zM24 12c-2.203 0-4-1.795-4-4s1.797-4 4-4 4 1.795 4 4-1.797 4-4 4z"></path>
</svg>
