<?xml version="1.0" encoding="utf-8"?>
<!-- Generated by IcoMoon.io -->
<!DOCTYPE svg PUBLIC "-//W3C//DTD SVG 1.1//EN" "http://www.w3.org/Graphics/SVG/1.1/DTD/svg11.dtd">
<svg version="1.1" xmlns="http://www.w3.org/2000/svg" xmlns:xlink="http://www.w3.org/1999/xlink" width="24" height="24" viewBox="0 0 24 24">
<path fill="#444444" d="M20 6c0-0.587-0.257-1.167-0.75-1.562-0.863-0.69-2.121-0.551-2.812 0.312l-2.789 3.486-2.449-1.836c-0.864-0.648-2.087-0.493-2.762 0.351l-4 5c-0.294 0.368-0.438 0.811-0.438 1.249v3h16v-10z"></path>
<path fill="#444444" d="M20 19h-16c-0.552 0-1 0.447-1 1s0.448 1 1 1h16c0.552 0 1-0.447 1-1s-0.448-1-1-1z"></path>
</svg>
