<?xml version="1.0" encoding="utf-8"?>
<!-- Generated by IcoMoon.io -->
<!DOCTYPE svg PUBLIC "-//W3C//DTD SVG 1.1//EN" "http://www.w3.org/Graphics/SVG/1.1/DTD/svg11.dtd">
<svg version="1.1" xmlns="http://www.w3.org/2000/svg" xmlns:xlink="http://www.w3.org/1999/xlink" width="24" height="24" viewBox="0 0 24 24">
<path fill="#444444" d="M6.002 15.999c-1.107 0-2.004 0.897-2.002 2.001 0 1.104 0.896 2.001 2.002 1.999 1.103 0.002 2-0.894 1.998-1.999 0.002-1.107-0.895-2.003-1.998-2.001z"></path>
<path fill="#444444" d="M6 4c-1.104 0-2 0.896-2 2s0.896 2 2 2c5.514 0 10 4.486 10 10 0 1.104 0.896 2 2 2s2-0.896 2-2c0-7.72-6.28-14-14-14z"></path>
<path fill="#444444" d="M6 10c-1.104 0-2 0.896-2 2s0.896 2 2 2c2.205 0 4 1.794 4 4 0 1.104 0.896 2 2 2s2-0.896 2-2c0-4.411-3.589-8-8-8z"></path>
</svg>
