<?xml version="1.0" encoding="utf-8"?>
<!-- Generated by IcoMoon.io -->
<!DOCTYPE svg PUBLIC "-//W3C//DTD SVG 1.1//EN" "http://www.w3.org/Graphics/SVG/1.1/DTD/svg11.dtd">
<svg version="1.1" xmlns="http://www.w3.org/2000/svg" xmlns:xlink="http://www.w3.org/1999/xlink" width="32" height="32" viewBox="0 0 32 32">
<path fill="#444444" d="M31.062 16c0 2.125-1.227 3.927-3.050 4.642v2.33c0 0.55-0.446 0.996-0.995 0.996h-23.033c-0.551 0-0.996-0.446-0.996-0.996v-2.33c-1.824-0.715-3.050-2.517-3.050-4.642s1.227-3.927 3.051-4.642v-2.33c0-0.551 0.445-0.996 0.996-0.996h23.033c0.549 0 0.995 0.445 0.995 0.996v2.33c1.823 0.715 3.049 2.517 3.049 4.642zM11.952 16h-3.984v0.996h3.984v-0.996zM16.682 12.604c-0.281-0.309-0.667-0.463-1.157-0.463-0.487 0-0.871 0.154-1.151 0.463-0.281 0.308-0.422 0.782-0.422 1.422 0 0.643 0.141 1.118 0.422 1.427 0.28 0.308 0.481 0.462 0.979 0.462 0.48 0 1.049-0.154 1.33-0.462 0.28-0.309 0.421-0.784 0.421-1.427-0.001-0.64-0.142-1.115-0.422-1.422zM20.070 11.985l-5.11 8.022h1.012l5.085-8.022h-0.987zM21.661 16.587c-0.28-0.308-0.667-0.462-1.157-0.462-0.486 0-0.871 0.154-1.152 0.462-0.28 0.309-0.42 0.782-0.42 1.422 0 0.643 0.14 1.119 0.42 1.427 0.281 0.309 0.67 0.463 1.168 0.463 0.48 0 0.861-0.154 1.142-0.463 0.28-0.308 0.421-0.784 0.421-1.427-0.001-0.64-0.142-1.113-0.422-1.422zM20.495 19.128c-0.144 0-0.256-0.061-0.337-0.181-0.107-0.157-0.161-0.469-0.161-0.936s0.054-0.78 0.161-0.94c0.078-0.117 0.19-0.177 0.337-0.177s0.261 0.060 0.342 0.177c0.104 0.16 0.156 0.474 0.156 0.94s-0.054 0.78-0.161 0.94c-0.078 0.118-0.19 0.177-0.337 0.177zM15.516 15.145c-0.144 0-0.256-0.061-0.337-0.182-0.107-0.157-0.161-0.469-0.161-0.936s0.054-0.78 0.161-0.94c0.078-0.117 0.19-0.176 0.337-0.176s0.26 0.059 0.342 0.176c0.104 0.16 0.156 0.474 0.156 0.94s-0.054 0.78-0.161 0.94c-0.079 0.118-0.191 0.178-0.337 0.178z"></path>
</svg>
