<?xml version="1.0" encoding="utf-8"?>
<!-- Generated by IcoMoon.io -->
<!DOCTYPE svg PUBLIC "-//W3C//DTD SVG 1.1//EN" "http://www.w3.org/Graphics/SVG/1.1/DTD/svg11.dtd">
<svg version="1.1" xmlns="http://www.w3.org/2000/svg" xmlns:xlink="http://www.w3.org/1999/xlink" width="24" height="24" viewBox="0 0 24 24">
<path fill="#444444" d="M10.2 6.4c-0.488 0-0.931 0.197-1.253 0.512-2.381 2.315-5.947 5.789-5.947 5.789s3.566 3.473 5.944 5.789c0.326 0.315 0.768 0.51 1.256 0.51 0.994 0 1.8-0.805 1.8-1.799v-9c0-0.994-0.806-1.801-1.8-1.801z"></path>
<path fill="#444444" d="M19.2 6.4c-0.488 0-0.931 0.197-1.253 0.512-2.381 2.315-5.947 5.789-5.947 5.789s3.566 3.473 5.944 5.789c0.326 0.315 0.768 0.51 1.256 0.51 0.994 0 1.8-0.805 1.8-1.799v-9c0-0.994-0.806-1.801-1.8-1.801z"></path>
</svg>
