<?xml version="1.0" encoding="utf-8"?>
<!-- Generated by IcoMoon.io -->
<!DOCTYPE svg PUBLIC "-//W3C//DTD SVG 1.1//EN" "http://www.w3.org/Graphics/SVG/1.1/DTD/svg11.dtd">
<svg version="1.1" xmlns="http://www.w3.org/2000/svg" xmlns:xlink="http://www.w3.org/1999/xlink" width="42" height="32" viewBox="0 0 42 32">
<path fill="#444444" d="M40.5 0h-10c-0.691 0-1.574 0.376-2.047 0.87l-1.33 1.34c-0.194 0.196-0.192 0.513 0.004 0.707 0.194 0.194 0.513 0.193 0.707-0.003l1.334-1.346c0.285-0.297 0.92-0.568 1.332-0.568h10c0.275 0 0.5 0.224 0.5 0.5v10.049c0 0.411-0.271 1.046-0.574 1.337l-14.081 13.972c-0.201 0.191-0.535 0.186-0.73-0.008l-2.648-2.649c-0.195-0.195-0.512-0.195-0.707 0s-0.195 0.512 0 0.707l2.648 2.649c0.294 0.293 0.684 0.441 1.074 0.441 0.382 0 0.765-0.141 1.062-0.424l14.082-13.973c0.498-0.478 0.874-1.361 0.874-2.052v-10.049c0-0.827-0.673-1.5-1.5-1.5zM39.038 5c0-1.103-0.897-2-2-2s-2 0.897-2 2 0.897 2 2 2 2-0.897 2-2zM36.038 5c0-0.551 0.448-1 1-1s1 0.449 1 1-0.448 1-1 1-1-0.449-1-1zM16.462 4c-0.691 0-1.574 0.376-2.048 0.87l-13.993 14.131c-0.568 0.592-0.56 1.547 0.021 2.128l10.428 10.428c0.285 0.286 0.667 0.443 1.076 0.443 0.396 0 0.77-0.149 1.059-0.426l14.081-13.972c0.499-0.478 0.876-1.361 0.876-2.053v-10.049c0-0.827-0.673-1.5-1.5-1.5h-10zM27 5.5v10.049c0 0.412-0.309 1.046-0.612 1.337l-14.081 13.972c-0.195 0.185-0.54 0.181-0.729-0.008l-10.429-10.427c-0.195-0.196-0.199-0.53-0.013-0.723l13.994-14.132c0.285-0.297 0.92-0.568 1.332-0.568h10c0.275 0 0.538 0.224 0.538 0.5zM23 7c-1.103 0-2 0.897-2 2s0.897 2 2 2 2-0.897 2-2-0.897-2-2-2zM23 10c-0.552 0-1-0.449-1-1s0.448-1 1-1 1 0.449 1 1-0.448 1-1 1z"></path>
</svg>
