<?xml version="1.0" encoding="utf-8"?>
<!-- Generated by IcoMoon.io -->
<!DOCTYPE svg PUBLIC "-//W3C//DTD SVG 1.1//EN" "http://www.w3.org/Graphics/SVG/1.1/DTD/svg11.dtd">
<svg version="1.1" xmlns="http://www.w3.org/2000/svg" xmlns:xlink="http://www.w3.org/1999/xlink" width="32" height="32" viewBox="0 0 32 32">
<path fill="#444444" d="M30.555 25.219l-12.519-21.436c-1.044-1.044-2.738-1.044-3.782 0l-12.52 21.436c-1.044 1.043-1.044 2.736 0 3.781h28.82c1.046-1.045 1.046-2.738 0.001-3.781zM14.992 11.478c0-0.829 0.672-1.5 1.5-1.5s1.5 0.671 1.5 1.5v7c0 0.828-0.672 1.5-1.5 1.5s-1.5-0.672-1.5-1.5v-7zM16.501 24.986c-0.828 0-1.5-0.67-1.5-1.5 0-0.828 0.672-1.5 1.5-1.5s1.5 0.672 1.5 1.5c0 0.83-0.672 1.5-1.5 1.5z"></path>
</svg>
