<?xml version="1.0" encoding="utf-8"?>
<!-- Generated by IcoMoon.io -->
<!DOCTYPE svg PUBLIC "-//W3C//DTD SVG 1.1//EN" "http://www.w3.org/Graphics/SVG/1.1/DTD/svg11.dtd">
<svg version="1.1" xmlns="http://www.w3.org/2000/svg" xmlns:xlink="http://www.w3.org/1999/xlink" width="24" height="24" viewBox="0 0 24 24">
<path fill="#444444" d="M12 3.984v4.219l-2.109-2.109zM4.266 3l16.734 16.734-1.266 1.266-2.063-2.063q-1.734 1.359-3.656 1.828v-2.063q1.172-0.328 2.25-1.172l-4.266-4.266v6.75l-5.016-5.016h-3.984v-6h4.734l-4.734-4.734zM18.984 12q0-2.391-1.383-4.219t-3.586-2.484v-2.063q3.047 0.656 5.016 3.117t1.969 5.648q0 2.25-1.031 4.172l-1.5-1.547q0.516-1.266 0.516-2.625zM16.5 12q0 0.422-0.047 0.609l-2.438-2.438v-2.203q2.484 1.219 2.484 4.031z"></path>
</svg>
