<?xml version="1.0" encoding="utf-8"?>
<!-- Generated by IcoMoon.io -->
<!DOCTYPE svg PUBLIC "-//W3C//DTD SVG 1.1//EN" "http://www.w3.org/Graphics/SVG/1.1/DTD/svg11.dtd">
<svg version="1.1" xmlns="http://www.w3.org/2000/svg" xmlns:xlink="http://www.w3.org/1999/xlink" width="24" height="24" viewBox="0 0 24 24">
<path fill="#444444" d="M4 18c-0.552 0-1-0.448-1-1v-6.382l-0.553 0.276c-0.495 0.248-1.095 0.046-1.342-0.447s-0.046-1.094 0.448-1.342l2-1c0.31-0.155 0.678-0.139 0.973 0.044 0.294 0.183 0.474 0.504 0.474 0.851v8c0 0.552-0.448 1-1 1z"></path>
<path fill="#444444" d="M13 18h-5c-0.404 0-0.769-0.244-0.924-0.617-0.155-0.374-0.069-0.804 0.217-1.090l4-4c0.254-0.254 0.394-0.591 0.394-0.95s-0.14-0.695-0.394-0.949c-0.508-0.508-1.39-0.508-1.9 0.001-0.253 0.252-0.393 0.589-0.393 0.948 0 0.552-0.448 1-1 1s-1-0.448-1-1c0-0.894 0.348-1.733 0.98-2.364 1.265-1.263 3.464-1.263 4.727 0.001 0.632 0.631 0.979 1.471 0.979 2.363 0 0.893-0.348 1.733-0.979 2.364l-2.293 2.293h2.586c0.552 0 1 0.448 1 1s-0.448 1-1 1z"></path>
<path fill="#444444" d="M20.955 12.377c0.338-0.457 0.545-1.016 0.545-1.627 0-1.517-1.234-2.75-2.75-2.75-1.031 0-1.966 0.569-2.44 1.484-0.254 0.49-0.063 1.094 0.428 1.348s1.094 0.062 1.348-0.428c0.128-0.249 0.383-0.404 0.664-0.404 0.414 0 0.75 0.336 0.75 0.75s-0.336 0.75-0.75 0.75c-0.552 0-1 0.448-1 1s0.448 1 1 1c0.689 0 1.25 0.561 1.25 1.25s-0.561 1.25-1.25 1.25-1.25-0.561-1.25-1.25c0-0.552-0.448-1-1-1s-1 0.448-1 1c0 1.792 1.458 3.25 3.25 3.25s3.25-1.458 3.25-3.25c0-0.939-0.406-1.779-1.045-2.373z"></path>
</svg>
