<?xml version="1.0" encoding="utf-8"?>
<!-- Generated by IcoMoon.io -->
<!DOCTYPE svg PUBLIC "-//W3C//DTD SVG 1.1//EN" "http://www.w3.org/Graphics/SVG/1.1/DTD/svg11.dtd">
<svg version="1.1" xmlns="http://www.w3.org/2000/svg" xmlns:xlink="http://www.w3.org/1999/xlink" width="32" height="32" viewBox="0 0 32 32">
<path fill="#444444" d="M18 14h4v10h-4zM30 6h-8v-4c0-1.105-0.895-2-2-2h-8c-1.105 0-2 0.894-2 2v4h-8c-1.105 0-2 0.894-2 2v2h2v20c0 1.105 0.894 2 2 2h24c1.105 0 2-0.895 2-2v-20h2v-2c0-1.106-0.895-2-2-2zM14 4h4v2h-4v-2zM26 28h-20v-18h20v18zM10 14h4v10h-4z"></path>
</svg>
