<?xml version="1.0" encoding="utf-8"?>
<!-- Generated by IcoMoon.io -->
<!DOCTYPE svg PUBLIC "-//W3C//DTD SVG 1.1//EN" "http://www.w3.org/Graphics/SVG/1.1/DTD/svg11.dtd">
<svg version="1.1" xmlns="http://www.w3.org/2000/svg" xmlns:xlink="http://www.w3.org/1999/xlink" width="24" height="24" viewBox="0 0 24 24">
<path fill="#444444" d="M23.986 12l-2.658-3.061 0.369-4.052-3.932-0.897-2.061-3.502-3.704 1.613-3.706-1.613-2.059 3.502-3.933 0.898 0.368 4.051-2.656 3.061 2.656 3.061-0.368 4.053 3.934 0.896 2.061 3.502 3.703-1.611 3.704 1.61 2.059-3.5 3.935-0.896-0.369-4.055 2.657-3.060zM16.519 18.283l-1.613 2.744-2.906-1.262-2.905 1.263-1.615-2.744-3.086-0.706 0.289-3.176-2.085-2.402 2.085-2.399-0.289-3.178 3.088-0.706 1.611-2.742 2.907 1.262 2.905-1.263 1.613 2.742 3.086 0.706-0.289 3.176 2.085 2.402-2.085 2.401 0.289 3.178-3.085 0.704zM12 5.621c-3.484 0-6.319 2.862-6.319 6.379s2.835 6.379 6.319 6.379 6.319-2.861 6.319-6.379c0-3.517-2.835-6.379-6.319-6.379zM12 17.397c-2.948 0-5.347-2.421-5.347-5.397s2.399-5.397 5.347-5.397c2.947 0 5.347 2.421 5.347 5.397s-2.4 5.397-5.347 5.397z"></path>
</svg>
