<?xml version="1.0" encoding="utf-8"?>
<!-- Generated by IcoMoon.io -->
<!DOCTYPE svg PUBLIC "-//W3C//DTD SVG 1.1//EN" "http://www.w3.org/Graphics/SVG/1.1/DTD/svg11.dtd">
<svg version="1.1" xmlns="http://www.w3.org/2000/svg" xmlns:xlink="http://www.w3.org/1999/xlink" width="32" height="32" viewBox="0 0 32 32">
<path fill="#444444" d="M16 32c-8.836 0-16-7.164-16-16s7.164-16 16-16 16 7.164 16 16-7.164 16-16 16zM16 4c-6.627 0-12 5.373-12 12s5.373 12 12 12 12-5.373 12-12-5.373-12-12-12zM21.881 23.213l-0.352 0.205-1.016 0.619-0.6 0.436c-0.445 0.213-0.91 0.381-1.391 0.523v-0.59l-0.17-1.357c0 0-0.084-0.783-0.211-0.988-0.127-0.207-0.424-0.496-0.721-0.619s-0.508-0.123-0.678-0.328c-0.17-0.207-0.297-0.578-0.508-0.906-0.213-0.33-0.467-0.66-0.467-0.824s0-1.854 0-1.854l0.213-1.564 0.465-0.33 0.551-0.617 0.381-0.123 1.313 0.246h0.932l0.383 0.783 0.889 0.699 0.551 0.865 0.719 0.246h0.805l0.551 0.66 0.34 0.699 0.127 0.494v0.824l-0.088 0.486c-0.537 0.881-1.219 1.656-2.018 2.314zM18.607 9.004l-0.932 0.494-0.338 0.947-0.551 0.494h-1.822l-0.846 0.33-0.043 0.658-0.338 0.535-0.086 0.578 0.17 0.494 0.211 0.494c0 0 0.51 0.576 0 0.988 0 0-0.635 0-0.762-0.207-0.127-0.205-1.059-0.781-1.229-0.947-0.168-0.164-0.719-0.328-0.719-0.328l-0.678-0.248-0.635-0.041 0.041-0.865-0.041-0.74-0.256-0.535-0.719-0.537-0.043-0.576 0.088-0.32c1.715-1.658 4.078-2.686 6.688-2.686 1.473 0 2.85 0.354 4.094 0.936l-0.027 0.217-1.229 0.865z"></path>
</svg>
