<?xml version="1.0" encoding="utf-8"?>
<!-- Generated by IcoMoon.io -->
<!DOCTYPE svg PUBLIC "-//W3C//DTD SVG 1.1//EN" "http://www.w3.org/Graphics/SVG/1.1/DTD/svg11.dtd">
<svg version="1.1" xmlns="http://www.w3.org/2000/svg" xmlns:xlink="http://www.w3.org/1999/xlink" width="32" height="32" viewBox="0 0 32 32">
<path fill="#444444" d="M12 10h-4v-0.016c0-1.102 0.898-1.984 2-1.984h12c1.102 0 2 0.898 2 2v2h4v-2c0-3.309-2.691-6-6-6h-12c-3.309 0-6 2.691-6 6h-4l6 6 6-6zM26 16l-6 6h4v0.016c0 1.101-0.898 1.984-2 1.984h-12c-1.102 0-2-0.898-2-2v-2h-4v2c0 3.309 2.691 6 6 6h12c3.309 0 6-2.691 6-6h4l-6-6z"></path>
</svg>
