<?xml version="1.0" encoding="utf-8"?>
<!-- Generated by IcoMoon.io -->
<!DOCTYPE svg PUBLIC "-//W3C//DTD SVG 1.1//EN" "http://www.w3.org/Graphics/SVG/1.1/DTD/svg11.dtd">
<svg version="1.1" xmlns="http://www.w3.org/2000/svg" xmlns:xlink="http://www.w3.org/1999/xlink" width="24" height="24" viewBox="0 0 24 24">
<path fill="#444444" d="M18.324 4.367c-0.368-0.324-0.84-0.5-1.324-0.5-0.082 0-0.165 0.005-0.248 0.016l-9 1.25c-1.001 0.125-1.752 0.975-1.752 1.984v6.111c-1.746 0.551-3 2.034-3 3.772 0 2.205 2.019 4 4.5 4 1.695 0 3.169-0.842 3.937-2.078 0.803 0.667 1.879 1.078 3.063 1.078 2.481 0 4.5-1.795 4.5-4v-10.133c0-0.574-0.246-1.119-0.676-1.5zM11 16v-4.256l3-0.45v1.737c-1.693 0.208-3 1.46-3 2.969zM17 16c0 1.104-1.119 2-2.5 2s-2.5-0.896-2.5-2 1.119-2 2.5-2c0.172 0 0.338 0.014 0.5 0.041v-3.908l-5 0.75v6.117c0 1.104-1.119 2-2.5 2s-2.5-0.896-2.5-2 1.119-2 2.5-2c0.172 0 0.338 0.014 0.5 0.041v-7.924l9-1.25v10.133z"></path>
</svg>
