<?xml version="1.0" encoding="utf-8"?>
<!-- Generated by IcoMoon.io -->
<!DOCTYPE svg PUBLIC "-//W3C//DTD SVG 1.1//EN" "http://www.w3.org/Graphics/SVG/1.1/DTD/svg11.dtd">
<svg version="1.1" xmlns="http://www.w3.org/2000/svg" xmlns:xlink="http://www.w3.org/1999/xlink" width="24" height="24" viewBox="0 0 24 24">
<path fill="#444444" d="M19 8h-2.352c0.219-0.457 0.352-0.961 0.352-1.5 0-1.93-1.57-3.5-3.5-3.5-0.979 0-1.864 0.407-2.5 1.058-0.636-0.651-1.521-1.058-2.5-1.058-1.93 0-3.5 1.57-3.5 3.5 0 0.539 0.133 1.043 0.352 1.5h-2.352c-0.553 0-1 0.448-1 1v4c0 0.552 0.447 1 1 1v5c0 1.654 1.346 3 3 3h10c1.654 0 3-1.346 3-3v-5c0.553 0 1-0.448 1-1v-4c0-0.552-0.447-1-1-1zM18 12h-5v-2h5v2zM10 7h2v1h-2v-1zM12 10v2h-2v-2h2zM13.5 5c0.827 0 1.5 0.673 1.5 1.5s-0.673 1.5-1.5 1.5c-0.177 0-0.344-0.039-0.5-0.097v-0.903c0-0.521-0.404-0.937-0.913-0.982 0.202-0.59 0.756-1.018 1.413-1.018zM7 6.5c0-0.827 0.673-1.5 1.5-1.5 0.657 0 1.211 0.428 1.413 1.018-0.509 0.045-0.913 0.461-0.913 0.982v0.903c-0.156 0.058-0.323 0.097-0.5 0.097-0.827 0-1.5-0.673-1.5-1.5zM9 10v2h-5v-2h5zM6 20c-0.551 0-1-0.449-1-1v-6h4v7h-3zM10 20v-7h2v7h-2zM16 20h-3v-7h4v6c0 0.551-0.449 1-1 1z"></path>
</svg>
