<?xml version="1.0" encoding="utf-8"?>
<!-- Generated by IcoMoon.io -->
<!DOCTYPE svg PUBLIC "-//W3C//DTD SVG 1.1//EN" "http://www.w3.org/Graphics/SVG/1.1/DTD/svg11.dtd">
<svg version="1.1" xmlns="http://www.w3.org/2000/svg" xmlns:xlink="http://www.w3.org/1999/xlink" width="24" height="24" viewBox="0 0 24 24">
<path fill="#444444" d="M21 13c0-4.963-4.037-9-9-9s-9 4.037-9 9v2.6c0 0.040 0.019 0.074 0.023 0.113-0.013 0.243-0.023 0.5-0.023 0.787v2c0 1.93 1.57 3.5 3.5 3.5s3.5-1.57 3.5-3.5v-2c0-1.511-0.83-2.79-1.982-3.278 0.095-2.122 1.837-3.823 3.982-3.823s3.887 1.7 3.982 3.822c-1.152 0.49-1.982 1.768-1.982 3.279v2c0 1.93 1.57 3.5 3.5 3.5s3.5-1.57 3.5-3.5v-2c0-0.287-0.010-0.544-0.023-0.787 0.004-0.039 0.023-0.073 0.023-0.113v-2.6zM5 13c0-1.586 0.538-3.046 1.432-4.221l0.89 0.889c-0.742 0.928-1.218 2.075-1.302 3.332-0.020 0-0.020 1-0.020 1h-1v-1zM8 18.5c0 0.827-0.673 1.5-1.5 1.5s-1.5-0.673-1.5-1.5v-2c0-0.666 0.057-1.176 0.114-1.5h1.886c0.473 0 1 0.616 1 1.5v2zM15.77 9.162l-0.354 0.354c-0.912-0.913-2.125-1.416-3.416-1.416s-2.504 0.503-3.417 1.416l-2.122-2.121c1.479-1.48 3.447-2.295 5.539-2.295s4.060 0.815 5.539 2.295l-1.769 1.767zM19 18.5c0 0.827-0.673 1.5-1.5 1.5s-1.5-0.673-1.5-1.5v-2c0-0.884 0.527-1.5 1-1.5h1.886c0.057 0.324 0.114 0.834 0.114 1.5v2zM19 14h-1v-1c-0.104-1.257-0.58-2.404-1.322-3.332l0.891-0.889c0.893 1.175 1.431 2.634 1.431 4.221v1z"></path>
</svg>
