<?xml version="1.0" encoding="utf-8"?>
<!-- Generated by IcoMoon.io -->
<!DOCTYPE svg PUBLIC "-//W3C//DTD SVG 1.1//EN" "http://www.w3.org/Graphics/SVG/1.1/DTD/svg11.dtd">
<svg version="1.1" xmlns="http://www.w3.org/2000/svg" xmlns:xlink="http://www.w3.org/1999/xlink" width="32" height="32" viewBox="0 0 32 32">
<path fill="#444444" d="M22 16h-2v4h2v-4zM18 16h-2v4h2v-4zM22 10h-2v4h2v-4zM26 16h-2v4h2v-4zM18 22h-2v4h2v-4zM24 0h-2v4h2v-4zM8 0h-2v4h2v-4zM26 10h-2v4h2v-4zM18 10h-2v4h2v-4zM10 22h-2v4h2v-4zM6 16h-2v4h2v-4zM10 16h-2v4h2v-4zM26 2v4h-6v-4h-10v4h-6v-4h-4v28h30v-28h-4zM28 28h-26v-20h26v20zM6 22h-2v4h2v-4zM14 10h-2v4h2v-4zM14 22h-2v4h2v-4zM10 10h-2v4h2v-4zM14 16h-2v4h2v-4zM22 22h-2v4h2v-4z"></path>
</svg>
