<?xml version="1.0" encoding="utf-8"?>
<!-- Generated by IcoMoon.io -->
<!DOCTYPE svg PUBLIC "-//W3C//DTD SVG 1.1//EN" "http://www.w3.org/Graphics/SVG/1.1/DTD/svg11.dtd">
<svg version="1.1" xmlns="http://www.w3.org/2000/svg" xmlns:xlink="http://www.w3.org/1999/xlink" width="32" height="32" viewBox="0 0 32 32">
<path fill="#444444" d="M16 0c-8.82 0-16 7.178-16 16h4c0-0.826 0.676-1.5 1.5-1.5 0.828 0 1.5 0.674 1.5 1.5h4c0-0.826 0.676-1.5 1.5-1.5 0.828 0 1.5 0.674 1.5 1.5v10c0 1.102-0.895 2-2 2-1.102 0-2-0.898-2-2h-4c0 3.309 2.695 6 6 6 3.312 0 6-2.691 6-6v-10c0-0.826 0.676-1.5 1.5-1.5 0.828 0 1.498 0.674 1.498 1.5h4c0-0.826 0.68-1.5 1.5-1.5 0.828 0 1.5 0.674 1.5 1.5h4c0-8.822-7.172-16-15.998-16z"></path>
</svg>
