<?xml version="1.0" encoding="utf-8"?>
<!-- Generated by IcoMoon.io -->
<!DOCTYPE svg PUBLIC "-//W3C//DTD SVG 1.1//EN" "http://www.w3.org/Graphics/SVG/1.1/DTD/svg11.dtd">
<svg version="1.1" xmlns="http://www.w3.org/2000/svg" xmlns:xlink="http://www.w3.org/1999/xlink" width="24" height="24" viewBox="0 0 24 24">
<path fill="#444444" d="M21 7.651v-6.651h-5v2.963l-4.018-2.963-11.982 9h3v13h18v-13l3 0.002-3-2.351zM12 21h-4v-8h4v8zM19 21h-6v-9h-6v9h-2v-12l7.009-5 6.991 5v12zM19 5.132l-1-0.667v-1.465h1v2.132zM18 14h-4v4h4v-4zM17 17h-2v-2h2v2zM11 17h-1v1h1v-1z"></path>
</svg>
