<?xml version="1.0" encoding="utf-8"?>
<!-- Generated by IcoMoon.io -->
<!DOCTYPE svg PUBLIC "-//W3C//DTD SVG 1.1//EN" "http://www.w3.org/Graphics/SVG/1.1/DTD/svg11.dtd">
<svg version="1.1" xmlns="http://www.w3.org/2000/svg" xmlns:xlink="http://www.w3.org/1999/xlink" width="24" height="24" viewBox="0 0 24 24">
<path fill="#444444" d="M16.219 15l5.766 4.5-1.5 1.5-3.797-3h-6.844q-1.078 0-1.898-0.68t-1.055-1.758l-1.359-5.906q-0.141-0.938 0.398-1.688t1.43-0.938h0.047q1.031-0.141 1.734 0.422l1.641 1.266q2.25 1.734 4.688 1.266v2.156q-2.25 0.375-5.156-1.219l1.031 4.078h4.875zM15.984 18.984v2.016h-7.031q-1.875 0-3.281-1.195t-1.688-3.023l-1.969-9.797h1.969l1.969 9.469q0.188 1.078 1.031 1.805t1.969 0.727h7.031zM5.344 5.625q-0.656-0.469-0.797-1.289t0.328-1.477 1.289-0.82 1.477 0.305q0.656 0.516 0.82 1.336t-0.305 1.477-1.313 0.797-1.5-0.328z"></path>
</svg>
