<?xml version="1.0" encoding="utf-8"?>
<!-- Generated by IcoMoon.io -->
<!DOCTYPE svg PUBLIC "-//W3C//DTD SVG 1.1//EN" "http://www.w3.org/Graphics/SVG/1.1/DTD/svg11.dtd">
<svg version="1.1" xmlns="http://www.w3.org/2000/svg" xmlns:xlink="http://www.w3.org/1999/xlink" width="24" height="24" viewBox="0 0 24 24">
<path fill="#444444" d="M9.946 9.363c-1.693-1.309-3.755-2.696-7-2.959l7 2.959zM9.946 12.363c-1.693-1.309-3.755-2.696-7-2.959l7 2.959zM6.945 13.451c-1.115-0.523-2.416-0.919-3.999-1.047l3.999 1.047zM13.054 9.363l7-2.959c-3.245 0.263-5.307 1.651-7 2.959zM13.054 12.363l7-2.959c-3.245 0.263-5.307 1.651-7 2.959zM20.054 12.404c-1.583 0.128-2.884 0.523-3.999 1.047l3.999-1.047zM22.054 0.363c-4.38 0-8.389 2.045-10.415 3.664h-0.277c-2.027-1.619-6.036-3.664-10.416-3.664h-0.946v19h0.946c3.236 0 6.823 1.246 8.418 2.449 0.474 0.359 0.907 0.734 1.288 1.116l0.801 0.735h0.094l0.801-0.735c0.381-0.382 0.814-0.757 1.288-1.116 1.595-1.203 5.182-2.449 8.418-2.449h0.946v-19h-0.946zM11 20.521c0-0.102-0.244-0.205-0.376-0.305-1.673-1.261-5.624-2.596-8.624-2.82v-14.992c4 0.306 7.263 2.249 8.681 3.662l0.271 0.297h0.048v14.158zM21 17.396c-3 0.224-6.951 1.559-8.624 2.82-0.132 0.1-0.376 0.204-0.376 0.305v-14.158h0.049l0.271-0.297c1.417-1.413 4.68-3.356 8.68-3.662v14.992z"></path>
</svg>
