<?xml version="1.0" encoding="utf-8"?>
<!-- Generated by IcoMoon.io -->
<!DOCTYPE svg PUBLIC "-//W3C//DTD SVG 1.1//EN" "http://www.w3.org/Graphics/SVG/1.1/DTD/svg11.dtd">
<svg version="1.1" xmlns="http://www.w3.org/2000/svg" xmlns:xlink="http://www.w3.org/1999/xlink" width="32" height="32" viewBox="0 0 32 32">
<path fill="#444444" d="M25.33 9.84l-3.5 6.062c-0.553 0.956-1.775 1.284-2.732 0.731l-0.865-0.5 1-1.731c0.478 0.275 1.090 0.112 1.365-0.366l2.5-4.33c0.276-0.479 0.112-1.090-0.365-1.366l-3.465-2c-0.479-0.276-1.090-0.112-1.365 0.366l-2.5 4.33c-0.277 0.479-0.113 1.090 0.365 1.366l-1 1.731-0.865-0.5c-0.957-0.552-1.285-1.775-0.732-2.731l3.5-6.062c0.553-0.957 1.775-1.284 2.732-0.732l5.195 3c0.957 0.552 1.285 1.775 0.732 2.732zM13.5 20.33c-0.479-0.276-0.643-0.888-0.366-1.366l4-6.928c0.276-0.479 0.888-0.643 1.366-0.366s0.643 0.888 0.365 1.366l-4 6.928c-0.275 0.478-0.886 0.641-1.365 0.366zM12.768 17.599v0c-0.479-0.276-1.090-0.112-1.366 0.365l-2.5 4.33c-0.276 0.479-0.112 1.090 0.366 1.366l3.465 2c0.478 0.276 1.090 0.112 1.365-0.366l2.5-4.33c0.276-0.478 0.112-1.090-0.365-1.366v0l1-1.731 0.865 0.5c0.957 0.552 1.285 1.774 0.732 2.731l-3.5 6.062c-0.553 0.957-1.775 1.284-2.732 0.732l-5.196-3c-0.957-0.553-1.285-1.775-0.732-2.732l3.5-6.062c0.553-0.957 1.776-1.285 2.733-0.732l0.865 0.5-1 1.733z"></path>
</svg>
