<?xml version="1.0" encoding="utf-8"?>
<!-- Generated by IcoMoon.io -->
<!DOCTYPE svg PUBLIC "-//W3C//DTD SVG 1.1//EN" "http://www.w3.org/Graphics/SVG/1.1/DTD/svg11.dtd">
<svg version="1.1" xmlns="http://www.w3.org/2000/svg" xmlns:xlink="http://www.w3.org/1999/xlink" width="32" height="32" viewBox="0 0 32 32">
<path fill="#444444" d="M16 0c-8.837 0-16 7.163-16 16s7.163 16 16 16 16-7.163 16-16-7.163-16-16-16zM16 3.199c2.973 0 5.676 1.057 7.848 2.758-1.010 0.871-3.18 2.523-6.496 4.090-1.223-2.158-2.662-4.346-4.383-6.447 0.977-0.238 1.982-0.4 3.031-0.4zM10.559 4.455c0.969 1.316 2.563 3.648 4.244 6.625-3.592 1.178-7.742 1.217-10.953 0.959 1.104-3.352 3.549-6.090 6.709-7.584zM15.828 12.955c0.449 0.859 0.893 1.785 1.33 2.725-6.707 1.471-9.848 5.873-11.104 8.287-1.76-2.191-2.856-4.938-2.856-7.967 0-0.566 0.051-1.119 0.123-1.664 2.523 0.35 6.99 0.486 12.506-1.381zM18.268 18.262c1.197 2.926 2.248 6.096 2.861 9.453-1.572 0.689-3.303 1.086-5.129 1.086-3.037 0-5.789-1.104-7.984-2.869 3.178-4.418 6.861-6.647 10.252-7.67zM23.42 26.396c-0.162-0.916-0.861-4.34-2.518-8.723 3.877-0.574 6.953 0.184 7.707 0.402-0.564 3.422-2.48 6.383-5.189 8.32zM19.936 15.283c-0.465-1.080-0.965-2.184-1.549-3.32 2.316-1.002 4.777-2.371 7.326-4.211 1.898 2.232 3.088 5.088 3.088 8.248-3.414-0.758-6.336-0.924-8.865-0.717z"></path>
</svg>
