<?xml version="1.0" encoding="utf-8"?>
<!-- Generated by IcoMoon.io -->
<!DOCTYPE svg PUBLIC "-//W3C//DTD SVG 1.1//EN" "http://www.w3.org/Graphics/SVG/1.1/DTD/svg11.dtd">
<svg version="1.1" xmlns="http://www.w3.org/2000/svg" xmlns:xlink="http://www.w3.org/1999/xlink" width="48" height="48" viewBox="0 0 48 48">
<path fill="#444444" d="M0 44c0 2.21 1.79 4 4 4h40c2.21 0 4-1.79 4-4l-0-40c0-2.21-1.79-4-4-4h-40c-2.21 0-4 1.79-4 4v40zM31 25h-10v3c0 1.1 0.9 2 2 2h8c2.21 0 4 1.79 4 4s-1.79 4-4 4l-10-0c-4.42 0-8-3.58-8-8v-17c0-2.21 1.79-4 4-4s4 1.79 4 4v4h10c2.21 0 4 1.79 4 4s-1.79 4-4 4z"></path>
</svg>
