<?xml version="1.0" encoding="utf-8"?>
<!-- Generated by IcoMoon.io -->
<!DOCTYPE svg PUBLIC "-//W3C//DTD SVG 1.1//EN" "http://www.w3.org/Graphics/SVG/1.1/DTD/svg11.dtd">
<svg version="1.1" xmlns="http://www.w3.org/2000/svg" xmlns:xlink="http://www.w3.org/1999/xlink" width="32" height="32" viewBox="0 0 32 32">
<path fill="#444444" d="M3.987 4h-0.987v24h26v-0.963l-24.996-0.050-0.017-22.987zM11 5c0-0.553-0.448-1-1-1h-3c-0.553 0-1 0.447-1 1v20h5v-20zM17 11c0-0.553-0.448-1-1-1h-3c-0.553 0-1 0.447-1 1v14h5v-14zM23 17c0-0.553-0.448-1-1-1h-3c-0.553 0-1 0.447-1 1v8h5v-8zM28 22h-3c-0.553 0-1 0.447-1 1v2h5v-2c0-0.553-0.448-1-1-1z"></path>
</svg>
