<?xml version="1.0" encoding="utf-8"?>
<!-- Generated by IcoMoon.io -->
<!DOCTYPE svg PUBLIC "-//W3C//DTD SVG 1.1//EN" "http://www.w3.org/Graphics/SVG/1.1/DTD/svg11.dtd">
<svg version="1.1" xmlns="http://www.w3.org/2000/svg" xmlns:xlink="http://www.w3.org/1999/xlink" width="32" height="32" viewBox="0 0 32 32">
<path fill="#444444" d="M23.113 6c2.457 0 4.492 1.82 4.836 4.188l-11.945 13.718-11.953-13.718c0.344-2.368 2.379-4.188 4.836-4.188 2.016 0 3.855 2.164 3.855 2.164l3.258 3.461 3.258-3.461c0 0 1.84-2.164 3.855-2.164zM23.113 2c-2.984 0-5.5 1.578-7.113 3.844-1.613-2.266-4.129-3.844-7.113-3.844-4.903 0-8.887 3.992-8.887 8.891v0.734l16.008 18.375 15.992-18.375v-0.734c0-4.899-3.984-8.891-8.887-8.891v0z"></path>
</svg>
