<?xml version="1.0" encoding="utf-8"?>
<!-- Generated by IcoMoon.io -->
<!DOCTYPE svg PUBLIC "-//W3C//DTD SVG 1.1//EN" "http://www.w3.org/Graphics/SVG/1.1/DTD/svg11.dtd">
<svg version="1.1" xmlns="http://www.w3.org/2000/svg" xmlns:xlink="http://www.w3.org/1999/xlink" width="24" height="24" viewBox="0 0 24 24">
<path fill="#444444" d="M21 11v-7h-3v-3h-16v10h-1v2h1v11h20v-11h1v-2h-2zM19 6v5h-12v-5h12zM4 3h12v1h-11v7h-1v-8zM20 22h-16v-9h16v9zM18 14h-12v7h12v-7zM17 20h-10v-5h10v5zM16 16h-8v1h8v-1zM13 18h-5v1h5v-1z"></path>
</svg>
