<?xml version="1.0" encoding="utf-8"?>
<!-- Generated by IcoMoon.io -->
<!DOCTYPE svg PUBLIC "-//W3C//DTD SVG 1.1//EN" "http://www.w3.org/Graphics/SVG/1.1/DTD/svg11.dtd">
<svg version="1.1" xmlns="http://www.w3.org/2000/svg" xmlns:xlink="http://www.w3.org/1999/xlink" width="32" height="32" viewBox="0 0 32 32">
<path fill="#444444" d="M25.513 9.415c-0.812 0.81-2.125 0.81-2.936 0-0.81-0.81-0.81-2.125 0-2.936l5.871-5.871c0.812-0.81 2.125-0.81 2.936 0 0.81 0.81 0.81 2.125 0 2.936l-5.871 5.871zM15.992 31.983l-7.991-7.992h-5.994c-1.104 0-1.998-0.894-1.998-1.998v-11.987c0-1.104 0.894-1.998 1.998-1.998h5.994l7.992-7.992c0 0 1.998-0.25 1.998 1.998 0 11.952 0 29.933 0 27.97 0 2.248-1.998 1.998-1.998 1.998zM13.994 8.008l-3.996 3.996h-5.994v7.991h5.994l3.996 3.996v-15.983zM23.983 17.998c-1.104 0-1.998-0.894-1.998-1.998s0.894-1.998 1.998-1.998h5.994c1.104 0 1.998 0.894 1.998 1.998s-0.894 1.998-1.998 1.998h-5.994zM25.513 22.585l5.871 5.871c0.81 0.812 0.81 2.127 0 2.936-0.812 0.81-2.125 0.81-2.936 0l-5.871-5.871c-0.81-0.812-0.81-2.127 0-2.936 0.812-0.81 2.125-0.81 2.936 0z"></path>
</svg>
