<?xml version="1.0" encoding="utf-8"?>
<!-- Generated by IcoMoon.io -->
<!DOCTYPE svg PUBLIC "-//W3C//DTD SVG 1.1//EN" "http://www.w3.org/Graphics/SVG/1.1/DTD/svg11.dtd">
<svg version="1.1" xmlns="http://www.w3.org/2000/svg" xmlns:xlink="http://www.w3.org/1999/xlink" width="32" height="32" viewBox="0 0 32 32">
<path fill="#444444" d="M24 0h-16c-1.104 0-2 0.896-2 2v28c0 1.104 0.896 2 2 2h16c1.104 0 2-0.896 2-2v-28c0-1.104-0.896-2-2-2zM16 30c-3.313 0-6-2.687-6-6s2.687-6 6-6 6 2.687 6 6-2.687 6-6 6zM24 15c0 0.553-0.447 1-1 1h-14c-0.552 0-1-0.447-1-1v-12c0-0.553 0.448-1 1-1h14c0.553 0 1 0.447 1 1v12zM16 22c-1.104 0-2 0.896-2 2s0.896 2 2 2 2-0.896 2-2-0.896-2-2-2z"></path>
</svg>
