<?xml version="1.0" encoding="utf-8"?>
<!-- Generated by IcoMoon.io -->
<!DOCTYPE svg PUBLIC "-//W3C//DTD SVG 1.1//EN" "http://www.w3.org/Graphics/SVG/1.1/DTD/svg11.dtd">
<svg version="1.1" xmlns="http://www.w3.org/2000/svg" xmlns:xlink="http://www.w3.org/1999/xlink" width="20" height="32" viewBox="0 0 20 32">
<path fill="#444444" d="M10 4.008c3.311 0 6 2.699 6 6.016 0 1.895-0.863 3.637-2.373 4.773-2.258 1.707-3.17 3.594-3.484 5.18h-0.286c-0.313-1.586-1.228-3.473-3.484-5.18-1.508-1.137-2.375-2.879-2.375-4.773 0-3.317 2.691-6.016 6.002-6.016zM10 0c-5.523 0-10 4.488-10 10.023 0 3.282 1.545 6.149 3.969 7.977 1.115 0.844 2.035 1.93 2.035 3.43v2.555h7.994v-2.555c0-1.5 0.92-2.586 2.033-3.43 2.426-1.828 3.969-4.695 3.969-7.977 0-5.535-4.477-10.023-10-10.023v0zM6 28h8v4h-8z"></path>
</svg>
