<?xml version="1.0" encoding="utf-8"?>
<!-- Generated by IcoMoon.io -->
<!DOCTYPE svg PUBLIC "-//W3C//DTD SVG 1.1//EN" "http://www.w3.org/Graphics/SVG/1.1/DTD/svg11.dtd">
<svg version="1.1" xmlns="http://www.w3.org/2000/svg" xmlns:xlink="http://www.w3.org/1999/xlink" width="32" height="32" viewBox="0 0 32 32">
<path fill="#444444" d="M27.075 2.664c-1.118-0.616-4.2-2.134-6.211-2.551-2.088-0.434-5.196 7.72-6.183 7.756-1.602 0.057-0.194-5.567 1.328-7.869-2.376 1.587-6.598 3.717-7.585 6.167-1.909 4.735 3.539 13.255 0.632 13.745-0.906 0.153-3.416-5.876-4.068-7.716-1.841 3.52-0.455 6.814 1.067 10.931v0.256c-0.058 0.223-0.109 0.436-0.161 0.652h0.161v5.973c0 1.101 0.891 1.991 1.991 1.991s1.991-0.891 1.991-1.991v-6.037c3.716-0.418 5.464 0.8 8.009-4.026-1.554 0.643-4.655-1.315-4.011-2.24 1.293-1.861 6.58 0.105 9.95-5.615-5.334 1.421-5.964-0.616-6.014-1.359-0.107-1.538 5.332-0.723 7.811-2.861 1.437-1.24 3.16-4.177 1.293-5.207z"></path>
</svg>
