<?xml version="1.0" encoding="utf-8"?>
<!-- Generated by IcoMoon.io -->
<!DOCTYPE svg PUBLIC "-//W3C//DTD SVG 1.1//EN" "http://www.w3.org/Graphics/SVG/1.1/DTD/svg11.dtd">
<svg version="1.1" xmlns="http://www.w3.org/2000/svg" xmlns:xlink="http://www.w3.org/1999/xlink" width="24" height="24" viewBox="0 0 24 24">
<path fill="#444444" d="M18 18v-0.984q0-1.359-2.063-2.227t-3.938-0.867-3.938 0.867-2.063 2.227v0.984h12zM12 6q-1.219 0-2.109 0.891t-0.891 2.109 0.891 2.109 2.109 0.891 2.109-0.891 0.891-2.109-0.891-2.109-2.109-0.891zM18.984 3q0.797 0 1.406 0.609t0.609 1.406v13.969q0 0.797-0.609 1.406t-1.406 0.609h-13.969q-0.844 0-1.43-0.609t-0.586-1.406v-13.969q0-0.797 0.586-1.406t1.43-0.609h0.984v-2.016h2.016v2.016h7.969v-2.016h2.016v2.016h0.984z"></path>
</svg>
