<?xml version="1.0" encoding="utf-8"?>
<!-- Generated by IcoMoon.io -->
<!DOCTYPE svg PUBLIC "-//W3C//DTD SVG 1.1//EN" "http://www.w3.org/Graphics/SVG/1.1/DTD/svg11.dtd">
<svg version="1.1" xmlns="http://www.w3.org/2000/svg" xmlns:xlink="http://www.w3.org/1999/xlink" width="48" height="48" viewBox="0 0 48 48">
<path fill="#444444" d="M0 27.5c0 11.32 9.18 20.5 20.5 20.5s20.5-9.18 20.5-20.5c0-3.87-1.66-8.79-3-10.88-1.16-1.79-1.561-2.94-1.561-4.62 0-3.5 3.69-7 7.561-7h0.5c1.38 0 2.5-1.12 2.5-2.5s-1.12-2.5-2.5-2.5h-0.5c-6.15 0-11.41 3.28-12.66 10-2.561-1.94-6.54-3-10.84-3-11.32 0-20.5 9.18-20.5 20.5zM18 27.5c0-1.38 1.12-2.5 2.5-2.5s2.5 1.12 2.5 2.5-1.12 2.5-2.5 2.5-2.5-1.12-2.5-2.5zM5 27.5c0-2.49 2.010-4.5 4.5-4.5s4.5 2.010 4.5 4.5-2.010 4.5-4.5 4.5-4.5-2.010-4.5-4.5zM27 27.5c0-2.49 2.010-4.5 4.5-4.5s4.5 2.010 4.5 4.5-2.010 4.5-4.5 4.5-4.5-2.010-4.5-4.5zM16 38.5c0-2.49 2.010-4.5 4.5-4.5s4.5 2.010 4.5 4.5-2.010 4.5-4.5 4.5-4.5-2.010-4.5-4.5zM16 16.5c0-2.49 2.010-4.5 4.5-4.5s4.5 2.010 4.5 4.5-2.010 4.5-4.5 4.5-4.5-2.010-4.5-4.5z"></path>
</svg>
