<?xml version="1.0" encoding="utf-8"?>
<!-- Generated by IcoMoon.io -->
<!DOCTYPE svg PUBLIC "-//W3C//DTD SVG 1.1//EN" "http://www.w3.org/Graphics/SVG/1.1/DTD/svg11.dtd">
<svg version="1.1" xmlns="http://www.w3.org/2000/svg" xmlns:xlink="http://www.w3.org/1999/xlink" width="32" height="32" viewBox="0 0 32 32">
<path fill="#444444" d="M25.5 29c1.93 0 3.5-1.57 3.5-3.5s-1.57-3.5-3.5-3.5-3.5 1.57-3.5 3.5 1.57 3.5 3.5 3.5zM25.5 23c1.378 0 2.5 1.121 2.5 2.5s-1.122 2.5-2.5 2.5-2.5-1.121-2.5-2.5 1.122-2.5 2.5-2.5zM18.732 23.95c0 1.451 0.357 3.271 0.836 4.301 0.98 2.487 2.908 3.749 5.732 3.749 3.694 0 6.7-3.006 6.7-6.7 0-3.593-2.818-6.2-6.7-6.2-4.413 0-5.853-2.371-5.91-2.469-0.020-0.034-0.043-0.066-0.070-0.095l-15.355-16.378c-0.14-0.149-0.358-0.197-0.549-0.123s-0.316 0.26-0.316 0.465c0 9.651 6.436 14.715 11.135 18.411 2.513 1.977 4.497 3.537 4.497 5.039zM4.144 1.811l14.412 15.372c0.268 0.424 2.044 2.917 6.744 2.917 3.303 0 5.7 2.187 5.7 5.2 0 3.144-2.557 5.7-5.7 5.7-2.405 0-3.976-1.020-4.813-3.144-0.366-0.786-0.755-2.423-0.755-3.906 0-1.987-2.153-3.681-4.878-5.825-4.317-3.396-10.152-7.985-10.71-16.314zM3 25.5c0 1.93 1.57 3.5 3.5 3.5s3.5-1.57 3.5-3.5-1.57-3.5-3.5-3.5-3.5 1.57-3.5 3.5zM9 25.5c0 1.379-1.122 2.5-2.5 2.5s-2.5-1.121-2.5-2.5 1.122-2.5 2.5-2.5 2.5 1.121 2.5 2.5zM20.634 15.471c-0.204 0.186-0.219 0.502-0.033 0.706 0.099 0.108 0.234 0.163 0.37 0.163 0.12 0 0.241-0.043 0.337-0.131 3.535-3.22 7.592-7.915 7.592-15.709 0-0.205-0.125-0.39-0.316-0.465-0.19-0.073-0.408-0.026-0.549 0.123l-10.92 11.646c-0.189 0.201-0.179 0.518 0.023 0.706s0.517 0.18 0.707-0.022l10.014-10.68c-0.426 6.63-4.046 10.766-7.225 13.663zM10.911 18.896c0.257-0.1 0.385-0.389 0.286-0.646s-0.39-0.387-0.647-0.285c-0.211 0.082-0.439 0.183-0.684 0.292-0.844 0.375-1.895 0.843-3.166 0.843-3.882 0-6.7 2.607-6.7 6.2 0 3.694 3.006 6.7 6.7 6.7 2.824 0 4.752-1.262 5.719-3.722 0.506-1.085 0.581-3.46 0.581-4.778 0-0.269 0.762-0.843 1.218-1.186 0.421-0.316 0.856-0.644 1.156-0.982 0.183-0.207 0.164-0.523-0.042-0.706-0.206-0.184-0.523-0.164-0.706 0.042-0.234 0.265-0.628 0.561-1.010 0.848-0.831 0.626-1.616 1.216-1.616 1.984 0 2.072-0.182 3.701-0.499 4.384-0.825 2.096-2.396 3.116-4.801 3.116-3.143 0-5.7-2.557-5.7-5.7 0-3.014 2.397-5.2 5.7-5.2 1.484 0 2.691-0.538 3.573-0.931 0.228-0.102 0.441-0.196 0.638-0.273zM15.194 16.984c0 0.445 0.361 0.806 0.806 0.806s0.806-0.361 0.806-0.806c0-0.445-0.361-0.806-0.806-0.806s-0.806 0.361-0.806 0.806z"></path>
</svg>
