<?xml version="1.0" encoding="utf-8"?>
<!-- Generated by IcoMoon.io -->
<!DOCTYPE svg PUBLIC "-//W3C//DTD SVG 1.1//EN" "http://www.w3.org/Graphics/SVG/1.1/DTD/svg11.dtd">
<svg version="1.1" xmlns="http://www.w3.org/2000/svg" xmlns:xlink="http://www.w3.org/1999/xlink" width="32" height="32" viewBox="0 0 32 32">
<path fill="#444444" d="M18.908 6.338h-5.748c0 0-3.818 7.166-3.818 13.315 0 3.267 1.388 8.685 1.403 8.685 0.996 3.966 1.705 3.656 5.475 3.656 3.475 0 4.463 0.313 5.247-3.652-0.018 0.017 1.191-5.365 1.191-8.688 0-6.698-3.75-13.316-3.75-13.316zM18.672 1.834c0 0 0.922-3.050 0.922-4.924s-0.951-4.672-3.496-4.672c-2.546 0-3.721 2.77-3.721 4.645s1.007 4.951 1.007 4.951h5.288zM18.447 4.771v-1.567h-4.895v1.566h4.895z"></path>
</svg>
