<?xml version="1.0" encoding="utf-8"?>
<!-- Generated by IcoMoon.io -->
<!DOCTYPE svg PUBLIC "-//W3C//DTD SVG 1.1//EN" "http://www.w3.org/Graphics/SVG/1.1/DTD/svg11.dtd">
<svg version="1.1" xmlns="http://www.w3.org/2000/svg" xmlns:xlink="http://www.w3.org/1999/xlink" width="32" height="32" viewBox="0 0 32 32">
<path fill="#444444" d="M29.77 18.467c0.142-0.802 0.23-1.623 0.23-2.467 0-7.732-6.268-14-14-14-0.844 0-1.665 0.088-2.467 0.23-1.437-1.378-3.385-2.23-5.533-2.23-4.418 0-8 3.582-8 8 0 2.148 0.852 4.096 2.23 5.533-0.142 0.802-0.23 1.623-0.23 2.467 0 7.732 6.268 14 14 14 0.844 0 1.665-0.087 2.467-0.23 1.437 1.378 3.385 2.23 5.533 2.23 4.418 0 8-3.582 8-8 0-2.148-0.852-4.096-2.23-5.533zM22.165 21.604c-0.554 0.754-1.37 1.352-2.429 1.774-1.049 0.419-2.305 0.632-3.733 0.632-1.717 0-3.156-0.291-4.279-0.863-0.803-0.418-1.465-0.981-1.968-1.683-0.508-0.704-0.765-1.403-0.765-2.079 0-0.421 0.167-0.785 0.498-1.085 0.327-0.298 0.747-0.446 1.247-0.446 0.411 0 0.766 0.117 1.053 0.352 0.275 0.227 0.511 0.559 0.701 0.986 0.212 0.468 0.442 0.861 0.686 1.17 0.235 0.301 0.572 0.552 1.003 0.748 0.433 0.197 1.018 0.298 1.736 0.298 0.987 0 1.798-0.203 2.407-0.604 0.595-0.391 0.884-0.861 0.884-1.437 0-0.454-0.151-0.812-0.461-1.091-0.326-0.293-0.755-0.521-1.274-0.678-0.544-0.162-1.282-0.341-2.194-0.523-1.24-0.256-2.293-0.559-3.132-0.901-0.857-0.352-1.548-0.839-2.053-1.446-0.513-0.62-0.773-1.394-0.773-2.307 0-0.869 0.273-1.653 0.812-2.328 0.534-0.672 1.315-1.194 2.32-1.551 0.991-0.354 2.171-0.532 3.506-0.532 1.066 0 2.006 0.119 2.789 0.354 0.788 0.235 1.451 0.555 1.975 0.947 0.524 0.396 0.916 0.817 1.161 1.258 0.247 0.442 0.374 0.885 0.374 1.312 0 0.412-0.165 0.785-0.49 1.111-0.328 0.327-0.74 0.493-1.228 0.493-0.442 0-0.789-0.104-1.029-0.308-0.224-0.191-0.456-0.488-0.713-0.915-0.299-0.545-0.659-0.975-1.073-1.278-0.4-0.295-1.072-0.442-1.995-0.442-0.856 0-1.554 0.165-2.070 0.492-0.499 0.314-0.741 0.675-0.741 1.103 0 0.263 0.078 0.481 0.239 0.669 0.169 0.202 0.409 0.375 0.712 0.522 0.313 0.151 0.638 0.272 0.962 0.358 0.332 0.089 0.889 0.22 1.653 0.39 0.967 0.201 1.856 0.425 2.642 0.667 0.797 0.246 1.482 0.547 2.045 0.899 0.572 0.358 1.025 0.818 1.348 1.369 0.322 0.553 0.485 1.234 0.485 2.026-0.002 0.945-0.282 1.813-0.838 2.567z"></path>
</svg>
