<?xml version="1.0" encoding="utf-8"?>
<!-- Generated by IcoMoon.io -->
<!DOCTYPE svg PUBLIC "-//W3C//DTD SVG 1.1//EN" "http://www.w3.org/Graphics/SVG/1.1/DTD/svg11.dtd">
<svg version="1.1" xmlns="http://www.w3.org/2000/svg" xmlns:xlink="http://www.w3.org/1999/xlink" width="24" height="24" viewBox="0 0 24 24">
<path fill="#444444" d="M10.928 21c-0.801 0-1.555-0.312-2.121-0.879l-7.121-7.121 7.121-7.121c1.133-1.134 3.109-1.134 4.242 0 0.566 0.564 0.879 1.317 0.879 2.119 0 0.746-0.27 1.451-0.764 2.002h4.836c1.654 0 3 1.346 3 3s-1.346 3-3 3h-4.836c0.493 0.549 0.764 1.252 0.764 1.998 0.002 0.802-0.312 1.557-0.879 2.124-0.567 0.566-1.32 0.878-2.121 0.878zM4.514 13l5.707 5.707c0.379 0.378 1.035 0.378 1.414 0 0.189-0.189 0.293-0.441 0.293-0.708s-0.104-0.517-0.291-0.705l-3.295-3.294h9.658c0.552 0 1-0.449 1-1s-0.448-1-1-1h-9.658l3.293-3.293c0.189-0.189 0.293-0.441 0.293-0.708s-0.104-0.517-0.292-0.705c-0.381-0.38-1.036-0.379-1.415-0.001l-5.707 5.707z"></path>
</svg>
