<?xml version="1.0" encoding="UTF-8"?>
<!DOCTYPE svg PUBLIC "-//W3C//DTD SVG 1.1//EN" "http://www.w3.org/Graphics/SVG/1.1/DTD/svg11.dtd">
<!-- Creator: CorelDRAW X8 -->
<svg xmlns="http://www.w3.org/2000/svg" xml:space="preserve" width="3.10225in" height="3.10225in" version="1.1" style="shape-rendering:geometricPrecision; text-rendering:geometricPrecision; image-rendering:optimizeQuality; fill-rule:evenodd; clip-rule:evenodd"
viewBox="0 0 5895 5895"
 xmlns:xlink="http://www.w3.org/1999/xlink">
 <defs>
  <style type="text/css">
   <![CDATA[
    .fil0 {fill:black}
   ]]>
  </style>
 </defs>
 <g id="Layer_x0020_1">
  <metadata id="CorelCorpID_0Corel-Layer"/>
  <path class="fil0" d="M1412 3930l3071 0c307,0 307,393 0,393l-3071 0c-307,0 -307,-393 0,-393zm0 -1179l3071 0c307,0 307,393 0,393l-3071 0c-307,0 -307,-393 0,-393zm0 -1179l3071 0c307,0 307,393 0,393l-3071 0c-307,0 -307,-393 0,-393zm-1412 1277c0,515 68,936 274,1347 236,471 535,860 974,1164 441,305 1023,535 1601,535 664,0 1059,-106 1581,-397 222,-124 424,-287 602,-466 508,-507 863,-1248 863,-1986 0,-515 -68,-936 -274,-1347 -92,-184 -145,-283 -261,-451 -174,-251 -462,-539 -713,-713 -441,-305 -1023,-535 -1601,-535 -664,0 -1059,106 -1581,397 -414,231 -837,654 -1068,1068 -216,387 -397,863 -397,1384z"/>
 </g>
</svg>
