<?xml version="1.0" encoding="utf-8"?>
<!-- Generated by IcoMoon.io -->
<!DOCTYPE svg PUBLIC "-//W3C//DTD SVG 1.1//EN" "http://www.w3.org/Graphics/SVG/1.1/DTD/svg11.dtd">
<svg version="1.1" xmlns="http://www.w3.org/2000/svg" xmlns:xlink="http://www.w3.org/1999/xlink" width="32" height="32" viewBox="0 0 32 32">
<path fill="#444444" d="M13 10h-8c-0.553 0-1 0.447-1 1v10c0 0.553 0.447 1 1 1h14c0.553 0 1-0.447 1-1l-6-10c0-0.553-0.447-1-1-1zM31 10h-3v-3c0-0.553-0.447-1-1-1h-26c-0.553 0-1 0.447-1 1v18c0 0.553 0.447 1 1 1h26c0.553 0 1-0.447 1-1v-3h3c0.553 0 1-0.447 1-1v-10c0-0.553-0.447-1-1-1zM26 23c0 0.553-0.447 1-1 1h-22c-0.553 0-1-0.447-1-1v-14c0-0.553 0.447-1 1-1h22c0.553 0 1 0.447 1 1v14z"></path>
</svg>
