<?xml version="1.0" encoding="utf-8"?>
<!-- Generated by IcoMoon.io -->
<!DOCTYPE svg PUBLIC "-//W3C//DTD SVG 1.1//EN" "http://www.w3.org/Graphics/SVG/1.1/DTD/svg11.dtd">
<svg version="1.1" xmlns="http://www.w3.org/2000/svg" xmlns:xlink="http://www.w3.org/1999/xlink" width="32" height="32" viewBox="0 0 32 32">
<path fill="#444444" d="M6 28h3v-9h-3v9zM18 18h-5c-0.553 0-1 0.447-1 1v3c0 0.552 0.447 1 1 1h5c0.552 0 1-0.448 1-1v-3c0-0.553-0.448-1-1-1zM14.031 21.969h-1v-2.938h1v2.938zM15.969 21.969h-1v-2.938h1v2.938zM18.031 21.969h-1v-2.938h1v2.938zM17 4h-3v13h3v-13zM25 4h-3v5h3v-5zM9 4h-3v8h3v-8zM22 28h3v-12h-3v12zM14 28h3v-4h-3v4zM10 13h-5c-0.553 0-1 0.447-1 1v3c0 0.552 0.447 1 1 1h5c0.552 0 1-0.448 1-1v-3c0-0.553-0.448-1-1-1zM6.031 16.969h-1v-2.938h1v2.938zM8.031 16.969h-1v-2.938h1v2.938zM10.031 16.969h-1v-2.938h1v2.938zM26 10h-5c-0.553 0-1 0.447-1 1v3c0 0.552 0.447 1 1 1h5c0.552 0 1-0.448 1-1v-3c0-0.553-0.448-1-1-1zM22.031 13.969h-1v-2.938h1v2.938zM23.969 13.969h-1v-2.938h1v2.938zM26.031 13.969h-1v-2.938h1v2.938z"></path>
</svg>
