<?xml version="1.0" encoding="utf-8"?>
<!-- Generated by IcoMoon.io -->
<!DOCTYPE svg PUBLIC "-//W3C//DTD SVG 1.1//EN" "http://www.w3.org/Graphics/SVG/1.1/DTD/svg11.dtd">
<svg version="1.1" xmlns="http://www.w3.org/2000/svg" xmlns:xlink="http://www.w3.org/1999/xlink" width="32" height="32" viewBox="0 0 32 32">
<path fill="#444444" d="M16-0.034c-8.842 0-16.034 7.192-16.034 16.034s7.192 16.034 16.034 16.034 16.034-7.192 16.034-16.034-7.192-16.034-16.034-16.034zM16 30.966c-8.252 0-14.966-6.714-14.966-14.966s6.714-14.966 14.966-14.966 14.966 6.714 14.966 14.966-6.714 14.966-14.966 14.966zM10.502 13.951c-0.295 0-0.534 0.239-0.534 0.534s0.239 0.534 0.534 0.534c2.253 0 4.14 0.697 5.454 2.016 1.315 1.318 2.010 3.208 2.010 5.465 0 0.295 0.239 0.534 0.534 0.534s0.534-0.239 0.534-0.534c0.001-2.546-0.802-4.696-2.32-6.22-1.521-1.523-3.668-2.329-6.212-2.329zM10.505 9.027c-0.295 0-0.534 0.239-0.534 0.534s0.239 0.534 0.534 0.534c7.14 0 12.523 5.333 12.523 12.404 0 0.295 0.239 0.534 0.534 0.534s0.534-0.239 0.534-0.534c0.001-7.68-5.842-13.472-13.591-13.472zM11.999 18.882c-1.121 0-2.033 0.913-2.033 2.035 0 1.121 0.912 2.033 2.033 2.033 1.122 0 2.035-0.912 2.035-2.034s-0.914-2.034-2.035-2.034zM11.999 21.882c-0.532 0-0.965-0.433-0.965-0.965 0-0.533 0.433-0.967 0.965-0.967s0.966 0.435 0.967 0.967c0 0.532-0.434 0.965-0.967 0.965z"></path>
</svg>
