<?xml version="1.0" encoding="UTF-8"?>
<!DOCTYPE svg PUBLIC "-//W3C//DTD SVG 1.1//EN" "http://www.w3.org/Graphics/SVG/1.1/DTD/svg11.dtd">
<!-- Creator: CorelDRAW X8 -->
<svg xmlns="http://www.w3.org/2000/svg" xml:space="preserve" width="1.44561in" height="1.56158in" version="1.1" style="shape-rendering:geometricPrecision; text-rendering:geometricPrecision; image-rendering:optimizeQuality; fill-rule:evenodd; clip-rule:evenodd"
viewBox="0 0 481 519"
 xmlns:xlink="http://www.w3.org/1999/xlink">
 <defs>
  <style type="text/css">
   <![CDATA[
    .fil0 {fill:black}
   ]]>
  </style>
 </defs>
 <g id="Layer_x0020_1">
  <metadata id="CorelCorpID_0Corel-Layer"/>
  <g id="_133259770112">
   <path class="fil0" d="M115 469c-15,0 -27,0 -40,-6 -17,-9 -17,-29 -9,-40 13,-18 84,-21 87,12 3,23 -14,34 -38,34zm-48 -244c0,-17 2,-37 20,-44 15,-5 31,-2 41,9 11,14 15,53 -8,65 -18,10 -53,4 -53,-30zm-14 74c-3,4 -20,8 -20,40 0,12 4,23 11,32 2,1 6,5 9,5 -3,4 -14,6 -24,13 -43,29 -37,94 11,117 24,12 46,13 76,13 41,0 75,-14 90,-48 9,-21 12,-59 -8,-79 -34,-34 -70,-20 -93,-40 -2,-2 -5,-5 -6,-8 -6,-8 -3,-22 5,-28 14,-10 36,1 71,-37 15,-17 22,-40 22,-65 0,-9 -4,-16 -5,-23 2,0 22,-4 22,-8 0,-65 4,-59 -11,-54 -4,2 -9,4 -14,5 -17,4 -19,5 -37,5 -6,0 -19,-13 -54,-13 -43,0 -79,28 -90,67 -7,24 -3,52 9,72 1,3 2,4 4,7 7,9 19,26 32,27z"/>
   <path class="fil0" d="M361 98l0 32 -28 0 0 55c18,-2 8,-3 28,-1 0,26 -1,112 2,131 3,26 9,54 35,65 21,8 51,7 72,-1 4,-2 7,-4 11,-5l0 -57c-5,1 -57,32 -57,-25l0 -107 49 0 0 -55 -49 0 0 -22c0,-10 2,-17 2,-25l-66 0c0,7 1,9 1,15z"/>
   <path class="fil0" d="M242 381l65 0c0,-9 -3,-28 -3,-43l0 -173c0,-13 2,-23 3,-35l-65 0 0 251z"/>
   <path class="fil0" d="M235 38c0,13 1,23 12,34 12,13 28,17 44,9 5,-2 8,-5 12,-9 18,-18 16,-51 -10,-67 -4,-3 -8,-4 -13,-5l-9 0c-13,2 -25,10 -32,23 -1,3 -4,10 -4,15z"/>
  </g>
 </g>
</svg>
