<?xml version="1.0" encoding="utf-8"?>
<!-- Generated by IcoMoon.io -->
<!DOCTYPE svg PUBLIC "-//W3C//DTD SVG 1.1//EN" "http://www.w3.org/Graphics/SVG/1.1/DTD/svg11.dtd">
<svg version="1.1" xmlns="http://www.w3.org/2000/svg" xmlns:xlink="http://www.w3.org/1999/xlink" width="24" height="24" viewBox="0 0 24 24">
<path fill="#444444" d="M15 4.444v-2c0-1.104-1.492-2.444-2.598-2.444h-0.802c-1.105 0-2.598 1.34-2.598 2.444v2c-1 0-2 0.9-2 2v1c0 0.734 0 1.373 1 1.721v10.835h1v4h5.998v-4h1v-10.835c1-0.348 1-0.986 1-1.721v-1c0-1.099-1-2-2-2zM13 22h-1.998v-3h1.998v3zM14 18h-3.998v-6h3.998v6zM14 11h-3.998v-2h3.998v2z"></path>
</svg>
