<?xml version="1.0" encoding="utf-8"?>
<!-- Generated by IcoMoon.io -->
<!DOCTYPE svg PUBLIC "-//W3C//DTD SVG 1.1//EN" "http://www.w3.org/Graphics/SVG/1.1/DTD/svg11.dtd">
<svg version="1.1" xmlns="http://www.w3.org/2000/svg" xmlns:xlink="http://www.w3.org/1999/xlink" width="24" height="24" viewBox="0 0 24 24">
<path fill="#444444" d="M8 16.5v0.5c1.691-2.578 3.6-3.953 6-4 0 1.045 0 2.838 0 3 0 0.551 0.511 1 1.143 1 0.364 0 0.675-0.158 0.883-0.391 1.933-2.029 5.974-6.109 5.974-6.109s-4.041-4.082-5.975-6.137c-0.208-0.205-0.518-0.363-0.882-0.363-0.632 0-1.143 0.447-1.143 1 0 0.168 0 1.877 0 3-4.66 0-6 4.871-6 8.5z"></path>
<path fill="#444444" d="M5 21h14c0.553 0 1-0.448 1-1v-6.046c-0.664 0.676-1.364 1.393-2 2.047v2.999h-12v-12h7v-2h-8c-0.553 0-1 0.448-1 1v14c0 0.552 0.447 1 1 1z"></path>
</svg>
