<?xml version="1.0" encoding="utf-8"?>
<!-- Generated by IcoMoon.io -->
<!DOCTYPE svg PUBLIC "-//W3C//DTD SVG 1.1//EN" "http://www.w3.org/Graphics/SVG/1.1/DTD/svg11.dtd">
<svg version="1.1" xmlns="http://www.w3.org/2000/svg" xmlns:xlink="http://www.w3.org/1999/xlink" width="32" height="32" viewBox="0 0 32 32">
<path fill="#444444" d="M16 32c8.822 0 16-7.178 16-16s-7.178-16-16-16-16 7.178-16 16 7.178 16 16 16zM7.71 3.51c-0.877 2.364-1.313 4.809-1.246 7.287 0.050 1.798 0.357 3.599 0.917 5.355 0.435 1.36 1.003 2.655 1.691 3.848 0.11 0.192 0.225 0.381 0.341 0.568 0.095 0.152 0.258 0.236 0.425 0.236 0.091 0 0.182-0.024 0.264-0.075 0.234-0.146 0.307-0.454 0.161-0.688-0.11-0.178-0.219-0.358-0.325-0.541-0.651-1.131-1.191-2.359-1.604-3.651-0.531-1.667-0.823-3.376-0.87-5.079-0.071-2.608 0.416-5.183 1.473-7.714 0.049-0.12 0.101-0.238 0.153-0.356 2.070-1.080 4.417-1.7 6.91-1.7 2.393 0 4.648 0.577 6.657 1.578-2.48 0.423-4.809 1.267-6.919 2.563-1.531 0.939-2.938 2.107-4.179 3.471-0.962 1.055-1.799 2.196-2.487 3.388-0.111 0.192-0.219 0.386-0.322 0.581-0.13 0.244-0.037 0.547 0.207 0.676 0.074 0.040 0.155 0.059 0.234 0.059 0.179 0 0.352-0.097 0.441-0.266 0.098-0.184 0.199-0.367 0.305-0.55 0.652-1.131 1.447-2.212 2.36-3.215 1.179-1.294 2.513-2.401 3.964-3.293 2.225-1.365 4.698-2.231 7.354-2.572 0.146-0.020 0.293-0.036 0.44-0.053 3.917 2.507 6.588 6.776 6.897 11.686-1.606-1.935-3.501-3.53-5.678-4.709-1.582-0.857-3.297-1.491-5.097-1.884-1.62-0.355-3.252-0.506-4.843-0.448-0.275 0.011-0.491 0.242-0.481 0.519 0.010 0.27 0.231 0.481 0.5 0.481 0.006 0 0.012 0 0.019 0 1.496-0.056 3.054 0.088 4.593 0.425 1.707 0.373 3.334 0.975 4.833 1.786 2.295 1.244 4.281 2.953 5.958 5.151 0.072 0.093 0.141 0.188 0.211 0.282-0.215 4.934-2.808 9.258-6.677 11.834 0.877-2.364 1.313-4.809 1.246-7.287-0.050-1.798-0.357-3.599-0.917-5.355-0.435-1.36-1.003-2.655-1.691-3.848-0.11-0.192-0.225-0.381-0.341-0.568-0.146-0.235-0.455-0.305-0.688-0.161-0.234 0.146-0.307 0.454-0.161 0.688 0.11 0.178 0.219 0.358 0.325 0.541 0.651 1.131 1.191 2.359 1.604 3.651 0.531 1.667 0.823 3.376 0.87 5.079 0.071 2.607-0.416 5.183-1.473 7.714-0.050 0.119-0.101 0.238-0.153 0.356-2.071 1.080-4.418 1.7-6.911 1.7-2.393 0-4.648-0.577-6.657-1.578 2.479-0.423 4.809-1.267 6.919-2.563 1.533-0.941 2.939-2.109 4.179-3.471 0.963-1.056 1.8-2.196 2.487-3.389 0.111-0.192 0.219-0.386 0.322-0.581 0.13-0.244 0.037-0.547-0.207-0.676-0.242-0.13-0.547-0.036-0.676 0.207-0.098 0.184-0.199 0.367-0.305 0.55-0.652 1.131-1.447 2.212-2.361 3.215-1.176 1.293-2.51 2.4-3.963 3.293-2.225 1.365-4.698 2.231-7.354 2.572-0.146 0.020-0.293 0.036-0.44 0.053-3.917-2.507-6.588-6.776-6.897-11.686 1.606 1.935 3.501 3.53 5.678 4.709 1.582 0.857 3.297 1.491 5.097 1.884 1.395 0.307 2.8 0.461 4.178 0.461 0.223 0 0.443-0.004 0.665-0.012 0.275-0.011 0.491-0.242 0.481-0.519-0.010-0.275-0.205-0.505-0.519-0.481-1.494 0.057-3.054-0.088-4.593-0.425-1.707-0.373-3.334-0.975-4.833-1.786-2.295-1.244-4.281-2.953-5.958-5.151-0.072-0.093-0.141-0.188-0.211-0.282 0.216-4.934 2.81-9.258 6.678-11.834z"></path>
</svg>
