<?xml version="1.0" encoding="utf-8"?>
<!-- Generated by IcoMoon.io -->
<!DOCTYPE svg PUBLIC "-//W3C//DTD SVG 1.1//EN" "http://www.w3.org/Graphics/SVG/1.1/DTD/svg11.dtd">
<svg version="1.1" xmlns="http://www.w3.org/2000/svg" xmlns:xlink="http://www.w3.org/1999/xlink" width="28" height="32" viewBox="0 0 28 32">
<path fill="#444444" d="M22 28h-20v-18h20v6h2v-10c0-1.094-0.906-2-2-2h-6c0-2.219-1.781-4-4-4s-4 1.781-4 4h-6c-1.094 0-2 0.906-2 2v22c0 1.094 0.906 2 2 2h20c1.094 0 2-0.906 2-2v-4h-2v4zM6 6c0.906 0 0.906 0 2 0s2-0.906 2-2 0.906-2 2-2 2 0.906 2 2 1 2 2 2 1.031 0 2 0 2 0.906 2 2h-16c0-1.219 0.875-2 2-2zM4 22h4v-2h-4v2zM18 18v-4l-8 6 8 6v-4h10v-4h-10zM4 26h6v-2h-6v2zM14 12h-10v2h10v-2zM8 16h-4v2h4v-2z"></path>
</svg>
