<?xml version="1.0" encoding="utf-8"?>
<!-- Generated by IcoMoon.io -->
<!DOCTYPE svg PUBLIC "-//W3C//DTD SVG 1.1//EN" "http://www.w3.org/Graphics/SVG/1.1/DTD/svg11.dtd">
<svg version="1.1" xmlns="http://www.w3.org/2000/svg" xmlns:xlink="http://www.w3.org/1999/xlink" width="24" height="24" viewBox="0 0 24 24">
<path fill="#444444" d="M18.984 0.984q0.797 0 1.406 0.609t0.609 1.406v18q0 0.797-0.609 1.406t-1.406 0.609h-9.984q-0.797 0-1.406-0.609t-0.609-1.406v-3h2.016v2.016h9.984v-16.031h-9.984v2.016h-2.016v-3q0-0.797 0.609-1.406t1.406-0.609h9.984zM8.016 14.016q0.797 0 1.383-0.609t0.586-1.406-0.586-1.406-1.383-0.609-1.406 0.609-0.609 1.406 0.609 1.406 1.406 0.609zM11.813 12.516l1.078 0.891q0.188 0.188 0.094 0.281l-0.984 1.734q-0.094 0.094-0.281 0.094l-1.313-0.516q-0.656 0.422-0.891 0.516l-0.234 1.266q-0.234 0.234-0.281 0.234h-2.016q-0.094 0-0.164-0.094t-0.023-0.141l-0.188-1.266q-0.234-0.094-0.891-0.516l-1.406 0.422q-0.094 0.094-0.328-0.141l-0.984-1.688q0-0.188 0.094-0.375l1.125-0.797v-1.031l-1.125-0.797q-0.188-0.188-0.094-0.281l0.984-1.734q0.094-0.094 0.328-0.094l1.266 0.516q0.609-0.422 0.938-0.516l0.188-1.266q0.234-0.234 0.281-0.234h2.016q0.281 0 0.281 0.234l0.234 1.266q0.234 0.094 0.891 0.516l1.313-0.422q0.094-0.047 0.281 0.141l0.984 1.688q0 0.188-0.094 0.281l-1.078 0.797v1.031z"></path>
</svg>
