<?xml version="1.0" encoding="utf-8"?>
<!-- Generated by IcoMoon.io -->
<!DOCTYPE svg PUBLIC "-//W3C//DTD SVG 1.1//EN" "http://www.w3.org/Graphics/SVG/1.1/DTD/svg11.dtd">
<svg version="1.1" xmlns="http://www.w3.org/2000/svg" xmlns:xlink="http://www.w3.org/1999/xlink" width="32" height="32" viewBox="0 0 32 32">
<path fill="#444444" d="M16 3c-7.18 0-13 5.82-13 13s5.82 13 13 13 13-5.82 13-13-5.82-13-13-13zM18.995 21.357c-0.826 0.797-1.854 1.194-3.086 1.194-1.166 0-2.133-0.335-2.9-1.005-0.769-0.67-1.214-1.545-1.337-2.627l2.391-0.289c0.076 0.607 0.281 1.071 0.616 1.393 0.333 0.321 0.738 0.482 1.213 0.482 0.51 0 0.939-0.194 1.289-0.582 0.348-0.387 0.522-0.909 0.522-1.566 0-0.621-0.167-1.115-0.501-1.479-0.335-0.364-0.742-0.545-1.223-0.545-0.317 0-0.695 0.062-1.136 0.184l0.272-1.997c0.668 0.018 1.178-0.127 1.529-0.434s0.526-0.715 0.526-1.224c0-0.433-0.128-0.777-0.385-1.035-0.258-0.257-0.599-0.386-1.025-0.386-0.421 0-0.779 0.146-1.077 0.438s-0.479 0.72-0.544 1.281l-2.281-0.386c0.158-0.782 0.397-1.407 0.717-1.875s0.765-0.835 1.336-1.103 1.212-0.401 1.921-0.401c1.213 0 2.186 0.387 2.918 1.161 0.604 0.633 0.905 1.348 0.905 2.145 0 1.131-0.619 2.034-1.858 2.708 0.739 0.158 1.33 0.513 1.772 1.063 0.443 0.551 0.664 1.215 0.664 1.994 0.001 1.132-0.412 2.095-1.238 2.891z"></path>
</svg>
