<?xml version="1.0" encoding="utf-8"?>
<!-- Generated by IcoMoon.io -->
<!DOCTYPE svg PUBLIC "-//W3C//DTD SVG 1.1//EN" "http://www.w3.org/Graphics/SVG/1.1/DTD/svg11.dtd">
<svg version="1.1" xmlns="http://www.w3.org/2000/svg" xmlns:xlink="http://www.w3.org/1999/xlink" width="28" height="32" viewBox="0 0 28 32">
<path fill="#444444" d="M14 30h10v-10h-10v10zM2 30h10v-10h-10v10zM13.992 11.756c0.983-0.109 2.090-0.231 2.73-0.304 2.621-0.292 4.98-2.652 5.271-5.272 0.291-2.617-1.594-4.504-4.209-4.21-2.045 0.229-3.915 1.718-4.785 3.604-0.87-1.887-2.74-3.376-4.784-3.606-2.616-0.292-4.504 1.595-4.21 4.212 0.292 2.62 2.652 4.979 5.271 5.272 0.642 0.072 1.748 0.196 2.731 0.304-0.016 0.132-0.008 0.244-0.008 0.244h2c0 0 0.008-0.112-0.008-0.244zM17.355 4.396c1.414-0.158 2.438 0.861 2.277 2.277-0.156 1.416-1.434 2.692-2.848 2.851-1.418 0.157-2.438-0.862-2.279-2.278s1.436-2.692 2.85-2.85zM9.216 9.524c-1.414-0.158-2.689-1.435-2.848-2.851s0.862-2.436 2.275-2.277c1.416 0.157 2.692 1.434 2.851 2.85s-0.862 2.436-2.278 2.278zM14 12v6h12v-6h-12zM0 18h12v-6h-12v6z"></path>
</svg>
