<?xml version="1.0" encoding="utf-8"?>
<!-- Generated by IcoMoon.io -->
<!DOCTYPE svg PUBLIC "-//W3C//DTD SVG 1.1//EN" "http://www.w3.org/Graphics/SVG/1.1/DTD/svg11.dtd">
<svg version="1.1" xmlns="http://www.w3.org/2000/svg" xmlns:xlink="http://www.w3.org/1999/xlink" width="32" height="32" viewBox="0 0 32 32">
<path fill="#444444" d="M30.721 6.774l-9.197 9.253 9.197 9.198c0.385 0.384 0.385 1.007 0 1.392l-4.176 4.175c-0.383 0.385-1.006 0.385-1.391 0l-9.182-9.182-9.127 9.182c-0.384 0.385-1.007 0.385-1.392 0l-4.175-4.175c-0.384-0.385-0.384-1.008 0-1.392l9.127-9.182-9.126-9.126c-0.384-0.384-0.384-1.007 0-1.392l4.175-4.175c0.384-0.385 1.007-0.385 1.392 0l9.11 9.11 9.199-9.253c0.385-0.385 1.008-0.385 1.391 0l4.176 4.175c0.383 0.385 0.383 1.008-0.001 1.392z"></path>
</svg>
