<?xml version="1.0" encoding="utf-8"?>
<!-- Generated by IcoMoon.io -->
<!DOCTYPE svg PUBLIC "-//W3C//DTD SVG 1.1//EN" "http://www.w3.org/Graphics/SVG/1.1/DTD/svg11.dtd">
<svg version="1.1" xmlns="http://www.w3.org/2000/svg" xmlns:xlink="http://www.w3.org/1999/xlink" width="32" height="32" viewBox="0 0 32 32">
<path fill="#444444" d="M8.955 14.532c0.526 0.525 2.554 2.665 2.554 2.665l1.124-1.159-1.762-1.82 3.382-3.592c0 0-1.526-1.488-0.858-0.895 0.639-2.372 0.057-5.018-1.745-6.883-1.786-1.85-4.324-2.456-6.604-1.819l3.864 3.991-1.017 3.916-3.783 1.045-3.862-3.992c-0.616 2.357-0.030 4.979 1.76 6.83 1.878 1.941 4.582 2.512 6.948 1.714zM21.838 18.413l-4.66 4.603 7.685 7.963c0.627 0.65 1.453 0.975 2.277 0.975 0.82 0 1.645-0.324 2.275-0.975 1.258-1.301 1.258-3.406 0-4.707l-7.578-7.859zM31.99 5.057l-4.894-5.057-14.427 14.916 1.762 1.82-8.635 8.925-1.974 1.055-2.788 4.549 0.71 0.736 4.401-2.883 1.020-2.041 8.636-8.924 1.763 1.82 14.427-14.916z"></path>
</svg>
