<?xml version="1.0" encoding="UTF-8"?>
<!DOCTYPE svg PUBLIC "-//W3C//DTD SVG 1.1//EN" "http://www.w3.org/Graphics/SVG/1.1/DTD/svg11.dtd">
<!-- Creator: CorelDRAW X8 -->
<svg xmlns="http://www.w3.org/2000/svg" xml:space="preserve" width="2.45392in" height="2.22188in" version="1.1" style="shape-rendering:geometricPrecision; text-rendering:geometricPrecision; image-rendering:optimizeQuality; fill-rule:evenodd; clip-rule:evenodd"
viewBox="0 0 1363 1235"
 xmlns:xlink="http://www.w3.org/1999/xlink">
 <defs>
  <style type="text/css">
   <![CDATA[
    .fil0 {fill:black}
   ]]>
  </style>
 </defs>
 <g id="Layer_x0020_1">
  <metadata id="CorelCorpID_0Corel-Layer"/>
  <path class="fil0" d="M157 232l930 0c0,15 -16,83 -21,107 -2,12 -6,25 -6,36l-927 0c-10,0 -9,14 -11,24 -6,31 -39,194 -39,208l929 0c0,11 -4,22 -6,32l-45 229c-10,1 -72,23 -89,28 -30,11 -57,20 -87,30 -61,20 -119,38 -179,58 -31,11 -33,0 -86,-18 -29,-11 -58,-23 -86,-34l-127 -48c-10,-4 -36,-15 -46,-16 7,-14 18,-102 24,-114l-232 0c-3,40 -53,251 -53,277 11,2 21,7 32,11 9,3 19,7 30,12l64 24c124,48 260,97 381,146 36,14 27,13 63,1l558 -185c9,-3 28,-7 32,-13l87 -440c29,-143 62,-297 88,-439l28 -148 -1161 0c-8,37 -16,78 -23,115 -4,21 -22,102 -22,117z"/>
 </g>
</svg>
