<?xml version="1.0" encoding="utf-8"?>
<!-- Generated by IcoMoon.io -->
<!DOCTYPE svg PUBLIC "-//W3C//DTD SVG 1.1//EN" "http://www.w3.org/Graphics/SVG/1.1/DTD/svg11.dtd">
<svg version="1.1" xmlns="http://www.w3.org/2000/svg" xmlns:xlink="http://www.w3.org/1999/xlink" width="24" height="24" viewBox="0 0 24 24">
<path fill="#444444" d="M7.828 19c-0.801 0-1.555-0.312-2.121-0.879l-5.121-5.121 5.121-5.121c1.133-1.134 3.112-1.134 4.243 0.001 1.169 1.168 1.169 3.072-0.001 4.241l-0.878 0.879 0.878 0.879c1.17 1.169 1.17 3.073 0 4.242-0.564 0.567-1.318 0.879-2.121 0.879zM3.414 13l3.707 3.707c0.38 0.379 1.039 0.377 1.413 0.001 0.391-0.391 0.391-1.025 0.001-1.415l-2.292-2.293 2.292-2.293c0.39-0.39 0.39-1.024 0-1.414-0.378-0.379-1.036-0.377-1.414 0l-3.707 3.707z"></path>
<path fill="#444444" d="M16.172 19c-0.803 0-1.557-0.312-2.122-0.88-1.169-1.168-1.169-3.072 0.001-4.241l0.878-0.879-0.878-0.879c-1.17-1.169-1.17-3.073 0-4.242 1.129-1.133 3.109-1.134 4.242 0l5.121 5.121-5.121 5.121c-0.566 0.567-1.32 0.879-2.121 0.879zM16.171 9c-0.267 0-0.518 0.104-0.705 0.292-0.391 0.391-0.391 1.025-0.001 1.415l2.292 2.293-2.292 2.293c-0.39 0.39-0.39 1.024 0 1.414 0.377 0.378 1.035 0.379 1.414 0l3.707-3.707-3.707-3.707c-0.19-0.189-0.441-0.293-0.708-0.293z"></path>
</svg>
