<?xml version="1.0" encoding="utf-8"?>
<!-- Generated by IcoMoon.io -->
<!DOCTYPE svg PUBLIC "-//W3C//DTD SVG 1.1//EN" "http://www.w3.org/Graphics/SVG/1.1/DTD/svg11.dtd">
<svg version="1.1" xmlns="http://www.w3.org/2000/svg" xmlns:xlink="http://www.w3.org/1999/xlink" width="24" height="24" viewBox="0 0 24 24">
<path fill="#444444" d="M16.25 11.25c0.364 0 0.704 0.145 0.984 0.391 0.549 0.332 0.766-0.034 0.766-0.391v-1.75c0-0.825-0.675-1.5-1.5-1.5h-2.75c-0.356 0-0.724-0.216-0.391-0.766 0.246-0.28 0.391-0.619 0.391-0.984 0-0.967-1.007-1.75-2.25-1.75s-2.25 0.783-2.25 1.75c0 0.3 0.095 0.576 0.255 0.823 0.507 0.673 0.136 0.927-0.255 0.927h-2.75c-0.825 0-1.5 0.675-1.5 1.5v1.75c0 0.391 0.254 0.762 0.928 0.244 0.246-0.149 0.522-0.244 0.822-0.244 0.966 0 1.75 1.008 1.75 2.25s-0.784 2.25-1.75 2.25c-0.364 0-0.704-0.145-0.984-0.391-0.549-0.332-0.766 0.034-0.766 0.391v2.75c0 0.825 0.675 1.5 1.5 1.5h2.75c0.391 0 0.762-0.254 0.243-0.927-0.148-0.247-0.243-0.523-0.243-0.823 0-0.967 1.007-1.75 2.25-1.75s2.25 0.783 2.25 1.75c0 0.365-0.145 0.704-0.391 0.984-0.333 0.55 0.035 0.766 0.391 0.766h2.75c0.825 0 1.5-0.675 1.5-1.5v-2.75c0-0.391-0.254-0.762-0.928-0.244-0.246 0.149-0.522 0.244-0.822 0.244-0.966 0-1.75-1.008-1.75-2.25s0.784-2.25 1.75-2.25z"></path>
</svg>
