<?xml version="1.0" encoding="utf-8"?>
<!-- Generated by IcoMoon.io -->
<!DOCTYPE svg PUBLIC "-//W3C//DTD SVG 1.1//EN" "http://www.w3.org/Graphics/SVG/1.1/DTD/svg11.dtd">
<svg version="1.1" xmlns="http://www.w3.org/2000/svg" xmlns:xlink="http://www.w3.org/1999/xlink" width="32" height="32" viewBox="0 0 32 32">
<path fill="#444444" d="M19 0h-6c-7.18 0-13 5.82-13 13 0 4.652 2.463 8.703 6.137 11h-0.137v8l9-6h4c7.18 0 13-5.82 13-13s-5.82-13-13-13zM19 22h-4l-5 3v-3.551c-3.488-1.24-6-4.537-6-8.449 0-4.971 4.029-9 9-9h6c4.971 0 9 4.029 9 9s-4.029 9-9 9z"></path>
</svg>
