<?xml version="1.0" encoding="utf-8"?>
<!-- Generated by IcoMoon.io -->
<!DOCTYPE svg PUBLIC "-//W3C//DTD SVG 1.1//EN" "http://www.w3.org/Graphics/SVG/1.1/DTD/svg11.dtd">
<svg version="1.1" xmlns="http://www.w3.org/2000/svg" xmlns:xlink="http://www.w3.org/1999/xlink" width="32" height="32" viewBox="0 0 32 32">
<path fill="#444444" d="M7.993 11.013h5.016v1.003h-5.016zM29.156 27.123l-5.676-5.674c-0.656-0.658-1.643-0.73-2.41-0.283l-3.035-3.035c1.6-1.777 2.58-4.121 2.58-6.7 0-5.541-4.49-10.032-10.031-10.032s-10.031 4.491-10.031 10.032c0 5.54 4.491 10.031 10.031 10.031 2.237 0 4.296-0.741 5.965-1.979l3.104 3.102c-0.447 0.769-0.375 1.754 0.281 2.412l5.676 5.674c0.783 0.784 2.053 0.784 2.838 0l0.709-0.709c0.782-0.784 0.782-2.055-0.001-2.839zM10.563 18.912c-4.155 0-7.523-3.368-7.523-7.523s3.368-7.523 7.523-7.523 7.524 3.368 7.524 7.523-3.368 7.523-7.524 7.523z"></path>
</svg>
