<?xml version="1.0" encoding="utf-8"?>
<!-- Generated by IcoMoon.io -->
<!DOCTYPE svg PUBLIC "-//W3C//DTD SVG 1.1//EN" "http://www.w3.org/Graphics/SVG/1.1/DTD/svg11.dtd">
<svg version="1.1" xmlns="http://www.w3.org/2000/svg" xmlns:xlink="http://www.w3.org/1999/xlink" width="32" height="32" viewBox="0 0 32 32">
<path fill="#444444" d="M10 12h-2v2h2v-2zM6 2h8v-2s-11 0-12 0-2 1-2 2 0 23 0 24 1 2 2 2 4 0 4 0v4l3-3 3 3v-4s8.938 0 10 0 2-1 2-2 0-6 0-6h-18v-18zM22 22s0 2.469 0 3-0.438 1-1 1-9 0-9 0v-2h-6v2s-2.5 0-3 0-1-0.5-1-1 0-3 0-3h20zM10 8h-2v2h2v-2zM8 18h2v-2h-2v2zM30 0c-1 0-9 0-10 0s-2 1-2 2 0 11 0 12 1 2 2 2 2 0 2 0v2l1-1 1 1v-2s5 0 6 0 2-1 2-2 0-11 0-12-1-2-2-2zM22 14s-0.469 0-1 0-1-0.469-1-1 0-1 0-1h2v2zM30 13c0 0.5-0.469 1-1 1s-5 0-5 0v-2h6s0 0.5 0 1zM30 10h-8v-8h7s1 0 1 1 0 7 0 7zM10 4h-2v2h2v-2z"></path>
</svg>
