<?xml version="1.0" encoding="utf-8"?>
<!-- Generated by IcoMoon.io -->
<!DOCTYPE svg PUBLIC "-//W3C//DTD SVG 1.1//EN" "http://www.w3.org/Graphics/SVG/1.1/DTD/svg11.dtd">
<svg version="1.1" xmlns="http://www.w3.org/2000/svg" xmlns:xlink="http://www.w3.org/1999/xlink" width="24" height="24" viewBox="0 0 24 24">
<path fill="#444444" d="M22.525 7.149c-0.16-0.099-0.342-0.149-0.525-0.149-0.153 0-0.306 0.035-0.447 0.105l-2.553 1.277v-0.382c0-1.654-1.346-3-3-3h-11c-1.654 0-3 1.346-3 3v8c0 1.654 1.346 3 3 3h11c1.654 0 3-1.346 3-3v-0.382l2.553 1.276c0.141 0.071 0.294 0.106 0.447 0.106 0.183 0 0.365-0.050 0.525-0.149 0.295-0.183 0.475-0.504 0.475-0.851v-8c0-0.347-0.18-0.668-0.475-0.851zM7 13.5c-0.829 0-1.5-0.671-1.5-1.5s0.671-1.5 1.5-1.5 1.5 0.671 1.5 1.5-0.671 1.5-1.5 1.5z"></path>
</svg>
