<?xml version="1.0" encoding="utf-8"?>
<!-- Generated by IcoMoon.io -->
<!DOCTYPE svg PUBLIC "-//W3C//DTD SVG 1.1//EN" "http://www.w3.org/Graphics/SVG/1.1/DTD/svg11.dtd">
<svg version="1.1" xmlns="http://www.w3.org/2000/svg" xmlns:xlink="http://www.w3.org/1999/xlink" width="32" height="32" viewBox="0 0 32 32">
<path fill="#444444" d="M26.917 18.518l-13.435-13.435c-0.586-0.586-0.586-1.536 0-2.121s1.535-0.586 2.121 0l3.182 3.182 3.89-3.889c0.586-0.586 1.535-0.586 2.121 0s0.586 1.535 0 2.121l-3.889 3.889 2.828 2.828 3.889-3.889c0.586-0.586 1.536-0.586 2.122 0s0.585 1.535 0 2.121l-3.89 3.89 3.183 3.182c0.585 0.586 0.585 1.535 0 2.121s-1.536 0.586-2.122 0zM20.907 23.821c-1.297 1.296-7.071 1.414-7.071 1.414l-7.071-7.071c0 0 0.118-5.774 1.414-7.071 1.297-1.296 4.95-4.949 4.95-4.949l12.728 12.728c-0.001-0.001-3.654 3.652-4.95 4.949zM6.765 19.578l5.657 5.657c0.391 0.391 0.391 1.023 0 1.414s-1.024 0.391-1.415 0l-5.656-5.657c-0.391-0.391-0.391-1.023 0-1.414s1.023-0.39 1.414 0zM9.593 26.649c0 0-0.475 0.476-1.061 1.061s-1.535 0.586-2.121 0l-0.354-0.354-2.829 2.828-1.414-1.414 2.829-2.828-0.353-0.353c-0.586-0.586-0.586-1.536 0-2.122s1.119-1.001 1.119-1.001l4.184 4.183z"></path>
</svg>
