<?xml version="1.0" encoding="utf-8"?>
<!-- Generated by IcoMoon.io -->
<!DOCTYPE svg PUBLIC "-//W3C//DTD SVG 1.1//EN" "http://www.w3.org/Graphics/SVG/1.1/DTD/svg11.dtd">
<svg version="1.1" xmlns="http://www.w3.org/2000/svg" xmlns:xlink="http://www.w3.org/1999/xlink" width="24" height="24" viewBox="0 0 24 24">
<path fill="#444444" d="M21.384 7.331c0.073-1.199-0.354-2.388-1.146-3.179-0.732-0.731-1.793-1.152-2.912-1.152-1.176 0-2.206 0.453-2.825 1.243-0.692 0.883-1.392 2.625-1.769 3.647l-1.616-1.617c-0.392-0.391-1.023-0.391-1.414 0s-0.392 1.023 0 1.414l0.293 0.293-5.231 5.232c-0.375 0.375-0.719 0.912-0.968 1.516-0.019 0.043-1.726 4.328-0.093 5.959 0.527 0.526 1.33 0.707 2.178 0.707 1.778-0.002 3.753-0.787 3.783-0.801 0.602-0.248 1.141-0.592 1.514-0.967l5.232-5.232 0.293 0.293c0.195 0.195 0.451 0.293 0.707 0.293s0.512-0.098 0.707-0.293c0.391-0.391 0.391-1.022 0-1.414l-1.617-1.616c1.023-0.376 2.766-1.075 3.648-1.769 0.721-0.562 1.17-1.493 1.236-2.557zM5.119 19.275c-0.247-0.295-0.105-1.508 0.154-2.58l2.422 2.423c-1.071 0.261-2.283 0.403-2.576 0.157zM9.764 18.214c-0.188 0.188-0.511 0.388-0.865 0.533-0.034 0.015-0.080 0.028-0.116 0.042l-3.181-3.18c0.016-0.037 0.028-0.082 0.043-0.117 0.146-0.354 0.346-0.678 0.533-0.864l5.232-5.231 3.586 3.586-5.232 5.231z"></path>
</svg>
