<?xml version="1.0" encoding="utf-8"?>
<!-- Generated by IcoMoon.io -->
<!DOCTYPE svg PUBLIC "-//W3C//DTD SVG 1.1//EN" "http://www.w3.org/Graphics/SVG/1.1/DTD/svg11.dtd">
<svg version="1.1" xmlns="http://www.w3.org/2000/svg" xmlns:xlink="http://www.w3.org/1999/xlink" width="24" height="24" viewBox="0 0 24 24">
<path fill="#444444" d="M12 0q4.641 0 7.781 3.234l-1.406 1.406q-2.625-2.625-6.375-2.625t-6.375 2.625l-1.406-1.406q3.234-3.234 7.781-3.234zM7.031 6.047q2.063-2.063 4.969-2.063t4.969 2.063l-1.406 1.406q-1.453-1.453-3.563-1.453t-3.563 1.453zM12 15q0.797 0 1.406-0.609t0.609-1.406-0.609-1.383-1.406-0.586-1.406 0.586-0.609 1.383 0.609 1.406 1.406 0.609zM15 9q0.422 0 0.703 0.281t0.281 0.703v12q0 0.422-0.281 0.727t-0.703 0.305h-6q-0.422 0-0.703-0.305t-0.281-0.727v-12q0-0.422 0.281-0.703t0.703-0.281h6z"></path>
</svg>
