<?xml version="1.0" encoding="utf-8"?>
<!-- Generated by IcoMoon.io -->
<!DOCTYPE svg PUBLIC "-//W3C//DTD SVG 1.1//EN" "http://www.w3.org/Graphics/SVG/1.1/DTD/svg11.dtd">
<svg version="1.1" xmlns="http://www.w3.org/2000/svg" xmlns:xlink="http://www.w3.org/1999/xlink" width="24" height="24" viewBox="0 0 24 24">
<path fill="#444444" d="M21 3h-18c-1.654 0-3 1.346-3 3v11c0 1.654 1.346 3 3 3h1l1 2h1l1-2h10l1 2h1l1-2h1c1.654 0 3-1.346 3-3v-11c0-1.654-1.346-3-3-3zM22 17c0 0.552-0.449 1-1 1h-18c-0.551 0-1-0.448-1-1v-11c0-0.551 0.449-1 1-1h18c0.551 0 1 0.449 1 1v11zM3 17h15v-11h-15v11zM4 7h13v9h-13v-9zM19 7h1v1h-1zM20 8h1v1h-1zM19 9h1v1h-1zM20 10h1v1h-1zM19 13h2v1h-2zM19 15h2v1h-2z"></path>
</svg>
