<?xml version="1.0" encoding="utf-8"?>
<!-- Generated by IcoMoon.io -->
<!DOCTYPE svg PUBLIC "-//W3C//DTD SVG 1.1//EN" "http://www.w3.org/Graphics/SVG/1.1/DTD/svg11.dtd">
<svg version="1.1" xmlns="http://www.w3.org/2000/svg" xmlns:xlink="http://www.w3.org/1999/xlink" width="24" height="24" viewBox="0 0 24 24">
<path fill="#444444" d="M20.986 17c0-0.105-0.004-0.211-0.038-0.316l-2-6c-0.136-0.409-0.516-0.684-0.948-0.684h-0.561l0.682-0.678c1.17-1.17 1.17-3.072 0-4.242-0.81-0.812-2.068-1.078-3.121-0.709v-1.371c0-1.654-1.346-3-3-3s-3 1.346-3 3v1.371c-1.052-0.369-2.311-0.103-3.121 0.709-1.17 1.17-1.17 3.072 0.002 4.244l0.68 0.676h-0.561c-0.432 0-0.812 0.275-0.948 0.684l-2 6c-0.034 0.105-0.038 0.211-0.038 0.316-0.014 0-0.014 5-0.014 5 0 0.553 0.447 1 1 1h16c0.553 0 1-0.447 1-1 0 0 0-5-0.014-5zM7.293 6.494c0.189-0.187 0.439-0.293 0.707-0.293s0.518 0.104 0.707 0.293l2.293 2.293v-5.787c0-0.552 0.448-1 1-1s1 0.448 1 1v5.787l2.293-2.293c0.379-0.377 1.035-0.377 1.414 0 0.391 0.39 0.391 1.023 0.002 1.412l-4.709 4.684-4.707-4.682c-0.391-0.388-0.391-1.024 0-1.414zM6.721 12h1.852l3.429 3.41 3.428-3.41h1.852l1.667 5h-13.894l1.666-5zM19 21h-14v-3h14v3z"></path>
</svg>
