<?xml version="1.0" encoding="utf-8"?>
<!-- Generated by IcoMoon.io -->
<!DOCTYPE svg PUBLIC "-//W3C//DTD SVG 1.1//EN" "http://www.w3.org/Graphics/SVG/1.1/DTD/svg11.dtd">
<svg version="1.1" xmlns="http://www.w3.org/2000/svg" xmlns:xlink="http://www.w3.org/1999/xlink" width="24" height="24" viewBox="0 0 24 24">
<path fill="#444444" d="M18.984 20.484q0.609 0 1.055-0.445t0.445-1.055-0.445-1.055-1.055-0.445-1.055 0.445-0.445 1.055 0.445 1.055 1.055 0.445zM22.688 19.5l1.078 0.797q0.141 0.141 0.047 0.328l-0.984 1.734q-0.141 0.234-0.328 0.141l-1.219-0.516q-0.141 0.141-0.844 0.469l-0.188 1.359q0 0.188-0.281 0.188h-1.969q-0.281 0-0.281-0.188l-0.188-1.359q-0.375-0.188-0.844-0.469l-1.219 0.516q-0.234 0.094-0.328-0.141l-0.984-1.734q-0.094-0.188 0.047-0.328l1.078-0.797q0-0.047-0.023-0.234t-0.023-0.281 0.023-0.258 0.023-0.211l-1.078-0.844q-0.141-0.141-0.047-0.328l0.984-1.734q0.094-0.188 0.328-0.094l1.219 0.516q0.563-0.375 0.844-0.516l0.188-1.313q0-0.188 0.281-0.188h1.969q0.281 0 0.281 0.188l0.188 1.313q0.188 0.094 0.844 0.516l1.219-0.516q0.234-0.094 0.328 0.094l0.984 1.734q0.094 0.188-0.047 0.328l-1.078 0.844q0.047 0.141 0.047 0.469 0 0.094-0.023 0.281t-0.023 0.234zM18.984 11.484q-3.094 0-5.297 2.203t-2.203 5.297q0 0.375 0.094 1.031h-11.578l20.016-20.016-0.047 11.578q-0.656-0.094-0.984-0.094z"></path>
</svg>
