<?xml version="1.0" encoding="utf-8"?>
<!-- Generated by IcoMoon.io -->
<!DOCTYPE svg PUBLIC "-//W3C//DTD SVG 1.1//EN" "http://www.w3.org/Graphics/SVG/1.1/DTD/svg11.dtd">
<svg version="1.1" xmlns="http://www.w3.org/2000/svg" xmlns:xlink="http://www.w3.org/1999/xlink" width="24" height="24" viewBox="0 0 24 24">
<path fill="#444444" d="M16.641 20.344l3.656-3.656-3.656-3.609-3.609 3.656zM14.016 11.016q-0.422 0-0.727 0.281t-0.305 0.703 0.305 0.703 0.727 0.281 0.703-0.281 0.281-0.703-0.281-0.703-0.703-0.281zM12 15q0.422 0 0.703-0.281t0.281-0.703-0.281-0.727-0.703-0.305-0.703 0.305-0.281 0.727 0.281 0.703 0.703 0.281zM9.984 12.984q0.422 0 0.727-0.281t0.305-0.703-0.305-0.703-0.727-0.281-0.703 0.281-0.281 0.703 0.281 0.703 0.703 0.281zM7.313 10.969l3.609-3.656-3.609-3.609-3.656 3.656zM12 9q-0.422 0-0.703 0.281t-0.281 0.703 0.281 0.727 0.703 0.305 0.703-0.305 0.281-0.727-0.281-0.703-0.703-0.281zM17.719 12l3.984 3.984q0.281 0.281 0.281 0.703t-0.281 0.703l-4.313 4.359q-0.281 0.281-0.703 0.281-0.469 0-0.75-0.281l-3.938-3.984-3.984 3.984q-0.281 0.281-0.703 0.281t-0.703-0.281l-4.359-4.359q-0.281-0.281-0.281-0.703t0.281-0.703l3.984-3.984-3.984-3.938q-0.281-0.281-0.281-0.727t0.281-0.727l4.359-4.313q0.281-0.281 0.703-0.281t0.703 0.281l3.984 3.984 3.938-3.984q0.281-0.281 0.727-0.281t0.727 0.281l4.313 4.313q0.281 0.281 0.281 0.727t-0.281 0.727z"></path>
</svg>
