<?xml version="1.0" encoding="utf-8"?>
<!-- Generated by IcoMoon.io -->
<!DOCTYPE svg PUBLIC "-//W3C//DTD SVG 1.1//EN" "http://www.w3.org/Graphics/SVG/1.1/DTD/svg11.dtd">
<svg version="1.1" xmlns="http://www.w3.org/2000/svg" xmlns:xlink="http://www.w3.org/1999/xlink" width="32" height="32" viewBox="0 0 32 32">
<path fill="#444444" d="M14.611 18.856c-0.346 0.352-0.52 0.782-0.52 1.292 0 0.551 0.197 1.014 0.59 1.389 0.363 0.346 0.799 0.519 1.309 0.519 0.521 0 0.971-0.188 1.346-0.566s0.562-0.828 0.562-1.35c0-0.504-0.182-0.943-0.545-1.318-0.363-0.381-0.801-0.571-1.311-0.571-0.567-0.001-1.044 0.201-1.431 0.605v0zM14.391 10.788c-0.299 0.451-0.447 1.011-0.447 1.679 0 0.545 0.092 1.146 0.276 1.802s0.435 1.271 0.751 1.846c0.428 0.779 0.76 1.169 0.994 1.169 0.24 0 0.557-0.305 0.949-0.914 0.346-0.539 0.622-1.152 0.83-1.841s0.312-1.332 0.312-1.93c0-0.902-0.244-1.6-0.73-2.092-0.363-0.375-0.805-0.563-1.326-0.563-0.703 0-1.24 0.282-1.609 0.844v0z"></path>
</svg>
