<?xml version="1.0" encoding="utf-8"?>
<!-- Generated by IcoMoon.io -->
<!DOCTYPE svg PUBLIC "-//W3C//DTD SVG 1.1//EN" "http://www.w3.org/Graphics/SVG/1.1/DTD/svg11.dtd">
<svg version="1.1" xmlns="http://www.w3.org/2000/svg" xmlns:xlink="http://www.w3.org/1999/xlink" width="24" height="24" viewBox="0 0 24 24">
<path fill="#444444" d="M20.908 9.5l-2.754-2.607c-0.568-0.541-1.447-0.893-2.237-0.893h-2.917v-0.5c0-0.828-0.672-1.5-1.5-1.5s-1.5 0.672-1.5 1.5v0.5h-3.5c-1.93 0-3.5 1.57-3.5 3.5 0 1.396 0.828 2.596 2.016 3.157l-1.844 1.843 2.561 2.561c0.57 0.57 1.46 0.939 2.268 0.939h2.2l0.8 4h1l0.8-4h2.7c1.931 0 3.5-1.57 3.5-3.5 0-0.902-0.353-1.718-0.915-2.339 0.021-0.021 0.051-0.035 0.072-0.056l2.75-2.605zM15.5 16h-7.5c-0.275 0-0.658-0.158-0.854-0.354l-1.146-1.146 1.146-1.146c0.195-0.195 0.577-0.354 0.854-0.354h7.5c0.828 0 1.5 0.672 1.5 1.5s-0.672 1.5-1.5 1.5zM16.779 10.656c-0.199 0.19-0.586 0.344-0.862 0.344h-9.417c-0.828 0-1.5-0.672-1.5-1.5s0.672-1.5 1.5-1.5h9.417c0.276 0 0.663 0.154 0.862 0.344l1.221 1.156-1.221 1.156z"></path>
</svg>
