<?xml version="1.0" encoding="utf-8"?>
<!-- Generated by IcoMoon.io -->
<!DOCTYPE svg PUBLIC "-//W3C//DTD SVG 1.1//EN" "http://www.w3.org/Graphics/SVG/1.1/DTD/svg11.dtd">
<svg version="1.1" xmlns="http://www.w3.org/2000/svg" xmlns:xlink="http://www.w3.org/1999/xlink" width="24" height="24" viewBox="0 0 24 24">
<path fill="#444444" d="M12 16c2.206 0 4-1.795 4-4v-6c0-2.206-1.794-4-4-4s-4 1.794-4 4v6c0 2.205 1.794 4 4 4z"></path>
<path fill="#444444" d="M19 12v-2c0-0.552-0.447-1-1-1s-1 0.448-1 1v2c0 2.757-2.243 5-5 5s-5-2.243-5-5v-2c0-0.552-0.447-1-1-1s-1 0.448-1 1v2c0 3.52 2.613 6.432 6 6.92v1.080h-3c-0.553 0-1 0.447-1 1s0.447 1 1 1h8c0.553 0 1-0.447 1-1s-0.447-1-1-1h-3v-1.080c3.387-0.488 6-3.4 6-6.92z"></path>
</svg>
