<?xml version="1.0" encoding="utf-8"?>
<!-- Generated by IcoMoon.io -->
<!DOCTYPE svg PUBLIC "-//W3C//DTD SVG 1.1//EN" "http://www.w3.org/Graphics/SVG/1.1/DTD/svg11.dtd">
<svg version="1.1" xmlns="http://www.w3.org/2000/svg" xmlns:xlink="http://www.w3.org/1999/xlink" width="32" height="32" viewBox="0 0 32 32">
<path fill="#444444" d="M17.57 18.118c-1.598-1.306-2.618-3.292-2.618-5.517 0-1.118 0.28-2.162 0.739-3.104l-1.098-1.097-6.67 6.671c1.24 0.976 1.115 1.93-0.336 2.86l8.911 8.91h4.367c0.562 0 1.018 0.456 1.018 1.018v1.018h-4.768l-0.011 0.011-0.011-0.011h-7.418v-1.017c0-0.562 0.456-1.018 1.018-1.018h4.367l-8.406-8.405c-1.661 0.712-2.481 0.024-2.446-2.090 0.038-2.249 0.991-2.849 2.839-1.837l6.829-6.829-0.676-0.675c-0.397-0.396-0.397-1.041 0-1.438l2.158-2.158c0.397-0.397 1.042-0.397 1.439 0l2.6 2.602c0.828-0.337 1.729-0.53 2.678-0.53 2.342 0 4.422 1.005 5.719 2.752 0.044 0.011-10.187 9.9-10.224 9.884zM25.443 11.754c0 0 1.717 2.161 0 3.878s-3.857-0.021-3.857-0.021l3.857-3.857z"></path>
</svg>
