<?xml version="1.0" encoding="utf-8"?>
<!-- Generated by IcoMoon.io -->
<!DOCTYPE svg PUBLIC "-//W3C//DTD SVG 1.1//EN" "http://www.w3.org/Graphics/SVG/1.1/DTD/svg11.dtd">
<svg version="1.1" xmlns="http://www.w3.org/2000/svg" xmlns:xlink="http://www.w3.org/1999/xlink" width="32" height="32" viewBox="0 0 32 32">
<path fill="#444444" d="M25.115 5.265l0.045-1.455c-2.694-1.348-5.686-2.155-8.973-2.155s-6.653 0.807-9.347 2.155l0.045 1.455 9.115 5.981 9.115-5.981zM16 4.556c1.875 0 3.448 0.601 3.448 0.601l-3.448 2.317-3.448-2.317c0 0 1.573-0.601 3.448-0.601zM18.073 23.977v-7.020l0.468-6.035-2.541 1.671-2.479-1.671 0.53 6.035v7.020h4.022zM12.39 10.276l-6.789-4.526-0.045-1.761h-3.996l0.593 8.55 4.85 3.466h5.927l-0.54-5.729zM4.685 10.653l6.412 3.018 0.107 0.989-6.357-2.875-0.162-1.132zM4.415 7.582l6.358 3.071 0.161 1.069-6.411-2.955-0.108-1.185zM4.308 26.549l4.735 2.424v-9.412l-2.796-1.74v-1.078l-2.748-1.886 0.809 11.692zM13.054 24.992v-7.012l-3.071 1.562v10.186l1.384 0.861 1.886-4.598h5.496l1.886 4.598 1.446-0.861v-10.185l-3.071-1.562v7.012h-5.956zM14.168 27.070l-1.401 3.932h6.466l-1.4-3.932h-3.665zM19.071 16.004h5.927l4.85-3.466 0.593-8.55h-3.996l-0.046 1.762-6.79 4.526-0.538 5.728zM27.153 11.785l-6.421 3 0.171-1.114 6.412-3.018-0.162 1.132zM27.477 8.767l-6.412 3.018 0.162-1.132 6.358-3.071-0.108 1.185zM28.5 14.856l-2.747 1.886v1.078l-2.755 1.74v9.412l4.694-2.424 0.808-11.692z"></path>
</svg>
