<?xml version="1.0" encoding="utf-8"?>
<!-- Generated by IcoMoon.io -->
<!DOCTYPE svg PUBLIC "-//W3C//DTD SVG 1.1//EN" "http://www.w3.org/Graphics/SVG/1.1/DTD/svg11.dtd">
<svg version="1.1" xmlns="http://www.w3.org/2000/svg" xmlns:xlink="http://www.w3.org/1999/xlink" width="32" height="32" viewBox="0 0 32 32">
<path fill="#444444" d="M26 1c0-0.552-0.447-1-1-1h-18c-0.552 0-1 0.448-1 1l-6 15v14c0 1.104 0.896 2 2 2h28c1.104 0 2-0.896 2-2v-14l-6-15zM23 16l-3 5c0 0.553-0.447 1-1 1h-6c-0.553 0-1-0.447-1-1l-3-5h-5l5.143-12h13.715l5.142 12h-5z"></path>
</svg>
