<?xml version="1.0" encoding="utf-8"?>
<!-- Generated by IcoMoon.io -->
<!DOCTYPE svg PUBLIC "-//W3C//DTD SVG 1.1//EN" "http://www.w3.org/Graphics/SVG/1.1/DTD/svg11.dtd">
<svg version="1.1" xmlns="http://www.w3.org/2000/svg" xmlns:xlink="http://www.w3.org/1999/xlink" width="24" height="24" viewBox="0 0 24 24">
<path fill="#444444" d="M1 3v17h9v2h13v-19h-22zM11 18h-8v-1h8v1zM21 20h-9v-1h9v1zM21 6h-1v1h1v11h-9v-6h-1v4h-8v-5.048c0.743-0.057 2.723-0.362 2.723-1.987l-2.723 1.815v-5.78h18v1zM20.723 10.965l-3-2c0 2 3 2 3 2zM19 6h-1v1h1v-1zM17 6h-1v1h1v-1zM15 6h-1v1h1v-1zM13 6h-1v1h1v-1zM11 6h-1v1h1v-1zM9 6h-1v1h1v-1zM7 6h-1v1h1v-1zM5 6h-1v1h1v-1z"></path>
</svg>
