<?xml version="1.0" encoding="utf-8"?>
<!-- Generated by IcoMoon.io -->
<!DOCTYPE svg PUBLIC "-//W3C//DTD SVG 1.1//EN" "http://www.w3.org/Graphics/SVG/1.1/DTD/svg11.dtd">
<svg version="1.1" xmlns="http://www.w3.org/2000/svg" xmlns:xlink="http://www.w3.org/1999/xlink" width="24" height="24" viewBox="0 0 24 24">
<path fill="#444444" d="M18.383 4.318c-0.374-0.155-0.804-0.069-1.090 0.217-1.264 1.263-3.321 1.264-4.586 0-2.045-2.043-5.37-2.043-7.414 0-0.188 0.187-0.293 0.442-0.293 0.707v13c0 0.552 0.447 1 1 1s1-0.448 1-1v-4.553c1.271-0.997 3.121-0.911 4.293 0.26 2.045 2.043 5.371 2.043 7.414 0 0.188-0.188 0.293-0.442 0.293-0.707v-8c0-0.405-0.244-0.769-0.617-0.924z"></path>
</svg>
