<?xml version="1.0" encoding="utf-8"?>
<!-- Generated by IcoMoon.io -->
<!DOCTYPE svg PUBLIC "-//W3C//DTD SVG 1.1//EN" "http://www.w3.org/Graphics/SVG/1.1/DTD/svg11.dtd">
<svg version="1.1" xmlns="http://www.w3.org/2000/svg" xmlns:xlink="http://www.w3.org/1999/xlink" width="48" height="48" viewBox="0 0 48 48">
<path fill="#444444" d="M36 12v-6c0-2.21-1.79-4-4-4h-16c-2.21 0-4 1.79-4 4v6h-8c-2.21 0-4 1.79-4 4v26c0 2.21 1.79 4 4 4h40c2.21 0 4-1.79 4-4l-0-26c0-2.21-1.79-4-4-4h-8zM19.2 7h9.6c1.22 0 2.2 0.98 2.2 2.2v2.8h-14v-2.8c0-1.22 0.98-2.2 2.2-2.2zM12 19v20c0 1.1-0.9 2-2 2s-2-0.9-2-2l-0-20c0-1.1 0.9-2 2-2s2 0.9 2 2zM40 19v20c0 1.1-0.9 2-2 2s-2-0.9-2-2l-0-20c0-1.1 0.9-2 2-2s2 0.9 2 2z"></path>
</svg>
