<?xml version="1.0" encoding="UTF-8"?>
<!DOCTYPE svg PUBLIC "-//W3C//DTD SVG 1.1//EN" "http://www.w3.org/Graphics/SVG/1.1/DTD/svg11.dtd">
<!-- Creator: CorelDRAW X8 -->
<svg xmlns="http://www.w3.org/2000/svg" xml:space="preserve" width="2.37796in" height="2.37796in" version="1.1" style="shape-rendering:geometricPrecision; text-rendering:geometricPrecision; image-rendering:optimizeQuality; fill-rule:evenodd; clip-rule:evenodd"
viewBox="0 0 1128 1128"
 xmlns:xlink="http://www.w3.org/1999/xlink">
 <defs>
  <style type="text/css">
   <![CDATA[
    .fil0 {fill:black}
   ]]>
  </style>
 </defs>
 <g id="Layer_x0020_1">
  <metadata id="CorelCorpID_0Corel-Layer"/>
  <g id="_133413565792">
   <path class="fil0" d="M106 577l2 -55c3,-44 18,-98 35,-137 11,-26 26,-52 40,-74l24 -33c29,-38 81,-82 123,-107 51,-30 108,-51 169,-60 17,-2 37,-2 52,-5 9,-1 19,-1 28,1 10,1 17,0 27,1 92,7 173,45 244,99 29,22 62,59 84,89 44,60 72,127 83,203 8,53 6,105 -4,157 -15,75 -47,135 -92,194l-27 31c-5,5 -9,9 -14,14l-31 27c-6,5 -11,7 -17,12 -5,4 -10,8 -16,12l-55 31c-39,19 -86,33 -132,40 -37,5 -70,6 -107,3 -44,-3 -98,-18 -137,-35 -39,-16 -74,-39 -107,-64 -29,-22 -62,-59 -84,-89 -20,-28 -26,-38 -43,-71 -25,-50 -42,-112 -43,-171 0,-9 -1,-8 -2,-13zm434 -577l55 0c71,4 142,21 208,52 121,58 217,152 274,275 37,81 51,151 51,252 0,146 -70,289 -165,384 -44,45 -101,85 -162,114 -81,37 -150,51 -252,51 -212,0 -410,-138 -498,-327 -37,-81 -51,-150 -51,-252 0,-146 70,-289 165,-384 100,-101 236,-158 375,-165z"/>
   <polygon class="fil0" points="423,564 494,564 494,776 423,776 423,846 705,846 705,776 635,776 635,494 423,494 "/>
   <polygon class="fil0" points="494,423 635,423 635,282 494,282 "/>
  </g>
 </g>
</svg>
