<?xml version="1.0" encoding="utf-8"?>
<!-- Generated by IcoMoon.io -->
<!DOCTYPE svg PUBLIC "-//W3C//DTD SVG 1.1//EN" "http://www.w3.org/Graphics/SVG/1.1/DTD/svg11.dtd">
<svg version="1.1" xmlns="http://www.w3.org/2000/svg" xmlns:xlink="http://www.w3.org/1999/xlink" width="24" height="24" viewBox="0 0 24 24">
<path fill="#444444" d="M12 3c-4.962 0-9 4.037-9 9s4.038 9 9 9 9-4.037 9-9-4.038-9-9-9zM18.962 11.275c-1.765-0.289-3.534-0.187-5.205 0.262-0.18-0.436-0.383-0.859-0.59-1.283 1.422-0.81 2.685-1.912 3.713-3.262 1.143 1.113 1.909 2.611 2.082 4.283zM16.13 6.361c-0.939 1.243-2.1 2.259-3.401 3.009-0.782-1.445-1.729-2.8-2.807-4.056 0.657-0.204 1.355-0.314 2.078-0.314 1.545 0 2.971 0.51 4.13 1.361zM8.947 5.711c1.119 1.265 2.093 2.645 2.892 4.117-2.061 0.957-4.396 1.294-6.717 0.899 0.408-2.212 1.86-4.058 3.825-5.016zM5 12c0-0.1 0.011-0.195 0.015-0.294 0.676 0.111 1.353 0.188 2.024 0.188 1.827 0 3.607-0.426 5.237-1.187 0.182 0.373 0.365 0.744 0.525 1.127-2.429 0.866-4.583 2.486-6.101 4.726-1.056-1.227-1.7-2.818-1.7-4.56zM7.393 17.257c1.43-2.129 3.465-3.673 5.764-4.487 0.683 1.854 1.123 3.795 1.292 5.779-0.763 0.287-1.587 0.451-2.449 0.451-1.765 0-3.375-0.661-4.607-1.743zM15.407 18.109c-0.196-1.932-0.631-3.822-1.293-5.632 1.564-0.404 3.222-0.486 4.871-0.19-0.102 2.502-1.516 4.668-3.578 5.822z"></path>
</svg>
