<?xml version="1.0" encoding="utf-8"?>
<!-- Generated by IcoMoon.io -->
<!DOCTYPE svg PUBLIC "-//W3C//DTD SVG 1.1//EN" "http://www.w3.org/Graphics/SVG/1.1/DTD/svg11.dtd">
<svg version="1.1" xmlns="http://www.w3.org/2000/svg" xmlns:xlink="http://www.w3.org/1999/xlink" width="48" height="48" viewBox="0 0 48 48">
<path fill="#444444" d="M6.75 37.768l-6.030 6.042c-0.96 0.959-0.96 2.509 0 3.471 0.959 0.96 2.51 0.96 3.47 0l6.030-6.032c8.62 6.882 21.26 6.282 29.29-1.75 0.961-0.96 1.68-1.97 2.45-3.041l0.45-0.68c0.369-0.55 0.59-1.22 0.59-1.94 0-1.13-0.54-2.14-1.38-2.78l-0.49-0.36c-1.069-0.761-2.040-1.42-3.21-1.96 2.78-0.73 5.141-2.211 7.35-4.422 0.74-0.739 1.41-1.509 2-2.32l0.301-0.45c0.27-0.399 0.43-0.89 0.43-1.411 0-0.829-0.4-1.56-1.020-2.020l-0.641-0.44c-1.6-1.051-3.080-1.761-4.92-2.131 0.48-0.38 0.939-0.791 1.38-1.231 2.83-2.83 4.3-6.501 4.41-10.182 0-0.12-0.040-0.68-0.040-0.829 0-1.38-1.12-2.5-2.5-2.5l-0.76-0.021c-3.7 0.1-7.391 1.57-10.23 4.411-0.439 0.439-0.85 0.899-1.229 1.38-0.38-1.88-1.11-3.371-2.2-5.012l-0.351-0.489c-0.45-0.65-1.211-1.071-2.060-1.071-0.49 0-0.949 0.141-1.34 0.391-0.15 0.090-0.561 0.399-0.62 0.439-0.771 0.57-1.5 1.21-2.2 1.911-2.21 2.21-3.69 4.55-4.42 7.331-0.55-1.18-1.21-2.141-1.98-3.22l-0.34-0.471c-0.64-0.84-1.66-1.39-2.8-1.39-0.72 0-1.399 0.221-1.96 0.6-0.14 0.101-0.54 0.391-0.59 0.431-1.080 0.78-2.11 1.479-3.090 2.46-8.030 8.031-8.63 20.674-1.75 29.286z"></path>
</svg>
