<?xml version="1.0" encoding="utf-8"?>
<!-- Generated by IcoMoon.io -->
<!DOCTYPE svg PUBLIC "-//W3C//DTD SVG 1.1//EN" "http://www.w3.org/Graphics/SVG/1.1/DTD/svg11.dtd">
<svg version="1.1" xmlns="http://www.w3.org/2000/svg" xmlns:xlink="http://www.w3.org/1999/xlink" width="24" height="24" viewBox="0 0 24 24">
<path fill="#444444" d="M13 11h-2v-2c0-0.276-0.224-0.5-0.5-0.5s-0.5 0.224-0.5 0.5v2h-2c-0.276 0-0.5 0.224-0.5 0.5s0.224 0.5 0.5 0.5h2v2c0 0.276 0.224 0.5 0.5 0.5s0.5-0.224 0.5-0.5v-2h2c0.276 0 0.5-0.224 0.5-0.5s-0.224-0.5-0.5-0.5z"></path>
<path fill="#444444" d="M18.432 14.97l-1.285-1.287c0.227-0.688 0.354-1.42 0.354-2.183 0-3.859-3.141-7-7-7s-7 3.141-7 7 3.141 7 7 7c0.763 0 1.496-0.127 2.184-0.354l2.323 2.32 0.064 0.055c0.601 0.506 1.348 0.784 2.104 0.784 1.726 0 3.13-1.404 3.13-3.131 0-0.84-0.328-1.628-0.924-2.218l-0.95-0.986zM5.5 11.5c0-2.757 2.243-5 5-5s5 2.243 5 5-2.243 5-5 5-5-2.243-5-5z"></path>
</svg>
