<?xml version="1.0" encoding="utf-8"?>
<!-- Generated by IcoMoon.io -->
<!DOCTYPE svg PUBLIC "-//W3C//DTD SVG 1.1//EN" "http://www.w3.org/Graphics/SVG/1.1/DTD/svg11.dtd">
<svg version="1.1" xmlns="http://www.w3.org/2000/svg" xmlns:xlink="http://www.w3.org/1999/xlink" width="24" height="24" viewBox="0 0 24 24">
<path fill="#444444" d="M12 15l5.484-3.984-5.484-3v6.984zM12 3v2.016h3.984v-2.016h-3.984zM18 5.016h5.016v10.969q0 0.844-0.586 1.43t-1.43 0.586h-14.016q-0.844 0-1.406-0.586t-0.563-1.43v-10.969h4.969v-2.016q0-0.844 0.586-1.43t1.43-0.586h3.984q0.844 0 1.43 0.586t0.586 1.43v2.016zM3 9v11.016h15.984q0 0.844-0.563 1.406t-1.406 0.563h-14.016q-0.844 0-1.43-0.563t-0.586-1.406v-11.016h2.016z"></path>
</svg>
