<?xml version="1.0" encoding="utf-8"?>
<!-- Generated by IcoMoon.io -->
<!DOCTYPE svg PUBLIC "-//W3C//DTD SVG 1.1//EN" "http://www.w3.org/Graphics/SVG/1.1/DTD/svg11.dtd">
<svg version="1.1" xmlns="http://www.w3.org/2000/svg" xmlns:xlink="http://www.w3.org/1999/xlink" width="24" height="32" viewBox="0 0 24 32">
<path fill="#444444" d="M10 8h-2v2h2v-2zM10 4h-2v2h2v-2zM22 0c-1 0-19 0-20 0s-2 1-2 2 0 23 0 24 1 2 2 2 4 0 4 0v4l3-3 3 3v-4s9 0 10 0 2-1 2-2 0-23 0-24-1-2-2-2zM22 25c0 0.5-0.469 1-1 1s-9 0-9 0v-2h-6v2s-2.469 0-3 0-1-0.531-1-1 0-3 0-3h20s0 2.5 0 3zM22 20h-16v-18h16.031l-0.031 18zM10 16h-2v2h2v-2zM10 12h-2v2h2v-2z"></path>
</svg>
