<?xml version="1.0" encoding="utf-8"?>
<!-- Generated by IcoMoon.io -->
<!DOCTYPE svg PUBLIC "-//W3C//DTD SVG 1.1//EN" "http://www.w3.org/Graphics/SVG/1.1/DTD/svg11.dtd">
<svg version="1.1" xmlns="http://www.w3.org/2000/svg" xmlns:xlink="http://www.w3.org/1999/xlink" width="48" height="48" viewBox="0 0 48 48">
<path fill="#444444" d="M4 4v40c0 2.21 1.79 4 4 4h33.5c1.38 0 2.5-1.12 2.5-2.5s-1.12-2.5-2.5-2.5h-30.5c-1.1 0-2-0.9-2-2s0.9-2 2-2h29c2.21 0 4-1.79 4-4v-31c0-2.21-1.79-4-4-4h-14v17.99c0 0.26-0.1 0.52-0.29 0.72-0.39 0.39-1.030 0.39-1.42 0-0.26-0.271-4.29-3.62-4.29-3.62s-4.030 3.35-4.29 3.62c-0.39 0.39-1.030 0.39-1.42 0-0.19-0.2-0.29-0.46-0.29-0.72v-17.99h-6c-2.21 0-4 1.79-4 4z"></path>
</svg>
