<?xml version="1.0" encoding="utf-8"?>
<!-- Generated by IcoMoon.io -->
<!DOCTYPE svg PUBLIC "-//W3C//DTD SVG 1.1//EN" "http://www.w3.org/Graphics/SVG/1.1/DTD/svg11.dtd">
<svg version="1.1" xmlns="http://www.w3.org/2000/svg" xmlns:xlink="http://www.w3.org/1999/xlink" width="32" height="32" viewBox="0 0 32 32">
<path fill="#444444" d="M30 18h-4c-1.105 0-2-0.895-2-2s0.895-2 2-2h4c1.105 0 2 0.895 2 2s-0.895 2-2 2zM24.484 10.344c-0.781 0.781-2.047 0.781-2.828 0s-0.781-2.047 0-2.828l2.828-2.828c0.781-0.781 2.047-0.781 2.828 0s0.781 2.047 0 2.828l-2.828 2.828zM16 32c-1.105 0-2-0.895-2-2v-4c0-1.105 0.895-2 2-2s2 0.895 2 2v4c0 1.105-0.895 2-2 2zM16 8c-1.105 0-2-0.894-2-2v-4c0-1.105 0.895-2 2-2s2 0.894 2 2v4c0 1.106-0.895 2-2 2zM7.516 27.313c-0.781 0.781-2.047 0.781-2.828 0-0.781-0.779-0.781-2.047 0-2.828l2.828-2.828c0.781-0.781 2.047-0.781 2.828 0s0.781 2.047 0 2.828l-2.828 2.828zM7.516 10.344l-2.828-2.828c-0.781-0.781-0.781-2.047 0-2.828s2.047-0.781 2.828 0l2.828 2.828c0.781 0.781 0.781 2.047 0 2.828s-2.047 0.781-2.828 0zM8 16c0 1.105-0.894 2-2 2h-4c-1.105 0-2-0.895-2-2s0.894-2 2-2h4c1.106 0 2 0.895 2 2zM24.484 21.656l2.828 2.828c0.781 0.781 0.781 2.049 0 2.828-0.781 0.781-2.047 0.781-2.828 0l-2.828-2.828c-0.781-0.781-0.781-2.047 0-2.828s2.047-0.781 2.828 0z"></path>
</svg>
