<?xml version="1.0" encoding="utf-8"?>
<!-- Generated by IcoMoon.io -->
<!DOCTYPE svg PUBLIC "-//W3C//DTD SVG 1.1//EN" "http://www.w3.org/Graphics/SVG/1.1/DTD/svg11.dtd">
<svg version="1.1" xmlns="http://www.w3.org/2000/svg" xmlns:xlink="http://www.w3.org/1999/xlink" width="24" height="24" viewBox="0 0 24 24">
<path fill="#444444" d="M21.516 11.484v-0.984h-2.016v0.984h2.016zM21.516 9q0.609 0 1.055 0.445t0.445 1.055v0.984q0 0.609-0.445 1.055t-1.055 0.445h-2.016v2.016h-1.5v-6h3.516zM12.516 10.5v-1.5h4.5v1.5h-1.5v4.5h-1.5v-4.5h-1.5zM6.984 10.5v-1.5h4.5v1.5h-1.5v4.5h-1.5v-4.5h-1.5zM4.5 11.016v-2.016h1.5v6h-1.5v-2.484h-2.016v2.484h-1.5v-6h1.5v2.016h2.016z"></path>
</svg>
