<?xml version="1.0" encoding="utf-8"?>
<!-- Generated by IcoMoon.io -->
<!DOCTYPE svg PUBLIC "-//W3C//DTD SVG 1.1//EN" "http://www.w3.org/Graphics/SVG/1.1/DTD/svg11.dtd">
<svg version="1.1" xmlns="http://www.w3.org/2000/svg" xmlns:xlink="http://www.w3.org/1999/xlink" width="24" height="24" viewBox="0 0 24 24">
<path fill="#444444" d="M17 5v-2c0-0.552-0.448-1-1-1h-9c-0.552 0-1 0.448-1 1v2c-1.654 0-3 1.346-3 3v10c0 1.654 1.346 3 3 3h11c1.654 0 3-1.346 3-3v-10c0-1.654-1.346-3-3-3zM8 4h7v5h-7v-5zM6 7v3c0 0.552 0.448 1 1 1h9c0.552 0 1-0.448 1-1v-3c0.551 0 1 0.449 1 1v2.5c0 0.827-0.673 1.5-1.5 1.5h-10c-0.827 0-1.5-0.673-1.5-1.5v-2.5c0-0.551 0.449-1 1-1zM17 19h-11c-0.551 0-1-0.449-1-1v-5.513c0.419 0.318 0.935 0.513 1.5 0.513h10c0.565 0 1.081-0.195 1.5-0.513v5.513c0 0.551-0.449 1-1 1z"></path>
<path fill="#444444" d="M13.5 7h-4c-0.276 0-0.5 0.224-0.5 0.5s0.224 0.5 0.5 0.5h4c0.276 0 0.5-0.224 0.5-0.5s-0.224-0.5-0.5-0.5z"></path>
<path fill="#444444" d="M15 16h-7c-0.276 0-0.5 0.224-0.5 0.5s0.224 0.5 0.5 0.5h7c0.276 0 0.5-0.224 0.5-0.5s-0.224-0.5-0.5-0.5z"></path>
<path fill="#444444" d="M13.5 5h-4c-0.276 0-0.5 0.224-0.5 0.5s0.224 0.5 0.5 0.5h4c0.276 0 0.5-0.224 0.5-0.5s-0.224-0.5-0.5-0.5z"></path>
</svg>
