<?xml version="1.0" encoding="utf-8"?>
<!-- Generated by IcoMoon.io -->
<!DOCTYPE svg PUBLIC "-//W3C//DTD SVG 1.1//EN" "http://www.w3.org/Graphics/SVG/1.1/DTD/svg11.dtd">
<svg version="1.1" xmlns="http://www.w3.org/2000/svg" xmlns:xlink="http://www.w3.org/1999/xlink" width="24" height="24" viewBox="0 0 24 24">
<path fill="#444444" d="M18 4c-2.206 0-4 1.795-4 4v3h-4v-1h-3c-1.103 0-2 0.896-2 2v7c0 1.104 0.897 2 2 2h10c1.103 0 2-0.896 2-2v-7c0-1.104-0.897-2-2-2h-1v-2c0-1.104 0.897-2 2-2s2 0.896 2 2v3c0 0.553 0.448 1 1 1s1-0.447 1-1v-3c0-2.205-1.794-4-4-4zM12 18.299c-0.719 0-1.3-0.58-1.3-1.299s0.581-1.301 1.3-1.301 1.3 0.582 1.3 1.301-0.581 1.299-1.3 1.299z"></path>
</svg>
