<?xml version="1.0" encoding="utf-8"?>
<!-- Generated by IcoMoon.io -->
<!DOCTYPE svg PUBLIC "-//W3C//DTD SVG 1.1//EN" "http://www.w3.org/Graphics/SVG/1.1/DTD/svg11.dtd">
<svg version="1.1" xmlns="http://www.w3.org/2000/svg" xmlns:xlink="http://www.w3.org/1999/xlink" width="32" height="32" viewBox="0 0 32 32">
<path fill="#444444" d="M30 0h-14c-1.105 0-2 0.895-2 2s0.895 2 2 2h12v24h-12c-1.105 0-2 0.895-2 2s0.895 2 2 2h14c1.105 0 2-0.895 2-2v-28c0-1.105-0.895-2-2-2zM14 24l8-8-8-8v6h-12.213c-0.988 0-1.787 0.896-1.787 2s0.799 2 1.787 2h12.213v6z"></path>
</svg>
