<?xml version="1.0" encoding="utf-8"?>
<!-- Generated by IcoMoon.io -->
<!DOCTYPE svg PUBLIC "-//W3C//DTD SVG 1.1//EN" "http://www.w3.org/Graphics/SVG/1.1/DTD/svg11.dtd">
<svg version="1.1" xmlns="http://www.w3.org/2000/svg" xmlns:xlink="http://www.w3.org/1999/xlink" width="24" height="24" viewBox="0 0 24 24">
<path fill="#444444" d="M8 4.999c-1.657 0-3.011 1.344-3.011 3 0 0.073 0.005 8.795 0.005 9 0 2.209 1.793 4 4.002 4 0.184 0 8.908 0.001 9.003 0.001 1.655 0 3-1.346 3-3.001 0.001-7.179-5.819-13-12.999-13zM9.001 18.999c-1.105 0.002-2.001-0.894-2.001-1.999-0.002-1.105 0.894-2.001 2.001-2.001 1.105-0.002 2.001 0.894 1.999 2.001 0.002 1.105-0.894 2.001-1.999 1.999zM13.5 18.999c-0.829 0-1.5-0.671-1.5-1.5 0-1.931-1.57-3.5-3.5-3.5-0.829 0-1.5-0.671-1.5-1.5s0.671-1.5 1.5-1.5c3.584 0 6.5 2.916 6.5 6.5 0 0.829-0.671 1.5-1.5 1.5zM17.5 18.999c-0.829 0-1.5-0.671-1.5-1.5 0-4.136-3.364-7.5-7.5-7.5-0.829 0-1.5-0.671-1.5-1.5s0.671-1.5 1.5-1.5c5.79 0 10.5 4.71 10.5 10.5 0 0.829-0.671 1.5-1.5 1.5z"></path>
</svg>
