<?xml version="1.0" encoding="utf-8"?>
<!-- Generated by IcoMoon.io -->
<!DOCTYPE svg PUBLIC "-//W3C//DTD SVG 1.1//EN" "http://www.w3.org/Graphics/SVG/1.1/DTD/svg11.dtd">
<svg version="1.1" xmlns="http://www.w3.org/2000/svg" xmlns:xlink="http://www.w3.org/1999/xlink" width="24" height="24" viewBox="0 0 24 24">
<path fill="#444444" d="M12 3c-4.963 0-9 4.038-9 9s4.037 9 9 9 9-4.038 9-9-4.037-9-9-9zM12 19c-3.859 0-7-3.14-7-7s3.141-7 7-7 7 3.14 7 7-3.141 7-7 7z"></path>
<path fill="#444444" d="M12.707 12l2.646-2.646c0.194-0.194 0.194-0.512 0-0.707-0.195-0.194-0.513-0.194-0.707 0l-2.646 2.646-2.646-2.647c-0.195-0.194-0.513-0.194-0.707 0-0.195 0.195-0.195 0.513 0 0.707l2.646 2.647-2.646 2.646c-0.195 0.195-0.195 0.513 0 0.707 0.097 0.098 0.225 0.147 0.353 0.147s0.256-0.049 0.354-0.146l2.646-2.647 2.646 2.646c0.098 0.098 0.226 0.147 0.354 0.147s0.256-0.049 0.354-0.146c0.194-0.194 0.194-0.512 0-0.707l-2.647-2.647z"></path>
</svg>
