<?xml version="1.0" encoding="utf-8"?>
<!-- Generated by IcoMoon.io -->
<!DOCTYPE svg PUBLIC "-//W3C//DTD SVG 1.1//EN" "http://www.w3.org/Graphics/SVG/1.1/DTD/svg11.dtd">
<svg version="1.1" xmlns="http://www.w3.org/2000/svg" xmlns:xlink="http://www.w3.org/1999/xlink" width="24" height="24" viewBox="0 0 24 24">
<path fill="#444444" d="M20.285 7.119c-0.050-0.168-0.184-0.299-0.354-0.344-0.172-0.047-0.352 0.003-0.477 0.126l-2.616 2.557-1.914-0.383-0.381-1.907 2.645-2.585c0.126-0.123 0.178-0.303 0.137-0.474s-0.168-0.308-0.336-0.361c-0.531-0.166-1.018-0.248-1.489-0.248-2.757 0-5 2.243-5 5 0 0.323 0.038 0.65 0.118 1.010-0.562 0.463-1.096 0.862-1.701 1.314-0.865 0.646-1.845 1.377-3.182 2.506-0.785 0.686-1.235 1.659-1.235 2.67 0 1.93 1.57 3.5 3.5 3.5 1.021 0 1.993-0.456 2.662-1.25 1.149-1.347 1.891-2.336 2.544-3.209 0.442-0.591 0.832-1.111 1.283-1.66 0.36 0.081 0.688 0.119 1.011 0.119 2.757 0 5-2.243 5-5 0-0.437-0.068-0.875-0.215-1.381zM8 17c-0.553 0-1-0.447-1-1s0.447-1 1-1 1 0.447 1 1-0.447 1-1 1z"></path>
</svg>
