<?xml version="1.0" encoding="utf-8"?>
<!-- Generated by IcoMoon.io -->
<!DOCTYPE svg PUBLIC "-//W3C//DTD SVG 1.1//EN" "http://www.w3.org/Graphics/SVG/1.1/DTD/svg11.dtd">
<svg version="1.1" xmlns="http://www.w3.org/2000/svg" xmlns:xlink="http://www.w3.org/1999/xlink" width="24" height="32" viewBox="0 0 24 32">
<path fill="#444444" d="M24 2c0-1-1-2-2-2s-19 0-20 0-2 1-2 2 0 24 0 24 0-1 0 0 1 2 2 2 4 0 4 0v4l4-4v-4h-4v2s-2.469 0-3 0-1-0.469-1-1 0-3 0-3h8v-2h-4v-18h16v18h-4v2h4s0 2.5 0 3-0.469 1-1 1-3 0-3 0v2s3 0 4 0 2-1 2-2 0-23 0-24zM15.5 12h4.5l-6-8-6 8h4.5l-4.5 6h4v14h4v-14h4l-4.5-6z"></path>
</svg>
