<?xml version="1.0" encoding="utf-8"?>
<!-- Generated by IcoMoon.io -->
<!DOCTYPE svg PUBLIC "-//W3C//DTD SVG 1.1//EN" "http://www.w3.org/Graphics/SVG/1.1/DTD/svg11.dtd">
<svg version="1.1" xmlns="http://www.w3.org/2000/svg" xmlns:xlink="http://www.w3.org/1999/xlink" width="26" height="32" viewBox="0 0 26 32">
<path fill="#444444" d="M13 14.516c-1.924 0-3.484 1.561-3.484 3.484s1.561 3.484 3.484 3.484 3.484-1.561 3.484-3.484c0-0.266-0.035-0.523-0.094-0.771 2.551-2.967 6.5-7.593 8.609-10.229 0.723-0.902-0.072-1.756-1-1-2.662 2.168-7.26 6.084-10.216 8.612-0.252-0.059-0.515-0.097-0.784-0.097zM13.996 7.996c0-0.552-0.448-1-1-1s-1 0.448-1 1 0.448 1 1 1 1-0.448 1-1zM19.996 15.996c0 0.552 0.449 1 1 1s1-0.448 1-1-0.449-1-1-1-1 0.448-1 1zM8.996 7.996c-0.552 0-1 0.448-1 1s0.448 1 1 1 1-0.448 1-1-0.448-1-1-1zM6.996 11.996c0-0.552-0.448-1-1-1s-1 0.448-1 1 0.448 1 1 1 1-0.448 1-1zM3.996 15.996c0 0.552 0.448 1 1 1s1-0.448 1-1-0.448-1-1-1-1 0.448-1 1zM17.996 8.996c0-0.552-0.449-1-1-1s-1 0.448-1 1 0.449 1 1 1 1-0.448 1-1zM24.777 10.521l-2.148 2.811c0.234 0.85 0.371 1.742 0.371 2.668 0 5.523-4.479 10-10 10s-10-4.477-10-10c0-5.521 4.479-10 10-10 2.059 0 3.969 0.624 5.559 1.69l2.477-1.895c-2.211-1.746-4.996-2.796-8.035-2.796-7.18 0-13 5.82-13 13s5.82 13 13 13 13-5.82 13-13c0-1.96-0.445-3.813-1.223-5.479z"></path>
</svg>
