<?xml version="1.0" encoding="utf-8"?>
<!-- Generated by IcoMoon.io -->
<!DOCTYPE svg PUBLIC "-//W3C//DTD SVG 1.1//EN" "http://www.w3.org/Graphics/SVG/1.1/DTD/svg11.dtd">
<svg version="1.1" xmlns="http://www.w3.org/2000/svg" xmlns:xlink="http://www.w3.org/1999/xlink" width="24" height="24" viewBox="0 0 24 24">
<path fill="#444444" d="M12 21c-2.489 0-4.635-0.89-6.376-2.646-1.741-1.751-2.624-3.89-2.624-6.354 0-2.489 0.884-4.633 2.627-6.375 1.74-1.741 3.885-2.625 6.373-2.625 2.466 0 4.604 0.883 6.354 2.624 1.755 1.742 2.646 3.887 2.646 6.376 0 2.464-0.89 4.604-2.644 6.357-1.751 1.754-3.889 2.643-6.356 2.643zM12 5c-1.966 0-3.588 0.667-4.958 2.040-1.374 1.372-2.042 2.994-2.042 4.96 0 1.944 0.668 3.562 2.043 4.945 1.372 1.383 2.993 2.055 4.957 2.055 1.943 0 3.56-0.673 4.941-2.056 1.386-1.385 2.059-3.002 2.059-4.944 0-1.963-0.672-3.585-2.055-4.957-1.383-1.375-3-2.043-4.945-2.043z"></path>
<path fill="#444444" d="M14.199 14.333c1.335 0 2-0.444 2-1.333 0-0.733-0.422-1.199-1.267-1.4l-0.632-0.133c-0.354-0.089-0.534-0.277-0.534-0.566 0-0.334 0.224-0.5 0.666-0.5 0.49 0 0.746 0.188 0.767 0.565l0.967-0.1c-0.063-0.822-0.622-1.233-1.666-1.233-1.134 0-1.699 0.467-1.699 1.401 0 0.665 0.365 1.088 1.099 1.267l0.668 0.133c0.443 0.11 0.666 0.312 0.666 0.601 0 0.354-0.345 0.532-1.034 0.532-0.844 0-1.398-0.411-1.666-1.233l-0.334-0.967c-0.199-0.644-0.449-1.095-0.75-1.35-0.3-0.255-0.771-0.384-1.416-0.384-0.601 0-1.128 0.223-1.584 0.667-0.456 0.445-0.683 1.033-0.683 1.767 0 0.688 0.216 1.239 0.649 1.649 0.435 0.413 0.95 0.617 1.55 0.617 0.602 0 1.078-0.144 1.434-0.433l-0.299-0.834c-0.311 0.312-0.679 0.468-1.101 0.468-0.354 0-0.662-0.14-0.916-0.417-0.257-0.277-0.385-0.64-0.385-1.084 0-0.556 0.139-0.961 0.417-1.217s0.594-0.383 0.951-0.383c0.379 0 0.648 0.1 0.816 0.299 0.167 0.201 0.315 0.512 0.45 0.935l0.3 0.967c0.356 1.133 1.212 1.699 2.566 1.699z"></path>
</svg>
