<?xml version="1.0" encoding="utf-8"?>
<!-- Generated by IcoMoon.io -->
<!DOCTYPE svg PUBLIC "-//W3C//DTD SVG 1.1//EN" "http://www.w3.org/Graphics/SVG/1.1/DTD/svg11.dtd">
<svg version="1.1" xmlns="http://www.w3.org/2000/svg" xmlns:xlink="http://www.w3.org/1999/xlink" width="24" height="24" viewBox="0 0 24 24">
<path fill="#444444" d="M16.5 6q-0.844 0-1.43-0.586t-0.586-1.43 0.586-1.406 1.43-0.563 1.43 0.563 0.586 1.406-0.586 1.43-1.43 0.586zM7.5 6q-0.844 0-1.43-0.586t-0.586-1.43 0.586-1.406 1.43-0.563 1.43 0.563 0.586 1.406-0.586 1.43-1.43 0.586zM18 21.984h-3v-6h-3l2.531-7.594q0.516-1.406 1.922-1.406h0.094q1.406 0 1.922 1.406l2.531 7.594h-3v6zM5.484 21.984v-7.5h-1.5v-5.484q0-0.797 0.609-1.406t1.406-0.609h3q0.797 0 1.406 0.609t0.609 1.406v5.484h-1.5v7.5h-4.031z"></path>
</svg>
