<?xml version="1.0" encoding="utf-8"?>
<!-- Generated by IcoMoon.io -->
<!DOCTYPE svg PUBLIC "-//W3C//DTD SVG 1.1//EN" "http://www.w3.org/Graphics/SVG/1.1/DTD/svg11.dtd">
<svg version="1.1" xmlns="http://www.w3.org/2000/svg" xmlns:xlink="http://www.w3.org/1999/xlink" width="18" height="18" viewBox="0 0 18 18">
<path fill="#444444" d="M14 2c0-0.552-0.448-1-1-1h-8c-0.552 0-1 0.448-1 1l-4 7v7c0 0.552 0.448 1 1 1h16c0.552 0 1-0.448 1-1v-7l-4-7zM5.732 3h6.535l2.857 5h-3.625c-0.276 0-0.5 0.224-0.5 0.5v0.411c0 1.044-0.761 1.978-1.8 2.079-1.192 0.116-2.2-0.822-2.2-1.99v-0.5c0-0.276-0.224-0.5-0.5-0.5h-3.625l2.857-5zM16 14.5c0 0.276-0.224 0.5-0.5 0.5h-13c-0.276 0-0.5-0.224-0.5-0.5v-4.5h3.131c0.445 1.724 2.006 3 3.869 3s3.424-1.276 3.869-3h3.131v4.5z"></path>
</svg>
