<?xml version="1.0" encoding="utf-8"?>
<!-- Generated by IcoMoon.io -->
<!DOCTYPE svg PUBLIC "-//W3C//DTD SVG 1.1//EN" "http://www.w3.org/Graphics/SVG/1.1/DTD/svg11.dtd">
<svg version="1.1" xmlns="http://www.w3.org/2000/svg" xmlns:xlink="http://www.w3.org/1999/xlink" width="32" height="32" viewBox="0 0 32 32">
<path fill="#444444" d="M16 4c-6.628 0-12 5.373-12 12s5.372 12 12 12c6.627 0 12-5.373 12-12s-5.373-12-12-12zM16 22.562c-3.59 0-6.5-2.91-6.5-6.5s2.91-6.5 6.5-6.5 6.5 2.91 6.5 6.5-2.91 6.5-6.5 6.5zM16.833 15.764c0.284-0.106 0.497-0.258 0.637-0.454s0.21-0.427 0.21-0.692c0-0.416-0.152-0.769-0.457-1.058-0.304-0.29-0.705-0.435-1.205-0.435-0.497 0-0.895 0.142-1.193 0.425-0.3 0.283-0.449 0.633-0.449 1.048 0 0.275 0.070 0.511 0.213 0.709 0.141 0.197 0.359 0.35 0.652 0.456-0.352 0.092-0.623 0.263-0.813 0.514-0.19 0.252-0.286 0.564-0.286 0.937 0 0.5 0.173 0.918 0.52 1.253 0.346 0.334 0.802 0.502 1.367 0.502 0.564 0 1.021-0.167 1.367-0.5 0.346-0.334 0.52-0.746 0.52-1.235 0-0.354-0.092-0.659-0.276-0.915s-0.454-0.44-0.807-0.555zM15.102 14.574c0-0.238 0.087-0.443 0.262-0.614 0.174-0.171 0.396-0.257 0.664-0.257 0.266 0 0.486 0.087 0.662 0.263s0.264 0.391 0.264 0.647c0 0.246-0.086 0.454-0.256 0.624s-0.391 0.255-0.662 0.255c-0.279 0-0.504-0.086-0.676-0.257s-0.258-0.391-0.258-0.661zM16.863 18.066c-0.217 0.217-0.493 0.324-0.83 0.324-0.215 0-0.417-0.051-0.604-0.154-0.188-0.103-0.329-0.248-0.422-0.436s-0.14-0.382-0.14-0.582c0-0.328 0.107-0.602 0.322-0.82s0.488-0.328 0.82-0.328c0.34 0 0.621 0.111 0.844 0.332s0.334 0.502 0.334 0.84c0.001 0.334-0.108 0.609-0.324 0.824z"></path>
</svg>
