<?xml version="1.0" encoding="utf-8"?>
<!-- Generated by IcoMoon.io -->
<!DOCTYPE svg PUBLIC "-//W3C//DTD SVG 1.1//EN" "http://www.w3.org/Graphics/SVG/1.1/DTD/svg11.dtd">
<svg version="1.1" xmlns="http://www.w3.org/2000/svg" xmlns:xlink="http://www.w3.org/1999/xlink" width="24" height="24" viewBox="0 0 24 24">
<path fill="#444444" d="M18.277 6.321c-0.43-0.43-1.126-0.43-1.556 0l-1.721 1.722-0.308-0.308c-1.168-1.168-3.216-1.168-4.384 0l-4.172 4.172c-0.584 0.584-0.906 1.363-0.906 2.192s0.322 1.608 0.906 2.192l0.308 0.308-1.722 1.722c-0.43 0.43-0.43 1.126 0 1.556 0.215 0.215 0.496 0.322 0.778 0.322s0.563-0.107 0.778-0.322l1.722-1.722 0.308 0.308c0.584 0.584 1.362 0.906 2.192 0.906s1.608-0.322 2.192-0.906l4.172-4.172c0.584-0.584 0.906-1.362 0.906-2.192s-0.322-1.608-0.906-2.192l-0.308-0.308 1.722-1.722c0.429-0.43 0.429-1.126-0.001-1.556zM15.308 12.735l-4.172 4.172c-0.168 0.168-0.402 0.253-0.636 0.253s-0.468-0.084-0.636-0.253l-0.308-0.308 0.722-0.722c0.43-0.43 0.43-1.126 0-1.556-0.215-0.215-0.496-0.322-0.778-0.322s-0.563 0.107-0.778 0.322l-0.722 0.722-0.308-0.308c-0.168-0.168-0.261-0.395-0.261-0.636s0.093-0.468 0.261-0.636l4.172-4.172c0.168-0.168 0.394-0.261 0.636-0.261s0.468 0.093 0.636 0.261l0.308 0.308-0.722 0.722c-0.43 0.43-0.43 1.126 0 1.556 0.215 0.215 0.496 0.322 0.778 0.322s0.563-0.107 0.778-0.322l0.722-0.722 0.308 0.308c0.168 0.168 0.261 0.395 0.261 0.636s-0.093 0.468-0.261 0.636z"></path>
</svg>
