<?xml version="1.0" encoding="utf-8"?>
<!-- Generated by IcoMoon.io -->
<!DOCTYPE svg PUBLIC "-//W3C//DTD SVG 1.1//EN" "http://www.w3.org/Graphics/SVG/1.1/DTD/svg11.dtd">
<svg version="1.1" xmlns="http://www.w3.org/2000/svg" xmlns:xlink="http://www.w3.org/1999/xlink" width="24" height="24" viewBox="0 0 24 24">
<path fill="#444444" d="M13 4.050v-1.050h0.5c0.276 0 0.5-0.224 0.5-0.5v-2c0-0.276-0.224-0.5-0.5-0.5h-3c-0.276 0-0.5 0.224-0.5 0.5v2c0 0.276 0.224 0.5 0.5 0.5h0.5v1.054c-0.901 0.092-1.767 0.304-2.583 0.619l-1.047-1.011-1.827-1.826-3.518 3.518 2.271 2.271c-1.434 1.73-2.296 3.951-2.296 6.375 0 5.523 4.477 10 10 10s10-4.477 10-10c0-5.186-3.946-9.448-9-9.95zM11 1h2v1h-2v-1zM3.439 5.354l2.104-2.104 1.167 1.166-2.104 2.104-1.167-1.166zM12 22c-4.411 0-8-3.589-8-8s3.589-8 8-8 8 3.589 8 8-3.589 8-8 8zM11.207 9.459c-0.391-0.391-1.023-0.391-1.414 0s-0.391 1.023 0 1.414l1.964 1.965-2.628 3.672c-0.271 0.481-0.101 1.091 0.381 1.361 0.155 0.088 0.323 0.129 0.489 0.129 0.35 0 0.689-0.184 0.872-0.51l3-4.334c0.221-0.391 0.153-0.88-0.164-1.197l-2.5-2.5z"></path>
</svg>
