<?xml version="1.0" encoding="utf-8"?>
<!-- Generated by IcoMoon.io -->
<!DOCTYPE svg PUBLIC "-//W3C//DTD SVG 1.1//EN" "http://www.w3.org/Graphics/SVG/1.1/DTD/svg11.dtd">
<svg version="1.1" xmlns="http://www.w3.org/2000/svg" xmlns:xlink="http://www.w3.org/1999/xlink" width="24" height="24" viewBox="0 0 24 24">
<path fill="#444444" d="M12 6c1.654 0 3 1.346 3 3s-1.346 3-3 3-3-1.346-3-3 1.346-3 3-3zM12 4c-2.764 0-5 2.238-5 5s2.236 5 5 5 5-2.238 5-5-2.236-5-5-5z"></path>
<path fill="#444444" d="M12 17c2.021 0 3.301 0.771 3.783 1.445-0.683 0.26-1.969 0.555-3.783 0.555-1.984 0-3.206-0.305-3.818-0.542 0.459-0.715 1.777-1.458 3.818-1.458zM12 15c-3.75 0-6 2-6 4 0 1 2.25 2 6 2 3.518 0 6-1 6-2s-2.354-4-6-4z"></path>
</svg>
