<?xml version="1.0" encoding="utf-8"?>
<!-- Generated by IcoMoon.io -->
<!DOCTYPE svg PUBLIC "-//W3C//DTD SVG 1.1//EN" "http://www.w3.org/Graphics/SVG/1.1/DTD/svg11.dtd">
<svg version="1.1" xmlns="http://www.w3.org/2000/svg" xmlns:xlink="http://www.w3.org/1999/xlink" width="24" height="24" viewBox="0 0 24 24">
<path fill="#444444" d="M19.126 21c2.864 0 4.756-3.161 4.756-6.375 0-2.762-2.28-5.211-5.034-5.578l-0.457-1.219c-1.109-2.932-3.812-4.828-6.887-4.828-4.102 0-7.438 3.364-7.438 7.5 0 0.181 0.009 0.358 0.025 0.53-2.233 0.259-3.973 2.164-3.973 4.47 0 2.141 1.663 5.193 4.008 5.5h15zM13.965 12.776v0c0.888-1.278 2.675-1.408 3.473-1.796l0.007 0.020h0.692c1.96 0 3.744 1.5 3.744 3.398 0 1.842-1.221 4.602-3.193 4.602h-14.447c-1.099 0-2.123-2.373-2.123-3.727 0.001-1.543 1.366-2.663 2.978-2.336l1.551 0.37-0.381-1.507c-0.1-0.398-0.2-0.854-0.2-1.314 0-3.033 2.439-5.493 5.438-5.493 2.27 0 4.191 1.357 5.016 3.536-2.023 1.196-2.644 4.035-2.644 4.035z"></path>
</svg>
