<?xml version="1.0" encoding="utf-8"?>
<!-- Generated by IcoMoon.io -->
<!DOCTYPE svg PUBLIC "-//W3C//DTD SVG 1.1//EN" "http://www.w3.org/Graphics/SVG/1.1/DTD/svg11.dtd">
<svg version="1.1" xmlns="http://www.w3.org/2000/svg" xmlns:xlink="http://www.w3.org/1999/xlink" width="32" height="32" viewBox="0 0 32 32">
<path fill="#444444" d="M11 15h1v-1h-1v1zM11 18h1v-1h-1v1zM11 12h1v-1h-1v1zM11 21h1v-1h-1v1zM11 24h1v-1h-1v1zM13 18h8v-1h-8v1zM13 12h8v-1h-8v1zM20.938 4h-13.938v24h18v-20l-4.062-4zM23 25.938h-14v-19.938h10v2.938h4v17zM13 21h8v-1h-8v1zM13 15h8v-1h-8v1zM13 24h8v-1h-8v1z"></path>
</svg>
