<?xml version="1.0" encoding="utf-8"?>
<!-- Generated by IcoMoon.io -->
<!DOCTYPE svg PUBLIC "-//W3C//DTD SVG 1.1//EN" "http://www.w3.org/Graphics/SVG/1.1/DTD/svg11.dtd">
<svg version="1.1" xmlns="http://www.w3.org/2000/svg" xmlns:xlink="http://www.w3.org/1999/xlink" width="24" height="24" viewBox="0 0 24 24">
<path fill="#444444" d="M20 8v-3h-20v12h3v3h20v-12h-3zM3 15h-1v-8h16v1h-15v7zM21 18h-16v-8h16v8zM6 11v6h14v-6h-14zM7 16v-4h3.281c-0.173 0.295-0.279 0.635-0.279 1v2c0 0.365 0.106 0.704 0.28 1h-3.282zM15 14.5c0 0.828-0.672 1.5-1.5 1.5h-1c-0.828 0-1.5-0.672-1.5-1.5v-1c0-0.828 0.672-1.5 1.5-1.5h1c0.828 0 1.5 0.672 1.5 1.5v1zM19 16h-3.277c0.173-0.296 0.279-0.635 0.279-1v-2c0-0.365-0.106-0.705-0.279-1h3.277v4z"></path>
</svg>
