<?xml version="1.0" encoding="utf-8"?>
<!-- Generated by IcoMoon.io -->
<!DOCTYPE svg PUBLIC "-//W3C//DTD SVG 1.1//EN" "http://www.w3.org/Graphics/SVG/1.1/DTD/svg11.dtd">
<svg version="1.1" xmlns="http://www.w3.org/2000/svg" xmlns:xlink="http://www.w3.org/1999/xlink" width="48" height="48" viewBox="0 0 48 48">
<path fill="#444444" d="M32.901 15l-17.5 17.609c-0.581 0.58-1.521 0.58-2.101 0-0.58-0.579-0.58-1.529 0-2.109l20.512-20.641c0.85-0.859 2.229-0.859 3.079 0l4.62 4.65c0.85 0.85 0.85 2.24 0 3.1l-20.51 20.641c-3.67 3.689-9.62 3.689-13.3 0-3.671-3.7-3.671-9.689 0-13.391l17.5-17.609c0.97-0.97 0.97-2.55 0-3.521-0.96-0.97-2.53-0.97-3.5 0l-17.5 17.61c-5.601 5.641-5.601 14.79 0 20.43 5.61 5.641 14.7 5.641 20.3 0l22.050-22.189c1.931-1.95 1.931-5.101 0-7.050l-7.7-7.74c-1.93-1.95-5.070-1.95-7 0l-22.050 22.19c-2.51 2.52-2.51 6.619 0 9.149 2.52 2.53 6.59 2.53 9.101 0l17.5-17.61c0.97-0.97 0.97-2.55 0-3.52-0.971-0.969-2.531-0.969-3.501 0.001z"></path>
</svg>
