<?xml version="1.0" encoding="utf-8"?>
<!-- Generated by IcoMoon.io -->
<!DOCTYPE svg PUBLIC "-//W3C//DTD SVG 1.1//EN" "http://www.w3.org/Graphics/SVG/1.1/DTD/svg11.dtd">
<svg version="1.1" xmlns="http://www.w3.org/2000/svg" xmlns:xlink="http://www.w3.org/1999/xlink" width="48" height="48" viewBox="0 0 48 48">
<path fill="#444444" d="M2.080 2.081c-3.25 3.25-2.090 10.12 2.34 17.82-0.28 1.32-0.42 2.689-0.42 4.099 0 11.050 8.95 20 20 20 1.41 0 2.779-0.141 4.1-0.42 7.7 4.43 14.57 5.59 17.82 2.34s2.090-10.119-2.34-17.82c0.279-1.319 0.42-2.69 0.42-4.1 0-11.050-8.95-20-20-20-1.41 0-2.78 0.141-4.1 0.42-7.7-4.429-14.57-5.589-17.82-2.339zM41.96 42.59c-12.090 3.871-42.521-30.739-36.32-36.949 1.44-1.431 4.48-0.811 8.25 1.1-1.67 0.98-3.17 2.19-4.479 3.59 4.219 10.58 17.829 24.089 28.439 28.099 1.37-1.309 2.551-2.82 3.5-4.479 1.58 3.43 1.98 6.479 0.61 8.639z"></path>
</svg>
