<?xml version="1.0" encoding="utf-8"?>
<!-- Generated by IcoMoon.io -->
<!DOCTYPE svg PUBLIC "-//W3C//DTD SVG 1.1//EN" "http://www.w3.org/Graphics/SVG/1.1/DTD/svg11.dtd">
<svg version="1.1" xmlns="http://www.w3.org/2000/svg" xmlns:xlink="http://www.w3.org/1999/xlink" width="24" height="24" viewBox="0 0 24 24">
<path fill="#444444" d="M12 18.984q3.375 0 5.438-2.625l2.625 1.547q-3 4.078-8.063 4.078-4.125 0-7.055-2.93t-2.93-7.055q0-3.891 2.602-6.727t6.398-3.211v3q-2.531 0.375-4.266 2.344t-1.734 4.594q0 2.906 2.039 4.945t4.945 2.039zM12.984 2.063q3.797 0.375 6.398 3.211t2.602 6.727q0 2.25-0.844 4.078l-2.625-1.547q0.469-1.313 0.469-2.531 0-2.625-1.734-4.594t-4.266-2.344v-3z"></path>
</svg>
