<?xml version="1.0" encoding="utf-8"?>
<!-- Generated by IcoMoon.io -->
<!DOCTYPE svg PUBLIC "-//W3C//DTD SVG 1.1//EN" "http://www.w3.org/Graphics/SVG/1.1/DTD/svg11.dtd">
<svg version="1.1" xmlns="http://www.w3.org/2000/svg" xmlns:xlink="http://www.w3.org/1999/xlink" width="24" height="24" viewBox="0 0 24 24">
<path fill="#444444" d="M18 7h-1v-1c0-1.104-0.896-2-2-2h-7c-1.104 0-2 0.896-2 2v1h-1c-0.552 0-1 0.448-1 1s0.448 1 1 1v8c0 2.206 1.794 4 4 4h5c2.206 0 4-1.794 4-4v-8c0.552 0 1-0.448 1-1s-0.448-1-1-1zM8 6h7v1h-7v-1zM16 17c0 1.104-0.896 2-2 2h-5c-1.104 0-2-0.896-2-2v-8h9v8z"></path>
<path fill="#444444" d="M8.5 10.5c-0.275 0-0.5 0.225-0.5 0.5v6c0 0.275 0.225 0.5 0.5 0.5s0.5-0.225 0.5-0.5v-6c0-0.275-0.225-0.5-0.5-0.5z"></path>
<path fill="#444444" d="M10.5 10.5c-0.275 0-0.5 0.225-0.5 0.5v6c0 0.275 0.225 0.5 0.5 0.5s0.5-0.225 0.5-0.5v-6c0-0.275-0.225-0.5-0.5-0.5z"></path>
<path fill="#444444" d="M12.5 10.5c-0.275 0-0.5 0.225-0.5 0.5v6c0 0.275 0.225 0.5 0.5 0.5s0.5-0.225 0.5-0.5v-6c0-0.275-0.225-0.5-0.5-0.5z"></path>
<path fill="#444444" d="M14.5 10.5c-0.275 0-0.5 0.225-0.5 0.5v6c0 0.275 0.225 0.5 0.5 0.5s0.5-0.225 0.5-0.5v-6c0-0.275-0.225-0.5-0.5-0.5z"></path>
</svg>
