<?xml version="1.0" encoding="utf-8"?>
<!-- Generated by IcoMoon.io -->
<!DOCTYPE svg PUBLIC "-//W3C//DTD SVG 1.1//EN" "http://www.w3.org/Graphics/SVG/1.1/DTD/svg11.dtd">
<svg version="1.1" xmlns="http://www.w3.org/2000/svg" xmlns:xlink="http://www.w3.org/1999/xlink" width="48" height="48" viewBox="0 0 48 48">
<path fill="#444444" d="M17 2.984c-3.91-3.91-10.17-3.98-14.070-0.069-3.91 3.899-3.91 10.239 0 14.14 1.95 1.949 4.48 2.93 7.030 2.93h-7.76c-1.22 0-2.2 0.98-2.2 2.2v4.599c0 1.221 0.98 2.201 2.2 2.201h1.8v15c0 2.209 1.79 4 4 4h32c2.21 0 4-1.791 4-4v-15h1.8c1.22 0 2.2-0.98 2.2-2.201v-4.599c0-1.22-0.98-2.2-2.2-2.2h-7.771c2.561 0 5.091-0.98 7.040-2.93 3.911-3.9 3.911-10.24 0-14.14-3.899-3.912-10.159-3.841-14.069 0.069l-7 7-7-7zM29.18 11.724l5.28-5.28c1.96-1.95 5.12-1.95 7.080 0 1.95 1.96 1.95 5.12 0 7.080-0.979 0.97-2.261 1.46-3.54 1.46h-7.27c-1.101 0-2-0.9-2-2 0-0.481 0.17-0.91 0.45-1.26zM13.54 6.444l5.13 5.13c0.359 0.37 0.58 0.86 0.58 1.41 0 1.1-0.9 2-2 2h-7.25c-1.28 0-2.561-0.49-3.54-1.46-1.95-1.96-1.95-5.12 0-7.080 1.96-1.95 5.12-1.95 7.080 0zM19 19.984h10v20.799c0 1.221-0.98 2.201-2.2 2.201h-5.6c-1.22 0-2.2-0.98-2.2-2.201v-20.799z"></path>
</svg>
