<?xml version="1.0" encoding="UTF-8"?>
<!DOCTYPE svg PUBLIC "-//W3C//DTD SVG 1.1//EN" "http://www.w3.org/Graphics/SVG/1.1/DTD/svg11.dtd">
<!-- Creator: CorelDRAW X8 -->
<svg xmlns="http://www.w3.org/2000/svg" xml:space="preserve" width="1.32991in" height="2.1397in" version="1.1" style="shape-rendering:geometricPrecision; text-rendering:geometricPrecision; image-rendering:optimizeQuality; fill-rule:evenodd; clip-rule:evenodd"
viewBox="0 0 254 409"
 xmlns:xlink="http://www.w3.org/1999/xlink">
 <defs>
  <style type="text/css">
   <![CDATA[
    .fil0 {fill:black}
   ]]>
  </style>
 </defs>
 <g id="Layer_x0020_1">
  <metadata id="CorelCorpID_0Corel-Layer"/>
  <g id="_133413554016">
   <path class="fil0" d="M125 259c7,0 12,0 18,5 3,2 6,8 7,12 3,15 -6,25 -11,26l-23 0c-5,-1 -14,-11 -12,-25 2,-10 11,-18 21,-18zm-125 -94c0,27 -1,114 2,136 6,34 23,63 50,83 10,7 22,13 33,17 13,5 21,6 35,7 10,1 2,1 14,0 9,-1 8,0 22,-3 17,-4 31,-11 45,-21 39,-27 53,-67 53,-113l0 -106c0,-5 -2,-9 -7,-9l-240 0c-5,0 -7,4 -7,9z"/>
   <path class="fil0" d="M16 106l0 31c0,2 1,3 3,3 8,0 19,1 27,-1 1,-6 1,-15 1,-22 0,-23 3,-37 16,-55 41,-54 129,-34 143,32 3,17 0,35 2,45 8,2 19,1 27,1 2,0 3,-1 3,-3 0,-28 2,-47 -10,-74 -6,-12 -14,-22 -23,-31 -4,-4 -9,-8 -14,-12 -29,-22 -76,-27 -109,-10 -3,1 -6,2 -9,4 -20,12 -35,27 -46,49 -5,10 -11,28 -11,43z"/>
  </g>
 </g>
</svg>
