<?xml version="1.0" encoding="utf-8"?>
<!-- Generated by IcoMoon.io -->
<!DOCTYPE svg PUBLIC "-//W3C//DTD SVG 1.1//EN" "http://www.w3.org/Graphics/SVG/1.1/DTD/svg11.dtd">
<svg version="1.1" xmlns="http://www.w3.org/2000/svg" xmlns:xlink="http://www.w3.org/1999/xlink" width="32" height="32" viewBox="0 0 32 32">
<path fill="#444444" d="M29.692 6h-27.385c-1.272 0-2.308 1.035-2.308 2.308v15.385c0 1.273 1.035 2.308 2.308 2.308h27.385c1.273 0 2.308-1.035 2.308-2.308v-15.385c0-1.272-1.035-2.308-2.308-2.308zM18 21.996l-4 0.004v-6l-3 3.846-3-3.846v6h-4v-12h4l3 4 3-4 4-0.004v12zM23.972 22.996l-4.972-6.996h3v-6h4v6h3l-5.028 6.996z"></path>
</svg>
