<?xml version="1.0" encoding="utf-8"?>
<!-- Generated by IcoMoon.io -->
<!DOCTYPE svg PUBLIC "-//W3C//DTD SVG 1.1//EN" "http://www.w3.org/Graphics/SVG/1.1/DTD/svg11.dtd">
<svg version="1.1" xmlns="http://www.w3.org/2000/svg" xmlns:xlink="http://www.w3.org/1999/xlink" width="23" height="32" viewBox="0 0 23 32">
<path fill="#444444" d="M22 31.5c0-0.276-0.224-0.5-0.5-0.5h-18c-0.276 0-0.5 0.224-0.5 0.5s0.224 0.5 0.5 0.5h18c0.276 0 0.5-0.224 0.5-0.5zM1.274 9.354c-0.418 0.278-1.052 1.124-0.451 2.326 0.499 0.997 1.54 2.217 2.647 2.539 0.564 0.166 1.12 0.097 1.605-0.196 1.099-0.658 2.397-1.548 2.947-1.93 0.694 0.351 1.57 0.424 2.46 0.195 0.004-0.001 0.008-0.003 0.012-0.004-0.052 1.651-0.611 2.682-3.344 5.22-2.436 2.261-3.881 5.231-3.867 7.946 0.010 1.781 0.659 3.31 1.88 4.419 0.093 0.085 0.213 0.131 0.337 0.131h14c0.276 0 0.5-0.224 0.5-0.5s-0.224-0.5-0.5-0.5h-13.801c-0.919-0.905-1.407-2.13-1.415-3.555-0.013-2.402 1.347-5.165 3.547-7.208 2.915-2.706 3.669-3.988 3.669-6.237 0-0.041-0.014-0.077-0.023-0.115 0.547-0.295 1.020-0.685 1.343-1.157 0.405-0.59 1.277-2.105 0.63-3.446-0.12-0.247-0.419-0.352-0.668-0.232s-0.353 0.419-0.232 0.668c0.291 0.603 0.084 1.517-0.554 2.445-0.368 0.536-1.026 0.969-1.761 1.157-0.747 0.191-1.457 0.107-1.952-0.232-0.173-0.118-0.4-0.117-0.571 0.004-0.018 0.012-1.777 1.251-3.149 2.074-0.251 0.15-0.516 0.182-0.812 0.094-0.774-0.226-1.625-1.212-2.032-2.026-0.329-0.658 0.008-0.972 0.161-1.084 3.447-2.977 5.177-6.070 5.248-6.201 0.066-0.122 0.080-0.266 0.036-0.399-0.005-0.015-0.35-1.063-0.54-2.033 1.046 0.63 2.845 1.51 4.718 1.51 2.604 0 8.658 0.972 8.658 9.976 0 0.049-0.009 4.944-1.97 10.327-0.095 0.259 0.039 0.546 0.299 0.641 0.057 0.019 0.114 0.029 0.171 0.029 0.204 0 0.396-0.126 0.47-0.329 2.021-5.548 2.031-10.466 2.030-10.671 0-10.183-7.393-10.974-9.658-10.974-2.509 0-5.012-1.903-5.036-1.923-0.153-0.115-0.355-0.134-0.527-0.051s-0.279 0.258-0.279 0.448c0 0.981 0.465 2.568 0.646 3.147-0.418 0.698-2.066 3.281-4.872 5.707zM17.485 1.54c-1.601-1.079-3.391-1.54-5.985-1.54-0.276 0-0.5 0.224-0.5 0.5s0.224 0.5 0.5 0.5c2.38 0 4.003 0.409 5.427 1.369 2.314 1.562 5.073 4.674 5.073 10.631 0 1.451 0 3.438-0.985 7.379-0.066 0.268 0.096 0.539 0.364 0.606 0.041 0.010 0.081 0.015 0.121 0.015 0.225 0 0.429-0.151 0.485-0.379 1.015-4.059 1.015-6.118 1.015-7.621 0-6.396-2.999-9.763-5.515-11.46z"></path>
</svg>
