<?xml version="1.0" encoding="utf-8"?>
<!-- Generated by IcoMoon.io -->
<!DOCTYPE svg PUBLIC "-//W3C//DTD SVG 1.1//EN" "http://www.w3.org/Graphics/SVG/1.1/DTD/svg11.dtd">
<svg version="1.1" xmlns="http://www.w3.org/2000/svg" xmlns:xlink="http://www.w3.org/1999/xlink" width="24" height="24" viewBox="0 0 24 24">
<path fill="#444444" d="M18 3h-11c-0.265 0-0.52 0.105-0.707 0.293l-3 3c-0.020 0.020-0.039 0.040-0.057 0.062-0.139 0.165-0.225 0.373-0.235 0.6-0.001 0.018-0.001 0.035-0.001 0.053v10.992c0 1.654 1.346 3 3 3h9c1.304 0 2.416-0.836 2.829-2h0.671c1.402 0 2.5-1.317 2.5-3v-10c0-1.654-1.346-3-3-3zM6 19c-0.551 0-1-0.448-1-1v-10h2v11h-1zM16 18c0 0.552-0.449 1-1 1h-7v-11h7c0.551 0 1 0.448 1 1v9zM19 16c0 0.62-0.324 1-0.5 1h-0.5v-8c0-1.654-1.346-3-3-3h-8.586l1-1h10.586c0.551 0 1 0.448 1 1v10z"></path>
</svg>
