<?xml version="1.0" encoding="utf-8"?>
<!-- Generated by IcoMoon.io -->
<!DOCTYPE svg PUBLIC "-//W3C//DTD SVG 1.1//EN" "http://www.w3.org/Graphics/SVG/1.1/DTD/svg11.dtd">
<svg version="1.1" xmlns="http://www.w3.org/2000/svg" xmlns:xlink="http://www.w3.org/1999/xlink" width="32" height="32" viewBox="0 0 32 32">
<path fill="#444444" d="M30.826 1.172c-1.562-1.562-4.094-1.562-5.656 0l-11.4 11.398c2.641 0.941 4.719 3.020 5.656 5.66l11.4-11.402c1.563-1.562 1.563-4.094 0-5.656zM15.996 21.332c0-2.945-2.391-5.332-5.336-5.332s-5.332 2.387-5.332 5.332l0.004 0.004c-0.004 3.945-2.148 7.387-5.332 9.23l0.016 0.020c1.566 0.898 3.379 1.414 5.316 1.414 5.891 0 10.668-4.777 10.668-10.668h-0.004z"></path>
</svg>
