<?xml version="1.0" encoding="utf-8"?>
<!-- Generated by IcoMoon.io -->
<!DOCTYPE svg PUBLIC "-//W3C//DTD SVG 1.1//EN" "http://www.w3.org/Graphics/SVG/1.1/DTD/svg11.dtd">
<svg version="1.1" xmlns="http://www.w3.org/2000/svg" xmlns:xlink="http://www.w3.org/1999/xlink" width="24" height="24" viewBox="0 0 24 24">
<path fill="#444444" d="M15.891 17.016h3.234l-1.641-4.359zM18.516 9.984l4.5 12h-2.016l-1.125-3h-4.734l-1.125 3h-2.016l4.5-12h2.016zM12.891 15.047l-0.797 2.063-3.094-3.094-5.016 4.969-1.406-1.406 5.109-5.016q-1.875-2.063-3-4.547h2.016q0.984 1.875 2.297 3.328 2.156-2.391 3.188-5.344h-11.203v-2.016h7.031v-1.969h1.969v1.969h7.031v2.016h-2.953q-1.219 3.75-3.703 6.516l-0.047 0.047z"></path>
</svg>
