<?xml version="1.0" encoding="utf-8"?>
<!-- Generated by IcoMoon.io -->
<!DOCTYPE svg PUBLIC "-//W3C//DTD SVG 1.1//EN" "http://www.w3.org/Graphics/SVG/1.1/DTD/svg11.dtd">
<svg version="1.1" xmlns="http://www.w3.org/2000/svg" xmlns:xlink="http://www.w3.org/1999/xlink" width="32" height="32" viewBox="0 0 32 32">
<path fill="#444444" d="M7.647 13.069c0.115-0.544-0.613-1.015-1.396-1.034-0.938-0.023-1.661-0.031-2.312-0.034-0.535-0.002-0.936 0.447-0.939 0.999v15c0.003 0.552 0.403 1.001 0.942 0.999 0.655-0.003 1.393-0.011 2.377-0.034 0.822-0.020 1.594-0.49 1.462-1.034-1.022-4.935-1.030-9.927-0.134-14.862zM27 16h-9v-2h9c1.104 0 2-0.896 2-2s-0.896-2-2-2h-8.75l0.125-1.502 0.625-4.998c0-1.933-1.566-3.5-3.5-3.5-1.933 0-3.5-0.433-3.5 1.5l-0.572 3.5-0.427 2.991-1.001 6.509c0 0.103 0.015 0.184 0.035 0.258l-0.035 0.242-0.914 0.601c0 0-0.086 0.256-0.086 0.399v11c0 0.553 0.448 1 1 1h0.101c0.463 2.282 2.48 4 4.899 4h8c2.419 0 4.436-1.718 4.899-4h-7.899c-1.104 0-2-0.896-2-2h8c1.104 0 2-0.896 2-2s-0.896-2-2-2h-8v-2h9c1.104 0 2-0.896 2-2s-0.896-2-2-2z"></path>
</svg>
