<?xml version="1.0" encoding="utf-8"?>
<!-- Generated by IcoMoon.io -->
<!DOCTYPE svg PUBLIC "-//W3C//DTD SVG 1.1//EN" "http://www.w3.org/Graphics/SVG/1.1/DTD/svg11.dtd">
<svg version="1.1" xmlns="http://www.w3.org/2000/svg" xmlns:xlink="http://www.w3.org/1999/xlink" width="32" height="32" viewBox="0 0 32 32">
<path fill="#444444" d="M24.653 10.866c0 0 0.479-6.444-5.426-7.18-5.062-0.517-6.602 4.187-6.602 4.187s-1.523-1.466-3.592-0.269c-1.851 1.143-1.523 3.234-1.523 3.234s-4.11 0.8-4.11 4.99c0.113 4.258 4.437 4.151 4.437 4.151l4.583-0.031 2.194-5.018 6.395 0.125-2.844 4.915 5.846 0.051c0 0 3.871 0.046 4.576-3.942 0.271-4.354-3.934-5.213-3.934-5.213zM19.394 15.95h-4.123l-2.632 6.017h3.772l-3.071 6.792 6.667-7.833h-3.508l2.895-4.976z"></path>
</svg>
