<?xml version="1.0" encoding="utf-8"?>
<!-- Generated by IcoMoon.io -->
<!DOCTYPE svg PUBLIC "-//W3C//DTD SVG 1.1//EN" "http://www.w3.org/Graphics/SVG/1.1/DTD/svg11.dtd">
<svg version="1.1" xmlns="http://www.w3.org/2000/svg" xmlns:xlink="http://www.w3.org/1999/xlink" width="32" height="32" viewBox="0 0 32 32">
<path fill="#444444" d="M30 32h-28c-1.105 0-2-0.895-2-2v-28c0-1.105 0.894-2 2-2h4v4h-2v24h24v-24h-2v-4h4c1.105 0 2 0.895 2 2v28c0 1.105-0.895 2-2 2zM8 8h2v-6h4v-2h4v2h4v6h2v16h-16v-16zM18 4h-4v2h4v-2zM12 20h8v-8h-8v8z"></path>
</svg>
