<?xml version="1.0" encoding="utf-8"?>
<!-- Generated by IcoMoon.io -->
<!DOCTYPE svg PUBLIC "-//W3C//DTD SVG 1.1//EN" "http://www.w3.org/Graphics/SVG/1.1/DTD/svg11.dtd">
<svg version="1.1" xmlns="http://www.w3.org/2000/svg" xmlns:xlink="http://www.w3.org/1999/xlink" width="48" height="48" viewBox="0 0 48 48">
<path fill="#444444" d="M0 44c0 2.21 1.79 4 4 4h40c2.21 0 4-1.79 4-4l-0-11c0-2.21-1.79-4-4-4h-12v-10.5c0-1.38-1.12-2.5-2.5-2.5s-2.5 1.12-2.5 2.5v10.5h-23c-2.21 0-4 1.79-4 4v11zM5 38.5c0-1.38 1.12-2.5 2.5-2.5s2.5 1.12 2.5 2.5-1.12 2.5-2.5 2.5-2.5-1.12-2.5-2.5zM14 38.5c0-1.38 1.12-2.5 2.5-2.5s2.5 1.12 2.5 2.5-1.12 2.5-2.5 2.5-2.5-1.12-2.5-2.5zM29.5 8c-5.8 0-10.5 4.7-10.5 10.5 0 1.38 1.12 2.5 2.5 2.5s2.5-1.12 2.5-2.5c0-3.040 2.46-5.5 5.5-5.5s5.5 2.46 5.5 5.5c0 1.38 1.12 2.5 2.5 2.5s2.5-1.12 2.5-2.5c-0-5.8-4.7-10.5-10.5-10.5zM29.5 0c-10.22 0-18.5 8.28-18.5 18.5 0 1.38 1.12 2.5 2.5 2.5s2.5-1.12 2.5-2.5c0-7.46 6.040-13.5 13.5-13.5s13.5 6.040 13.5 13.5c0 1.38 1.12 2.5 2.5 2.5s2.5-1.12 2.5-2.5c-0-10.22-8.279-18.5-18.5-18.5z"></path>
</svg>
