<?xml version="1.0" encoding="utf-8"?>
<!-- Generated by IcoMoon.io -->
<!DOCTYPE svg PUBLIC "-//W3C//DTD SVG 1.1//EN" "http://www.w3.org/Graphics/SVG/1.1/DTD/svg11.dtd">
<svg version="1.1" xmlns="http://www.w3.org/2000/svg" xmlns:xlink="http://www.w3.org/1999/xlink" width="24" height="24" viewBox="0 0 24 24">
<path fill="#444444" d="M12.891 13.219v-2.531q0-1.688-0.469-2.484-0.328-0.703-1.406-0.703-0.469 0-0.844 0.141-1.078 0.656-1.078 3.094v2.484q0 1.125 0.094 1.547 0.047 0.234 0.422 0.984t1.406 0.75 1.406-0.75q0.281-0.563 0.375-0.984t0.094-1.547zM7.125 11.016q0-5.109 3.891-5.109 1.922 0 2.813 1.125 1.031 1.313 1.031 3.984v1.922q0 5.156-3.844 5.156-3.891 0-3.891-5.156v-1.922zM20.438 10.453q-1.406 0-1.406 1.078 0 0.141 0.023 0.258t0.070 0.188l0.094 0.141t0.141 0.117l0.141 0.070t0.211 0.094 0.211 0.070q0.422 0.188 0.891 0.234 0.422 0.094 1.313 0.375 0.375 0.141 1.031 0.563 0.375 0.234 0.609 0.75 0.234 0.469 0.234 0.984 0 1.734-2.063 2.438-0.563 0.188-1.406 0.188-2.672 0-3.469-1.828-0.234-0.563-0.234-1.031h1.922q0 1.406 1.781 1.406 1.547 0 1.547-1.078 0-0.281-0.141-0.492t-0.281-0.281-0.469-0.211-1.148-0.352-1.102-0.305q-0.375-0.141-0.938-0.516-0.891-0.609-0.891-1.688 0-1.781 1.969-2.438 0.563-0.188 1.359-0.188 1.547 0 2.531 0.703t0.984 2.063h-1.969q0-0.984-0.844-1.172-0.563-0.141-0.703-0.141zM0 7.734l4.734-1.734h0.281v12h-2.016v-9.609l-3 1.031v-1.688z"></path>
</svg>
