<?xml version="1.0" encoding="UTF-8"?>
<!DOCTYPE svg PUBLIC "-//W3C//DTD SVG 1.1//EN" "http://www.w3.org/Graphics/SVG/1.1/DTD/svg11.dtd">
<!-- Creator: CorelDRAW X8 -->
<svg xmlns="http://www.w3.org/2000/svg" xml:space="preserve" width="2.70489in" height="2.47948in" version="1.1" style="shape-rendering:geometricPrecision; text-rendering:geometricPrecision; image-rendering:optimizeQuality; fill-rule:evenodd; clip-rule:evenodd"
viewBox="0 0 1278 1171"
 xmlns:xlink="http://www.w3.org/1999/xlink">
 <defs>
  <style type="text/css">
   <![CDATA[
    .fil0 {fill:black}
   ]]>
  </style>
 </defs>
 <g id="Layer_x0020_1">
  <metadata id="CorelCorpID_0Corel-Layer"/>
  <g id="_133325635104">
   <path class="fil0" d="M852 106l106 0 0 107 -106 0 0 -107zm-107 -10l0 10 -698 0c-25,0 -47,24 -47,60 0,21 26,47 47,47l698 0c0,32 11,56 31,76 13,13 41,30 66,30l126 0c45,0 97,-45 97,-106l166 0c24,0 47,-23 47,-60 0,-21 -26,-47 -47,-47l-166 0c0,-61 -52,-106 -97,-106l-126 0c-46,0 -97,50 -97,96z"/>
   <path class="fil0" d="M639 958l106 0 0 107 -106 0 0 -107zm-107 -10l0 10 -485 0c-25,0 -47,23 -47,60 0,21 26,47 47,47l485 0c0,61 51,106 97,106l126 0c46,0 97,-45 97,-106l379 0c24,0 47,-23 47,-60 0,-21 -26,-47 -47,-47l-379 0c0,-61 -51,-106 -97,-106l-126 0c-46,0 -97,50 -97,96z"/>
   <path class="fil0" d="M319 532l107 0 0 107 -107 0 0 -107zm-106 -10l0 10 -166 0c-25,0 -47,23 -47,60 0,21 26,47 47,47l166 0c0,61 51,106 96,106l127 0c25,0 52,-17 66,-30 20,-20 30,-44 30,-76l699 0c24,0 47,-23 47,-60 0,-21 -26,-47 -47,-47l-699 0c0,-61 -51,-106 -96,-106l-127 0c-24,0 -52,17 -65,30 -14,14 -31,41 -31,66z"/>
  </g>
 </g>
</svg>
