<?xml version="1.0" encoding="utf-8"?>
<!-- Generated by IcoMoon.io -->
<!DOCTYPE svg PUBLIC "-//W3C//DTD SVG 1.1//EN" "http://www.w3.org/Graphics/SVG/1.1/DTD/svg11.dtd">
<svg version="1.1" xmlns="http://www.w3.org/2000/svg" xmlns:xlink="http://www.w3.org/1999/xlink" width="48" height="48" viewBox="0 0 48 48">
<path fill="#444444" d="M29 43h7.8c1.22 0 2.2-0.98 2.2-2.2v-5.8c0-1.1 0.9-2 2-2h4.8c1.22 0 2.2-0.98 2.2-2.2v-19.6c0-1.22-0.98-2.2-2.2-2.2h-16.8v-1c0-2.21-1.79-4-4-4h-3l0-1.8c0-1.22-0.98-2.2-2.2-2.2h-10.6c-1.22 0-2.2 0.98-2.2 2.2v1.8h-3c-2.21 0-4 1.79-4 4v36c0 2.21 1.79 4 4 4h21c2.21 0 4-1.79 4-4l-0-1zM38 16.5c0-1.38 1.12-2.5 2.5-2.5s2.5 1.12 2.5 2.5-1.12 2.5-2.5 2.5-2.5-1.12-2.5-2.5zM29 16.5c0-1.38 1.12-2.5 2.5-2.5s2.5 1.12 2.5 2.5-1.12 2.5-2.5 2.5-2.5-1.12-2.5-2.5zM29 35.5c0-1.38 1.12-2.5 2.5-2.5s2.5 1.12 2.5 2.5-1.12 2.5-2.5 2.5-2.5-1.12-2.5-2.5zM9 11v30c0 1.1-0.9 2-2 2s-2-0.9-2-2l-0-30c0-1.1 0.9-2 2-2s2 0.9 2 2z"></path>
</svg>
