<?xml version="1.0" encoding="utf-8"?>
<!-- Generated by IcoMoon.io -->
<!DOCTYPE svg PUBLIC "-//W3C//DTD SVG 1.1//EN" "http://www.w3.org/Graphics/SVG/1.1/DTD/svg11.dtd">
<svg version="1.1" xmlns="http://www.w3.org/2000/svg" xmlns:xlink="http://www.w3.org/1999/xlink" width="24" height="24" viewBox="0 0 24 24">
<path fill="#444444" d="M19.164 19.547c-1.641-2.5-3.669-3.285-6.164-3.484v1.437c0 0.534-0.208 1.036-0.586 1.414-0.756 0.756-2.077 0.751-2.823 0.005l-6.293-6.207c-0.191-0.189-0.298-0.444-0.298-0.713s0.107-0.524 0.298-0.712l6.288-6.203c0.754-0.755 2.073-0.756 2.829 0.001 0.377 0.378 0.585 0.88 0.585 1.414v1.704c4.619 0.933 8 4.997 8 9.796v1c0 0.442-0.29 0.832-0.714 0.958-0.095 0.027-0.19 0.042-0.286 0.042-0.331 0-0.646-0.165-0.836-0.452zM12.023 14.011c2.207 0.056 4.638 0.394 6.758 2.121-0.768-3.216-3.477-5.702-6.893-6.080-0.504-0.056-0.888-0.052-0.888-0.052v-3.497l-5.576 5.496 5.576 5.5v-3.499c0 0 0.738 0.010 1.023 0.011z"></path>
</svg>
