<?xml version="1.0" encoding="utf-8"?>
<!-- Generated by IcoMoon.io -->
<!DOCTYPE svg PUBLIC "-//W3C//DTD SVG 1.1//EN" "http://www.w3.org/Graphics/SVG/1.1/DTD/svg11.dtd">
<svg version="1.1" xmlns="http://www.w3.org/2000/svg" xmlns:xlink="http://www.w3.org/1999/xlink" width="24" height="24" viewBox="0 0 24 24">
<path fill="#444444" d="M11 8h-7v8h7v-8zM10 14.501c0-0.828-1.119-1.499-2.5-1.499s-2.5 0.671-2.5 1.499v-5.501h5v5.501zM6 11.502c0 0.828 0.672 1.5 1.5 1.5s1.5-0.672 1.5-1.5c0-0.828-0.672-1.5-1.5-1.5s-1.5 0.672-1.5 1.5zM21.929 4h-20c-1.105 0-1.929 0.807-1.929 1.91v12c0 1.106 0.824 2.090 1.929 2.090h20c1.104 0 2.071-0.984 2.071-2.090v-12c0-1.103-0.967-1.91-2.071-1.91zM22 18h-20v-12h20v12zM13 8h7v2h-7zM13 11h7v1h-7zM13 13h7v1h-7zM13 15h3v1h-3zM16.998 15h1.002v1.002h-1.002z"></path>
</svg>
