<?xml version="1.0" encoding="utf-8"?>
<!-- Generated by IcoMoon.io -->
<!DOCTYPE svg PUBLIC "-//W3C//DTD SVG 1.1//EN" "http://www.w3.org/Graphics/SVG/1.1/DTD/svg11.dtd">
<svg version="1.1" xmlns="http://www.w3.org/2000/svg" xmlns:xlink="http://www.w3.org/1999/xlink" width="24" height="24" viewBox="0 0 24 24">
<path fill="#444444" d="M22 7h-2v-0.59c0-1.101-0.896-2.41-2-2.41h-16c-1.104 0-2 1.309-2 2.41v9c0 1.104 0.896 1.59 2 1.59h1v2.41c0 1.104 0.896 1.59 2 1.59h17c1.104 0 2-0.486 2-1.59v-10c0-1.101-0.896-2.41-2-2.41zM3 15h-1v-4h1v4zM3.278 8h-1.278v-2h16v1h-13c-0.736 0-1.375 1-1.722 1zM5 19v-10h17l0.002 10h-17.002zM16 16h5v-4h-5v4zM17 13h3v2h-3v-2zM8 18h4v-1h-4v1zM6 12h7v-2h-7v2zM13.002 18h0.996v-1h-0.996v1zM6 18h0.996v-1h-0.996v1z"></path>
</svg>
