<?xml version="1.0" encoding="utf-8"?>
<!-- Generated by IcoMoon.io -->
<!DOCTYPE svg PUBLIC "-//W3C//DTD SVG 1.1//EN" "http://www.w3.org/Graphics/SVG/1.1/DTD/svg11.dtd">
<svg version="1.1" xmlns="http://www.w3.org/2000/svg" xmlns:xlink="http://www.w3.org/1999/xlink" width="18" height="18" viewBox="0 0 18 18">
<path fill="#444444" d="M9 1c-3.866 0.005-7 3.12-7 6.963 0 5.525 5.020 8.307 6.509 8.953 0.129 0.056 0.267 0.084 0.404 0.084 0.029 0 0.058-0.006 0.087-0.009 0.029 0.002 0.058 0.009 0.087 0.009 0.137 0 0.275-0.028 0.404-0.084 1.489-0.645 6.509-3.428 6.509-8.953 0-3.843-3.133-6.958-7-6.963zM9.088 14.895c-0.026-0.014-0.059-0.031-0.088-0.045-0.029 0.015-0.062 0.032-0.088 0.045-1.283-0.648-4.912-2.843-4.912-6.932 0-2.734 2.242-4.958 5-4.963 2.758 0.005 5 2.229 5 4.963 0 4.089-3.629 6.284-4.912 6.932z"></path>
<path fill="#444444" d="M9 6c-1.105 0-2 0.896-2 2s0.896 2 2 2 2-0.896 2-2c0-1.105-0.896-2-2-2z"></path>
</svg>
