<?xml version="1.0" encoding="utf-8"?>
<!-- Generated by IcoMoon.io -->
<!DOCTYPE svg PUBLIC "-//W3C//DTD SVG 1.1//EN" "http://www.w3.org/Graphics/SVG/1.1/DTD/svg11.dtd">
<svg version="1.1" xmlns="http://www.w3.org/2000/svg" xmlns:xlink="http://www.w3.org/1999/xlink" width="32" height="32" viewBox="0 0 32 32">
<path fill="#444444" d="M16 2.984c-7.201 0-13.015 5.815-13.015 13.016 0 7.199 5.814 13.016 13.015 13.016 7.2 0 13.016-5.816 13.016-13.016s-5.817-13.016-13.016-13.016zM15.954 8.189c0.931 0 1.687 0.755 1.687 1.688s-0.756 1.688-1.687 1.688c-0.933 0-1.688-0.756-1.688-1.688s0.755-1.688 1.688-1.688zM16.182 28.141c-3.541 0-6.26-2.644-6.26-6.065 0-3.305 2.502-6.067 5.857-6.064 0 0 6.298-0.31 6.298-6.083 0-3.47-2.1-5.567-6.085-6.083 7.173 0.398 12.148 5.373 12.148 12.147 0.001 6.61-5.439 12.148-11.958 12.148zM16.015 20.314c-0.932 0-1.688 0.755-1.688 1.688 0 0.932 0.756 1.688 1.688 1.688s1.688-0.756 1.688-1.688c0-0.933-0.756-1.688-1.688-1.688z"></path>
</svg>
