<?xml version="1.0" encoding="utf-8"?>
<!-- Generated by IcoMoon.io -->
<!DOCTYPE svg PUBLIC "-//W3C//DTD SVG 1.1//EN" "http://www.w3.org/Graphics/SVG/1.1/DTD/svg11.dtd">
<svg version="1.1" xmlns="http://www.w3.org/2000/svg" xmlns:xlink="http://www.w3.org/1999/xlink" width="24" height="24" viewBox="0 0 24 24">
<path fill="#444444" d="M20 11c0-4.9-3.499-9.1-8.32-9.983l-0.18-0.034-0.18 0.033c-4.821 0.884-8.32 5.084-8.32 9.984 0 4.617 3.108 8.61 7.5 9.795v1.205c0 0.553 0.448 1 1 1s1-0.447 1-1v-1.205c4.392-1.185 7.5-5.178 7.5-9.795zM12.5 18.7v-2.993l4.354-4.354c0.195-0.195 0.195-0.512 0-0.707s-0.512-0.195-0.707 0l-3.647 3.647v-3.586l2.354-2.354c0.195-0.195 0.195-0.512 0-0.707s-0.512-0.195-0.707 0l-1.647 1.647v-3.293c0-0.553-0.448-1-1-1s-1 0.447-1 1v3.293l-1.646-1.647c-0.195-0.195-0.512-0.195-0.707 0s-0.195 0.512 0 0.707l2.354 2.354v3.586l-3.646-3.646c-0.195-0.195-0.512-0.195-0.707 0s-0.195 0.512 0 0.707l4.354 4.354v2.992c-3.249-1.116-5.502-4.179-5.502-7.7 0-3.874 2.723-7.201 6.5-7.981 3.777 0.78 6.5 4.107 6.5 7.981 0 3.521-2.253 6.584-5.5 7.7z"></path>
</svg>
