<?xml version="1.0" encoding="utf-8"?>
<!-- Generated by IcoMoon.io -->
<!DOCTYPE svg PUBLIC "-//W3C//DTD SVG 1.1//EN" "http://www.w3.org/Graphics/SVG/1.1/DTD/svg11.dtd">
<svg version="1.1" xmlns="http://www.w3.org/2000/svg" xmlns:xlink="http://www.w3.org/1999/xlink" width="32" height="32" viewBox="0 0 32 32">
<path fill="#444444" d="M15.999 11c-2.729 0-4.971 2.22-4.999 4.949-0.028 2.757 2.192 5.022 4.949 5.051 0.001 0 0.050 0 0.052 0 2.729 0 4.971-2.22 4.999-4.949 0.028-2.757-2.192-5.023-5.001-5.051zM16.001 20v0.5l-0.042-0.5c-2.205-0.022-3.981-1.835-3.959-4.041 0.022-2.183 1.816-3.959 4.041-3.959 2.205 0.022 3.981 1.835 3.959 4.041-0.022 2.183-1.816 3.959-3.999 3.959zM0 16c0 0.552 0.448 1 1 1s1-0.448 1-1c0-0.552-0.448-1-1-1s-1 0.448-1 1zM30 16c0 0.552 0.448 1 1 1s1-0.448 1-1c0-0.552-0.448-1-1-1s-1 0.448-1 1zM15 1c0 0.552 0.448 1 1 1s1-0.448 1-1c0-0.552-0.448-1-1-1s-1 0.448-1 1zM15 31c0 0.552 0.448 1 1 1s1-0.448 1-1c0-0.552-0.448-1-1-1s-1 0.448-1 1zM4 5c0 0.552 0.448 1 1 1s1-0.448 1-1c0-0.552-0.448-1-1-1s-1 0.448-1 1zM26 27c0 0.552 0.448 1 1 1s1-0.448 1-1c0-0.552-0.448-1-1-1s-1 0.448-1 1zM26 5c0 0.552 0.448 1 1 1s1-0.448 1-1c0-0.552-0.448-1-1-1s-1 0.448-1 1zM4 27c0 0.552 0.448 1 1 1s1-0.448 1-1c0-0.552-0.448-1-1-1s-1 0.448-1 1zM24 16.076v-7.576c0-0.276-0.224-0.5-0.5-0.5h-7.501c-4.366 0-7.954 3.552-7.999 7.919-0.021 2.137 0.79 4.154 2.286 5.681s3.496 2.379 5.633 2.4c0.001 0 0.081 0 0.083 0 0 0 0 0 0 0 4.365 0 7.953-3.552 7.998-7.924zM16.001 23v0.5l-0.072-0.5c-1.87-0.019-3.62-0.765-4.929-2.101s-2.019-3.101-2-4.971c0.039-3.82 3.178-6.928 7.076-6.928v0h6.924v7.071c-0.039 3.821-3.179 6.93-6.999 6.929z"></path>
</svg>
