<?xml version="1.0" encoding="utf-8"?>
<!-- Generated by IcoMoon.io -->
<!DOCTYPE svg PUBLIC "-//W3C//DTD SVG 1.1//EN" "http://www.w3.org/Graphics/SVG/1.1/DTD/svg11.dtd">
<svg version="1.1" xmlns="http://www.w3.org/2000/svg" xmlns:xlink="http://www.w3.org/1999/xlink" width="18" height="18" viewBox="0 0 18 18">
<path fill="#444444" d="M9 1c-4.971 0-9 4.029-9 9 0 0.552 0.448 1 1 1s1-0.448 1-1c0-3.86 3.14-7 7-7s7 3.14 7 7c0 0.552 0.448 1 1 1s1-0.448 1-1c0-4.971-4.029-9-9-9z"></path>
<path fill="#444444" d="M10 9.126v-3.126c0-0.552-0.448-1-1-1s-1 0.448-1 1v3.126c-1.725 0.444-3 2.010-3 3.874 0 2.209 1.791 4 4 4s4-1.791 4-4c0-1.864-1.275-3.43-3-3.874zM9 15c-1.103 0-2-0.897-2-2s0.897-2 2-2 2 0.897 2 2-0.897 2-2 2z"></path>
</svg>
