<?xml version="1.0" encoding="utf-8"?>
<!-- Generated by IcoMoon.io -->
<!DOCTYPE svg PUBLIC "-//W3C//DTD SVG 1.1//EN" "http://www.w3.org/Graphics/SVG/1.1/DTD/svg11.dtd">
<svg version="1.1" xmlns="http://www.w3.org/2000/svg" xmlns:xlink="http://www.w3.org/1999/xlink" width="24" height="24" viewBox="0 0 24 24">
<path fill="#444444" d="M1 2v21h20.98v-21h-20.98zM19.982 9h-4.996v-5h4.996v5zM19.982 15h-4.996v-5h4.996v5zM19.982 21h-4.996v-5h4.996v5zM2.998 16h4.996v5h-4.996v-5zM2.998 10h4.996v5h-4.996v-5zM2.998 4h4.996v5h-4.996v-5zM13.988 9h-4.995v-5h4.996v5zM13.988 15h-4.995v-5h4.996v5zM8.993 16h4.996v5h-4.996v-5z"></path>
</svg>
