<?xml version="1.0" encoding="utf-8"?>
<!-- Generated by IcoMoon.io -->
<!DOCTYPE svg PUBLIC "-//W3C//DTD SVG 1.1//EN" "http://www.w3.org/Graphics/SVG/1.1/DTD/svg11.dtd">
<svg version="1.1" xmlns="http://www.w3.org/2000/svg" xmlns:xlink="http://www.w3.org/1999/xlink" width="32" height="32" viewBox="0 0 32 32">
<path fill="#444444" d="M30 0h-28c-1.105 0-2 0.894-2 2v28c0 1.105 0.894 2 2 2h28c1.105 0 2-0.895 2-2v-28c0-1.105-0.895-2-2-2zM12 16c0 0 0.316-4 4-4s4 4 4 4 0.115 4-4 4-4-4-4-4zM28 28h-24v-14h4.283c-0.166 0.643-0.283 1.305-0.283 2 0 4.418 3.582 8 8 8s8-3.582 8-8c0-0.695-0.117-1.357-0.283-2h4.283v14zM28 10h-6v-6h6v6z"></path>
</svg>
