<?xml version="1.0" encoding="utf-8"?>
<!-- Generated by IcoMoon.io -->
<!DOCTYPE svg PUBLIC "-//W3C//DTD SVG 1.1//EN" "http://www.w3.org/Graphics/SVG/1.1/DTD/svg11.dtd">
<svg version="1.1" xmlns="http://www.w3.org/2000/svg" xmlns:xlink="http://www.w3.org/1999/xlink" width="32" height="32" viewBox="0 0 32 32">
<path fill="#444444" d="M21.6 8h-11l-6.6 9v5c0 1.104 0.896 2 2 2h20c1.104 0 2-0.896 2-2v-5l-6.4-9zM22.465 17.023l-2.052 3.002-8.588-0.020-2.202-2.994-4.086-0.024 5.662-7.975h9.801l5.6 7.975-4.135 0.036zM17.375 11c0-0.552-0.323-1-0.875-1-0.553 0-0.938 0.448-0.938 1v3.938l-2.437 0.062 3.375 3.812 3.312-3.812-2.438-0.062v-3.938z"></path>
</svg>
