<?xml version="1.0" encoding="utf-8"?>
<!-- Generated by IcoMoon.io -->
<!DOCTYPE svg PUBLIC "-//W3C//DTD SVG 1.1//EN" "http://www.w3.org/Graphics/SVG/1.1/DTD/svg11.dtd">
<svg version="1.1" xmlns="http://www.w3.org/2000/svg" xmlns:xlink="http://www.w3.org/1999/xlink" width="32" height="32" viewBox="0 0 32 32">
<path fill="#444444" d="M25 18c-1.078 0-2.088 0.264-3 0.699v-5.398c0.912 0.435 1.922 0.699 3 0.699 3.865 0 7-3.134 7-7s-3.135-7-7-7-7 3.134-7 7v3h-4v-3c0-3.866-3.135-7-7-7s-7 3.134-7 7 3.135 7 7 7c1.078 0 2.088-0.264 3-0.699v5.398c-0.912-0.436-1.922-0.699-3-0.699-3.865 0-7 3.134-7 7s3.135 7 7 7 7-3.134 7-7v-3h4v3c0 3.866 3.135 7 7 7s7-3.134 7-7-3.135-7-7-7zM25 4c1.656 0 3 1.343 3 3s-1.344 3-3 3-3-1.343-3-3 1.344-3 3-3zM7 28c-1.656 0-3-1.343-3-3s1.344-3 3-3 3 1.343 3 3-1.344 3-3 3zM7 10c-1.656 0-3-1.343-3-3s1.344-3 3-3 3 1.343 3 3-1.344 3-3 3zM18 18h-4v-4h4v4zM25 28c-1.656 0-3-1.343-3-3s1.344-3 3-3 3 1.343 3 3-1.344 3-3 3z"></path>
</svg>
