<?xml version="1.0" encoding="utf-8"?>
<!-- Generated by IcoMoon.io -->
<!DOCTYPE svg PUBLIC "-//W3C//DTD SVG 1.1//EN" "http://www.w3.org/Graphics/SVG/1.1/DTD/svg11.dtd">
<svg version="1.1" xmlns="http://www.w3.org/2000/svg" xmlns:xlink="http://www.w3.org/1999/xlink" width="32" height="32" viewBox="0 0 32 32">
<path fill="#444444" d="M23.996 12v-4c0-5.523-3.996-8-7.996-8h-8.004c-3.996 0-7.996 2.125-7.996 8 0 5.75 4 8 7.996 8h0.93c-0.558 1.083-0.915 2.37-0.926 3.932v4.146c0.042 4.381 3.608 7.922 8 7.922 0-2.211 1.793-4 4-4h3.996c4.004 0 8.004-2.25 8.004-8 0-5.875-4-8-8.004-8zM7.996 12c-3.996 0-3.996-3.012-3.996-4 0-1.199 0-4 3.996-4h8.004c1.496 0 4 0.52 4 4v4c0 1.307-0.629 2.471-1.609 3.201-1.461-1.943-3.782-3.201-6.391-3.201h-4.004zM23.996 24h-3.996c-2.613 0-4.938 1.258-6.398 3.199-0.973-0.73-1.602-1.894-1.602-3.199v-4c0-1.83 0.91-2.941 1.816-3.512 1.282 0.668 2.184 1.969 2.184 3.512 2.956 0 5.506-1.62 6.894-4.002l1.102 0.002c4.004 0 4.004 2.803 4.004 4 0 0.99 0 4-4.004 4z"></path>
</svg>
