<?xml version="1.0" encoding="utf-8"?>
<!-- Generated by IcoMoon.io -->
<!DOCTYPE svg PUBLIC "-//W3C//DTD SVG 1.1//EN" "http://www.w3.org/Graphics/SVG/1.1/DTD/svg11.dtd">
<svg version="1.1" xmlns="http://www.w3.org/2000/svg" xmlns:xlink="http://www.w3.org/1999/xlink" width="24" height="24" viewBox="0 0 24 24">
<path fill="#444444" d="M17 16h-10c-1.104 0-2 0.895-2 2s0.896 2 2 2h10c1.104 0 2-0.896 2-2 0-1.105-0.896-2-2-2z"></path>
<path fill="#444444" d="M18.433 10.604c-2.574-2.641-6.433-6.604-6.433-6.604s-3.859 3.963-6.433 6.604c-0.349 0.363-0.567 0.853-0.567 1.396 0 1.104 0.896 2 2 2h10c1.104 0 2-0.896 2-2 0-0.543-0.218-1.033-0.567-1.396z"></path>
</svg>
