<?xml version="1.0" encoding="utf-8"?>
<!-- Generated by IcoMoon.io -->
<!DOCTYPE svg PUBLIC "-//W3C//DTD SVG 1.1//EN" "http://www.w3.org/Graphics/SVG/1.1/DTD/svg11.dtd">
<svg version="1.1" xmlns="http://www.w3.org/2000/svg" xmlns:xlink="http://www.w3.org/1999/xlink" width="32" height="32" viewBox="0 0 32 32">
<path fill="#444444" d="M27 17.047l-5-2.003v-4.008l5-2.004c0.553 0 1 0.449 1 1.002v6.012c0 0.553-0.447 1.001-1 1.001zM17.5 10.033c-2.485 0-4.5-2.019-4.5-4.509s2.015-4.509 4.5-4.509 4.5 2.019 4.5 4.509c0 2.491-2.015 4.509-4.5 4.509zM8.5 10.033c-2.485 0-4.5-2.019-4.5-4.509s2.015-4.509 4.5-4.509 4.5 2.019 4.5 4.509c0 2.491-2.015 4.509-4.5 4.509zM21 10.033v9.018h-5.582c-0.052 0.832-0.416 1.549-0.957 1.955h0.564l3.989 8.996h-0.994l-1.33-3h-2.66v4.998h-0.997v-4.998h-2.702l-1.351 3h-0.995l4.052-8.996h0.377c-0.541-0.406-0.905-1.123-0.957-1.955h-6.457v-9.018h16zM13.032 21.316c-0.041-0.010-0.079-0.031-0.119-0.045l-2.132 4.732h2.251v-4.687zM14.029 21.244v4.76h2.217l-2.126-4.795c-0.029 0.014-0.059 0.023-0.091 0.035z"></path>
</svg>
