<?xml version="1.0" encoding="utf-8"?>
<!-- Generated by IcoMoon.io -->
<!DOCTYPE svg PUBLIC "-//W3C//DTD SVG 1.1//EN" "http://www.w3.org/Graphics/SVG/1.1/DTD/svg11.dtd">
<svg version="1.1" xmlns="http://www.w3.org/2000/svg" xmlns:xlink="http://www.w3.org/1999/xlink" width="48" height="48" viewBox="0 0 48 48">
<path fill="#444444" d="M6.405 34.99c0.12 0.82 0.5 1.611 1.13 2.242 1.56 1.559 4.090 1.559 5.65 0l2.83-2.83c0.78-0.781 2.050-0.781 2.83 0l9.489 9.479c1.561 1.57 4.090 1.57 5.65 0l9.9-9.898c1.561-1.561 1.561-4.092 0-5.65l-9.48-9.491c-0.779-0.78-0.779-2.050 0-2.83l2.82-2.83c1.57-1.56 1.57-4.090 0-5.649-0.621-0.63-1.41-1.010-2.23-1.13l-27.039-3.462c-2.77 0-5.020 2.24-5.010 5.021l3.46 27.028z"></path>
</svg>
