<?xml version="1.0" encoding="utf-8"?>
<!-- Generated by IcoMoon.io -->
<!DOCTYPE svg PUBLIC "-//W3C//DTD SVG 1.1//EN" "http://www.w3.org/Graphics/SVG/1.1/DTD/svg11.dtd">
<svg version="1.1" xmlns="http://www.w3.org/2000/svg" xmlns:xlink="http://www.w3.org/1999/xlink" width="32" height="32" viewBox="0 0 32 32">
<path fill="#444444" d="M27.395 16.112l-12.225-12.141h-11.141l-0.026 11.127 12.078 12.329c0.794 0.794 2.071 0.805 2.853 0.023l8.484-8.485c0.781-0.781 0.771-2.059-0.023-2.853zM6.982 9.004c0-1.104 0.896-2 2-2s2 0.896 2 2c0 1.105-0.896 2-2 2s-2-0.895-2-2zM17.863 22.952l-7.778-7.778 0.707-0.707 7.778 7.778-0.707 0.707zM19.984 20.831l-7.778-7.778 0.708-0.707 7.777 7.778-0.707 0.707zM22.105 18.709l-7.777-7.778 0.707-0.707 7.777 7.778-0.707 0.707z"></path>
</svg>
