<?xml version="1.0" encoding="utf-8"?>
<!-- Generated by IcoMoon.io -->
<!DOCTYPE svg PUBLIC "-//W3C//DTD SVG 1.1//EN" "http://www.w3.org/Graphics/SVG/1.1/DTD/svg11.dtd">
<svg version="1.1" xmlns="http://www.w3.org/2000/svg" xmlns:xlink="http://www.w3.org/1999/xlink" width="32" height="32" viewBox="0 0 32 32">
<path fill="#444444" d="M4.691 27.32c-3.027-3.023-4.691-7.039-4.691-11.32 0-8.82 7.176-16 16-16l2 2-2 2c-6.617 0-12 5.383-12 12 0 3.211 1.25 6.227 3.52 8.492l-2.457 0.32-0.372 2.508zM16 32l-2-1.992 2-2.008c6.617 0 12-5.383 12-12 0-3.203-1.25-6.219-3.523-8.488l2.461-0.324 0.367-2.504c3.027 3.023 4.695 7.043 4.695 11.316 0 8.82-7.18 16-16 16v0z"></path>
</svg>
