<?xml version="1.0" encoding="utf-8"?>
<!-- Generated by IcoMoon.io -->
<!DOCTYPE svg PUBLIC "-//W3C//DTD SVG 1.1//EN" "http://www.w3.org/Graphics/SVG/1.1/DTD/svg11.dtd">
<svg version="1.1" xmlns="http://www.w3.org/2000/svg" xmlns:xlink="http://www.w3.org/1999/xlink" width="32" height="32" viewBox="0 0 32 32">
<path fill="#444444" d="M0 32v-3c0-4.484 5.649-6.179 13.099-6.862-1.636-1.014-2.92-3.864-3.589-6.14-0.003 0-0.006 0.002-0.010 0.002-0.068 0-1.5-1.791-1.5-4 0-1.938-0.138-3.554 1.007-3.92-0.001-0.027-0.007-0.053-0.007-0.080 0-2.457 1.271-4.61 3.187-5.859 0.495-1.235 2.004-2.141 3.813-2.141s3.318 0.906 3.813 2.141c1.916 1.249 3.187 3.402 3.187 5.859 0 0.027-0.006 0.053-0.007 0.080 1.145 0.366 1.007 1.982 1.007 3.92 0 2.209-1.588 4-1.5 4-0.004 0-0.007-0.002-0.010-0.002-0.669 2.275-1.953 5.126-3.589 6.14 7.45 0.683 13.099 2.315 13.099 6.862v3h-32z"></path>
</svg>
