<?xml version="1.0" encoding="utf-8"?>
<!-- Generated by IcoMoon.io -->
<!DOCTYPE svg PUBLIC "-//W3C//DTD SVG 1.1//EN" "http://www.w3.org/Graphics/SVG/1.1/DTD/svg11.dtd">
<svg version="1.1" xmlns="http://www.w3.org/2000/svg" xmlns:xlink="http://www.w3.org/1999/xlink" width="32" height="32" viewBox="0 0 32 32">
<path fill="#444444" d="M14 0c-1.104 0-2 0.894-2 2v10h-2v-10c0-1.105-0.896-2-2-2s-2 0.894-2 2v10h-2v-10c0-1.105-0.896-2-2-2s-2 0.894-2 2v12c0 1.105 0.895 2 2 2h4v14c0 1.105 0.896 2 2 2s2-0.895 2-2v-14h4c1.104 0 2-0.895 2-2v-12c0-1.105-0.896-2-2-2zM26 0c-3.314 0-6 2.686-6 6 0 2.609 1.675 4.807 4 5.633v18.367c0 1.105 0.895 2 2 2s2-0.895 2-2v-18.367c2.325-0.826 4-3.023 4-5.633 0-3.314-2.686-6-6-6z"></path>
</svg>
