<?xml version="1.0" encoding="utf-8"?>
<!-- Generated by IcoMoon.io -->
<!DOCTYPE svg PUBLIC "-//W3C//DTD SVG 1.1//EN" "http://www.w3.org/Graphics/SVG/1.1/DTD/svg11.dtd">
<svg version="1.1" xmlns="http://www.w3.org/2000/svg" xmlns:xlink="http://www.w3.org/1999/xlink" width="35" height="32" viewBox="0 0 35 32">
<path fill="#444444" d="M21.799 2.954c-1.105-1.904-2.609-2.954-4.235-2.954s-3.131 1.050-4.236 2.954l-12.269 21.133c-1.12 1.947-1.24 3.969-0.33 5.546 0.866 1.5 2.565 2.363 4.664 2.367h24.341c0 0 0 0 0.001 0 2.102-0.004 3.804-0.864 4.667-2.361 0.905-1.567 0.783-3.581-0.335-5.525l-12.268-21.16zM33.537 29.139c-0.681 1.18-2.067 1.858-3.804 1.861h-24.339c-1.731-0.003-3.115-0.684-3.799-1.867-0.727-1.26-0.606-2.917 0.33-4.546l12.268-21.131c0.919-1.584 2.116-2.456 3.371-2.456s2.452 0.872 3.37 2.456l12.268 21.157c0.935 1.626 1.057 3.276 0.335 4.526zM17.564 20c0.276 0 0.5-0.224 0.5-0.5v-10c0-0.276-0.224-0.5-0.5-0.5s-0.5 0.224-0.5 0.5v10c0 0.276 0.224 0.5 0.5 0.5zM17.5 22.5c-1.103 0-2 0.897-2 2s0.897 2 2 2 2-0.897 2-2-0.897-2-2-2zM17.5 25.5c-0.551 0-1-0.448-1-1s0.449-1 1-1 1 0.448 1 1-0.449 1-1 1z"></path>
</svg>
