<?xml version="1.0" encoding="utf-8"?>
<!-- Generated by IcoMoon.io -->
<!DOCTYPE svg PUBLIC "-//W3C//DTD SVG 1.1//EN" "http://www.w3.org/Graphics/SVG/1.1/DTD/svg11.dtd">
<svg version="1.1" xmlns="http://www.w3.org/2000/svg" xmlns:xlink="http://www.w3.org/1999/xlink" width="48" height="48" viewBox="0 0 48 48">
<path fill="#444444" d="M34.48 1.16c-1.541-1.55-4.041-1.55-5.591 0l-11.88 11.85-2.529-2.53-9.030 9.070c-0.98 0.98-1.45 2.249-1.45 3.56v11.89l0.020 0.020-2.86 2.871c-1.55 1.549-1.55 4.049 0 5.59l3.36 3.359c1.541 1.551 4.041 1.551 5.59 0l2.871-2.859 0.019 0.019h11.91c1.279 0.020 2.58-0.471 3.56-1.451l9.030-9.049-2.51-2.51 11.85-11.88c1.55-1.55 1.55-4.050 0-5.59l-12.36-12.36zM38.439 15.6l0.961 0.96c0.8 0.8 0.8 2.080 0 2.88l-0.961 0.96c-0.8 0.8-2.080 0.8-2.879 0l-0.961-0.96c-0.8-0.8-0.8-2.080 0-2.88l0.961-0.96c0.799-0.801 2.080-0.801 2.879 0zM31.439 8.6l0.961 0.96c0.8 0.8 0.8 2.080 0 2.88l-0.961 0.96c-0.8 0.8-2.080 0.8-2.879 0l-0.961-0.96c-0.8-0.8-0.8-2.080 0-2.88l0.961-0.96c0.799-0.801 2.080-0.801 2.879 0z"></path>
</svg>
