<?xml version="1.0" encoding="utf-8"?>
<!-- Generated by IcoMoon.io -->
<!DOCTYPE svg PUBLIC "-//W3C//DTD SVG 1.1//EN" "http://www.w3.org/Graphics/SVG/1.1/DTD/svg11.dtd">
<svg version="1.1" xmlns="http://www.w3.org/2000/svg" xmlns:xlink="http://www.w3.org/1999/xlink" width="32" height="32" viewBox="0 0 32 32">
<path fill="#444444" d="M4 6v22h22v-22h-22zM8 26h-2v-2h2v2zM8 23h-2v-2h2v2zM8 20h-2v-2h2v2zM8 16h-2v-2h2v2zM8 13h-2v-2h2v2zM8 10h-2v-2h2v2zM20 26h-10v-8h10v8zM20 16h-10v-8h10v8zM24 26h-2v-2h2v2zM24 23h-2v-2h2v2zM24 20h-2v-2h2v2zM24 16h-2v-2h2v2zM24 13h-2v-2h2v2zM24 10h-2v-2h2v2z"></path>
</svg>
