<?xml version="1.0" encoding="UTF-8"?>
<!DOCTYPE svg PUBLIC "-//W3C//DTD SVG 1.1//EN" "http://www.w3.org/Graphics/SVG/1.1/DTD/svg11.dtd">
<!-- Creator: CorelDRAW X8 -->
<svg xmlns="http://www.w3.org/2000/svg" xml:space="preserve" width="2.04061in" height="2.04061in" version="1.1" style="shape-rendering:geometricPrecision; text-rendering:geometricPrecision; image-rendering:optimizeQuality; fill-rule:evenodd; clip-rule:evenodd"
viewBox="0 0 1154 1154"
 xmlns:xlink="http://www.w3.org/1999/xlink">
 <defs>
  <style type="text/css">
   <![CDATA[
    .fil0 {fill:black}
   ]]>
  </style>
 </defs>
 <g id="Layer_x0020_1">
  <metadata id="CorelCorpID_0Corel-Layer"/>
  <path class="fil0" d="M591 875c0,9 9,20 20,20 30,0 75,-49 92,-49 10,0 16,24 16,24 0,7 -16,16 -21,19 -25,16 -46,33 -73,49 -8,5 -18,11 -25,16 -9,6 -17,8 -26,14 -31,19 -65,39 -97,7 -27,-28 -16,-69 -9,-101l53 -220c8,-30 20,-72 20,-102 0,-6 -8,-11 -13,-11 -17,0 -41,15 -53,22l-31 21c0,1 0,1 -1,1 -20,23 -28,-8 -33,-17l55 -42c20,-14 37,-28 56,-41 24,-17 91,-68 126,-68 71,0 30,128 19,166 -11,39 -75,270 -75,292zm-39 -875l57 0c73,4 145,21 212,53 125,60 223,156 281,281 38,83 52,155 52,259 0,149 -71,296 -168,393 -46,46 -103,87 -166,116 -83,38 -154,52 -259,52 -216,0 -419,-141 -508,-334 -39,-83 -53,-154 -53,-259 0,-149 71,-295 169,-392 103,-104 242,-162 383,-169zm111 313c-91,0 -78,-151 18,-151 18,0 37,10 45,20 42,51 3,131 -63,131z"/>
 </g>
</svg>
