<?xml version="1.0" encoding="utf-8"?>
<!-- Generated by IcoMoon.io -->
<!DOCTYPE svg PUBLIC "-//W3C//DTD SVG 1.1//EN" "http://www.w3.org/Graphics/SVG/1.1/DTD/svg11.dtd">
<svg version="1.1" xmlns="http://www.w3.org/2000/svg" xmlns:xlink="http://www.w3.org/1999/xlink" width="24" height="24" viewBox="0 0 24 24">
<path fill="#444444" d="M19.502 3.672l-1.795-1.793c-0.566-0.567-1.32-0.879-2.121-0.879s-1.555 0.312-2.121 0.879l-1.586 1.586c-1.17 1.17-1.17 3.072 0 4.242l1.379 1.379-4.172 4.172-1.379-1.379c-0.566-0.567-1.32-0.879-2.121-0.879s-1.555 0.312-2.121 0.879l-1.586 1.586c-1.17 1.17-1.17 3.072 0 4.242l1.794 1.793c0.465 0.465 1.796 1.545 4.116 1.545 2.764 0 5.694-1.529 8.711-4.545 6.245-6.246 4.825-11.002 3.002-12.828zM13.293 4.879l1.586-1.586c0.195-0.195 0.451-0.293 0.707-0.293s0.512 0.098 0.707 0.293l1.083 1.082-3.001 3-1.082-1.082c-0.391-0.391-0.391-1.023 0-1.414zM3.293 16.293c-0.391-0.391-0.391-1.023 0-1.414l1.586-1.586c0.195-0.195 0.451-0.293 0.707-0.293s0.512 0.098 0.707 0.293l1.082 1.082-2.999 3-1.083-1.082zM15.086 15.086c-3.083 3.082-5.551 3.959-7.297 3.959-1.349 0-2.267-0.523-2.702-0.959-0.004-0.004 2.995-3.004 2.995-3.004l0.297 0.297c0.195 0.195 0.451 0.293 0.707 0.293s0.512-0.098 0.707-0.293l5.586-5.586c0.391-0.391 0.391-1.023 0-1.414l-0.297-0.297 3.001-3c1.003 1.004 2.467 4.539-2.997 10.004z"></path>
</svg>
