<?xml version="1.0" encoding="utf-8"?>
<!-- Generated by IcoMoon.io -->
<!DOCTYPE svg PUBLIC "-//W3C//DTD SVG 1.1//EN" "http://www.w3.org/Graphics/SVG/1.1/DTD/svg11.dtd">
<svg version="1.1" xmlns="http://www.w3.org/2000/svg" xmlns:xlink="http://www.w3.org/1999/xlink" width="32" height="32" viewBox="0 0 32 32">
<path fill="#444444" d="M28 24v4h-4v-1h-16v1h-4v-4h1v-16h-1v-4h4v1h16v-1h4v4h-1v16h1zM5 27h2v-2h-2v2zM7 5h-2v2h2v-2zM24 7h-16v1h-1v16h1v1h16v-1h1v-16h-1v-1zM27 5h-2v2h2v-2zM25 25v2h2v-2h-2z"></path>
</svg>
