<?xml version="1.0" encoding="UTF-8"?>
<!DOCTYPE svg PUBLIC "-//W3C//DTD SVG 1.1//EN" "http://www.w3.org/Graphics/SVG/1.1/DTD/svg11.dtd">
<!-- Creator: CorelDRAW X8 -->
<svg xmlns="http://www.w3.org/2000/svg" xml:space="preserve" width="3.02328in" height="2.26746in" version="1.1" style="shape-rendering:geometricPrecision; text-rendering:geometricPrecision; image-rendering:optimizeQuality; fill-rule:evenodd; clip-rule:evenodd"
viewBox="0 0 1693 1269"
 xmlns:xlink="http://www.w3.org/1999/xlink">
 <defs>
  <style type="text/css">
   <![CDATA[
    .fil0 {fill:black}
   ]]>
  </style>
 </defs>
 <g id="Layer_x0020_1">
  <metadata id="CorelCorpID_0Corel-Layer"/>
  <g id="_133441750688">
   <path class="fil0" d="M1352 542c67,16 136,67 175,122 11,15 19,27 28,46 93,195 -29,454 -309,454l-856 0c-140,0 -248,-79 -276,-207 -3,-12 -9,-49 -8,-61 1,-15 5,-42 8,-58 24,-103 113,-185 217,-199 10,-1 25,-3 30,-3 14,-2 18,2 32,2 -2,-28 -77,-164 64,-303 30,-30 89,-61 142,-67 35,-3 57,-3 91,4 18,5 25,7 40,13 13,4 23,12 37,16 8,-36 45,-73 61,-94 19,-24 63,-54 91,-68 175,-86 395,10 444,201 9,37 5,36 10,69 8,53 -20,122 -21,133zm-1352 381l0 -45c5,-74 31,-148 83,-213 38,-48 126,-115 181,-120 0,-104 29,-199 100,-270 9,-8 15,-15 24,-23 17,-16 61,-45 83,-56 76,-39 165,-47 250,-27 11,-22 40,-49 58,-64 89,-75 170,-105 299,-105 59,0 148,28 195,59 12,7 19,11 31,19l79 73c7,9 14,19 21,28l36 63c36,84 41,111 41,208 0,16 -3,14 -3,29 52,28 115,85 145,136 5,7 10,13 15,22 44,80 55,135 55,229 0,59 -29,149 -59,196 -19,29 -40,60 -64,84l-29 25c-34,31 -84,57 -127,74 -31,12 -89,24 -125,24l-939 0c-44,0 -109,-19 -140,-35 -128,-64 -202,-184 -210,-311z"/>
   <path class="fil0" d="M503 896l0 7c14,3 177,104 197,116 23,14 44,27 67,39l0 -106 423 0 0 -106 -423 0 0 -105 -131 77c-14,9 -120,75 -133,78z"/>
   <path class="fil0" d="M926 529l-423 0 0 106 423 0 0 106c36,-20 247,-152 264,-156l0 -6c-17,-5 -228,-136 -264,-156l0 106z"/>
  </g>
 </g>
</svg>
