<?xml version="1.0" encoding="utf-8"?>
<!-- Generated by IcoMoon.io -->
<!DOCTYPE svg PUBLIC "-//W3C//DTD SVG 1.1//EN" "http://www.w3.org/Graphics/SVG/1.1/DTD/svg11.dtd">
<svg version="1.1" xmlns="http://www.w3.org/2000/svg" xmlns:xlink="http://www.w3.org/1999/xlink" width="33" height="32" viewBox="0 0 33 32">
<path fill="#444444" d="M23.014 4.459c-1.416 0-4.166 2-6.5 2s-5.25-2-6.5-2c-8.583 0-13.5 23.082-7.083 23.082 5.417 0 6.146-6.75 13.562-6.75 6 0 9.521 6.668 13.521 6.668 6.416 0 1.584-23-7-23zM9.513 17.459c-2.485 0-4.5-2.016-4.5-4.5s2.015-4.5 4.5-4.5 4.5 2.015 4.5 4.5c0 2.484-2.014 4.5-4.5 4.5zM21.451 14.959c-0.553 0-1-0.447-1-1s0.447-1 1-1 1 0.447 1 1-0.447 1-1 1zM24.514 17.959c-0.553 0-1-0.447-1-1s0.447-1 1-1 1 0.447 1 1-0.448 1-1 1zM24.514 11.959c-0.553 0-1-0.447-1-1s0.447-1 1-1 1 0.447 1 1-0.448 1-1 1zM27.514 14.959c-0.553 0-1-0.447-1-1s0.447-1 1-1 1 0.447 1 1-0.448 1-1 1zM9.513 10.459c-1.38 0-2.5 1.119-2.5 2.5s1.12 2.5 2.5 2.5c1.381 0 2.5-1.119 2.5-2.5s-1.119-2.5-2.5-2.5z"></path>
</svg>
