<?xml version="1.0" encoding="utf-8"?>
<!-- Generated by IcoMoon.io -->
<!DOCTYPE svg PUBLIC "-//W3C//DTD SVG 1.1//EN" "http://www.w3.org/Graphics/SVG/1.1/DTD/svg11.dtd">
<svg version="1.1" xmlns="http://www.w3.org/2000/svg" xmlns:xlink="http://www.w3.org/1999/xlink" width="24" height="24" viewBox="0 0 24 24">
<path fill="#444444" d="M23 22v-1h-1v1h-1v-10h-5v10h-1v-20h-5v20h-1v-12h-1v-1h-1v1h-2v-1h-1v13h-2v-22h-2v24h24v-2h-1zM7 22h-1v-10h1v10zM13 22h-1v-18h1v18zM19 22h-1v-8h1v8zM4 0h1v1h-1zM7 0h1v1h-1zM10 0h1v1h-1zM13 0h1v1h-1zM16 0h1v1h-1zM19 0h1v1h-1zM22 0h1v1h-1zM22 3h1v1h-1zM19 3h1v1h-1zM16 3h1v1h-1zM16 6h1v1h-1zM19 6h1v1h-1zM22 6h1v1h-1zM22 9.002h1v1h-1zM19 9h1v1h-1zM16 9h1v1h-1zM22 12h1v1h-1zM22 15h1v1h-1zM22 18h1v1h-1zM7 3h1v1h-1zM7 6h1v1h-1zM4 6h1v1h-1zM4 3h1v1h-1z"></path>
</svg>
