<?xml version="1.0" encoding="utf-8"?>
<!-- Generated by IcoMoon.io -->
<!DOCTYPE svg PUBLIC "-//W3C//DTD SVG 1.1//EN" "http://www.w3.org/Graphics/SVG/1.1/DTD/svg11.dtd">
<svg version="1.1" xmlns="http://www.w3.org/2000/svg" xmlns:xlink="http://www.w3.org/1999/xlink" width="32" height="32" viewBox="0 0 32 32">
<path fill="#444444" d="M15.5 31.062c-6.904 0-12.5-5.597-12.5-12.5 0-5.315 3.323-9.844 8-11.651v4.449c-2.399 1.503-4 4.162-4 7.202 0 4.694 3.806 8.5 8.5 8.5s8.5-3.806 8.5-8.5c0-2.596-1.166-4.915-3-6.475v-4.736c4.143 2.036 7 6.284 7 11.212 0 6.903-5.597 12.499-12.5 12.499zM16 17.062c-1.104 0-2-0.896-2-2v-11.124c0-1.104 0.896-2 2-2s2 0.896 2 2v11.125c0 1.104-0.896 1.999-2 1.999z"></path>
</svg>
