<?xml version="1.0" encoding="utf-8"?>
<!-- Generated by IcoMoon.io -->
<!DOCTYPE svg PUBLIC "-//W3C//DTD SVG 1.1//EN" "http://www.w3.org/Graphics/SVG/1.1/DTD/svg11.dtd">
<svg version="1.1" xmlns="http://www.w3.org/2000/svg" xmlns:xlink="http://www.w3.org/1999/xlink" width="32" height="32" viewBox="0 0 32 32">
<path fill="#444444" d="M17 0h-2c-6.076 0-11 4.925-11 11 0 4.275 2.438 7.98 6 9.801v1.199c0 1.105 0.895 2 2 2h8c1.105 0 2-0.895 2-2v-1.2c3.561-1.821 6-5.526 6-9.8 0-6.075-4.926-11-11-11zM18 17.929v2.071h-4v-2.071c-3.392-0.485-6-3.402-6-6.929 0-3.866 3.135-7 7-7h2c3.865 0 7 3.134 7 7 0 3.527-2.608 6.443-6 6.929zM13 26h6c0.553 0 1 0.448 1 1s-0.447 1-1 1h-6c-0.553 0-1-0.448-1-1s0.447-1 1-1zM15 30h2c0.553 0 1 0.448 1 1s-0.447 1-1 1h-2c-0.553 0-1-0.448-1-1s0.447-1 1-1z"></path>
</svg>
