<?xml version="1.0" encoding="utf-8"?>
<!-- Generated by IcoMoon.io -->
<!DOCTYPE svg PUBLIC "-//W3C//DTD SVG 1.1//EN" "http://www.w3.org/Graphics/SVG/1.1/DTD/svg11.dtd">
<svg version="1.1" xmlns="http://www.w3.org/2000/svg" xmlns:xlink="http://www.w3.org/1999/xlink" width="32" height="32" viewBox="0 0 32 32">
<path fill="#444444" d="M16 12c-2.209 0-4 1.791-4 4s1.791 4 4 4c0.179 0 0.354-0.012 0.527-0.035-1.448-0.221-2.558-1.471-2.558-2.981 0-1.665 1.35-3.016 3.016-3.016 1.51 0 2.761 1.11 2.981 2.558 0.023-0.172 0.035-0.348 0.035-0.527 0-2.209-1.791-4-4-4zM28 8h-4l-4-4h-8l-4 4h-4c-1.105 0-2 0.895-2 2v14c0 1.105 0.895 2 2 2h24c1.105 0 2-0.895 2-2v-14c0-1.105-0.895-2-2-2zM13 6h6l2 2h-10l2-2zM5.004 24c-0.555 0-1.004-0.45-1.004-1.004v-8.996h2v-2h-2v-0.996c0-0.555 0.45-1.004 1.004-1.004h5.704c-0.124 0.11-0.246 0.224-0.365 0.343-3.124 3.124-3.124 8.189 0 11.314l2.343 2.343h-7.682zM16 22c-3.314 0-6-2.686-6-6s2.686-6 6-6 6 2.686 6 6-2.686 6-6 6zM26 15l-4.709-5h4.709v5z"></path>
</svg>
