<?xml version="1.0" encoding="utf-8"?>
<!-- Generated by IcoMoon.io -->
<!DOCTYPE svg PUBLIC "-//W3C//DTD SVG 1.1//EN" "http://www.w3.org/Graphics/SVG/1.1/DTD/svg11.dtd">
<svg version="1.1" xmlns="http://www.w3.org/2000/svg" xmlns:xlink="http://www.w3.org/1999/xlink" width="32" height="32" viewBox="0 0 32 32">
<path fill="#444444" d="M16 27.969c-0.649 0-1.599-0.73-2.229-0.797-1.797 1.507-3.669 3.321-6.214 4.264-1.111 0.471-2.065 0.744-2.313 0.447-0.333-0.387-0.836-0.924-0.925-1.068 0.005-0.214 0.264-0.045 0.546-0.349 1.536-0.646 2.528-2.313 3.195-4.351-4.811-2.411-8.060-6.934-8.060-12.128 0-7.721 7.164-13.981 16-13.981s16 6.259 16 13.981-7.164 13.982-16 13.982z"></path>
</svg>
