<?xml version="1.0" encoding="UTF-8"?>
<!DOCTYPE svg PUBLIC "-//W3C//DTD SVG 1.1//EN" "http://www.w3.org/Graphics/SVG/1.1/DTD/svg11.dtd">
<!-- Creator: CorelDRAW X8 -->
<svg xmlns="http://www.w3.org/2000/svg" xml:space="preserve" width="1.38946in" height="1.38946in" version="1.1" style="shape-rendering:geometricPrecision; text-rendering:geometricPrecision; image-rendering:optimizeQuality; fill-rule:evenodd; clip-rule:evenodd"
viewBox="0 0 311 311"
 xmlns:xlink="http://www.w3.org/1999/xlink">
 <defs>
  <style type="text/css">
   <![CDATA[
    .fil0 {fill:black}
   ]]>
  </style>
 </defs>
 <g id="Layer_x0020_1">
  <metadata id="CorelCorpID_0Corel-Layer"/>
  <path class="fil0" d="M74 207l162 0c17,0 17,21 0,21l-162 0c-16,0 -16,-21 0,-21zm0 -62l162 0c17,0 17,21 0,21l-162 0c-16,0 -16,-21 0,-21zm0 -62l162 0c17,0 17,21 0,21l-162 0c-16,0 -16,-21 0,-21zm-74 -64l0 273c0,9 10,19 19,19l273 0c9,0 19,-10 19,-19l0 -273c0,-9 -10,-19 -19,-19l-273 0c-9,0 -19,10 -19,19z"/>
 </g>
</svg>
