<?xml version="1.0" encoding="utf-8"?>
<!-- Generated by IcoMoon.io -->
<!DOCTYPE svg PUBLIC "-//W3C//DTD SVG 1.1//EN" "http://www.w3.org/Graphics/SVG/1.1/DTD/svg11.dtd">
<svg version="1.1" xmlns="http://www.w3.org/2000/svg" xmlns:xlink="http://www.w3.org/1999/xlink" width="24" height="24" viewBox="0 0 24 24">
<path fill="#444444" d="M17.502 12.033l-4.241-2.458 2.138-5.131c0.066-0.134 0.103-0.285 0.103-0.444 0-0.552-0.445-1-0.997-1-0.249 0.004-0.457 0.083-0.622 0.214-0.033 0.026-0.053 0.042-0.070 0.060l-7.5 7.1c-0.229 0.217-0.342 0.529-0.306 0.842s0.219 0.591 0.491 0.75l4.242 2.46-2.163 5.19c-0.183 0.436-0.034 0.94 0.354 1.208 0.173 0.118 0.372 0.176 0.569 0.176 0.248 0 0.496-0.093 0.688-0.274l7.5-7.102c0.229-0.217 0.342-0.529 0.306-0.842-0.037-0.313-0.22-0.591-0.492-0.749z"></path>
</svg>
