<?xml version="1.0" encoding="utf-8"?>
<!-- Generated by IcoMoon.io -->
<!DOCTYPE svg PUBLIC "-//W3C//DTD SVG 1.1//EN" "http://www.w3.org/Graphics/SVG/1.1/DTD/svg11.dtd">
<svg version="1.1" xmlns="http://www.w3.org/2000/svg" xmlns:xlink="http://www.w3.org/1999/xlink" width="48" height="48" viewBox="0 0 48 48">
<path fill="#444444" d="M24.625 18c2.161 0.5 3.879 2.34 4.379 4.35 0.172 0.94 0.99 1.65 1.971 1.65 1.1 0 2-0.9 2-2 0-1.439-1.209-3.63-2.859-5.27-1.622-1.6-3.552-2.73-5.142-2.73-1.1 0-2 0.931-2 2.030 0.001 0.98 0.711 1.8 1.651 1.97zM5.975 23.5c0 1.010 0.080 2.010 0.25 2.971l-3.49 1.14c-1.32 0.43-2.040 1.84-1.61 3.149 0.43 1.32 1.84 2.030 3.15 1.61l3.49-1.14c0.89 1.8 2.080 3.43 3.5 4.81l-2.16 2.979c-0.81 1.12-0.56 2.681 0.56 3.49 1.11 0.811 2.68 0.57 3.49-0.55l2.161-2.979c1.73 0.92 3.64 1.56 5.66 1.84v3.68c0 1.38 1.12 2.5 2.5 2.5s2.5-1.12 2.5-2.5v-3.68c2.020-0.28 3.93-0.92 5.66-1.84l2.16 2.979c0.811 1.12 2.381 1.36 3.49 0.55 1.119-0.81 1.369-2.37 0.561-3.49l-2.17-2.979c1.43-1.38 2.619-3.010 3.5-4.81l3.5 1.14c1.309 0.42 2.719-0.29 3.148-1.61 0.43-1.31-0.289-2.72-1.609-3.149l-3.49-1.14c0.17-0.961 0.25-1.961 0.25-2.971s-0.080-2.010-0.25-2.97l3.49-1.141c1.32-0.43 2.039-1.84 1.609-3.149-0.43-1.32-1.84-2.030-3.148-1.61l-3.5 1.14c-0.881-1.799-2.070-3.43-3.5-4.819l2.17-2.97c0.809-1.12 0.559-2.681-0.561-3.49-1.109-0.81-2.68-0.57-3.49 0.55l-2.16 2.97c-1.74-0.91-3.641-1.55-5.66-1.829l-0-3.682c0-1.38-1.12-2.5-2.5-2.5s-2.5 1.12-2.5 2.5v3.681c-2.020 0.279-3.93 0.919-5.66 1.829l-2.161-2.97c-0.81-1.12-2.38-1.359-3.49-0.55-1.12 0.81-1.37 2.37-0.56 3.49l2.16 2.97c-1.42 1.39-2.61 3.021-3.5 4.819l-3.49-1.14c-1.31-0.42-2.72 0.29-3.15 1.61-0.43 1.31 0.29 2.72 1.61 3.149l3.49 1.141c-0.17 0.961-0.25 1.961-0.25 2.971zM10.975 23.5c0-6.9 5.6-12.5 12.5-12.5s12.5 5.6 12.5 12.5-5.6 12.5-12.5 12.5c-6.9 0-12.5-5.6-12.5-12.5z"></path>
</svg>
