<?xml version="1.0" encoding="utf-8"?>
<!-- Generated by IcoMoon.io -->
<!DOCTYPE svg PUBLIC "-//W3C//DTD SVG 1.1//EN" "http://www.w3.org/Graphics/SVG/1.1/DTD/svg11.dtd">
<svg version="1.1" xmlns="http://www.w3.org/2000/svg" xmlns:xlink="http://www.w3.org/1999/xlink" width="32" height="32" viewBox="0 0 32 32">
<path fill="#444444" d="M20.5 15h-9c-1.104 0-2 0.896-2 2s0.896 2 2 2h9c1.104 0 2-0.896 2-2s-0.896-2-2-2zM13.583 8l-1.083 6h7l-1.084-6h-4.833zM16 29l1.5-9h-3l1.5 9zM13 7h6c0.828 0 1.5-0.672 1.5-1.5s-0.672-1.5-1.5-1.5h-6c-0.829 0-1.5 0.672-1.5 1.5s0.671 1.5 1.5 1.5z"></path>
</svg>
