<?xml version="1.0" encoding="utf-8"?>
<!-- Generated by IcoMoon.io -->
<!DOCTYPE svg PUBLIC "-//W3C//DTD SVG 1.1//EN" "http://www.w3.org/Graphics/SVG/1.1/DTD/svg11.dtd">
<svg version="1.1" xmlns="http://www.w3.org/2000/svg" xmlns:xlink="http://www.w3.org/1999/xlink" width="24" height="24" viewBox="0 0 24 24">
<path fill="#444444" d="M16.433 8.596c-1.153 0-2.237 0.449-3.036 1.246l-1.396 1.34-1.375-1.32c-0.815-0.817-1.901-1.266-3.055-1.266s-2.239 0.451-3.053 1.266c-0.817 0.816-1.267 1.9-1.267 3.055 0 1.152 0.449 2.238 1.266 3.053 0.814 0.816 1.899 1.266 3.054 1.266 1.153 0 2.239-0.449 3.036-1.248l1.395-1.338 1.376 1.32c0.815 0.816 1.901 1.266 3.055 1.266s2.238-0.449 3.053-1.266c0.817-0.814 1.267-1.9 1.267-3.055s-0.449-2.238-1.266-3.055c-0.817-0.815-1.901-1.264-3.054-1.264zM8.857 14.201c-0.687 0.688-1.884 0.688-2.572 0-0.344-0.344-0.533-0.801-0.533-1.285 0-0.486 0.189-0.941 0.535-1.287 0.342-0.344 0.799-0.533 1.284-0.533s0.942 0.189 1.305 0.551l1.321 1.27-1.34 1.284zM17.718 14.201c-0.687 0.689-1.866 0.705-2.59-0.018l-1.321-1.27 1.339-1.285c0.688-0.688 1.886-0.688 2.573-0.002 0.344 0.346 0.533 0.801 0.533 1.287s-0.19 0.944-0.534 1.288z"></path>
</svg>
