<?xml version="1.0" encoding="utf-8"?>
<!-- Generated by IcoMoon.io -->
<!DOCTYPE svg PUBLIC "-//W3C//DTD SVG 1.1//EN" "http://www.w3.org/Graphics/SVG/1.1/DTD/svg11.dtd">
<svg version="1.1" xmlns="http://www.w3.org/2000/svg" xmlns:xlink="http://www.w3.org/1999/xlink" width="18" height="18" viewBox="0 0 18 18">
<path fill="#444444" d="M9 1c-4.418 0-8 3.582-8 8s3.582 8 8 8 8-3.582 8-8-3.582-8-8-8zM9 15c-3.309 0-6-2.692-6-6s2.691-6 6-6 6 2.692 6 6-2.691 6-6 6z"></path>
<path fill="#444444" d="M11.010 9h-1.51c-0.276 0-0.5-0.224-0.5-0.5v-1.51c0-0.547-0.443-0.99-0.99-0.99h-0.020c-0.547 0-0.99 0.443-0.99 0.99v3.020c0 0.547 0.443 0.99 0.99 0.99h3.020c0.547 0 0.99-0.443 0.99-0.99v-0.020c0-0.547-0.443-0.99-0.99-0.99z"></path>
</svg>
