<?xml version="1.0" encoding="utf-8"?>
<!-- Generated by IcoMoon.io -->
<!DOCTYPE svg PUBLIC "-//W3C//DTD SVG 1.1//EN" "http://www.w3.org/Graphics/SVG/1.1/DTD/svg11.dtd">
<svg version="1.1" xmlns="http://www.w3.org/2000/svg" xmlns:xlink="http://www.w3.org/1999/xlink" width="24" height="24" viewBox="0 0 24 24">
<path fill="#444444" d="M20.812 8c-0.412-1.164-1.523-2-2.826-2h-14.988c-1.653 0-2.998 1.346-2.998 3v7c0 1.654 1.345 3 2.998 3h14.987c1.303 0 2.414-0.836 2.826-2h2.169v-9h-2.168zM18.983 16c0 0.551-0.447 1-0.998 1h-14.987c-0.552 0-1-0.449-1-1v-7c0-0.551 0.448-1 1-1h14.987c0.551 0 0.998 0.449 0.998 1v7zM20.982 15h-0.999v-5h0.999v5zM10.097 15l0.998-2h4.996l-5.994-3-1 2h-4.996l5.996 3z"></path>
</svg>
