<?xml version="1.0" encoding="utf-8"?>
<!-- Generated by IcoMoon.io -->
<!DOCTYPE svg PUBLIC "-//W3C//DTD SVG 1.1//EN" "http://www.w3.org/Graphics/SVG/1.1/DTD/svg11.dtd">
<svg version="1.1" xmlns="http://www.w3.org/2000/svg" xmlns:xlink="http://www.w3.org/1999/xlink" width="24" height="24" viewBox="0 0 24 24">
<path fill="#444444" d="M15.984 13.5q0.609 0 1.055-0.422t0.445-1.078-0.445-1.078-1.055-0.422-1.055 0.422-0.445 1.078 0.445 1.078 1.055 0.422zM12 15.984v-7.969h9.984v7.969h-9.984zM21 18v0.984q0 0.797-0.609 1.406t-1.406 0.609h-13.969q-0.844 0-1.43-0.609t-0.586-1.406v-13.969q0-0.797 0.586-1.406t1.43-0.609h13.969q0.797 0 1.406 0.609t0.609 1.406v0.984h-9q-0.844 0-1.43 0.609t-0.586 1.406v7.969q0 0.797 0.586 1.406t1.43 0.609h9z"></path>
</svg>
