<?xml version="1.0" encoding="utf-8"?>
<!-- Generated by IcoMoon.io -->
<!DOCTYPE svg PUBLIC "-//W3C//DTD SVG 1.1//EN" "http://www.w3.org/Graphics/SVG/1.1/DTD/svg11.dtd">
<svg version="1.1" xmlns="http://www.w3.org/2000/svg" xmlns:xlink="http://www.w3.org/1999/xlink" width="38" height="32" viewBox="0 0 38 32">
<path fill="#444444" d="M29.998 28.197c-4.212 0-7.627-3.414-7.627-7.627 0-3.090 1.842-5.745 4.484-6.943l-1.014-2.283 0.165 0.399-6.944 9.321v1.869h1.017v1.018h-3.052v-1.018h1.018v-1.018l-2.877-0.27c-0.524 3.701-3.696 6.551-7.542 6.551-4.212 0.001-7.626-3.413-7.626-7.626 0-4.212 3.414-7.626 7.627-7.626 1.101 0 2.145 0.238 3.090 0.657l1.906-4.788-0.865-2.416c-0.38 0-0.734 0-1.017 0-0.954 0-0.699-1.017-0.699-1.017s0.063-0.89 0.763-0.89 0.699 0.636 1.843 0.636c1.095 0 2.669 0.317 2.669 0.317s0.699 0.953-0.635 0.953c-0.604 0-1.269 0-1.907 0l0.723 2.597h11.052l-0.868-1.973h-0.675v-1.016h4.067v1.017h-2.298l2.977 6.26c0.71-0.219 1.465-0.337 2.246-0.337 4.212 0 7.627 3.414 7.627 7.626-0.001 4.213-3.416 7.627-7.628 7.627zM7.627 13.96c-3.651 0-6.61 2.959-6.61 6.61s2.959 6.609 6.61 6.609c3.319 0 6.060-2.449 6.53-5.639l-5.294-0.545c-0.084 0.477-0.481 0.846-0.982 0.846-0.562 0-1.017-0.455-1.017-1.018 0-0.561 0.455-1.018 1.017-1.018 0.12 0 0.232 0.031 0.339 0.070l2.121-5.33c-0.829-0.372-1.746-0.585-2.714-0.585zM9.152 20.125l5.079 0.537c0.001-0.031 0.005-0.061 0.005-0.092 0-2.35-1.229-4.408-3.077-5.581l-2.007 5.136zM13.077 10.082l-1.543 3.948c2.225 1.332 3.719 3.759 3.719 6.541 0 0.066-0.008 0.133-0.010 0.199l1.726 0.182-3.892-10.87zM24.978 9.396v0.614h-11.12l4.050 10.839 7.687-10.065-0.617-1.388zM29.998 13.96c-0.637 0-1.251 0.095-1.834 0.264l2.374 5.424c0.482 0.078 0.858 0.48 0.858 0.984 0 0.562-0.455 1.018-1.017 1.018s-1.018-0.455-1.018-1.018c0-0.273 0.111-0.521 0.289-0.705l-2.384-5.372c-2.287 1.040-3.879 3.338-3.879 6.014 0 3.65 2.959 6.609 6.609 6.609s6.609-2.959 6.609-6.609-2.957-6.609-6.607-6.609z"></path>
</svg>
