<?xml version="1.0" encoding="utf-8"?>
<!-- Generated by IcoMoon.io -->
<!DOCTYPE svg PUBLIC "-//W3C//DTD SVG 1.1//EN" "http://www.w3.org/Graphics/SVG/1.1/DTD/svg11.dtd">
<svg version="1.1" xmlns="http://www.w3.org/2000/svg" xmlns:xlink="http://www.w3.org/1999/xlink" width="24" height="24" viewBox="0 0 24 24">
<path fill="#444444" d="M8.5 7.999c0.827 0 1.5 0.673 1.5 1.5s-0.673 1.5-1.5 1.5-1.5-0.673-1.5-1.5 0.673-1.5 1.5-1.5zM8.5 6.999c-1.381 0-2.5 1.119-2.5 2.5s1.119 2.5 2.5 2.5 2.5-1.119 2.5-2.5-1.119-2.5-2.5-2.5z"></path>
<path fill="#444444" d="M16 11.999c0.45 0.051 1.27 1.804 1.779 4.001h-11.392c0.434-1.034 1.055-2.001 1.612-2.001 0.806 0 1.125 0.185 1.53 0.42 0.447 0.258 1.006 0.58 1.97 0.58 1.138 0 1.942-0.885 2.653-1.666 0.627-0.687 1.218-1.334 1.848-1.334zM16 10.999c-2 0-3 3-4.5 3s-1.499-1-3.5-1c-2 0-3.001 4-3.001 4h14.001c0 0-1-6-3-6z"></path>
<path fill="#444444" d="M22 6c0-1.104-0.896-2-2-2h-16c-1.104 0-2 0.896-2 2v12c0 1.104 0.896 2 2 2h16c1.104 0 2-0.896 2-2v-12zM20 18h-16v-12h16.003l-0.003 12z"></path>
</svg>
