<?xml version="1.0" encoding="utf-8"?>
<!-- Generated by IcoMoon.io -->
<!DOCTYPE svg PUBLIC "-//W3C//DTD SVG 1.1//EN" "http://www.w3.org/Graphics/SVG/1.1/DTD/svg11.dtd">
<svg version="1.1" xmlns="http://www.w3.org/2000/svg" xmlns:xlink="http://www.w3.org/1999/xlink" width="48" height="48" viewBox="0 0 48 48">
<path fill="#444444" d="M23 41v-4h12.020c1.090 0 1.98-0.9 1.98-2 0-0.55-0.221-1.050-0.58-1.41l-7.51-7.59h3.109c1.090 0 1.98-0.9 1.98-2 0-0.55-0.221-1.050-0.58-1.41l-7.509-7.59h3.109c1.090 0 1.98-0.92 1.98-2.050 0-0.561-0.221-1.070-0.58-1.44l-10.509-10.91c-0.78-0.8-2.040-0.8-2.819 0l-10.491 10.89c-0.37 0.37-0.6 0.89-0.6 1.46 0 1.13 0.89 2.050 1.98 2.050h3.1l-7.48 7.569c-0.37 0.362-0.6 0.87-0.6 1.431 0 1.1 0.89 2 1.98 2h3.1l-7.48 7.569c-0.37 0.362-0.6 0.87-0.6 1.431 0 1.1 0.89 2 1.98 2l13.020 0v4c0 1.1-0.9 2-2 2h-10.5c-1.38 0-2.5 1.12-2.5 2.5s1.12 2.5 2.5 2.5h43c1.38 0 2.5-1.12 2.5-2.5s-1.12-2.5-2.5-2.5h-20.5c-1.1 0-2-0.9-2-2z"></path>
</svg>
