<?xml version="1.0" encoding="utf-8"?>
<!-- Generated by IcoMoon.io -->
<!DOCTYPE svg PUBLIC "-//W3C//DTD SVG 1.1//EN" "http://www.w3.org/Graphics/SVG/1.1/DTD/svg11.dtd">
<svg version="1.1" xmlns="http://www.w3.org/2000/svg" xmlns:xlink="http://www.w3.org/1999/xlink" width="24" height="24" viewBox="0 0 24 24">
<path fill="#444444" d="M12 21c-4.962 0-9-4.037-9-9s4.038-9 9-9 9 4.037 9 9-4.038 9-9 9zM12 5c-3.86 0-7 3.141-7 7s3.14 7 7 7 7-3.141 7-7-3.14-7-7-7z"></path>
<path fill="#444444" d="M12 6.5c-3.033 0-5.5 2.468-5.5 5.5s2.467 5.5 5.5 5.5 5.5-2.468 5.5-5.5-2.467-5.5-5.5-5.5zM16.49 11.902c-1.048-0.186-2.1-0.18-3.103 0.042-0.127-0.326-0.267-0.647-0.417-0.965 0.875-0.524 1.652-1.221 2.284-2.070 0.746 0.785 1.211 1.834 1.236 2.993zM14.49 8.256c-0.546 0.748-1.215 1.367-1.975 1.832-0.479-0.856-1.046-1.663-1.692-2.412 0.378-0.103 0.767-0.176 1.177-0.176 0.921 0 1.776 0.28 2.49 0.756zM9.849 8.072c0.687 0.758 1.278 1.59 1.776 2.473-1.238 0.531-2.622 0.691-3.998 0.437 0.293-1.259 1.118-2.302 2.222-2.91zM7.5 12c0.468 0.064 0.936 0.121 1.399 0.121 1.106 0 2.187-0.244 3.185-0.683 0.123 0.261 0.238 0.524 0.344 0.793-1.469 0.526-2.769 1.489-3.728 2.805-0.738-0.802-1.2-1.862-1.2-3.036zM9.448 15.699c0.842-1.189 2.004-2.057 3.318-2.527 0.314 1.001 0.518 2.039 0.596 3.095-0.433 0.138-0.884 0.233-1.362 0.233-0.948 0-1.826-0.298-2.552-0.801zM14.32 15.836c-0.099-1-0.296-1.983-0.593-2.937 0.87-0.176 1.778-0.172 2.683 0.001-0.256 1.247-1.035 2.296-2.090 2.936z"></path>
</svg>
