<?xml version="1.0" encoding="utf-8"?>
<!-- Generated by IcoMoon.io -->
<!DOCTYPE svg PUBLIC "-//W3C//DTD SVG 1.1//EN" "http://www.w3.org/Graphics/SVG/1.1/DTD/svg11.dtd">
<svg version="1.1" xmlns="http://www.w3.org/2000/svg" xmlns:xlink="http://www.w3.org/1999/xlink" width="32" height="32" viewBox="0 0 32 32">
<path fill="#444444" d="M12.951 27.977c-0.025 0.025-0.051 0.051-0.075 0.076-2.508 2.399-6.497 2.446-8.916 0.096-2.566-2.415-2.617-5.913 0.044-8.604 0.021-0.021 0.038-0.043 0.059-0.064 0.025-0.023 0.049-0.048 0.073-0.071l16.655-16.188c1.526-1.452 3.946-1.478 5.414-0.051 0.883 1.258 1.439 3.789-0.049 5.261l-0.137 0.134-1.563 1.517-1.434 1.395-13.501 13.105-0.038-0.047-0.035 0.039-0.069 0.076c-0.006 0.004-0.013 0.008-0.018 0.014-0.558 0.504-1.419 0.508-1.946-0.004-0.522-0.508-0.521-1.252-0.001-1.806 0.017-0.016 0.027-0.035 0.044-0.051l12.599-12.243-1.517-1.471-11.085 10.773-1.346 1.469v0.002c-0.004 0.004-0.008 0.006-0.013 0.012-0.012 0.012-0.022 0.023-0.034 0.036-1.383 1.381-1.574 3.388-0.21 4.715 1.365 1.325 3.602 1.22 5.022-0.125l0.002 0.002 0.028-0.029c0.003-0.002 0.006-0.004 0.008-0.006 0.003-0.002 0.005-0.006 0.007-0.008l15.052-14.376 1.561-1.519 0.139-0.133-0.002-0.002c2.356-2.323 1.237-6.674 0.098-8.248-2.318-2.252-6.134-2.197-8.523 0.126-0.035 0.033-0.064 0.070-0.098 0.105l-0.004-0.003-16.52 16.058c-0.013 0.014-0.027 0.023-0.041 0.037-0.023 0.021-0.044 0.049-0.067 0.072l-0.024 0.023 0.001 0.002c-3.277 3.282-3.331 8.443-0.092 11.594 3.271 3.179 8.658 3.099 12.030-0.178 0.014-0.014 0.024-0.027 0.038-0.041l0.004 0.004 17.529-17.035-1.516-1.473-17.533 17.033z"></path>
</svg>
