<?xml version="1.0" encoding="utf-8"?>
<!-- Generated by IcoMoon.io -->
<!DOCTYPE svg PUBLIC "-//W3C//DTD SVG 1.1//EN" "http://www.w3.org/Graphics/SVG/1.1/DTD/svg11.dtd">
<svg version="1.1" xmlns="http://www.w3.org/2000/svg" xmlns:xlink="http://www.w3.org/1999/xlink" width="24" height="24" viewBox="0 0 24 24">
<path fill="#444444" d="M18 6h-6c0-1.104-0.896-2-2-2h-4c-1.654 0-3 1.346-3 3v10c0 1.654 1.346 3 3 3h12c1.654 0 3-1.346 3-3v-8c0-1.654-1.346-3-3-3zM6 6h4c0 1.104 0.896 2 2 2h6c0.552 0 1 0.448 1 1h-14v-2c0-0.552 0.448-1 1-1zM18 18h-12c-0.552 0-1-0.448-1-1v-7h14v7c0 0.552-0.448 1-1 1z"></path>
</svg>
