<?xml version="1.0" encoding="utf-8"?>
<!-- Generated by IcoMoon.io -->
<!DOCTYPE svg PUBLIC "-//W3C//DTD SVG 1.1//EN" "http://www.w3.org/Graphics/SVG/1.1/DTD/svg11.dtd">
<svg version="1.1" xmlns="http://www.w3.org/2000/svg" xmlns:xlink="http://www.w3.org/1999/xlink" width="24" height="24" viewBox="0 0 24 24">
<path fill="#444444" d="M19 17h-14c-1.103 0-2 0.897-2 2s0.897 2 2 2h14c1.103 0 2-0.897 2-2s-0.897-2-2-2z"></path>
<path fill="#444444" d="M19 10h-14c-1.103 0-2 0.897-2 2s0.897 2 2 2h14c1.103 0 2-0.897 2-2s-0.897-2-2-2z"></path>
<path fill="#444444" d="M19 3h-14c-1.103 0-2 0.897-2 2s0.897 2 2 2h14c1.103 0 2-0.897 2-2s-0.897-2-2-2z"></path>
</svg>
