<?xml version="1.0" encoding="utf-8"?>
<!-- Generated by IcoMoon.io -->
<!DOCTYPE svg PUBLIC "-//W3C//DTD SVG 1.1//EN" "http://www.w3.org/Graphics/SVG/1.1/DTD/svg11.dtd">
<svg version="1.1" xmlns="http://www.w3.org/2000/svg" xmlns:xlink="http://www.w3.org/1999/xlink" width="48" height="48" viewBox="0 0 48 48">
<path fill="#444444" d="M0 26c0 2.21 1.79 4 4 4h10v14c0 2.21 1.79 4 4 4s4-1.79 4-4l-0-14h14.010c1.4 0 2.67-0.58 3.58-1.51l6.939-6.94c1.961-1.96 1.961-5.14 0-7.1l-6.939-6.94c-0.91-0.93-2.18-1.51-3.58-1.51h-14.010v-2c0-2.21-1.79-4-4-4s-4 1.79-4 4v2h-10c-2.21 0-4 1.79-4 4v16z"></path>
</svg>
