<?xml version="1.0" encoding="utf-8"?>
<!-- Generated by IcoMoon.io -->
<!DOCTYPE svg PUBLIC "-//W3C//DTD SVG 1.1//EN" "http://www.w3.org/Graphics/SVG/1.1/DTD/svg11.dtd">
<svg version="1.1" xmlns="http://www.w3.org/2000/svg" xmlns:xlink="http://www.w3.org/1999/xlink" width="48" height="48" viewBox="0 0 48 48">
<path fill="#444444" d="M1.859 30.819l-1.859 14.492c0 1.489 1.2 2.689 2.689 2.689l14.49-1.86c0.43-0.060 0.86-0.26 1.19-0.6 0.84-0.84 0.84-2.189 0-3.030l-2.42-2.42 5.38-5.37c0.89-0.89 0.89-2.33 0-3.22l-4.83-4.83c-0.891-0.89-2.33-0.89-3.221 0l-5.368 5.37-2.42-2.41c-0.84-0.84-2.19-0.84-3.030 0-0.34 0.33-0.54 0.76-0.601 1.189zM46.14 30.819c-0.060-0.43-0.26-0.859-0.6-1.189-0.84-0.84-2.19-0.84-3.030 0l-2.42 2.41-5.37-5.37c-0.89-0.89-2.33-0.89-3.22 0l-4.83 4.83c-0.891 0.89-0.891 2.33 0 3.22l5.38 5.37-2.42 2.42c-0.84 0.841-0.84 2.19 0 3.030 0.33 0.34 0.76 0.54 1.189 0.6l14.492 1.86c1.489 0 2.689-1.2 2.689-2.689l-1.86-14.492zM1.859 17.181c0.061 0.429 0.261 0.859 0.601 1.189 0.84 0.84 2.19 0.84 3.030 0l2.42-2.41 5.369 5.37c0.891 0.89 2.33 0.89 3.221 0l4.83-4.83c0.89-0.89 0.89-2.33 0-3.22l-5.38-5.37 2.42-2.42c0.84-0.84 0.84-2.19 0-3.030-0.33-0.34-0.761-0.54-1.19-0.6l-14.491-1.86c-1.489 0-2.689 1.2-2.689 2.689l1.859 14.492zM46.14 17.181l1.86-14.492c0-1.489-1.2-2.689-2.689-2.689l-14.492 1.86c-0.43 0.060-0.859 0.26-1.189 0.6-0.84 0.84-0.84 2.19 0 3.030l2.42 2.42-5.38 5.37c-0.891 0.89-0.891 2.33 0 3.22l4.83 4.83c0.89 0.89 2.33 0.89 3.22 0l5.37-5.37 2.42 2.41c0.84 0.84 2.19 0.84 3.030 0 0.34-0.33 0.54-0.76 0.6-1.189z"></path>
</svg>
