<?xml version="1.0" encoding="utf-8"?>
<!-- Generated by IcoMoon.io -->
<!DOCTYPE svg PUBLIC "-//W3C//DTD SVG 1.1//EN" "http://www.w3.org/Graphics/SVG/1.1/DTD/svg11.dtd">
<svg version="1.1" xmlns="http://www.w3.org/2000/svg" xmlns:xlink="http://www.w3.org/1999/xlink" width="24" height="24" viewBox="0 0 24 24">
<path fill="#444444" d="M21.157 10.764c0-0.785-0.269-1.464-0.706-2.048-0.045-0.094-0.131-0.149-0.21-0.226-0.163-0.18-0.341-0.338-0.536-0.48-4.45-3.739-10.965-3.735-15.414 0.006-0.193 0.142-0.742 0.738-0.742 0.738-0.437 0.584-0.706 1.305-0.706 2.090 0 0.816 0.362 1.758 0.759 2.155s5.775 5.796 5.775 5.796c0.642 0.732 1.572 1.204 2.622 1.204 0.996 0 1.709-0.167 2.526-1 0.004 0 5.565-5.646 5.565-5.646 0.706-0.703 1.067-1.699 1.067-2.589zM12.001 17.998c-0.829 0.002-1.501-0.668-1.501-1.498-0.002-0.828 0.67-1.502 1.501-1.502 0.829-0.002 1.501 0.67 1.499 1.502 0.002 0.828-0.67 1.5-1.499 1.498zM15.889 14.73c-0.293 0.293-0.677 0.438-1.061 0.438-0.385 0-0.768-0.146-1.061-0.438-0.976-0.976-2.562-0.976-3.536 0-0.586 0.586-1.536 0.584-2.122 0-0.586-0.586-0.586-1.537 0-2.123 2.144-2.144 5.632-2.144 7.779 0 0.587 0.586 0.587 1.538 0.001 2.123zM18.718 11.902c-0.293 0.293-0.677 0.438-1.061 0.438s-0.769-0.146-1.062-0.438c-2.533-2.534-6.658-2.534-9.192 0-0.586 0.584-1.536 0.584-2.122 0-0.585-0.586-0.585-1.536 0-2.123 3.704-3.701 9.729-3.701 13.435 0 0.587 0.588 0.587 1.537 0.002 2.123z"></path>
</svg>
