<?xml version="1.0" encoding="utf-8"?>
<!-- Generated by IcoMoon.io -->
<!DOCTYPE svg PUBLIC "-//W3C//DTD SVG 1.1//EN" "http://www.w3.org/Graphics/SVG/1.1/DTD/svg11.dtd">
<svg version="1.1" xmlns="http://www.w3.org/2000/svg" xmlns:xlink="http://www.w3.org/1999/xlink" width="42" height="32" viewBox="0 0 42 32">
<path fill="#444444" d="M37.5 1h-16c-0.397 0-0.74 0.136-1 0.362-0.26-0.226-0.603-0.362-1-0.362h-16c-0.869 0-1.5 0.631-1.5 1.5v28c0 0.869 0.631 1.5 1.5 1.5h16c0.397 0 0.74-0.136 1-0.362 0.26 0.226 0.603 0.362 1 0.362h16c0.869 0 1.5-0.631 1.5-1.5v-28c0-0.869-0.631-1.5-1.5-1.5zM19.5 31h-16c-0.313 0-0.5-0.187-0.5-0.5v-28c0-0.313 0.187-0.5 0.5-0.5h16c0.313 0 0.5 0.187 0.5 0.5v28c0 0.313-0.187 0.5-0.5 0.5zM38 30.5c0 0.313-0.187 0.5-0.5 0.5h-16c-0.313 0-0.5-0.187-0.5-0.5v-28c0-0.313 0.187-0.5 0.5-0.5h16c0.313 0 0.5 0.187 0.5 0.5v28zM40.5 3c-0.276 0-0.5 0.224-0.5 0.5v26c0 0.276 0.224 0.5 0.5 0.5s0.5-0.224 0.5-0.5v-26c0-0.276-0.224-0.5-0.5-0.5zM0.5 30c0.276 0 0.5-0.224 0.5-0.5v-26c0-0.276-0.224-0.5-0.5-0.5s-0.5 0.224-0.5 0.5v26c0 0.276 0.224 0.5 0.5 0.5zM17.5 10h-12c-0.276 0-0.5 0.224-0.5 0.5s0.224 0.5 0.5 0.5h12c0.276 0 0.5-0.224 0.5-0.5s-0.224-0.5-0.5-0.5zM17.5 14h-12c-0.276 0-0.5 0.224-0.5 0.5s0.224 0.5 0.5 0.5h12c0.276 0 0.5-0.224 0.5-0.5s-0.224-0.5-0.5-0.5zM17.5 6h-12c-0.276 0-0.5 0.224-0.5 0.5s0.224 0.5 0.5 0.5h12c0.276 0 0.5-0.224 0.5-0.5s-0.224-0.5-0.5-0.5zM17.5 18h-12c-0.276 0-0.5 0.224-0.5 0.5s0.224 0.5 0.5 0.5h12c0.276 0 0.5-0.224 0.5-0.5s-0.224-0.5-0.5-0.5zM17.5 22h-12c-0.276 0-0.5 0.224-0.5 0.5s0.224 0.5 0.5 0.5h12c0.276 0 0.5-0.224 0.5-0.5s-0.224-0.5-0.5-0.5zM17.5 26h-12c-0.276 0-0.5 0.224-0.5 0.5s0.224 0.5 0.5 0.5h12c0.276 0 0.5-0.224 0.5-0.5s-0.224-0.5-0.5-0.5zM35.5 10h-12c-0.276 0-0.5 0.224-0.5 0.5s0.224 0.5 0.5 0.5h12c0.276 0 0.5-0.224 0.5-0.5s-0.224-0.5-0.5-0.5zM35.5 14h-12c-0.276 0-0.5 0.224-0.5 0.5s0.224 0.5 0.5 0.5h12c0.276 0 0.5-0.224 0.5-0.5s-0.224-0.5-0.5-0.5zM35.5 6h-12c-0.276 0-0.5 0.224-0.5 0.5s0.224 0.5 0.5 0.5h12c0.276 0 0.5-0.224 0.5-0.5s-0.224-0.5-0.5-0.5zM35.5 18h-12c-0.276 0-0.5 0.224-0.5 0.5s0.224 0.5 0.5 0.5h12c0.276 0 0.5-0.224 0.5-0.5s-0.224-0.5-0.5-0.5zM35.5 22h-12c-0.276 0-0.5 0.224-0.5 0.5s0.224 0.5 0.5 0.5h12c0.276 0 0.5-0.224 0.5-0.5s-0.224-0.5-0.5-0.5zM35.5 26h-12c-0.276 0-0.5 0.224-0.5 0.5s0.224 0.5 0.5 0.5h12c0.276 0 0.5-0.224 0.5-0.5s-0.224-0.5-0.5-0.5z"></path>
</svg>
