<?xml version="1.0" encoding="utf-8"?>
<!-- Generated by IcoMoon.io -->
<!DOCTYPE svg PUBLIC "-//W3C//DTD SVG 1.1//EN" "http://www.w3.org/Graphics/SVG/1.1/DTD/svg11.dtd">
<svg version="1.1" xmlns="http://www.w3.org/2000/svg" xmlns:xlink="http://www.w3.org/1999/xlink" width="28" height="32" viewBox="0 0 28 32">
<path fill="#444444" d="M4 12h-4v8h4l8 6h2v-20h-2l-8 6zM16.828 13.172c-0.39-0.391-1.024-0.391-1.414 0s-0.39 1.024 0 1.414c0.781 0.781 0.781 2.047 0 2.828-0.39 0.39-0.39 1.024 0 1.414s1.024 0.39 1.414 0c1.562-1.562 1.562-4.095 0-5.657zM19.657 10.343c-0.39-0.391-1.024-0.391-1.414 0s-0.39 1.024 0 1.414c2.343 2.343 2.343 6.142 0 8.485-0.39 0.391-0.39 1.024 0 1.414s1.024 0.39 1.414 0c3.124-3.124 3.124-8.19 0-11.314zM22.485 7.515c-0.391-0.391-1.024-0.391-1.414 0s-0.39 1.024 0 1.414c3.905 3.905 3.905 10.237 0 14.142-0.39 0.391-0.39 1.024 0 1.414s1.024 0.391 1.414 0c4.686-4.686 4.686-12.284 0-16.971z"></path>
</svg>
