<?xml version="1.0" encoding="utf-8"?>
<!-- Generated by IcoMoon.io -->
<!DOCTYPE svg PUBLIC "-//W3C//DTD SVG 1.1//EN" "http://www.w3.org/Graphics/SVG/1.1/DTD/svg11.dtd">
<svg version="1.1" xmlns="http://www.w3.org/2000/svg" xmlns:xlink="http://www.w3.org/1999/xlink" width="48" height="48" viewBox="0 0 48 48">
<path fill="#444444" d="M16 8c0 4.42 3.58 8 8 8s8-3.58 8-8-3.58-8-8-8-8 3.58-8 8zM16 25v18h-2.5c-1.38 0-2.5 1.12-2.5 2.5s1.12 2.5 2.5 2.5h21c1.38 0 2.5-1.12 2.5-2.5s-1.12-2.5-2.5-2.5h-2.5v-20.8c0-1.22-0.98-2.2-2.2-2.2h-16.3c-1.38 0-2.5 1.12-2.5 2.5s1.12 2.5 2.5 2.5h2.5z"></path>
</svg>
