<?xml version="1.0" encoding="utf-8"?>
<!-- Generated by IcoMoon.io -->
<!DOCTYPE svg PUBLIC "-//W3C//DTD SVG 1.1//EN" "http://www.w3.org/Graphics/SVG/1.1/DTD/svg11.dtd">
<svg version="1.1" xmlns="http://www.w3.org/2000/svg" xmlns:xlink="http://www.w3.org/1999/xlink" width="18" height="18" viewBox="0 0 18 18">
<path fill="#444444" d="M5.964 4l1.268 1.268c0.472 0.472 1.1 0.732 1.768 0.732h6v8h-12v-10h2.964zM6.586 2h-4.586c-0.552 0-1 0.448-1 1v12c0 0.552 0.448 1 1 1h14c0.552 0 1-0.448 1-1v-10c0-0.552-0.448-1-1-1h-7c-0.133 0-0.26-0.053-0.353-0.146l-1.707-1.707c-0.094-0.094-0.221-0.146-0.354-0.146v0z"></path>
</svg>
