<?xml version="1.0" encoding="utf-8"?>
<!-- Generated by IcoMoon.io -->
<!DOCTYPE svg PUBLIC "-//W3C//DTD SVG 1.1//EN" "http://www.w3.org/Graphics/SVG/1.1/DTD/svg11.dtd">
<svg version="1.1" xmlns="http://www.w3.org/2000/svg" xmlns:xlink="http://www.w3.org/1999/xlink" width="35" height="32" viewBox="0 0 35 32">
<path fill="#444444" d="M17.162 4.341c-10.562 0-17.162 11.659-17.162 11.659s6.537 11.659 17.162 11.659c9.938 0 17.481-11.659 17.481-11.659s-7.481-11.659-17.481-11.659zM17.256 21.251c-2.894 0-5.238-2.345-5.238-5.238s2.345-5.239 5.238-5.239 5.239 2.346 5.239 5.239-2.346 5.238-5.239 5.238zM17.288 13.394c-1.44 0-2.607 1.168-2.607 2.607s1.167 2.607 2.607 2.607 2.607-1.167 2.607-2.607c0.001-1.439-1.166-2.607-2.607-2.607z"></path>
</svg>
