<?xml version="1.0" encoding="utf-8"?>
<!-- Generated by IcoMoon.io -->
<!DOCTYPE svg PUBLIC "-//W3C//DTD SVG 1.1//EN" "http://www.w3.org/Graphics/SVG/1.1/DTD/svg11.dtd">
<svg version="1.1" xmlns="http://www.w3.org/2000/svg" xmlns:xlink="http://www.w3.org/1999/xlink" width="24" height="24" viewBox="0 0 24 24">
<path fill="#444444" d="M11.768 1l-4 5h-4c-1.655 0-2.768 1.596-2.768 3.25v5.75c0 1.654 1.113 3 2.768 3h4l4 5c1 0 2.232 0 2.232 0v-22c-1 0-1.232 0-2.232 0zM7 16h-3.232c-0.553 0-0.768-0.449-0.768-1v-5.75c0-0.551 0.215-1.25 0.768-1.25h3.232v8zM12 20l-4-4v-8l4-4v16zM17 11h6v2h-6z"></path>
</svg>
