<?xml version="1.0" encoding="UTF-8"?>
<!DOCTYPE svg PUBLIC "-//W3C//DTD SVG 1.1//EN" "http://www.w3.org/Graphics/SVG/1.1/DTD/svg11.dtd">
<!-- Creator: CorelDRAW X8 -->
<svg xmlns="http://www.w3.org/2000/svg" xml:space="preserve" width="1.45392in" height="0.84044in" version="1.1" style="shape-rendering:geometricPrecision; text-rendering:geometricPrecision; image-rendering:optimizeQuality; fill-rule:evenodd; clip-rule:evenodd"
viewBox="0 0 1193 895"
 xmlns:xlink="http://www.w3.org/1999/xlink">
 <defs>
  <style type="text/css">
   <![CDATA[
    .fil0 {fill:black}
   ]]>
  </style>
 </defs>
 <g id="Layer_x0020_1">
  <metadata id="CorelCorpID_0Corel-Layer"/>
  <g id="_133259718816">
   <path class="fil0" d="M953 382c47,11 96,47 123,86 8,11 14,19 20,32 65,137 -20,320 -218,320l-603 0c-99,0 -175,-56 -195,-145 -2,-9 -6,-35 -5,-43 0,-11 3,-31 6,-41 16,-73 79,-131 153,-141 6,-1 17,-2 21,-2 9,-1 12,2 22,2 -1,-20 -54,-116 45,-214 21,-21 63,-43 100,-47 25,-3 40,-3 64,3 13,3 18,5 29,9 8,3 15,9 25,11 6,-25 32,-51 44,-66 13,-17 44,-38 64,-48 123,-61 278,7 312,141 7,27 4,26 8,49 6,38 -14,86 -15,94zm-953 268l0 -32c3,-52 22,-104 59,-149 26,-34 88,-81 127,-85 0,-73 20,-140 71,-190 6,-6 10,-11 16,-16 12,-12 44,-32 59,-40 54,-27 116,-33 176,-19 8,-15 29,-35 41,-45 63,-53 120,-74 210,-74 42,0 105,20 138,41 9,6 14,8 22,14l55 52c6,6 10,13 15,19l26 45c25,59 29,78 29,146 0,12 -2,10 -3,21 37,19 82,60 103,95 3,6 6,9 10,16 31,56 39,95 39,161 0,42 -20,105 -42,138 -13,21 -28,43 -45,60l-20 17c-24,22 -59,40 -90,52 -21,9 -63,18 -87,18l-662 0c-31,0 -77,-14 -99,-25 -90,-46 -142,-130 -148,-220z"/>
   <path class="fil0" d="M596 298c-124,0 -223,105 -223,212l0 23c0,109 104,212 212,212l23 0c108,0 212,-98 212,-223l-75 0c0,28 -10,62 -27,84 -4,7 -8,10 -12,16 -50,58 -152,67 -215,5 -41,-41 -56,-113 -30,-166 9,-18 20,-35 35,-48 6,-5 10,-8 16,-13 22,-16 56,-27 84,-27l0 74c26,-13 175,-106 187,-109l0 -5c-13,-3 -161,-96 -187,-109l0 74z"/>
  </g>
 </g>
</svg>
