<?xml version="1.0" encoding="utf-8"?>
<!-- Generated by IcoMoon.io -->
<!DOCTYPE svg PUBLIC "-//W3C//DTD SVG 1.1//EN" "http://www.w3.org/Graphics/SVG/1.1/DTD/svg11.dtd">
<svg version="1.1" xmlns="http://www.w3.org/2000/svg" xmlns:xlink="http://www.w3.org/1999/xlink" width="24" height="24" viewBox="0 0 24 24">
<path fill="#444444" d="M20.016 14.016v-6h-3v1.969h-2.016v-1.969h-6v1.969h-2.016v-1.969h-3v6h16.031zM20.016 18.984v-1.969h-16.031v1.969h16.031zM9 3.984v2.016h6v-2.016h-6zM20.016 6q0.844 0 1.406 0.586t0.563 1.43v10.969q0 0.844-0.563 1.43t-1.406 0.586h-16.031q-0.844 0-1.406-0.586t-0.563-1.43v-10.969q0-0.844 0.563-1.43t1.406-0.586h3v-2.016q0-0.844 0.586-1.406t1.43-0.563h6q0.844 0 1.43 0.563t0.586 1.406v2.016h3z"></path>
</svg>
