<?xml version="1.0" encoding="UTF-8"?>
<!DOCTYPE svg PUBLIC "-//W3C//DTD SVG 1.1//EN" "http://www.w3.org/Graphics/SVG/1.1/DTD/svg11.dtd">
<!-- Creator: CorelDRAW X8 -->
<svg xmlns="http://www.w3.org/2000/svg" xml:space="preserve" width="2.09171in" height="2.09053in" version="1.1" style="shape-rendering:geometricPrecision; text-rendering:geometricPrecision; image-rendering:optimizeQuality; fill-rule:evenodd; clip-rule:evenodd"
viewBox="0 0 363 362"
 xmlns:xlink="http://www.w3.org/1999/xlink">
 <defs>
  <style type="text/css">
   <![CDATA[
    .fil0 {fill:black}
   ]]>
  </style>
 </defs>
 <g id="Layer_x0020_1">
  <metadata id="CorelCorpID_0Corel-Layer"/>
  <path class="fil0" d="M158 164l0 -109c0,-29 26,-35 41,-20 4,4 6,11 6,20l0 109c0,9 -2,15 -6,20 -11,14 -41,13 -41,-20zm-60 13c0,18 0,27 8,43 2,4 5,8 8,12 14,19 34,32 58,34 9,1 8,1 18,0 39,-3 75,-40 75,-79 0,-21 -3,-34 -15,-52 -7,-10 -18,-20 -30,-26l0 -62c2,1 14,5 24,9 7,4 14,8 20,13 3,2 6,4 9,6 9,8 23,25 30,36 2,4 4,7 6,11 11,23 16,54 12,81 -4,28 -13,46 -29,68l-17 17c-6,5 -8,8 -18,14 -20,12 -37,18 -60,21 -3,1 -5,0 -8,1 -20,2 -43,-3 -62,-11 -12,-5 -25,-13 -35,-21l-27 -29c-24,-34 -30,-79 -20,-117 7,-26 24,-53 44,-70 9,-7 19,-14 29,-19 4,-2 8,-4 12,-5 2,-2 3,-2 6,-3 2,0 5,-1 6,-2l0 62c-24,13 -44,41 -44,68zm-98 3c0,32 8,61 20,84l10 17c1,2 1,2 3,4l9 13c7,7 15,16 23,22l13 10c11,8 16,10 29,16 54,26 122,21 171,-12 17,-11 29,-20 42,-36l10 -13c1,-2 1,-2 2,-3 34,-51 41,-119 14,-176l-7 -15c-8,-13 -19,-27 -30,-38 -8,-8 -17,-16 -27,-23 -2,-1 -2,-1 -4,-2 -49,-32 -117,-37 -171,-12 -12,6 -14,7 -26,14 -1,1 -2,1 -3,3 -18,12 -27,22 -41,38l-13 20c-15,26 -24,55 -24,89z"/>
 </g>
</svg>
