<?xml version="1.0" encoding="utf-8"?>
<!-- Generated by IcoMoon.io -->
<!DOCTYPE svg PUBLIC "-//W3C//DTD SVG 1.1//EN" "http://www.w3.org/Graphics/SVG/1.1/DTD/svg11.dtd">
<svg version="1.1" xmlns="http://www.w3.org/2000/svg" xmlns:xlink="http://www.w3.org/1999/xlink" width="32" height="32" viewBox="0 0 32 32">
<path fill="#444444" d="M28.058 2.998c-0.655 0.003-1.393 0.011-2.376 0.034-0.823 0.020-1.595 0.49-1.463 1.033 1.022 4.93 1.030 9.917 0.134 14.847-0.114 0.543 0.612 1.014 1.396 1.033 0.938 0.023 1.661 0.031 2.312 0.034 0.535 0.002 0.937-0.446 0.939-0.998v-14.985c-0.004-0.552-0.402-1-0.942-0.998zM22 3.996h-0.101c-0.463-2.28-2.48-3.996-4.899-3.996h-8c-2.419 0-4.436 1.716-4.899 3.996h7.899c1.104 0 2 0.895 2 1.998h-8c-1.104 0-2 0.895-2 1.998s0.896 1.998 2 1.998h8v1.998h-9c-1.104 0-2 0.895-2 1.998s0.896 1.998 2 1.998h9v1.998h-9c-1.104 0-2 0.895-2 1.998s0.896 1.998 2 1.998h8.75l-0.125 1.499-0.625 4.996c0 1.931 1.567 3.496 3.5 3.496 1.934 0 3.5 0.433 3.5-1.499l0.571-3.496 0.428-2.988 1.001-6.503c0-0.104-0.015-0.184-0.035-0.258l0.035-0.242 0.914-0.6c0 0 0.086-0.257 0.086-0.399v-10.989c0-0.552-0.447-0.999-1-0.999z"></path>
</svg>
