<?xml version="1.0" encoding="utf-8"?>
<!-- Generated by IcoMoon.io -->
<!DOCTYPE svg PUBLIC "-//W3C//DTD SVG 1.1//EN" "http://www.w3.org/Graphics/SVG/1.1/DTD/svg11.dtd">
<svg version="1.1" xmlns="http://www.w3.org/2000/svg" xmlns:xlink="http://www.w3.org/1999/xlink" width="48" height="48" viewBox="0 0 48 48">
<path fill="#444444" d="M15 24.5c0 1.38 1.12 2.5 2.5 2.5s2.5-1.12 2.5-2.5-1.12-2.5-2.5-2.5-2.5 1.12-2.5 2.5zM27 24.5c0 1.38 1.12 2.5 2.5 2.5s2.5-1.12 2.5-2.5-1.12-2.5-2.5-2.5-2.5 1.12-2.5 2.5zM0 44c0 2.21 1.79 4 4 4h39c2.21 0 4-1.79 4-4l-0-39c0-2.21-1.79-4-4-4l-39 0c-2.21 0-4 1.79-4 4v39zM10 24.5c0-7.46 6.040-13.5 13.5-13.5s13.5 6.040 13.5 13.5-6.040 13.5-13.5 13.5-13.5-6.040-13.5-13.5z"></path>
</svg>
