<?xml version="1.0" encoding="utf-8"?>
<!-- Generated by IcoMoon.io -->
<!DOCTYPE svg PUBLIC "-//W3C//DTD SVG 1.1//EN" "http://www.w3.org/Graphics/SVG/1.1/DTD/svg11.dtd">
<svg version="1.1" xmlns="http://www.w3.org/2000/svg" xmlns:xlink="http://www.w3.org/1999/xlink" width="24" height="24" viewBox="0 0 24 24">
<path fill="#444444" d="M12 3.5c-4.688 0-8.5 3.812-8.5 8.5s3.812 8.5 8.5 8.5 8.5-3.812 8.5-8.5-3.812-8.5-8.5-8.5zM18.5 12c0 1.064-0.264 2.066-0.718 2.956l-1.931-1.931c0.088-0.332 0.147-0.674 0.147-1.025 0-0.355-0.062-0.693-0.147-1.021l1.932-1.932c0.455 0.889 0.717 1.891 0.717 2.953zM5.5 12c0-1.064 0.264-2.066 0.718-2.956l1.933 1.933c-0.086 0.33-0.147 0.668-0.147 1.022 0 0.353 0.062 0.69 0.147 1.021l-1.934 1.934c-0.455-0.89-0.717-1.892-0.717-2.954zM8.568 9.98l-1.775-1.775 1.414-1.414 1.775 1.775c-0.584 0.345-1.068 0.83-1.414 1.414zM6.791 15.793l1.773-1.773c0.17 0.289 0.362 0.564 0.605 0.809s0.52 0.438 0.807 0.607l-1.771 1.771-1.414-1.414zM10.586 13.414c-0.377-0.378-0.585-0.88-0.584-1.414 0-1.104 0.896-2 1.998-2 1.104 0 2 0.896 2 2.001 0.001 0.533-0.207 1.035-0.584 1.412-0.755 0.757-2.073 0.757-2.83 0.001zM17.209 8.207l-1.775 1.775c-0.345-0.586-0.828-1.069-1.412-1.416l1.773-1.773 1.414 1.414zM14.831 14.826c0.241-0.242 0.435-0.518 0.604-0.803l1.771 1.771-1.414 1.414-1.772-1.772c0.291-0.17 0.567-0.366 0.811-0.61zM14.956 6.218l-1.933 1.932c-0.328-0.088-0.668-0.15-1.023-0.15s-0.693 0.062-1.021 0.148l-1.932-1.932c0.889-0.455 1.891-0.717 2.953-0.717 1.064 0.001 2.066 0.265 2.956 0.719zM9.044 17.782l1.933-1.933c0.332 0.088 0.672 0.149 1.023 0.149s0.691-0.062 1.021-0.147l1.932 1.932c-0.889 0.455-1.891 0.717-2.953 0.717-1.064 0-2.066-0.264-2.956-0.718z"></path>
</svg>
