<?xml version="1.0" encoding="utf-8"?>
<!-- Generated by IcoMoon.io -->
<!DOCTYPE svg PUBLIC "-//W3C//DTD SVG 1.1//EN" "http://www.w3.org/Graphics/SVG/1.1/DTD/svg11.dtd">
<svg version="1.1" xmlns="http://www.w3.org/2000/svg" xmlns:xlink="http://www.w3.org/1999/xlink" width="16" height="32" viewBox="0 0 16 32">
<path fill="#444444" d="M6.125 22l2 10 2-10c-0.625 0.063-1.344 0.094-2 0.094s-1.375-0.031-2-0.094zM14.063 12.656c-1.031-0.531-1.938-1.844-1.938-2.656v-2c0-0.688 0.375-1.219 0.719-1.625 0.469-0.406 0.75-0.906 0.75-1.406 0-1.656-1.906-2.969-5.469-2.969s-5.469 1.313-5.469 2.969c0 0.5 0.281 1 0.75 1.406 0.344 0.406 0.719 0.938 0.719 1.625v2c0 0.813-0.906 2.125-1.938 2.656-1.188 0.594-2.188 1.688-2.188 2.75 0 2.313 3.156 4.625 8.125 4.625s8.125-2.281 8.125-4.625c0-1.031-0.969-2.125-2.188-2.75z"></path>
</svg>
