<?xml version="1.0" encoding="utf-8"?>
<!-- Generated by IcoMoon.io -->
<!DOCTYPE svg PUBLIC "-//W3C//DTD SVG 1.1//EN" "http://www.w3.org/Graphics/SVG/1.1/DTD/svg11.dtd">
<svg version="1.1" xmlns="http://www.w3.org/2000/svg" xmlns:xlink="http://www.w3.org/1999/xlink" width="24" height="24" viewBox="0 0 24 24">
<path fill="#444444" d="M5.999 17c-0.677 0-1.342-0.234-1.873-0.658-0.626-0.501-1.019-1.215-1.107-2.011s0.138-1.58 0.639-2.206l4-5c0.978-1.225 2.883-1.471 4.143-0.523l1.674 1.254 2.184-2.729c0.571-0.716 1.425-1.127 2.342-1.127 0.679 0 1.343 0.232 1.873 0.657 0.626 0.501 1.021 1.216 1.108 2.013s-0.14 1.58-0.641 2.204l-4 5c-0.977 1.226-2.882 1.471-4.143 0.526l-1.674-1.256-2.184 2.729c-0.57 0.716-1.424 1.127-2.341 1.127zM10 8c-0.306 0-0.591 0.137-0.781 0.374l-4 5.001c-0.167 0.208-0.243 0.471-0.213 0.734 0.030 0.266 0.161 0.504 0.369 0.67 0.228 0.183 0.465 0.221 0.624 0.221 0.306 0 0.591-0.137 0.782-0.376l3.395-4.244 3.224 2.42c0.42 0.316 1.056 0.231 1.381-0.176l4-5.001c0.167-0.208 0.242-0.469 0.213-0.734-0.030-0.266-0.161-0.504-0.369-0.67-0.227-0.182-0.464-0.22-0.624-0.22-0.306 0-0.591 0.137-0.782 0.376l-3.395 4.242-3.224-2.417c-0.175-0.132-0.382-0.2-0.6-0.2z"></path>
<path fill="#444444" d="M19 21h-14c-0.552 0-1-0.447-1-1s0.448-1 1-1h14c0.552 0 1 0.447 1 1s-0.448 1-1 1z"></path>
</svg>
