<?xml version="1.0" encoding="utf-8"?>
<!-- Generated by IcoMoon.io -->
<!DOCTYPE svg PUBLIC "-//W3C//DTD SVG 1.1//EN" "http://www.w3.org/Graphics/SVG/1.1/DTD/svg11.dtd">
<svg version="1.1" xmlns="http://www.w3.org/2000/svg" xmlns:xlink="http://www.w3.org/1999/xlink" width="32" height="32" viewBox="0 0 32 32">
<path fill="#444444" d="M24 2c-4.418 0-8 2.617-8 5.84 0 3.871 1 6.066 0 12.16 0-9-5.531-12.681-8-12.681 0.102-1.005-0.967-1.319-0.967-1.319s-0.438 0.223-0.605 0.674c-0.538-0.627-1.13-0.548-1.13-0.548l-0.265 1.159c0 0-3.658 1.277-3.707 6.447 0.425 0.675 3.091 1.209 4.984 0.866 1.786 0.092 1.343 1.583 0.944 1.983-1.687 1.687-3.253-0.58-5.253-0.58s-2 2 0 2 2 2 6 2c-6.188 2.406 0 8 0 8h-2c-2 0-2 2-2 2s8 0 12 0c6 0 10-2 10-6.943 0-1.698-0.866-3.582-2-5.070-2.217-2.907 0.452-5.349 2-3.987s6 2 6-4c0-4.418-3.582-8-8-8zM5 12c-0.552 0-1-0.448-1-1s0.448-1 1-1c0.552 0 1 0.448 1 1s-0.448 1-1 1z"></path>
</svg>
