<?xml version="1.0" encoding="utf-8"?>
<!-- Generated by IcoMoon.io -->
<!DOCTYPE svg PUBLIC "-//W3C//DTD SVG 1.1//EN" "http://www.w3.org/Graphics/SVG/1.1/DTD/svg11.dtd">
<svg version="1.1" xmlns="http://www.w3.org/2000/svg" xmlns:xlink="http://www.w3.org/1999/xlink" width="32" height="32" viewBox="0 0 32 32">
<path fill="#444444" d="M16 3c-7.18 0-13 5.82-13 13s5.82 13 13 13 13-5.82 13-13-5.82-13-13-13zM16 27c-6.075 0-11-4.925-11-11s4.925-11 11-11 11 4.925 11 11-4.925 11-11 11zM14.652 11.771c-0.674-0.739-1.483-1.108-2.431-1.108-0.97 0-1.77 0.336-2.397 1.009-0.253 0.276-0.455 0.601-0.604 0.976s-0.223 0.756-0.223 1.141c0 0.794 0.224 1.47 0.67 2.027s1.029 0.89 1.747 1l0.249 0.016 0.215 0.034c0.331 0.044 0.497 0.171 0.497 0.38 0 0.221-0.221 0.568-0.663 1.042-0.464 0.507-1.198 1.021-2.203 1.538-0.42 0.221-0.629 0.496-0.629 0.827 0 0.21 0.071 0.384 0.215 0.521 0.143 0.138 0.325 0.206 0.546 0.206 0.551 0 1.312-0.319 2.282-0.959 1.146-0.75 2.062-1.662 2.745-2.738 0.684-1.074 1.025-2.136 1.025-3.184 0-0.496-0.094-0.989-0.281-1.48s-0.441-0.906-0.76-1.248zM22.523 11.771c-0.67-0.739-1.473-1.108-2.408-1.108-0.979 0-1.777 0.336-2.393 1.009-0.254 0.276-0.454 0.604-0.603 0.984s-0.223 0.758-0.223 1.133c0 0.794 0.22 1.473 0.659 2.035s1.018 0.893 1.732 0.992l0.264 0.016 0.197 0.034c0.33 0.044 0.495 0.171 0.495 0.38 0 0.221-0.215 0.568-0.644 1.042-0.451 0.485-1.183 0.998-2.194 1.538-0.419 0.221-0.628 0.496-0.628 0.827 0 0.21 0.072 0.384 0.215 0.521 0.144 0.138 0.325 0.206 0.545 0.206 0.55 0 1.31-0.319 2.277-0.959 1.145-0.75 2.056-1.662 2.732-2.738 0.676-1.074 1.015-2.136 1.015-3.184 0-0.496-0.093-0.989-0.28-1.48-0.185-0.49-0.438-0.906-0.758-1.248z"></path>
</svg>
