<?xml version="1.0" encoding="utf-8"?>
<!-- Generated by IcoMoon.io -->
<!DOCTYPE svg PUBLIC "-//W3C//DTD SVG 1.1//EN" "http://www.w3.org/Graphics/SVG/1.1/DTD/svg11.dtd">
<svg version="1.1" xmlns="http://www.w3.org/2000/svg" xmlns:xlink="http://www.w3.org/1999/xlink" width="24" height="24" viewBox="0 0 24 24">
<path fill="#444444" d="M10 20c-0.802 0-1.555-0.312-2.122-0.879-0.566-0.566-0.878-1.32-0.878-2.121s0.312-1.555 0.879-2.122l2.878-2.878-2.878-2.879c-0.567-0.566-0.879-1.32-0.879-2.121s0.312-1.555 0.879-2.122c1.133-1.132 3.109-1.133 4.243 0.001l7.121 7.121-7.122 7.121c-0.566 0.567-1.319 0.879-2.121 0.879zM10 6c-0.268 0-0.518 0.104-0.707 0.292-0.189 0.19-0.293 0.441-0.293 0.708s0.104 0.518 0.293 0.707l4.292 4.293-4.292 4.293c-0.189 0.189-0.293 0.439-0.293 0.707s0.104 0.518 0.293 0.707c0.378 0.379 1.037 0.378 1.414 0.001l5.708-5.708-5.708-5.707c-0.189-0.189-0.439-0.293-0.707-0.293z"></path>
</svg>
