<?xml version="1.0" encoding="utf-8"?>
<!-- Generated by IcoMoon.io -->
<!DOCTYPE svg PUBLIC "-//W3C//DTD SVG 1.1//EN" "http://www.w3.org/Graphics/SVG/1.1/DTD/svg11.dtd">
<svg version="1.1" xmlns="http://www.w3.org/2000/svg" xmlns:xlink="http://www.w3.org/1999/xlink" width="42" height="32" viewBox="0 0 42 32">
<path fill="#444444" d="M39.5 14h-37c-0.154 0-0.3 0.071-0.395 0.192s-0.128 0.279-0.091 0.429l4.006 16.017c0.096 0.337 0.391 1.362 1.48 1.362h27c1.093 0 1.385-1.026 1.485-1.379l4-16c0.037-0.149 0.004-0.308-0.091-0.429s-0.24-0.192-0.394-0.192zM35.020 30.363c-0.182 0.637-0.37 0.637-0.52 0.637h-27c-0.149 0-0.336 0-0.515-0.621l-3.844-15.379h35.719l-3.84 15.363zM18.5 28c0.276 0 0.5-0.224 0.5-0.5v-9c0-0.276-0.224-0.5-0.5-0.5s-0.5 0.224-0.5 0.5v9c0 0.276 0.224 0.5 0.5 0.5zM11.499 28c0.019 0 0.037-0.001 0.057-0.003 0.274-0.031 0.472-0.278 0.441-0.552l-1-9c-0.030-0.275-0.27-0.469-0.553-0.442-0.274 0.031-0.472 0.278-0.441 0.552l1 9c0.028 0.256 0.245 0.445 0.496 0.445zM24.5 28c0.276 0 0.5-0.224 0.5-0.5v-9c0-0.276-0.224-0.5-0.5-0.5s-0.5 0.224-0.5 0.5v9c0 0.276 0.224 0.5 0.5 0.5zM30.444 27.997c0.020 0.002 0.038 0.003 0.057 0.003 0.251 0 0.468-0.189 0.496-0.445l1-9c0.030-0.274-0.167-0.521-0.441-0.552-0.287-0.028-0.522 0.167-0.553 0.442l-1 9c-0.030 0.274 0.167 0.521 0.441 0.552zM34.5 12c0.116 0 0.232-0.040 0.327-0.122 0.209-0.181 0.231-0.496 0.051-0.705l-9.5-11c-0.181-0.21-0.496-0.231-0.705-0.052-0.209 0.181-0.231 0.496-0.051 0.705l9.5 11c0.099 0.115 0.238 0.174 0.378 0.174zM17.816 0.113c-0.213-0.173-0.528-0.144-0.703 0.071l-9 11c-0.175 0.213-0.144 0.528 0.070 0.704 0.093 0.075 0.206 0.112 0.317 0.112 0.145 0 0.288-0.062 0.387-0.184l9-11c0.175-0.213 0.143-0.528-0.071-0.703zM41.5 10h-4c-0.276 0-0.5 0.224-0.5 0.5s0.224 0.5 0.5 0.5h4c0.276 0 0.5-0.224 0.5-0.5s-0.224-0.5-0.5-0.5zM13.5 11h16c0.276 0 0.5-0.224 0.5-0.5s-0.224-0.5-0.5-0.5h-16c-0.276 0-0.5 0.224-0.5 0.5s0.224 0.5 0.5 0.5zM0.5 11h5c0.276 0 0.5-0.224 0.5-0.5s-0.224-0.5-0.5-0.5h-5c-0.276 0-0.5 0.224-0.5 0.5s0.224 0.5 0.5 0.5z"></path>
</svg>
