<?xml version="1.0" encoding="UTF-8"?>
<!DOCTYPE svg PUBLIC "-//W3C//DTD SVG 1.1//EN" "http://www.w3.org/Graphics/SVG/1.1/DTD/svg11.dtd">
<!-- Creator: CorelDRAW X8 -->
<svg xmlns="http://www.w3.org/2000/svg" xml:space="preserve" width="2.15809in" height="1.88883in" version="1.1" style="shape-rendering:geometricPrecision; text-rendering:geometricPrecision; image-rendering:optimizeQuality; fill-rule:evenodd; clip-rule:evenodd"
viewBox="0 0 1219 1067"
 xmlns:xlink="http://www.w3.org/1999/xlink">
 <defs>
  <style type="text/css">
   <![CDATA[
    .fil0 {fill:black}
   ]]>
  </style>
 </defs>
 <g id="Layer_x0020_1">
  <metadata id="CorelCorpID_0Corel-Layer"/>
  <path class="fil0" d="M76 512l0 174c-44,0 -76,36 -76,69l0 167c0,32 32,69 76,69 0,43 37,76 69,76 25,0 42,-3 62,-22 9,-10 22,-29 22,-47l0 -319c0,-33 -33,-69 -77,-69 0,-99 0,-170 33,-256 63,-161 204,-253 369,-273l56 -5 78 7c21,3 53,12 72,17 55,15 108,47 152,81 56,43 96,105 123,170 32,82 32,163 32,259 -44,0 -76,36 -76,69l0 319c0,18 12,37 22,47 29,30 78,30 108,0 14,-14 22,-32 22,-54 23,0 40,-8 54,-22 10,-10 22,-30 22,-47l0 -167c0,-33 -32,-69 -76,-69 0,-174 14,-295 -78,-444 -36,-59 -84,-110 -142,-148l-40 -24c-63,-39 -176,-70 -252,-70 -69,0 -81,0 -151,15 -54,12 -135,46 -179,79 -27,19 -66,48 -86,73 -15,18 -20,19 -45,53 -56,79 -94,189 -94,292z"/>
 </g>
</svg>
