<?xml version="1.0" encoding="utf-8"?>
<!-- Generated by IcoMoon.io -->
<!DOCTYPE svg PUBLIC "-//W3C//DTD SVG 1.1//EN" "http://www.w3.org/Graphics/SVG/1.1/DTD/svg11.dtd">
<svg version="1.1" xmlns="http://www.w3.org/2000/svg" xmlns:xlink="http://www.w3.org/1999/xlink" width="32" height="32" viewBox="0 0 32 32">
<path fill="#444444" d="M26.84 16.824c0 0-1.119-1.833-2.363-1.833-1.242 0-2.547 1.895-2.547 1.895s-1.367-1.893-2.486-1.893c-0.947 0-2.062 1.302-2.385 1.704v7.24c0 0.725-0.074 1.338-0.223 1.844-0.148 0.504-0.368 0.914-0.659 1.23-0.29 0.316-0.652 0.547-1.086 0.689-0.433 0.143-0.935 0.213-1.505 0.213-0.519 0-0.983-0.078-1.394-0.234-0.411-0.158-0.757-0.381-1.039-0.672s-0.499-0.641-0.65-1.053c-0.15-0.41-0.227-0.869-0.227-1.375v-0.699h1.98c0 0.656-0.005 1.516 0.234 1.85 0.239 0.332 0.604 0.5 1.095 0.5 0.331 0 0.804-0.164 0.804-0.164s0.362-0.26 0.471-0.457c0.108-0.195 0.218-0.709 0.218-0.709s0.056-0.58 0.056-0.912v-7.406c-0.443-0.501-1.53-1.622-2.401-1.622-1.118 0-2.672 1.864-2.672 1.864s-1.491-1.864-2.486-1.864c-0.994 0-2.423 1.864-2.423 1.864s-0.436-9.756 9.445-10.75l1.43-1.988 1.368 1.988c10.189 0.621 9.445 10.75 9.445 10.75z"></path>
</svg>
