<?xml version="1.0" encoding="utf-8"?>
<!-- Generated by IcoMoon.io -->
<!DOCTYPE svg PUBLIC "-//W3C//DTD SVG 1.1//EN" "http://www.w3.org/Graphics/SVG/1.1/DTD/svg11.dtd">
<svg version="1.1" xmlns="http://www.w3.org/2000/svg" xmlns:xlink="http://www.w3.org/1999/xlink" width="32" height="32" viewBox="0 0 32 32">
<path fill="#444444" d="M17 26c0 0 6.188-2.062 11 1.812 0-0.062 0-1.812 0-1.812-5.625-3.125-11 0-11 0zM2 6v19.875c0 0 2.688-1.938 6.5-1.938s6.5 1.938 6.5 1.938v-19.625c0 0-2.688-2.25-6.5-2.25s-6.5 2-6.5 2zM4 8h4v5h-4v-5zM13 21h-9v-1h9v1zM13 19h-9v-1h9v1zM13 17h-9v-1h9v1zM13 15h-9v-1h9v1zM9 8h4v1h-4v-1zM9 10h4v1h-4v-1zM9 12h4v1h-4v-1zM22.5 4c-3.812 0-6.5 2-6.5 2v19.875c0 0 2.688-1.938 6.5-1.938s6.5 1.938 6.5 1.938v-19.625c0 0-2.688-2.25-6.5-2.25zM27 21h-9v-1h9v1zM27 19h-9v-1h9v1zM27 17h-9v-1h9v1zM27 15h-9v-1h9v1zM27 13h-9v-1h9v1zM27 11h-9v-1h9v1zM27 9h-9v-1h9v1zM3 26c0 0 0 1.75 0 1.812 4.812-3.874 11-1.812 11-1.812s-5.375-3.125-11 0z"></path>
</svg>
