<?xml version="1.0" encoding="utf-8"?>
<!-- Generated by IcoMoon.io -->
<!DOCTYPE svg PUBLIC "-//W3C//DTD SVG 1.1//EN" "http://www.w3.org/Graphics/SVG/1.1/DTD/svg11.dtd">
<svg version="1.1" xmlns="http://www.w3.org/2000/svg" xmlns:xlink="http://www.w3.org/1999/xlink" width="32" height="32" viewBox="0 0 32 32">
<path fill="#444444" d="M22 0c-5.523 0-10 4.477-10 10 0 0.625 0.074 1.227 0.184 1.816l-12.184 12.184v8h12v-4h4v-4h4v-4l0.184-0.184c0.589 0.11 1.191 0.184 1.816 0.184 5.523 0 10-4.477 10-10s-4.477-10-10-10zM22 16c-0.313 0-0.656-0.039-1.086-0.117l-2.070-0.383-2.844 2.844v1.656h-4v4h-4v4h-4v-2.344l12.5-12.5-0.383-2.070c-0.080-0.43-0.117-0.774-0.117-1.086 0-3.309 2.691-6 6-6s6 2.691 6 6-2.691 6-6 6zM20 10c0-1.105 0.895-2 2-2s2 0.895 2 2c0 1.105-0.895 2-2 2s-2-0.895-2-2z"></path>
</svg>
