<?xml version="1.0" encoding="utf-8"?>
<!-- Generated by IcoMoon.io -->
<!DOCTYPE svg PUBLIC "-//W3C//DTD SVG 1.1//EN" "http://www.w3.org/Graphics/SVG/1.1/DTD/svg11.dtd">
<svg version="1.1" xmlns="http://www.w3.org/2000/svg" xmlns:xlink="http://www.w3.org/1999/xlink" width="32" height="32" viewBox="0 0 32 32">
<path fill="#444444" d="M32 14v4h-4.182c-0.299 1.771-1.003 3.398-1.989 4.814l4.194 3.646-2.887 3.566-4.624-4.021c-1.347 0.875-2.863 1.514-4.513 1.793v4.201h-4v-4.182c-1.654-0.279-3.173-0.924-4.521-1.807l-4.616 4.016-2.887-3.566 4.201-3.654c-0.979-1.414-1.678-3.037-1.977-4.807h-4.201v-4h4.182c0.299-1.771 1.003-3.398 1.989-4.814l-4.194-3.646 2.887-3.566 4.624 4.021c1.347-0.875 2.863-1.514 4.513-1.793v-4.201h4v4.201c1.649 0.279 3.166 0.918 4.513 1.793l4.624-4.021 2.887 3.566-4.194 3.646c0.986 1.416 1.69 3.043 1.989 4.814h4.182zM16 10c-3.313 0-6 2.686-6 6s2.687 6 6 6 6-2.686 6-6-2.686-6-6-6z"></path>
</svg>
