<?xml version="1.0" encoding="utf-8"?>
<!-- Generated by IcoMoon.io -->
<!DOCTYPE svg PUBLIC "-//W3C//DTD SVG 1.1//EN" "http://www.w3.org/Graphics/SVG/1.1/DTD/svg11.dtd">
<svg version="1.1" xmlns="http://www.w3.org/2000/svg" xmlns:xlink="http://www.w3.org/1999/xlink" width="38" height="32" viewBox="0 0 38 32">
<path fill="#444444" d="M21.254 17.77c0 0 0.479-6.444-5.426-7.18-5.062-0.517-6.602 4.187-6.602 4.187s-1.524-1.466-3.592-0.269c-1.851 1.143-1.523 3.234-1.523 3.234s-4.111 0.799-4.111 4.989c0.114 4.257 4.438 4.151 4.438 4.151l16.173 0.042c0 0 3.871 0.046 4.576-3.943 0.272-4.353-3.933-5.211-3.933-5.211zM32.387 18.354c0-4.143-3.357-7.5-7.5-7.5-0.701 0-2.191 0.228-3.661 0.989 0 0.002-0.919 0.627-0.919 0.627s1.455 1.321 1.58 4.821c0 0.062 3.854 1.051 3.854 5.051 0 2.75-1.46 3.506-1.46 3.506l0.606 0.006c0 0 7.5-1.562 7.5-7.5zM24.887 5.604l-2.109 4.219h4.219l-2.11-4.219zM33.898 9.311l-4.475 1.491 2.983 2.983 1.492-4.474zM33.387 20.494l4.219-2.109-4.219-2.109v4.218zM29.424 25.905l4.475 1.491-1.491-4.475-2.984 2.984z"></path>
</svg>
