<?xml version="1.0" encoding="utf-8"?>
<!-- Generated by IcoMoon.io -->
<!DOCTYPE svg PUBLIC "-//W3C//DTD SVG 1.1//EN" "http://www.w3.org/Graphics/SVG/1.1/DTD/svg11.dtd">
<svg version="1.1" xmlns="http://www.w3.org/2000/svg" xmlns:xlink="http://www.w3.org/1999/xlink" width="24" height="24" viewBox="0 0 24 24">
<path fill="#444444" d="M7.5 21.469l1.359-1.313 3.797 3.797-0.656 0.047q-4.688 0-8.133-3.188t-3.82-7.828h1.5q0.281 2.813 1.875 5.063t4.078 3.422zM14.813 21.188l6.375-6.375-12-12-6.375 6.375zM10.219 1.734l12.047 12.047q0.469 0.422 0.469 1.031t-0.469 1.078l-6.375 6.375q-0.422 0.469-1.031 0.469t-1.078-0.469l-12.047-12.047q-0.469-0.422-0.469-1.031t0.469-1.078l6.375-6.375q0.422-0.469 1.031-0.469t1.078 0.469zM16.5 2.531l-1.359 1.313-3.797-3.797 0.656-0.047q4.688 0 8.133 3.188t3.82 7.828h-1.5q-0.281-2.813-1.875-5.063t-4.078-3.422z"></path>
</svg>
