<?xml version="1.0" encoding="utf-8"?>
<!-- Generated by IcoMoon.io -->
<!DOCTYPE svg PUBLIC "-//W3C//DTD SVG 1.1//EN" "http://www.w3.org/Graphics/SVG/1.1/DTD/svg11.dtd">
<svg version="1.1" xmlns="http://www.w3.org/2000/svg" xmlns:xlink="http://www.w3.org/1999/xlink" width="32" height="32" viewBox="0 0 32 32">
<path fill="#444444" d="M7.001 15h1v1h-1v3h2v-1h-1v-1h1v-3h-2v1zM13.002 18h1v-1h-1v1zM10.001 15h1v1h-1v1h1v1h-1v1h2v-5h-2v1zM13.002 16h1v-1h-1v1zM15.002 19h3v-5h-3v5zM16.002 15h1v3h-1v-3zM20.002 14h-1v3h2v2h1v-5h-1v2h-1v-2zM28.002 14h-1.001l0.005-4.029-5.63-5.961-1.374-0.001v-2.009h-11v1.998l-1.404-0.001-5.586 5.879-0.014 12.216 5.567 5.836 1.437 0.001v2.071h11v-2.060l1.341 0.001 5.649-5.88 0.004-3.061h1.006c0.553 0 1-0.447 1-1v-3c0-0.552-0.447-1-1-1zM24.957 21.294l-4.502 4.735-11.997-0.011-4.423-4.689 0.011-10.685 4.378-4.674 12.122 0.012 4.423 4.752-0.012 10.56z"></path>
</svg>
