<?xml version="1.0" encoding="utf-8"?>
<!-- Generated by IcoMoon.io -->
<!DOCTYPE svg PUBLIC "-//W3C//DTD SVG 1.1//EN" "http://www.w3.org/Graphics/SVG/1.1/DTD/svg11.dtd">
<svg version="1.1" xmlns="http://www.w3.org/2000/svg" xmlns:xlink="http://www.w3.org/1999/xlink" width="48" height="48" viewBox="0 0 48 48">
<path fill="#444444" d="M8.998 22.127h7.45c1.11 0 2 0.9 2 2 0 0.541-0.21 1.031-0.56 1.391l0.010 0.020-5.1 5.1c-3.52 3.521-3.52 9.211 0 12.73 3.51 3.51 9.21 3.51 12.729 0 3.511-3.52 3.511-9.209 0-12.73-1.020-1.010-2.219-1.74-3.489-2.17l1.34-1.34h17.12c4.080 0 7.4-3.469 7.5-7.799 0-0.070 0.010-0.13 0-0.2-0.1-1.12-1.050-2-2.2-2h-12.42l8.97-8.97c0.82-0.82 0.871-2.11 0.15-2.97-0.050-0.061-0.1-0.101-0.15-0.15-3.119-2.979-7.93-3.090-10.81-0.21l-12.3 12.3h-2.18c0.6-1.2 0.94-2.561 0.94-4 0-4.97-4.030-9-9-9s-9 4.030-9 9c0 4.969 4.030 8.998 9 8.998zM12.998 13.127c0 2.21-1.79 4-4 4s-4-1.79-4-4 1.79-4 4-4 4 1.79 4 4zM21.988 34.178c1.56 1.561 1.56 4.090 0 5.65-1.56 1.568-4.090 1.568-5.66 0-1.56-1.561-1.56-4.090 0-5.65 1.57-1.571 4.1-1.571 5.66 0z"></path>
</svg>
