<?xml version="1.0" encoding="utf-8"?>
<!-- Generated by IcoMoon.io -->
<!DOCTYPE svg PUBLIC "-//W3C//DTD SVG 1.1//EN" "http://www.w3.org/Graphics/SVG/1.1/DTD/svg11.dtd">
<svg version="1.1" xmlns="http://www.w3.org/2000/svg" xmlns:xlink="http://www.w3.org/1999/xlink" width="33" height="32" viewBox="0 0 33 32">
<path fill="#444444" d="M0 20.863l11.137 11.137c0 0 2.659-6.311-1.083-10.053-3.701-3.701-10.054-1.084-10.054-1.084zM29.875 21.748l-5.656 5.656 0.707 0.707 5.656-5.656-0.707-0.707zM32.703 23.162l-6.363-6.365c-0.781-0.779-2.049-0.779-2.828 0l-0.558 0.558-1.56-1.56 2.797-2.797c0.781-0.781 0.693-2.136-0.088-2.917l-3.447-3.447c-0.781-0.781-2.047-0.781-2.828 0l-2.543 2.454-1.34-1.34 0.091-0.090c0.781-0.781 0.781-2.048 0-2.829l-6.364-6.365c-0.781-0.781-2.047-0.781-2.829 0l-4.242 4.243c-0.781 0.781-0.781 2.048 0 2.829l6.364 6.364c0.781 0.781 2.047 0.781 2.829 0l1.391-1.391 1.378 1.39-2.559 2.559c-0.781 0.781-0.486 5.128-0.486 5.128l1.723 1.723c0 0 4.346 0.295 5.127-0.486l2.214-2.213 1.56 1.56-0.874 0.874c-0.781 0.781-0.781 2.047 0 2.828l6.365 6.363c0.781 0.781 2.047 0.781 2.828 0l4.242-4.242c0.781-0.784 0.781-2.050 0-2.831zM1.308 3.414l4.243-4.243c0.39-0.391 1.023-0.391 1.414 0l-5.657 5.657c-0.391-0.39-0.391-1.024 0-1.414zM2.015 5.535l5.657-5.657 0.707 0.707-5.657 5.657-0.707-0.707zM3.429 6.949l5.657-5.657 0.707 0.708-5.656 5.656-0.708-0.707zM4.844 8.364l5.656-5.657 0.708 0.707-5.657 5.657-0.707-0.707zM6.258 9.778l5.657-5.657 0.707 0.707-5.657 5.657-0.707-0.707zM9.086 11.192c-0.39 0.391-1.023 0.391-1.414 0l5.657-5.657c0.391 0.391 0.391 1.024 0 1.414l-4.243 4.243zM11.908 16.498l-0.53-0.531 7.31-7.31 0.531 0.53-7.311 7.311zM19.975 21.748l4.244-4.244c0.391-0.389 1.023-0.389 1.414 0l-5.658 5.658c-0.391-0.391-0.391-1.023 0-1.414zM31.996 25.283l-4.242 4.242c-0.391 0.391-1.023 0.391-1.414 0l-4.243-4.243 5.656-5.656-0.707-0.707-5.658 5.656-0.707-0.707 5.658-5.658 5.656 5.658c0.392 0.392 0.392 1.025 0.001 1.415zM31.289 23.162l-5.656 5.656 0.707 0.707 5.656-5.656-0.707-0.707zM28.461 20.334l-5.656 5.656 0.707 0.707 5.656-5.656-0.707-0.707z"></path>
</svg>
