<?xml version="1.0" encoding="utf-8"?>
<!-- Generated by IcoMoon.io -->
<!DOCTYPE svg PUBLIC "-//W3C//DTD SVG 1.1//EN" "http://www.w3.org/Graphics/SVG/1.1/DTD/svg11.dtd">
<svg version="1.1" xmlns="http://www.w3.org/2000/svg" xmlns:xlink="http://www.w3.org/1999/xlink" width="32" height="32" viewBox="0 0 32 32">
<path fill="#444444" d="M3.425 13.953c0 0 24.137 0 24.173 0 0.583-0.255 0.557-0.802 0.011-1.165-0.547-0.365-12.119-8.718-12.119-8.718s-11.482 8.353-12.065 8.718c-0.582 0.363-0.619 0.91 0 1.165zM15.49 8.195c0.965 0 1.748 0.782 1.748 1.747s-0.783 1.748-1.748 1.748-1.747-0.783-1.747-1.748 0.782-1.747 1.747-1.747zM4.027 26.932h22.968v-0.977h-22.968v0.977zM9 24.936v-8.903h0.978v-1.103h-4.993v1.003h0.978v9.002h3.037zM17.030 24.936v-8.966h0.978v-0.978h-4.992v0.94h0.977v9.002h3.037zM3.030 28.93h24.963v-0.914h-24.963v0.914zM24.998 24.936v-8.966h0.978v-0.978h-4.993v0.94h0.979v9.002h3.036z"></path>
</svg>
