<?xml version="1.0" encoding="utf-8"?>
<!-- Generated by IcoMoon.io -->
<!DOCTYPE svg PUBLIC "-//W3C//DTD SVG 1.1//EN" "http://www.w3.org/Graphics/SVG/1.1/DTD/svg11.dtd">
<svg version="1.1" xmlns="http://www.w3.org/2000/svg" xmlns:xlink="http://www.w3.org/1999/xlink" width="24" height="24" viewBox="0 0 24 24">
<path fill="#444444" d="M12.984 8.484v-1.969h-1.969v1.969h1.969zM12.984 12.984v-1.969h-1.969v1.969h1.969zM12.984 17.484v-1.969h-1.969v1.969h1.969zM21.984 9.984q-0.797 0-1.383 0.609t-0.586 1.406 0.586 1.406 1.383 0.609v3.984q0 0.797-0.586 1.406t-1.383 0.609h-16.031q-0.797 0-1.383-0.609t-0.586-1.406v-3.984q0.844 0 1.406-0.586t0.563-1.43q0-0.797-0.586-1.406t-1.383-0.609v-3.984q0-0.844 0.586-1.43t1.383-0.586h16.031q0.797 0 1.383 0.586t0.586 1.43v3.984z"></path>
</svg>
