<?xml version="1.0" encoding="utf-8"?>
<!-- Generated by IcoMoon.io -->
<!DOCTYPE svg PUBLIC "-//W3C//DTD SVG 1.1//EN" "http://www.w3.org/Graphics/SVG/1.1/DTD/svg11.dtd">
<svg version="1.1" xmlns="http://www.w3.org/2000/svg" xmlns:xlink="http://www.w3.org/1999/xlink" width="32" height="32" viewBox="0 0 32 32">
<path fill="#444444" d="M19.011 28.989h-7.021c-1.099 0-1.988-0.89-1.988-1.988v-19.014c0-1.098 0.89-1.988 1.988-1.988h1.057c0 0 0 0.052 0-0.497s0.383-1.491 0.932-1.491h2.982c0.549 0 0.994 0.942 0.994 1.491s0 0.497 0 0.497h1.057c1.099 0 1.988 0.891 1.988 1.988v19.014c-0.001 1.099-0.891 1.988-1.989 1.988zM16.96 9.044h-0.994v-0.994h-0.932v0.994h-0.994v0.994h0.994v0.994h0.932v-0.994h0.994v-0.994zM20.005 12.958h-9.010v14.043c0 0.55 0.445 0.994 0.994 0.994h7.021c0.549 0 0.994-0.444 0.994-0.994v-14.043zM13.978 24.95h3.045v1.057h-3.045v-1.057z"></path>
</svg>
