<?xml version="1.0" encoding="utf-8"?>
<!-- Generated by IcoMoon.io -->
<!DOCTYPE svg PUBLIC "-//W3C//DTD SVG 1.1//EN" "http://www.w3.org/Graphics/SVG/1.1/DTD/svg11.dtd">
<svg version="1.1" xmlns="http://www.w3.org/2000/svg" xmlns:xlink="http://www.w3.org/1999/xlink" width="24" height="24" viewBox="0 0 24 24">
<path fill="#444444" d="M18.227 7.609l0.557-0.559c0.396-0.396 0.607-0.943 0.582-1.504s-0.286-1.084-0.717-1.443c-2.129-1.775-4.711-2.848-7.469-3.097-0.060-0.003-0.119-0.006-0.18-0.006-0.497 0-0.979 0.186-1.35 0.523-0.414 0.379-0.65 0.915-0.65 1.477v2.229c-3.657 0.865-6.333 4.188-6.333 8.006 0 4.547 3.688 8.244 8.224 8.244 1.594 0 3.11-0.479 4.441-1.345 0.277 0.142 0.583 0.226 0.9 0.226 0.037 0 0.072-0.002 0.109-0.004 0.569-0.030 1.098-0.305 1.453-0.75 1.421-1.781 2.204-4.019 2.204-6.297 0.002-2.032-0.625-4.027-1.771-5.7zM10.891 19.479c-3.438 0-6.224-2.793-6.224-6.244 0-3.137 2.317-5.729 5.333-6.164v6.408l4.609 4.754c-1.037 0.779-2.322 1.246-3.718 1.246zM11 12.025v-9.025c2.411 0.218 4.607 1.173 6.366 2.641l-6.366 6.384zM11.214 13.294l5.019-5.028c1.104 1.385 1.769 3.141 1.769 5.043 0 1.914-0.664 3.666-1.769 5.051l-5.019-5.066z"></path>
</svg>
