<?xml version="1.0" encoding="utf-8"?>
<!-- Generated by IcoMoon.io -->
<!DOCTYPE svg PUBLIC "-//W3C//DTD SVG 1.1//EN" "http://www.w3.org/Graphics/SVG/1.1/DTD/svg11.dtd">
<svg version="1.1" xmlns="http://www.w3.org/2000/svg" xmlns:xlink="http://www.w3.org/1999/xlink" width="32" height="32" viewBox="0 0 32 32">
<path fill="#444444" d="M31 4h-30c-0.552 0-1 0.448-1 1v22c0 0.553 0.448 1 1 1h30c0.553 0 1-0.447 1-1v-22c0-0.552-0.447-1-1-1zM30 25c0 0.553-0.447 1-1 1h-26c-0.552 0-1-0.447-1-1v-18c0-0.552 0.448-1 1-1h26c0.553 0 1 0.448 1 1v18zM9.498 12.141l-3.855-3.856c-0.375-0.375-0.983-0.375-1.358 0s-0.375 0.983 0 1.358l3.358 3.357-3.358 3.358c-0.375 0.375-0.375 0.982 0 1.357s0.983 0.375 1.358 0l3.855-3.855c0.076-0.042 0.153-0.080 0.217-0.144 0.197-0.197 0.285-0.458 0.274-0.716 0.010-0.258-0.077-0.519-0.274-0.715-0.064-0.064-0.141-0.102-0.217-0.144zM19 16h-6c-0.552 0-1 0.448-1 1 0 0.553 0.448 1 1 1h6c0.553 0 1-0.447 1-1 0-0.552-0.447-1-1-1z"></path>
</svg>
