<?xml version="1.0" encoding="utf-8"?>
<!-- Generated by IcoMoon.io -->
<!DOCTYPE svg PUBLIC "-//W3C//DTD SVG 1.1//EN" "http://www.w3.org/Graphics/SVG/1.1/DTD/svg11.dtd">
<svg version="1.1" xmlns="http://www.w3.org/2000/svg" xmlns:xlink="http://www.w3.org/1999/xlink" width="32" height="32" viewBox="0 0 32 32">
<path fill="#444444" d="M10 8c1.105 0 2 0.895 2 2s-0.895 2-2 2-2-0.895-2-2c0-1.105 0.895-2 2-2zM30 24c0 3.314-2.686 6-6 6h-14l6-6h2.535c0.692 1.196 1.984 2 3.465 2 2.209 0 4-1.791 4-4s-1.791-4-4-4c-1.481 0-2.773 0.804-3.465 2h-4.535l-9.124 9.124c-1.725-1.054-2.876-2.954-2.876-5.124v-16c0-3.314 2.686-6 6-6v4.535c-1.196 0.692-2 1.984-2 3.465 0 2.209 1.791 4 4 4 1.477 0 2.768-0.801 3.46-1.992l5.075-0.007c0.692 1.195 1.984 1.999 3.464 1.999 2.209 0 4-1.791 4-4s-1.791-4-4-4c-1.481 0-2.774 0.805-3.465 2.001l-5.066 0.007c-0.351-0.611-0.859-1.12-1.469-1.472v-4.535h12c3.314 0 6 2.686 6 6v16zM20 22c0-1.105 0.895-2 2-2s2 0.895 2 2c0 1.105-0.895 2-2 2s-2-0.895-2-2zM20 10c0-1.105 0.895-2 2-2s2 0.895 2 2c0 1.105-0.895 2-2 2s-2-0.895-2-2z"></path>
</svg>
