<?xml version="1.0" encoding="utf-8"?>
<!-- Generated by IcoMoon.io -->
<!DOCTYPE svg PUBLIC "-//W3C//DTD SVG 1.1//EN" "http://www.w3.org/Graphics/SVG/1.1/DTD/svg11.dtd">
<svg version="1.1" xmlns="http://www.w3.org/2000/svg" xmlns:xlink="http://www.w3.org/1999/xlink" width="24" height="24" viewBox="0 0 24 24">
<path fill="#444444" d="M4.5 11.016q-0.656 0-1.078-0.445t-0.422-1.055 0.422-1.055 1.078-0.445 1.078 0.445 0.422 1.055-0.422 1.055-1.078 0.445zM22.172 9.188q0 2.672-1.781 4.641t-4.406 2.297v3.891h3v1.969h-15.984v-4.969h-0.984v-4.031q0-0.422 0.281-0.703t0.703-0.281h3q0.422 0 0.703 0.281t0.281 0.703v4.031h-0.984v3h8.016v-3.938q-2.531-0.422-4.195-2.367t-1.664-4.523q0-2.906 2.063-4.969t4.969-2.063 4.945 2.063 2.039 4.969z"></path>
</svg>
