<?xml version="1.0" encoding="utf-8"?>
<!-- Generated by IcoMoon.io -->
<!DOCTYPE svg PUBLIC "-//W3C//DTD SVG 1.1//EN" "http://www.w3.org/Graphics/SVG/1.1/DTD/svg11.dtd">
<svg version="1.1" xmlns="http://www.w3.org/2000/svg" xmlns:xlink="http://www.w3.org/1999/xlink" width="29" height="32" viewBox="0 0 29 32">
<path fill="#444444" d="M15 31.5v-9.5c0-0.276-0.133-1-0.409-1s-0.591 0.224-0.591 0.5v10c0 0.276 0.314 0.5 0.591 0.5s0.409-0.224 0.409-0.5zM15.091 1.562v-1.062c0-0.276-0.224-0.5-0.5-0.5s-0.5 0.224-0.5 0.5v1.062c0 0.276 0.224 0.5 0.5 0.5s0.5-0.223 0.5-0.5zM3.89 3.471l-3.567 2.798c-0.205 0.189-0.323 0.456-0.323 0.731s0.118 0.542 0.354 0.758l3.505 2.745c0.307 0.283 0.854 0.497 1.273 0.497h13.828c0.573 0 1.040-0.463 1.040-1.033v-5.934c0-0.57-0.467-1.033-1.040-1.033h-13.828c-0.419 0-0.966 0.214-1.242 0.471zM19 9.967c0 0.015-0.018 0.033-0.040 0.033h-13.828c-0.17 0-0.471-0.117-0.625-0.258l-3.536-2.713 3.566-2.798c0.125-0.114 0.425-0.231 0.595-0.231l13.868 0.033v5.934zM25.141 12.497c-0.307-0.283-0.854-0.497-1.273-0.497h-13.828c-0.573 0-1.040 0.463-1.040 1.033v5.935c0 0.569 0.467 1.032 1.040 1.032h13.828c0.419 0 0.966-0.214 1.243-0.471l3.566-2.798c0.205-0.189 0.323-0.456 0.323-0.731s-0.118-0.542-0.354-0.758l-3.505-2.745zM10 13h13.868c0.17 0 0.471 0.117 0.625 0.258l3.536 2.713-3.566 2.798c-0.125 0.114-0.425 0.231-0.595 0.231h-13.868v-6z"></path>
</svg>
