<?xml version="1.0" encoding="utf-8"?>
<!-- Generated by IcoMoon.io -->
<!DOCTYPE svg PUBLIC "-//W3C//DTD SVG 1.1//EN" "http://www.w3.org/Graphics/SVG/1.1/DTD/svg11.dtd">
<svg version="1.1" xmlns="http://www.w3.org/2000/svg" xmlns:xlink="http://www.w3.org/1999/xlink" width="28" height="32" viewBox="0 0 28 32">
<path fill="#444444" d="M12 18h8l2-2-2-2h-4v-6l-2-2-2 2v10zM14 2c-7.732 0-14 6.268-14 14s6.268 14 14 14c7.732 0 14-6.268 14-14s-6.268-14-14-14zM14 26c-5.508 0-10-4.492-10-10 0-5.498 4.506-9.984 10-10 5.494 0.016 10 4.502 10 10 0 5.508-4.492 10-10 10z"></path>
</svg>
