<?xml version="1.0" encoding="utf-8"?>
<!-- Generated by IcoMoon.io -->
<!DOCTYPE svg PUBLIC "-//W3C//DTD SVG 1.1//EN" "http://www.w3.org/Graphics/SVG/1.1/DTD/svg11.dtd">
<svg version="1.1" xmlns="http://www.w3.org/2000/svg" xmlns:xlink="http://www.w3.org/1999/xlink" width="48" height="48" viewBox="0 0 48 48">
<path fill="#444444" d="M4 44c0 2.21 1.79 4 4 4h31c2.21 0 4-1.79 4-4l-0-34c0-2.21-1.79-4-4-4h-8.15c-0.689-3.42-3.72-6-7.35-6s-6.66 2.58-7.35 6h-8.15c-2.21 0-4 1.79-4 4l0 34zM11.2 11h4.8v1.8c0 1.22 0.98 2.2 2.2 2.2h10.6c1.22 0 2.2-0.98 2.2-2.2l-0-1.8h4.8c1.22 0 2.2 0.98 2.2 2.2v27.6c0 1.22-0.98 2.2-2.2 2.2h-24.6c-1.22 0-2.2-0.98-2.2-2.2v-27.6c0-1.22 0.98-2.2 2.2-2.2zM21 7.5c0-1.38 1.12-2.5 2.5-2.5s2.5 1.12 2.5 2.5-1.12 2.5-2.5 2.5-2.5-1.12-2.5-2.5z"></path>
</svg>
