<?xml version="1.0" encoding="UTF-8"?>
<!DOCTYPE svg PUBLIC "-//W3C//DTD SVG 1.1//EN" "http://www.w3.org/Graphics/SVG/1.1/DTD/svg11.dtd">
<!-- Creator: CorelDRAW X8 -->
<svg xmlns="http://www.w3.org/2000/svg" xml:space="preserve" width="2.11465in" height="2.41674in" version="1.1" style="shape-rendering:geometricPrecision; text-rendering:geometricPrecision; image-rendering:optimizeQuality; fill-rule:evenodd; clip-rule:evenodd"
viewBox="0 0 692 790"
 xmlns:xlink="http://www.w3.org/1999/xlink">
 <defs>
  <style type="text/css">
   <![CDATA[
    .fil0 {fill:black}
   ]]>
  </style>
 </defs>
 <g id="Layer_x0020_1">
  <metadata id="CorelCorpID_0Corel-Layer"/>
  <g id="_133325640800">
   <path class="fil0" d="M49 724l0 -658c0,-11 6,-17 17,-17l359 0c9,0 11,2 20,2l0 196 196 0c0,9 1,11 1,20l0 457c0,12 -5,17 -17,17l-559 0c-11,0 -17,-5 -17,-17zm445 -651c13,8 50,47 64,61 13,14 52,51 61,64l-125 0 0 -125zm-494 -17l0 679c0,19 17,40 34,49 4,2 16,6 22,6l580 0c26,0 56,-30 56,-55l0 -482c0,-17 -8,-38 -13,-51 -15,-41 -55,-73 -86,-104 -31,-31 -63,-70 -104,-85 -13,-5 -34,-13 -51,-13l-382 0c-26,0 -56,30 -56,56z"/>
   <path class="fil0" d="M202 692l85 0c3,-6 6,-22 8,-29 2,-10 4,-18 7,-28l45 -172c0,9 23,103 25,116 4,18 10,39 14,57l9 43c1,6 1,13 6,13l76 0c0,-12 99,-383 99,-396l-131 0 0 71 34 0c-4,9 -32,143 -38,166 -1,1 -1,2 -1,3 0,0 0,0 -1,1 0,0 0,0 0,1 0,0 0,0 -1,1 0,-14 -49,-229 -49,-243l-80 0c-6,0 -8,16 -10,28 -3,11 -5,19 -8,30l-44 185 -2 -6c-6,-24 -16,-89 -21,-115l-22 -122 -86 0c0,8 8,40 10,50l71 320c1,8 5,19 5,26z"/>
  </g>
 </g>
</svg>
