<?xml version="1.0" encoding="utf-8"?>
<!-- Generated by IcoMoon.io -->
<!DOCTYPE svg PUBLIC "-//W3C//DTD SVG 1.1//EN" "http://www.w3.org/Graphics/SVG/1.1/DTD/svg11.dtd">
<svg version="1.1" xmlns="http://www.w3.org/2000/svg" xmlns:xlink="http://www.w3.org/1999/xlink" width="24" height="24" viewBox="0 0 24 24">
<path fill="#444444" d="M8.016 3.281l-0.844 0.703-1.453-1.406 0.891-0.703zM16.453 18.375l-9.844-9.844q-1.594 1.969-1.594 4.453 0 2.906 2.039 4.969t4.945 2.063q2.438 0 4.453-1.641zM2.906 2.297q3.563 3.563 10.148 10.125t8.32 8.297l-1.266 1.266-2.203-2.203q-2.578 2.203-5.906 2.203-3.75 0-6.375-2.648t-2.625-6.352q0-3.281 2.203-5.859l-0.797-0.797-1.125 0.938-1.406-1.453 1.125-0.891-1.359-1.359zM21.984 5.719l-1.266 1.547-4.594-3.891 1.266-1.5zM12 6q-1.266 0-2.391 0.422l-1.547-1.5q1.969-0.938 3.938-0.938 3.75 0 6.375 2.648t2.625 6.352q0 2.063-0.891 3.938l-1.547-1.5q0.422-1.125 0.422-2.438 0-2.906-2.039-4.945t-4.945-2.039z"></path>
</svg>
