<?xml version="1.0" encoding="utf-8"?>
<!-- Generated by IcoMoon.io -->
<!DOCTYPE svg PUBLIC "-//W3C//DTD SVG 1.1//EN" "http://www.w3.org/Graphics/SVG/1.1/DTD/svg11.dtd">
<svg version="1.1" xmlns="http://www.w3.org/2000/svg" xmlns:xlink="http://www.w3.org/1999/xlink" width="32" height="32" viewBox="0 0 32 32">
<path fill="#444444" d="M14.683 14.698c0.117 0 0.235-0.041 0.33-0.124l11.317-9.922-0.66-0.752-11.317 9.921c-0.208 0.182-0.229 0.498-0.046 0.706 0.099 0.113 0.237 0.171 0.376 0.171zM10.188 32c6.142 0 9.812-4.83 9.812-9.5 0-1.346-0.322-2.829-0.798-3.792l4.522-2.261c0.169-0.085 0.276-0.258 0.276-0.447v-4h3c0.011 0 0.102-0.006 0.113-0.006 0.666-0.045 0.865-0.257 0.887-0.994v-4h3c0.129 0 0.218 0.014 0.278 0.023 0.121 0.019 0.347 0.054 0.543-0.122 0.202-0.18 0.193-0.408 0.185-0.609-0.002-0.072-0.006-0.167-0.006-0.292v-4.531c0-0.81-0.659-1.469-1.469-1.469h-3.875c-0.354 0-0.698 0.129-0.969 0.364l-13.187 11.56c-0.649-0.13-1.63-0.299-2.313-0.299-5.617 0-10.187 4.57-10.187 10.187s4.57 10.188 10.188 10.188zM10.188 12.625c0.501 0 1.359 0.12 2.354 0.328 0.155 0.034 0.314-0.010 0.432-0.113l13.371-11.722c0.087-0.076 0.198-0.118 0.311-0.118h3.875c0.259 0 0.469 0.21 0.469 0.469v4.531h-3.5c-0.276 0-0.5 0.224-0.5 0.5v4.5h-3.5c-0.276 0-0.5 0.224-0.5 0.5v4.191l-4.724 2.362c-0.131 0.065-0.227 0.186-0.262 0.328s-0.006 0.293 0.080 0.412c0.44 0.607 0.906 2.114 0.906 3.707 0 4.178-3.296 8.5-8.812 8.5-5.066 0-9.188-4.122-9.188-9.188s4.122-9.187 9.188-9.187zM8.5 27c1.93 0 3.5-1.57 3.5-3.5s-1.57-3.5-3.5-3.5-3.5 1.57-3.5 3.5 1.57 3.5 3.5 3.5zM8.5 21c1.378 0 2.5 1.122 2.5 2.5s-1.122 2.5-2.5 2.5-2.5-1.122-2.5-2.5 1.122-2.5 2.5-2.5z"></path>
</svg>
