<?xml version="1.0" encoding="utf-8"?>
<!-- Generated by IcoMoon.io -->
<!DOCTYPE svg PUBLIC "-//W3C//DTD SVG 1.1//EN" "http://www.w3.org/Graphics/SVG/1.1/DTD/svg11.dtd">
<svg version="1.1" xmlns="http://www.w3.org/2000/svg" xmlns:xlink="http://www.w3.org/1999/xlink" width="24" height="24" viewBox="0 0 24 24">
<path fill="#444444" d="M12 12q1.219 0 2.109 0.891t0.891 2.109-0.891 2.109-2.109 0.891-2.109-0.891-0.891-2.109 0.891-2.109 2.109-0.891zM12 20.016q2.063 0 3.539-1.477t1.477-3.539-1.477-3.539-3.539-1.477-3.539 1.477-1.477 3.539 1.477 3.539 3.539 1.477zM12 3.984q-0.844 0-1.43 0.609t-0.586 1.406 0.586 1.406 1.43 0.609q0.797 0 1.406-0.609t0.609-1.406-0.609-1.406-1.406-0.609zM17.016 2.016q0.797 0 1.383 0.586t0.586 1.383v16.031q0 0.797-0.586 1.383t-1.383 0.586h-10.031q-0.797 0-1.383-0.586t-0.586-1.383v-16.031q0-0.797 0.586-1.383t1.383-0.586h10.031z"></path>
</svg>
