<?xml version="1.0" encoding="utf-8"?>
<!-- Generated by IcoMoon.io -->
<!DOCTYPE svg PUBLIC "-//W3C//DTD SVG 1.1//EN" "http://www.w3.org/Graphics/SVG/1.1/DTD/svg11.dtd">
<svg version="1.1" xmlns="http://www.w3.org/2000/svg" xmlns:xlink="http://www.w3.org/1999/xlink" width="32" height="32" viewBox="0 0 32 32">
<path fill="#444444" d="M15.656 18.375l-7.656-2.375s0 3 0 5 3.594 3 8 3 8-1 8-3 0-5 0-5l-7.656 2.375c-0.219 0.063-0.469 0.063-0.719 0h0.031zM16.219 5.594c-0.125-0.031-0.281-0.031-0.406 0l-15.281 4.75c-0.656 0.219-0.656 1.125 0 1.344l3.469 1.094v3.531c-0.594 0.344-1 1-1 1.719 0 0.375 0.094 0.719 0.281 1-0.156 0.281-0.281 0.625-0.281 1v5.156c0 1.094 4 1.094 4 0v-5.156c0-0.375-0.094-0.719-0.281-1 0.156-0.281 0.281-0.625 0.281-1 0-0.75-0.406-1.375-1-1.719v-2.906l9.781 3.063c0.125 0.031 0.281 0.031 0.406 0l15.281-4.75c0.656-0.219 0.656-1.125 0-1.344l-15.25-4.781zM16.031 12c-1.094 0-2-0.438-2-1s0.906-1 2-1 2 0.438 2 1-0.906 1-2 1z"></path>
</svg>
