<?xml version="1.0" encoding="utf-8"?>
<!-- Generated by IcoMoon.io -->
<!DOCTYPE svg PUBLIC "-//W3C//DTD SVG 1.1//EN" "http://www.w3.org/Graphics/SVG/1.1/DTD/svg11.dtd">
<svg version="1.1" xmlns="http://www.w3.org/2000/svg" xmlns:xlink="http://www.w3.org/1999/xlink" width="32" height="32" viewBox="0 0 32 32">
<path fill="#444444" d="M28 19c-0.553 0-1 0-1 0v1c0 1.104-0.895 2-2 2h-20c-1.105 0-2-0.896-2-2v-7c0-1.104 0.895-2 2-2h20c1.105 0 2 0.896 2 2v1c0 0 0.447 0 1 0s1 0.447 1 1v3c0 0.552-0.447 1-1 1zM26 13c0-0.553-0.447-1-1-1h-20c-0.553 0-1 0.447-1 1v7c0 0.552 0.447 1 1 1h20c0.553 0 1-0.448 1-1v-7z"></path>
</svg>
