<?xml version="1.0" encoding="utf-8"?>
<!-- Generated by IcoMoon.io -->
<!DOCTYPE svg PUBLIC "-//W3C//DTD SVG 1.1//EN" "http://www.w3.org/Graphics/SVG/1.1/DTD/svg11.dtd">
<svg version="1.1" xmlns="http://www.w3.org/2000/svg" xmlns:xlink="http://www.w3.org/1999/xlink" width="24" height="24" viewBox="0 0 24 24">
<path fill="#444444" d="M13 20c-0.802 0-1.555-0.312-2.122-0.879l-7.121-7.121 7.122-7.121c1.133-1.133 3.11-1.133 4.243 0 0.566 0.566 0.878 1.32 0.878 2.121s-0.312 1.555-0.879 2.122l-2.878 2.878 2.878 2.879c0.567 0.566 0.879 1.32 0.879 2.121s-0.312 1.555-0.879 2.122c-0.566 0.566-1.319 0.878-2.121 0.878zM6.585 12l5.708 5.707c0.378 0.378 1.037 0.377 1.414 0 0.189-0.189 0.293-0.439 0.293-0.707s-0.104-0.518-0.293-0.707l-4.292-4.293 4.292-4.293c0.189-0.189 0.293-0.44 0.293-0.707s-0.104-0.518-0.293-0.707c-0.378-0.379-1.037-0.378-1.414-0.001l-5.708 5.708z"></path>
</svg>
