<?xml version="1.0" encoding="utf-8"?>
<!-- Generated by IcoMoon.io -->
<!DOCTYPE svg PUBLIC "-//W3C//DTD SVG 1.1//EN" "http://www.w3.org/Graphics/SVG/1.1/DTD/svg11.dtd">
<svg version="1.1" xmlns="http://www.w3.org/2000/svg" xmlns:xlink="http://www.w3.org/1999/xlink" width="24" height="24" viewBox="0 0 24 24">
<path fill="#444444" d="M5.485 11.285c0.447-2.673 3.21-5.588 6.479-5.588 1.891 0 3.58 0.868 4.762 2.206l1.59-1.060c-1.553-1.845-3.857-3.041-6.422-3.041-4.25 0-7.764 2.953-8.297 7.117l-3.597-0.695 3.541 5.237 5.238-3.539-3.294-0.637zM20.459 8.539l-5.238 3.539 3.293 0.637c-0.446 2.673-3.21 5.589-6.479 5.588-1.892 0-3.58-0.868-4.763-2.206l-1.589 1.060c1.553 1.845 3.857 3.041 6.422 3.041 4.249 0 7.764-2.953 8.296-7.117l3.599 0.695-3.541-5.237z"></path>
</svg>
