<?xml version="1.0" encoding="utf-8"?>
<!-- Generated by IcoMoon.io -->
<!DOCTYPE svg PUBLIC "-//W3C//DTD SVG 1.1//EN" "http://www.w3.org/Graphics/SVG/1.1/DTD/svg11.dtd">
<svg version="1.1" xmlns="http://www.w3.org/2000/svg" xmlns:xlink="http://www.w3.org/1999/xlink" width="24" height="24" viewBox="0 0 24 24">
<path fill="#444444" d="M10.5 20c-0.861 0-1.71-0.151-2.523-0.451l-1.317-0.485 0.89-1.087c1.275-1.56 1.95-3.454 1.95-5.477s-0.675-3.917-1.951-5.477l-0.89-1.087 1.317-0.485c0.814-0.3 1.663-0.451 2.524-0.451 4.136 0 7.5 3.364 7.5 7.5s-3.364 7.5-7.5 7.5zM9.991 17.976c0.169 0.016 0.339 0.024 0.509 0.024 3.032 0 5.5-2.468 5.5-5.5s-2.468-5.5-5.5-5.5c-0.17 0-0.34 0.008-0.509 0.024 0.991 1.645 1.509 3.511 1.509 5.476s-0.518 3.831-1.509 5.476z"></path>
</svg>
