<?xml version="1.0" encoding="utf-8"?>
<!-- Generated by IcoMoon.io -->
<!DOCTYPE svg PUBLIC "-//W3C//DTD SVG 1.1//EN" "http://www.w3.org/Graphics/SVG/1.1/DTD/svg11.dtd">
<svg version="1.1" xmlns="http://www.w3.org/2000/svg" xmlns:xlink="http://www.w3.org/1999/xlink" width="32" height="32" viewBox="0 0 32 32">
<path fill="#444444" d="M0 0v13.273l18.727 18.727c0 0 0-10.793 0-13.27 2.477 0 13.273 0 13.273 0l-18.727-18.73h-13.273zM11.797 3.562c0.773 0.77 7.879 7.883 11.602 11.605-3.102 0-8.234 0-8.234 0s0 5.133 0 8.227c-3.724-3.718-10.829-10.828-11.603-11.593 0-1.055 0-5.961 0-8.238 2.278-0.001 7.18-0.001 8.235-0.001zM11.699 8.613c0 1.703-1.383 3.086-3.082 3.086-1.703 0-3.086-1.383-3.086-3.086 0-1.699 1.383-3.078 3.086-3.078 1.699 0 3.082 1.379 3.082 3.078z"></path>
</svg>
