<?xml version="1.0" encoding="utf-8"?>
<!-- Generated by IcoMoon.io -->
<!DOCTYPE svg PUBLIC "-//W3C//DTD SVG 1.1//EN" "http://www.w3.org/Graphics/SVG/1.1/DTD/svg11.dtd">
<svg version="1.1" xmlns="http://www.w3.org/2000/svg" xmlns:xlink="http://www.w3.org/1999/xlink" width="24" height="24" viewBox="0 0 24 24">
<path fill="#444444" d="M9.998 8.498c2.039 0 3.702 1.531 3.95 3.502h3.516c-0.033-0.472-0.097-0.935-0.212-1.379l2.841-1.64-2.001-3.466-2.837 1.638c-0.895-0.881-2.010-1.532-3.255-1.877v-3.278h-4.002v3.278c-1.245 0.344-2.361 0.996-3.256 1.876l-2.836-1.637-2.001 3.466 2.839 1.639c-0.155 0.602-0.247 1.228-0.247 1.878s0.091 1.277 0.247 1.878l-2.839 1.64 2.001 3.465 2.835-1.637c0.895 0.881 2.012 1.532 3.257 1.876v3.278h4.002v-7.055c-0.591 0.344-1.269 0.556-2.002 0.556-2.209 0-4-1.791-4-4s1.791-4.001 4-4.001zM22.998 18c0-0.37-0.066-0.722-0.161-1.062l1.857-1.072-0.999-1.73-1.844 1.064c-0.501-0.51-1.14-0.875-1.853-1.061v-2.139h-1.998v2.139c-0.715 0.184-1.354 0.549-1.856 1.060l-1.841-1.063-0.999 1.73 1.853 1.069c-0.095 0.342-0.162 0.694-0.162 1.065s0.067 0.724 0.162 1.065l-1.853 1.069 0.999 1.73 1.841-1.063c0.502 0.511 1.142 0.876 1.856 1.060v2.139h1.998v-2.14c0.713-0.186 1.352-0.551 1.853-1.061l1.845 1.065 0.999-1.73-1.857-1.072c0.094-0.34 0.16-0.692 0.16-1.062zM18.996 19.998c-1.104 0-1.998-0.895-1.998-1.998s0.895-1.998 1.998-1.998 1.998 0.895 1.998 1.998-0.894 1.998-1.998 1.998z"></path>
</svg>
