<?xml version="1.0" encoding="utf-8"?>
<!-- Generated by IcoMoon.io -->
<!DOCTYPE svg PUBLIC "-//W3C//DTD SVG 1.1//EN" "http://www.w3.org/Graphics/SVG/1.1/DTD/svg11.dtd">
<svg version="1.1" xmlns="http://www.w3.org/2000/svg" xmlns:xlink="http://www.w3.org/1999/xlink" width="24" height="24" viewBox="0 0 24 24">
<path fill="#444444" d="M12 9c1.211 0 2.381 0.355 3.297 1.004 1.301 0.92 2.43 2.124 3.165 2.996-0.735 0.872-1.864 2.077-3.166 2.996-0.915 0.649-2.085 1.004-3.296 1.004s-2.382-0.355-3.299-1.004c-1.301-0.92-2.43-2.124-3.164-2.996 0.734-0.872 1.863-2.076 3.164-2.995 0.917-0.65 2.088-1.005 3.299-1.005zM12 7c-1.691 0-3.242 0.516-4.453 1.371-2.619 1.852-4.547 4.629-4.547 4.629s1.928 2.777 4.547 4.629c1.211 0.855 2.762 1.371 4.453 1.371s3.242-0.516 4.451-1.371c2.619-1.852 4.549-4.629 4.549-4.629s-1.93-2.777-4.549-4.629c-1.209-0.855-2.76-1.371-4.451-1.371z"></path>
<path fill="#444444" d="M12 12c-0.553 0-1 0.447-1 1 0 0.551 0.447 1 1 1 0.551 0 1-0.449 1-1 0-0.553-0.449-1-1-1z"></path>
<path fill="#444444" d="M12 16c-1.654 0-3-1.346-3-3s1.346-3 3-3 3 1.346 3 3-1.346 3-3 3zM12 11c-1.104 0-2 0.896-2 2s0.896 2 2 2 2-0.896 2-2-0.896-2-2-2z"></path>
</svg>
