<?xml version="1.0" encoding="utf-8"?>
<!-- Generated by IcoMoon.io -->
<!DOCTYPE svg PUBLIC "-//W3C//DTD SVG 1.1//EN" "http://www.w3.org/Graphics/SVG/1.1/DTD/svg11.dtd">
<svg version="1.1" xmlns="http://www.w3.org/2000/svg" xmlns:xlink="http://www.w3.org/1999/xlink" width="32" height="32" viewBox="0 0 32 32">
<path fill="#444444" d="M4 8h2v-2h-2v2zM28 2h-24c-2.209 0-4 1.791-4 4v24h32v-24c0-2.209-1.791-4-4-4zM30 28h-28v-16h28v16zM30 10h-28v-4c0-1.104 0.896-2 2-2h24c1.104 0 2 0.896 2 2v4zM27 6h-14c-0.552 0-1 0.448-1 1s0.448 1 1 1h14c0.553 0 1-0.448 1-1s-0.447-1-1-1zM8 8h2v-2h-2v2z"></path>
</svg>
