<?xml version="1.0" encoding="utf-8"?>
<!-- Generated by IcoMoon.io -->
<!DOCTYPE svg PUBLIC "-//W3C//DTD SVG 1.1//EN" "http://www.w3.org/Graphics/SVG/1.1/DTD/svg11.dtd">
<svg version="1.1" xmlns="http://www.w3.org/2000/svg" xmlns:xlink="http://www.w3.org/1999/xlink" width="32" height="32" viewBox="0 0 32 32">
<path fill="#444444" d="M17 6.5c0-0.276-0.224-0.5-0.5-0.5s-0.5 0.224-0.5 0.5v8.5h-9.5c-0.276 0-0.5 0.224-0.5 0.5s0.224 0.5 0.5 0.5h9.5v9.469c0 0.276 0.224 0.5 0.5 0.5s0.5-0.224 0.5-0.5v-9.469h9.469c0.276 0 0.5-0.224 0.5-0.5s-0.224-0.5-0.5-0.5h-9.469v-8.5zM31.562 15h-2.613c-0.488-6.37-5.579-11.461-11.949-11.949v-2.551c0-0.276-0.224-0.5-0.5-0.5s-0.5 0.224-0.5 0.5v2.5c-6.83 0-12.435 5.299-12.949 12h-2.489c-0.276 0-0.5 0.224-0.5 0.5s0.224 0.5 0.5 0.5h2.438c0 7.168 5.832 13 13 13v2.5c0 0.276 0.224 0.5 0.5 0.5s0.5-0.224 0.5-0.5v-2.551c6.701-0.514 12-6.119 12-12.949h2.562c0.276 0 0.5-0.224 0.5-0.5s-0.223-0.5-0.5-0.5zM16 28c-6.617 0-12-5.383-12-12s5.383-12 12-12 12 5.383 12 12-5.383 12-12 12z"></path>
</svg>
