<?xml version="1.0" encoding="utf-8"?>
<!-- Generated by IcoMoon.io -->
<!DOCTYPE svg PUBLIC "-//W3C//DTD SVG 1.1//EN" "http://www.w3.org/Graphics/SVG/1.1/DTD/svg11.dtd">
<svg version="1.1" xmlns="http://www.w3.org/2000/svg" xmlns:xlink="http://www.w3.org/1999/xlink" width="18" height="18" viewBox="0 0 18 18">
<path fill="#444444" d="M9 1c-4.418 0-8 3.582-8 8s3.582 8 8 8 8-3.582 8-8-3.582-8-8-8zM9 3c1.294 0 2.49 0.416 3.471 1.115l-1.442 1.442c-0.595-0.352-1.288-0.557-2.029-0.557s-1.434 0.206-2.029 0.557l-1.442-1.442c0.98-0.699 2.177-1.115 3.471-1.115zM11 9c0 0.106-0.013 0.208-0.031 0.309-0.133 0.855-0.805 1.527-1.66 1.66-0.101 0.018-0.203 0.031-0.309 0.031s-0.208-0.013-0.309-0.031c-0.855-0.133-1.527-0.805-1.66-1.66-0.019-0.101-0.031-0.203-0.031-0.309s0.013-0.208 0.031-0.309c0.133-0.855 0.805-1.527 1.66-1.66 0.101-0.018 0.203-0.031 0.309-0.031s0.208 0.013 0.309 0.031c0.855 0.133 1.527 0.805 1.66 1.66 0.019 0.101 0.031 0.203 0.031 0.309zM3 9c0-1.294 0.416-2.49 1.115-3.471l1.442 1.442c-0.352 0.595-0.557 1.287-0.557 2.029s0.205 1.434 0.557 2.029l-1.442 1.442c-0.699-0.981-1.115-2.177-1.115-3.471zM9 15c-1.294 0-2.49-0.416-3.471-1.115l1.442-1.442c0.595 0.352 1.288 0.557 2.029 0.557s1.434-0.206 2.029-0.557l1.442 1.442c-0.98 0.699-2.177 1.115-3.471 1.115zM13.885 12.471l-1.442-1.442c0.352-0.595 0.557-1.287 0.557-2.029s-0.205-1.434-0.557-2.029l1.442-1.442c0.699 0.981 1.115 2.177 1.115 3.471s-0.416 2.49-1.115 3.471z"></path>
</svg>
