<?xml version="1.0" encoding="utf-8"?>
<!-- Generated by IcoMoon.io -->
<!DOCTYPE svg PUBLIC "-//W3C//DTD SVG 1.1//EN" "http://www.w3.org/Graphics/SVG/1.1/DTD/svg11.dtd">
<svg version="1.1" xmlns="http://www.w3.org/2000/svg" xmlns:xlink="http://www.w3.org/1999/xlink" width="24" height="24" viewBox="0 0 24 24">
<path fill="#444444" d="M20.484 11.016q1.031 0 1.781 0.727t0.75 1.758-0.75 1.758-1.781 0.727h-1.5v4.031q0 0.797-0.586 1.383t-1.383 0.586h-3.797v-1.5q0-1.125-0.797-1.898t-1.922-0.773-1.922 0.773-0.797 1.898v1.5h-3.797q-0.797 0-1.383-0.586t-0.586-1.383v-3.797h1.5q1.125 0 1.898-0.797t0.773-1.922-0.773-1.922-1.898-0.797h-1.5v-3.797q0-0.797 0.586-1.383t1.383-0.586h4.031v-1.5q0-1.031 0.727-1.781t1.758-0.75 1.758 0.75 0.727 1.781v1.5h4.031q0.797 0 1.383 0.586t0.586 1.383v4.031h1.5z"></path>
</svg>
