<?xml version="1.0" encoding="utf-8"?>
<!-- Generated by IcoMoon.io -->
<!DOCTYPE svg PUBLIC "-//W3C//DTD SVG 1.1//EN" "http://www.w3.org/Graphics/SVG/1.1/DTD/svg11.dtd">
<svg version="1.1" xmlns="http://www.w3.org/2000/svg" xmlns:xlink="http://www.w3.org/1999/xlink" width="24" height="24" viewBox="0 0 24 24">
<path fill="#444444" d="M20.668 13.312c0.059-0.427 0.089-0.846 0.089-1.251 0-2.437-0.846-4.544-2.513-6.263-1.685-1.735-3.755-2.615-6.152-2.615-0.279 0-0.546 0.013-0.801 0.038-0.756-0.35-1.568-0.526-2.426-0.526-1.609 0-3.053 0.61-4.174 1.765-1.105 1.135-1.691 2.585-1.691 4.192 0 0.832 0.156 1.619 0.466 2.348-0.047 0.357-0.070 0.713-0.070 1.062 0 2.438 0.853 4.547 2.532 6.267 1.693 1.732 3.768 2.61 6.164 2.61 0.254 0 0.547-0.020 0.896-0.060 0.69 0.283 1.409 0.426 2.146 0.426 1.588 0 3.025-0.614 4.157-1.777 1.117-1.143 1.709-2.6 1.709-4.211 0-0.677-0.111-1.349-0.332-2.005zM15.5 15.348c-0.284 0.427-0.729 0.781-1.339 1.065-0.609 0.243-1.31 0.365-2.1 0.365-0.954 0-1.756-0.173-2.404-0.519-0.467-0.262-0.833-0.598-1.096-1.003-0.284-0.447-0.428-0.862-0.428-1.248 0-0.243 0.092-0.457 0.274-0.639 0.184-0.184 0.416-0.274 0.7-0.274 0.203 0 0.406 0.072 0.609 0.213 0.162 0.162 0.283 0.366 0.364 0.609 0.021 0.020 0.153 0.253 0.396 0.7 0.102 0.141 0.284 0.283 0.547 0.425 0.245 0.122 0.568 0.183 0.975 0.183 0.548 0 1.005-0.121 1.37-0.364 0.324-0.224 0.486-0.507 0.486-0.853 0-0.284-0.092-0.498-0.274-0.639-0.183-0.184-0.415-0.324-0.699-0.427-0.081-0.021-0.188-0.047-0.319-0.075-0.133-0.031-0.285-0.071-0.457-0.123-0.172-0.051-0.32-0.086-0.441-0.106-0.689-0.141-1.277-0.324-1.766-0.548-0.426-0.162-0.811-0.445-1.156-0.851-0.283-0.386-0.426-0.843-0.426-1.37 0-0.528 0.152-0.994 0.457-1.4 0.304-0.406 0.74-0.711 1.308-0.913 0.569-0.224 1.219-0.334 1.949-0.334 0.548 0 1.066 0.070 1.552 0.213 0.468 0.162 0.843 0.355 1.127 0.579 0.263 0.243 0.477 0.486 0.639 0.729 0.142 0.324 0.214 0.589 0.214 0.791 0 0.265-0.092 0.488-0.275 0.669-0.201 0.204-0.436 0.306-0.699 0.306-0.223 0-0.416-0.061-0.578-0.184-0.102-0.101-0.233-0.283-0.396-0.547-0.121-0.284-0.314-0.537-0.577-0.762-0.243-0.182-0.619-0.273-1.127-0.273s-0.892 0.102-1.156 0.305c-0.284 0.184-0.426 0.396-0.426 0.639 0 0.162 0.050 0.296 0.152 0.396 0.102 0.143 0.232 0.255 0.396 0.336 0.102 0.060 0.274 0.132 0.518 0.212 0.061 0.021 0.197 0.057 0.41 0.106 0.213 0.053 0.391 0.087 0.533 0.107 0.283 0.061 0.771 0.192 1.461 0.396 0.406 0.141 0.791 0.323 1.156 0.548 0.346 0.242 0.599 0.517 0.762 0.82 0.162 0.365 0.242 0.771 0.242 1.217-0.002 0.548-0.154 1.056-0.458 1.523z"></path>
</svg>
