<?xml version="1.0" encoding="utf-8"?>
<!-- Generated by IcoMoon.io -->
<!DOCTYPE svg PUBLIC "-//W3C//DTD SVG 1.1//EN" "http://www.w3.org/Graphics/SVG/1.1/DTD/svg11.dtd">
<svg version="1.1" xmlns="http://www.w3.org/2000/svg" xmlns:xlink="http://www.w3.org/1999/xlink" width="24" height="24" viewBox="0 0 24 24">
<path fill="#444444" d="M20 17h-16c-0.552 0-1-0.447-1-1v-3c0-0.68 0.234-1.346 0.658-1.874l4-5c0.98-1.226 2.885-1.469 4.143-0.524l1.674 1.254 2.185-2.729c0.57-0.717 1.424-1.127 2.341-1.127 0.679 0 1.343 0.232 1.873 0.657 0.716 0.572 1.126 1.426 1.126 2.343v10c0 0.553-0.448 1-1 1zM5 15h14v-9c0-0.307-0.137-0.59-0.375-0.779-0.227-0.183-0.465-0.221-0.624-0.221-0.306 0-0.591 0.137-0.782 0.376l-2.789 3.485c-0.337 0.423-0.949 0.5-1.381 0.176l-2.449-1.837c-0.422-0.316-1.055-0.233-1.381 0.176l-4 5c-0.181 0.228-0.219 0.464-0.219 0.624v2z"></path>
<path fill="#444444" d="M20 21h-16c-0.552 0-1-0.447-1-1s0.448-1 1-1h16c0.552 0 1 0.447 1 1s-0.448 1-1 1z"></path>
</svg>
