<?xml version="1.0" encoding="UTF-8"?>
<!DOCTYPE svg PUBLIC "-//W3C//DTD SVG 1.1//EN" "http://www.w3.org/Graphics/SVG/1.1/DTD/svg11.dtd">
<!-- Creator: CorelDRAW X8 -->
<svg xmlns="http://www.w3.org/2000/svg" xml:space="preserve" width="1.82184in" height="1.82184in" version="1.1" style="shape-rendering:geometricPrecision; text-rendering:geometricPrecision; image-rendering:optimizeQuality; fill-rule:evenodd; clip-rule:evenodd"
viewBox="0 0 691 691"
 xmlns:xlink="http://www.w3.org/1999/xlink">
 <defs>
  <style type="text/css">
   <![CDATA[
    .fil0 {fill:black}
   ]]>
  </style>
 </defs>
 <g id="Layer_x0020_1">
  <metadata id="CorelCorpID_0Corel-Layer"/>
  <g id="_133444944576">
   <path class="fil0" d="M247 294c1,-3 4,-17 5,-20 2,-8 3,-14 5,-21l23 -105c2,-7 5,-16 5,-23l79 0c94,0 89,110 14,155 -16,10 -33,14 -58,14 -24,0 -49,0 -73,0zm190 -294l12 0c42,1 87,23 115,51 0,1 1,2 1,2 1,1 1,1 2,2 3,3 6,7 9,10 23,32 28,64 28,104 0,30 -15,86 -31,113 -2,3 -3,6 -5,10 -9,14 -30,43 -42,53 -12,10 -23,20 -37,28 -45,28 -90,40 -150,40l-118 0 -10 51c-8,35 -14,69 -22,103 -4,16 -7,33 -11,50l-31 0 -7 31 89 0 11 -52c3,-17 7,-34 11,-51l19 -90c1,-4 2,-8 3,-12 52,0 104,0 156,0 29,0 47,-2 70,-9 19,-5 38,-14 53,-24 31,-19 57,-48 75,-79 17,-29 34,-78 34,-122 0,-94 -54,-108 -62,-119 18,5 51,33 64,50 18,27 27,55 28,85l0 18c-1,17 -4,35 -8,53 -8,31 -13,39 -28,68 -3,7 -7,12 -12,19 -4,6 -8,12 -13,17 -10,11 -20,23 -32,32 -49,37 -98,55 -165,55l-125 0c-1,7 -4,19 -5,26 -2,9 -4,18 -6,26 -12,49 -21,101 -33,152l-178 0c0,-5 15,-71 17,-74l-103 0 33 -155c5,-26 12,-51 17,-77l84 -385c101,0 202,0 303,0z"/>
   <path class="fil0" d="M596 90l1 0c0,0 -1,0 -1,0z"/>
  </g>
 </g>
</svg>
