<?xml version="1.0" encoding="utf-8"?>
<!-- Generated by IcoMoon.io -->
<!DOCTYPE svg PUBLIC "-//W3C//DTD SVG 1.1//EN" "http://www.w3.org/Graphics/SVG/1.1/DTD/svg11.dtd">
<svg version="1.1" xmlns="http://www.w3.org/2000/svg" xmlns:xlink="http://www.w3.org/1999/xlink" width="24" height="24" viewBox="0 0 24 24">
<path fill="#444444" d="M11.997 4.5c-4.685 0-8.497 3.812-8.497 8.5s3.813 8.5 8.5 8.5c4.688 0 8.5-3.812 8.5-8.5s-3.812-8.5-8.503-8.5zM12 19.5c-3.584 0-6.5-2.916-6.5-6.5s2.914-6.5 6.5-6.5c3.584 0 6.5 2.916 6.5 6.5s-2.916 6.5-6.5 6.5z"></path>
<path fill="#444444" d="M15.348 12.031c0.050-0.010 0.097-0.031 0.152-0.031h0.879c-0.383-1.677-1.699-2.995-3.379-3.378v0.878c0 0.551-0.449 1-1 1-0.497 0-0.892-0.371-0.969-0.846-0.009-0.052-0.031-0.099-0.031-0.154v-0.88c-1.678 0.382-2.997 1.702-3.38 3.38h0.88c0.054 0 0.101 0.021 0.153 0.031 0.476 0.076 0.847 0.472 0.847 0.969s-0.371 0.893-0.846 0.969c-0.052 0.010-0.099 0.031-0.154 0.031h-0.878c0.384 1.677 1.702 2.995 3.378 3.379v-0.879c0-0.055 0.022-0.102 0.031-0.154 0.077-0.476 0.472-0.846 0.969-0.846s0.893 0.371 0.969 0.848c0.010 0.050 0.031 0.097 0.031 0.152v0.879c1.677-0.383 2.996-1.702 3.379-3.379h-0.879c-0.055 0-0.102-0.021-0.152-0.031-0.477-0.076-0.848-0.472-0.848-0.969s0.371-0.893 0.848-0.969zM14.902 14.898c-0.264 0.399-0.604 0.74-1.004 1.002-0.256-0.81-1.004-1.401-1.897-1.401s-1.642 0.592-1.898 1.401c-0.4-0.262-0.74-0.603-1.003-1.002 0.81-0.256 1.401-1.006 1.401-1.898 0-0.895-0.592-1.643-1.402-1.898 0.263-0.399 0.603-0.74 1.004-1.002 0.256 0.81 1.005 1.401 1.898 1.401 0.894 0 1.644-0.593 1.899-1.403 0.399 0.264 0.74 0.604 1.002 1.004-0.81 0.256-1.401 1.006-1.401 1.898-0.001 0.893 0.591 1.643 1.401 1.898z"></path>
</svg>
