<?xml version="1.0" encoding="utf-8"?>
<!-- Generated by IcoMoon.io -->
<!DOCTYPE svg PUBLIC "-//W3C//DTD SVG 1.1//EN" "http://www.w3.org/Graphics/SVG/1.1/DTD/svg11.dtd">
<svg version="1.1" xmlns="http://www.w3.org/2000/svg" xmlns:xlink="http://www.w3.org/1999/xlink" width="24" height="24" viewBox="0 0 24 24">
<path fill="#444444" d="M13 6c0 0.552-0.448 1-1 1s-1-0.448-1-1c0-0.552 0.448-1 1-1s1 0.448 1 1z"></path>
<path fill="#444444" d="M19.793 12.096c0.134-0.34 0.207-0.709 0.207-1.096 0-1.654-1.346-3-3-3h-0.422c0.273-0.619 0.422-1.297 0.422-2 0-2.757-2.243-5-5-5s-5 2.243-5 5c0 0.703 0.149 1.381 0.422 2h-0.422c-1.654 0-3 1.346-3 3 0 0.387 0.073 0.756 0.207 1.096-0.732 0.548-1.207 1.422-1.207 2.404 0 4.963 4.037 9 9 9s9-4.037 9-9c0-0.982-0.475-1.856-1.207-2.404zM12 21.5c-3.859 0-7-3.141-7-7 0-0.553 0.447-1 1-1s1 0.447 1 1c0 2.414 1.721 4.434 4 4.898v-7.398h-4c-0.553 0-1-0.447-1-1s0.447-1 1-1h4v-1.184c-1.162-0.413-2-1.511-2-2.816 0-1.657 1.343-3 3-3s3 1.343 3 3c0 1.305-0.838 2.403-2 2.816v1.184h4c0.553 0 1 0.447 1 1s-0.447 1-1 1h-4v7.398c2.279-0.465 4-2.484 4-4.898 0-0.553 0.447-1 1-1s1 0.447 1 1c0 3.859-3.141 7-7 7zM7.321 13h2.679v4.962c-1.207-0.701-2-2.009-2-3.462 0-0.597-0.263-1.133-0.679-1.5zM16.679 13c-0.416 0.367-0.679 0.903-0.679 1.5 0 1.453-0.793 2.761-2 3.462v-4.962h2.679z"></path>
</svg>
