<?xml version="1.0" encoding="utf-8"?>
<!-- Generated by IcoMoon.io -->
<!DOCTYPE svg PUBLIC "-//W3C//DTD SVG 1.1//EN" "http://www.w3.org/Graphics/SVG/1.1/DTD/svg11.dtd">
<svg version="1.1" xmlns="http://www.w3.org/2000/svg" xmlns:xlink="http://www.w3.org/1999/xlink" width="48" height="48" viewBox="0 0 48 48">
<path fill="#444444" d="M25 37.5c0-0.88-0.15-1.72-0.431-2.5h5.851c-0.27 0.78-0.42 1.62-0.42 2.5 0 4.141 3.359 7.5 7.5 7.5 4.14 0 7.5-3.359 7.5-7.5 0-4.14-3.36-7.5-7.5-7.5h-16.5c-1.1 0-2-0.9-2-2s0.9-2 2-2h17.2c1.81 0 3.369-1.061 4.079-2.6 0.271-0.58 5.451-12.39 5.451-12.39 0.14-0.321 0.27-0.64 0.27-1.010 0-1.1-0.9-2-2-2l-31.221-0-0.84-2.59c-0.389-1.39-1.479-2.41-2.939-2.41h-8.5c-1.38 0-2.5 1.12-2.5 2.5s1.12 2.5 2.5 2.5h5.25c0.89 0 1.64 0.58 1.9 1.37l4.22 21.569c-2.309 1.271-3.87 3.741-3.87 6.561 0 4.141 3.359 7.5 7.5 7.5 4.14 0 7.5-3.359 7.5-7.5zM20 37.5c0 1.38-1.12 2.5-2.5 2.5s-2.5-1.12-2.5-2.5 1.12-2.5 2.5-2.5 2.5 1.12 2.5 2.5zM40 37.5c0 1.38-1.12 2.5-2.5 2.5s-2.5-1.12-2.5-2.5 1.12-2.5 2.5-2.5 2.5 1.12 2.5 2.5z"></path>
</svg>
