<?xml version="1.0" encoding="utf-8"?>
<!-- Generated by IcoMoon.io -->
<!DOCTYPE svg PUBLIC "-//W3C//DTD SVG 1.1//EN" "http://www.w3.org/Graphics/SVG/1.1/DTD/svg11.dtd">
<svg version="1.1" xmlns="http://www.w3.org/2000/svg" xmlns:xlink="http://www.w3.org/1999/xlink" width="24" height="24" viewBox="0 0 24 24">
<path fill="#444444" d="M14 1h-5c-1.656 0-3 1.343-3 3v9c0 1.657 1.344 3 3 3h5c1.656 0 3-1.343 3-3v-9c0-1.657-1.344-3-3-3zM15 6v1h-2v1h2v1h-2v1h2v1h-2v1h2v1c0 0.551 0.072 1-0.479 1h-6.042c-0.551 0-0.479-0.449-0.479-1v-1h2v-1h-2v-1h2v-1h-2v-1h2v-1h-2v-1h2v-1h-2v-1c0-0.551-0.072-1 0.479-1h6.041c0.552 0 0.48 0.449 0.48 1v1h-2v1h2zM19 12v-2h-1v5c0 1.121-0.729 2-2.325 2h-8.35c-1.596 0-2.325-0.879-2.325-2v-5h-1v2h-1v2h1v1c0 2.243 0.608 3 3.325 3h1.675v3h-2v2h9v-2h-2v-3h1.675c2.717 0 3.325-0.757 3.325-3v-1h1v-2h-1z"></path>
</svg>
