<?xml version="1.0" encoding="UTF-8"?>
<!DOCTYPE svg PUBLIC "-//W3C//DTD SVG 1.1//EN" "http://www.w3.org/Graphics/SVG/1.1/DTD/svg11.dtd">
<!-- Creator: CorelDRAW X8 -->
<svg xmlns="http://www.w3.org/2000/svg" xml:space="preserve" width="2.9605in" height="3.38343in" version="1.1" style="shape-rendering:geometricPrecision; text-rendering:geometricPrecision; image-rendering:optimizeQuality; fill-rule:evenodd; clip-rule:evenodd"
viewBox="0 0 1174 1341"
 xmlns:xlink="http://www.w3.org/1999/xlink">
 <defs>
  <style type="text/css">
   <![CDATA[
    .fil0 {fill:black}
   ]]>
  </style>
 </defs>
 <g id="Layer_x0020_1">
  <metadata id="CorelCorpID_0Corel-Layer"/>
  <g id="_133444937984">
   <path class="fil0" d="M0 728c0,123 14,197 66,296l32 57c3,5 4,5 8,10l65 80c7,7 11,8 18,15 32,31 64,53 102,76 77,47 186,79 278,79 110,0 175,-12 265,-54 4,-2 7,-3 11,-5l57 -32c31,-20 76,-55 101,-79 7,-8 9,-12 15,-19 23,-23 45,-51 63,-79 71,-118 93,-201 93,-345 0,-62 -21,-140 -43,-195 -26,-64 -69,-133 -116,-180 -23,-22 -33,-36 -63,-58 -13,-10 -21,-17 -35,-26 -41,-27 -114,-67 -162,-78l0 181c41,10 104,64 134,94 24,24 42,50 60,79 66,111 73,249 24,370 -23,58 -69,120 -117,159 -4,4 -6,6 -11,10 -29,23 -68,45 -103,59 -54,21 -80,25 -134,28 -29,2 0,3 -40,0 -28,-2 -20,3 -64,-6 -109,-22 -216,-95 -271,-188 -28,-47 -26,-46 -44,-94 -52,-138 -2,-320 93,-415 24,-23 46,-45 75,-63 15,-9 46,-29 62,-33l0 -181c-18,4 -69,26 -85,33 -51,27 -127,72 -165,118l-36 40c-50,58 -103,161 -118,240 -7,33 -15,69 -15,106z"/>
   <polygon class="fil0" points="503,671 671,671 671,0 503,0 "/>
  </g>
 </g>
</svg>
