<?xml version="1.0" encoding="utf-8"?>
<!-- Generated by IcoMoon.io -->
<!DOCTYPE svg PUBLIC "-//W3C//DTD SVG 1.1//EN" "http://www.w3.org/Graphics/SVG/1.1/DTD/svg11.dtd">
<svg version="1.1" xmlns="http://www.w3.org/2000/svg" xmlns:xlink="http://www.w3.org/1999/xlink" width="32" height="32" viewBox="0 0 32 32">
<path fill="#444444" d="M30 28h-2v-4c0-1.105-0.895-2-2-2s-2 0.895-2 2v4h-16v-4c0-1.105-0.894-2-2-2s-2 0.895-2 2v4h-2c-1.105 0-2 0.895-2 2s0.894 2 2 2h28c1.105 0 2-0.895 2-2s-0.895-2-2-2zM30 0h-28c-1.105 0-2 0.895-2 2v12c0 2.209 1.791 4 4 4s4-1.791 4-4c0 2.209 1.791 4 4 4s4-1.791 4-4c0 2.209 1.791 4 4 4s4-1.791 4-4c0 2.209 1.791 4 4 4s4-1.791 4-4v-12c0-1.105-0.895-2-2-2z"></path>
</svg>
