<?xml version="1.0" encoding="utf-8"?>
<!-- Generated by IcoMoon.io -->
<!DOCTYPE svg PUBLIC "-//W3C//DTD SVG 1.1//EN" "http://www.w3.org/Graphics/SVG/1.1/DTD/svg11.dtd">
<svg version="1.1" xmlns="http://www.w3.org/2000/svg" xmlns:xlink="http://www.w3.org/1999/xlink" width="24" height="24" viewBox="0 0 24 24">
<path fill="#444444" d="M2 0v24h20v-24h-20zM20 22h-16v-20h16v20zM19 4h-3v-1h-8v1h-3v17h14v-17zM9 4h6v1h-6v-1zM18 20h-12v-15h2v1h8v-1h2v15zM7 9h9v-2h-9v2zM7 11h9v-1h-9v1zM7 13h9v-1h-9v1zM7 15h9v-1h-9v1zM7 17h4v-1h-4v1z"></path>
</svg>
