<?xml version="1.0" encoding="utf-8"?>
<!-- Generated by IcoMoon.io -->
<!DOCTYPE svg PUBLIC "-//W3C//DTD SVG 1.1//EN" "http://www.w3.org/Graphics/SVG/1.1/DTD/svg11.dtd">
<svg version="1.1" xmlns="http://www.w3.org/2000/svg" xmlns:xlink="http://www.w3.org/1999/xlink" width="24" height="24" viewBox="0 0 24 24">
<path fill="#444444" d="M21 9h-7v2h7v8h-7c0 1.1-1 2-1 2h8c1.1 0 2-0.9 2-2v-8c0-1.1-0.9-2-2-2zM10 3h-8c-1.1 0-2 0.9-2 2v14c0 1.1 0.9 2 2 2h8c1.1 0 2-0.9 2-2v-14c0-1.1-0.9-2-2-2zM7 20h-2v-2h2v2zM10 17h-8v-12h8v12z"></path>
</svg>
