<?xml version="1.0" encoding="utf-8"?>
<!-- Generated by IcoMoon.io -->
<!DOCTYPE svg PUBLIC "-//W3C//DTD SVG 1.1//EN" "http://www.w3.org/Graphics/SVG/1.1/DTD/svg11.dtd">
<svg version="1.1" xmlns="http://www.w3.org/2000/svg" xmlns:xlink="http://www.w3.org/1999/xlink" width="24" height="24" viewBox="0 0 24 24">
<path fill="#444444" d="M18.983 8.791c-0.176-3.704-3.236-6.666-6.983-6.666s-6.807 2.962-6.983 6.666c-0.002 0.029-0.017 0.054-0.017 0.084v6.25c0 3.86 3.141 7 7 7s7-3.14 7-7v-6.25c0-0.030-0.015-0.055-0.017-0.084zM12 17.625c-2.22 0-4.132-1.324-5-3.222v-0.388c1.271 1.3 3.042 2.11 5 2.11s3.729-0.811 5-2.11v0.388c-0.868 1.898-2.78 3.222-5 3.222zM12 4.125c2.757 0 5 2.243 5 5s-2.243 5-5 5-5-2.243-5-5 2.243-5 5-5zM12 20.125c-2.271 0-4.172-1.532-4.778-3.609 1.188 1.293 2.888 2.109 4.778 2.109s3.59-0.816 4.778-2.109c-0.606 2.077-2.507 3.609-4.778 3.609z"></path>
</svg>
