<?xml version="1.0" encoding="utf-8"?>
<!-- Generated by IcoMoon.io -->
<!DOCTYPE svg PUBLIC "-//W3C//DTD SVG 1.1//EN" "http://www.w3.org/Graphics/SVG/1.1/DTD/svg11.dtd">
<svg version="1.1" xmlns="http://www.w3.org/2000/svg" xmlns:xlink="http://www.w3.org/1999/xlink" width="28" height="32" viewBox="0 0 28 32">
<path fill="#444444" d="M20 0v3.875c0 1.602-0.625 3.109-1.754 4.238l-11.316 11.254c-1.789 1.785-2.774 4.129-2.883 6.633h-4.047l6 6 6-6h-3.957c0.105-1.438 0.684-2.773 1.711-3.805l11.316-11.25c1.891-1.89 2.93-4.398 2.93-7.070v-3.875h-4zM23.953 26c-0.109-2.504-1.098-4.848-2.887-6.641l-2.23-2.215-2.836 2.821 2.242 2.23c1.031 1.027 1.609 2.367 1.715 3.805h-3.957l6 6 6-6h-4.047z"></path>
</svg>
