<?xml version="1.0" encoding="utf-8"?>
<!-- Generated by IcoMoon.io -->
<!DOCTYPE svg PUBLIC "-//W3C//DTD SVG 1.1//EN" "http://www.w3.org/Graphics/SVG/1.1/DTD/svg11.dtd">
<svg version="1.1" xmlns="http://www.w3.org/2000/svg" xmlns:xlink="http://www.w3.org/1999/xlink" width="32" height="32" viewBox="0 0 32 32">
<path fill="#444444" d="M32 32h-32v-28h4v24h24v-24h4zM6 12h4v4h-4zM14 12h4v4h-4zM22 12h4v4h-4zM6 20h4v4h-4zM14 20h4v4h-4zM22 24v-4h4zM8 6v-4c0-1.105 0.895-2 2-2s2 0.895 2 2v4c0 1.105-0.895 2-2 2s-2-0.895-2-2zM20 6v-4c0-1.105 0.895-2 2-2s2 0.895 2 2v4c0 1.105-0.895 2-2 2s-2-0.895-2-2z"></path>
</svg>
