<?xml version="1.0" encoding="utf-8"?>
<!-- Generated by IcoMoon.io -->
<!DOCTYPE svg PUBLIC "-//W3C//DTD SVG 1.1//EN" "http://www.w3.org/Graphics/SVG/1.1/DTD/svg11.dtd">
<svg version="1.1" xmlns="http://www.w3.org/2000/svg" xmlns:xlink="http://www.w3.org/1999/xlink" width="48" height="48" viewBox="0 0 48 48">
<path fill="#444444" d="M30.812 0.718l-8.811 8.8-3.811-3.8c-0.959-0.96-2.51-0.96-3.47 0s-0.96 2.51 0 3.47l0.54 0.54-4.26 4.27c-5.5 5.5-6.63 13.611-2.66 20.041l-7.18 7.18c-1.551 1.549-1.551 4.070 0 5.619 1.55 1.551 4.070 1.551 5.609 0l7.181-7.189c6.45 4 14.541 2.859 20.050-2.65l4.26-4.27 0.551 0.551c0.959 0.959 2.508 0.959 3.469 0 0.961-0.961 0.961-2.512 0-3.471l-4.311-4.311 9.311-9.31c0.961-0.96 0.961-2.51 0-3.47s-2.51-0.96-3.469 0l-9.311 9.3-9.031-9.020 8.811-8.81c0.961-0.96 0.961-2.51 0-3.47s-2.509-0.96-3.468-0z"></path>
</svg>
