<?xml version="1.0" encoding="utf-8"?>
<!-- Generated by IcoMoon.io -->
<!DOCTYPE svg PUBLIC "-//W3C//DTD SVG 1.1//EN" "http://www.w3.org/Graphics/SVG/1.1/DTD/svg11.dtd">
<svg version="1.1" xmlns="http://www.w3.org/2000/svg" xmlns:xlink="http://www.w3.org/1999/xlink" width="24" height="24" viewBox="0 0 24 24">
<path fill="#444444" d="M9.387 17.548l0.371 1.482c0.133 0.533 0.692 0.97 1.242 0.97h1c0.55 0 1.109-0.437 1.242-0.97l0.371-1.482c0.133-0.533 0.675-0.846 1.203-0.694l1.467 0.42c0.529 0.151 1.188-0.114 1.462-0.591l0.5-0.867c0.274-0.477 0.177-1.179-0.219-1.562l-1.098-1.061c-0.396-0.383-0.396-1.008 0.001-1.39l1.096-1.061c0.396-0.382 0.494-1.084 0.22-1.561l-0.501-0.867c-0.275-0.477-0.933-0.742-1.461-0.591l-1.467 0.42c-0.529 0.151-1.070-0.161-1.204-0.694l-0.37-1.48c-0.133-0.532-0.692-0.969-1.242-0.969h-1c-0.55 0-1.109 0.437-1.242 0.97l-0.37 1.48c-0.134 0.533-0.675 0.846-1.204 0.695l-1.467-0.42c-0.529-0.152-1.188 0.114-1.462 0.59l-0.5 0.867c-0.274 0.477-0.177 1.179 0.22 1.562l1.096 1.059c0.395 0.383 0.395 1.008 0 1.391l-1.098 1.061c-0.395 0.383-0.494 1.085-0.219 1.562l0.501 0.867c0.274 0.477 0.933 0.742 1.462 0.591l1.467-0.42c0.528-0.153 1.070 0.16 1.203 0.693zM11.5 10.5c1.104 0 2 0.895 2 2s-0.896 2-2 2-2-0.896-2-2c0-1.105 0.896-2 2-2z"></path>
</svg>
