<?xml version="1.0" encoding="utf-8"?>
<!-- Generated by IcoMoon.io -->
<!DOCTYPE svg PUBLIC "-//W3C//DTD SVG 1.1//EN" "http://www.w3.org/Graphics/SVG/1.1/DTD/svg11.dtd">
<svg version="1.1" xmlns="http://www.w3.org/2000/svg" xmlns:xlink="http://www.w3.org/1999/xlink" width="32" height="32" viewBox="0 0 32 32">
<path fill="#444444" d="M30 32h-28c-1.105 0-2-0.895-2-2v-28c0-1.105 0.894-2 2-2h28c1.105 0 2 0.894 2 2v28c0 1.105-0.895 2-2 2zM28 4h-24v6h24v-6zM28 14h-24v14h24v-14zM8 8h-2v-2h2v2zM12 8h-2v-2h2v2zM26 8h-12v-2h12v2z"></path>
</svg>
