<?xml version="1.0" encoding="utf-8"?>
<!-- Generated by IcoMoon.io -->
<!DOCTYPE svg PUBLIC "-//W3C//DTD SVG 1.1//EN" "http://www.w3.org/Graphics/SVG/1.1/DTD/svg11.dtd">
<svg version="1.1" xmlns="http://www.w3.org/2000/svg" xmlns:xlink="http://www.w3.org/1999/xlink" width="18" height="18" viewBox="0 0 18 18">
<path fill="#444444" d="M16 3h-14c-0.552 0-1 0.448-1 1v10c0 0.552 0.448 1 1 1h14c0.552 0 1-0.448 1-1v-10c0-0.552-0.448-1-1-1zM14.618 5l-5.618 3.831-5.618-3.831h11.236zM15 12.5c0 0.276-0.224 0.5-0.5 0.5h-11c-0.276 0-0.5-0.224-0.5-0.5v-5.363l5.497 3.723c0.155 0.093 0.329 0.139 0.503 0.139s0.348-0.046 0.503-0.139l5.497-3.723v5.363z"></path>
</svg>
