<?xml version="1.0" encoding="utf-8"?>
<!-- Generated by IcoMoon.io -->
<!DOCTYPE svg PUBLIC "-//W3C//DTD SVG 1.1//EN" "http://www.w3.org/Graphics/SVG/1.1/DTD/svg11.dtd">
<svg version="1.1" xmlns="http://www.w3.org/2000/svg" xmlns:xlink="http://www.w3.org/1999/xlink" width="48" height="48" viewBox="0 0 48 48">
<path fill="#444444" d="M26.9 33.37l2.91 2.91c0.959 0.96 2.509 0.96 3.469 0 0.961-0.96 0.961-2.511 0-3.47l-2.899-2.91 2.899-2.9c0 0-10.979-4.69-11.429-4.86-0.24-0.090-0.49-0.14-0.75-0.14-1.16 0-2.1 0.93-2.1 2.080 0 0.27 0.050 0.52 0.14 0.75 0.17 0.43 4.86 11.45 4.86 11.45l2.9-2.91zM0 43c0 2.21 1.79 4 4 4h40c2.21 0 4-1.79 4-4l-0-37c0-2.21-1.79-4-4-4h-40c-2.21 0-4 1.79-4 4v37zM7.2 16h33.6c1.22 0 2.2 0.98 2.2 2.2v21.6c0 1.22-0.98 2.2-2.2 2.2l-33.6-0c-1.22 0-2.2-0.98-2.2-2.2v-21.6c0-1.22 0.98-2.2 2.2-2.2zM5 9.5c0-1.38 1.12-2.5 2.5-2.5s2.5 1.12 2.5 2.5-1.12 2.5-2.5 2.5-2.5-1.12-2.5-2.5zM14 9.5c0-1.38 1.12-2.5 2.5-2.5s2.5 1.12 2.5 2.5-1.12 2.5-2.5 2.5-2.5-1.12-2.5-2.5zM23 9.5c0-1.38 1.12-2.5 2.5-2.5s2.5 1.12 2.5 2.5-1.12 2.5-2.5 2.5-2.5-1.12-2.5-2.5z"></path>
</svg>
