<?xml version="1.0" encoding="UTF-8"?>
<!DOCTYPE svg PUBLIC "-//W3C//DTD SVG 1.1//EN" "http://www.w3.org/Graphics/SVG/1.1/DTD/svg11.dtd">
<!-- Creator: CorelDRAW X8 -->
<svg xmlns="http://www.w3.org/2000/svg" xml:space="preserve" width="2.49173in" height="2.1806in" version="1.1" style="shape-rendering:geometricPrecision; text-rendering:geometricPrecision; image-rendering:optimizeQuality; fill-rule:evenodd; clip-rule:evenodd"
viewBox="0 0 2343 2051"
 xmlns:xlink="http://www.w3.org/1999/xlink">
 <defs>
  <style type="text/css">
   <![CDATA[
    .fil0 {fill:black}
   ]]>
  </style>
 </defs>
 <g id="Layer_x0020_1">
  <metadata id="CorelCorpID_0Corel-Layer"/>
  <path class="fil0" d="M876 1903l-433 0 0 -1143c0,-16 73,-67 85,-76 199,-156 399,-323 597,-478 15,-11 32,-27 46,-37l367 293c62,50 120,97 182,146l138 111c8,6 15,12 23,18 9,6 19,9 19,23l0 1143 -433 0 0 -733 -591 0 0 733zm-876 -959l0 0c0,-32 37,-57 56,-73l348 -279c43,-34 34,-20 34,-91 0,-76 -5,-337 2,-376 26,-148 225,-170 281,-36 24,58 12,161 12,237 33,-18 381,-308 406,-318 52,-23 89,15 121,41 34,27 66,52 99,80 67,55 133,106 200,159 246,196 507,411 754,603 58,45 29,136 -44,136 -46,0 -162,-115 -217,-152l0 982c0,67 -1,95 -30,135 -19,26 -62,59 -103,59l-462 0c-99,0 -143,-88 -143,-189l0 -540 -286 0 0 549c0,101 -51,180 -142,180l-462 0c-43,0 -86,-34 -105,-61 -27,-38 -29,-71 -28,-133l0 -982c-18,11 -35,26 -52,40 -35,29 -124,112 -165,112 -48,0 -74,-34 -74,-83z"/>
 </g>
</svg>
