<?xml version="1.0" encoding="utf-8"?>
<!-- Generated by IcoMoon.io -->
<!DOCTYPE svg PUBLIC "-//W3C//DTD SVG 1.1//EN" "http://www.w3.org/Graphics/SVG/1.1/DTD/svg11.dtd">
<svg version="1.1" xmlns="http://www.w3.org/2000/svg" xmlns:xlink="http://www.w3.org/1999/xlink" width="48" height="48" viewBox="0 0 48 48">
<path fill="#444444" d="M0 24.5c0 12.98 10.52 23.5 23.5 23.5s23.5-10.52 23.5-23.5c0-12.98-10.52-23.5-23.5-23.5s-23.5 10.52-23.5 23.5zM5 24.5c0-1.2 0.11-2.37 0.33-3.5h4.8c-0.090 0.99-0.13 1.99-0.13 3s0.040 2.010 0.13 3h-4.97c-0.11-0.82-0.16-1.65-0.16-2.5zM7.070 16c1.46-2.83 3.63-5.23 6.28-6.97-1.050 2.21-1.87 4.54-2.44 6.97h-3.84zM20.85 6.19l0.15-0.020v9.83h-4.92c0.99-3.58 2.62-6.9 4.77-9.81zM26 6.17l0.14 0.020c2.15 2.91 3.79 6.23 4.78 9.81l-4.92 0v-9.83zM33.64 9.030c2.65 1.74 4.83 4.14 6.29 6.97h-3.85c-0.56-2.43-1.391-4.76-2.44-6.97zM41.67 21c0.22 1.13 0.33 2.3 0.33 3.5 0 0.85-0.061 1.68-0.17 2.5h-4.95c0.080-0.99 0.12-1.99 0.12-3s-0.040-2.010-0.12-3h4.79zM40.42 32c-1.57 3.53-4.21 6.48-7.51 8.43 1.4-2.63 2.47-5.459 3.17-8.43h4.34zM14.090 40.43c-3.3-1.95-5.94-4.9-7.51-8.43h4.34c0.7 2.971 1.77 5.811 3.17 8.43zM15.15 21h5.85v6h-5.85c-0.1-0.99-0.15-1.99-0.15-3s0.050-2.010 0.15-3zM26 21h5.85c0.1 0.99 0.15 1.99 0.15 3s-0.050 2.010-0.15 3h-5.85v-6zM16.080 32h4.92v10c-2.22-2.96-3.91-6.34-4.92-10zM26 32h4.92c-1.010 3.66-2.7 7.040-4.92 10v-10z"></path>
</svg>
