<?xml version="1.0" encoding="utf-8"?>
<!-- Generated by IcoMoon.io -->
<!DOCTYPE svg PUBLIC "-//W3C//DTD SVG 1.1//EN" "http://www.w3.org/Graphics/SVG/1.1/DTD/svg11.dtd">
<svg version="1.1" xmlns="http://www.w3.org/2000/svg" xmlns:xlink="http://www.w3.org/1999/xlink" width="24" height="24" viewBox="0 0 24 24">
<path fill="#444444" d="M23.016 12v2.016h-4.313l0.188 0.375q0.422 1.078 0.422 2.203 0 1.031-0.516 2.297-0.281 0.75-1.406 1.688-1.031 0.891-2.203 1.125-1.172 0.375-2.906 0.375-1.594 0-3.703-0.656-0.328-0.141-0.867-0.492t-0.727-0.445q-0.563-0.281-1.266-1.172t-0.938-1.594q-0.281-0.891-0.281-2.109h3.984q0 0.844 0.328 1.594 0.141 0.328 0.797 0.984 0.797 0.797 2.813 0.797 0.516 0 1.359-0.188 0.094-0.094 0.469-0.258t0.469-0.258q0.422-0.281 0.563-0.703 0.234-0.703 0.234-0.891 0-1.219-0.703-1.688-0.844-0.563-1.219-0.703-0.094-0.047-0.352-0.141t-0.352-0.141h-11.906v-2.016h22.031zM5.906 9.984q-0.281-0.281-0.328-0.375-0.469-1.031-0.469-2.203t0.609-2.203q0.75-1.875 3.703-2.813 1.172-0.375 2.859-0.375 2.063 0 3.141 0.469 1.125 0.234 2.297 1.219 0.938 0.797 1.359 1.875 0.516 1.266 0.516 2.438h-3.984q0-1.5-0.797-2.016-0.797-0.797-2.391-0.797-0.563 0-1.406 0.188-0.375 0.094-1.031 0.516-0.422 0.281-0.563 0.703-0.234 0.703-0.234 0.891 0 0.984 1.031 1.594 1.031 0.563 1.969 0.891h-6.281z"></path>
</svg>
