<?xml version="1.0" encoding="utf-8"?>
<!-- Generated by IcoMoon.io -->
<!DOCTYPE svg PUBLIC "-//W3C//DTD SVG 1.1//EN" "http://www.w3.org/Graphics/SVG/1.1/DTD/svg11.dtd">
<svg version="1.1" xmlns="http://www.w3.org/2000/svg" xmlns:xlink="http://www.w3.org/1999/xlink" width="48" height="48" viewBox="0 0 48 48">
<path fill="#444444" d="M44.009 18h2.99c0.26 0 0.52-0.1 0.72-0.29 0.39-0.39 0.39-1.030 0-1.42-0.271-0.26-3.62-4.29-3.62-4.29s3.35-4.030 3.62-4.29c0.39-0.39 0.39-1.030 0-1.42-0.2-0.19-0.46-0.29-0.72-0.29h-4.811c-2.189-3.6-6.16-6-10.68-6-6.9 0-12.5 5.6-12.5 12.5 0 4.14-3.36 7.5-7.5 7.5h-9.519c-1.101 0-2 0.9-2 2l0.010 0.27c0.89 8.7 6.979 15.9 15.010 18.59v4.64c0 1.38 1.12 2.5 2.5 2.5s2.5-1.12 2.5-2.5v-3.59c0.66 0.060 1.33 0.090 2 0.090s1.34-0.030 2-0.090v3.59c0 1.38 1.12 2.5 2.5 2.5s2.5-1.12 2.5-2.5v-4.64c8.72-2.921 15-11.16 15-20.86l-0-2zM32.009 8.5c0-1.38 1.12-2.5 2.5-2.5s2.5 1.12 2.5 2.5-1.12 2.5-2.5 2.5-2.5-1.12-2.5-2.5zM24.249 23.26c1.41 3.061 0.859 6.801-1.66 9.32-2.48 2.49-6.16 3.061-9.19 1.71l-0.32-0.17c-0.64-0.34-1.069-1.010-1.069-1.78 0-0.59 0.25-1.12 0.65-1.49 0.199-0.18 8.27-8.26 8.27-8.26 0.79-0.79 2.070-0.79 2.85 0 0.12 0.12 0.23 0.25 0.311 0.39l0.158 0.28z"></path>
</svg>
