<?xml version="1.0" encoding="utf-8"?>
<!-- Generated by IcoMoon.io -->
<!DOCTYPE svg PUBLIC "-//W3C//DTD SVG 1.1//EN" "http://www.w3.org/Graphics/SVG/1.1/DTD/svg11.dtd">
<svg version="1.1" xmlns="http://www.w3.org/2000/svg" xmlns:xlink="http://www.w3.org/1999/xlink" width="32" height="32" viewBox="0 0 32 32">
<path fill="#444444" d="M30 24c0 0-8.25 0-10 0s2 6 2 6c0 1.104-0.896 2-2 2h-8c-1.104 0-2-0.896-2-2 0 0 3.812-6 2-6s-10 0-10 0c-1.104 0-2-0.896-2-2v-20c0-1.104 0.896-2 2-2h28c1.104 0 2 0.896 2 2v20c0 1.104-0.896 2-2 2zM16 23c1.104 0 2-0.896 2-2s-0.896-2-2-2-2 0.896-2 2 0.896 2 2 2zM30 4c0-1.104-0.896-2-2-2h-24c-1.104 0-2 0.896-2 2v12c0 1.104 0.896 2 2 2h24c1.104 0 2-0.896 2-2v-12z"></path>
</svg>
