<?xml version="1.0" encoding="utf-8"?>
<!-- Generated by IcoMoon.io -->
<!DOCTYPE svg PUBLIC "-//W3C//DTD SVG 1.1//EN" "http://www.w3.org/Graphics/SVG/1.1/DTD/svg11.dtd">
<svg version="1.1" xmlns="http://www.w3.org/2000/svg" xmlns:xlink="http://www.w3.org/1999/xlink" width="32" height="32" viewBox="0 0 32 32">
<path fill="#444444" d="M17 24.938h-4v-7h4v7zM16 21.938h-2v2h2v-2zM17 17h-2v-2h2v2zM13 15v-2h2v2h-2zM13 9h2v2h-2v-2zM13 5h2v2h-2v-2zM17 7v2h-2v-2h2zM17 11v2h-2v-2h2zM5 30v-27h15v1.991h-13v23.018h17.018v-19.009h1.982v21h-21zM21 3h0.123l4.877 4.876v0.062h-5v-4.938z"></path>
</svg>
