<?xml version="1.0" encoding="utf-8"?>
<!-- Generated by IcoMoon.io -->
<!DOCTYPE svg PUBLIC "-//W3C//DTD SVG 1.1//EN" "http://www.w3.org/Graphics/SVG/1.1/DTD/svg11.dtd">
<svg version="1.1" xmlns="http://www.w3.org/2000/svg" xmlns:xlink="http://www.w3.org/1999/xlink" width="32" height="32" viewBox="0 0 32 32">
<path fill="#444444" d="M24 8h-4.313c1.5 1 2.906 2.781 3.344 4h0.938c2.031 0 4 2 4 4s-2.031 4-4 4h-6c-1.969 0-4-2-4-4 0-0.719 0.219-1.406 0.563-2h-4.281c-0.156 0.656-0.25 1.313-0.25 2 0 4 3.969 8 7.969 8s2.031 0 6.031 0 8-4 8-8-4-8-8-8zM8.969 20h-0.938c-2.031 0-4-2-4-4s2.031-4 4-4h6c1.969 0 4 2 4 4 0 0.719-0.219 1.406-0.563 2h4.281c0.156-0.656 0.25-1.313 0.25-2 0-4-3.969-8-7.969-8s-2.031 0-6.031 0-8 4-8 8 4 8 8 8h4.313c-1.5-1-2.906-2.781-3.344-4z"></path>
</svg>
