<?xml version="1.0" encoding="utf-8"?>
<!-- Generated by IcoMoon.io -->
<!DOCTYPE svg PUBLIC "-//W3C//DTD SVG 1.1//EN" "http://www.w3.org/Graphics/SVG/1.1/DTD/svg11.dtd">
<svg version="1.1" xmlns="http://www.w3.org/2000/svg" xmlns:xlink="http://www.w3.org/1999/xlink" width="24" height="24" viewBox="0 0 24 24">
<path fill="#444444" d="M11.5 14c0.825 0 1.5-0.9 1.5-2v-8c0-1.1-0.675-2-1.5-2s-1.5 0.9-1.5 2v8c0 1.1 0.675 2 1.5 2zM15 4.688v2.194c2.375 1.259 4 3.748 4 6.618 0 4.136-3.364 7.5-7.5 7.5s-7.5-3.364-7.5-7.5c0-2.87 1.625-5.359 4-6.618v-2.194c-3.508 1.396-6 4.812-6 8.812 0 5.238 4.262 9.5 9.5 9.5s9.5-4.262 9.5-9.5c0-4-2.492-7.416-6-8.812z"></path>
</svg>
