<?xml version="1.0" encoding="utf-8"?>
<!-- Generated by IcoMoon.io -->
<!DOCTYPE svg PUBLIC "-//W3C//DTD SVG 1.1//EN" "http://www.w3.org/Graphics/SVG/1.1/DTD/svg11.dtd">
<svg version="1.1" xmlns="http://www.w3.org/2000/svg" xmlns:xlink="http://www.w3.org/1999/xlink" width="24" height="24" viewBox="0 0 24 24">
<path fill="#444444" d="M22.828 10.586l-9.414-9.414c-0.391-0.391-0.902-0.586-1.414-0.586s-1.023 0.195-1.414 0.586l-9.414 9.414c-0.781 0.779-0.781 2.047 0 2.828l9.414 9.414c0.391 0.391 0.902 0.586 1.414 0.586s1.023-0.195 1.414-0.586l9.414-9.414c0.781-0.781 0.781-2.049 0-2.828zM17 16c-0.256 0-0.512-0.098-0.707-0.293-0.391-0.391-0.391-1.023 0-1.414l1.293-1.293h-4.586v4.586l1.293-1.293c0.195-0.195 0.451-0.293 0.707-0.293s0.512 0.098 0.707 0.293c0.391 0.391 0.391 1.023 0 1.414l-3.707 3.707-3.707-3.707c-0.391-0.391-0.391-1.023 0-1.414 0.195-0.195 0.451-0.293 0.707-0.293s0.512 0.098 0.707 0.293l1.293 1.293v-4.586h-4.586l1.293 1.293c0.391 0.391 0.391 1.023 0 1.414-0.195 0.195-0.451 0.293-0.707 0.293s-0.512-0.098-0.707-0.293l-3.707-3.707 3.707-3.707c0.195-0.195 0.451-0.293 0.707-0.293s0.512 0.098 0.707 0.293c0.391 0.391 0.391 1.023 0 1.414l-1.293 1.293h4.586v-4.586l-1.293 1.293c-0.195 0.195-0.451 0.293-0.707 0.293s-0.512-0.098-0.707-0.293c-0.391-0.391-0.391-1.023 0-1.414l3.707-3.707 3.707 3.707c0.391 0.391 0.391 1.023 0 1.414-0.195 0.195-0.451 0.293-0.707 0.293s-0.512-0.098-0.707-0.293l-1.293-1.293v4.586h4.586l-1.293-1.293c-0.391-0.391-0.391-1.023 0-1.414 0.195-0.195 0.451-0.293 0.707-0.293s0.512 0.098 0.707 0.293l3.707 3.707-3.707 3.707c-0.195 0.195-0.451 0.293-0.707 0.293zM15.268 14c-0.175 0.301-0.268 0.643-0.268 1-0.357 0-0.699 0.093-1 0.268v-1.268h1.268zM8.732 14h1.268v1.268c-0.301-0.175-0.643-0.268-1-0.268 0-0.357-0.093-0.699-0.268-1zM8.732 10c0.175-0.301 0.268-0.643 0.268-1 0.357 0 0.699-0.093 1-0.268v1.268h-1.268zM15.268 10h-1.268v-1.268c0.301 0.175 0.643 0.268 1 0.268 0 0.357 0.093 0.699 0.268 1z"></path>
</svg>
