<?xml version="1.0" encoding="utf-8"?>
<!-- Generated by IcoMoon.io -->
<!DOCTYPE svg PUBLIC "-//W3C//DTD SVG 1.1//EN" "http://www.w3.org/Graphics/SVG/1.1/DTD/svg11.dtd">
<svg version="1.1" xmlns="http://www.w3.org/2000/svg" xmlns:xlink="http://www.w3.org/1999/xlink" width="24" height="24" viewBox="0 0 24 24">
<path fill="#444444" d="M12 21c-4.963 0-9-4.037-9-9s4.037-9 9-9 9 4.037 9 9-4.037 9-9 9zM12 5c-3.859 0-7 3.141-7 7s3.141 7 7 7 7-3.141 7-7-3.141-7-7-7z"></path>
<path fill="#444444" d="M12.335 8c-2.468 0-3.712 1.77-3.712 3.244 0 0.895 0.338 1.688 1.063 1.984 0.119 0.049 0.226 0.002 0.261-0.129 0.023-0.092 0.080-0.322 0.105-0.418 0.035-0.129 0.021-0.175-0.074-0.289-0.209-0.246-0.344-0.566-0.344-1.019 0-1.312 0.982-2.487 2.558-2.487 1.396 0 2.161 0.853 2.161 1.99 0 1.498-0.662 2.762-1.646 2.762-0.543 0-0.95-0.449-0.82-1.001 0.156-0.658 0.459-1.368 0.459-1.843 0-0.426-0.229-0.779-0.7-0.779-0.556 0-1.002 0.574-1.002 1.344 0 0.49 0.166 0.822 0.166 0.822s-0.569 2.408-0.669 2.83c-0.198 0.84-0.029 1.87-0.015 1.974 0.008 0.062 0.087 0.077 0.123 0.030 0.052-0.067 0.713-0.885 0.938-1.7 0.064-0.23 0.366-1.427 0.366-1.427 0.18 0.344 0.707 0.646 1.268 0.646 1.67 0 2.803-1.521 2.803-3.56-0.001-1.538-1.306-2.974-3.289-2.974z"></path>
</svg>
