<?xml version="1.0" encoding="utf-8"?>
<!-- Generated by IcoMoon.io -->
<!DOCTYPE svg PUBLIC "-//W3C//DTD SVG 1.1//EN" "http://www.w3.org/Graphics/SVG/1.1/DTD/svg11.dtd">
<svg version="1.1" xmlns="http://www.w3.org/2000/svg" xmlns:xlink="http://www.w3.org/1999/xlink" width="48" height="48" viewBox="0 0 48 48">
<path fill="#444444" d="M26.89 18l4.020-15.42c0.060-0.189 0.090-0.391 0.090-0.6 0-1.089-0.88-1.98-1.971-1.98-0.619 0-1.17 0.28-1.529 0.73l-20.070 26.030c-0.27 0.34-0.43 0.77-0.43 1.24 0 1.1 0.9 2 2 2h12.109l-4.020 15.42c-0.061 0.19-0.090 0.391-0.090 0.6 0.001 1.090 0.881 1.98 1.971 1.98 0.62 0 1.17-0.279 1.53-0.73l20.069-26.030c0.271-0.34 0.431-0.769 0.431-1.24 0-1.1-0.9-2-2-2h-12.11z"></path>
</svg>
