<?xml version="1.0" encoding="utf-8"?>
<!-- Generated by IcoMoon.io -->
<!DOCTYPE svg PUBLIC "-//W3C//DTD SVG 1.1//EN" "http://www.w3.org/Graphics/SVG/1.1/DTD/svg11.dtd">
<svg version="1.1" xmlns="http://www.w3.org/2000/svg" xmlns:xlink="http://www.w3.org/1999/xlink" width="24" height="24" viewBox="0 0 24 24">
<path fill="#444444" d="M20 16c-1.2 0-2.266 0.542-3 1.382l-7.324-3.662c0.199-0.538 0.324-1.113 0.324-1.72s-0.125-1.182-0.324-1.72l7.324-3.662c0.734 0.84 1.8 1.382 3 1.382 2.206 0 4-1.795 4-4s-1.794-4-4-4-4 1.795-4 4c0 0.287 0.033 0.566 0.091 0.836l-7.47 3.735c0.003 0.003 0.004 0.007 0.007 0.009-0.912-0.967-2.196-1.58-3.628-1.58-2.757 0-5 2.243-5 5s2.243 5 5 5c1.432 0 2.716-0.613 3.628-1.58-0.003 0.002-0.004 0.006-0.007 0.009l7.47 3.735c-0.058 0.27-0.091 0.549-0.091 0.836 0 2.205 1.794 4 4 4s4-1.795 4-4-1.794-4-4-4zM20 2c1.103 0 2 0.896 2 2s-0.897 2-2 2-2-0.896-2-2 0.897-2 2-2zM5 15c-1.654 0-3-1.346-3-3s1.346-3 3-3 3 1.346 3 3-1.346 3-3 3zM20 22c-1.103 0-2-0.896-2-2s0.897-2 2-2 2 0.896 2 2-0.897 2-2 2z"></path>
</svg>
