<?xml version="1.0" encoding="utf-8"?>
<!-- Generated by IcoMoon.io -->
<!DOCTYPE svg PUBLIC "-//W3C//DTD SVG 1.1//EN" "http://www.w3.org/Graphics/SVG/1.1/DTD/svg11.dtd">
<svg version="1.1" xmlns="http://www.w3.org/2000/svg" xmlns:xlink="http://www.w3.org/1999/xlink" width="24" height="24" viewBox="0 0 24 24">
<path fill="#444444" d="M16.5 8.999c-0.115 0-0.23 0.005-0.352 0.015-0.824-2.375-3.312-4.015-5.898-4.015-3.309 0-6.25 2.69-6.25 6 0 0.042 0 0.084 0 0.126-1 0.445-2.75 2.014-2.75 3.875 0 2.206 2.044 4 4.25 4h11c2.757 0 5-2.244 5-5s-2.243-5.001-5-5.001zM16.5 17h-4.5v-3.794l2.146 2.146c0.098 0.099 0.226 0.146 0.354 0.146s0.256-0.049 0.354-0.146c0.195-0.194 0.195-0.512 0-0.707l-2.998-3c-0.047-0.045-0.104-0.082-0.164-0.107-0.123-0.051-0.26-0.051-0.383 0-0.061 0.025-0.115 0.062-0.162 0.107l-3 3c-0.194 0.195-0.194 0.513 0 0.707 0.099 0.099 0.227 0.146 0.354 0.146s0.256-0.049 0.354-0.146l2.145-2.146v3.794h-5.5c-1.104 0-2-0.896-2-2s0.896-2 1.908-2.005l1.422 0.015-0.248-1.201c-0.055-0.264-0.082-0.536-0.082-0.809 0-2.206 1.794-4 4-4 1.951 0 3.604 1.402 3.93 3.334l0.187 1.102 1.073-0.306c0.312-0.089 0.569-0.13 0.812-0.13 1.653 0 3 1.346 3 3s-1.348 3-3.002 3z"></path>
</svg>
