<?xml version="1.0" encoding="UTF-8"?>
<!DOCTYPE svg PUBLIC "-//W3C//DTD SVG 1.1//EN" "http://www.w3.org/Graphics/SVG/1.1/DTD/svg11.dtd">
<!-- Creator: CorelDRAW X8 -->
<svg xmlns="http://www.w3.org/2000/svg" xml:space="preserve" width="2.75136in" height="2.75136in" version="1.1" style="shape-rendering:geometricPrecision; text-rendering:geometricPrecision; image-rendering:optimizeQuality; fill-rule:evenodd; clip-rule:evenodd"
viewBox="0 0 2218 2218"
 xmlns:xlink="http://www.w3.org/1999/xlink">
 <defs>
  <style type="text/css">
   <![CDATA[
    .fil0 {fill:black}
   ]]>
  </style>
 </defs>
 <g id="Layer_x0020_1">
  <metadata id="CorelCorpID_0Corel-Layer"/>
  <path class="fil0" d="M598 1798c-47,0 -94,-22 -125,-52l-15 -16c-100,-120 5,-325 184,-284 100,23 168,142 119,247 -20,43 -59,81 -104,95 -13,4 -46,10 -59,10zm464 -1798l108 0c140,7 279,40 409,102 194,94 389,261 492,453 105,195 147,331 147,584 0,416 -271,806 -642,978 -135,63 -285,97 -435,101l-69 0c-150,-4 -299,-38 -432,-102 -63,-30 -116,-61 -170,-100 -161,-116 -282,-253 -369,-440 -74,-160 -101,-297 -101,-497 0,-283 134,-565 324,-755 198,-198 465,-311 738,-324zm-642 906c135,0 275,34 366,80 110,56 169,89 264,183 95,95 127,154 182,264 45,89 81,233 81,365l-260 0c0,-144 -53,-295 -144,-402 -8,-8 -11,-10 -19,-20 -40,-52 -139,-123 -194,-148 -93,-43 -162,-63 -276,-63l0 -259zm0 -460c156,0 254,18 390,57 21,6 41,14 61,21 21,6 41,14 61,22 77,30 201,98 265,146 17,13 31,21 47,35 31,25 62,48 89,76 38,38 24,15 63,62 7,9 14,14 22,22 15,15 25,28 39,43 13,15 24,30 36,46l99 149c21,36 39,67 56,108 9,21 16,36 25,57 8,20 15,37 23,60 51,156 76,267 76,448l-256 0c0,-63 -15,-183 -29,-244 -9,-37 -18,-69 -30,-104 -29,-89 -86,-203 -137,-274l-60 -79c-126,-134 -214,-217 -389,-296 -125,-56 -270,-99 -451,-99l0 -256z"/>
 </g>
</svg>
