<?xml version="1.0" encoding="UTF-8"?>
<!DOCTYPE svg PUBLIC "-//W3C//DTD SVG 1.1//EN" "http://www.w3.org/Graphics/SVG/1.1/DTD/svg11.dtd">
<!-- Creator: CorelDRAW X8 -->
<svg xmlns="http://www.w3.org/2000/svg" xml:space="preserve" width="0.855807in" height="2.48735in" version="1.1" style="shape-rendering:geometricPrecision; text-rendering:geometricPrecision; image-rendering:optimizeQuality; fill-rule:evenodd; clip-rule:evenodd"
viewBox="0 0 108 313"
 xmlns:xlink="http://www.w3.org/1999/xlink">
 <defs>
  <style type="text/css">
   <![CDATA[
    .fil0 {fill:black}
   ]]>
  </style>
 </defs>
 <g id="Layer_x0020_1">
  <metadata id="CorelCorpID_0Corel-Layer"/>
  <path class="fil0" d="M34 201l39 0c0,2 -3,5 -4,7l-5 7c-2,2 -8,10 -10,11 -2,-1 -9,-9 -11,-11 -4,-6 -6,-8 -9,-14zm-14 -31l67 0 -3 12c-1,2 -1,3 -3,3l-55 0c-3,0 -4,-11 -6,-15zm3 -30l62 0c1,5 3,9 3,15l-69 0c1,-6 3,-10 4,-15zm31 -42c5,3 18,19 22,26l-45 0c5,-7 18,-23 23,-26zm-31 -61c0,18 3,29 14,43 1,2 2,3 3,4 -3,4 -7,6 -10,11l-10 11c-2,3 -4,6 -6,9 -2,3 -3,6 -5,9 -12,19 -11,45 -4,65 7,17 19,34 31,47 2,2 3,2 4,4 -2,3 -7,7 -12,13 -9,13 -14,24 -14,43 0,25 19,16 19,9 0,-12 -2,-17 5,-30 2,-6 10,-18 16,-21 2,2 6,6 8,9 6,7 10,16 12,25 1,7 0,10 0,17 0,7 20,17 20,-10 0,-14 -6,-28 -12,-38 -6,-8 -14,-16 -15,-17l14 -16c13,-15 21,-32 25,-52 3,-13 1,-26 -3,-38 -2,-5 -6,-14 -10,-19l-26 -31c2,-3 5,-5 6,-8 13,-20 16,-38 6,-62 -2,-5 -6,-14 -13,-14 -6,0 -13,7 -7,16 7,12 9,30 3,43 -2,3 -6,10 -8,11 -2,-1 -7,-9 -8,-12 -13,-29 8,-41 4,-52 -2,-5 -11,-10 -17,-1 -6,9 -10,21 -10,32z"/>
 </g>
</svg>
