<?xml version="1.0" encoding="utf-8"?>
<!-- Generated by IcoMoon.io -->
<!DOCTYPE svg PUBLIC "-//W3C//DTD SVG 1.1//EN" "http://www.w3.org/Graphics/SVG/1.1/DTD/svg11.dtd">
<svg version="1.1" xmlns="http://www.w3.org/2000/svg" xmlns:xlink="http://www.w3.org/1999/xlink" width="18" height="18" viewBox="0 0 18 18">
<path fill="#444444" d="M14.009 11h-0.020c-0.547 0-0.99 0.443-0.99 0.99v2.51c0 0.276-0.224 0.5-0.5 0.5h-6.999c-0.276 0-0.5-0.224-0.5-0.5v-2.51c0-0.547-0.443-0.99-0.99-0.99h-0.020c-0.546 0-0.99 0.443-0.99 0.99v4.020c0 0.547 0.443 0.99 0.99 0.99h10.018c0.547 0 0.99-0.443 0.99-0.99v-4.020c0-0.547-0.443-0.99-0.99-0.99z"></path>
<path fill="#444444" d="M16.063 3.502l-1.566-1.566c-0.622-0.622-1.435-0.927-2.249-0.927-0.083 0-0.166 0.003-0.249 0.010v-0.018h-5.999v0.018c-0.083-0.006-0.166-0.010-0.249-0.010-0.814 0-1.627 0.306-2.249 0.927l-1.566 1.566c-1.247 1.247-1.247 3.27 0 4.517l0.046 0.045c0.624 0.624 1.44 0.936 2.258 0.936s1.635-0.312 2.258-0.936l0.166-0.165c0.544 0.671 1.375 1.101 2.306 1.101h0.060c0.932 0 1.762-0.43 2.306-1.101l0.166 0.165c0.624 0.624 1.441 0.936 2.258 0.936s1.634-0.312 2.258-0.936l0.045-0.045c1.248-1.248 1.248-3.27 0-4.517zM14.649 6.605l-0.046 0.046c-0.226 0.226-0.525 0.35-0.844 0.35s-0.619-0.124-0.845-0.35l-0.165-0.166-1.413-1.414c-0.083-0.083-0.22-0.076-0.294 0.015l-1.26 1.553c-0.186 0.229-0.46 0.361-0.753 0.361h-0.060c-0.293 0-0.567-0.131-0.753-0.361l-1.236-1.523c-0.086-0.107-0.247-0.115-0.344-0.018l-1.552 1.553c-0.226 0.226-0.525 0.35-0.844 0.35s-0.619-0.124-0.844-0.35l-0.046-0.046c-0.466-0.466-0.466-1.222 0-1.688l1.566-1.566c0.297-0.297 0.65-0.341 0.834-0.341 0.032 0 0.217-0.011 0.249-0.008h5.999c0.032-0.002 0.217 0.008 0.249 0.008 0.185 0 0.538 0.044 0.835 0.341l1.566 1.566c0.466 0.466 0.466 1.222 0 1.689z"></path>
</svg>
