<?xml version="1.0" encoding="utf-8"?>
<!-- Generated by IcoMoon.io -->
<!DOCTYPE svg PUBLIC "-//W3C//DTD SVG 1.1//EN" "http://www.w3.org/Graphics/SVG/1.1/DTD/svg11.dtd">
<svg version="1.1" xmlns="http://www.w3.org/2000/svg" xmlns:xlink="http://www.w3.org/1999/xlink" width="32" height="32" viewBox="0 0 32 32">
<path fill="#444444" d="M28 0h-24c-1.106 0-2 0.894-2 2v28c0 1.105 0.894 2 2 2h24c1.105 0 2-0.895 2-2v-28c0-1.105-0.895-2-2-2zM10 28h-4v-4h4v4zM10 22h-4v-4h4v4zM10 16h-4v-4h4v4zM18 28h-4v-4h4v4zM18 22h-4v-4h4v4zM18 16h-4v-4h4v4zM26 28h-4v-4h4v4zM26 22h-4v-4h4v4zM26 16h-4v-4h4v4zM26 8h-20v-4h20v4z"></path>
</svg>
