<?xml version="1.0" encoding="utf-8"?>
<!-- Generated by IcoMoon.io -->
<!DOCTYPE svg PUBLIC "-//W3C//DTD SVG 1.1//EN" "http://www.w3.org/Graphics/SVG/1.1/DTD/svg11.dtd">
<svg version="1.1" xmlns="http://www.w3.org/2000/svg" xmlns:xlink="http://www.w3.org/1999/xlink" width="42" height="32" viewBox="0 0 42 32">
<path fill="#444444" d="M3.5 26c0.276 0 0.5-0.224 0.5-0.5v-23.5c0-0.598 0.402-1 1-1h32c0.57 0 1 0.468 1 1.089v23.411c0 0.276 0.224 0.5 0.5 0.5s0.5-0.224 0.5-0.5v-23.411c0-1.172-0.878-2.089-2-2.089h-32c-1.159 0-2 0.841-2 2v23.5c0 0.276 0.224 0.5 0.5 0.5zM6.5 3c-0.276 0-0.5 0.224-0.5 0.5v22c0 0.276 0.224 0.5 0.5 0.5h29c0.276 0 0.5-0.224 0.5-0.5v-22c0-0.276-0.224-0.5-0.5-0.5h-29zM35 25h-28v-21h28v21zM41.5 28h-41c-0.276 0-0.5 0.224-0.5 0.5v1.175c0 1.198 1.408 2.325 2.5 2.325h37c1.145 0 2.5-1.355 2.5-2.5v-1c0-0.276-0.224-0.5-0.5-0.5zM41 29.5c0 0.589-0.911 1.5-1.5 1.5h-37c-0.631 0-1.5-0.768-1.5-1.325v-0.675h40v0.5z"></path>
</svg>
