<?xml version="1.0" encoding="utf-8"?>
<!-- Generated by IcoMoon.io -->
<!DOCTYPE svg PUBLIC "-//W3C//DTD SVG 1.1//EN" "http://www.w3.org/Graphics/SVG/1.1/DTD/svg11.dtd">
<svg version="1.1" xmlns="http://www.w3.org/2000/svg" xmlns:xlink="http://www.w3.org/1999/xlink" width="32" height="32" viewBox="0 0 32 32">
<path fill="#444444" d="M23 18.536v-1.493h-0.996v1.493c0 3.574-2.959 6.472-6.533 6.473h-0.004c-3.574-0.001-6.471-2.898-6.471-6.473v-1.493h-0.996v1.493c0 3.763 2.791 6.844 6.41 7.362v3.021c-2.836 0.214-4.979 1.174-4.979 2.064 0 0.023 12.282 0.023 12.282 0 0-0.924-2.316-1.916-5.311-2.078v-2.995c3.679-0.463 6.598-3.568 6.598-7.374zM15.468 23.951c3.025 0 5.54-2.453 5.54-5.478v-1.431h-11.018v1.431c0 3.025 2.453 5.478 5.478 5.478zM21.008 7.475c0-3.025-2.515-5.477-5.54-5.477s-5.478 2.452-5.478 5.477v8.572h11.018v-8.572zM17.5 4.012c0.275 0 0.5 0.224 0.5 0.5s-0.225 0.5-0.5 0.5c-0.276 0-0.5-0.224-0.5-0.5s0.224-0.5 0.5-0.5zM15.5 4.012c0.275 0 0.5 0.224 0.5 0.5s-0.225 0.5-0.5 0.5c-0.276 0-0.5-0.224-0.5-0.5s0.224-0.5 0.5-0.5zM13.5 4.012c0.275 0 0.5 0.224 0.5 0.5s-0.225 0.5-0.5 0.5c-0.276 0-0.5-0.224-0.5-0.5s0.224-0.5 0.5-0.5zM11.5 15.012c-0.276 0-0.5-0.224-0.5-0.5s0.224-0.5 0.5-0.5c0.275 0 0.5 0.224 0.5 0.5s-0.225 0.5-0.5 0.5zM11.5 13.012c-0.276 0-0.5-0.224-0.5-0.5s0.224-0.5 0.5-0.5c0.275 0 0.5 0.224 0.5 0.5s-0.225 0.5-0.5 0.5zM11.5 11.012c-0.276 0-0.5-0.224-0.5-0.5s0.224-0.5 0.5-0.5c0.275 0 0.5 0.224 0.5 0.5s-0.225 0.5-0.5 0.5zM11.5 9.012c-0.276 0-0.5-0.224-0.5-0.5s0.224-0.5 0.5-0.5c0.275 0 0.5 0.224 0.5 0.5s-0.225 0.5-0.5 0.5zM12.5 7.012c-0.276 0-0.5-0.224-0.5-0.5s0.224-0.5 0.5-0.5c0.275 0 0.5 0.224 0.5 0.5s-0.225 0.5-0.5 0.5zM13.5 15.012c-0.276 0-0.5-0.224-0.5-0.5s0.224-0.5 0.5-0.5c0.275 0 0.5 0.224 0.5 0.5s-0.225 0.5-0.5 0.5zM13.5 13.012c-0.276 0-0.5-0.224-0.5-0.5s0.224-0.5 0.5-0.5c0.275 0 0.5 0.224 0.5 0.5s-0.225 0.5-0.5 0.5zM13.5 11.012c-0.276 0-0.5-0.224-0.5-0.5s0.224-0.5 0.5-0.5c0.275 0 0.5 0.224 0.5 0.5s-0.225 0.5-0.5 0.5zM13.5 9.012c-0.276 0-0.5-0.224-0.5-0.5s0.224-0.5 0.5-0.5c0.275 0 0.5 0.224 0.5 0.5s-0.225 0.5-0.5 0.5zM14.5 7.012c-0.276 0-0.5-0.224-0.5-0.5s0.224-0.5 0.5-0.5c0.275 0 0.5 0.224 0.5 0.5s-0.225 0.5-0.5 0.5zM15.5 15.012c-0.276 0-0.5-0.224-0.5-0.5s0.224-0.5 0.5-0.5c0.275 0 0.5 0.224 0.5 0.5s-0.225 0.5-0.5 0.5zM15.5 13.012c-0.276 0-0.5-0.224-0.5-0.5s0.224-0.5 0.5-0.5c0.275 0 0.5 0.224 0.5 0.5s-0.225 0.5-0.5 0.5zM15.5 11.012c-0.276 0-0.5-0.224-0.5-0.5s0.224-0.5 0.5-0.5c0.275 0 0.5 0.224 0.5 0.5s-0.225 0.5-0.5 0.5zM15.5 9.012c-0.276 0-0.5-0.224-0.5-0.5s0.224-0.5 0.5-0.5c0.275 0 0.5 0.224 0.5 0.5s-0.225 0.5-0.5 0.5zM16.5 7.012c-0.276 0-0.5-0.224-0.5-0.5s0.224-0.5 0.5-0.5c0.275 0 0.5 0.224 0.5 0.5s-0.225 0.5-0.5 0.5zM17.5 15.012c-0.276 0-0.5-0.224-0.5-0.5s0.224-0.5 0.5-0.5c0.275 0 0.5 0.224 0.5 0.5s-0.225 0.5-0.5 0.5zM17.5 13.012c-0.276 0-0.5-0.224-0.5-0.5s0.224-0.5 0.5-0.5c0.275 0 0.5 0.224 0.5 0.5s-0.225 0.5-0.5 0.5zM17.5 11.012c-0.276 0-0.5-0.224-0.5-0.5s0.224-0.5 0.5-0.5c0.275 0 0.5 0.224 0.5 0.5s-0.225 0.5-0.5 0.5zM17.5 9.012c-0.276 0-0.5-0.224-0.5-0.5s0.224-0.5 0.5-0.5c0.275 0 0.5 0.224 0.5 0.5s-0.225 0.5-0.5 0.5zM18.5 7.012c-0.276 0-0.5-0.224-0.5-0.5s0.224-0.5 0.5-0.5c0.275 0 0.5 0.224 0.5 0.5s-0.225 0.5-0.5 0.5zM19.5 15.012c-0.276 0-0.5-0.224-0.5-0.5s0.224-0.5 0.5-0.5c0.275 0 0.5 0.224 0.5 0.5s-0.225 0.5-0.5 0.5zM19.5 13.012c-0.276 0-0.5-0.224-0.5-0.5s0.224-0.5 0.5-0.5c0.275 0 0.5 0.224 0.5 0.5s-0.225 0.5-0.5 0.5zM19.5 11.012c-0.276 0-0.5-0.224-0.5-0.5s0.224-0.5 0.5-0.5c0.275 0 0.5 0.224 0.5 0.5s-0.225 0.5-0.5 0.5zM19.5 9.012c-0.276 0-0.5-0.224-0.5-0.5s0.224-0.5 0.5-0.5c0.275 0 0.5 0.224 0.5 0.5s-0.225 0.5-0.5 0.5z"></path>
</svg>
