<?xml version="1.0" encoding="utf-8"?>
<!-- Generated by IcoMoon.io -->
<!DOCTYPE svg PUBLIC "-//W3C//DTD SVG 1.1//EN" "http://www.w3.org/Graphics/SVG/1.1/DTD/svg11.dtd">
<svg version="1.1" xmlns="http://www.w3.org/2000/svg" xmlns:xlink="http://www.w3.org/1999/xlink" width="32" height="32" viewBox="0 0 32 32">
<path fill="#444444" d="M16-0.034c-8.841 0-16.035 7.192-16.035 16.034s7.194 16.034 16.035 16.034 16.035-7.192 16.035-16.034-7.194-16.034-16.035-16.034zM16 30.966c-8.252 0-14.965-6.714-14.965-14.966s6.713-14.966 14.965-14.966 14.965 6.714 14.965 14.966-6.713 14.966-14.965 14.966zM16.5 6.053c0.305 0 0.553-0.247 0.553-0.553v-2c0-0.306-0.248-0.553-0.553-0.553s-0.553 0.247-0.553 0.553v2c0 0.306 0.248 0.553 0.553 0.553zM5.5 14.947h-2c-0.305 0-0.553 0.247-0.553 0.553s0.248 0.553 0.553 0.553h2c0.305 0 0.553-0.247 0.553-0.553s-0.248-0.553-0.553-0.553zM25.947 15.5c0 0.306 0.248 0.553 0.553 0.553h2c0.305 0 0.553-0.247 0.553-0.553s-0.248-0.553-0.553-0.553h-2c-0.305 0-0.553 0.247-0.553 0.553zM8.575 10.128c0.142 0 0.283-0.054 0.391-0.162 0.216-0.216 0.216-0.565 0-0.781l-1.575-1.576c-0.216-0.217-0.565-0.217-0.781 0s-0.216 0.565 0 0.781l1.575 1.575c0.107 0.109 0.249 0.163 0.39 0.163zM23.891 21.109c-0.216-0.217-0.565-0.217-0.781 0s-0.216 0.565 0 0.781l1.5 1.5c0.108 0.108 0.249 0.162 0.391 0.162s0.283-0.054 0.391-0.162c0.216-0.216 0.216-0.565 0-0.781l-1.501-1.5zM24.891 7.891c0.216-0.216 0.216-0.565 0-0.781s-0.565-0.217-0.781 0l-1.575 1.575c-0.216 0.216-0.216 0.565 0 0.781 0.108 0.108 0.249 0.162 0.391 0.162s0.283-0.054 0.391-0.162l1.574-1.575zM8.609 21.609l-1.5 1.5c-0.216 0.216-0.216 0.565 0 0.781 0.108 0.108 0.249 0.162 0.391 0.162s0.283-0.054 0.391-0.162l1.5-1.5c0.216-0.216 0.216-0.565 0-0.781s-0.566-0.216-0.782 0zM19.5 24h-7c-0.889-0.034-1.535 0.611-1.535 1.5v0.957c0 0.898 0.674 1.603 1.535 1.543h7c0.86 0.060 1.535-0.645 1.535-1.543v-0.957c0-0.889-0.646-1.534-1.535-1.5zM19.965 26.457c0 0.257-0.146 0.534-0.465 0.568h-7c-0.32-0.034-0.465-0.312-0.465-0.025v-0.957c0-0.839 0.169-1.009 0.465-1.043h7c0.296 0.034 0.465 0.204 0.465 0.5v0.957zM16 18.667c0.712 0 1.382-0.277 1.885-0.781 0.911-0.911 1.024-2.32 0.34-3.355l2.653-2.653c0.208-0.209 0.208-0.547 0-0.756-0.209-0.209-0.547-0.209-0.756 0l-2.656 2.656c-1.025-0.655-2.473-0.543-3.351 0.336-1.040 1.040-1.040 2.731 0 3.771 0.503 0.505 1.173 0.782 1.885 0.782zM15.058 15.058c0.251-0.252 0.586-0.391 0.942-0.391s0.691 0.139 0.943 0.391c0.52 0.52 0.52 1.365 0 1.885-0.503 0.504-1.381 0.504-1.885 0-0.52-0.52-0.52-1.366 0-1.885z"></path>
</svg>
