<?xml version="1.0" encoding="utf-8"?>
<!-- Generated by IcoMoon.io -->
<!DOCTYPE svg PUBLIC "-//W3C//DTD SVG 1.1//EN" "http://www.w3.org/Graphics/SVG/1.1/DTD/svg11.dtd">
<svg version="1.1" xmlns="http://www.w3.org/2000/svg" xmlns:xlink="http://www.w3.org/1999/xlink" width="24" height="24" viewBox="0 0 24 24">
<path fill="#444444" d="M8.171 18c-0.512 0-1.023-0.195-1.414-0.586l-4.414-4.414 4.414-4.414c0.781-0.781 2.049-0.781 2.828 0 0.781 0.781 0.781 2.047 0 2.828l-1.585 1.586 1.585 1.586c0.781 0.781 0.781 2.047 0 2.828-0.39 0.391-0.902 0.586-1.414 0.586z"></path>
<path fill="#444444" d="M15.829 18c-0.512 0-1.024-0.195-1.414-0.586-0.781-0.781-0.781-2.047 0-2.828l1.585-1.586-1.585-1.586c-0.781-0.781-0.781-2.047 0-2.828 0.779-0.781 2.047-0.781 2.828 0l4.414 4.414-4.414 4.414c-0.39 0.391-0.902 0.586-1.414 0.586z"></path>
</svg>
