<?xml version="1.0" encoding="utf-8"?>
<!-- Generated by IcoMoon.io -->
<!DOCTYPE svg PUBLIC "-//W3C//DTD SVG 1.1//EN" "http://www.w3.org/Graphics/SVG/1.1/DTD/svg11.dtd">
<svg version="1.1" xmlns="http://www.w3.org/2000/svg" xmlns:xlink="http://www.w3.org/1999/xlink" width="24" height="24" viewBox="0 0 24 24">
<path fill="#444444" d="M12 15.984q1.641 0 2.813-1.172t1.172-2.813-1.172-2.813-2.813-1.172-2.813 1.172-1.172 2.813 1.172 2.813 2.813 1.172zM2.297 17.578q0-1.781 1.055-3.398t2.789-2.18l-0.844-0.422q-1.406-0.844-2.203-2.227t-0.797-2.93q3-1.734 6 0 0.422 0.188 0.797 0.516-0.094-0.656-0.094-0.938 0-1.641 0.82-3.023t2.18-2.18q1.359 0.797 2.18 2.18t0.82 3.023q0 0.281-0.094 0.938 0.375-0.328 0.797-0.516 3-1.734 6 0 0 1.547-0.797 2.93t-2.203 2.227q-0.094 0.047-0.258 0.141t-0.305 0.164-0.281 0.117q0.141 0.047 0.281 0.117t0.305 0.164 0.258 0.141q1.406 0.844 2.203 2.227t0.797 2.93q-3 1.734-6 0-0.422-0.188-0.797-0.516 0.094 0.656 0.094 0.938 0 1.641-0.82 3.023t-2.18 2.18q-1.359-0.797-2.18-2.18t-0.82-3.023q0-0.281 0.094-0.938-0.375 0.328-0.797 0.516-3 1.734-6 0z"></path>
</svg>
