<?xml version="1.0" encoding="utf-8"?>
<!-- Generated by IcoMoon.io -->
<!DOCTYPE svg PUBLIC "-//W3C//DTD SVG 1.1//EN" "http://www.w3.org/Graphics/SVG/1.1/DTD/svg11.dtd">
<svg version="1.1" xmlns="http://www.w3.org/2000/svg" xmlns:xlink="http://www.w3.org/1999/xlink" width="32" height="32" viewBox="0 0 32 32">
<path fill="#444444" d="M16 29.958c-7.709 0-13.958-6.249-13.958-13.958s6.249-13.958 13.958-13.958c7.709 0 13.959 6.249 13.959 13.958s-6.25 13.958-13.959 13.958zM22.92 5.552c-3.723-2.499-6.879-2.088-6.879-2.088l-0.003 9.008c-1.269 0.032-2.36 0.732-2.958 1.761l-7.627-4.886c0 0-2.021 1.979-2.021 6.464s1.937 6.652 1.937 6.652l7.723-4.676c0.601 1.019 1.687 1.709 2.947 1.741l0.003 9.134c0 0 3.157 0.411 6.879-2.087 3.725-2.499 4.316-5.071 4.316-5.071l-7.982-3.887c0.254-0.486 0.41-1.031 0.41-1.617 0-0.53-0.125-1.027-0.334-1.479l8.074-3.814c-0.001-0.001-0.76-2.657-4.485-5.155zM16.126 18.021c-1.116 0-2.021-0.905-2.021-2.021s0.905-2.021 2.021-2.021c1.116 0 2.020 0.905 2.020 2.021s-0.904 2.021-2.020 2.021z"></path>
</svg>
