<?xml version="1.0" encoding="utf-8"?>
<!-- Generated by IcoMoon.io -->
<!DOCTYPE svg PUBLIC "-//W3C//DTD SVG 1.1//EN" "http://www.w3.org/Graphics/SVG/1.1/DTD/svg11.dtd">
<svg version="1.1" xmlns="http://www.w3.org/2000/svg" xmlns:xlink="http://www.w3.org/1999/xlink" width="28" height="32" viewBox="0 0 28 32">
<path fill="#444444" d="M14 6c4.438 0 8 3.594 8 8 0 2.156-0.875 4.125-2.25 5.563l-0.5 2.906c2.844-1.75 4.75-4.875 4.75-8.469 0-5.531-4.469-10-10-10s-10 4.469-10 10c0 3.594 1.906 6.719 4.75 8.469l-0.5-2.906c-1.406-1.438-2.25-3.406-2.25-5.563 0-4.438 3.563-8 8-8zM12 16c-1.125 0-2 0.906-2 2v4c0 1.125 0.938 2 2 2v8h4v-8c1.063 0 2-0.875 2-2v-4c0-1.094-0.875-2-2-2s-2 0-2 0-0.875 0-2 0zM18 12c0-2.219-1.781-4-4-4s-4 1.781-4 4 1.781 4 4 4 4-1.781 4-4zM14 0c-7.719 0-14 6.281-14 14 0 6.156 4 11.344 9.531 13.219l-0.375-2.25c-4.219-1.875-7.156-6.063-7.156-10.969 0-6.625 5.375-12 12-12s12 5.375 12 12c0 4.906-2.938 9.094-7.156 10.969l-0.375 2.25c5.531-1.875 9.531-7.031 9.531-13.219 0-7.719-6.281-14-14-14z"></path>
</svg>
