<?xml version="1.0" encoding="utf-8"?>
<!-- Generated by IcoMoon.io -->
<!DOCTYPE svg PUBLIC "-//W3C//DTD SVG 1.1//EN" "http://www.w3.org/Graphics/SVG/1.1/DTD/svg11.dtd">
<svg version="1.1" xmlns="http://www.w3.org/2000/svg" xmlns:xlink="http://www.w3.org/1999/xlink" width="24" height="24" viewBox="0 0 24 24">
<path fill="#444444" d="M6.984 12.918l1.416 1.416c0.922-0.922 2.195-1.494 3.6-1.494s2.678 0.572 3.6 1.494l1.416-1.416c-1.284-1.284-3.057-2.078-5.016-2.078s-3.732 0.794-5.016 2.078zM12 6.277c-3.219 0-6.133 1.305-8.242 3.414l1.418 1.418c1.748-1.749 4.162-2.832 6.824-2.832s5.076 1.083 6.824 2.832l1.418-1.418c-2.109-2.109-5.023-3.414-8.242-3.414zM12 15c-0.828 0-1.5 0.672-1.5 1.5s0.672 1.5 1.5 1.5 1.5-0.672 1.5-1.5-0.672-1.5-1.5-1.5z"></path>
</svg>
