<?xml version="1.0" encoding="utf-8"?>
<!-- Generated by IcoMoon.io -->
<!DOCTYPE svg PUBLIC "-//W3C//DTD SVG 1.1//EN" "http://www.w3.org/Graphics/SVG/1.1/DTD/svg11.dtd">
<svg version="1.1" xmlns="http://www.w3.org/2000/svg" xmlns:xlink="http://www.w3.org/1999/xlink" width="24" height="24" viewBox="0 0 24 24">
<path fill="#444444" d="M17.016 14.016l4.969 4.969-1.453 1.5-5.016-5.016v-0.75l-0.281-0.281q-1.781 1.547-4.219 1.547-1.781 0-3.328-0.891l1.5-1.453q0.891 0.375 1.828 0.375 1.875 0 3.188-1.313t1.313-3.188-1.313-3.188-3.188-1.313-3.188 1.313-1.313 3.188h3.469l-4.125 3.984-3.844-3.984h2.484q0-2.672 1.922-4.594t4.594-1.922q2.719 0 4.617 1.898t1.898 4.617q0 2.391-1.594 4.219l0.281 0.281h0.797z"></path>
</svg>
