<?xml version="1.0" encoding="utf-8"?>
<!-- Generated by IcoMoon.io -->
<!DOCTYPE svg PUBLIC "-//W3C//DTD SVG 1.1//EN" "http://www.w3.org/Graphics/SVG/1.1/DTD/svg11.dtd">
<svg version="1.1" xmlns="http://www.w3.org/2000/svg" xmlns:xlink="http://www.w3.org/1999/xlink" width="24" height="24" viewBox="0 0 24 24">
<path fill="#444444" d="M18 9v-2.016h-2.016v2.016h2.016zM18 12.984v-1.969h-2.016v1.969h2.016zM18 17.016v-2.016h-2.016v2.016h2.016zM8.016 9v-2.016h-2.016v2.016h2.016zM8.016 12.984v-1.969h-2.016v1.969h2.016zM8.016 17.016v-2.016h-2.016v2.016h2.016zM18 3h2.016v18h-2.016v-2.016h-2.016v2.016h-7.969v-2.016h-2.016v2.016h-2.016v-18h2.016v2.016h2.016v-2.016h7.969v2.016h2.016v-2.016z"></path>
</svg>
