<?xml version="1.0" encoding="utf-8"?>
<!-- Generated by IcoMoon.io -->
<!DOCTYPE svg PUBLIC "-//W3C//DTD SVG 1.1//EN" "http://www.w3.org/Graphics/SVG/1.1/DTD/svg11.dtd">
<svg version="1.1" xmlns="http://www.w3.org/2000/svg" xmlns:xlink="http://www.w3.org/1999/xlink" width="32" height="32" viewBox="0 0 32 32">
<path fill="#444444" d="M16.002 8c11.072 0 11.998 4.129 11.998 8 0 1.344-0.355 2.805-0.746 4h-13.25c-4.703 0-6.738 0.195-9 1.758-0.938-2.57-1.539-6.047-0.379-8.84 1.351-3.262 5.179-4.918 11.377-4.918zM16.002 4c-22.371 0-15.991 20-11.996 24 4-4 4-4 9.996-4h15.935c0 0 2.063-4 2.063-8 0-10-7.997-12-15.998-12v0z"></path>
</svg>
