<?xml version="1.0" encoding="utf-8"?>
<!-- Generated by IcoMoon.io -->
<!DOCTYPE svg PUBLIC "-//W3C//DTD SVG 1.1//EN" "http://www.w3.org/Graphics/SVG/1.1/DTD/svg11.dtd">
<svg version="1.1" xmlns="http://www.w3.org/2000/svg" xmlns:xlink="http://www.w3.org/1999/xlink" width="24" height="24" viewBox="0 0 24 24">
<path fill="#444444" d="M10 21h-6v-4.414l3.783-3.783c-0.187-0.587-0.283-1.192-0.283-1.803 0-3.309 2.691-6 6-6s6 2.691 6 6-2.691 6-6 6h-1.5v2h-2v2zM6 19h2v-2h2v-2h3.5c2.206 0 4-1.794 4-4s-1.794-4-4-4-4 1.794-4 4c0 0.559 0.121 1.109 0.359 1.639l0.285 0.631-4.144 4.144v1.586z"></path>
<path fill="#444444" d="M13.5 9.998c0.551 0 1 0.449 1 1.002 0 0.552-0.449 1-1 1s-1-0.448-1-1c0-0.553 0.449-1.002 1-1.002zM13.5 8.998c-1.104 0-2 0.896-2 2.002 0 1.104 0.896 2 2 2 1.105 0 2-0.896 2-2 0-1.105-0.895-2.002-2-2.002z"></path>
</svg>
