<?xml version="1.0" encoding="utf-8"?>
<!-- Generated by IcoMoon.io -->
<!DOCTYPE svg PUBLIC "-//W3C//DTD SVG 1.1//EN" "http://www.w3.org/Graphics/SVG/1.1/DTD/svg11.dtd">
<svg version="1.1" xmlns="http://www.w3.org/2000/svg" xmlns:xlink="http://www.w3.org/1999/xlink" width="24" height="24" viewBox="0 0 24 24">
<path fill="#444444" d="M14 4c0-1.105-0.896-2-2-2s-2 0.895-2 2v12h4v-12z"></path>
<path fill="#444444" d="M19 8c0-1.105-0.896-2-2-2s-2 0.895-2 2v8h4v-8z"></path>
<path fill="#444444" d="M9 11c0-1.105-0.896-2-2-2s-2 0.895-2 2v5h4v-5z"></path>
<path fill="#444444" d="M19 19h-14c-0.553 0-1 0.447-1 1s0.447 1 1 1h14c0.553 0 1-0.447 1-1s-0.447-1-1-1z"></path>
</svg>
