<?xml version="1.0" encoding="utf-8"?>
<!-- Generated by IcoMoon.io -->
<!DOCTYPE svg PUBLIC "-//W3C//DTD SVG 1.1//EN" "http://www.w3.org/Graphics/SVG/1.1/DTD/svg11.dtd">
<svg version="1.1" xmlns="http://www.w3.org/2000/svg" xmlns:xlink="http://www.w3.org/1999/xlink" width="32" height="32" viewBox="0 0 32 32">
<path fill="#444444" d="M20 18h2v-4h-2v4zM24 8h-2v4h2v-4zM20 8h-2v4h2v-4zM16 18h2v-4h-2v4zM12 24h10v-4h-10v4zM24 18h4v-10h-2v6h-2v4zM8 24h2v-4h-2v4zM24 24h4v-4h-4v4zM16 8h-2v4h2v-4zM6 14h-2v4h2v-4zM6 20h-2v4h2v-4zM0 4v24h32v-24h-32zM30 26h-28v-20h28v20zM12 18h2v-4h-2v4zM8 8h-4v4h4v-4zM12 8h-2v4h2v-4zM8 18h2v-4h-2v4z"></path>
</svg>
