<?xml version="1.0" encoding="UTF-8"?>
<!DOCTYPE svg PUBLIC "-//W3C//DTD SVG 1.1//EN" "http://www.w3.org/Graphics/SVG/1.1/DTD/svg11.dtd">
<!-- Creator: CorelDRAW X8 -->
<svg xmlns="http://www.w3.org/2000/svg" xml:space="preserve" width="1.38543in" height="1.50275in" version="1.1" style="shape-rendering:geometricPrecision; text-rendering:geometricPrecision; image-rendering:optimizeQuality; fill-rule:evenodd; clip-rule:evenodd"
viewBox="0 0 812 852"
 xmlns:xlink="http://www.w3.org/1999/xlink">
 <defs>
  <style type="text/css">
   <![CDATA[
    .fil0 {fill:black}
   ]]>
  </style>
 </defs>
 <g id="Layer_x0020_1">
  <metadata id="CorelCorpID_0Corel-Layer"/>
  <g id="_133437529920">
   <path class="fil0" d="M323 20c0,55 -1,50 60,50l0 53c-45,0 -114,30 -151,54 -8,5 -13,9 -19,16 -21,23 -8,73 33,73 34,0 37,-16 88,-36 47,-18 103,-22 155,-10 18,4 33,10 50,17 24,9 59,33 78,52l1 2c26,28 37,37 56,77 28,56 35,126 19,188 -2,8 -6,19 -9,25 -6,17 -12,30 -21,45 -5,8 -8,13 -13,20 -47,70 -138,113 -222,113 -36,0 -78,-10 -104,-21 -29,-13 -62,-33 -82,-54 -39,-40 -65,-76 -78,-133 -2,-8 -3,-21 -6,-27 24,0 60,7 60,-31 0,-8 -40,-76 -47,-88 -9,-14 -16,-28 -25,-42 -15,-25 -15,-35 -41,-35 -16,0 -26,21 -33,34l-62 108c-7,12 -10,14 -10,29 0,12 12,23 22,25 10,2 25,0 35,0 7,1 6,-1 8,5 0,2 0,9 1,11l6 31c11,43 21,63 41,102 24,44 75,94 118,122 49,32 122,57 184,57 67,0 111,-7 172,-35l42 -25c6,-3 9,-5 14,-9 11,-9 13,-9 25,-20 4,-4 7,-5 12,-10 4,-4 7,-7 11,-12 46,-46 81,-111 95,-175 18,-82 11,-146 -19,-221 -13,-32 -29,-54 -46,-80 -15,-21 -44,-49 -64,-65 -8,-6 -15,-12 -24,-18l-26 -16c-32,-16 -92,-43 -129,-43l0 -53c58,0 65,6 65,-45 0,-13 -10,-25 -22,-25l-178 0c-10,0 -20,10 -20,20z"/>
   <path class="fil0" d="M428 488l225 0c0,-35 -7,-72 -22,-102 -6,-12 -12,-24 -20,-35l-25 -29c-4,-3 -4,-3 -8,-6l-23 -18c-27,-19 -68,-33 -101,-36 -4,-1 -8,0 -13,-1 -6,0 -5,-1 -13,-1l0 228z"/>
   <path class="fil0" d="M678 142c0,21 14,25 29,40l34 32c4,4 5,4 9,7 2,3 5,6 8,8 20,12 33,-8 42,-17 9,-11 12,-9 12,-26 0,-10 -12,-20 -18,-26l-35 -31c-41,-41 -43,-37 -74,-2 -4,4 -7,8 -7,15z"/>
  </g>
 </g>
</svg>
