<?xml version="1.0" encoding="utf-8"?>
<!-- Generated by IcoMoon.io -->
<!DOCTYPE svg PUBLIC "-//W3C//DTD SVG 1.1//EN" "http://www.w3.org/Graphics/SVG/1.1/DTD/svg11.dtd">
<svg version="1.1" xmlns="http://www.w3.org/2000/svg" xmlns:xlink="http://www.w3.org/1999/xlink" width="32" height="32" viewBox="0 0 32 32">
<path fill="#444444" d="M26 15c-0.553 0-1 0.447-1 1v7c0 0.553 0.447 1 1 1s1-0.447 1-1v-7c0-0.553-0.447-1-1-1zM23 30h-14c-0.552 0-1 0.447-1 1s0.448 1 1 1h14c0.553 0 1-0.447 1-1s-0.447-1-1-1zM20 1c0-0.553-0.447-1-1-1h-5c0 0-1 0.447-1 1l-13 12c0 0.553 0.448 1 1 1h12c-0.553 0-1 1.447-1 2v12c0 0.553 0.447 1 1 1h6c0.553 0 1-0.447 1-1v-12c0-0.553-0.447-2-1-2h12c0.553 0 1-0.447 1-1l-12-12z"></path>
</svg>
