<?xml version="1.0" encoding="utf-8"?>
<!-- Generated by IcoMoon.io -->
<!DOCTYPE svg PUBLIC "-//W3C//DTD SVG 1.1//EN" "http://www.w3.org/Graphics/SVG/1.1/DTD/svg11.dtd">
<svg version="1.1" xmlns="http://www.w3.org/2000/svg" xmlns:xlink="http://www.w3.org/1999/xlink" width="24" height="24" viewBox="0 0 24 24">
<path fill="#444444" d="M14 8c1.656 0 3 1.344 3 3s-1.344 3-3 3-3-1.344-3-3 1.344-3 3-3zM14 7c-2.206 0-4 1.794-4 4s1.794 4 4 4 4-1.794 4-4-1.794-4-4-4z"></path>
<path fill="#444444" d="M4.195 17.674c0 1.727 1.404 3.131 3.131 3.131 0.756 0 1.503-0.277 2.104-0.783l2.397-2.386c0.685 0.227 1.412 0.364 2.173 0.364 3.86 0 7-3.141 7-7s-3.14-7-7-7c-3.859 0-7 3.141-7 7 0 0.761 0.136 1.486 0.364 2.173l-2.245 2.283c-0.596 0.59-0.924 1.378-0.924 2.218zM10.654 15.98l-2.512 2.511c-0.223 0.187-0.504 0.313-0.816 0.313-0.624 0-1.131-0.506-1.131-1.131 0-0.311 0.127-0.594 0.332-0.797l2.492-2.531c0.435 0.645 0.99 1.2 1.635 1.635zM14 16c-2.757 0-5-2.243-5-5s2.243-5 5-5 5 2.243 5 5-2.243 5-5 5z"></path>
</svg>
