<?xml version="1.0" encoding="utf-8"?>
<!-- Generated by IcoMoon.io -->
<!DOCTYPE svg PUBLIC "-//W3C//DTD SVG 1.1//EN" "http://www.w3.org/Graphics/SVG/1.1/DTD/svg11.dtd">
<svg version="1.1" xmlns="http://www.w3.org/2000/svg" xmlns:xlink="http://www.w3.org/1999/xlink" width="16" height="32" viewBox="0 0 16 32">
<path fill="#444444" d="M5.6 30c0-1.105 0.895-2 2-2s2 0.895 2 2c0 1.105-0.895 2-2 2s-2-0.895-2-2zM7.676 25.977c-1.336 0-2.59-0.52-3.535-1.465s-1.465-2.199-1.465-3.535 0.52-2.59 1.465-3.535l6.688-6.688c0.757-0.756 1.171-1.76 1.171-2.828s-0.414-2.072-1.172-2.828c-1.559-1.56-4.096-1.563-5.654 0-0.758 0.756-1.174 1.759-1.174 2.828h-4c0-2.137 0.834-4.147 2.348-5.659 3.020-3.023 8.285-3.021 11.309 0.002 1.511 1.509 2.343 3.518 2.343 5.657 0 2.137-0.832 4.145-2.344 5.656l-6.687 6.688c-0.389 0.391-0.389 1.023 0 1.414 0.391 0.391 1.023 0.391 1.414 0 0.254-0.254 0.293-0.555 0.293-0.707h4c0 1.336-0.52 2.59-1.465 3.535s-2.199 1.465-3.535 1.465v0z"></path>
</svg>
