<?xml version="1.0" encoding="utf-8"?>
<!-- Generated by IcoMoon.io -->
<!DOCTYPE svg PUBLIC "-//W3C//DTD SVG 1.1//EN" "http://www.w3.org/Graphics/SVG/1.1/DTD/svg11.dtd">
<svg version="1.1" xmlns="http://www.w3.org/2000/svg" xmlns:xlink="http://www.w3.org/1999/xlink" width="32" height="32" viewBox="0 0 32 32">
<path fill="#444444" d="M29 10.005h-26c-0.553 0-1 0.447-1 1v9c0 0.553 0.447 1 1 1h1v10c0 0.553 0.447 1 1 1h22c0.553 0 1-0.447 1-1v-10h1c0.553 0 1-0.447 1-1v-9c0-0.553-0.447-1-1-1zM14 29.005c0 0.553-0.447 1-1 1h-6c-0.553 0-1-0.447-1-1v-8c0-0.553 0.447-1 1-1h6c0.553 0 1 0.447 1 1v8zM14 17.005c0 0.553-0.447 1-1 1h-8c-0.553 0-1-0.447-1-1v-4c0-0.553 0.447-1 1-1h8c0.553 0 1 0.447 1 1v4zM26 29.005c0 0.553-0.447 1-1 1h-6c-0.553 0-1-0.447-1-1v-8c0-0.553 0.447-1 1-1h6c0.553 0 1 0.447 1 1v8zM28 17.005c0 0.553-0.447 1-1 1h-8c-0.553 0-1-0.447-1-1v-4c0-0.553 0.447-1 1-1h8c0.553 0 1 0.447 1 1v4zM11.559 10.004h9.2c1.577-1.131 3.068-2.603 3.245-4.207 0.086-0.783-0.082-1.93-1.375-2.951-0.717-0.567-1.445-0.854-2.161-0.854-2.282 0-3.573 2.798-4.271 5.298-0.834-3.187-2.444-7.285-5.209-7.285-0.807 0-1.61 0.349-2.391 1.038-1.54 1.362-1.691 2.778-1.547 3.726 0.323 2.119 2.455 3.94 4.509 5.235zM20.468 4.392c0.221 0 0.506 0.132 0.823 0.384 0.516 0.406 0.487 0.658 0.479 0.741-0.096 0.875-1.737 2.25-3.651 3.385 0.563-2.421 1.483-4.51 2.349-4.51zM10.034 2.89c0.251-0.222 0.621-0.486 0.954-0.486 1.238 0 2.511 3.25 3.253 6.41-2.338-1.246-4.755-3.013-4.971-4.431-0.029-0.196-0.109-0.721 0.764-1.493z"></path>
</svg>
