<?xml version="1.0" encoding="utf-8"?>
<!-- Generated by IcoMoon.io -->
<!DOCTYPE svg PUBLIC "-//W3C//DTD SVG 1.1//EN" "http://www.w3.org/Graphics/SVG/1.1/DTD/svg11.dtd">
<svg version="1.1" xmlns="http://www.w3.org/2000/svg" xmlns:xlink="http://www.w3.org/1999/xlink" width="48" height="48" viewBox="0 0 48 48">
<path fill="#444444" d="M6.405 13.005c0.12-0.82 0.5-1.61 1.13-2.24 1.56-1.56 4.090-1.56 5.65 0l2.83 2.83c0.78 0.78 2.050 0.78 2.83 0l9.489-9.48c1.561-1.56 4.090-1.56 5.65 0l9.9 9.9c1.561 1.561 1.561 4.091 0 5.65l-9.48 9.49c-0.779 0.779-0.779 2.050 0 2.83l2.82 2.829c1.57 1.561 1.57 4.091 0 5.65-0.621 0.63-1.41 1.010-2.23 1.13l-27.040 3.46c-2.77 0.010-5.020-2.24-5.010-5.010l3.461-27.039z"></path>
</svg>
