<?xml version="1.0" encoding="utf-8"?>
<!-- Generated by IcoMoon.io -->
<!DOCTYPE svg PUBLIC "-//W3C//DTD SVG 1.1//EN" "http://www.w3.org/Graphics/SVG/1.1/DTD/svg11.dtd">
<svg version="1.1" xmlns="http://www.w3.org/2000/svg" xmlns:xlink="http://www.w3.org/1999/xlink" width="24" height="24" viewBox="0 0 24 24">
<path fill="#444444" d="M14.234 16.014l0.554-1.104c0.808-1.61 0.897-3.228 0.253-4.552-0.122-0.252-0.277-0.479-0.443-0.693 1.411-0.619 2.402-2.026 2.402-3.664 0-2.206-1.794-4-4-4s-4 1.794-4 4c0 0.783 0.234 1.508 0.624 2.126-1.696 0.33-2.806 1.248-2.947 1.375-0.716 0.631-0.885 1.68-0.405 2.504 0.324 0.559 0.886 0.909 1.494 0.98l-0.554 1.104c-0.808 1.61-0.897 3.228-0.254 4.552 0.565 1.164 1.621 1.955 2.972 2.229 0.413 0.084 0.836 0.127 1.254 0.127 2.368 0 3.965-1.347 4.14-1.501 0.716-0.63 0.887-1.678 0.407-2.503-0.325-0.556-0.887-0.909-1.497-0.98zM13 4.001c1.104 0 2 0.896 2 2s-0.896 2-2 2c-1.105 0-2-0.896-2-2s0.895-2 2-2zM11.184 19c-0.271 0-0.559-0.025-0.854-0.087-1.642-0.334-2.328-1.933-1.328-3.927l1-1.995c0.5-0.996 0.47-1.63-0.108-2.035-0.181-0.125-0.431-0.169-0.689-0.169-0.577 0-1.201 0.214-1.201 0.214s1.133-1.001 2.812-1.001c0.271 0 0.56 0.025 0.856 0.087 1.64 0.334 2.328 1.933 1.328 3.927l-1 1.993c-0.5 0.998-0.472 1.632 0.106 2.035 0.181 0.126 0.433 0.169 0.692 0.169 0.577 0 1.2-0.212 1.2-0.212s-1.133 1.001-2.814 1.001z"></path>
</svg>
