<?xml version="1.0" encoding="utf-8"?>
<!-- Generated by IcoMoon.io -->
<!DOCTYPE svg PUBLIC "-//W3C//DTD SVG 1.1//EN" "http://www.w3.org/Graphics/SVG/1.1/DTD/svg11.dtd">
<svg version="1.1" xmlns="http://www.w3.org/2000/svg" xmlns:xlink="http://www.w3.org/1999/xlink" width="48" height="48" viewBox="0 0 48 48">
<path fill="#444444" d="M44 37c2.21 0 4-1.79 4-4v-25c0-2.21-1.79-4-4-4l-22 0c-2.21 0-4 1.79-4 4v4h-6.080c-1.34 0-2.53 0.53-3.39 1.38l-5.060 5.080c-0.91 0.9-1.47 2.16-1.47 3.54v10.050c-1.14 0.23-2 1.24-2 2.45 0 1.38 1.12 2.5 2.5 2.5h3.52c0.25 3.91 3.51 7 7.48 7s7.23-3.090 7.48-7h7.030c0.26 3.91 3.52 7 7.49 7s7.23-3.090 7.48-7h1.020zM16 36.5c0 1.38-1.12 2.5-2.5 2.5s-2.5-1.12-2.5-2.5 1.12-2.5 2.5-2.5 2.5 1.12 2.5 2.5zM38 36.5c0 1.38-1.12 2.5-2.5 2.5s-2.5-1.12-2.5-2.5 1.12-2.5 2.5-2.5 2.5 1.12 2.5 2.5zM7 25v-2.529c0-1 0.4-1.471 1.15-2.221l2.15-2.15c0.68-0.68 1.2-1.1 2.18-1.1l5.52-0v8l-11 0z"></path>
</svg>
