<?xml version="1.0" encoding="utf-8"?>
<!-- Generated by IcoMoon.io -->
<!DOCTYPE svg PUBLIC "-//W3C//DTD SVG 1.1//EN" "http://www.w3.org/Graphics/SVG/1.1/DTD/svg11.dtd">
<svg version="1.1" xmlns="http://www.w3.org/2000/svg" xmlns:xlink="http://www.w3.org/1999/xlink" width="32" height="32" viewBox="0 0 32 32">
<path fill="#444444" d="M8 24c-4.418 0-8-3.582-8-8s3.582-8 8-8v16zM12 8l8-4v24l-8-4zM24.004 23.996v-4c0.332 0 0.668-0.043 1.004-0.125 1.754-0.445 2.992-2.039 2.992-3.871s-1.238-3.422-3.012-3.871c-0.316-0.078-0.652-0.121-0.984-0.121v-4c0.656 0 1.313 0.082 1.957 0.238 3.559 0.906 6.039 4.090 6.039 7.754 0 3.668-2.48 6.855-6.027 7.754-0.664 0.16-1.321 0.242-1.969 0.242v0z"></path>
</svg>
