<?xml version="1.0" encoding="utf-8"?>
<!-- Generated by IcoMoon.io -->
<!DOCTYPE svg PUBLIC "-//W3C//DTD SVG 1.1//EN" "http://www.w3.org/Graphics/SVG/1.1/DTD/svg11.dtd">
<svg version="1.1" xmlns="http://www.w3.org/2000/svg" xmlns:xlink="http://www.w3.org/1999/xlink" width="32" height="32" viewBox="0 0 32 32">
<path fill="#444444" d="M24 4c-0.375 0-0.738 0.062-1.102 0.109-1.394-2.461-3.972-4.109-6.898-4.109-2.988 0-5.568 1.664-6.941 4.102-0.352-0.047-0.702-0.102-1.059-0.102-4.412 0-8 3.586-8 8s3.588 8 8 8h16c4.414 0 8-3.586 8-8s-3.586-8-8-8zM24 16h-16c-2.205 0-4-1.797-4-4 0-2.195 1.943-3.883 4.004-3.945 0.008 0.945 0.172 1.867 0.5 2.742l3.746-1.398c-0.166-0.446-0.25-0.915-0.25-1.399 0-2.203 1.795-4 4-4 1.295 0 2.463 0.641 3.203 1.641-1.933 1.461-3.203 3.754-3.203 6.359h4c0-2.203 1.797-4 4-4s4 1.797 4 4-1.797 4-4 4zM16 20l-6 6h4v6h4v-6h4z"></path>
</svg>
