<?xml version="1.0" encoding="UTF-8"?>
<!DOCTYPE svg PUBLIC "-//W3C//DTD SVG 1.1//EN" "http://www.w3.org/Graphics/SVG/1.1/DTD/svg11.dtd">
<!-- Creator: CorelDRAW X8 -->
<svg xmlns="http://www.w3.org/2000/svg" xml:space="preserve" width="2.42897in" height="2.97445in" version="1.1" style="shape-rendering:geometricPrecision; text-rendering:geometricPrecision; image-rendering:optimizeQuality; fill-rule:evenodd; clip-rule:evenodd"
viewBox="0 0 851 1042"
 xmlns:xlink="http://www.w3.org/1999/xlink">
 <defs>
  <style type="text/css">
   <![CDATA[
    .fil0 {fill:black}
   ]]>
  </style>
 </defs>
 <g id="Layer_x0020_1">
  <metadata id="CorelCorpID_0Corel-Layer"/>
  <g id="_133437519232">
   <path class="fil0" d="M0 173l0 696c0,39 22,68 57,69 40,2 85,0 126,0 84,0 168,0 253,0 -6,-22 -17,-45 -17,-75l-344 0 0 -594 521 0 0 350c9,-1 21,-5 29,-6l47 -2 0 -446c0,-79 -113,-61 -167,-61 0,8 2,4 2,12 0,47 -33,77 -82,77 -36,0 -188,5 -212,-5 -21,-8 -37,-25 -44,-46 -5,-18 -2,-21 -2,-38l-122 0c-13,0 -28,15 -33,24 -8,12 -12,25 -12,45z"/>
   <path class="fil0" d="M643 953c-14,0 -24,-10 -32,-17l-55 -43c-33,-26 -19,-59 14,-59 13,0 49,35 67,47 8,-5 30,-31 36,-39l45 -49c4,-4 4,-5 8,-10 12,-12 24,-32 49,-19 8,4 15,13 15,24 0,19 -19,31 -31,46l-73 82c-9,10 -27,37 -43,37zm21 89l-16 0c-37,-1 -73,-13 -104,-35 -6,-4 -8,-7 -13,-11 -18,-15 -18,-15 -34,-36 -23,-33 -35,-72 -35,-115 0,-53 28,-105 54,-131 72,-71 180,-79 256,-21 48,36 81,99 79,158 -3,64 -31,119 -83,156 -30,22 -67,34 -104,35z"/>
   <path class="fil0" d="M338 73c-33,0 -28,-42 -2,-42 27,0 28,42 2,42zm-7 -73l9 0c24,2 46,18 49,47 4,44 34,16 65,32 39,20 32,86 -29,86l-179 0c-32,0 -53,-20 -53,-47 0,-6 6,-20 9,-24 19,-31 56,-15 72,-24 8,-5 8,-11 9,-23 5,-30 26,-45 48,-47z"/>
   <path class="fil0" d="M120 488c0,9 -3,33 12,33l393 0c17,0 17,-45 0,-45l-393 0c-5,0 -12,8 -12,12z"/>
   <path class="fil0" d="M120 354c0,13 -4,33 14,33l391 0c17,0 20,-45 -4,-45l-385 0c-7,0 -16,6 -16,12z"/>
   <path class="fil0" d="M120 611c0,16 -3,30 20,30l306 0c23,0 28,-47 -4,-47l-304 0c-9,0 -18,6 -18,17z"/>
   <path class="fil0" d="M120 745c0,16 -3,30 22,30l269 0c25,0 23,-17 23,-32 0,-8 -10,-14 -19,-14l-279 0c-9,0 -16,6 -16,16z"/>
  </g>
 </g>
</svg>
