<?xml version="1.0" encoding="UTF-8"?>
<!DOCTYPE svg PUBLIC "-//W3C//DTD SVG 1.1//EN" "http://www.w3.org/Graphics/SVG/1.1/DTD/svg11.dtd">
<!-- Creator: CorelDRAW X8 -->
<svg xmlns="http://www.w3.org/2000/svg" xml:space="preserve" width="2.86292in" height="2.86292in" version="1.1" style="shape-rendering:geometricPrecision; text-rendering:geometricPrecision; image-rendering:optimizeQuality; fill-rule:evenodd; clip-rule:evenodd"
viewBox="0 0 1600 1600"
 xmlns:xlink="http://www.w3.org/1999/xlink">
 <defs>
  <style type="text/css">
   <![CDATA[
    .fil0 {fill:black}
   ]]>
  </style>
 </defs>
 <g id="Layer_x0020_1">
  <metadata id="CorelCorpID_0Corel-Layer"/>
  <g id="_133149943136">
   <path class="fil0" d="M150 819l3 -78c5,-62 26,-140 49,-195 16,-37 37,-73 58,-105l34 -47c40,-54 115,-116 174,-151 72,-44 153,-73 240,-85 24,-4 52,-4 74,-7 12,-2 27,-2 39,0 14,3 24,1 38,2 131,10 246,63 347,141 41,31 87,83 118,125 63,85 103,181 118,289 11,74 9,148 -6,222 -21,107 -66,193 -130,276l-38 43c-8,8 -13,13 -20,21l-44 38c-8,6 -15,10 -23,16 -9,7 -14,12 -24,18l-78 43c-55,28 -122,48 -187,57 -53,8 -99,9 -151,5 -62,-5 -140,-26 -195,-49 -56,-24 -105,-56 -152,-92 -41,-31 -88,-83 -119,-125 -29,-40 -37,-56 -60,-102 -36,-71 -60,-159 -62,-242 0,-13 -2,-12 -3,-18zm616 -819l78 0c101,5 201,29 295,74 172,83 307,215 388,390 53,114 73,213 73,358 0,207 -99,410 -234,544 -63,64 -143,121 -230,161 -114,53 -213,73 -358,73 -300,0 -581,-196 -705,-464 -53,-114 -73,-213 -73,-358 0,-207 99,-410 234,-544 142,-143 335,-224 532,-234z"/>
   <path class="fil0" d="M300 791c0,26 0,40 15,63 10,16 410,417 429,430 71,46 156,-12 156,-75 0,-56 -14,-66 -51,-102 -27,-27 -196,-193 -205,-207l559 0c28,0 52,-13 67,-27 40,-39 41,-105 1,-144 -14,-14 -38,-29 -65,-29 -61,-2 -125,0 -187,0 -125,0 -250,0 -375,0 9,-14 177,-179 204,-205 36,-37 52,-47 52,-104 0,-44 -47,-91 -91,-91 -26,0 -40,0 -63,15 -14,8 -22,18 -33,30 -47,46 -384,380 -397,399 -7,10 -16,31 -16,47z"/>
  </g>
 </g>
</svg>
