<?xml version="1.0" encoding="utf-8"?>
<!-- Generated by IcoMoon.io -->
<!DOCTYPE svg PUBLIC "-//W3C//DTD SVG 1.1//EN" "http://www.w3.org/Graphics/SVG/1.1/DTD/svg11.dtd">
<svg version="1.1" xmlns="http://www.w3.org/2000/svg" xmlns:xlink="http://www.w3.org/1999/xlink" width="24" height="24" viewBox="0 0 24 24">
<path fill="#444444" d="M3 12q0 1.969 1.102 3.516t2.883 2.156v2.063q-2.625-0.656-4.313-2.813t-1.688-4.922 1.688-4.922 4.313-2.813v2.063q-1.781 0.609-2.883 2.156t-1.102 3.516zM15 18q2.484 0 4.242-1.758t1.758-4.242-1.758-4.242-4.242-1.758-4.242 1.758-1.758 4.242 1.758 4.242 4.242 1.758zM15 3.984q3.281 0 5.648 2.367t2.367 5.648-2.367 5.648-5.648 2.367-5.648-2.367-2.367-5.648 2.367-5.648 5.648-2.367z"></path>
</svg>
