<?xml version="1.0" encoding="utf-8"?>
<!-- Generated by IcoMoon.io -->
<!DOCTYPE svg PUBLIC "-//W3C//DTD SVG 1.1//EN" "http://www.w3.org/Graphics/SVG/1.1/DTD/svg11.dtd">
<svg version="1.1" xmlns="http://www.w3.org/2000/svg" xmlns:xlink="http://www.w3.org/1999/xlink" width="24" height="24" viewBox="0 0 24 24">
<path fill="#444444" d="M20.997 16.742c0 0-6.986-7.011-6.999-7.742v-1.002h2.004v-6h-9.002v6h2l0.004 1.002c-0.013 0.731-6.999 7.742-6.999 7.742-1.317 1.478-1.041 2.686-0.807 3.232s1.129 2.026 1.777 2.026h17.052c0.648 0 1.542-1.479 1.776-2.025s0.511-1.755-0.806-3.233zM19.966 19.187c-0.088 0.204-0.312 0.568-0.5 0.813h-15.93c-0.188-0.245-0.412-0.609-0.499-0.813-0.144-0.334 0.192-0.804 0.428-1.076 7.513-7.542 7.524-8.218 7.539-9.11v-2.999l-2.007-0.002 0.003-1.998h4.998l0.003 1.998h-2.001l-0.001 3.035c0.015 0.857 0.026 1.534 7.539 9.076 0.235 0.272 0.57 0.742 0.428 1.076zM12 12h-1.002l-6 6v1.002h13.002v-1.002l-6-6zM10.002 15l0.996-1.998h1.002l1.002 1.998h-3z"></path>
</svg>
