<?xml version="1.0" encoding="utf-8"?>
<!-- Generated by IcoMoon.io -->
<!DOCTYPE svg PUBLIC "-//W3C//DTD SVG 1.1//EN" "http://www.w3.org/Graphics/SVG/1.1/DTD/svg11.dtd">
<svg version="1.1" xmlns="http://www.w3.org/2000/svg" xmlns:xlink="http://www.w3.org/1999/xlink" width="24" height="24" viewBox="0 0 24 24">
<path fill="#444444" d="M14 8.676l4.133 4.025-4.133 4.026v-8.051zM13.8 6.4c-0.994 0-1.8 0.807-1.8 1.801v9c0 0.994 0.806 1.799 1.8 1.799 0.488 0 0.93-0.195 1.253-0.512 2.381-2.314 5.947-5.787 5.947-5.787s-3.566-3.475-5.944-5.789c-0.327-0.314-0.768-0.512-1.256-0.512z"></path>
<path fill="#444444" d="M5 8.676l4.133 4.025-4.133 4.026v-8.051zM4.8 6.4c-0.994 0-1.8 0.807-1.8 1.801v9c0 0.994 0.806 1.799 1.8 1.799 0.488 0 0.93-0.195 1.253-0.512 2.381-2.314 5.947-5.787 5.947-5.787s-3.566-3.474-5.944-5.789c-0.327-0.314-0.768-0.512-1.256-0.512z"></path>
</svg>
