<?xml version="1.0" encoding="utf-8"?>
<!-- Generated by IcoMoon.io -->
<!DOCTYPE svg PUBLIC "-//W3C//DTD SVG 1.1//EN" "http://www.w3.org/Graphics/SVG/1.1/DTD/svg11.dtd">
<svg version="1.1" xmlns="http://www.w3.org/2000/svg" xmlns:xlink="http://www.w3.org/1999/xlink" width="18" height="18" viewBox="0 0 18 18">
<path fill="#444444" d="M14.312 9c0.695 0 1.299-0.478 1.459-1.154l1.181-4.982c0.237-0.947-0.479-1.864-1.455-1.864h-13.494c-0.552 0-0.999 0.448-0.999 1s0.448 1 0.999 1h1v8.5c0 0.829 0.671 1.5 1.499 1.5h10.496c0.552 0 0.999-0.448 0.999-1s-0.447-1-0.999-1h-9.996v-2h9.31zM5.002 3h9.863l-0.948 4h-8.915v-4zM5.502 14c-0.828 0-1.5 0.671-1.5 1.5s0.671 1.5 1.5 1.5 1.5-0.671 1.5-1.5-0.671-1.5-1.5-1.5zM13.498 14c-0.828 0-1.499 0.671-1.499 1.5s0.671 1.5 1.499 1.5 1.5-0.671 1.5-1.5-0.671-1.5-1.5-1.5z"></path>
</svg>
