<?xml version="1.0" encoding="utf-8"?>
<!-- Generated by IcoMoon.io -->
<!DOCTYPE svg PUBLIC "-//W3C//DTD SVG 1.1//EN" "http://www.w3.org/Graphics/SVG/1.1/DTD/svg11.dtd">
<svg version="1.1" xmlns="http://www.w3.org/2000/svg" xmlns:xlink="http://www.w3.org/1999/xlink" width="48" height="48" viewBox="0 0 48 48">
<path fill="#444444" d="M21 11.5c0 1.38 1.12 2.5 2.5 2.5s2.5-1.12 2.5-2.5-1.12-2.5-2.5-2.5-2.5 1.12-2.5 2.5zM21 32.5c0-1.38 1.12-2.5 2.5-2.5s2.5 1.12 2.5 2.5-1.12 2.5-2.5 2.5-2.5-1.12-2.5-2.5zM23.5 26c-3.59 0-6.5 2.91-6.5 6.5s2.91 6.5 6.5 6.5 6.5-2.91 6.5-6.5-2.91-6.5-6.5-6.5zM5 44c0 2.21 1.79 4 4 4h29c2.21 0 4-1.79 4-4v-40c0-2.21-1.79-4-4-4h-29c-2.21 0-4 1.79-4 4v40zM19.3 22.87c1.18-0.56 2-1.78 2-3.18 0-1.080-0.49-2.040-1.26-2.68-1.83-1.15-3.040-3.19-3.040-5.51 0-3.59 2.91-6.5 6.5-6.5s6.5 2.91 6.5 6.5c0 2.22-1.12 4.19-2.82 5.36-0.89 0.63-1.46 1.67-1.46 2.84 0 1.41 0.83 2.63 2.030 3.18l0.080 0.040c3.64 1.65 6.17 5.32 6.17 9.58 0 5.8-4.7 10.5-10.5 10.5s-10.5-4.7-10.5-10.5c0-4.311 2.59-8.010 6.3-9.63z"></path>
</svg>
