<?xml version="1.0" encoding="utf-8"?>
<!-- Generated by IcoMoon.io -->
<!DOCTYPE svg PUBLIC "-//W3C//DTD SVG 1.1//EN" "http://www.w3.org/Graphics/SVG/1.1/DTD/svg11.dtd">
<svg version="1.1" xmlns="http://www.w3.org/2000/svg" xmlns:xlink="http://www.w3.org/1999/xlink" width="48" height="48" viewBox="0 0 48 48">
<path fill="#444444" d="M21 33.5c0 1.38 1.12 2.5 2.5 2.5s2.5-1.12 2.5-2.5-1.12-2.5-2.5-2.5-2.5 1.12-2.5 2.5zM4 0c-2.21 0-4 1.79-4 4v40c0 2.21 1.79 4 4 4h40c2.21 0 4-1.79 4-4l-0-34.080c0-1.34-0.529-2.53-1.38-3.39l-5.080-5.060c-0.899-0.91-2.16-1.47-3.54-1.47h-34zM7.2 5h2.8v7.8c0 1.22 0.98 2.2 2.2 2.2h2.6c1.22 0 2.2-0.98 2.2-2.2l-0-7.8h18.8c1.22 0 2.2 0.98 2.2 2.2v9.6c0 1.22-0.98 2.2-2.2 2.2h-28.6c-1.22 0-2.2-0.98-2.2-2.2v-9.6c0-1.22 0.98-2.2 2.2-2.2zM17 33.5c0-3.59 2.91-6.5 6.5-6.5s6.5 2.91 6.5 6.5-2.91 6.5-6.5 6.5-6.5-2.91-6.5-6.5z"></path>
</svg>
