<?xml version="1.0" encoding="utf-8"?>
<!-- Generated by IcoMoon.io -->
<!DOCTYPE svg PUBLIC "-//W3C//DTD SVG 1.1//EN" "http://www.w3.org/Graphics/SVG/1.1/DTD/svg11.dtd">
<svg version="1.1" xmlns="http://www.w3.org/2000/svg" xmlns:xlink="http://www.w3.org/1999/xlink" width="24" height="24" viewBox="0 0 24 24">
<path fill="#444444" d="M8.865 5c0.751 0 1.44 0.202 2.069 0.609 0.324-0.080 0.711-0.121 1.157-0.121 1.846 0 3.418 0.67 4.717 2.008 1.299 1.339 1.948 2.962 1.948 4.87 0 0.466-0.051 0.953-0.152 1.461 0.264 0.589 0.396 1.187 0.396 1.794 0 1.097-0.38 2.036-1.142 2.815-0.761 0.781-1.668 1.173-2.725 1.173-0.629 0-1.237-0.162-1.825-0.488-0.527 0.081-0.933 0.122-1.217 0.122-1.847 0-3.425-0.67-4.733-2.009s-1.963-2.962-1.963-4.868c0-0.447 0.051-0.902 0.152-1.37-0.364-0.609-0.547-1.288-0.547-2.039 0-1.096 0.376-2.029 1.126-2.799 0.75-0.772 1.664-1.158 2.739-1.158zM12 15.53c-0.406 0-0.729-0.061-0.975-0.183-0.263-0.142-0.445-0.284-0.547-0.425-0.243-0.447-0.376-0.681-0.396-0.7-0.081-0.243-0.202-0.447-0.364-0.609-0.203-0.14-0.406-0.213-0.61-0.213-0.284 0-0.517 0.091-0.7 0.274-0.183 0.182-0.274 0.396-0.274 0.639 0 0.386 0.144 0.801 0.428 1.248 0.263 0.405 0.629 0.741 1.096 1.003 0.648 0.346 1.45 0.519 2.404 0.519 0.79 0 1.49-0.122 2.1-0.365 0.609-0.284 1.055-0.639 1.339-1.065 0.304-0.467 0.456-0.975 0.456-1.522 0-0.445-0.080-0.852-0.242-1.217-0.163-0.304-0.416-0.578-0.762-0.82-0.365-0.225-0.75-0.407-1.156-0.548-0.689-0.204-1.178-0.336-1.461-0.396-0.143-0.021-0.32-0.055-0.533-0.107-0.213-0.050-0.35-0.085-0.41-0.106-0.243-0.080-0.416-0.152-0.518-0.212-0.163-0.081-0.294-0.193-0.396-0.336-0.103-0.1-0.152-0.233-0.152-0.396 0-0.243 0.142-0.455 0.426-0.639 0.265-0.203 0.649-0.305 1.156-0.305 0.508 0 0.884 0.092 1.127 0.273 0.263 0.225 0.456 0.478 0.577 0.762 0.163 0.264 0.295 0.446 0.396 0.547 0.162 0.123 0.355 0.184 0.578 0.184 0.264 0 0.498-0.102 0.699-0.306 0.184-0.181 0.275-0.404 0.275-0.669 0-0.202-0.072-0.467-0.214-0.791-0.162-0.243-0.376-0.486-0.639-0.729-0.284-0.224-0.659-0.417-1.127-0.579-0.485-0.143-1.004-0.213-1.552-0.213-0.73 0-1.38 0.11-1.948 0.335-0.566 0.2-1.003 0.505-1.307 0.911-0.305 0.406-0.457 0.872-0.457 1.4 0 0.527 0.143 0.984 0.426 1.37 0.346 0.405 0.73 0.688 1.156 0.851 0.488 0.224 1.076 0.407 1.766 0.548 0.121 0.021 0.27 0.056 0.441 0.106 0.172 0.052 0.324 0.092 0.457 0.123 0.131 0.028 0.238 0.055 0.319 0.075 0.284 0.103 0.517 0.243 0.699 0.427 0.183 0.141 0.274 0.354 0.274 0.639 0 0.346-0.162 0.629-0.486 0.853-0.364 0.243-0.821 0.364-1.369 0.364zM8.865 3c-1.609 0-3.053 0.61-4.174 1.765-1.105 1.134-1.691 2.585-1.691 4.192 0 0.832 0.156 1.619 0.466 2.348-0.047 0.357-0.070 0.713-0.070 1.062 0 2.438 0.853 4.547 2.532 6.267 1.693 1.732 3.768 2.61 6.164 2.61 0.254 0 0.547-0.020 0.896-0.060 0.69 0.283 1.409 0.426 2.146 0.426 1.588 0 3.025-0.614 4.157-1.777 1.117-1.143 1.709-2.6 1.709-4.211 0-0.677-0.111-1.349-0.332-2.004 0.059-0.427 0.089-0.846 0.089-1.251 0-2.437-0.846-4.544-2.513-6.263-1.685-1.735-3.755-2.615-6.152-2.615-0.279 0-0.546 0.013-0.801 0.038-0.756-0.35-1.568-0.527-2.426-0.527z"></path>
</svg>
