<?xml version="1.0" encoding="utf-8"?>
<!-- Generated by IcoMoon.io -->
<!DOCTYPE svg PUBLIC "-//W3C//DTD SVG 1.1//EN" "http://www.w3.org/Graphics/SVG/1.1/DTD/svg11.dtd">
<svg version="1.1" xmlns="http://www.w3.org/2000/svg" xmlns:xlink="http://www.w3.org/1999/xlink" width="24" height="32" viewBox="0 0 24 32">
<path fill="#444444" d="M17.844 16c3.688-2.656 6.156-7.5 6.156-12 0-2.219-5.375-4-12-4s-12 1.781-12 4c0 4.5 2.5 9.344 6.156 12-3.688 2.656-6.156 7.5-6.156 12 0 2.219 5.375 4 12 4s12-1.781 12-4c0-4.5-2.5-9.344-6.156-12zM12 2c4.406 0 8 0.906 8 2s-3.594 2-8 2-8-0.906-8-2 3.594-2 8-2zM10 24.063c-4.813 0.219-7.438 1.25-7.906 2.563 0.5-3.563 2.344-5.906 4.406-7.844 2.281-2.125 3.5-1.875 3.5-3.219v8.531zM6.719 13.063c-2.188-1.719-3.813-4.063-4.438-6.719 2.188 1 5.719 1.656 9.719 1.656s7.531-0.656 9.719-1.656c-0.625 2.656-2.25 5-4.438 6.719-0.75-0.531-2.188-1.063-5.281-1.063s-4.531 0.531-5.281 1.063zM14 24.063v-8.531c0 1.344 1.219 1.094 3.5 3.219 2.063 1.938 3.906 4.313 4.406 7.844-0.438-1.281-3.094-2.344-7.906-2.563z"></path>
</svg>
