<?xml version="1.0" encoding="utf-8"?>
<!-- Generated by IcoMoon.io -->
<!DOCTYPE svg PUBLIC "-//W3C//DTD SVG 1.1//EN" "http://www.w3.org/Graphics/SVG/1.1/DTD/svg11.dtd">
<svg version="1.1" xmlns="http://www.w3.org/2000/svg" xmlns:xlink="http://www.w3.org/1999/xlink" width="32" height="32" viewBox="0 0 32 32">
<path fill="#444444" d="M15.5 16c-2.209 0-4-1.791-4-4h-6v10c0 5.522 4.477 10 10 10s10-4.478 10-10v-10h-6c0 2.209-1.791 4-4 4zM11.5 8c0-2.209 1.791-4 4-4s4 1.791 4 4v2h6c0-5.523-4.477-10-10-10s-10 4.477-10 10h6v-2zM14.5 7v6c0 0.552 0.448 1 1 1s1-0.448 1-1v-6c0-0.552-0.448-1-1-1s-1 0.448-1 1z"></path>
</svg>
