<?xml version="1.0" encoding="utf-8"?>
<!-- Generated by IcoMoon.io -->
<!DOCTYPE svg PUBLIC "-//W3C//DTD SVG 1.1//EN" "http://www.w3.org/Graphics/SVG/1.1/DTD/svg11.dtd">
<svg version="1.1" xmlns="http://www.w3.org/2000/svg" xmlns:xlink="http://www.w3.org/1999/xlink" width="28" height="32" viewBox="0 0 28 32">
<path fill="#444444" d="M14 2c-2.842 0-5.479 0.86-7.686 2.314l-2.314-2.314v8h8l-2.75-2.75c1.42-0.771 3.021-1.25 4.75-1.25 5.523 0 10 4.476 10 10s-4.477 10-10 10c-5.524 0-10-4.477-10-10 0-1.424 0.306-2.774 0.844-4h-2.844v-3.106c-1.24 2.091-2 4.5-2 7.106 0 7.732 6.268 14 14 14s14-6.268 14-14c0-7.732-6.268-14-14-14zM13.97 25.969l2.030-1.969v-6h4l2-2-2-2h-4l-2-2-4 4 2 2v6l1.97 1.969z"></path>
</svg>
