<?xml version="1.0" encoding="utf-8"?>
<!-- Generated by IcoMoon.io -->
<!DOCTYPE svg PUBLIC "-//W3C//DTD SVG 1.1//EN" "http://www.w3.org/Graphics/SVG/1.1/DTD/svg11.dtd">
<svg version="1.1" xmlns="http://www.w3.org/2000/svg" xmlns:xlink="http://www.w3.org/1999/xlink" width="28" height="32" viewBox="0 0 28 32">
<path fill="#444444" d="M19.973 23.977c-1.668 1.254-3.723 2.023-5.973 2.023-5.524 0-10-4.477-10-10 0-1.424 0.306-2.774 0.844-4h-2.844v-3.108c-1.24 2.091-2 4.502-2 7.108 0 7.732 6.268 14 14 14 3.355 0 6.391-1.229 8.805-3.195l1.195 1.195v-6h-6l1.973 1.977zM12 24h4v-4h-4v4zM16 8h-4v10h4v-10zM28 16c0-7.732-6.268-14-14-14-3.356 0-6.392 1.228-8.802 3.198l-1.198-1.198v6h6l-1.974-1.974c1.67-1.255 3.724-2.026 5.974-2.026 5.523 0 10 4.476 10 10 0 1.424-0.305 2.773-0.844 4h2.844v3.109c1.24-2.092 2-4.5 2-7.109z"></path>
</svg>
