<?xml version="1.0" encoding="UTF-8"?>
<!DOCTYPE svg PUBLIC "-//W3C//DTD SVG 1.1//EN" "http://www.w3.org/Graphics/SVG/1.1/DTD/svg11.dtd">
<!-- Creator: CorelDRAW X8 -->
<svg xmlns="http://www.w3.org/2000/svg" xml:space="preserve" width="1.97057in" height="1.97057in" version="1.1" style="shape-rendering:geometricPrecision; text-rendering:geometricPrecision; image-rendering:optimizeQuality; fill-rule:evenodd; clip-rule:evenodd"
viewBox="0 0 433 433"
 xmlns:xlink="http://www.w3.org/1999/xlink">
 <defs>
  <style type="text/css">
   <![CDATA[
    .fil0 {fill:black}
   ]]>
  </style>
 </defs>
 <g id="Layer_x0020_1">
  <metadata id="CorelCorpID_0Corel-Layer"/>
  <g id="_133444942944">
   <path class="fil0" d="M61 30c-17,3 -52,34 -58,50 -2,4 -3,10 -3,17l0 13c1,24 6,52 10,66 14,55 38,100 75,143 53,62 134,102 215,112 7,1 13,1 18,2l25 0c12,-2 21,-10 38,-26 65,-65 -8,-94 -64,-108 -69,-18 -43,75 -145,-9 -20,-17 -37,-37 -49,-59 -28,-49 -19,-37 4,-69 23,-32 -4,-144 -66,-132z"/>
   <path class="fil0" d="M299 96l-57 57 38 38 57 -57 58 57 38 -38 0 0 -57 -57 57 -58 0 0 -38 -38 0 0 -57 57c-13,-11 -27,-26 -39,-38 -23,-24 -15,-24 -38,0 -24,23 -24,15 0,38 11,12 27,26 38,39z"/>
  </g>
 </g>
</svg>
