<?xml version="1.0" encoding="utf-8"?>
<!-- Generated by IcoMoon.io -->
<!DOCTYPE svg PUBLIC "-//W3C//DTD SVG 1.1//EN" "http://www.w3.org/Graphics/SVG/1.1/DTD/svg11.dtd">
<svg version="1.1" xmlns="http://www.w3.org/2000/svg" xmlns:xlink="http://www.w3.org/1999/xlink" width="48" height="48" viewBox="0 0 48 48">
<path fill="#444444" d="M0 44c0 2.21 1.79 4 4 4h40c2.21 0 4-1.79 4-4l-0-40c0-2.21-1.79-4-4-4h-40c-2.21 0-4 1.79-4 4v40zM39 35.5c0 1.38-1.12 2.5-2.5 2.5s-2.5-1.12-2.5-2.5c0-11.32-9.181-20.5-20.5-20.5-1.38 0-2.5-1.12-2.5-2.5s1.12-2.5 2.5-2.5c7.42 0 13.51 2.56 18.29 7.34 4.899 4.9 7.21 10.98 7.21 18.16zM30 35.5c0 1.38-1.12 2.5-2.5 2.5s-2.5-1.12-2.5-2.5c0-6.35-5.15-11.5-11.5-11.5-1.38 0-2.5-1.12-2.5-2.5s1.12-2.5 2.5-2.5c9.11 0 16.5 7.391 16.5 16.5zM11 33.5c0-2.49 2.010-4.5 4.5-4.5s4.5 2.010 4.5 4.5-2.010 4.5-4.5 4.5-4.5-2.010-4.5-4.5z"></path>
</svg>
