<?xml version="1.0" encoding="utf-8"?>
<!-- Generated by IcoMoon.io -->
<!DOCTYPE svg PUBLIC "-//W3C//DTD SVG 1.1//EN" "http://www.w3.org/Graphics/SVG/1.1/DTD/svg11.dtd">
<svg version="1.1" xmlns="http://www.w3.org/2000/svg" xmlns:xlink="http://www.w3.org/1999/xlink" width="24" height="24" viewBox="0 0 24 24">
<path fill="#444444" d="M6 16h-2c-1.104 0-2 0.896-2 2v2c0 1.104 0.896 2 2 2h2c1.104 0 2-0.896 2-2v-2c0-1.104-0.896-2-2-2zM6 20h-2v-2h2v2z"></path>
<path fill="#444444" d="M6 9h-2c-1.104 0-2 0.896-2 2v2c0 1.104 0.896 2 2 2h2c1.104 0 2-0.896 2-2v-2c0-1.104-0.896-2-2-2zM6 13h-2v-2h2v2z"></path>
<path fill="#444444" d="M6 2h-2c-1.104 0-2 0.896-2 2v2c0 1.104 0.896 2 2 2h2c1.104 0 2-0.896 2-2v-2c0-1.104-0.896-2-2-2zM6 6h-2v-2h2v2z"></path>
<path fill="#444444" d="M13 16h-2c-1.104 0-2 0.896-2 2v2c0 1.104 0.896 2 2 2h2c1.104 0 2-0.896 2-2v-2c0-1.104-0.896-2-2-2zM13 20h-2v-2h2v2z"></path>
<path fill="#444444" d="M13 9h-2c-1.104 0-2 0.896-2 2v2c0 1.104 0.896 2 2 2h2c1.104 0 2-0.896 2-2v-2c0-1.104-0.896-2-2-2zM13 13h-2v-2h2v2z"></path>
<path fill="#444444" d="M13 2h-2c-1.104 0-2 0.896-2 2v2c0 1.104 0.896 2 2 2h2c1.104 0 2-0.896 2-2v-2c0-1.104-0.896-2-2-2zM13 6h-2v-2h2v2z"></path>
<path fill="#444444" d="M20 16h-2c-1.104 0-2 0.896-2 2v2c0 1.104 0.896 2 2 2h2c1.104 0 2-0.896 2-2v-2c0-1.104-0.896-2-2-2zM20 20h-2v-2h2v2z"></path>
<path fill="#444444" d="M20 9h-2c-1.104 0-2 0.896-2 2v2c0 1.104 0.896 2 2 2h2c1.104 0 2-0.896 2-2v-2c0-1.104-0.896-2-2-2zM20 13h-2v-2h2v2z"></path>
<path fill="#444444" d="M20 2h-2c-1.104 0-2 0.896-2 2v2c0 1.104 0.896 2 2 2h2c1.104 0 2-0.896 2-2v-2c0-1.104-0.896-2-2-2zM20 6h-2v-2h2v2z"></path>
</svg>
