<?xml version="1.0" encoding="utf-8"?>
<!-- Generated by IcoMoon.io -->
<!DOCTYPE svg PUBLIC "-//W3C//DTD SVG 1.1//EN" "http://www.w3.org/Graphics/SVG/1.1/DTD/svg11.dtd">
<svg version="1.1" xmlns="http://www.w3.org/2000/svg" xmlns:xlink="http://www.w3.org/1999/xlink" width="32" height="32" viewBox="0 0 32 32">
<path fill="#444444" d="M31.467 8.267l-7.733-7.733c-0.711-0.711-1.866-0.711-2.577 0l-7.733 7.733c-0.713 0.711-0.713 1.866 0 2.579l1.288 1.288 7.733-7.733 5.156 5.156-7.733 7.733 1.29 1.29c0.711 0.711 1.866 0.711 2.577 0l7.733-7.733c0.711-0.713 0.711-1.868 0-2.579zM17.29 19.867l-7.733 7.733-5.156-5.156 7.733-7.733-1.29-1.29c-0.711-0.711-1.866-0.711-2.577 0l-7.733 7.733c-0.711 0.713-0.711 1.868 0 2.579l7.733 7.733c0.711 0.711 1.866 0.711 2.577 0l7.733-7.733c0.713-0.711 0.713-1.866 0-2.579l-1.288-1.288zM10.844 21.154c0.713 0.713 1.866 0.713 2.579 0l7.733-7.733c0.711-0.711 0.711-1.864 0-2.575-0.713-0.713-1.866-0.713-2.579 0l-7.733 7.733c-0.711 0.711-0.711 1.864 0 2.575z"></path>
</svg>
