<?xml version="1.0" encoding="UTF-8"?>
<!DOCTYPE svg PUBLIC "-//W3C//DTD SVG 1.1//EN" "http://www.w3.org/Graphics/SVG/1.1/DTD/svg11.dtd">
<!-- Creator: CorelDRAW X8 -->
<svg xmlns="http://www.w3.org/2000/svg" xml:space="preserve" width="2.11453in" height="1.19772in" version="1.1" style="shape-rendering:geometricPrecision; text-rendering:geometricPrecision; image-rendering:optimizeQuality; fill-rule:evenodd; clip-rule:evenodd"
viewBox="0 0 43364 24562"
 xmlns:xlink="http://www.w3.org/1999/xlink">
 <defs>
  <style type="text/css">
   <![CDATA[
    .fil0 {fill:black}
   ]]>
  </style>
 </defs>
 <g id="Layer_x0020_1">
  <metadata id="CorelCorpID_0Corel-Layer"/>
  <path class="fil0" d="M32950 17299l0 -10147c0,-867 4183,-888 4183,89l0 10147c0,961 -4183,924 -4183,-89zm-6765 -11482l0 623 -6853 0c-732,0 -1271,498 -1424,1157 -3679,0 -7358,0 -11037,0 -2407,0 -4636,-142 -6127,2151 -868,1335 -1007,3271 -254,4675 715,1333 2235,2520 3978,2520 574,0 1606,98 1935,-202 435,-395 290,-1601 290,-2380l1157 0 0 1336c0,588 657,1246 1246,1246 3017,0 2848,325 2848,-2582l1157 0c0,867 -147,1821 479,2280 344,252 633,309 1210,304 1038,-9 2079,-2 3118,-2 160,334 457,979 1157,979l7120 0c0,1327 605,1739 1602,2403 751,500 1477,984 2243,1495 772,514 1463,975 2243,1495 2929,1953 2525,1711 7049,-1424l3258 -2171c438,-291 784,-370 784,-1086l0 -12283c0,-1091 -905,-1642 -1567,-2083 -1103,-735 -5890,-4142 -6784,-4255 -900,-113 -1584,530 -2419,1086l-5555 3703c-358,236 -854,484 -854,1015z"/>
 </g>
</svg>
