<?xml version="1.0" encoding="utf-8"?>
<!-- Generated by IcoMoon.io -->
<!DOCTYPE svg PUBLIC "-//W3C//DTD SVG 1.1//EN" "http://www.w3.org/Graphics/SVG/1.1/DTD/svg11.dtd">
<svg version="1.1" xmlns="http://www.w3.org/2000/svg" xmlns:xlink="http://www.w3.org/1999/xlink" width="24" height="24" viewBox="0 0 24 24">
<path fill="#444444" d="M8 16.184v-0.684c0-0.848 0.512-1.595 1.287-2.047-0.667-0.282-1.279-0.667-1.822-1.131-0.904 0.814-1.465 1.938-1.465 3.178v0.684c-1.161 0.415-2 1.514-2 2.816 0 1.654 1.346 3 3 3s3-1.346 3-3c0-1.302-0.839-2.401-2-2.816zM7 20c-0.552 0-1-0.449-1-1s0.448-1 1-1 1 0.449 1 1-0.448 1-1 1z"></path>
<path fill="#444444" d="M16 7.815v0.351c0 0.985-0.535 1.852-1.345 2.36 0.665 0.274 1.279 0.646 1.823 1.1 0.936-0.878 1.522-2.102 1.522-3.459v-0.351c1.161-0.415 2-1.514 2-2.816 0-1.654-1.346-3-3-3s-3 1.346-3 3c0 1.302 0.839 2.401 2 2.815zM17 4c0.552 0 1 0.449 1 1s-0.448 1-1 1-1-0.449-1-1 0.448-1 1-1z"></path>
<path fill="#444444" d="M17.935 16.164c-0.41-2.913-2.911-5.164-5.935-5.164-1.936 0-3.552-1.381-3.92-3.209 1.12-0.436 1.92-1.519 1.92-2.791 0-1.654-1.346-3-3-3s-3 1.346-3 3c0 1.326 0.87 2.44 2.065 2.836 0.41 2.913 2.911 5.164 5.935 5.164 1.936 0 3.552 1.381 3.92 3.209-1.12 0.436-1.92 1.519-1.92 2.791 0 1.654 1.346 3 3 3s3-1.346 3-3c0-1.326-0.87-2.44-2.065-2.836zM7 4c0.552 0 1 0.449 1 1s-0.448 1-1 1-1-0.449-1-1 0.448-1 1-1zM17 20c-0.552 0-1-0.449-1-1s0.448-1 1-1 1 0.449 1 1-0.448 1-1 1z"></path>
</svg>
