<?xml version="1.0" encoding="utf-8"?>
<!-- Generated by IcoMoon.io -->
<!DOCTYPE svg PUBLIC "-//W3C//DTD SVG 1.1//EN" "http://www.w3.org/Graphics/SVG/1.1/DTD/svg11.dtd">
<svg version="1.1" xmlns="http://www.w3.org/2000/svg" xmlns:xlink="http://www.w3.org/1999/xlink" width="32" height="32" viewBox="0 0 32 32">
<path fill="#444444" d="M16 32c8.822 0 16-7.178 16-16s-7.178-16-16-16-16 7.178-16 16 7.178 16 16 16zM16 1c8.271 0 15 6.729 15 15s-6.729 15-15 15-15-6.729-15-15 6.729-15 15-15zM10.734 13.646c0.507 0.165 1.034 0.089 1.531-0.222 0.233-0.146 0.305-0.455 0.158-0.689s-0.454-0.305-0.689-0.158c-0.241 0.15-0.473 0.188-0.688 0.119-0.229-0.075-0.445-0.268-0.626-0.558-0.162-0.258-0.214-0.564-0.146-0.861 0.069-0.298 0.249-0.55 0.508-0.712 0.618-0.39 1.422-0.167 1.943 0.224 0.881 0.659 1.275 1.805 1.275 3.711 0 2.814-1.28 6.313-3.727 7.554-0.246 0.125-0.345 0.426-0.22 0.673 0.090 0.173 0.265 0.273 0.447 0.273 0.076 0 0.153-0.018 0.227-0.054 2.935-1.489 4.273-5.423 4.273-8.446 0-2.222-0.532-3.655-1.675-4.512-0.952-0.717-2.188-0.824-3.073-0.271-0.485 0.303-0.823 0.777-0.951 1.335s-0.032 1.132 0.271 1.616c0.307 0.49 0.708 0.828 1.162 0.978zM18.734 13.646c0.506 0.165 1.034 0.089 1.531-0.222 0.233-0.146 0.305-0.455 0.158-0.689s-0.454-0.305-0.689-0.158c-0.24 0.15-0.473 0.188-0.688 0.119-0.229-0.075-0.445-0.268-0.626-0.558-0.162-0.258-0.214-0.564-0.146-0.861 0.069-0.298 0.249-0.55 0.508-0.712 0.619-0.39 1.423-0.167 1.943 0.224 0.881 0.659 1.275 1.805 1.275 3.711 0 2.814-1.28 6.313-3.727 7.554-0.246 0.125-0.345 0.426-0.22 0.673 0.090 0.173 0.265 0.273 0.447 0.273 0.076 0 0.153-0.018 0.227-0.054 2.935-1.489 4.273-5.423 4.273-8.446 0-2.222-0.532-3.655-1.675-4.512-0.952-0.717-2.188-0.824-3.073-0.271-0.485 0.303-0.823 0.777-0.951 1.335-0.129 0.558-0.032 1.132 0.271 1.616 0.307 0.49 0.708 0.828 1.162 0.978z"></path>
</svg>
