<?xml version="1.0" encoding="utf-8"?>
<!-- Generated by IcoMoon.io -->
<!DOCTYPE svg PUBLIC "-//W3C//DTD SVG 1.1//EN" "http://www.w3.org/Graphics/SVG/1.1/DTD/svg11.dtd">
<svg version="1.1" xmlns="http://www.w3.org/2000/svg" xmlns:xlink="http://www.w3.org/1999/xlink" width="24" height="24" viewBox="0 0 24 24">
<path fill="#444444" d="M20.177 3.823c-0.382-0.383-0.894-0.586-1.415-0.586-0.25 0-0.503 0.047-0.744 0.144-4.449 1.787-7.792 4.76-10.517 9.357-0.102 0.172-0.163 0.355-0.209 0.542-1.38 0.215-2.6 0.903-3.442 1.993-0.916 1.185-1.295 2.695-1.066 4.254l0.216 1.473 1.473 0.217c0.293 0.043 0.589 0.064 0.88 0.064 2.743 0 4.949-1.909 5.367-4.564 0.188-0.047 0.371-0.115 0.544-0.218 4.598-2.728 7.571-6.069 9.355-10.517 0.298-0.743 0.123-1.593-0.442-2.159zM5.353 19.281c-0.192 0-0.389-0.016-0.59-0.044-0.309-2.104 1.055-3.81 3-4.021l1.021 1.021c-0.192 1.76-1.605 3.044-3.431 3.044zM10.243 14.779l-1.021-1.021c0.38-0.641 0.774-1.233 1.178-1.804 0.027 0.041 1.639 1.653 1.639 1.653-0.568 0.401-1.158 0.794-1.796 1.172zM12.851 13.006c0 0-1.821-1.801-1.879-1.824 2.147-2.784 4.651-4.685 7.791-5.943-1.255 3.127-3.144 5.623-5.912 7.767z"></path>
</svg>
