<?xml version="1.0" encoding="utf-8"?>
<!-- Generated by IcoMoon.io -->
<!DOCTYPE svg PUBLIC "-//W3C//DTD SVG 1.1//EN" "http://www.w3.org/Graphics/SVG/1.1/DTD/svg11.dtd">
<svg version="1.1" xmlns="http://www.w3.org/2000/svg" xmlns:xlink="http://www.w3.org/1999/xlink" width="24" height="24" viewBox="0 0 24 24">
<path fill="#444444" d="M12 19.654l-0.035 0.043-7.965-10.197c-0.363-0.458-1-1.011-1-2.268 0-2.206 1.795-4 4-4 2.206 0 5 1.794 5 4v-3.313c-1.075-1.618-2.915-2.687-5-2.687-3.309 0-6 2.691-6 6 0 2.056 1 3 1.258 3.669l9.742 11.822v-3.069zM12 19.654l0.035 0.043 7.965-10.197c0.363-0.458 1-1.011 1-2.268 0-2.206-1.795-4-4-4s-5 1.794-5 4v-3.313c1.076-1.618 2.916-2.687 5-2.687 3.309 0 6 2.691 6 6 0 2.056-1 3-1.258 3.669l-9.742 11.822v-3.069z"></path>
</svg>
