<?xml version="1.0" encoding="utf-8"?>
<!-- Generated by IcoMoon.io -->
<!DOCTYPE svg PUBLIC "-//W3C//DTD SVG 1.1//EN" "http://www.w3.org/Graphics/SVG/1.1/DTD/svg11.dtd">
<svg version="1.1" xmlns="http://www.w3.org/2000/svg" xmlns:xlink="http://www.w3.org/1999/xlink" width="24" height="24" viewBox="0 0 24 24">
<path fill="#444444" d="M15 3h-7c-1.654 0-3 1.346-3 3v12c0 1.654 1.346 3 3 3h7c1.654 0 3-1.346 3-3v-12c0-1.654-1.346-3-3-3zM16 18c0 0.551-0.449 1-1 1h-7c-0.551 0-1-0.449-1-1v-12c0-0.551 0.449-1 1-1h7c0.551 0 1 0.449 1 1v12z"></path>
<path fill="#444444" d="M14 6h-5c-0.55 0-1 0.45-1 1v9c0 0.55 0.45 1 1 1h1.5c0 0.553 0.448 1 1 1s1-0.447 1-1h1.5c0.55 0 1-0.45 1-1v-9c0-0.55-0.45-1-1-1zM14 16h-5v-9h5v9z"></path>
</svg>
