<?xml version="1.0" encoding="utf-8"?>
<!-- Generated by IcoMoon.io -->
<!DOCTYPE svg PUBLIC "-//W3C//DTD SVG 1.1//EN" "http://www.w3.org/Graphics/SVG/1.1/DTD/svg11.dtd">
<svg version="1.1" xmlns="http://www.w3.org/2000/svg" xmlns:xlink="http://www.w3.org/1999/xlink" width="24" height="24" viewBox="0 0 24 24">
<path fill="#444444" d="M18 4h-10c-1.104 0-2 0.896-2 2v2h-1c-1.104 0-2 0.896-2 2v9c0 1.104 0.896 2 2 2h9c1.104 0 2-0.896 2-2v-1h2c1.104 0 2-0.896 2-2v-10c0-1.104-0.896-2-2-2zM5 19v-9h8.5c0.275 0 0.5 0.225 0.5 0.5v8.5h-9zM18 16h-3v-5.5c0-0.827-0.673-1.5-1.5-1.5h-5.5v-3h10v10z"></path>
</svg>
