<?xml version="1.0" encoding="utf-8"?>
<!-- Generated by IcoMoon.io -->
<!DOCTYPE svg PUBLIC "-//W3C//DTD SVG 1.1//EN" "http://www.w3.org/Graphics/SVG/1.1/DTD/svg11.dtd">
<svg version="1.1" xmlns="http://www.w3.org/2000/svg" xmlns:xlink="http://www.w3.org/1999/xlink" width="24" height="24" viewBox="0 0 24 24">
<path fill="#444444" d="M14.377 15.59v-1.234c-0.399 0.268-0.788 0.4-1.166 0.4-0.178 0-0.377-0.057-0.6-0.166-0.134-0.090-0.211-0.189-0.234-0.301-0.066-0.133-0.1-0.422-0.1-0.867v-1.966h1.834v-1.233h-1.834v-1.967h-1.066c-0.089 0.467-0.178 0.8-0.267 1-0.11 0.244-0.288 0.467-0.533 0.666-0.245 0.201-0.5 0.345-0.767 0.434v1.101h0.833v2.7c0 0.311 0.044 0.576 0.134 0.799 0.066 0.178 0.199 0.355 0.4 0.533 0.154 0.156 0.377 0.289 0.666 0.4 0.355 0.090 0.666 0.133 0.934 0.133 0.311 0 0.6-0.033 0.866-0.1 0.312-0.067 0.612-0.178 0.9-0.332z"></path>
<path fill="#444444" d="M12 21c-4.963 0-9-4.037-9-9s4.037-9 9-9 9 4.037 9 9-4.037 9-9 9zM12 5c-3.859 0-7 3.141-7 7s3.141 7 7 7 7-3.141 7-7-3.141-7-7-7z"></path>
</svg>
