<?xml version="1.0" encoding="utf-8"?>
<!-- Generated by IcoMoon.io -->
<!DOCTYPE svg PUBLIC "-//W3C//DTD SVG 1.1//EN" "http://www.w3.org/Graphics/SVG/1.1/DTD/svg11.dtd">
<svg version="1.1" xmlns="http://www.w3.org/2000/svg" xmlns:xlink="http://www.w3.org/1999/xlink" width="56" height="32" viewBox="0 0 56 32">
<path fill="#444444" d="M45.5 11c-1.924 0-3.723 0.529-5.276 1.436l-6.801-10.436h9.599c-0.013 0.498-0.129 1.331-0.699 1.986-0.587 0.673-1.536 1.014-2.823 1.014-0.276 0-0.5 0.224-0.5 0.5s0.224 0.5 0.5 0.5c1.589 0 2.792-0.456 3.576-1.356 1.163-1.336 0.93-3.136 0.919-3.212-0.034-0.247-0.245-0.432-0.495-0.432h-11c-0.184 0-0.353 0.101-0.439 0.262-0.088 0.161-0.080 0.357 0.021 0.512l2.831 4.344h-15.865l-3.083-5.118h5.535c0.276 0 0.5-0.224 0.5-0.5s-0.224-0.5-0.5-0.5h-9c-0.276 0-0.5 0.224-0.5 0.5s0.224 0.5 0.5 0.5h2.314c0.010 0.023 0.012 0.048 0.025 0.070l3.412 5.662-3.054 5.39c-1.415-0.711-3.007-1.122-4.697-1.122-5.79 0-10.5 4.71-10.5 10.5s4.71 10.5 10.5 10.5c5.588 0 10.157-4.391 10.42-10h11.080c0.029 0.579-0.096 1.368-0.644 1.989-0.592 0.671-1.553 1.011-2.856 1.011-0.276 0-0.5 0.224-0.5 0.5s0.224 0.5 0.5 0.5c1.608 0 2.824-0.457 3.614-1.358 1.142-1.304 0.927-3.036 0.918-3.109-0.033-0.249-0.245-0.435-0.496-0.435h-3.928l7.047-13.84 3.73 5.724c-2.65 1.907-4.385 5.010-4.385 8.518 0 5.79 4.71 10.5 10.5 10.5s10.5-4.71 10.5-10.5-4.71-10.5-10.5-10.5zM34.605 7l-6.848 13.568-8.106-13.568h14.954zM18.843 7.715l8.065 13.383h-5.928c-0.136-3.575-2.062-6.692-4.912-8.484l2.775-4.899zM19.98 21.098h-8.719l4.314-7.615c2.548 1.619 4.269 4.412 4.405 7.615zM10.5 31c-5.238 0-9.5-4.262-9.5-9.5s4.262-9.5 9.5-9.5c1.51 0 2.934 0.364 4.204 0.993l-4.736 8.358c-0.088 0.154-0.087 0.344 0.003 0.498 0.089 0.153 0.254 0.248 0.432 0.15h9.567c-0.311 5.058-4.433 9.001-9.47 9.001zM45.5 31c-5.238 0-9.5-4.262-9.5-9.5 0-3.157 1.554-5.952 3.932-7.68l5.247 8.051c0.096 0.146 0.256 0.227 0.419 0.227 0.094 0 0.188-0.026 0.273-0.081 0.23-0.15 0.296-0.461 0.146-0.692l-5.247-8.051c1.395-0.806 3.007-1.274 4.73-1.274 5.238 0 9.5 4.262 9.5 9.5s-4.262 9.5-9.5 9.5z"></path>
</svg>
