<?xml version="1.0" encoding="utf-8"?>
<!-- Generated by IcoMoon.io -->
<!DOCTYPE svg PUBLIC "-//W3C//DTD SVG 1.1//EN" "http://www.w3.org/Graphics/SVG/1.1/DTD/svg11.dtd">
<svg version="1.1" xmlns="http://www.w3.org/2000/svg" xmlns:xlink="http://www.w3.org/1999/xlink" width="24" height="24" viewBox="0 0 24 24">
<path fill="#444444" d="M18.364 23.523c-0.379 0.002-0.777-0.107-1.184-0.322l-3.876-2.037c-0.648-0.342-1.96-0.342-2.61 0l-3.874 2.037c-0.97 0.51-1.941 0.389-2.494-0.266-0.267-0.316-0.551-0.891-0.39-1.828l0.74-4.316c0.13-0.76-0.255-1.943-0.807-2.482l-3.137-3.056c-0.657-0.643-0.905-1.406-0.681-2.096 0.225-0.689 0.875-1.161 1.785-1.293l4.332-0.63c0.764-0.111 1.771-0.842 2.111-1.533l1.939-3.928c0.407-0.824 1.056-1.296 1.782-1.296s1.375 0.473 1.781 1.297l1.939 3.928c0.341 0.691 1.348 1.422 2.111 1.533l4.332 0.63c0.91 0.132 1.561 0.604 1.785 1.293s-0.024 1.453-0.683 2.096l-3.137 3.056c-0.552 0.539-0.937 1.723-0.807 2.482l0.74 4.316c0.161 0.938-0.123 1.512-0.39 1.826-0.317 0.38-0.783 0.589-1.307 0.589zM12 18.895c0.83 0 1.624 0.178 2.235 0.5l3.853 2.025-0.735-4.291c-0.243-1.418 0.351-3.246 1.381-4.252l3.118-3.037-4.307-0.627c-1.426-0.207-2.981-1.336-3.617-2.627l-1.928-3.903-1.928 3.903c-0.636 1.291-2.191 2.42-3.617 2.627l-4.307 0.627 3.118 3.037c1.030 1.006 1.624 2.834 1.381 4.252l-0.735 4.291 3.852-2.025c0.612-0.323 1.406-0.5 2.236-0.5z"></path>
</svg>
