<?xml version="1.0" encoding="utf-8"?>
<!-- Generated by IcoMoon.io -->
<!DOCTYPE svg PUBLIC "-//W3C//DTD SVG 1.1//EN" "http://www.w3.org/Graphics/SVG/1.1/DTD/svg11.dtd">
<svg version="1.1" xmlns="http://www.w3.org/2000/svg" xmlns:xlink="http://www.w3.org/1999/xlink" width="39" height="32" viewBox="0 0 39 32">
<path fill="#444444" d="M19.5 4.25c-10.77 0-19.5 5.261-19.5 11.75s8.73 11.75 19.5 11.75 19.5-5.261 19.5-11.75-8.73-11.75-19.5-11.75zM30.555 23.53c0 0.062 1.951-2.357 0.39-3.981-1.874-2.124-5.116 1.056-5.116 1.056-2.562-5.059-6.424 3.145-6.424 3.145s-3.348-7.731-6.221-3.047c0.062 0-2.383-2.793-4.819-1.481-1.749 1.749 0 4.091 0 4.091-9.119-3.186-9.712-12.492 2.952-16.286-3.576 4.481 6.59 10.649 5.84-0.344l2.155 1.89c0 0 2.171-1.796 2.171-1.921-0.25 10.993 9.369 4.544 6.121 0.484 11.429 3.308 13.381 11.21 2.951 16.394z"></path>
</svg>
