<?xml version="1.0" encoding="utf-8"?>
<!-- Generated by IcoMoon.io -->
<!DOCTYPE svg PUBLIC "-//W3C//DTD SVG 1.1//EN" "http://www.w3.org/Graphics/SVG/1.1/DTD/svg11.dtd">
<svg version="1.1" xmlns="http://www.w3.org/2000/svg" xmlns:xlink="http://www.w3.org/1999/xlink" width="32" height="32" viewBox="0 0 32 32">
<path fill="#444444" d="M12.148 2.666l-3.063 4.555c-0.154 0.229-0.093 0.54 0.136 0.694s0.54 0.093 0.694-0.136l3.081-4.583c0.82-1.417 1.888-2.196 3.004-2.196s2.184 0.779 3.003 2.194l5.514 9.6-3.92-0.784c-0.273-0.057-0.535 0.121-0.588 0.393s0.122 0.534 0.392 0.588l5 1c0.034 0.006 0.067 0.009 0.099 0.009 0.079 0 0.153-0.025 0.221-0.059 0.009-0.004 0.019-0.002 0.028-0.007 0.010-0.006 0.016-0.016 0.026-0.023 0.033-0.022 0.062-0.048 0.089-0.078 0.016-0.017 0.032-0.032 0.045-0.051 0.021-0.031 0.035-0.065 0.049-0.1 0.009-0.023 0.021-0.044 0.026-0.068 0.001-0.006 0.005-0.010 0.006-0.016l1-5c0.054-0.271-0.122-0.534-0.392-0.588-0.273-0.057-0.535 0.121-0.588 0.393l-0.739 3.695-5.401-9.404c-1.008-1.737-2.382-2.694-3.87-2.694s-2.862 0.957-3.852 2.666zM10 28.519c0-0.276-0.224-0.5-0.5-0.5h-4.499c-1.547-0.003-2.784-0.609-3.392-1.664-0.648-1.123-0.539-2.604 0.3-4.063l5.512-9.644 1.615 4.039c0.078 0.194 0.266 0.313 0.464 0.313 0.062 0 0.125-0.012 0.186-0.036 0.256-0.103 0.381-0.394 0.279-0.649l-2-5c-0.010-0.026-0.028-0.045-0.042-0.068-0.013-0.021-0.022-0.042-0.038-0.062-0.035-0.042-0.075-0.075-0.119-0.103-0.007-0.005-0.011-0.012-0.018-0.016-0.001-0.001-0.002 0-0.003-0.001-0.056-0.032-0.117-0.051-0.182-0.059-0.011-0.001-0.021 0.002-0.032 0.001-0.043-0.003-0.085-0.006-0.129 0.004l-5 1c-0.271 0.054-0.446 0.317-0.392 0.588s0.313 0.447 0.588 0.393l3.922-0.784-5.48 9.588c-1.021 1.775-1.129 3.62-0.298 5.061 0.792 1.371 2.343 2.16 4.257 2.164h4.5c0.277-0.002 0.501-0.226 0.501-0.502zM31.264 26.846c0.823-1.426 0.712-3.258-0.281-4.98l-2.025-4.568c-0.112-0.252-0.407-0.368-0.66-0.254-0.252 0.112-0.366 0.407-0.254 0.66l2.049 4.614c0.834 1.452 0.946 2.92 0.306 4.028-0.605 1.049-1.844 1.651-3.399 1.654l-10.31 0.017 2.163-2.163c0.195-0.195 0.195-0.512 0-0.707s-0.512-0.195-0.707 0l-3 3c-0.1 0.1-0.147 0.232-0.145 0.363 0 0.003-0.002 0.006-0.002 0.010 0 0.162 0.083 0.3 0.204 0.391l2.943 2.943c0.098 0.097 0.226 0.146 0.354 0.146s0.256-0.049 0.354-0.146c0.195-0.195 0.195-0.512 0-0.707l-2.13-2.13 10.277-0.017c1.92-0.004 3.474-0.789 4.263-2.154z"></path>
</svg>
