<?xml version="1.0" encoding="utf-8"?>
<!-- Generated by IcoMoon.io -->
<!DOCTYPE svg PUBLIC "-//W3C//DTD SVG 1.1//EN" "http://www.w3.org/Graphics/SVG/1.1/DTD/svg11.dtd">
<svg version="1.1" xmlns="http://www.w3.org/2000/svg" xmlns:xlink="http://www.w3.org/1999/xlink" width="24" height="24" viewBox="0 0 24 24">
<path fill="#444444" d="M12.5 5.5c-0.276 0-0.5 0.224-0.5 0.5s0.224 0.5 0.5 0.5c1.083 0 1.964 0.881 1.964 1.964 0 0.276 0.224 0.5 0.5 0.5s0.5-0.224 0.5-0.5c0-1.634-1.33-2.964-2.964-2.964z"></path>
<path fill="#444444" d="M12.5 1c-4.136 0-7.5 3.364-7.5 7.5 0 1.486 0.44 2.922 1.274 4.165 0.023 0.047 0.049 0.092 0.080 0.135 1.825 2.606 2.146 3.43 2.146 4.2v3c0 0.552 0.448 1 1 1h2c0 0.26 0.11 0.52 0.29 0.71 0.19 0.18 0.45 0.29 0.71 0.29s0.52-0.11 0.71-0.29c0.18-0.19 0.29-0.45 0.29-0.71h2c0.552 0 1-0.448 1-1v-3c0-0.782 0.319-1.61 2.132-4.199 0.895-1.275 1.368-2.762 1.368-4.301 0-4.136-3.364-7.5-7.5-7.5zM14.5 19h-4v-1h4v1zM16.995 11.653c-1.466 2.093-2.143 3.289-2.385 4.347h-1.11v-2c0-0.552-0.448-1-1-1s-1 0.448-1 1v2h-1.113c-0.24-1.030-0.898-2.2-2.306-4.22-0.022-0.044-0.048-0.087-0.077-0.129-0.657-0.934-1.004-2.024-1.004-3.151 0-3.033 2.467-5.5 5.5-5.5s5.5 2.467 5.5 5.5c0 1.126-0.347 2.216-1.005 3.153z"></path>
</svg>
