<?xml version="1.0" encoding="utf-8"?>
<!-- Generated by IcoMoon.io -->
<!DOCTYPE svg PUBLIC "-//W3C//DTD SVG 1.1//EN" "http://www.w3.org/Graphics/SVG/1.1/DTD/svg11.dtd">
<svg version="1.1" xmlns="http://www.w3.org/2000/svg" xmlns:xlink="http://www.w3.org/1999/xlink" width="24" height="24" viewBox="0 0 24 24">
<path fill="#444444" d="M17 5c-0.755 0-1.438 0.289-1.965 0.751-0.064-0.062-0.116-0.14-0.188-0.192-0.96-0.737-3.665-1.559-5.847-1.559-1.879 0-2.607 0.293-3.252 0.552-0.103 0.042-0.207 0.085-0.316 0.124-0.834 0.305-1.578 1.229-1.738 2.2l-0.664 5.972c-0.174 1.039 0.441 2.127 1.4 2.478 0.394 0.144 2.512 0.405 3.883 0.56-0.215 1.256-0.312 2.405-0.312 3.616 0 1.379 1.121 2.5 2.5 2.5s2.5-1.121 2.5-2.5c0-1.875 0.667-2.737 1.616-3.699 0.548 0.724 1.408 1.199 2.384 1.199 1.653 0 2.999-1.347 2.999-3v-6c-0.001-1.656-1.346-3.002-3-3.002zM11 19.5c0 0.275-0.225 0.5-0.5 0.5s-0.5-0.225-0.5-0.5c0-1.805 0.256-3.241 0.479-4.293l0.297-1.398-1.321 0.188c-0.605-0.050-3.934-0.447-4.335-0.552-0.058-0.028-0.132-0.18-0.108-0.321l0.663-5.976c0.037-0.223 0.291-0.539 0.443-0.594 0.131-0.049 0.254-0.099 0.377-0.146 0.544-0.219 1.015-0.408 2.506-0.408 1.914 0 4.118 0.753 4.633 1.146 0.156 0.12 0.366 0.564 0.366 0.854v4.977c-0.001 0.026-0.040 0.649-0.707 1.316-0.913 0.913-2.293 2.293-2.293 5.207zM18 14c0 0.552-0.448 1-1 1s-1-0.448-1-1v-6c0-0.552 0.448-1 1-1s1 0.448 1 1v6z"></path>
</svg>
