<?xml version="1.0" encoding="utf-8"?>
<!-- Generated by IcoMoon.io -->
<!DOCTYPE svg PUBLIC "-//W3C//DTD SVG 1.1//EN" "http://www.w3.org/Graphics/SVG/1.1/DTD/svg11.dtd">
<svg version="1.1" xmlns="http://www.w3.org/2000/svg" xmlns:xlink="http://www.w3.org/1999/xlink" width="32" height="32" viewBox="0 0 32 32">
<path fill="#444444" d="M28 25h-3v-1c0.553 0 1-0.448 1-1 0-0.553-0.447-1-1-1h-2c-0.553 0-1 0.447-1 1 0 0.552 0.447 1 1 1v1h-13v-1c0.553 0 1-0.448 1-1 0-0.553-0.447-1-1-1h-2c-0.553 0-1 0.447-1 1 0 0.552 0.447 1 1 1v1h-4c-1.104 0-2-0.896-2-2v-14c0-1.104 0.896-2 2-2h24c1.104 0 2 0.896 2 2v14c0 1.104-0.896 2-2 2zM10 9.812c-1.208 0-2.188 1.287-2.188 2.875s0.98 2.875 2.188 2.875 2.188-1.287 2.188-2.875-0.98-2.875-2.188-2.875zM13.49 16.688c-0.539-0.359-2.091-0.598-2.091-0.598s-1.006 1.075-1.433 1.075c-0.428 0-1.434-1.075-1.434-1.075s-1.552 0.238-2.090 0.598c-0.539 0.358-0.777 2.261-0.777 2.261h8.615c0.001-0.001-0.157-1.84-0.79-2.261zM26 11h-9v1h9v-1zM26 13h-9v1h9v-1zM26 15h-9v1h9v-1zM26 17h-9v1h9v-1z"></path>
</svg>
