<?xml version="1.0" encoding="UTF-8"?>
<!DOCTYPE svg PUBLIC "-//W3C//DTD SVG 1.1//EN" "http://www.w3.org/Graphics/SVG/1.1/DTD/svg11.dtd">
<!-- Creator: CorelDRAW X8 -->
<svg xmlns="http://www.w3.org/2000/svg" xml:space="preserve" width="1.95511in" height="1.91697in" version="1.1" style="shape-rendering:geometricPrecision; text-rendering:geometricPrecision; image-rendering:optimizeQuality; fill-rule:evenodd; clip-rule:evenodd"
viewBox="0 0 793 777"
 xmlns:xlink="http://www.w3.org/1999/xlink">
 <defs>
  <style type="text/css">
   <![CDATA[
    .fil0 {fill:black}
   ]]>
  </style>
 </defs>
 <g id="Layer_x0020_1">
  <metadata id="CorelCorpID_0Corel-Layer"/>
  <g id="_133149941120">
   <path class="fil0" d="M0 51c0,35 17,39 36,57 17,16 32,29 50,44l246 219c35,27 29,37 73,37 19,0 85,-62 105,-81l49 -44c17,-16 32,-28 50,-43l148 -132c19,-18 36,-24 36,-60 0,-31 -43,-65 -81,-39l-42 35c-9,8 -12,13 -22,20 -8,7 -11,11 -20,19l-166 147c-10,10 -58,53 -67,56l-166 -146c-9,-7 -12,-12 -20,-19l-63 -55c-23,-17 -63,-66 -91,-66 -30,0 -55,21 -55,51z"/>
   <path class="fil0" d="M0 421c0,40 55,69 89,103l50 43c10,10 13,13 24,21 10,9 13,14 25,23l172 152c44,37 83,-6 121,-41l74 -67c18,-13 34,-32 51,-45l100 -87c32,-33 87,-65 87,-102 0,-32 -23,-52 -58,-52 -21,0 -71,48 -89,65l-228 202c-9,10 -13,12 -23,19l-288 -255c-20,-16 -27,-31 -56,-31 -29,0 -51,23 -51,52z"/>
  </g>
 </g>
</svg>
