<?xml version="1.0" encoding="utf-8"?>
<!-- Generated by IcoMoon.io -->
<!DOCTYPE svg PUBLIC "-//W3C//DTD SVG 1.1//EN" "http://www.w3.org/Graphics/SVG/1.1/DTD/svg11.dtd">
<svg version="1.1" xmlns="http://www.w3.org/2000/svg" xmlns:xlink="http://www.w3.org/1999/xlink" width="24" height="24" viewBox="0 0 24 24">
<path fill="#444444" d="M4 9h3.5c0.736 0 1.393 0.391 1.851 1.001 0.325-0.604 0.729-1.163 1.191-1.662-0.803-0.823-1.866-1.339-3.042-1.339h-3.5c-0.553 0-1 0.448-1 1s0.447 1 1 1z"></path>
<path fill="#444444" d="M11.685 12.111c0.551-1.657 2.256-3.111 3.649-3.111h1.838l-1.293 1.293c-0.391 0.391-0.391 1.023 0 1.414 0.195 0.195 0.451 0.293 0.707 0.293s0.512-0.098 0.707-0.293l3.707-3.707-3.707-3.707c-0.391-0.391-1.023-0.391-1.414 0s-0.391 1.023 0 1.414l1.293 1.293h-1.838c-2.274 0-4.711 1.967-5.547 4.479l-0.472 1.411c-0.641 1.926-2.072 3.11-2.815 3.11h-2.5c-0.553 0-1 0.448-1 1s0.447 1 1 1h2.5c1.837 0 3.863-1.925 4.713-4.479l0.472-1.41z"></path>
<path fill="#444444" d="M15.879 13.293c-0.391 0.391-0.391 1.023 0 1.414l1.293 1.293h-2.338c-1.268 0-2.33-0.891-2.691-2.108-0.256 0.75-0.627 1.499-1.090 2.185 0.886 1.162 2.243 1.923 3.781 1.923h2.338l-1.293 1.293c-0.391 0.391-0.391 1.023 0 1.414 0.195 0.195 0.451 0.293 0.707 0.293s0.512-0.098 0.707-0.293l3.707-3.707-3.707-3.707c-0.391-0.391-1.023-0.391-1.414 0z"></path>
</svg>
