<?xml version="1.0" encoding="utf-8"?>
<!-- Generated by IcoMoon.io -->
<!DOCTYPE svg PUBLIC "-//W3C//DTD SVG 1.1//EN" "http://www.w3.org/Graphics/SVG/1.1/DTD/svg11.dtd">
<svg version="1.1" xmlns="http://www.w3.org/2000/svg" xmlns:xlink="http://www.w3.org/1999/xlink" width="32" height="32" viewBox="0 0 32 32">
<path fill="#444444" d="M16 4c-6 0-13 4-16 12 3 6 9 10 16 10s13-4 16-10c-3-8-10-12-16-12zM16 24c-6 0-11-4-12-8 1-4 6-8 12-8s11 4 12 8c-1 4-6 8-12 8zM16 10c-0.625 0-1.188 0.125-1.75 0.281 1.031 0.469 1.75 1.5 1.75 2.719 0 1.656-1.344 3-3 3-1.219 0-2.25-0.719-2.719-1.75-0.156 0.563-0.281 1.125-0.281 1.75 0 3.313 2.688 6 6 6s6-2.688 6-6-2.688-6-6-6z"></path>
</svg>
