<?xml version="1.0" encoding="utf-8"?>
<!-- Generated by IcoMoon.io -->
<!DOCTYPE svg PUBLIC "-//W3C//DTD SVG 1.1//EN" "http://www.w3.org/Graphics/SVG/1.1/DTD/svg11.dtd">
<svg version="1.1" xmlns="http://www.w3.org/2000/svg" xmlns:xlink="http://www.w3.org/1999/xlink" width="24" height="24" viewBox="0 0 24 24">
<path fill="#444444" d="M17.568 9.432c0-2.55-0.906-5.592-0.944-5.72-0.128-0.423-0.517-0.712-0.958-0.712h-7.332c-0.441 0-0.83 0.289-0.958 0.712-0.038 0.128-0.944 3.17-0.944 5.72 0 2.735 1.984 5.011 4.587 5.477-0.003 0.030-0.019 0.059-0.019 0.091v4h-1c-0.553 0-1 0.447-1 1s0.447 1 1 1h4c0.553 0 1-0.447 1-1s-0.447-1-1-1h-1v-4c0-0.032-0.016-0.061-0.019-0.092 2.603-0.466 4.587-2.741 4.587-5.476zM12 13c-1.773 0-3.236-1.303-3.511-3h7.021c-0.274 1.697-1.737 3-3.51 3zM8.445 9c0.062-1.468 0.422-3.093 0.653-4h5.803c0.231 0.907 0.591 2.532 0.653 4h-7.109z"></path>
</svg>
