<?xml version="1.0" encoding="utf-8"?>
<!-- Generated by IcoMoon.io -->
<!DOCTYPE svg PUBLIC "-//W3C//DTD SVG 1.1//EN" "http://www.w3.org/Graphics/SVG/1.1/DTD/svg11.dtd">
<svg version="1.1" xmlns="http://www.w3.org/2000/svg" xmlns:xlink="http://www.w3.org/1999/xlink" width="32" height="32" viewBox="0 0 32 32">
<path fill="#444444" d="M28 29h-24c-1.104 0-2-0.896-2-2v-9h4v3h4v-3h12v3h4v-3h4v9c0 1.104-0.896 2-2 2zM23 20v-4h2v4h-2zM7 20v-4h2v4h-2zM26 15h-4v2h-12v-2h-4v2h-4v-7c0-1.104 0.896-2 2-2h24c1.104 0 2 0.896 2 2v7h-4v-2zM19 4.979h-6v2.021h-2v-0.979h1v-3.021h8.021v3h0.979v1h-2v-2.021z"></path>
</svg>
