<?xml version="1.0" encoding="utf-8"?>
<!-- Generated by IcoMoon.io -->
<!DOCTYPE svg PUBLIC "-//W3C//DTD SVG 1.1//EN" "http://www.w3.org/Graphics/SVG/1.1/DTD/svg11.dtd">
<svg version="1.1" xmlns="http://www.w3.org/2000/svg" xmlns:xlink="http://www.w3.org/1999/xlink" width="32" height="32" viewBox="0 0 32 32">
<path fill="#444444" d="M26 23h-2v-2h1v-2h-19v2h1v2h-2c-0.552 0-1-0.448-1-1v-10c0-0.967 4-2 11-2 0.371 0 0.699 0 1 0 6.938 0 11 1.010 11 2v10c0 0.552-0.447 1-1 1zM23.5 13c-0.828 0-1.5 0.672-1.5 1.5s0.672 1.5 1.5 1.5 1.5-0.672 1.5-1.5-0.672-1.5-1.5-1.5zM8 4c0-0.553 0.448-1 1-1h13c0.553 0 1 0.447 1 1v5h-15v-5zM23 29c0 0.552-0.447 1-1 1h-13c-0.552 0-1-0.448-1-1v-9h15v9zM21 21h-11v1h11v-1zM21 23h-11v1h11v-1zM21 25h-11v1h11v-1zM21 27h-11v1h11v-1z"></path>
</svg>
