<?xml version="1.0" encoding="utf-8"?>
<!-- Generated by IcoMoon.io -->
<!DOCTYPE svg PUBLIC "-//W3C//DTD SVG 1.1//EN" "http://www.w3.org/Graphics/SVG/1.1/DTD/svg11.dtd">
<svg version="1.1" xmlns="http://www.w3.org/2000/svg" xmlns:xlink="http://www.w3.org/1999/xlink" width="33" height="32" viewBox="0 0 33 32">
<path fill="#444444" d="M29.963 24.982v-5.947h-2.91v5.969h-3.037v2.953h-7.048v-2.975h7.048v-2.972h-14.991v2.973l6.030 0.021v2.973h-6.051v-2.951h-3.036v-6.010h-2.911v5.947h-3.057v-9.004h2.995v-2.891h2.973v-3.057h3.057v-2.994h2.994v3.003l8.983 0.024v-3.027h2.994v3.036h3.057v2.974h2.953v2.973h3.014v8.982h-3.057zM12.019 13.005h-2.994v2.995h2.994v-2.995zM23.996 13.005h-2.994v2.995h2.994v-2.995zM5.968 4.023h3.057v2.994h-3.057v-2.994zM27.053 4.023v2.994h-3.057v-2.994h3.057z"></path>
</svg>
