<?xml version="1.0" encoding="utf-8"?>
<!-- Generated by IcoMoon.io -->
<!DOCTYPE svg PUBLIC "-//W3C//DTD SVG 1.1//EN" "http://www.w3.org/Graphics/SVG/1.1/DTD/svg11.dtd">
<svg version="1.1" xmlns="http://www.w3.org/2000/svg" xmlns:xlink="http://www.w3.org/1999/xlink" width="34" height="32" viewBox="0 0 34 32">
<path fill="#444444" d="M34 30.5v-19c0-0.276-0.224-0.5-0.5-0.5s-0.5 0.224-0.5 0.5v19c0 0.276-0.224 0.5-0.5 0.5h-31c-0.276 0-0.5-0.224-0.5-0.5v-19c0-0.276-0.224-0.5-0.5-0.5s-0.5 0.224-0.5 0.5v19c0 0.827 0.673 1.5 1.5 1.5h31c0.827 0 1.5-0.673 1.5-1.5zM4.5 23c-0.276 0-0.5 0.224-0.5 0.5s0.224 0.5 0.5 0.5h1.5v3.5c0 0.276 0.224 0.5 0.5 0.5s0.5-0.224 0.5-0.5v-3.5h6v3.5c0 0.276 0.224 0.5 0.5 0.5s0.5-0.224 0.5-0.5v-3.5h6v3.5c0 0.276 0.224 0.5 0.5 0.5s0.5-0.224 0.5-0.5v-3.5h6v3.5c0 0.276 0.224 0.5 0.5 0.5s0.5-0.224 0.5-0.5v-3.5h1.5c0.276 0 0.5-0.224 0.5-0.5s-0.224-0.5-0.5-0.5h-1.5v-5h1.5c0.276 0 0.5-0.224 0.5-0.5s-0.224-0.5-0.5-0.5h-1.5v-4.5c0-0.276-0.224-0.5-0.5-0.5s-0.5 0.224-0.5 0.5v4.5h-6v-4.5c0-0.276-0.224-0.5-0.5-0.5s-0.5 0.224-0.5 0.5v4.5h-6v-4.5c0-0.276-0.224-0.5-0.5-0.5s-0.5 0.224-0.5 0.5v4.5h-6v-4.5c0-0.276-0.224-0.5-0.5-0.5s-0.5 0.224-0.5 0.5v4.5h-1.5c-0.276 0-0.5 0.224-0.5 0.5s0.224 0.5 0.5 0.5h1.5v5h-1.5zM27 18v5h-6v-5h6zM20 18v5h-6v-5h6zM7 18h6v5h-6v-5zM28.5 3h4.25c0.087 0 0.25 0 0.25 0.5v4.5h-32v-4.5c0-0.276 0.224-0.5 0.5-0.5h4c0.276 0 0.5-0.224 0.5-0.5s-0.224-0.5-0.5-0.5h-4c-0.827 0-1.5 0.673-1.5 1.5v5c0 0.276 0.224 0.5 0.5 0.5h33c0.276 0 0.5-0.224 0.5-0.5v-5c0-1.106-0.646-1.5-1.25-1.5h-4.25c-0.276 0-0.5 0.224-0.5 0.5s0.224 0.5 0.5 0.5zM22.5 3c0.276 0 0.5-0.224 0.5-0.5s-0.224-0.5-0.5-0.5h-11c-0.276 0-0.5 0.224-0.5 0.5s0.224 0.5 0.5 0.5h11zM9 4.5v-4c0-0.276-0.224-0.5-0.5-0.5s-0.5 0.224-0.5 0.5v4c0 0.276 0.224 0.5 0.5 0.5s0.5-0.224 0.5-0.5zM25.5 5c0.276 0 0.5-0.224 0.5-0.5v-4c0-0.276-0.224-0.5-0.5-0.5s-0.5 0.224-0.5 0.5v4c0 0.276 0.224 0.5 0.5 0.5z"></path>
</svg>
