<?xml version="1.0" encoding="utf-8"?>
<!-- Generated by IcoMoon.io -->
<!DOCTYPE svg PUBLIC "-//W3C//DTD SVG 1.1//EN" "http://www.w3.org/Graphics/SVG/1.1/DTD/svg11.dtd">
<svg version="1.1" xmlns="http://www.w3.org/2000/svg" xmlns:xlink="http://www.w3.org/1999/xlink" width="32" height="32" viewBox="0 0 32 32">
<path fill="#444444" d="M28 14v-6.5c0-1.933-1.567-3.5-3.5-3.5s-3.5 1.567-3.5 3.5v5.933c2.697 1.676 4.5 4.657 4.5 8.067 0 5.247-4.253 9.5-9.5 9.5s-9.5-4.253-9.5-9.499c0-5.247 4.253-9.5 9.5-9.5 1.050 0 2.056 0.177 3 0.491v-4.992c0-3.037 2.463-5.5 5.5-5.5s5.5 2.463 5.5 5.5v6.5h-2zM16 13.5c-4.418 0-8 3.582-8 8s3.582 7.999 8 7.999 8-3.581 8-7.999c0-4.418-3.582-8-8-8zM16 29c-4.143 0-7.5-3.357-7.5-7.499 0-4.144 3.357-7.501 7.5-7.501s7.5 3.357 7.5 7.501c0 4.142-3.357 7.499-7.5 7.499zM17.5 19.501c0-0.829-0.672-1.5-1.5-1.5s-1.5 0.671-1.5 1.5c0 0.709 0.504 1.277 1.167 1.432l-1.167 4.567h3.062l-1.314-4.55c0.705-0.123 1.252-0.709 1.252-1.449z"></path>
</svg>
