<?xml version="1.0" encoding="utf-8"?>
<!-- Generated by IcoMoon.io -->
<!DOCTYPE svg PUBLIC "-//W3C//DTD SVG 1.1//EN" "http://www.w3.org/Graphics/SVG/1.1/DTD/svg11.dtd">
<svg version="1.1" xmlns="http://www.w3.org/2000/svg" xmlns:xlink="http://www.w3.org/1999/xlink" width="32" height="32" viewBox="0 0 32 32">
<path fill="#444444" d="M22.956 30.972h-4.984c-3.304 0-5.981-2.678-5.981-5.981v-8.972h6.044v1.994c0 1.101 0.83 1.993 1.932 1.993h0.996c1.102 0 1.994-0.893 1.994-1.993v-1.994h6.043v8.972c0 3.303-2.741 5.981-6.044 5.981zM22.956 14.025c0-1.101-0.893-1.994-1.994-1.994v0-5.919c0 0-1.308-0.062 1.932-0.062s6.106 2.118 6.106 5.981c0 1.983 0 2.698 0 2.928h-6.044v-0.934zM20.038 5.375c0-1.927-0.907-3-2.723-3-1.921 0-3.391 1.384-4.409 4.151l-0.209 0.567c-1.191 3.235-2.937 4.853-5.235 4.853-0.928 0-1.794-0.354-2.599-1.060s-1.207-1.466-1.207-2.279c0-0.402 0.188-0.604 0.566-0.604 0.255 0 0.518 0.321 0.789 0.962 0.492 1.184 1.314 1.776 2.464 1.776 0.871 0 1.583-0.281 2.138-0.845s1.186-1.646 1.892-3.249l0.456-1.011c1.339-2.992 3.143-4.488 5.409-4.488 2.597 0 3.895 1.482 3.895 4.227h-1.227zM21.959 14.523v2.99c0 0.826-0.669 1.495-1.495 1.495s-1.495-0.669-1.495-1.495v-2.99c0-0.826 0.669-1.496 1.495-1.496s1.495 0.67 1.495 1.496zM18.034 6.050c3.239 0 1.993 0.062 1.993 0.062v5.919c-1.101 0-1.993 0.893-1.993 1.994v0.935h-6.044c0-0.23 0-0.945 0-2.928 0-3.864 2.804-5.982 6.044-5.982z"></path>
</svg>
