<?xml version="1.0" encoding="utf-8"?>
<!-- Generated by IcoMoon.io -->
<!DOCTYPE svg PUBLIC "-//W3C//DTD SVG 1.1//EN" "http://www.w3.org/Graphics/SVG/1.1/DTD/svg11.dtd">
<svg version="1.1" xmlns="http://www.w3.org/2000/svg" xmlns:xlink="http://www.w3.org/1999/xlink" width="32" height="32" viewBox="0 0 32 32">
<path fill="#444444" d="M28 6h-8v-2.063c0-1.069-0.869-1.938-1.938-1.938h-4.125c-1.069 0-1.938 0.869-1.938 1.938v2.063h-8c-1.103 0-2 0.897-2 2v16c0 1.103 0.897 2 2 2h24c1.103 0 2-0.897 2-2v-16c0-1.103-0.897-2-2-2zM14 4.5c0-0.275 0.225-0.5 0.5-0.5h3c0.275 0 0.5 0.225 0.5 0.5v1.5h-4v-1.5zM28 16h-10v2h-4v-2h-10v-8h2v6h20v-6h2v8z"></path>
</svg>
