<?xml version="1.0" encoding="utf-8"?>
<!-- Generated by IcoMoon.io -->
<!DOCTYPE svg PUBLIC "-//W3C//DTD SVG 1.1//EN" "http://www.w3.org/Graphics/SVG/1.1/DTD/svg11.dtd">
<svg version="1.1" xmlns="http://www.w3.org/2000/svg" xmlns:xlink="http://www.w3.org/1999/xlink" width="32" height="32" viewBox="0 0 32 32">
<path fill="#444444" d="M16.214 16.662c-0.604 0-1.053 0.209-1.349 0.629-0.296 0.419-0.443 0.873-0.443 1.363 0 0.686 0.174 1.22 0.522 1.604s0.783 0.576 1.305 0.576c0.51 0 0.932-0.186 1.266-0.555s0.501-0.901 0.501-1.599c0-0.608-0.17-1.097-0.51-1.466-0.34-0.368-0.771-0.552-1.292-0.552zM16.179 14.708c0.467 0 0.84-0.14 1.12-0.418 0.279-0.279 0.42-0.665 0.42-1.158 0-0.464-0.139-0.835-0.416-1.114s-0.643-0.418-1.098-0.418c-0.473 0-0.849 0.141-1.129 0.422s-0.42 0.655-0.42 1.119c0 0.493 0.139 0.878 0.415 1.154 0.278 0.275 0.647 0.413 1.108 0.413zM16 3c-7.18 0-13 5.82-13 13s5.82 13 13 13 13-5.82 13-13-5.82-13-13-13zM19.315 21.699c-0.759 0.746-1.768 1.119-3.026 1.119-1.172 0-2.146-0.309-2.926-0.926-0.919-0.729-1.379-1.727-1.379-2.996 0-0.698 0.173-1.34 0.52-1.924s0.892-1.035 1.637-1.353c-0.639-0.269-1.104-0.639-1.393-1.11-0.291-0.471-0.436-0.986-0.436-1.548 0-0.959 0.335-1.751 1.006-2.377s1.625-0.938 2.861-0.938c1.225 0 2.176 0.313 2.852 0.938 0.678 0.626 1.016 1.418 1.016 2.377 0 0.597-0.155 1.127-0.466 1.592-0.312 0.464-0.748 0.82-1.311 1.065 0.713 0.288 1.255 0.708 1.626 1.26s0.557 1.189 0.557 1.911c0 1.195-0.38 2.164-1.138 2.91z"></path>
</svg>
