<?xml version="1.0" encoding="utf-8"?>
<!-- Generated by IcoMoon.io -->
<!DOCTYPE svg PUBLIC "-//W3C//DTD SVG 1.1//EN" "http://www.w3.org/Graphics/SVG/1.1/DTD/svg11.dtd">
<svg version="1.1" xmlns="http://www.w3.org/2000/svg" xmlns:xlink="http://www.w3.org/1999/xlink" width="18" height="18" viewBox="0 0 18 18">
<path fill="#444444" d="M16.991 6.5c-0.016-0.376-0.050-0.761-0.090-1.154-0.279-2.725-2.452-4.96-5.165-5.298-2.927-0.365-5.493 1.399-6.387 3.952-0.112-0.010-0.225-0.017-0.34-0.017-2.195-0-4.009 1.791-4.009 3.99v0.996c0 0.544 0.475 0.988 1.018 0.988h0.020c0.543 0 0.958-0.467 0.958-1.011v-0.785c-0.115-1.187 0.852-2.186 2.013-2.186 0.058 0 0.115 0.005 0.172 0.010l0.77-0.010c0.452 0.038 0.869-0.159 1.019-0.587l0.216-0.617c0.524-1.498 1.847-2.623 3.426-2.763 2.445-0.217 4.557 1.844 4.393 4.283l-0.003 0.21v2.562h0.010c0.029 0.521 0.486 0.938 1.013 0.938h0.020c0.519 0 0.915-0.426 0.951-0.938h0.007v-2.562h-0.011z"></path>
<path fill="#444444" d="M7.001 8c-0.552 0-1 0.448-1 1v2c0 0.552 0.448 1 1 1s1-0.448 1-1v-2c0-0.552-0.448-1-1-1z"></path>
<path fill="#444444" d="M7.001 14c-0.552 0-1 0.447-1 1v2c0 0.552 0.448 1 1 1s1-0.448 1-1v-2c0-0.553-0.448-1-1-1z"></path>
<path fill="#444444" d="M11.001 6c-0.552 0-1 0.448-1 1v2c0 0.553 0.448 1 1 1s1-0.447 1-1v-2c0-0.552-0.448-1-1-1z"></path>
<path fill="#444444" d="M11.001 12c-0.552 0-1 0.448-1 1v2c0 0.552 0.448 1 1 1s1-0.448 1-1v-2c0-0.552-0.448-1-1-1z"></path>
</svg>
