<?xml version="1.0" encoding="utf-8"?>
<!-- Generated by IcoMoon.io -->
<!DOCTYPE svg PUBLIC "-//W3C//DTD SVG 1.1//EN" "http://www.w3.org/Graphics/SVG/1.1/DTD/svg11.dtd">
<svg version="1.1" xmlns="http://www.w3.org/2000/svg" xmlns:xlink="http://www.w3.org/1999/xlink" width="32" height="32" viewBox="0 0 32 32">
<path fill="#444444" d="M28 8c-0.969 0-6 0-6 0v-4c0-2.219-4.938-4-11-4s-11 1.781-11 4v24c0 2.219 4.938 4 11 4s11-1.781 11-4v-4s5 0 6 0 2-0.938 2-2 0-10.938 0-12-0.906-2-2-2zM6 26h-2v-16h2v16zM12 28h-2v-16h2v16zM18 26h-2v-16h2v16zM11 6c-3.875 0-7-0.906-7-2s3.125-2 7-2 7 0.906 7 2-3.125 2-7 2zM26 20h-4v-8h4v8z"></path>
</svg>
