<?xml version="1.0" encoding="utf-8"?>
<!-- Generated by IcoMoon.io -->
<!DOCTYPE svg PUBLIC "-//W3C//DTD SVG 1.1//EN" "http://www.w3.org/Graphics/SVG/1.1/DTD/svg11.dtd">
<svg version="1.1" xmlns="http://www.w3.org/2000/svg" xmlns:xlink="http://www.w3.org/1999/xlink" width="24" height="24" viewBox="0 0 24 24">
<path fill="#444444" d="M0 1v22h24v-22h-24zM22 21h-20v-13h20v13zM22 7h-20v-4h20v4zM11 4h-2v2h2v-2zM8 4h-2v2h2v-2zM5 4h-2v2h2v-2zM9.025 17.889l2.475-2.475 2.475 2.475 1.414-1.414-2.475-2.475 2.475-2.475-1.414-1.414-2.475 2.475-2.475-2.475-1.414 1.414 2.475 2.475-2.475 2.475 1.414 1.414z"></path>
</svg>
