<?xml version="1.0" encoding="utf-8"?>
<!-- Generated by IcoMoon.io -->
<!DOCTYPE svg PUBLIC "-//W3C//DTD SVG 1.1//EN" "http://www.w3.org/Graphics/SVG/1.1/DTD/svg11.dtd">
<svg version="1.1" xmlns="http://www.w3.org/2000/svg" xmlns:xlink="http://www.w3.org/1999/xlink" width="20" height="20" viewBox="0 0 20 20">
<path fill="#444444" d="M9.244 9.52l-7.203-4.949c-0.572-0.383-1.041-0.102-1.041 0.625v9.609c0 0.725 0.469 1.006 1.041 0.625l7.203-4.951c0 0 0.279-0.199 0.279-0.478s-0.279-0.481-0.279-0.481zM18.6 10.001c0 0.279-0.279 0.478-0.279 0.478l-7.203 4.951c-0.572 0.381-1.041 0.1-1.041-0.625v-9.609c0-0.727 0.469-1.008 1.041-0.625l7.202 4.949c0 0 0.28 0.201 0.28 0.481z"></path>
</svg>
