<?xml version="1.0" encoding="UTF-8"?>
<!DOCTYPE svg PUBLIC "-//W3C//DTD SVG 1.1//EN" "http://www.w3.org/Graphics/SVG/1.1/DTD/svg11.dtd">
<!-- Creator: CorelDRAW X8 -->
<svg xmlns="http://www.w3.org/2000/svg" xml:space="preserve" width="2.59813in" height="3.02328in" version="1.1" style="shape-rendering:geometricPrecision; text-rendering:geometricPrecision; image-rendering:optimizeQuality; fill-rule:evenodd; clip-rule:evenodd"
viewBox="0 0 3528 4106"
 xmlns:xlink="http://www.w3.org/1999/xlink">
 <defs>
  <style type="text/css">
   <![CDATA[
    .fil0 {fill:black}
   ]]>
  </style>
 </defs>
 <g id="Layer_x0020_1">
  <metadata id="CorelCorpID_0Corel-Layer"/>
  <g id="_135149263840">
   <path class="fil0" d="M2710 3753l0 -1412c0,-73 71,-56 169,-56 37,0 56,19 56,56l0 1412c0,73 -71,56 -169,56 -37,0 -56,-19 -56,-56zm-1058 0l0 -1412c0,-73 71,-56 168,-56 38,0 56,19 56,56l0 1412c0,73 -71,56 -168,56 -37,0 -56,-19 -56,-56zm-834 56c-54,0 -168,16 -168,-48l0 -1428c0,-64 114,-48 168,-48 48,0 64,33 64,80l0 1364c0,47 -16,80 -64,80zm-818 -1580l176 0 0 1636 -176 0 0 241 3528 0 0 -241 -176 0 0 -1636 176 0 0 -240 -3528 0 0 240z"/>
   <path class="fil0" d="M1676 577c0,122 -20,268 46,323 64,52 194,33 194,199 0,121 -165,204 -266,90 -61,-68 -20,-202 -139,-190 -27,3 -45,13 -58,29 -52,61 -12,164 14,215 31,59 59,68 89,112 -21,10 -60,23 -82,31l-1174 398c-30,11 -52,21 -84,28 4,39 24,75 33,112 37,0 318,-102 381,-123l941 -319c246,-81 136,-85 380,-1l947 320c64,22 345,123 382,123 8,-37 28,-73 32,-112l-336 -113c-112,-37 -219,-76 -335,-114l-668 -230c34,-51 188,-172 105,-386 -54,-139 -139,-161 -226,-207l0 -185c220,-51 287,-574 289,-577l-754 0c2,4 69,526 289,577z"/>
  </g>
 </g>
</svg>
