<?xml version="1.0" encoding="utf-8"?>
<!-- Generated by IcoMoon.io -->
<!DOCTYPE svg PUBLIC "-//W3C//DTD SVG 1.1//EN" "http://www.w3.org/Graphics/SVG/1.1/DTD/svg11.dtd">
<svg version="1.1" xmlns="http://www.w3.org/2000/svg" xmlns:xlink="http://www.w3.org/1999/xlink" width="24" height="24" viewBox="0 0 24 24">
<path fill="#444444" d="M16 21h-8c-1.654 0-3-1.346-3-3s1.346-3 3-3h8c1.654 0 3 1.346 3 3s-1.346 3-3 3zM8 17c-0.551 0-1 0.448-1 1s0.449 1 1 1h8c0.551 0 1-0.448 1-1s-0.449-1-1-1h-8z"></path>
<path fill="#444444" d="M12 6.866l4.964 5.096c0.012 0.013 0.024 0.025 0.036 0.038l-10 0.004c0.027-0.028 0.054-0.058 0.080-0.087l4.92-5.051zM12 4c0 0-3.859 3.963-6.433 6.604-0.349 0.363-0.567 0.853-0.567 1.396 0 1.104 0.896 2 2 2h10c1.104 0 2-0.896 2-2 0-0.543-0.218-1.033-0.568-1.393-2.573-2.644-6.432-6.607-6.432-6.607z"></path>
</svg>
