<?xml version="1.0" encoding="utf-8"?>
<!-- Generated by IcoMoon.io -->
<!DOCTYPE svg PUBLIC "-//W3C//DTD SVG 1.1//EN" "http://www.w3.org/Graphics/SVG/1.1/DTD/svg11.dtd">
<svg version="1.1" xmlns="http://www.w3.org/2000/svg" xmlns:xlink="http://www.w3.org/1999/xlink" width="24" height="24" viewBox="0 0 24 24">
<path fill="#444444" d="M6 17.016v0.984h12v-0.984q0-1.359-2.063-2.227t-3.938-0.867-3.938 0.867-2.063 2.227zM15 9q0-1.219-0.891-2.109t-2.109-0.891-2.109 0.891-0.891 2.109 0.891 2.109 2.109 0.891 2.109-0.891 0.891-2.109zM3 5.016q0-0.797 0.586-1.406t1.43-0.609h13.969q0.797 0 1.406 0.609t0.609 1.406v13.969q0 0.797-0.609 1.406t-1.406 0.609h-13.969q-0.844 0-1.43-0.609t-0.586-1.406v-13.969z"></path>
</svg>
