<?xml version="1.0" encoding="utf-8"?>
<!-- Generated by IcoMoon.io -->
<!DOCTYPE svg PUBLIC "-//W3C//DTD SVG 1.1//EN" "http://www.w3.org/Graphics/SVG/1.1/DTD/svg11.dtd">
<svg version="1.1" xmlns="http://www.w3.org/2000/svg" xmlns:xlink="http://www.w3.org/1999/xlink" width="39" height="32" viewBox="0 0 39 32">
<path fill="#444444" d="M39 12.052l-2 0.021v-2.042c0-1.657-1.344-3-3-3h-31c-1.657 0-3 1.343-3 3v11c0 1.656 1.343 3 3 3h3.979l-0.021 0.938h23.042l-0.021-0.938h4.021c1.656 0 3-1.344 3-3v-2.062h2.041l-0.041-6.917zM36 21.031c0 1.104-0.896 2-2 2h-31c-1.104 0-2-0.896-2-2v-11c0-1.104 0.896-2 2-2h31c1.104 0 2 0.896 2 2v11zM34 9.031h-31c-0.553 0-1 0.447-1 1v11c0 0.553 0.447 1 1 1h31c0.552 0 1-0.447 1-1v-11c0-0.552-0.448-1-1-1zM32.247 12.014l-0.8 0.75h-2.431l-0.68-0.75h3.911zM31.33 15.139l0.35 0.371-0.42 0.371h-2.612l-0.331-0.371 0.4-0.371h2.613zM28.187 12.146l0.679 0.75-0.169 2-0.51 0.47-0.26-0.28 0.26-2.94zM21.697 12.146l0.679 0.75-0.169 2-0.51 0.47-0.26-0.28 0.26-2.94zM24.837 15.139l0.351 0.371-0.421 0.371h-2.609l-0.33-0.371 0.399-0.371h2.61zM11.705 12.146l0.679 0.75-0.175 2-0.505 0.471-0.257-0.28 0.258-2.941zM14.844 15.139l0.351 0.371-0.42 0.371h-2.613l-0.326-0.371 0.399-0.371h2.609zM9.275 12.014l-0.801 0.75h-2.43l-0.68-0.75h3.911zM5.215 12.146l0.68 0.75-0.176 2-0.505 0.471-0.257-0.28 0.258-2.941zM4.882 15.936l0.3-0.289 0.43 0.469-0.168 2.001-0.818 0.75 0.256-2.931zM4.75 19.006l0.82-0.75h2.426l0.669 0.75h-3.915zM8.815 18.865l-0.672-0.749 0.168-2.001 0.511-0.469 0.25 0.289-0.257 2.93zM9.146 15.086l-0.293 0.28-0.435-0.471 0.175-2 0.812-0.75-0.259 2.941zM11.372 15.936l0.3-0.289 0.43 0.469-0.168 2.001-0.818 0.749 0.256-2.93zM11.239 19.006l0.82-0.75h2.427l0.669 0.75h-3.916zM15.305 18.866l-0.67-0.75 0.169-2 0.511-0.47 0.251 0.289-0.261 2.931zM14.965 12.764h-2.43l-0.681-0.75h3.91l-0.799 0.75zM18.575 19.006h-0.75l0.069-0.75h0.75l-0.069 0.75zM19.015 13.928h-0.75l0.070-0.75h0.75l-0.070 0.75zM21.237 19.006l0.81-0.75h2.43l0.67 0.75h-3.91zM25.297 18.865l-0.671-0.749 0.17-2 0.511-0.47 0.25 0.289-0.26 2.93zM24.957 12.764h-2.43l-0.681-0.75h3.91l-0.799 0.75zM27.727 19.006l0.811-0.75h2.43l0.67 0.75h-3.911zM31.787 18.865l-0.672-0.749 0.168-2.001 0.511-0.469 0.25 0.289-0.257 2.93zM32.119 15.086l-0.294 0.28-0.435-0.471 0.176-2 0.812-0.75-0.259 2.941z"></path>
</svg>
