<?xml version="1.0" encoding="utf-8"?>
<!-- Generated by IcoMoon.io -->
<!DOCTYPE svg PUBLIC "-//W3C//DTD SVG 1.1//EN" "http://www.w3.org/Graphics/SVG/1.1/DTD/svg11.dtd">
<svg version="1.1" xmlns="http://www.w3.org/2000/svg" xmlns:xlink="http://www.w3.org/1999/xlink" width="48" height="48" viewBox="0 0 48 48">
<path fill="#444444" d="M6 31c0 9.39 7.61 17 17 17h1c9.391 0 17-7.61 17-17 0-2.11-0.3-4.13-1-6-5.811 0-10.93 2.91-14 7.35v-7.6c5.71-1.16 10-6.2 10-12.25v-10.52c0-1.090-0.9-1.98-2-1.98-0.561 0-1.070 0.23-1.43 0.6l-3.8 3.76-3.77-3.76c-0.8-0.8-2.090-0.8-2.88 0l-3.83 3.82-3.86-3.82c-0.36-0.37-0.87-0.6-1.43-0.6-1.1 0-2 0.89-2 1.98l-0 10.52c0 6.050 4.29 11.090 10 12.25v7.6c-3.070-4.44-8.19-7.35-14-7.35-0.7 1.87-1 3.89-1 6z"></path>
</svg>
