<?xml version="1.0" encoding="utf-8"?>
<!-- Generated by IcoMoon.io -->
<!DOCTYPE svg PUBLIC "-//W3C//DTD SVG 1.1//EN" "http://www.w3.org/Graphics/SVG/1.1/DTD/svg11.dtd">
<svg version="1.1" xmlns="http://www.w3.org/2000/svg" xmlns:xlink="http://www.w3.org/1999/xlink" width="29" height="32" viewBox="0 0 29 32">
<path fill="#444444" d="M2.375 13.219c1-0.25 7.156-1.844 7.156-1.844-0.031 0.188-0.063 0.594-0.063 0.594 0 2.219 1.531 4 4 4s4-1.844 4-4c0-0.344-0.25-0.688-0.594-1l1.531 0.094s0.219-0.063 0.969-0.25c-1.594 0.438-3.375-0.969-3.938-3.094s0.25-4.219 1.875-4.656c-0.75 0.188-0.969 0.25-0.969 0.25l-5.25 3.438c-1.063 0.281-1.719 1.438-1.438 2.5 0.063 0.281 0.219 0.531 0.375 0.719-0.219 0.375-0.375 0.813-0.469 1.25-0.844-0.031-1.594-0.594-1.844-1.438-0.281-1.063 0.344-2.156 1.406-2.438l-7.656 2.031c-1.063 0.281-1.688 1.344-1.406 2.406s1.281 1.688 2.281 1.438zM15.469 18h-4v2l-10 10h4l6-4v4h4v-4l6 4h4l-10-10v-2zM28.875 4c-0.563-2.125-2.188-3.438-3.813-3-2.156 0.563-3.063 0.875-5.813 1.594-1.594 0.438-2.469 2.5-1.906 4.625s2.313 3.594 3.906 3.188c2.719-0.719 3.656-1.031 5.813-1.594 1.594-0.438 2.375-2.656 1.813-4.813zM26.688 6.813c-0.531 0.156-1.313-0.531-1.594-1.594s-0.125-2.063 0.406-2.188 1.313 0.531 1.594 1.594 0.125 2.063-0.406 2.188z"></path>
</svg>
