<?xml version="1.0" encoding="utf-8"?>
<!-- Generated by IcoMoon.io -->
<!DOCTYPE svg PUBLIC "-//W3C//DTD SVG 1.1//EN" "http://www.w3.org/Graphics/SVG/1.1/DTD/svg11.dtd">
<svg version="1.1" xmlns="http://www.w3.org/2000/svg" xmlns:xlink="http://www.w3.org/1999/xlink" width="20" height="32" viewBox="0 0 20 32">
<path fill="#444444" d="M10 4c1.602 0 3.109 0.625 4.242 1.76 1.133 1.131 1.758 2.638 1.758 4.24s-0.625 3.109-1.73 4.213c-0.168 0.166-2.238 2.225-4.27 5.441-2.023-3.211-4.086-5.262-4.242-5.414-1.133-1.131-1.758-2.638-1.758-4.24s0.625-3.109 1.758-4.242 2.64-1.758 4.242-1.758zM10 0c-2.559 0-5.117 0.977-7.070 2.93-3.906 3.904-3.906 10.236 0 14.141 0-0.001 7.070 6.929 7.070 14.929 0-8 7.070-14.93 7.070-14.93 3.906-3.904 3.906-10.236 0-14.141-1.953-1.952-4.511-2.929-7.070-2.929v0zM8 10c0-1.105 0.895-2 2-2s2 0.895 2 2c0 1.105-0.895 2-2 2s-2-0.895-2-2z"></path>
</svg>
