<?xml version="1.0" encoding="utf-8"?>
<!-- Generated by IcoMoon.io -->
<!DOCTYPE svg PUBLIC "-//W3C//DTD SVG 1.1//EN" "http://www.w3.org/Graphics/SVG/1.1/DTD/svg11.dtd">
<svg version="1.1" xmlns="http://www.w3.org/2000/svg" xmlns:xlink="http://www.w3.org/1999/xlink" width="24" height="24" viewBox="0 0 24 24">
<path fill="#444444" d="M20.986 17c0-0.105-0.004-0.211-0.038-0.316l-2-6c-0.093-0.276-0.302-0.483-0.56-0.594 0.881-1.175 0.799-2.847-0.269-3.914l-6.119-6.121-6.121 6.121c-1.067 1.067-1.149 2.739-0.27 3.914-0.256 0.109-0.467 0.316-0.559 0.594l-2 6c-0.034 0.105-0.038 0.211-0.038 0.316-0.012 0-0.012 5-0.012 5 0 0.553 0.447 1 1 1h16c0.553 0 1-0.447 1-1 0 0 0-5-0.014-5zM7.293 7.59l4.707-4.707 4.707 4.707c0.391 0.391 0.391 1.023 0 1.414-0.379 0.377-1.035 0.377-1.414 0l-2.293-2.293v5.789c0 0.552-0.448 1-1 1s-1-0.448-1-1v-5.789l-2.293 2.293c-0.379 0.377-1.035 0.377-1.414 0-0.391-0.391-0.391-1.025 0-1.414zM6.721 12h2.279v0.5c0 1.654 1.346 3 3 3s3-1.346 3-3v-0.5h2.279l1.666 5h-13.892l1.668-5zM5 21v-3h14v3h-14z"></path>
</svg>
