<?xml version="1.0" encoding="utf-8"?>
<!-- Generated by IcoMoon.io -->
<!DOCTYPE svg PUBLIC "-//W3C//DTD SVG 1.1//EN" "http://www.w3.org/Graphics/SVG/1.1/DTD/svg11.dtd">
<svg version="1.1" xmlns="http://www.w3.org/2000/svg" xmlns:xlink="http://www.w3.org/1999/xlink" width="32" height="32" viewBox="0 0 32 32">
<path fill="#444444" d="M21.031 19.981v-4l2.938-2.938h-2.938v-4.062l2.938-2.938h-2.938v-1.687c0 0-3.317-1.4-5.601-1.4-2.216 0-5.399 1.4-5.399 1.4v1.688h-3l3 3v4.062l-3-0.062 3 3v4h-3.062l3.062 3.062v4.938h3.938l0.062 2 3-0.062v-1.938h4v-5.062l3-3h-3zM15.572 26.022c-1.656 0-3-1.343-3-3 0-1.656 1.344-2.999 3-2.999s3 1.343 3 2.999c0 1.658-1.343 3-3 3zM15.572 19.085c-1.656 0-3-1.343-3-3s1.344-3 3-3c1.657 0 3 1.344 3 3 0 1.657-1.343 3-3 3zM15.572 12.023c-1.656 0-3-1.344-3-3.001 0-1.656 1.344-3 3-3s3 1.344 3 3c0 1.658-1.343 3.001-3 3.001z"></path>
</svg>
