<?xml version="1.0" encoding="utf-8"?>
<!-- Generated by IcoMoon.io -->
<!DOCTYPE svg PUBLIC "-//W3C//DTD SVG 1.1//EN" "http://www.w3.org/Graphics/SVG/1.1/DTD/svg11.dtd">
<svg version="1.1" xmlns="http://www.w3.org/2000/svg" xmlns:xlink="http://www.w3.org/1999/xlink" width="32" height="32" viewBox="0 0 32 32">
<path fill="#444444" d="M12.711 25.965c-6.578 5.24-8.352 3.973-5.321-3.807-8.45 0.436-9.128-1.619-2.033-6.158-7.095-4.54-6.417-6.593 2.033-6.159-3.030-7.779-1.256-9.048 5.321-3.806 2.192-8.046 4.385-8.046 6.578 0 6.577-5.242 8.352-3.973 5.32 3.806 8.451-0.434 9.128 1.619 2.033 6.159 7.095 4.539 6.418 6.594-2.033 6.158 3.031 7.779 1.257 9.047-5.32 3.807-2.192 8.047-4.386 8.047-6.578 0z"></path>
</svg>
