<?xml version="1.0" encoding="utf-8"?>
<!-- Generated by IcoMoon.io -->
<!DOCTYPE svg PUBLIC "-//W3C//DTD SVG 1.1//EN" "http://www.w3.org/Graphics/SVG/1.1/DTD/svg11.dtd">
<svg version="1.1" xmlns="http://www.w3.org/2000/svg" xmlns:xlink="http://www.w3.org/1999/xlink" width="32" height="32" viewBox="0 0 32 32">
<path fill="#444444" d="M27.792 25.278l0.001 1.825h-20.87l16.557-16.558c-0.030 4.079-0.021 9.176 2.228 11.305 2.555 2.42 2.084 3.428 2.084 3.428zM4.174 26.98l21.265-21.264 0.708 0.709-21.264 21.264-0.709-0.709zM7.852 21.85c2.555-2.42 2.219-8.672 2.219-12.908s5.948-4.325 5.948-4.325h0.203c0 0.002 0-0.029 0-0.688 0-0.423-1.42-1.955-1.42-1.955l-0.021-0.927h4.010l-0.028 0.962c0 0-1.538 1.531-1.538 1.982 0 0.436 0 0.582 0 0.625h0.317c0 0 3.801 0.064 5.323 2.255l-15.909 15.91c0.249-0.285 0.536-0.591 0.896-0.931zM19.292 28.070c0 1.385-1.122 2.883-2.506 2.883s-2.507-1.498-2.507-2.883c0 0.031 5.013-0.032 5.013 0z"></path>
</svg>
