<?xml version="1.0" encoding="utf-8"?>
<!-- Generated by IcoMoon.io -->
<!DOCTYPE svg PUBLIC "-//W3C//DTD SVG 1.1//EN" "http://www.w3.org/Graphics/SVG/1.1/DTD/svg11.dtd">
<svg version="1.1" xmlns="http://www.w3.org/2000/svg" xmlns:xlink="http://www.w3.org/1999/xlink" width="24" height="24" viewBox="0 0 24 24">
<path fill="#444444" d="M11 20h-4c-0.553 0-1 0.447-1 1s0.447 1 1 1h10c0.553 0 1-0.447 1-1s-0.447-1-1-1h-4v-1.23c1.64-0.371 3.146-1.188 4.363-2.406 1.7-1.7 2.637-3.96 2.637-6.364 0-2.067-0.692-4.029-1.968-5.619l0.675-0.673c0.391-0.391 0.391-1.023 0.001-1.415-0.391-0.391-1.024-0.39-1.415-0.001l-2.052 2.049 0.708 0.708c1.322 1.322 2.051 3.081 2.051 4.951s-0.729 3.627-2.051 4.949-3.079 2.051-4.949 2.051-3.627-0.729-4.949-2.051c-0.391-0.391-1.023-0.391-1.414 0-0.391 0.39-0.391 1.023 0 1.414 1.699 1.7 3.959 2.637 6.363 2.637v1z"></path>
<path fill="#444444" d="M11 4c1.657 0 3.157 0.672 4.243 1.757 1.085 1.086 1.757 2.586 1.757 4.243 0 1.656-0.672 3.156-1.757 4.242-1.086 1.086-2.586 1.758-4.243 1.758s-3.157-0.672-4.242-1.757c-1.085-1.086-1.756-2.586-1.756-4.243s0.671-3.157 1.756-4.243c1.085-1.085 2.584-1.757 4.242-1.757z"></path>
</svg>
