<?xml version="1.0" encoding="utf-8"?>
<!-- Generated by IcoMoon.io -->
<!DOCTYPE svg PUBLIC "-//W3C//DTD SVG 1.1//EN" "http://www.w3.org/Graphics/SVG/1.1/DTD/svg11.dtd">
<svg version="1.1" xmlns="http://www.w3.org/2000/svg" xmlns:xlink="http://www.w3.org/1999/xlink" width="48" height="48" viewBox="0 0 48 48">
<path fill="#444444" d="M28 5h-3c-7.85 0-14.29 6.020-14.95 13.7-4.78 2.51-8.050 7.521-8.050 13.3l0.010 0.050c-1.151 0.23-2.010 1.24-2.010 2.45 0 1.38 1.12 2.5 2.5 2.5h3.52c0.25 3.91 3.51 7 7.48 7s7.23-3.090 7.48-7h7.039c0.25 3.91 3.51 7 7.48 7 4.14 0 7.5-3.36 7.5-7.5 0-0.27-0.020-0.55-0.050-0.811 3.021-1.729 5.051-4.968 5.051-8.689v-6.8c0-1.22-0.98-2.2-2.2-2.2h-2.93c-0.98-7.34-7.261-13-14.87-13zM24 10.050v9.95h-9c0-5.189 3.95-9.45 9-9.95zM29 20v-9.95c5.050 0.5 9 4.761 9 9.95h-9zM16 36.5c0 1.38-1.12 2.5-2.5 2.5s-2.5-1.12-2.5-2.5 1.12-2.5 2.5-2.5 2.5 1.12 2.5 2.5zM38 36.5c0 1.38-1.12 2.5-2.5 2.5s-2.5-1.12-2.5-2.5 1.12-2.5 2.5-2.5 2.5 1.12 2.5 2.5z"></path>
</svg>
