<?xml version="1.0" encoding="utf-8"?>
<!-- Generated by IcoMoon.io -->
<!DOCTYPE svg PUBLIC "-//W3C//DTD SVG 1.1//EN" "http://www.w3.org/Graphics/SVG/1.1/DTD/svg11.dtd">
<svg version="1.1" xmlns="http://www.w3.org/2000/svg" xmlns:xlink="http://www.w3.org/1999/xlink" width="24" height="24" viewBox="0 0 24 24">
<path fill="#444444" d="M15.418 0.581l-7.201 3.99-8.217-4.571v18.303l8.434 4.572 6.799-4.008 7.767 4.278v-18.271l-7.582-4.293zM21 12.234l-5-2.562v-6.278l5 2.678v6.162zM9 6.304l5-2.857v6.272l-5 2.857v-6.272zM9 13.729l5-2.858v6.274l-5 2.855v-6.271zM7 6.304v6.235l-5-3.007v-6.086l5 2.858zM2 10.7l5 3.007v6.293l-5-2.855v-6.445zM16 17.125v-6.329l5 2.562v6.445l-5-2.678z"></path>
</svg>
