<?xml version="1.0" encoding="utf-8"?>
<!-- Generated by IcoMoon.io -->
<!DOCTYPE svg PUBLIC "-//W3C//DTD SVG 1.1//EN" "http://www.w3.org/Graphics/SVG/1.1/DTD/svg11.dtd">
<svg version="1.1" xmlns="http://www.w3.org/2000/svg" xmlns:xlink="http://www.w3.org/1999/xlink" width="32" height="32" viewBox="0 0 32 32">
<path fill="#444444" d="M4.926 0h-2c-0.552 0-1 0.447-1 1v30c0 0.553 0.448 1 1 1h2c0.552 0 1-0.447 1-1v-30c0-0.553-0.447-1-1-1zM29.926 19v-14c0-0.553-0.123-1-1-1-4.447 2-20-4-20-4-0.552 0-1 0.447-1 1v15c0 0.553 0.448 1 1 1 0 0 11 3.571 20 3 1.715 0.571 1-0.447 1-1z"></path>
</svg>
