<?xml version="1.0" encoding="utf-8"?>
<!-- Generated by IcoMoon.io -->
<!DOCTYPE svg PUBLIC "-//W3C//DTD SVG 1.1//EN" "http://www.w3.org/Graphics/SVG/1.1/DTD/svg11.dtd">
<svg version="1.1" xmlns="http://www.w3.org/2000/svg" xmlns:xlink="http://www.w3.org/1999/xlink" width="32" height="32" viewBox="0 0 32 32">
<path fill="#444444" d="M8.5 5h-3c-0.276 0-0.5 0.224-0.5 0.5v3c0 0.276 0.224 0.5 0.5 0.5s0.5-0.224 0.5-0.5v-2.5h2.5c0.276 0 0.5-0.224 0.5-0.5s-0.224-0.5-0.5-0.5zM11.5 6h3c0.275 0 0.5-0.224 0.5-0.5s-0.225-0.5-0.5-0.5h-3c-0.276 0-0.5 0.224-0.5 0.5s0.224 0.5 0.5 0.5zM20.5 5h-3c-0.276 0-0.5 0.224-0.5 0.5s0.224 0.5 0.5 0.5h3c0.275 0 0.5-0.224 0.5-0.5s-0.225-0.5-0.5-0.5zM26.5 5h-3c-0.276 0-0.5 0.224-0.5 0.5s0.224 0.5 0.5 0.5h2.5v2.5c0 0.276 0.224 0.5 0.5 0.5 0.275 0 0.5-0.224 0.5-0.5v-3c0-0.276-0.225-0.5-0.5-0.5zM26.5 11c-0.276 0-0.5 0.224-0.5 0.5v3c0 0.276 0.224 0.5 0.5 0.5 0.275 0 0.5-0.224 0.5-0.5v-3c0-0.276-0.225-0.5-0.5-0.5zM26.5 17c-0.276 0-0.5 0.224-0.5 0.5v3c0 0.276 0.224 0.5 0.5 0.5 0.275 0 0.5-0.224 0.5-0.5v-3c0-0.276-0.225-0.5-0.5-0.5zM26.5 23c-0.276 0-0.5 0.224-0.5 0.5v2.5h-2.5c-0.276 0-0.5 0.224-0.5 0.5s0.224 0.5 0.5 0.5h3c0.275 0 0.5-0.224 0.5-0.5v-3c0-0.276-0.225-0.5-0.5-0.5zM20.5 26h-3c-0.276 0-0.5 0.224-0.5 0.5s0.224 0.5 0.5 0.5h3c0.275 0 0.5-0.224 0.5-0.5s-0.225-0.5-0.5-0.5zM14.5 26h-3c-0.276 0-0.5 0.224-0.5 0.5s0.224 0.5 0.5 0.5h3c0.275 0 0.5-0.224 0.5-0.5s-0.225-0.5-0.5-0.5zM8.5 26h-2.5v-2.5c0-0.276-0.224-0.5-0.5-0.5s-0.5 0.224-0.5 0.5v3c0 0.276 0.224 0.5 0.5 0.5h3c0.276 0 0.5-0.224 0.5-0.5s-0.224-0.5-0.5-0.5zM5.5 21c0.276 0 0.5-0.224 0.5-0.5v-3c0-0.276-0.224-0.5-0.5-0.5s-0.5 0.224-0.5 0.5v3c0 0.276 0.224 0.5 0.5 0.5zM5.5 15c0.276 0 0.5-0.224 0.5-0.5v-3c0-0.276-0.224-0.5-0.5-0.5s-0.5 0.224-0.5 0.5v3c0 0.276 0.224 0.5 0.5 0.5zM11.938 17h8c0.553 0 1-0.448 1-1 0-0.553-0.447-1-1-1h-8c-0.553 0-1 0.447-1 1 0 0.552 0.447 1 1 1z"></path>
</svg>
