<?xml version="1.0" encoding="utf-8"?>
<!-- Generated by IcoMoon.io -->
<!DOCTYPE svg PUBLIC "-//W3C//DTD SVG 1.1//EN" "http://www.w3.org/Graphics/SVG/1.1/DTD/svg11.dtd">
<svg version="1.1" xmlns="http://www.w3.org/2000/svg" xmlns:xlink="http://www.w3.org/1999/xlink" width="32" height="32" viewBox="0 0 32 32">
<path fill="#444444" d="M11 3h-2v4h2v-4zM22 8h-2v2h2v-2zM11 8h-2v2h2v-2zM22.938 6l0.062 5h-4v-5h-7v5h-4v-5h-3v24h21v-24h-3.062zM11 26.938h-3v-3h3v3zM11 22.938h-3v-3h3v3zM11 18.938h-3v-3h3v3zM15 26.938h-3v-3h3v3zM15 22.938h-3v-3h3v3zM15 18.938h-3v-3h3v3zM19 26.938h-3v-3h3v3zM19 22.938h-3v-3h3v3zM19 18.938h-3v-3h3v3zM23 26.938h-3v-3h3v3zM23 22.938h-3v-3h3v3zM23 18.938h-3v-3h3v3zM22 3h-2v4h2v-4z"></path>
</svg>
