<?xml version="1.0" encoding="utf-8"?>
<!-- Generated by IcoMoon.io -->
<!DOCTYPE svg PUBLIC "-//W3C//DTD SVG 1.1//EN" "http://www.w3.org/Graphics/SVG/1.1/DTD/svg11.dtd">
<svg version="1.1" xmlns="http://www.w3.org/2000/svg" xmlns:xlink="http://www.w3.org/1999/xlink" width="24" height="24" viewBox="0 0 24 24">
<path fill="#444444" d="M19.414 8.902c0.104-0.048 0.206-0.108 0.293-0.195l0.5-0.5c0.391-0.391 0.391-1.023 0-1.414s-1.023-0.391-1.414 0l-0.5 0.5c-0.051 0.051-0.077 0.115-0.115 0.173-1.387-1.312-3.188-2.19-5.189-2.41 0.001-0.019 0.011-0.036 0.011-0.056v-1h1c0.55 0 1-0.45 1-1s-0.45-1-1-1h-4c-0.55 0-1 0.45-1 1s0.45 1 1 1h1v1c0 0.020 0.010 0.037 0.012 0.057-4.506 0.492-8.012 4.307-8.012 8.943 0 4.971 4.029 9 9 9s9-4.029 9-9c0-1.894-0.588-3.648-1.586-5.098zM12 21c-3.859 0-7-3.14-7-7s3.141-7 7-7 7 3.14 7 7-3.141 7-7 7z"></path>
<path fill="#444444" d="M13 13v-2c0-0.55-0.45-1-1-1s-1 0.45-1 1v3c0 0.55 0.45 1 1 1h3c0.55 0 1-0.45 1-1s-0.45-1-1-1h-2z"></path>
<path fill="#444444" d="M12 8c-3.312 0-6 2.688-6 6s2.688 6 6 6 6-2.688 6-6-2.688-6-6-6zM12 19c-2.757 0-5-2.243-5-5s2.243-5 5-5 5 2.243 5 5-2.243 5-5 5z"></path>
</svg>
