<?xml version="1.0" encoding="utf-8"?>
<!-- Generated by IcoMoon.io -->
<!DOCTYPE svg PUBLIC "-//W3C//DTD SVG 1.1//EN" "http://www.w3.org/Graphics/SVG/1.1/DTD/svg11.dtd">
<svg version="1.1" xmlns="http://www.w3.org/2000/svg" xmlns:xlink="http://www.w3.org/1999/xlink" width="48" height="48" viewBox="0 0 48 48">
<path fill="#444444" d="M9 0c-2.21 0-4 1.79-4 4v40c0 2.21 1.79 4 4 4h30c2.21 0 4-1.79 4-4v-30.080c0-1.34-0.529-2.53-1.38-3.39l-9.080-9.060c-0.899-0.91-2.16-1.47-3.54-1.47h-20zM23 7c0-1.1 0.9-2 2-2s2 0.9 2 2v7.5c0 0.83 0.67 1.5 1.5 1.5h7.5c1.1 0 2 0.9 2 2s-0.9 2-2 2h-9c-2.21 0-4-1.79-4-4v-9z"></path>
</svg>
