<?xml version="1.0" encoding="utf-8"?>
<!-- Generated by IcoMoon.io -->
<!DOCTYPE svg PUBLIC "-//W3C//DTD SVG 1.1//EN" "http://www.w3.org/Graphics/SVG/1.1/DTD/svg11.dtd">
<svg version="1.1" xmlns="http://www.w3.org/2000/svg" xmlns:xlink="http://www.w3.org/1999/xlink" width="24" height="24" viewBox="0 0 24 24">
<path fill="#444444" d="M17.657 5.304c-3.124-3.073-8.189-3.073-11.313 0s-3.124 8.057 0 11.13l5.656 5.565 5.657-5.565c3.124-3.073 3.124-8.056 0-11.13zM12 13.499c-0.668 0-1.295-0.26-1.768-0.732-0.975-0.975-0.975-2.561 0-3.536 0.472-0.472 1.1-0.732 1.768-0.732s1.296 0.26 1.768 0.732c0.975 0.975 0.975 2.562 0 3.536-0.472 0.472-1.1 0.732-1.768 0.732z"></path>
</svg>
