<?xml version="1.0" encoding="utf-8"?>
<!-- Generated by IcoMoon.io -->
<!DOCTYPE svg PUBLIC "-//W3C//DTD SVG 1.1//EN" "http://www.w3.org/Graphics/SVG/1.1/DTD/svg11.dtd">
<svg version="1.1" xmlns="http://www.w3.org/2000/svg" xmlns:xlink="http://www.w3.org/1999/xlink" width="32" height="32" viewBox="0 0 32 32">
<path fill="#444444" d="M31.418 12.405l-11.819-11.818c-0.451-0.453-1.056-0.628-1.648-0.579h-3.901c-0.592-0.049-1.197 0.126-1.648 0.579l-2.4 2.4v-2.979h-5.998v8.977l-3.421 3.42c-0.453 0.453-0.627 1.057-0.578 1.648v3.95c0 1.104 0.894 2 1.999 2h1.999v9.997c0 1.104 0.894 2 2 2h19.995c1.105 0 2-0.895 2-2v-9.997h1.999c1.105 0 2-0.895 2-2v-3.95c0.049-0.591-0.125-1.195-0.578-1.648zM27.997 16.004h-3.999v11.997h-3.999v-7.998h-7.998v7.998h-3.999v-11.997h-3.999v-1.109l10.888-10.888h2.218l10.888 10.888v1.109z"></path>
</svg>
