<?xml version="1.0" encoding="utf-8"?>
<!-- Generated by IcoMoon.io -->
<!DOCTYPE svg PUBLIC "-//W3C//DTD SVG 1.1//EN" "http://www.w3.org/Graphics/SVG/1.1/DTD/svg11.dtd">
<svg version="1.1" xmlns="http://www.w3.org/2000/svg" xmlns:xlink="http://www.w3.org/1999/xlink" width="32" height="32" viewBox="0 0 32 32">
<path fill="#444444" d="M15.99 7.002c0.004 4.97 4.029 8.999 8.999 8.999 2.668 0 5.041-1.184 6.788-3.922 0.295 0.053 0.231 2.707 0.211 3.922-0.143 8.835-7.163 15.999-15.999 15.999s-15.999-7.163-15.999-15.999 7.163-15.881 15.999-15.999c1.055-0.014 2.166 0.019 3.965 0.107-1.119 1.142-3.966 3.914-3.965 6.892zM11.991 10.002c0-2.162 0.701-4.15 1.867-5.785-5.605 1.010-9.866 5.888-9.866 11.784 0 6.626 5.373 11.999 11.999 11.999 5.896 0 10.774-4.261 11.784-9.866-1.635 1.166-3.623 1.867-5.785 1.867-5.523 0-9.999-4.476-9.999-9.999z"></path>
</svg>
