<?xml version="1.0" encoding="utf-8"?>
<!-- Generated by IcoMoon.io -->
<!DOCTYPE svg PUBLIC "-//W3C//DTD SVG 1.1//EN" "http://www.w3.org/Graphics/SVG/1.1/DTD/svg11.dtd">
<svg version="1.1" xmlns="http://www.w3.org/2000/svg" xmlns:xlink="http://www.w3.org/1999/xlink" width="36" height="32" viewBox="0 0 36 32">
<path fill="#444444" d="M35 28h-7.999v-23h7.999c0.553 0 1 0.447 1 1v21c0 0.552-0.447 1-1 1zM31.001 24h1v-1h-1v1zM31.001 22h1v-1h-1v1zM31.001 20h1v-1h-1v1zM29.001 24h0.999v-1h-0.999v1zM29.001 22h0.999v-1h-0.999v1zM29.001 20h0.999v-1h-0.999v1zM34.001 9h-5v3h5v-3zM34.001 19h-1v1h1v-1zM34.001 21h-1v1h1v-1zM34.001 23h-1v1h1v-1zM0 27v-21c0-0.553 0.448-1 1.001-1h25v23h-25c-0.553 0-1.001-0.448-1.001-1zM24.039 17.509c0.553 0 1-0.448 1-1 0-0.553-0.447-1-1-1-0.552 0-1 0.447-1 1 0 0.552 0.448 1 1 1zM4 23c0 0.552 0.448 1 1.001 1h15.999c0.553 0 1-0.448 1-1v-13c0-0.553-0.447-1-1-1h-15.999c-0.553 0-1.001 0.447-1.001 1v13z"></path>
</svg>
