<?xml version="1.0" encoding="utf-8"?>
<!-- Generated by IcoMoon.io -->
<!DOCTYPE svg PUBLIC "-//W3C//DTD SVG 1.1//EN" "http://www.w3.org/Graphics/SVG/1.1/DTD/svg11.dtd">
<svg version="1.1" xmlns="http://www.w3.org/2000/svg" xmlns:xlink="http://www.w3.org/1999/xlink" width="48" height="48" viewBox="0 0 48 48">
<path fill="#444444" d="M7 0c-2.21 0-4 1.79-4 4v40c0 2.21 1.79 4 4 4h33c2.21 0 4-1.79 4-4l-0-16h-1.8c-1.22 0-2.2-0.98-2.2-2.2v-5.6c0-1.22 0.98-2.2 2.2-2.2h1.8v-8.080c0-1.34-0.53-2.53-1.38-3.39l-5.080-5.060c-0.9-0.91-2.16-1.47-3.54-1.47h-27zM12 7v9c0 1.1-0.9 2-2 2s-2-0.9-2-2l-0-9c0-1.1 0.9-2 2-2s2 0.9 2 2zM21 7v9c0 1.1-0.9 2-2 2s-2-0.9-2-2l-0-9c0-1.1 0.9-2 2-2s2 0.9 2 2zM30 7v9c0 1.1-0.9 2-2 2s-2-0.9-2-2l-0-9c0-1.1 0.9-2 2-2s2 0.9 2 2zM10.2 32h23.6c1.22 0 2.2 0.98 2.2 2.2v6.6c0 1.22-0.98 2.2-2.2 2.2h-23.6c-1.22 0-2.2-0.98-2.2-2.2v-6.6c0-1.22 0.98-2.2 2.2-2.2z"></path>
</svg>
