<?xml version="1.0" encoding="utf-8"?>
<!-- Generated by IcoMoon.io -->
<!DOCTYPE svg PUBLIC "-//W3C//DTD SVG 1.1//EN" "http://www.w3.org/Graphics/SVG/1.1/DTD/svg11.dtd">
<svg version="1.1" xmlns="http://www.w3.org/2000/svg" xmlns:xlink="http://www.w3.org/1999/xlink" width="48" height="48" viewBox="0 0 48 48">
<path fill="#444444" d="M0 33.85c0 5.61 4.54 10.15 10.15 10.15h16.7c5.61 0 10.15-4.54 10.15-10.15v-2.030c4.13-3.14 11-5.43 11-11.82 0-4.42-3.58-8-8-8-1.061 0-2.070 0.2-3 0.58v-3.58c0-2.21-1.79-4-4-4h-29c-2.21 0-4 1.79-4 4v24.85zM37 26.1v-6.1c0-1.66 1.34-3 3-3s3 1.34 3 3c0 3.090-3.12 4.29-6 6.1zM9 12v20c0 1.1-0.9 2-2 2s-2-0.9-2-2l-0-20c0-1.1 0.9-2 2-2s2 0.9 2 2z"></path>
</svg>
