<?xml version="1.0" encoding="utf-8"?>
<!-- Generated by IcoMoon.io -->
<!DOCTYPE svg PUBLIC "-//W3C//DTD SVG 1.1//EN" "http://www.w3.org/Graphics/SVG/1.1/DTD/svg11.dtd">
<svg version="1.1" xmlns="http://www.w3.org/2000/svg" xmlns:xlink="http://www.w3.org/1999/xlink" width="32" height="32" viewBox="0 0 32 32">
<path fill="#444444" d="M30 32h-28c-1.105 0-2-0.895-2-2v-28c0-1.105 0.894-2 2-2h28c1.105 0 2 0.894 2 2v28c0 1.105-0.895 2-2 2zM28 4h-24v24h24v-24zM16 12c0-2.205 1.824-4 3.715-4h2.285v4h-2v2h2v4h-2v6h-4v-6h-2v-4h2v-2z"></path>
</svg>
