<?xml version="1.0" encoding="utf-8"?>
<!-- Generated by IcoMoon.io -->
<!DOCTYPE svg PUBLIC "-//W3C//DTD SVG 1.1//EN" "http://www.w3.org/Graphics/SVG/1.1/DTD/svg11.dtd">
<svg version="1.1" xmlns="http://www.w3.org/2000/svg" xmlns:xlink="http://www.w3.org/1999/xlink" width="24" height="24" viewBox="0 0 24 24">
<path fill="#444444" d="M11.68 1.017l-0.18-0.034-0.18 0.033c-4.821 0.884-8.32 5.084-8.32 9.984 0 4.617 3.108 8.61 7.5 9.795v1.205c0 0.553 0.448 1 1 1s1-0.447 1-1v-1.205c4.392-1.185 7.5-5.178 7.5-9.795 0-4.9-3.499-9.1-8.32-9.983zM12.5 18.7v-11.7c0-0.553-0.448-1-1-1s-1 0.447-1 1v11.7c-3.18-1.093-5.4-4.054-5.49-7.483l3.137 3.137c0.097 0.097 0.225 0.146 0.353 0.146s0.256-0.049 0.354-0.146c0.195-0.195 0.195-0.512 0-0.707l-3.769-3.769c0.133-0.964 0.434-1.877 0.877-2.709l2.184 2.185c0.098 0.097 0.226 0.146 0.354 0.146s0.256-0.049 0.354-0.146c0.195-0.195 0.195-0.512 0-0.707l-2.353-2.353c1.162-1.641 2.919-2.846 4.999-3.275 2.080 0.43 3.837 1.635 4.999 3.275l-2.353 2.353c-0.195 0.195-0.195 0.512 0 0.707 0.098 0.097 0.226 0.146 0.354 0.146s0.256-0.049 0.354-0.146l2.184-2.185c0.444 0.832 0.744 1.745 0.877 2.709l-3.769 3.769c-0.195 0.195-0.195 0.512 0 0.707 0.098 0.098 0.226 0.146 0.354 0.146s0.256-0.049 0.354-0.146l3.137-3.137c-0.091 3.429-2.311 6.39-5.491 7.483z"></path>
</svg>
