<?xml version="1.0" encoding="utf-8"?>
<!-- Generated by IcoMoon.io -->
<!DOCTYPE svg PUBLIC "-//W3C//DTD SVG 1.1//EN" "http://www.w3.org/Graphics/SVG/1.1/DTD/svg11.dtd">
<svg version="1.1" xmlns="http://www.w3.org/2000/svg" xmlns:xlink="http://www.w3.org/1999/xlink" width="40" height="32" viewBox="0 0 40 32">
<path fill="#444444" d="M40 19.438v5.562c0 1.104-0.896 2-2 2h-5.5c0.276 0 0.5-0.224 0.5-0.5s-0.224-0.5-0.5-0.5-0.5 0.224-0.5 0.5 0.224 0.5 0.5 0.5h-30.5c-1.104 0-2-0.896-2-2v-5.5c1.656 0 3-1.344 3-3 0-1.657-1.344-3-3-3v-5.5c0-1.104 0.896-2 2-2h30.5c-0.276 0-0.5 0.224-0.5 0.5s0.224 0.5 0.5 0.5 0.5-0.224 0.5-0.5-0.224-0.5-0.5-0.5h5.5c1.104 0 2 0.896 2 2v5.438c-1.657 0-3 1.343-3 3 0 1.656 1.343 3 3 3zM8.818 13.988h-0.716l-1.922 5.012h0.703l0.55-1.52h2.097l0.583 1.52h0.756l-2.051-5.012zM15.935 15.275c-0.131-0.348-0.329-0.633-0.593-0.856-0.203-0.173-0.448-0.293-0.735-0.359-0.205-0.048-0.503-0.071-0.893-0.071h-1.727v5.011h1.809c0.304 0 0.571-0.028 0.806-0.086 0.233-0.057 0.433-0.141 0.598-0.251s0.318-0.262 0.457-0.454c0.139-0.193 0.253-0.437 0.342-0.73s0.134-0.631 0.134-1.012c-0.001-0.447-0.067-0.844-0.198-1.192zM21.82 13.988h-0.895l-1.203 3.486c-0.121 0.354-0.211 0.621-0.268 0.803-0.051-0.164-0.131-0.411-0.24-0.741l-1.188-3.548h-0.996v5.012h0.641v-4.266l1.448 4.266h0.599l1.462-4.195v4.195h0.641v-5.012zM23.667 13.988h-0.664v5.012h0.664v-5.012zM28.607 13.988h-3.973v0.59h1.652v4.422h0.664v-4.422h1.656v-0.59zM32.5 8c-0.276 0-0.5 0.224-0.5 0.5s0.224 0.5 0.5 0.5 0.5-0.224 0.5-0.5-0.224-0.5-0.5-0.5zM32.5 10c-0.276 0-0.5 0.224-0.5 0.5s0.224 0.5 0.5 0.5 0.5-0.224 0.5-0.5-0.224-0.5-0.5-0.5zM32.5 12c-0.276 0-0.5 0.224-0.5 0.5s0.224 0.5 0.5 0.5 0.5-0.224 0.5-0.5-0.224-0.5-0.5-0.5zM32.5 14c-0.276 0-0.5 0.224-0.5 0.5s0.224 0.5 0.5 0.5 0.5-0.224 0.5-0.5-0.224-0.5-0.5-0.5zM32.5 16c-0.276 0-0.5 0.224-0.5 0.5s0.224 0.5 0.5 0.5 0.5-0.224 0.5-0.5-0.224-0.5-0.5-0.5zM32.5 18c-0.276 0-0.5 0.224-0.5 0.5s0.224 0.5 0.5 0.5 0.5-0.224 0.5-0.5-0.224-0.5-0.5-0.5zM32.5 20c-0.276 0-0.5 0.224-0.5 0.5s0.224 0.5 0.5 0.5 0.5-0.224 0.5-0.5-0.224-0.5-0.5-0.5zM32.5 22c-0.276 0-0.5 0.224-0.5 0.5s0.224 0.5 0.5 0.5 0.5-0.224 0.5-0.5-0.224-0.5-0.5-0.5zM32.5 24c-0.276 0-0.5 0.224-0.5 0.5s0.224 0.5 0.5 0.5 0.5-0.224 0.5-0.5-0.224-0.5-0.5-0.5zM14.949 18.058c-0.112 0.111-0.262 0.198-0.45 0.26s-0.447 0.093-0.777 0.093h-1.070v-3.832h1.053c0.395 0 0.681 0.034 0.858 0.103 0.246 0.096 0.455 0.284 0.627 0.566s0.259 0.685 0.259 1.209c0 0.379-0.044 0.701-0.132 0.967s-0.212 0.476-0.368 0.634zM8.172 15.473c0.116-0.317 0.206-0.637 0.271-0.957 0.078 0.271 0.197 0.617 0.357 1.038l0.521 1.388h-1.697l0.548-1.469z"></path>
</svg>
