<?xml version="1.0" encoding="utf-8"?>
<!-- Generated by IcoMoon.io -->
<!DOCTYPE svg PUBLIC "-//W3C//DTD SVG 1.1//EN" "http://www.w3.org/Graphics/SVG/1.1/DTD/svg11.dtd">
<svg version="1.1" xmlns="http://www.w3.org/2000/svg" xmlns:xlink="http://www.w3.org/1999/xlink" width="24" height="24" viewBox="0 0 24 24">
<path fill="#444444" d="M21.556 11.169l-1.849-1.232 0.984-1.993c0.148-0.3 0.137-0.654-0.030-0.943-0.168-0.29-0.468-0.477-0.802-0.498l-2.218-0.143-0.144-2.218c-0.020-0.334-0.208-0.635-0.497-0.802-0.29-0.167-0.645-0.18-0.943-0.030l-1.991 0.985-1.233-1.849c-0.371-0.557-1.293-0.557-1.664 0l-1.234 1.848-1.992-0.984c-0.299-0.15-0.654-0.137-0.943 0.030s-0.477 0.468-0.498 0.802l-0.143 2.217-2.218 0.143c-0.334 0.022-0.635 0.209-0.802 0.498s-0.179 0.644-0.030 0.943l0.984 1.993-1.849 1.233c-0.278 0.186-0.445 0.498-0.445 0.832s0.167 0.646 0.445 0.832l1.85 1.233-0.985 1.992c-0.148 0.3-0.137 0.654 0.030 0.943s0.468 0.477 0.802 0.498l2.218 0.143 0.143 2.218c0.021 0.333 0.208 0.634 0.498 0.801s0.642 0.179 0.943 0.031l1.992-0.985 1.233 1.849c0.186 0.278 0.498 0.445 0.832 0.445s0.646-0.167 0.832-0.445l1.233-1.849 1.991 0.985c0.299 0.148 0.653 0.136 0.943-0.030s0.477-0.468 0.498-0.802l0.143-2.217 2.219-0.144c0.334-0.021 0.635-0.208 0.802-0.498s0.179-0.644 0.030-0.943l-0.984-1.992 1.849-1.233c0.278-0.186 0.445-0.498 0.445-0.832s-0.167-0.647-0.445-0.832zM17.524 14.166l0.71 1.435-1.6 0.104c-0.502 0.033-0.901 0.432-0.934 0.934l-0.103 1.598-1.435-0.709c-0.45-0.224-0.996-0.077-1.275 0.342l-0.887 1.33-0.889-1.333c-0.191-0.287-0.508-0.445-0.833-0.445-0.149 0-0.3 0.033-0.442 0.104l-1.436 0.709-0.103-1.598c-0.032-0.501-0.432-0.901-0.934-0.934l-1.596-0.103 0.71-1.435c0.223-0.451 0.076-0.997-0.342-1.275l-1.333-0.889 1.332-0.888c0.418-0.279 0.564-0.825 0.342-1.275l-0.71-1.436 1.6-0.103c0.502-0.033 0.901-0.432 0.934-0.934l0.103-1.598 1.435 0.709c0.448 0.221 0.996 0.076 1.275-0.342l0.887-1.331 0.889 1.333c0.279 0.418 0.826 0.563 1.275 0.342l1.436-0.71 0.104 1.599c0.033 0.501 0.433 0.9 0.934 0.933l1.598 0.103-0.709 1.437c-0.223 0.451-0.076 0.996 0.342 1.275l1.332 0.888-1.333 0.889c-0.42 0.277-0.566 0.823-0.344 1.274z"></path>
</svg>
