<?xml version="1.0" encoding="utf-8"?>
<!-- Generated by IcoMoon.io -->
<!DOCTYPE svg PUBLIC "-//W3C//DTD SVG 1.1//EN" "http://www.w3.org/Graphics/SVG/1.1/DTD/svg11.dtd">
<svg version="1.1" xmlns="http://www.w3.org/2000/svg" xmlns:xlink="http://www.w3.org/1999/xlink" width="24" height="24" viewBox="0 0 24 24">
<path fill="#444444" d="M6.563 20.016h10.875q-1.125-3.891-1.125-8.016t1.125-8.016h-10.875q1.125 3.844 1.125 8.016 0 4.125-1.125 8.016zM19.922 21.141q0.094 0.188 0.094 0.281 0 0.563-0.656 0.563h-14.719q-0.656 0-0.656-0.563 0-0.094 0.094-0.281 1.641-4.5 1.641-9.141t-1.641-9.141q-0.094-0.188-0.094-0.281 0-0.563 0.656-0.563h14.719q0.656 0 0.656 0.563 0 0.094-0.094 0.281-1.641 4.5-1.641 9.141t1.641 9.141z"></path>
</svg>
