<?xml version="1.0" encoding="utf-8"?>
<!-- Generated by IcoMoon.io -->
<!DOCTYPE svg PUBLIC "-//W3C//DTD SVG 1.1//EN" "http://www.w3.org/Graphics/SVG/1.1/DTD/svg11.dtd">
<svg version="1.1" xmlns="http://www.w3.org/2000/svg" xmlns:xlink="http://www.w3.org/1999/xlink" width="24" height="24" viewBox="0 0 24 24">
<path fill="#444444" d="M22 6c0-0.801-0.312-1.555-0.879-2.121-0.566-0.567-1.32-0.879-2.121-0.879s-1.555 0.312-2.121 0.879l-0.883 0.883c-0.531-0.474-1.23-0.762-1.996-0.762-0.919 0-1.732 0.424-2.283 1.077-0.212-0.047-0.431-0.077-0.656-0.077h-6.061v6.060c0 0.255 0.042 0.499 0.102 0.736-0.598 0.549-0.98 1.33-0.98 2.204 0 0.735 0.266 1.409 0.705 1.931l-0.947 0.948c-0.568 0.566-0.88 1.32-0.88 2.121s0.312 1.555 0.879 2.121c0.566 0.567 1.32 0.879 2.121 0.879 0.539 0 1.334-0.152 2.061-0.879l0.903-0.919c0.535 0.495 1.251 0.798 2.036 0.798 0.934 0 1.758-0.437 2.309-1.107 0.241 0.063 0.49 0.107 0.752 0.107h5.939v-6.061c0-0.226-0.029-0.444-0.077-0.656 0.653-0.55 1.077-1.364 1.077-2.283 0-0.766-0.288-1.465-0.762-1.996l0.883-0.883c0.567-0.566 0.879-1.32 0.879-2.121zM7 7h4c0.553 0 1 0.448 1 1s-0.447 1-1 1h-2v2c0 0.552-0.448 1-1 1-0.553 0-1-0.448-1-1v-4zM19.707 6.707l-3.293 3.293h1.586c0.553 0 1 0.448 1 1s-0.448 1-1 1h-5v-5c0-0.552 0.447-1 1-1s1 0.448 1 1v1.586l3.293-3.293c0.195-0.195 0.451-0.293 0.707-0.293s0.512 0.098 0.707 0.293c0.391 0.391 0.391 1.023 0 1.414zM12 18c0 0.552-0.447 1-1 1s-1-0.448-1-1v-1.707l-3.354 3.414c-0.195 0.195-0.39 0.293-0.646 0.293s-0.512-0.098-0.707-0.293c-0.391-0.391-0.391-1.023 0-1.414l3.293-3.293h-1.465c-0.553 0-1-0.448-1-1s0.447-1 1-1h4.879v5zM12 12h-2.278c0.173-0.295 0.278-0.634 0.278-1v-1h1.061c0.342 0 0.658-0.094 0.939-0.245v2.245zM13 13h2.713c-0.433 0.094-0.713 0.33-0.713 0.939v1.061h-0.939c-0.391 0-0.752 0.117-1.061 0.311v-2.311zM13.061 17c0-0.552 0.447-1 1-1h1.939v-2c0-0.552 0.447-1 1-1s1 0.448 1 1v4h-3.939c-0.553 0-1-0.448-1-1z"></path>
</svg>
