<?xml version="1.0" encoding="utf-8"?>
<!-- Generated by IcoMoon.io -->
<!DOCTYPE svg PUBLIC "-//W3C//DTD SVG 1.1//EN" "http://www.w3.org/Graphics/SVG/1.1/DTD/svg11.dtd">
<svg version="1.1" xmlns="http://www.w3.org/2000/svg" xmlns:xlink="http://www.w3.org/1999/xlink" width="18" height="18" viewBox="0 0 18 18">
<path fill="#444444" d="M17 3h-4v-1c0-0.552-0.448-1-1-1h-6c-0.552 0-1 0.448-1 1v1h-4c-0.552 0-1 0.448-1 1v8c0 0.552 0.448 1 1 1h2v3c0 0.552 0.448 1 1 1h10c0.552 0 1-0.448 1-1v-3h2c0.552 0 1-0.448 1-1v-8c0-0.552-0.448-1-1-1zM13 15h-8v-4h8v4zM16 10.5c0 0.276-0.224 0.5-0.5 0.5h-0.5v-1c0-0.552-0.448-1-1-1h-10c-0.552 0-1 0.448-1 1v1h-0.5c-0.276 0-0.5-0.224-0.5-0.5v-5c0-0.276 0.224-0.5 0.5-0.5h13c0.276 0 0.5 0.224 0.5 0.5v5z"></path>
</svg>
