<?xml version="1.0" encoding="utf-8"?>
<!-- Generated by IcoMoon.io -->
<!DOCTYPE svg PUBLIC "-//W3C//DTD SVG 1.1//EN" "http://www.w3.org/Graphics/SVG/1.1/DTD/svg11.dtd">
<svg version="1.1" xmlns="http://www.w3.org/2000/svg" xmlns:xlink="http://www.w3.org/1999/xlink" width="24" height="24" viewBox="0 0 24 24">
<path fill="#444444" d="M12 0c-6.627 0-12 5.373-12 12s5.373 12 12 12 12-5.373 12-12-5.373-12-12-12zM12 22c-5.514 0-10-4.486-10-10s4.486-10 10-10 10 4.486 10 10-4.486 10-10 10zM16.447 5.105c-0.494-0.246-1.095-0.046-1.342 0.447l-3.379 6.759-2.020-2.019c-0.391-0.391-1.023-0.391-1.414 0s-0.391 1.023 0 1.414l3 3c0.19 0.19 0.444 0.294 0.708 0.294 0.053 0 0.107-0.004 0.16-0.013 0.317-0.052 0.59-0.253 0.734-0.54l4-8c0.248-0.494 0.047-1.094-0.447-1.342zM11.002 18.998h2v1.002h-2zM11.002 3h2v1.002h-2zM3 10.998h2v1.002h-2zM18.998 10.998h2v1.002h-2z"></path>
</svg>
