<?xml version="1.0" encoding="utf-8"?>
<!-- Generated by IcoMoon.io -->
<!DOCTYPE svg PUBLIC "-//W3C//DTD SVG 1.1//EN" "http://www.w3.org/Graphics/SVG/1.1/DTD/svg11.dtd">
<svg version="1.1" xmlns="http://www.w3.org/2000/svg" xmlns:xlink="http://www.w3.org/1999/xlink" width="48" height="48" viewBox="0 0 48 48">
<path fill="#444444" d="M7 44c0 2.21 1.79 4 4 4h25c2.21 0 4-1.79 4-4l-0-36c0-2.21-1.79-4-4-4h-5v-1.8c0-1.22-0.98-2.2-2.2-2.2h-10.6c-1.22 0-2.2 0.98-2.2 2.2v1.8h-5c-2.21 0-4 1.79-4 4v36zM14.2 35h18.6c1.22 0 2.2 0.98 2.2 2.2v3.6c0 1.22-0.98 2.2-2.2 2.2h-18.6c-1.22 0-2.2-0.98-2.2-2.2v-3.6c0-1.22 0.98-2.2 2.2-2.2z"></path>
</svg>
