<?xml version="1.0" encoding="utf-8"?>
<!-- Generated by IcoMoon.io -->
<!DOCTYPE svg PUBLIC "-//W3C//DTD SVG 1.1//EN" "http://www.w3.org/Graphics/SVG/1.1/DTD/svg11.dtd">
<svg version="1.1" xmlns="http://www.w3.org/2000/svg" xmlns:xlink="http://www.w3.org/1999/xlink" width="48" height="48" viewBox="0 0 48 48">
<path fill="#444444" d="M0 43c0 2.21 1.79 4 4 4h13c2.21 0 4-1.79 4-4l-0-16c0-2.21-1.79-4-4-4h-6.42c-1.11 0-2-0.9-2-2 0-0.36 0.090-0.61 0.090-0.61 1.46-4.84 5.149-8.72 9.88-10.44l0.020-0.020c1.43-0.61 2.43-2.030 2.43-3.68 0-2.21-1.79-4-4-4-0.54 0-1.050 0.11-1.52 0.3l-0.18 0.070c-8.95 3.49-15.3 12.19-15.3 22.38v18zM26 43c0 2.21 1.79 4 4 4h13c2.21 0 4-1.79 4-4l-0-16c0-2.21-1.79-4-4-4h-6.42c-1.11 0-2-0.9-2-2 0-0.37 0.090-0.61 0.090-0.61 1.46-4.84 5.149-8.72 9.88-10.44l0.020-0.020c1.43-0.61 2.43-2.030 2.43-3.68 0-2.21-1.79-4-4-4-0.54 0-1.050 0.11-1.52 0.3l-0.18 0.070c-8.95 3.49-15.3 12.19-15.3 22.38v18z"></path>
</svg>
