<?xml version="1.0" encoding="utf-8"?>
<!-- Generated by IcoMoon.io -->
<!DOCTYPE svg PUBLIC "-//W3C//DTD SVG 1.1//EN" "http://www.w3.org/Graphics/SVG/1.1/DTD/svg11.dtd">
<svg version="1.1" xmlns="http://www.w3.org/2000/svg" xmlns:xlink="http://www.w3.org/1999/xlink" width="24" height="24" viewBox="0 0 24 24">
<path fill="#444444" d="M12 21c-1.654 0-3-1.346-3-3l0.053-3.053-3.035 0.053c-1.672 0-3.018-1.346-3.018-3s1.346-3 3-3l3.053-0.054-0.053-2.928c0-1.672 1.346-3.018 3-3.018s3 1.346 3 3l0.055 2.946 2.963 0.054c1.636 0 2.982 1.346 2.982 3s-1.346 3-3 3l-2.945-0.053-0.055 3.071c0 1.636-1.346 2.982-3 2.982zM11 13v5.018c0 0.533 0.449 0.982 1 0.982s1-0.449 1-1v-5h5.018c0.533 0 0.982-0.449 0.982-1s-0.449-1-1-1h-5v-5c0-0.569-0.449-1-1-1s-1 0.449-1 1v5h-5c-0.569 0-1 0.449-1 1s0.449 1 1 1h5z"></path>
</svg>
