<?xml version="1.0" encoding="utf-8"?>
<!-- Generated by IcoMoon.io -->
<!DOCTYPE svg PUBLIC "-//W3C//DTD SVG 1.1//EN" "http://www.w3.org/Graphics/SVG/1.1/DTD/svg11.dtd">
<svg version="1.1" xmlns="http://www.w3.org/2000/svg" xmlns:xlink="http://www.w3.org/1999/xlink" width="28" height="32" viewBox="0 0 28 32">
<path fill="#444444" d="M26 6c-1 0-10.5 0-11 0s-1-0.5-1-1 0 0 0-1-1-2-2-2-9 0-10 0-2 1-2 2 0 22 0 22h28s0-17 0-18-1-2-2-2zM12 6h-10s0-0.469 0-1 0.5-1 1-1 7.531 0 8 0 1 0.469 1 1 0 1 0 1z"></path>
</svg>
