<?xml version="1.0" encoding="utf-8"?>
<!-- Generated by IcoMoon.io -->
<!DOCTYPE svg PUBLIC "-//W3C//DTD SVG 1.1//EN" "http://www.w3.org/Graphics/SVG/1.1/DTD/svg11.dtd">
<svg version="1.1" xmlns="http://www.w3.org/2000/svg" xmlns:xlink="http://www.w3.org/1999/xlink" width="12" height="32" viewBox="0 0 12 32">
<path fill="#444444" d="M0 4v24l6-4 6 4v-24h-12zM9.883 10.148l-2.246 1.623 0.85 2.606c0.086 0.262-0.021 0.346-0.236 0.206l-2.25-1.628-2.25 1.626c-0.214 0.14-0.322 0.056-0.236-0.206l0.851-2.606-2.246-1.621c-0.202-0.16-0.156-0.288 0.122-0.288l2.75-0.004 0.848-2.597c0.088-0.275 0.236-0.275 0.324 0l0.85 2.597 2.748 0.004c0.279 0 0.324 0.128 0.123 0.288z"></path>
</svg>
