<?xml version="1.0" encoding="utf-8"?>
<!-- Generated by IcoMoon.io -->
<!DOCTYPE svg PUBLIC "-//W3C//DTD SVG 1.1//EN" "http://www.w3.org/Graphics/SVG/1.1/DTD/svg11.dtd">
<svg version="1.1" xmlns="http://www.w3.org/2000/svg" xmlns:xlink="http://www.w3.org/1999/xlink" width="38" height="32" viewBox="0 0 38 32">
<path fill="#444444" d="M20.060 0.413c-0.58-0.533-1.539-0.533-2.119 0l-17.688 10.671c-0.15 0.091-0.242 0.253-0.242 0.428v18.922c0 0.863 0.706 1.566 1.574 1.566h34.83c0.868 0 1.574-0.703 1.574-1.566v-18.922c0-0.175-0.092-0.337-0.242-0.428l-17.687-10.671zM18.504 1.24c0.035-0.021 0.066-0.046 0.095-0.074 0.108-0.107 0.25-0.166 0.401-0.166s0.293 0.059 0.4 0.166c0.029 0.028 0.061 0.053 0.095 0.074l17.227 10.394-12.478 7.436c-0.237 0.142-0.315 0.448-0.174 0.686 0.094 0.157 0.26 0.244 0.43 0.244 0.087 0 0.175-0.022 0.255-0.070l12.245-7.29v17.757l-16.935-11.266c-0.538-0.429-1.594-0.429-2.096-0.025l-16.969 11.286v-17.752l12.244 7.29c0.080 0.048 0.169 0.070 0.256 0.070 0.17 0 0.336-0.087 0.43-0.244 0.141-0.237 0.063-0.544-0.174-0.686l-12.479-7.436 17.227-10.394zM36.090 31h-34.188l16.656-11.086c0.173-0.138 0.712-0.137 0.919 0.025l16.613 11.061zM6.5 13h25c0.276 0 0.5-0.224 0.5-0.5s-0.224-0.5-0.5-0.5h-25c-0.276 0-0.5 0.224-0.5 0.5s0.224 0.5 0.5 0.5z"></path>
</svg>
