<?xml version="1.0" encoding="utf-8"?>
<!-- Generated by IcoMoon.io -->
<!DOCTYPE svg PUBLIC "-//W3C//DTD SVG 1.1//EN" "http://www.w3.org/Graphics/SVG/1.1/DTD/svg11.dtd">
<svg version="1.1" xmlns="http://www.w3.org/2000/svg" xmlns:xlink="http://www.w3.org/1999/xlink" width="35" height="32" viewBox="0 0 35 32">
<path fill="#444444" d="M21.254 17.031c0 0 0.479-6.444-5.427-7.179-5.062-0.517-6.602 4.187-6.602 4.187s-1.524-1.466-3.592-0.269c-1.851 1.143-1.523 3.234-1.523 3.234s-4.11 0.799-4.11 4.99c0.113 4.256 4.437 4.15 4.437 4.15l16.173 0.043c0 0 3.871 0.045 4.576-3.943 0.273-4.353-3.932-5.213-3.932-5.213zM31.254 13.032c0 0 0.479-6.444-5.426-7.18-5.062-0.517-6.664 4.249-6.664 4.249s2.949 1.711 3.074 6.336c1.875 0.563 3.873 2.11 3.936 5.735l4.436 0.016c0 0 3.871 0.045 4.576-3.943 0.273-4.355-3.932-5.213-3.932-5.213z"></path>
</svg>
