<?xml version="1.0" encoding="utf-8"?>
<!-- Generated by IcoMoon.io -->
<!DOCTYPE svg PUBLIC "-//W3C//DTD SVG 1.1//EN" "http://www.w3.org/Graphics/SVG/1.1/DTD/svg11.dtd">
<svg version="1.1" xmlns="http://www.w3.org/2000/svg" xmlns:xlink="http://www.w3.org/1999/xlink" width="24" height="24" viewBox="0 0 24 24">
<path fill="#444444" d="M21.171 15.398l-5.912-9.854c-0.776-1.293-1.963-2.033-3.259-2.033s-2.483 0.74-3.259 2.031l-5.912 9.856c-0.786 1.309-0.872 2.705-0.235 3.83 0.636 1.126 1.878 1.772 3.406 1.772h12c1.528 0 2.77-0.646 3.406-1.771 0.637-1.125 0.551-2.521-0.235-3.831zM12 8.449c0.854 0.002 1.549 0.698 1.551 1.55 0 0.853-0.695 1.549-1.55 1.551-0.854-0.002-1.55-0.698-1.552-1.55 0-0.855 0.696-1.551 1.551-1.551zM13.69 16.91c-0.032 0.037-0.795 0.918-2.068 0.918-0.051 0-0.103-0.001-0.154-0.004-0.508-0.030-0.928-0.255-1.185-0.634-0.315-0.465-0.358-1.113-0.121-1.825l0.406-1.221c0.225-0.683 0.010-0.792-0.106-0.85-0.031-0.016-0.080-0.025-0.14-0.025-0.251 0-0.597 0.148-0.708 0.206-0.104 0.054-0.235 0.026-0.311-0.067-0.073-0.095-0.071-0.227 0.007-0.318 0.033-0.039 0.867-0.995 2.223-0.914 0.505 0.029 0.925 0.253 1.182 0.631 0.316 0.465 0.36 1.114 0.124 1.828l-0.406 1.221c-0.227 0.682-0.010 0.792 0.106 0.85 0.020 0.010 0.062 0.023 0.137 0.023 0.254 0 0.6-0.148 0.712-0.205 0.106-0.056 0.235-0.026 0.31 0.068 0.072 0.095 0.070 0.227-0.008 0.318z"></path>
</svg>
