<?xml version="1.0" encoding="utf-8"?>
<!-- Generated by IcoMoon.io -->
<!DOCTYPE svg PUBLIC "-//W3C//DTD SVG 1.1//EN" "http://www.w3.org/Graphics/SVG/1.1/DTD/svg11.dtd">
<svg version="1.1" xmlns="http://www.w3.org/2000/svg" xmlns:xlink="http://www.w3.org/1999/xlink" width="24" height="24" viewBox="0 0 24 24">
<path fill="#444444" d="M20.785 3.193c-6.041-0.859-12.071-0.861-18.126 0.002-1.565 0.234-2.659 1.715-2.659 3.303v11c0 1.588 0.908 3.070 2.482 3.306 3.021 0.43 5.916 0.647 8.968 0.647s6.406-0.218 9.434-0.648c1.567-0.235 3.116-1.717 3.116-3.305v-10.998c0-1.588-1.639-3.070-3.215-3.307zM2 6.5c0-0.605 0.178-1.238 0.764-1.326 2.642-0.375 5.186-0.575 7.829-0.612l-3.919 6.956h-4.674v-5.018zM22 17.498c0 0.605-0.908 1.237-1.496 1.325-5.855 0.833-11.709 0.831-17.549 0.001-0.596-0.089-0.955-0.72-0.955-1.326v-3.98h5.861l1.771-2.758 0.849 7.18 5.142-4.422h6.377v3.98zM22 11.518h-7.088l-2.858 2.813-1.091-9.776c0.164-0.001 0.323-0.009 0.487-0.009 2.958 0 6.218 0.212 9.138 0.626 0.596 0.090 1.412 0.722 1.412 1.326v5.020zM16.002 6.998h0.996v1.002h-0.996zM18 6.998h1.002v1.002h-1.002z"></path>
</svg>
