<?xml version="1.0" encoding="utf-8"?>
<!-- Generated by IcoMoon.io -->
<!DOCTYPE svg PUBLIC "-//W3C//DTD SVG 1.1//EN" "http://www.w3.org/Graphics/SVG/1.1/DTD/svg11.dtd">
<svg version="1.1" xmlns="http://www.w3.org/2000/svg" xmlns:xlink="http://www.w3.org/1999/xlink" width="32" height="32" viewBox="0 0 32 32">
<path fill="#444444" d="M27.313 27.313c-6.248 6.249-16.379 6.249-22.627 0-6.249-6.248-6.249-16.379 0-22.627 6.248-6.249 16.379-6.249 22.627 0 6.249 6.249 6.249 16.379 0 22.627zM7.515 24.485c4.203 4.203 10.743 4.624 15.429 1.287l-16.716-16.716c-3.337 4.686-2.916 11.225 1.287 15.429zM24.485 7.515c-4.203-4.203-10.743-4.624-15.428-1.287l16.716 16.715c3.336-4.685 2.915-11.225-1.288-15.428z"></path>
</svg>
