<?xml version="1.0" encoding="UTF-8"?>
<!DOCTYPE svg PUBLIC "-//W3C//DTD SVG 1.1//EN" "http://www.w3.org/Graphics/SVG/1.1/DTD/svg11.dtd">
<!-- Creator: CorelDRAW X8 -->
<svg xmlns="http://www.w3.org/2000/svg" xml:space="preserve" width="5.68814in" height="3.20028in" version="1.1" style="shape-rendering:geometricPrecision; text-rendering:geometricPrecision; image-rendering:optimizeQuality; fill-rule:evenodd; clip-rule:evenodd"
viewBox="0 0 10806 6080"
 xmlns:xlink="http://www.w3.org/1999/xlink">
 <defs>
  <style type="text/css">
   <![CDATA[
    .fil0 {fill:black}
   ]]>
  </style>
 </defs>
 <g id="Layer_x0020_1">
  <metadata id="CorelCorpID_0Corel-Layer"/>
  <g id="_133441748384">
   <path class="fil0" d="M3357 2744c-341,8 -719,320 -935,544 -552,571 -568,1642 64,2269 300,299 674,523 1145,523l5763 0c432,0 769,-165 987,-385 128,-129 212,-226 294,-403 449,-969 -329,-1935 -1217,-1935 -45,-530 -200,-865 -491,-1156 -146,-146 -274,-256 -473,-351 -299,-142 -495,-161 -831,-161 -201,0 -321,81 -485,84 -27,-113 -192,-321 -268,-408 -9,-11 -30,-34 -40,-44l-130 -123c-272,-276 -826,-522 -1209,-522 -689,0 -1126,147 -1599,617 -314,311 -575,832 -575,1451z"/>
   <path class="fil0" d="M1330 2069c-535,12 -1330,768 -1330,1478l0 25c0,517 4,675 312,1140 63,96 111,133 189,212 173,175 472,354 723,418 107,27 229,37 338,62 -3,-143 -616,-1252 238,-2401 58,-77 123,-166 189,-233 85,-85 145,-131 233,-210l396 -259c172,-81 105,-57 166,-277 55,-198 81,-282 178,-476 186,-368 454,-721 783,-970 101,-76 444,-297 562,-325 -87,-118 -621,-253 -845,-253 -410,0 -620,34 -971,190 -649,289 -1161,1045 -1161,1879z"/>
  </g>
 </g>
</svg>
