<?xml version="1.0" encoding="utf-8"?>
<!-- Generated by IcoMoon.io -->
<!DOCTYPE svg PUBLIC "-//W3C//DTD SVG 1.1//EN" "http://www.w3.org/Graphics/SVG/1.1/DTD/svg11.dtd">
<svg version="1.1" xmlns="http://www.w3.org/2000/svg" xmlns:xlink="http://www.w3.org/1999/xlink" width="24" height="24" viewBox="0 0 24 24">
<path fill="#444444" d="M15 19c-1.342 0-2.685-0.511-3.707-1.532-1.266-1.265-3.323-1.264-4.586 0-0.391 0.391-1.023 0.391-1.414 0s-0.391-1.023 0-1.414c2.043-2.043 5.369-2.043 7.414 0 1.265 1.264 3.322 1.263 4.586 0 0.391-0.391 1.023-0.391 1.414 0s0.391 1.023 0 1.414c-1.021 1.021-2.364 1.532-3.707 1.532z"></path>
<path fill="#444444" d="M15 15c-1.342 0-2.685-0.511-3.707-1.532-1.266-1.265-3.323-1.264-4.586 0-0.391 0.391-1.023 0.391-1.414 0s-0.391-1.023 0-1.414c2.043-2.043 5.369-2.043 7.414 0 1.265 1.264 3.322 1.263 4.586 0 0.391-0.391 1.023-0.391 1.414 0s0.391 1.023 0 1.414c-1.021 1.021-2.364 1.532-3.707 1.532z"></path>
<path fill="#444444" d="M15 11c-1.342 0-2.685-0.511-3.707-1.532-1.266-1.265-3.323-1.264-4.586 0-0.391 0.391-1.023 0.391-1.414 0s-0.391-1.023 0-1.414c2.043-2.042 5.369-2.044 7.414 0 1.265 1.264 3.322 1.263 4.586 0 0.391-0.391 1.023-0.391 1.414 0s0.391 1.023 0 1.414c-1.021 1.021-2.364 1.532-3.707 1.532z"></path>
</svg>
