<?xml version="1.0" encoding="utf-8"?>
<!-- Generated by IcoMoon.io -->
<!DOCTYPE svg PUBLIC "-//W3C//DTD SVG 1.1//EN" "http://www.w3.org/Graphics/SVG/1.1/DTD/svg11.dtd">
<svg version="1.1" xmlns="http://www.w3.org/2000/svg" xmlns:xlink="http://www.w3.org/1999/xlink" width="48" height="48" viewBox="0 0 48 48">
<path fill="#444444" d="M8 13.5v5c0 1.38 1.12 2.5 2.5 2.5s2.5-1.12 2.5-2.5v-5c0-1.38-1.12-2.5-2.5-2.5s-2.5 1.12-2.5 2.5zM17 13.5v5c0 1.38 1.12 2.5 2.5 2.5s2.5-1.12 2.5-2.5v-5c0-1.38-1.12-2.5-2.5-2.5s-2.5 1.12-2.5 2.5zM26 13.5v5c0 1.38 1.12 2.5 2.5 2.5s2.5-1.12 2.5-2.5v-5c0-1.38-1.12-2.5-2.5-2.5s-2.5 1.12-2.5 2.5zM35 13.5v5c0 1.38 1.12 2.5 2.5 2.5s2.5-1.12 2.5-2.5v-5c0-1.38-1.12-2.5-2.5-2.5s-2.5 1.12-2.5 2.5zM0 44c0 2.21 1.79 4 4 4h40c2.21 0 4-1.79 4-4l-0-40c0-2.21-1.79-4-4-4h-40c-2.21 0-4 1.79-4 4v40zM7.2 8h33.6c1.22 0 2.2 0.98 2.2 2.2v15.6c0 1.22-0.98 2.2-2.2 2.2h-2.8v3.8c0 1.22-0.98 2.2-2.2 2.2h-5.8v3.8c0 1.22-0.98 2.2-2.2 2.2h-7.6c-1.22 0-2.2-0.98-2.2-2.2l0-3.8h-5.8c-1.22 0-2.2-0.98-2.2-2.2l0-3.8h-2.8c-1.22 0-2.2-0.98-2.2-2.2v-15.6c0-1.22 0.98-2.2 2.2-2.2z"></path>
</svg>
