<?xml version="1.0" encoding="utf-8"?>
<!-- Generated by IcoMoon.io -->
<!DOCTYPE svg PUBLIC "-//W3C//DTD SVG 1.1//EN" "http://www.w3.org/Graphics/SVG/1.1/DTD/svg11.dtd">
<svg version="1.1" xmlns="http://www.w3.org/2000/svg" xmlns:xlink="http://www.w3.org/1999/xlink" width="32" height="32" viewBox="0 0 32 32">
<path fill="#444444" d="M21.305 9.405c0.533-0.144 0.85-0.691 0.707-1.225s-0.691-0.851-1.225-0.707l-10.091 3.105c-0.534 0.143-0.85 0.691-0.708 1.225 0.143 0.533 0.691 0.851 1.225 0.707l0.833-0.256 0.954 1.738h-1c-1.104 0-2 0.896-2 2v4.167l2 2.833h8l2-2.833v-4.167c0-1.104-0.896-2-2-2h-1l2.015-4.498 0.29-0.089zM17 13.992h-2l-1.243-2.264 4.938-1.52-1.695 3.784zM20.787 4.474l-10.091 3.105c-0.534 0.143-0.85 0.691-0.708 1.225 0.143 0.533 0.691 0.851 1.225 0.707l10.091-3.105c0.533-0.144 0.85-0.691 0.707-1.225s-0.691-0.851-1.224-0.707zM11.213 6.511l10.091-3.105c0.533-0.144 0.85-0.691 0.707-1.225s-0.691-0.851-1.225-0.707l-10.090 3.105c-0.534 0.143-0.85 0.691-0.708 1.225 0.143 0.533 0.692 0.85 1.225 0.707zM19.5 23.992h-7c-0.276 0-0.5 0.224-0.5 0.5s0.224 0.5 0.5 0.5h7c0.275 0 0.5-0.224 0.5-0.5s-0.225-0.5-0.5-0.5zM19.5 25.992h-7c-0.276 0-0.5 0.224-0.5 0.5s0.224 0.5 0.5 0.5h7c0.275 0 0.5-0.224 0.5-0.5s-0.225-0.5-0.5-0.5zM19.5 27.992h-7c-0.276 0-0.5 0.224-0.5 0.5s0.224 0.5 0.5 0.5h7c0.275 0 0.5-0.224 0.5-0.5s-0.225-0.5-0.5-0.5zM14.5 29.992c-0.101 0.822 0.672 1.5 1.5 1.5s1.5-0.672 1.5-1.5c0 0.043-3 0.106-3 0zM11.271 3.556l6.68-2.093c0.527-0.165 0.82-0.727 0.655-1.253-0.165-0.527-0.726-0.821-1.253-0.656l-6.68 2.093c-0.527 0.165-0.82 0.727-0.655 1.254s0.726 0.82 1.253 0.655z"></path>
</svg>
