<?xml version="1.0" encoding="utf-8"?>
<!-- Generated by IcoMoon.io -->
<!DOCTYPE svg PUBLIC "-//W3C//DTD SVG 1.1//EN" "http://www.w3.org/Graphics/SVG/1.1/DTD/svg11.dtd">
<svg version="1.1" xmlns="http://www.w3.org/2000/svg" xmlns:xlink="http://www.w3.org/1999/xlink" width="24" height="24" viewBox="0 0 24 24">
<path fill="#444444" d="M13 12h-5c-0.275 0-0.5-0.225-0.5-0.5s0.225-0.5 0.5-0.5h5c0.275 0 0.5 0.225 0.5 0.5s-0.225 0.5-0.5 0.5z"></path>
<path fill="#444444" d="M19.381 15.956l-2.245-2.283c0.228-0.687 0.364-1.412 0.364-2.173 0-3.859-3.141-7-7-7s-7 3.141-7 7 3.141 7 7 7c0.761 0 1.488-0.137 2.173-0.364l2.397 2.386c0.601 0.506 1.348 0.783 2.104 0.783 1.727 0 3.131-1.404 3.131-3.131 0-0.84-0.328-1.628-0.924-2.218zM15.48 14.846l2.492 2.531c0.205 0.203 0.332 0.486 0.332 0.797 0 0.625-0.507 1.131-1.131 1.131-0.312 0-0.594-0.127-0.816-0.313l-2.512-2.511c0.646-0.436 1.201-0.991 1.635-1.635zM5.5 11.5c0-2.757 2.243-5 5-5s5 2.243 5 5-2.243 5-5 5-5-2.243-5-5z"></path>
</svg>
