<?xml version="1.0" encoding="utf-8"?>
<!-- Generated by IcoMoon.io -->
<!DOCTYPE svg PUBLIC "-//W3C//DTD SVG 1.1//EN" "http://www.w3.org/Graphics/SVG/1.1/DTD/svg11.dtd">
<svg version="1.1" xmlns="http://www.w3.org/2000/svg" xmlns:xlink="http://www.w3.org/1999/xlink" width="32" height="32" viewBox="0 0 32 32">
<path fill="#444444" d="M27 29h-4v-21h4c1.104 0 2 0.896 2 2v17c0 1.104-0.896 2-2 2zM10 8v0-2c0-1.105 0.896-2 2-2h7c1.104 0 2 0.895 2 2v23h-11v-21zM12 8h7c0 0 0-0.448 0-1 0-0.553-0.448-1-1-1h-5c-0.553 0-1 0.447-1 1 0 0.552 0 1 0 1zM2 27v-17c0-1.104 0.896-2 2-2h4v21h-4c-1.104 0-2-0.896-2-2z"></path>
</svg>
