<?xml version="1.0" encoding="utf-8"?>
<!-- Generated by IcoMoon.io -->
<!DOCTYPE svg PUBLIC "-//W3C//DTD SVG 1.1//EN" "http://www.w3.org/Graphics/SVG/1.1/DTD/svg11.dtd">
<svg version="1.1" xmlns="http://www.w3.org/2000/svg" xmlns:xlink="http://www.w3.org/1999/xlink" width="32" height="32" viewBox="0 0 32 32">
<path fill="#444444" d="M7 12h-6c-0.553 0-1 0.447-1 1v6c0 0.553 0.447 1 1 1h6c0.553 0 1-0.447 1-1v-6c0-0.553-0.447-1-1-1zM6 17c0 0.553-0.447 1-1 1h-2c-0.553 0-1-0.447-1-1v-2c0-0.553 0.447-1 1-1h2c0.553 0 1 0.447 1 1v2zM7 0h-6c-0.553 0-1 0.447-1 1v6c0 0.553 0.447 1 1 1h6c0.553 0 1-1.447 1-2v-5c0-0.553-0.447-1-1-1zM6 5c0 0.553-0.447 1-1 1h-2c-0.553 0-1-0.447-1-1v-2c0-0.553 0.447-1 1-1h2c0.553 0 1 0.447 1 1v2zM7 24h-6c-0.553 0-1 0.447-1 1v6c0 0.553 0.447 1 1 1h6c0.553 0 1-0.447 1-1v-6c0-0.553-0.447-1-1-1zM6 29c0 0.553-0.447 1-1 1h-2c-0.553 0-1-0.447-1-1v-2c0-0.553 0.447-1 1-1h2c0.553 0 1 0.447 1 1v2zM19 12h-6c-0.553 0-1 0.447-1 1v6c0 0.553 0.447 1 1 1h6c0.553 0 1-0.447 1-1v-6c0-0.553-0.447-1-1-1zM18 17c0 0.553-0.447 1-1 1h-2c-0.553 0-1-0.447-1-1v-2c0-0.553 0.447-1 1-1h2c0.553 0 1 0.447 1 1v2zM19 24h-6c-0.553 0-1 0.447-1 1v6c0 0.553 0.447 1 1 1h6c0.553 0 1-0.447 1-1v-6c0-0.553-0.447-1-1-1zM18 29c0 0.553-0.447 1-1 1h-2c-0.553 0-1-0.447-1-1v-2c0-0.553 0.447-1 1-1h2c0.553 0 1 0.447 1 1v2zM31 12h-6c-0.553 0-1 0.447-1 1v6c0 0.553 0.447 1 1 1h6c0.553 0 1-0.447 1-1v-6c0-0.553-0.447-1-1-1zM30 17c0 0.553-0.447 1-1 1h-2c-0.553 0-1-0.447-1-1v-2c0-0.553 0.447-1 1-1h2c0.553 0 1 0.447 1 1v2zM31 0h-6c-0.553 0-1 0.447-1 1v6c0 0.553 0.447 1 1 1h6c0.553 0 1-1.447 1-2v-5c0-0.553-0.447-1-1-1zM30 5c0 0.553-0.447 1-1 1h-2c-0.553 0-1-0.447-1-1v-2c0-0.553 0.447-1 1-1h2c0.553 0 1 0.447 1 1v2zM19 0h-6c-0.553 0-1 0.447-1 1v6c0 0.553 0.447 1 1 1h6c0.553 0 1-1.447 1-2v-5c0-0.553-0.447-1-1-1zM18 5c0 0.553-0.447 1-1 1h-2c-0.553 0-1-0.447-1-1v-2c0-0.553 0.447-1 1-1h2c0.553 0 1 0.447 1 1v2zM31 24h-6c-0.553 0-1 0.447-1 1v6c0 0.553 0.447 1 1 1h6c0.553 0 1-0.447 1-1v-6c0-0.553-0.447-1-1-1zM30 29c0 0.553-0.447 1-1 1h-2c-0.553 0-1-0.447-1-1v-2c0-0.553 0.447-1 1-1h2c0.553 0 1 0.447 1 1v2z"></path>
</svg>
