<?xml version="1.0" encoding="utf-8"?>
<!-- Generated by IcoMoon.io -->
<!DOCTYPE svg PUBLIC "-//W3C//DTD SVG 1.1//EN" "http://www.w3.org/Graphics/SVG/1.1/DTD/svg11.dtd">
<svg version="1.1" xmlns="http://www.w3.org/2000/svg" xmlns:xlink="http://www.w3.org/1999/xlink" width="42" height="32" viewBox="0 0 42 32">
<path fill="#444444" d="M37 29c1.196 0 2-0.804 2-2v-26.5c0-0.276-0.224-0.5-0.5-0.5s-0.5 0.224-0.5 0.5v26.5c0 0.87-0.627 1-1 1-0.103 0-1-0.028-1-1v-26.5c0-0.276-0.224-0.5-0.5-0.5s-0.5 0.224-0.5 0.5v26.5c0 1.313 1.006 2 2 2zM4.5 21h10c0.276 0 0.5-0.224 0.5-0.5v-9c0-0.276-0.224-0.5-0.5-0.5h-10c-0.276 0-0.5 0.224-0.5 0.5v9c0 0.276 0.224 0.5 0.5 0.5zM5 12h9v8h-9v-8zM4.5 8h24c0.276 0 0.5-0.224 0.5-0.5v-4c0-0.276-0.224-0.5-0.5-0.5h-24c-0.276 0-0.5 0.224-0.5 0.5v4c0 0.276 0.224 0.5 0.5 0.5zM5 4h23v3h-23v-3zM28.5 11h-10c-0.276 0-0.5 0.224-0.5 0.5s0.224 0.5 0.5 0.5h10c0.276 0 0.5-0.224 0.5-0.5s-0.224-0.5-0.5-0.5zM28.5 14h-10c-0.276 0-0.5 0.224-0.5 0.5s0.224 0.5 0.5 0.5h10c0.276 0 0.5-0.224 0.5-0.5s-0.224-0.5-0.5-0.5zM28.5 17h-10c-0.276 0-0.5 0.224-0.5 0.5s0.224 0.5 0.5 0.5h10c0.276 0 0.5-0.224 0.5-0.5s-0.224-0.5-0.5-0.5zM28.5 20h-10c-0.276 0-0.5 0.224-0.5 0.5s0.224 0.5 0.5 0.5h10c0.276 0 0.5-0.224 0.5-0.5s-0.224-0.5-0.5-0.5zM28.5 23h-10c-0.276 0-0.5 0.224-0.5 0.5s0.224 0.5 0.5 0.5h10c0.276 0 0.5-0.224 0.5-0.5s-0.224-0.5-0.5-0.5zM4.5 24h10c0.276 0 0.5-0.224 0.5-0.5s-0.224-0.5-0.5-0.5h-10c-0.276 0-0.5 0.224-0.5 0.5s0.224 0.5 0.5 0.5zM28.5 26h-10c-0.276 0-0.5 0.224-0.5 0.5s0.224 0.5 0.5 0.5h10c0.276 0 0.5-0.224 0.5-0.5s-0.224-0.5-0.5-0.5zM4.5 27h10c0.276 0 0.5-0.224 0.5-0.5s-0.224-0.5-0.5-0.5h-10c-0.276 0-0.5 0.224-0.5 0.5s0.224 0.5 0.5 0.5zM5 31.947h32c0.008 0 0.016 0 0.020 0 0.007 0 0.013-0.004 0.020-0.004 2.709-0.022 4.908-2.229 4.908-4.943v-26.5c0-0.247-0.2-0.447-0.447-0.447s-0.447 0.2-0.447 0.447v26.5c0 2.235-1.818 4.053-4.053 4.053s-4.054-1.818-4.054-4.053v-26.5c0-0.247-0.2-0.447-0.447-0.447h-32c-0.247 0-0.447 0.2-0.447 0.447v26.5c0 2.728 2.219 4.947 4.947 4.947zM0.947 0.947h31.105v26.053c0 0.306 0.037 0.603 0.090 0.895 0.011 0.058 0.020 0.116 0.033 0.173 0.062 0.278 0.144 0.547 0.251 0.806 0.019 0.047 0.042 0.091 0.063 0.137 0.108 0.242 0.233 0.475 0.378 0.695 0.017 0.025 0.030 0.052 0.047 0.077 0.158 0.23 0.338 0.443 0.531 0.643 0.042 0.043 0.083 0.085 0.127 0.127 0.186 0.18 0.382 0.351 0.594 0.5h-29.166c-2.234 0-4.053-1.818-4.053-4.053v-26.053z"></path>
</svg>
