<?xml version="1.0" encoding="utf-8"?>
<!-- Generated by IcoMoon.io -->
<!DOCTYPE svg PUBLIC "-//W3C//DTD SVG 1.1//EN" "http://www.w3.org/Graphics/SVG/1.1/DTD/svg11.dtd">
<svg version="1.1" xmlns="http://www.w3.org/2000/svg" xmlns:xlink="http://www.w3.org/1999/xlink" width="32" height="32" viewBox="0 0 32 32">
<path fill="#444444" d="M26.334 32c-0.025-14.351-12.547-26.079-26.334-26.106v-5.894c16.916 0 32 14.394 32 32h-5.666zM21.475 31.998h-5.663c0.019-3.524-1.771-7.468-4.604-10.421-2.817-2.977-7.81-4.853-11.194-4.835v-5.892c10.565 0.228 21.246 10.207 21.461 21.148zM4.016 23.997c2.207 0 3.996 1.791 3.996 4 0 2.208-1.789 3.999-3.996 3.999s-3.996-1.791-3.996-3.999c0-2.209 1.789-4 3.996-4z"></path>
</svg>
