<?xml version="1.0" encoding="utf-8"?>
<!-- Generated by IcoMoon.io -->
<!DOCTYPE svg PUBLIC "-//W3C//DTD SVG 1.1//EN" "http://www.w3.org/Graphics/SVG/1.1/DTD/svg11.dtd">
<svg version="1.1" xmlns="http://www.w3.org/2000/svg" xmlns:xlink="http://www.w3.org/1999/xlink" width="24" height="24" viewBox="0 0 24 24">
<path fill="#444444" d="M19.064 10.109l1.179-2.387c0.074-0.149 0.068-0.327-0.015-0.471-0.083-0.145-0.234-0.238-0.401-0.249l-2.656-0.172-0.172-2.656c-0.011-0.167-0.104-0.317-0.249-0.401s-0.322-0.090-0.472-0.015l-2.385 1.18-1.477-2.215c-0.186-0.278-0.646-0.278-0.832 0l-1.477 2.215-2.385-1.18c-0.151-0.075-0.327-0.069-0.472 0.015-0.145 0.083-0.238 0.234-0.249 0.401l-0.171 2.656-2.657 0.171c-0.167 0.011-0.318 0.104-0.401 0.249-0.084 0.145-0.089 0.322-0.015 0.472l1.179 2.386-2.214 1.477c-0.139 0.093-0.223 0.249-0.223 0.416s0.083 0.323 0.223 0.416l2.215 1.477-1.18 2.386c-0.074 0.15-0.068 0.327 0.015 0.472 0.083 0.144 0.234 0.238 0.401 0.248l2.656 0.171 0.171 2.657c0.011 0.167 0.104 0.317 0.249 0.401 0.144 0.083 0.32 0.088 0.472 0.015l2.386-1.179 1.477 2.214c0.093 0.139 0.249 0.223 0.416 0.223s0.323-0.083 0.416-0.223l1.477-2.214 2.386 1.179c0.15 0.073 0.327 0.068 0.472-0.015s0.238-0.234 0.249-0.401l0.171-2.656 2.656-0.172c0.167-0.011 0.317-0.104 0.401-0.249 0.083-0.145 0.089-0.322 0.015-0.472l-1.179-2.385 2.214-1.478c0.139-0.093 0.223-0.249 0.223-0.416s-0.083-0.323-0.223-0.416l-2.214-1.475z"></path>
</svg>
