<?xml version="1.0" encoding="utf-8"?>
<!-- Generated by IcoMoon.io -->
<!DOCTYPE svg PUBLIC "-//W3C//DTD SVG 1.1//EN" "http://www.w3.org/Graphics/SVG/1.1/DTD/svg11.dtd">
<svg version="1.1" xmlns="http://www.w3.org/2000/svg" xmlns:xlink="http://www.w3.org/1999/xlink" width="48" height="48" viewBox="0 0 48 48">
<path fill="#444444" d="M26.5 28h-14c-1.38 0-2.5 1.12-2.5 2.5s1.12 2.5 2.5 2.5h14c1.38 0 2.5-1.12 2.5-2.5s-1.12-2.5-2.5-2.5zM0 39c0 2.21 1.79 4 4 4h40c2.21 0 4-1.79 4-4l-0-30c0-2.21-1.79-4-4-4h-40c-2.21 0-4 1.79-4 4v30zM7.2 10h33.6c1.22 0 2.2 0.98 2.2 2.2v2.8h-38v-2.8c0-1.22 0.98-2.2 2.2-2.2zM5 23h38v12.8c0 1.22-0.98 2.2-2.2 2.2h-33.6c-1.22 0-2.2-0.98-2.2-2.2v-12.8z"></path>
</svg>
