<?xml version="1.0" encoding="utf-8"?>
<!-- Generated by IcoMoon.io -->
<!DOCTYPE svg PUBLIC "-//W3C//DTD SVG 1.1//EN" "http://www.w3.org/Graphics/SVG/1.1/DTD/svg11.dtd">
<svg version="1.1" xmlns="http://www.w3.org/2000/svg" xmlns:xlink="http://www.w3.org/1999/xlink" width="19" height="32" viewBox="0 0 19 32">
<path fill="#444444" d="M9.212 32c-2.359 0-4.719-0.898-6.52-2.691-3.59-3.598-3.59-9.449 0-13.039l8.113-7.938c0.461-0.465 0.727-1.102 0.727-1.785 0-0.68-0.266-1.32-0.742-1.805-0.992-0.992-2.609-0.988-3.609 0.004-0.985 0.992-0.985 2.609 0.007 3.602l-2.832 2.832c-2.55-2.555-2.55-6.707-0.003-9.262 2.562-2.559 6.711-2.555 9.264-0.004 1.242 1.238 1.922 2.887 1.922 4.637s-0.68 3.395-1.922 4.629l-8.111 7.934c-2.020 2.016-2.020 5.328 0.020 7.363 2.031 2.035 5.344 2.031 7.383 0 2.029-2.035 2.029-5.348 0-7.379l-1.422-1.414 4.35-4.348 2.828 2.828-1.672 1.672c2.266 3.562 1.852 8.359-1.258 11.469-1.798 1.797-4.164 2.695-6.523 2.695v0z"></path>
</svg>
