<?xml version="1.0" encoding="utf-8"?>
<!-- Generated by IcoMoon.io -->
<!DOCTYPE svg PUBLIC "-//W3C//DTD SVG 1.1//EN" "http://www.w3.org/Graphics/SVG/1.1/DTD/svg11.dtd">
<svg version="1.1" xmlns="http://www.w3.org/2000/svg" xmlns:xlink="http://www.w3.org/1999/xlink" width="34" height="32" viewBox="0 0 34 32">
<path fill="#444444" d="M1.512 28h17.988c0.827 0 1.5-0.673 1.5-1.5v-19c0-0.023-0.010-0.043-0.013-0.065s-0.007-0.041-0.013-0.062c-0.023-0.086-0.060-0.166-0.122-0.227l-6.999-6.999c-0.061-0.061-0.141-0.098-0.227-0.122-0.021-0.006-0.040-0.010-0.062-0.013s-0.041-0.012-0.064-0.012h-11.994c-0.83 0-1.506 0.673-1.506 1.5v25c0 0.827 0.678 1.5 1.512 1.5zM14 1.707l5.293 5.293h-4.793c-0.275 0-0.5-0.224-0.5-0.5v-4.793zM1 1.5c0-0.276 0.227-0.5 0.506-0.5h11.494v5.5c0 0.827 0.673 1.5 1.5 1.5h5.5v18.5c0 0.276-0.225 0.5-0.5 0.5h-17.988c-0.283 0-0.512-0.224-0.512-0.5v-25zM4.5 12h12c0.276 0 0.5-0.224 0.5-0.5s-0.224-0.5-0.5-0.5h-12c-0.276 0-0.5 0.224-0.5 0.5s0.224 0.5 0.5 0.5zM4.5 16h12c0.276 0 0.5-0.224 0.5-0.5s-0.224-0.5-0.5-0.5h-12c-0.276 0-0.5 0.224-0.5 0.5s0.224 0.5 0.5 0.5zM4.5 8h5c0.276 0 0.5-0.224 0.5-0.5s-0.224-0.5-0.5-0.5h-5c-0.276 0-0.5 0.224-0.5 0.5s0.224 0.5 0.5 0.5zM4.5 20h12c0.276 0 0.5-0.224 0.5-0.5s-0.224-0.5-0.5-0.5h-12c-0.276 0-0.5 0.224-0.5 0.5s0.224 0.5 0.5 0.5zM4.5 24h12c0.276 0 0.5-0.224 0.5-0.5s-0.224-0.5-0.5-0.5h-12c-0.276 0-0.5 0.224-0.5 0.5s0.224 0.5 0.5 0.5zM21.5 5h4.5v5.5c0 0.827 0.673 1.5 1.5 1.5h5.5v18.5c0 0.276-0.225 0.5-0.5 0.5h-17.988c-0.283 0-0.512-0.224-0.512-0.5v-1c0-0.276-0.224-0.5-0.5-0.5s-0.5 0.224-0.5 0.5v1c0 0.827 0.678 1.5 1.512 1.5h17.988c0.827 0 1.5-0.673 1.5-1.5v-19c0-0.023-0.010-0.043-0.013-0.065s-0.007-0.041-0.013-0.062c-0.023-0.086-0.060-0.166-0.122-0.227l-6.999-6.999c-0.061-0.062-0.142-0.099-0.228-0.122-0.021-0.006-0.039-0.009-0.061-0.012s-0.041-0.013-0.064-0.013h-5c-0.276 0-0.5 0.224-0.5 0.5s0.224 0.5 0.5 0.5zM27.5 11c-0.275 0-0.5-0.224-0.5-0.5v-4.793l5.293 5.293h-4.793zM23.5 16h6c0.276 0 0.5-0.224 0.5-0.5s-0.224-0.5-0.5-0.5h-6c-0.276 0-0.5 0.224-0.5 0.5s0.224 0.5 0.5 0.5zM23.5 20h6c0.276 0 0.5-0.224 0.5-0.5s-0.224-0.5-0.5-0.5h-6c-0.276 0-0.5 0.224-0.5 0.5s0.224 0.5 0.5 0.5zM23.5 24h6c0.276 0 0.5-0.224 0.5-0.5s-0.224-0.5-0.5-0.5h-6c-0.276 0-0.5 0.224-0.5 0.5s0.224 0.5 0.5 0.5zM23.5 28h6c0.276 0 0.5-0.224 0.5-0.5s-0.224-0.5-0.5-0.5h-6c-0.276 0-0.5 0.224-0.5 0.5s0.224 0.5 0.5 0.5z"></path>
</svg>
