<?xml version="1.0" encoding="utf-8"?>
<!-- Generated by IcoMoon.io -->
<!DOCTYPE svg PUBLIC "-//W3C//DTD SVG 1.1//EN" "http://www.w3.org/Graphics/SVG/1.1/DTD/svg11.dtd">
<svg version="1.1" xmlns="http://www.w3.org/2000/svg" xmlns:xlink="http://www.w3.org/1999/xlink" width="24" height="24" viewBox="0 0 24 24">
<path fill="#444444" d="M18.215 4h-3.16l-1.6-2h-1.455v-1h-1v1h-1.053l-1.334 2h-4.398c-1.654 0-3.215 0.904-3.215 2.559v12c0 1.654 2 3.441 3 3.441v2h3v-2h8v2h3v-2c2 0 3-1.787 3-3.441v-12c0-1.655-1.131-2.559-2.785-2.559zM10.482 3h2.492l0.799 1h-3.958l0.667-1zM19 18.559c0 0.551-0.234 1.441-0.785 1.441h-14c-0.552 0-1.215-0.89-1.215-1.441v-12c0-0.552 0.663-0.559 1.215-0.559h14c0.551 0 0.785 0.007 0.785 0.559v12zM4 16h14v-8h-14v8zM5 9h12v6h-12v-6zM9.999 19h1.998v-2h-1.998v2z"></path>
</svg>
