<?xml version="1.0" encoding="utf-8"?>
<!-- Generated by IcoMoon.io -->
<!DOCTYPE svg PUBLIC "-//W3C//DTD SVG 1.1//EN" "http://www.w3.org/Graphics/SVG/1.1/DTD/svg11.dtd">
<svg version="1.1" xmlns="http://www.w3.org/2000/svg" xmlns:xlink="http://www.w3.org/1999/xlink" width="24" height="24" viewBox="0 0 24 24">
<path fill="#444444" d="M9 12.984q0-1.219 0.891-2.109t2.109-0.891 2.109 0.891 0.891 2.109-0.891 2.109-2.109 0.891-2.109-0.891-0.891-2.109zM20.016 19.594l-3.844-3.844q0.844-1.313 0.844-2.766 0-2.063-1.477-3.516t-3.539-1.453-3.539 1.453-1.477 3.516 1.477 3.539 3.539 1.477q1.453 0 2.766-0.844l4.406 4.453q-0.516 0.375-1.172 0.375h-12q-0.797 0-1.406-0.586t-0.609-1.383l0.047-16.031q0-0.797 0.586-1.383t1.383-0.586h8.016l6 6v11.578z"></path>
</svg>
