<?xml version="1.0" encoding="utf-8"?>
<!-- Generated by IcoMoon.io -->
<!DOCTYPE svg PUBLIC "-//W3C//DTD SVG 1.1//EN" "http://www.w3.org/Graphics/SVG/1.1/DTD/svg11.dtd">
<svg version="1.1" xmlns="http://www.w3.org/2000/svg" xmlns:xlink="http://www.w3.org/1999/xlink" width="48" height="48" viewBox="0 0 48 48">
<path fill="#444444" d="M2.163 38.221c-1.551 1.549-1.551 4.069 0 5.619 1.55 1.551 4.070 1.551 5.609 0l1.12-1.109 4.671 4.67c0.799 0.8 2.079 0.8 2.879 0l6.961-6.961c0.8-0.799 0.8-2.079 0-2.879l-4.67-4.67 8.319-8.33c1.782 0.919 3.811 1.439 5.952 1.439 7.18 0 13-5.819 13-13 0-7.18-5.82-13-13-13-7.182 0-13.001 5.82-13.001 13 0 2.141 0.52 4.17 1.439 5.95l-19.279 19.271zM28.004 13c0-2.76 2.24-5 5-5s5 2.24 5 5-2.24 5-5 5-5-2.24-5-5z"></path>
</svg>
