<?xml version="1.0" encoding="utf-8"?>
<!-- Generated by IcoMoon.io -->
<!DOCTYPE svg PUBLIC "-//W3C//DTD SVG 1.1//EN" "http://www.w3.org/Graphics/SVG/1.1/DTD/svg11.dtd">
<svg version="1.1" xmlns="http://www.w3.org/2000/svg" xmlns:xlink="http://www.w3.org/1999/xlink" width="24" height="24" viewBox="0 0 24 24">
<path fill="#444444" d="M12 6.934l1-2.934c0.072-0.213 0.078-0.452 0-0.682-0.188-0.553-0.789-0.848-1.341-0.659-0.553 0.189-0.847 0.788-0.659 1.341l1 2.934z"></path>
<path fill="#444444" d="M4 11c-0.213-0.072-0.452-0.078-0.682 0-0.553 0.188-0.848 0.789-0.659 1.341 0.189 0.553 0.788 0.847 1.341 0.659l2.934-1-2.934-1z"></path>
<path fill="#444444" d="M12 17.066l-1 2.934c-0.072 0.213-0.078 0.452 0 0.682 0.188 0.553 0.789 0.848 1.341 0.659 0.553-0.189 0.847-0.788 0.659-1.341l-1-2.934z"></path>
<path fill="#444444" d="M21.341 11.657c-0.188-0.553-0.788-0.848-1.341-0.659l-2.934 1 2.934 1c0.213 0.072 0.452 0.078 0.682 0 0.552-0.188 0.847-0.789 0.659-1.341z"></path>
<path fill="#444444" d="M5.636 7.050l2.781 1.367-1.367-2.781c-0.1-0.202-0.265-0.375-0.482-0.482-0.524-0.258-1.157-0.042-1.415 0.482-0.257 0.523-0.041 1.157 0.483 1.414z"></path>
<path fill="#444444" d="M5.153 17.432c-0.257 0.523-0.041 1.156 0.482 1.414 0.523 0.257 1.157 0.041 1.414-0.482l1.367-2.781-2.781 1.367c-0.201 0.099-0.374 0.263-0.482 0.482z"></path>
<path fill="#444444" d="M18.363 16.949l-2.781-1.367 1.367 2.781c0.1 0.202 0.264 0.375 0.482 0.482 0.523 0.257 1.156 0.041 1.414-0.482s0.042-1.157-0.482-1.414z"></path>
<path fill="#444444" d="M18.844 6.566c0.258-0.524 0.042-1.157-0.481-1.415-0.523-0.257-1.157-0.041-1.414 0.482l-1.369 2.783 2.782-1.368c0.202-0.1 0.375-0.264 0.482-0.482z"></path>
<path fill="#444444" d="M12 7.5c-2.481 0-4.5 2.019-4.5 4.5s2.019 4.5 4.5 4.5 4.5-2.019 4.5-4.5-2.019-4.5-4.5-4.5z"></path>
</svg>
