<?xml version="1.0" encoding="utf-8"?>
<!-- Generated by IcoMoon.io -->
<!DOCTYPE svg PUBLIC "-//W3C//DTD SVG 1.1//EN" "http://www.w3.org/Graphics/SVG/1.1/DTD/svg11.dtd">
<svg version="1.1" xmlns="http://www.w3.org/2000/svg" xmlns:xlink="http://www.w3.org/1999/xlink" width="48" height="48" viewBox="0 0 48 48">
<path fill="#444444" d="M6 38c0 2.21 1.79 4 4 4h1v3.5c0 1.38 1.12 2.5 2.5 2.5s2.5-1.12 2.5-2.5l-0-3.5h5v3.5c0 1.38 1.12 2.5 2.5 2.5s2.5-1.12 2.5-2.5l-0-3.5h5v3.5c0 1.38 1.12 2.5 2.5 2.5s2.5-1.12 2.5-2.5v-3.5h1c2.21 0 4-1.79 4-4v-1h3.5c1.38 0 2.5-1.12 2.5-2.5s-1.12-2.5-2.5-2.5h-3.5v-5h3.5c1.38 0 2.5-1.12 2.5-2.5s-1.12-2.5-2.5-2.5h-3.5v-5h3.5c1.38 0 2.5-1.12 2.5-2.5s-1.12-2.5-2.5-2.5h-3.5v-1c0-2.21-1.79-4-4-4h-1l0-3.5c0-1.38-1.12-2.5-2.5-2.5s-2.5 1.12-2.5 2.5v3.5h-5l-0-3.5c0-1.38-1.12-2.5-2.5-2.5s-2.5 1.12-2.5 2.5v3.5h-5v-3.5c0-1.38-1.12-2.5-2.5-2.5s-2.5 1.12-2.5 2.5v3.5h-1c-2.21 0-4 1.79-4 4v1l-3.5-0c-1.38 0-2.5 1.12-2.5 2.5s1.12 2.5 2.5 2.5h3.5v5l-3.5 0c-1.38 0-2.5 1.12-2.5 2.5s1.12 2.5 2.5 2.5h3.5v5h-3.5c-1.38 0-2.5 1.12-2.5 2.5s1.12 2.5 2.5 2.5h3.5v1zM31 19.2v10.6c0 1.22-0.98 2.2-2.2 2.2l-10.6-0c-1.22 0-2.2-0.98-2.2-2.2l0-10.6c0-1.22 0.98-2.2 2.2-2.2h10.6c1.22 0 2.2 0.98 2.2 2.2z"></path>
</svg>
