<?xml version="1.0" encoding="utf-8"?>
<!-- Generated by IcoMoon.io -->
<!DOCTYPE svg PUBLIC "-//W3C//DTD SVG 1.1//EN" "http://www.w3.org/Graphics/SVG/1.1/DTD/svg11.dtd">
<svg version="1.1" xmlns="http://www.w3.org/2000/svg" xmlns:xlink="http://www.w3.org/1999/xlink" width="48" height="48" viewBox="0 0 48 48">
<path fill="#444444" d="M0 44c0 2.21 1.79 4 4 4h13c2.21 0 4-1.79 4-4l-0-16h6v16c0 2.21 1.79 4 4 4h13c2.21 0 4-1.79 4-4l-0-26c0-2.21-1.79-4-4-4h-2v-9h0.5c1.38 0 2.5-1.12 2.5-2.5s-1.12-2.5-2.5-2.5h-13c-1.38 0-2.5 1.12-2.5 2.5s1.12 2.5 2.5 2.5h0.5v9h-12v-9h0.5c1.38 0 2.5-1.12 2.5-2.5s-1.12-2.5-2.5-2.5h-13c-1.38 0-2.5 1.12-2.5 2.5s1.12 2.5 2.5 2.5h0.5v9h-2c-2.21 0-4 1.79-4 4v26zM26 23h-4c-1.1 0-2-0.9-2-2s0.9-2 2-2h4c1.1 0 2 0.9 2 2s-0.9 2-2 2z"></path>
</svg>
