<?xml version="1.0" encoding="utf-8"?>
<!-- Generated by IcoMoon.io -->
<!DOCTYPE svg PUBLIC "-//W3C//DTD SVG 1.1//EN" "http://www.w3.org/Graphics/SVG/1.1/DTD/svg11.dtd">
<svg version="1.1" xmlns="http://www.w3.org/2000/svg" xmlns:xlink="http://www.w3.org/1999/xlink" width="32" height="32" viewBox="0 0 32 32">
<path fill="#444444" d="M28.715 15.936l2.24 2.242c0.146 0.145 0.146 0.381 0 0.527l-0.791 0.791c-0.145 0.145-0.381 0.145-0.527 0l-2.24-2.242-2.242 2.242c-0.146 0.145-0.381 0.145-0.527 0l-0.791-0.791c-0.145-0.146-0.145-0.383 0-0.527l2.242-2.242-2.242-2.242c-0.145-0.146-0.145-0.381 0-0.527l0.791-0.791c0.146-0.146 0.382-0.146 0.527 0l2.242 2.241 2.24-2.241c0.146-0.146 0.383-0.146 0.527 0l0.791 0.791c0.146 0.146 0.146 0.382 0 0.527l-2.24 2.242zM18.275 28.434l-8.379-5.84v-13.251l8.379-5.777c1.105 0 2.689 0.836 2.689 1.867v21.133c0.001 1.032-1.583 1.868-2.689 1.868zM0.936 20.107v-8.153c0-1.030 0.896-2.495 2-2.495h6.027v13.001h-6.027c-1.105 0.001-2-1.321-2-2.353z"></path>
</svg>
