<?xml version="1.0" encoding="utf-8"?>
<!-- Generated by IcoMoon.io -->
<!DOCTYPE svg PUBLIC "-//W3C//DTD SVG 1.1//EN" "http://www.w3.org/Graphics/SVG/1.1/DTD/svg11.dtd">
<svg version="1.1" xmlns="http://www.w3.org/2000/svg" xmlns:xlink="http://www.w3.org/1999/xlink" width="24" height="24" viewBox="0 0 24 24">
<path fill="#444444" d="M18 15.984v-0.891q0-1.359-2.063-2.227t-3.938-0.867-3.938 0.867-2.063 2.227v0.891h12zM12 5.297q-1.125 0-1.922 0.797t-0.797 1.922 0.797 1.898 1.922 0.773 1.922-0.773 0.797-1.898-0.797-1.922-1.922-0.797zM18.984 2.016q0.797 0 1.406 0.586t0.609 1.383v14.016q0 0.797-0.609 1.406t-1.406 0.609h-3.984l-3 3-3-3h-3.984q-0.844 0-1.43-0.609t-0.586-1.406v-14.016q0-0.797 0.586-1.383t1.43-0.586h13.969z"></path>
</svg>
