<?xml version="1.0" encoding="utf-8"?>
<!-- Generated by IcoMoon.io -->
<!DOCTYPE svg PUBLIC "-//W3C//DTD SVG 1.1//EN" "http://www.w3.org/Graphics/SVG/1.1/DTD/svg11.dtd">
<svg version="1.1" xmlns="http://www.w3.org/2000/svg" xmlns:xlink="http://www.w3.org/1999/xlink" width="22" height="32" viewBox="0 0 22 32">
<path fill="#444444" d="M15.403 21h4.58c1.053 0 1.909-0.856 2.017-1.909v-17.182c-0.108-1.053-0.964-1.909-2.017-1.909h-17.966c-1.053 0-1.909 0.856-2.017 1.909v17.182c0.108 1.053 0.964 1.909 2.017 1.909h4.962c0.348 0 2.083 0.074 2.083 1.542 0 2.622-0.553 3.842-0.762 4.302l-0.049 0.109 0.403 0.174v0.013l-0.447-0.090c-0.017 0.033-0.030 0.068-0.038 0.104-0.154 0.411-0.232 0.833-0.232 1.257 0.001 2.147 1.231 3.589 3.063 3.589 1.851 0 3.094-1.442 3.094-3.589 0-0.391-0.066-0.78-0.198-1.161-0.005-0.114-0.049-0.22-0.119-0.302-0.026-0.060-0.060-0.125-0.101-0.202-0.219-0.415-0.676-1.277-0.676-4.204 0-0.62 0.64-1.542 2.403-1.542zM1 12.059h20v3.941h-20v-3.941zM2.017 1h17.966c0.501 0 0.909 0.408 1.017 0.909v9.149h-20v-9.149c0.108-0.501 0.516-0.909 1.017-0.909zM12.792 27.214c0.028 0.053 0.052 0.097 0.093 0.189 0 0.001 0.003 0.007 0.007 0.016 0.004 0.013 0.008 0.025 0.013 0.038 0.125 0.313 0.188 0.635 0.188 0.954 0.001 1.252-0.549 2.589-2.093 2.589-1.521 0-2.062-1.337-2.062-2.589 0-0.319 0.063-0.641 0.188-0.954 0.004-0.012 0.009-0.023 0.012-0.035 0.014-0.030 0.031-0.068 0.033-0.072l0.042-0.093c0.232-0.514 0.851-1.876 0.851-4.715-0.002-2.007-1.939-2.542-3.114-2.542 0 0 0 0-0.001 0h-4.932c-0.501 0-0.909-0.408-1.017-0.909v-2.091h20v2.091c-0.108 0.501-0.516 0.909-1.017 0.909h-4.58c-2.497 0-3.403 1.521-3.403 2.542 0 3.175 0.535 4.187 0.792 4.672z"></path>
</svg>
