<?xml version="1.0" encoding="utf-8"?>
<!-- Generated by IcoMoon.io -->
<!DOCTYPE svg PUBLIC "-//W3C//DTD SVG 1.1//EN" "http://www.w3.org/Graphics/SVG/1.1/DTD/svg11.dtd">
<svg version="1.1" xmlns="http://www.w3.org/2000/svg" xmlns:xlink="http://www.w3.org/1999/xlink" width="32" height="32" viewBox="0 0 32 32">
<path fill="#444444" d="M29.655 13.684c3.121-3.119 3.121-8.18 0-11.297-1.559-1.559-3.605-2.34-5.648-2.34-2.041 0-4.088 0.781-5.646 2.34l-0.59 0.59-2.974-2.977-2.82 2.822 2.977 2.975-14.954 14.963v7.248l3.93 3.992h7.414l14.901-14.906 2.875 2.877 2.824-2.82-2.879-2.877 0.59-0.59zM10.32 27.367c0.047-1.516-0.477-3.035-1.629-4.188-1.059-1.062-2.441-1.582-3.832-1.629l12.919-12.923 5.643 5.639-13.101 13.101z"></path>
</svg>
