<?xml version="1.0" encoding="utf-8"?>
<!-- Generated by IcoMoon.io -->
<!DOCTYPE svg PUBLIC "-//W3C//DTD SVG 1.1//EN" "http://www.w3.org/Graphics/SVG/1.1/DTD/svg11.dtd">
<svg version="1.1" xmlns="http://www.w3.org/2000/svg" xmlns:xlink="http://www.w3.org/1999/xlink" width="48" height="48" viewBox="0 0 48 48">
<path fill="#444444" d="M23.503 16.998c-1.38 0-2.5 1.12-2.5 2.5s1.12 2.5 2.5 2.5h10.001c1.379 0 2.5-1.12 2.5-2.5s-1.121-2.5-2.5-2.5h-10.001zM2.163 40.218c-1.551 1.549-1.551 4.070 0 5.619 1.55 1.551 4.070 1.551 5.609 0l11.49-11.48c2.68 1.672 5.841 2.641 9.241 2.641 9.67 0 17.5-7.83 17.5-17.5s-7.83-17.5-17.5-17.5c-9.671 0-17.501 7.83-17.501 17.5 0 3.39 0.97 6.56 2.64 9.24l-11.479 11.48zM16.003 19.498c0-6.9 5.6-12.5 12.501-12.5 6.9 0 12.5 5.6 12.5 12.5s-5.6 12.5-12.5 12.5c-6.901-0.001-12.501-5.601-12.501-12.5z"></path>
</svg>
