<?xml version="1.0" encoding="utf-8"?>
<!-- Generated by IcoMoon.io -->
<!DOCTYPE svg PUBLIC "-//W3C//DTD SVG 1.1//EN" "http://www.w3.org/Graphics/SVG/1.1/DTD/svg11.dtd">
<svg version="1.1" xmlns="http://www.w3.org/2000/svg" xmlns:xlink="http://www.w3.org/1999/xlink" width="32" height="32" viewBox="0 0 32 32">
<path fill="#444444" d="M18 6c-1.105 0-2 0.895-2 2s0.895 2 2 2 2-0.895 2-2-0.895-2-2-2zM28 12l-4 4v-2c0-0.957-0.672-1.757-1.57-1.953 0.975-1.067 1.57-2.487 1.57-4.047 0-3.314-2.686-6-6-6-3.16 0-5.75 2.443-5.983 5.544-1.064-0.959-2.472-1.544-4.017-1.544-3.314 0-6 2.686-6 6s2.686 6 6 6h-2v4h2v4c0 1.105 0.895 2 2 2h12c1.105 0 2-0.895 2-2v-2l4 4h2v-16h-2zM8 10c-1.105 0-2 0.895-2 2s0.895 2 2 2v2c-2.209 0-4-1.791-4-4s1.791-4 4-4 4 1.791 4 4h-2c0-1.105-0.895-2-2-2zM18 22h-4v-4h4v4zM22 18.587c-1.048-1.048-2.196-2.197-2.293-2.294-0.181-0.181-0.431-0.293-0.707-0.293h-6c-0.552 0-1 0.448-1 1v6c0 0.26 0.099 0.497 0.262 0.675 0.017 0.018 1.223 1.224 2.325 2.325h-3.588c-0.552 0-1-0.448-1-1v-10c0-0.552 0.448-1 1-1h10c0.552 0 1 0.448 1 1v3.587zM18 12c-2.209 0-4-1.791-4-4s1.791-4 4-4 4 1.791 4 4c0 2.209-1.791 4-4 4zM28 22l-2-2 0.003-4.003 1.997-1.997v8z"></path>
</svg>
