<?xml version="1.0" encoding="utf-8"?>
<!-- Generated by IcoMoon.io -->
<!DOCTYPE svg PUBLIC "-//W3C//DTD SVG 1.1//EN" "http://www.w3.org/Graphics/SVG/1.1/DTD/svg11.dtd">
<svg version="1.1" xmlns="http://www.w3.org/2000/svg" xmlns:xlink="http://www.w3.org/1999/xlink" width="24" height="24" viewBox="0 0 24 24">
<path fill="#444444" d="M18.124 5.27c0.084 0 0.168 0.004 0.25 0.013 0.163 0.022 0.319 0.020 0.468 0.077 0.146 0.050 0.292 0.084 0.42 0.146 0.254 0.131 0.471 0.262 0.631 0.422 0.174 0.137 0.248 0.279 0.321 0.371 0.069 0.096 0.108 0.146 0.108 0.146s-0.061-0.025-0.166-0.074c-0.105-0.043-0.258-0.139-0.442-0.16-0.129-0.037-0.282-0.047-0.442-0.047-0.049 0-0.101 0.001-0.15 0.002-0.105 0.008-0.217 0.041-0.318 0.061-0.103 0.010-0.201 0.078-0.295 0.113-0.186 0.088-0.35 0.203-0.461 0.34-0.023 0.025-0.037 0.049-0.057 0.076 0.451 0.477 0.732 1.115 0.732 1.824 0 1.471-1.195 2.668-2.666 2.668-0.908 0-1.707-0.457-2.189-1.15l-1.657 2.625c1.712 1.92 3.22 4.348 3.22 4.348 1.037 1.429-0.789 3.947-0.789 3.947l-3.552-6.522-3.551 6.522c0 0-1.826-2.52-0.789-3.947 0 0 1.507-2.428 3.22-4.348l-1.656-2.625c-0.482 0.693-1.283 1.15-2.188 1.15-1.472 0-2.667-1.197-2.667-2.668 0-1.469 1.195-2.666 2.667-2.666 0.925 0 1.739 0.475 2.218 1.193 0.955 1.428 1.739 3.156 2.748 4.334 1.008-1.178 1.792-2.906 2.746-4.336 0.48-0.717 1.295-1.191 2.221-1.191 0.063 0 0.123 0.014 0.186 0.018 0.092-0.053 0.197-0.115 0.326-0.188 0.117-0.065 0.248-0.14 0.383-0.211 0.132-0.072 0.297-0.107 0.449-0.158 0.224-0.070 0.475-0.105 0.721-0.105zM16.055 9.646c0.273 0 0.547-0.104 0.756-0.312 0.416-0.416 0.416-1.092 0-1.508-0.209-0.208-0.481-0.312-0.754-0.312s-0.545 0.104-0.754 0.312l-0.24 0.377c-0.144 0.381-0.066 0.826 0.24 1.131 0.207 0.209 0.479 0.312 0.752 0.312zM6.124 9.646c0.272 0 0.545-0.104 0.752-0.312 0.308-0.305 0.382-0.75 0.237-1.131l-0.237-0.377c-0.207-0.208-0.48-0.312-0.753-0.312s-0.547 0.104-0.755 0.312c-0.417 0.416-0.417 1.092 0 1.508 0.208 0.208 0.482 0.312 0.756 0.312zM11.089 13.408c0.218 0 0.396-0.178 0.396-0.395 0-0.22-0.176-0.396-0.396-0.396-0.219 0-0.394 0.176-0.394 0.396 0 0.217 0.176 0.395 0.394 0.395zM18.124 3.27c-0.448 0-0.901 0.066-1.312 0.191l-0.117 0.036c-0.168 0.051-0.426 0.126-0.707 0.28-0.086 0.047-0.18 0.098-0.271 0.148-1.388 0.102-2.656 0.815-3.467 1.961-0.027 0.034-0.055 0.070-0.079 0.108-0.39 0.584-0.741 1.192-1.082 1.784-0.339-0.592-0.69-1.199-1.081-1.784-0.026-0.036-0.052-0.073-0.078-0.107-0.877-1.239-2.289-1.974-3.807-1.974-2.574 0-4.667 2.093-4.667 4.666s2.094 4.668 4.667 4.668c0.309 0 0.611-0.030 0.908-0.090-1.016 1.338-1.777 2.53-1.948 2.803-1.714 2.467 0.392 5.619 0.835 6.229 0.377 0.521 0.98 0.826 1.619 0.826 0.043 0 0.086 0 0.129-0.004 0.686-0.044 1.3-0.437 1.628-1.039l1.795-3.298 1.795 3.298c0.328 0.604 0.943 0.995 1.628 1.039 0.043 0.004 0.086 0.004 0.129 0.004 0.639 0 1.241-0.306 1.619-0.826 0.443-0.61 2.549-3.764 0.834-6.229-0.17-0.271-0.932-1.465-1.947-2.803 0.295 0.060 0.601 0.090 0.908 0.090 2.573 0 4.668-2.095 4.668-4.668 0-0.060-0.002-0.119-0.004-0.179 0.467-0.096 0.898-0.356 1.2-0.758 0.547-0.729 0.536-1.733-0.032-2.445l-0.049-0.067c-0.013-0.019-0.025-0.034-0.039-0.053-0.102-0.146-0.279-0.394-0.572-0.644-0.35-0.326-0.738-0.547-1.045-0.705-0.275-0.136-0.488-0.201-0.628-0.244l-0.062-0.020c-0.333-0.117-0.622-0.146-0.784-0.16l-0.054-0.006c-0.016-0.002-0.068-0.009-0.086-0.010-0.146-0.013-0.295-0.018-0.444-0.018z"></path>
</svg>
