<?xml version="1.0" encoding="utf-8"?>
<!-- Generated by IcoMoon.io -->
<!DOCTYPE svg PUBLIC "-//W3C//DTD SVG 1.1//EN" "http://www.w3.org/Graphics/SVG/1.1/DTD/svg11.dtd">
<svg version="1.1" xmlns="http://www.w3.org/2000/svg" xmlns:xlink="http://www.w3.org/1999/xlink" width="28" height="32" viewBox="0 0 28 32">
<path fill="#444444" d="M1.5 9c-0.276 0-0.5 0.224-0.5 0.5v20.946c0 0.665 0.316 1.039 0.582 1.235 0.318 0.236 0.692 0.319 1.026 0.319 0.201 0 0.387-0.030 0.538-0.077 2.929-0.895 9.345-7.482 10.973-9.19 1.587 1.718 7.805 8.295 10.734 9.19 0.404 0.124 1.055 0.135 1.564-0.243 0.267-0.196 0.583-0.569 0.583-1.234v-20.946c0-0.276-0.224-0.5-0.5-0.5s-0.5 0.224-0.5 0.5v20.946c0 0.27-0.101 0.375-0.177 0.431-0.178 0.132-0.484 0.15-0.677 0.091-3.040-0.929-10.575-9.22-10.65-9.303-0.094-0.104-0.227-0.164-0.367-0.165-0.127-0.001-0.273 0.056-0.369 0.159-0.078 0.083-7.862 8.378-10.906 9.309-0.192 0.059-0.499 0.041-0.677-0.091-0.076-0.056-0.177-0.162-0.177-0.431v-20.946c0-0.276-0.224-0.5-0.5-0.5zM28 6.5v-5c0-0.827-0.673-1.5-1.5-1.5h-25c-0.827 0-1.5 0.673-1.5 1.5v5c0 0.276 0.224 0.5 0.5 0.5h27c0.276 0 0.5-0.224 0.5-0.5zM27 6h-26v-4.5c0-0.276 0.224-0.5 0.5-0.5h25c0.276 0 0.5 0.224 0.5 0.5v4.5z"></path>
</svg>
