<?xml version="1.0" encoding="utf-8"?>
<!-- Generated by IcoMoon.io -->
<!DOCTYPE svg PUBLIC "-//W3C//DTD SVG 1.1//EN" "http://www.w3.org/Graphics/SVG/1.1/DTD/svg11.dtd">
<svg version="1.1" xmlns="http://www.w3.org/2000/svg" xmlns:xlink="http://www.w3.org/1999/xlink" width="32" height="32" viewBox="0 0 32 32">
<path fill="#444444" d="M5.601 18.621c-1.952 1.953-1.952 5.119 0 7.072l0.708 0.707c1.952 1.951 5.118 1.951 7.071 0l5.656-5.658-7.778-7.778-5.657 5.657zM12.672 25.693c-1.562 1.562-4.095 1.562-5.656 0l-0.707-0.707c-1.562-1.562-1.562-4.096 0-5.658l4.949-4.949 6.364 6.363-4.95 4.951zM25.4 7.308l-0.707-0.707c-1.952-1.953-5.118-1.953-7.071 0l-5.657 5.656 7.778 7.778 5.657-5.656c1.953-1.953 1.953-5.119 0-7.071z"></path>
</svg>
