<?xml version="1.0" encoding="UTF-8"?>
<!DOCTYPE svg PUBLIC "-//W3C//DTD SVG 1.1//EN" "http://www.w3.org/Graphics/SVG/1.1/DTD/svg11.dtd">
<!-- Creator: CorelDRAW X8 -->
<svg xmlns="http://www.w3.org/2000/svg" xml:space="preserve" width="1.33163in" height="2.09189in" version="1.1" style="shape-rendering:geometricPrecision; text-rendering:geometricPrecision; image-rendering:optimizeQuality; fill-rule:evenodd; clip-rule:evenodd"
viewBox="0 0 517 811"
 xmlns:xlink="http://www.w3.org/1999/xlink">
 <defs>
  <style type="text/css">
   <![CDATA[
    .fil0 {fill:black}
   ]]>
  </style>
 </defs>
 <g id="Layer_x0020_1">
  <metadata id="CorelCorpID_0Corel-Layer"/>
  <g id="_133444950464">
   <path class="fil0" d="M267 699c-27,0 -47,-2 -71,-13 -17,-8 -28,-17 -40,-29 -13,-13 -21,-22 -30,-40 -13,-26 -13,-44 -13,-73 0,-39 21,-74 41,-94 1,-1 3,-2 4,-4 4,-3 5,-5 9,-8 34,-26 48,-22 67,-31 0,-11 -1,-16 1,-25 12,0 24,0 36,0 14,0 12,-2 12,25 29,14 28,0 78,41 22,19 47,69 43,111 -4,41 -11,64 -41,97 -22,23 -63,43 -96,43zm-11 112c55,0 88,-12 129,-33 47,-24 85,-72 107,-117 8,-14 12,-30 17,-48 4,-17 6,-37 8,-56l-7 -57c-10,-45 -24,-73 -52,-109 -13,-17 -31,-33 -49,-46 -97,-72 -238,-64 -326,21 -4,3 -6,4 -9,7 -3,3 -4,5 -7,9 -37,36 -59,93 -65,144 -10,76 20,155 74,209 17,17 15,15 35,30 36,27 93,46 145,46z"/>
   <path class="fil0" d="M49 362c8,-2 13,-13 26,-23 19,-15 21,-19 49,-34 0,-31 0,-61 0,-91 -1,-140 179,-189 249,-72 11,18 19,42 19,72 0,30 0,60 0,91 14,7 27,16 40,26 11,8 30,29 36,31 0,-54 4,-159 -7,-205 -13,-50 -49,-99 -91,-125 -90,-52 -190,-40 -261,32 -41,40 -61,92 -60,155 0,48 0,95 0,143z"/>
   <path class="fil0" d="M185 547c0,24 3,39 21,57 7,7 9,9 19,14 33,17 68,7 92,-20 22,-26 20,-76 -9,-100l-22 -15c-8,-8 3,-28 -9,-28l-38 0c-11,0 -1,19 -7,28 -4,5 -12,5 -22,15 -8,7 -11,10 -17,20 -4,7 -8,19 -8,29z"/>
  </g>
 </g>
</svg>
