<?xml version="1.0" encoding="utf-8"?>
<!-- Generated by IcoMoon.io -->
<!DOCTYPE svg PUBLIC "-//W3C//DTD SVG 1.1//EN" "http://www.w3.org/Graphics/SVG/1.1/DTD/svg11.dtd">
<svg version="1.1" xmlns="http://www.w3.org/2000/svg" xmlns:xlink="http://www.w3.org/1999/xlink" width="32" height="32" viewBox="0 0 32 32">
<path fill="#444444" d="M19.971 14.602c0.578-0.088 1.666-0.472 2.049-0.771 0.418-0.244 0.635-0.534 0.648-0.872 0.041-0.515 0.018-1.015-0.070-1.501-0.088-0.487-0.187-1.041-0.295-1.663-1.176 1.853-2.771 3.103-4.786 3.752l-0.224 0.486c0.947 0.609 1.84 0.798 2.678 0.569v0zM13.42 13.547c-2.028-0.649-3.631-1.899-4.807-3.752-0.095 0.622-0.189 1.176-0.284 1.663s-0.115 0.986-0.061 1.501c0.027 0.352 0.243 0.642 0.649 0.872 0.306 0.252 1.511 0.723 2.028 0.771 0.838 0.229 1.73 0.040 2.678-0.568l-0.203-0.487zM14.018 17.015c-0.155 0.406-0.125 1.037 0.092 1.578h0.941v-2.978c-0.393 0.528-0.878 0.994-1.033 1.4zM16.053 18.593h0.908c0.054-0.148 0.095-0.438 0.122-0.554s0.041-0.24 0.041-0.375c0-0.365-0.079-0.696-0.235-0.994s-0.564-0.648-0.836-1.055v2.978zM26.568 8.654c0.203 0.798 0.271 1.609 0.203 2.434-0.135 1.65-0.838 3.306-2.109 4.604l1.116 2.13-1.644 1.866c-2.326-1.11-3.063 0.044-3.063 1.663v6.649h-1.047v-5.964h-0.946v5.964h-1.088v-5.964h-0.938v5.964h-1.034v-5.964h-0.938v5.964h-1.033v-5.946l-0.939-0.018v5.964h-1.090v-5.964h-0.943v5.964h-1.035v-6.649c0-1.625-0.867-2.855-3.198-1.663l-1.683-1.866 1.176-2.13c-1.271-1.298-1.951-2.951-2.1-4.613-0.075-0.833-0.014-1.647 0.182-2.445 0.997-4.056 4.496-4.698 5.182-4.807 3.905-0.541 7.818-0.541 11.737 0 0.669 0.115 4.213 0.819 5.232 4.827z"></path>
</svg>
