<?xml version="1.0" encoding="utf-8"?>
<!-- Generated by IcoMoon.io -->
<!DOCTYPE svg PUBLIC "-//W3C//DTD SVG 1.1//EN" "http://www.w3.org/Graphics/SVG/1.1/DTD/svg11.dtd">
<svg version="1.1" xmlns="http://www.w3.org/2000/svg" xmlns:xlink="http://www.w3.org/1999/xlink" width="48" height="48" viewBox="0 0 48 48">
<path fill="#444444" d="M17 39c1.1 0 2 0.9 2 2s-0.9 2-2 2l-7.5 0c-1.38 0-2.5 1.12-2.5 2.5s1.12 2.5 2.5 2.5h28c1.38 0 2.5-1.12 2.5-2.5s-1.12-2.5-2.5-2.5h-7.5c-1.1 0-2-0.9-2-2s0.9-2 2-2h13c2.21 0 4-1.79 4-4l-0-31c0-2.21-1.79-4-4-4h-39c-2.21 0-4 1.79-4 4v31c0 2.21 1.79 4 4 4l13-0zM21 31.5c0-1.38 1.12-2.5 2.5-2.5s2.5 1.12 2.5 2.5-1.12 2.5-2.5 2.5-2.5-1.12-2.5-2.5zM7.2 5h32.6c1.22 0 2.2 0.98 2.2 2.2v15.6c0 1.22-0.98 2.2-2.2 2.2h-32.6c-1.22 0-2.2-0.98-2.2-2.2v-15.6c0-1.22 0.98-2.2 2.2-2.2z"></path>
</svg>
