<?xml version="1.0" encoding="utf-8"?>
<!-- Generated by IcoMoon.io -->
<!DOCTYPE svg PUBLIC "-//W3C//DTD SVG 1.1//EN" "http://www.w3.org/Graphics/SVG/1.1/DTD/svg11.dtd">
<svg version="1.1" xmlns="http://www.w3.org/2000/svg" xmlns:xlink="http://www.w3.org/1999/xlink" width="32" height="32" viewBox="0 0 32 32">
<path fill="#444444" d="M16.038 0c0 0-10.038 11.921-10.038 22.023s9.962 9.977 9.962 9.977 10.038-0.125 10.038-10.039-9.962-21.961-9.962-21.961zM16 28c-3.313 0-6-2.687-6-6 0-2.121 1.114-3.963 2.777-5.026-0.477 0.637-0.777 1.53-0.777 2.526 0 0.207 0.019 0.407 0.043 0.604-0.009 0.134-0.043 0.26-0.043 0.396 0 0.257 0.042 0.503 0.076 0.75-0.047 0.243-0.076 0.493-0.076 0.75 0 2.209 1.791 4 4 4 0.257 0 0.507-0.029 0.75-0.075 0.248 0.034 0.493 0.075 0.75 0.075 0.136 0 0.262-0.033 0.395-0.044 0.197 0.025 0.398 0.044 0.605 0.044 0.996 0 1.889-0.3 2.526-0.776-1.063 1.662-2.905 2.776-5.026 2.776z"></path>
</svg>
