<?xml version="1.0" encoding="utf-8"?>
<!-- Generated by IcoMoon.io -->
<!DOCTYPE svg PUBLIC "-//W3C//DTD SVG 1.1//EN" "http://www.w3.org/Graphics/SVG/1.1/DTD/svg11.dtd">
<svg version="1.1" xmlns="http://www.w3.org/2000/svg" xmlns:xlink="http://www.w3.org/1999/xlink" width="32" height="32" viewBox="0 0 32 32">
<path fill="#444444" d="M27 15.031h-20v5h20c0.552 0 1-0.447 1-1v-3c0-0.552-0.448-1-1-1zM22 25.031v-3c0-0.553-0.448-1-1-1h-14v5h14c0.552 0 1-0.447 1-1zM16 13.031v-3c0-0.552-0.448-1-1-1h-8v5h8c0.552 0 1-0.448 1-1zM10 7.031v-3c0-0.553-0.448-1-1-1h-2v5h2c0.552 0 1-0.448 1-1zM5 3.031h-1v25.938h24v-1h-23v-24.938z"></path>
</svg>
