<?xml version="1.0" encoding="utf-8"?>
<!-- Generated by IcoMoon.io -->
<!DOCTYPE svg PUBLIC "-//W3C//DTD SVG 1.1//EN" "http://www.w3.org/Graphics/SVG/1.1/DTD/svg11.dtd">
<svg version="1.1" xmlns="http://www.w3.org/2000/svg" xmlns:xlink="http://www.w3.org/1999/xlink" width="24" height="24" viewBox="0 0 24 24">
<path fill="#444444" d="M17 19h-12c-0.553 0-1-0.447-1-1s0.447-1 1-1h12c0.553 0 1 0.447 1 1s-0.447 1-1 1z"></path>
<path fill="#444444" d="M17.5 5h-12.5v9c0 1.1 0.9 2 2 2h8c1.1 0 2-0.9 2-2v-2h0.5c1.93 0 3.5-1.57 3.5-3.5s-1.57-3.5-3.5-3.5zM15 14h-8v-7h8v7zM17.5 10h-1.5v-3h1.5c0.827 0 1.5 0.673 1.5 1.5s-0.673 1.5-1.5 1.5z"></path>
</svg>
