<?xml version="1.0" encoding="utf-8"?>
<!-- Generated by IcoMoon.io -->
<!DOCTYPE svg PUBLIC "-//W3C//DTD SVG 1.1//EN" "http://www.w3.org/Graphics/SVG/1.1/DTD/svg11.dtd">
<svg version="1.1" xmlns="http://www.w3.org/2000/svg" xmlns:xlink="http://www.w3.org/1999/xlink" width="32" height="32" viewBox="0 0 32 32">
<path fill="#444444" d="M30 0h-24c-1.106 0-2 0.895-2 2v2h-2c-1.105 0-2 0.896-2 2v24c0 1.105 0.894 2 2 2h28c1.105 0 2-0.895 2-2v-28c0-1.105-0.895-2-2-2zM8 28h-4v-20h4v20zM28 28h-16v-24h16v24zM16 8h8v4h-8zM16 20h8v4h-8zM16 14h8v4h-8z"></path>
</svg>
