<?xml version="1.0" encoding="utf-8"?>
<!-- Generated by IcoMoon.io -->
<!DOCTYPE svg PUBLIC "-//W3C//DTD SVG 1.1//EN" "http://www.w3.org/Graphics/SVG/1.1/DTD/svg11.dtd">
<svg version="1.1" xmlns="http://www.w3.org/2000/svg" xmlns:xlink="http://www.w3.org/1999/xlink" width="24" height="24" viewBox="0 0 24 24">
<path fill="#444444" d="M17 2h-8c-1.654 0-3 1.346-3 3v14c0 0.514 0.104 0.946 0.308 1.285 0.564 0.935 1.815 1.008 2.813 0.008l3.172-3.172c0.375-0.374 1.039-0.374 1.414 0l3.172 3.172c0.491 0.491 1.002 0.74 1.52 0.74 0.797 0 1.601-0.629 1.601-2.033v-14c0-1.654-1.346-3-3-3zM9 4h8c0.551 0 1 0.449 1 1v9.905l-2.451-2.247c-1.406-1.289-3.693-1.288-5.099 0l-2.45 2.247v-9.905c0-0.551 0.449-1 1-1zM15.121 15.707c-0.565-0.565-1.318-0.876-2.121-0.876s-1.556 0.312-2.121 0.876l-2.879 2.879v-2.324l3.126-2.866c1.033-0.947 2.714-0.947 3.747 0l3.127 2.866v2.324l-2.879-2.879z"></path>
</svg>
