<?xml version="1.0" encoding="utf-8"?>
<!-- Generated by IcoMoon.io -->
<!DOCTYPE svg PUBLIC "-//W3C//DTD SVG 1.1//EN" "http://www.w3.org/Graphics/SVG/1.1/DTD/svg11.dtd">
<svg version="1.1" xmlns="http://www.w3.org/2000/svg" xmlns:xlink="http://www.w3.org/1999/xlink" width="32" height="32" viewBox="0 0 32 32">
<path fill="#444444" d="M15.5 30.031c-4.365 0-10.477-4.553-10.477-9.104 0-1.95 0.366-4.532 0.785-6.922h5.131c-0.271 2.099-0.49 4.456-0.49 6.797 0.374 2.12 3.367 3.741 5.051 3.741s4.553-1.559 5.051-3.741c0-2.354-0.227-4.707-0.507-6.797h5.112c0.436 2.424 0.82 5.044 0.82 6.983 0.001 4.491-6.111 9.043-10.476 9.043zM18.992 8.018h4.927c0 0 0.538 2.222 1.063 4.989h-5.070c-0.431-2.912-0.92-4.989-0.92-4.989zM18.992 4.026h4.988v0.998h-4.988v-0.998zM11.945 8.018c0 0-0.467 2.085-0.879 4.989h-5.090c0.514-2.771 1.042-4.989 1.042-4.989h4.927zM10.012 6.957h-0.997v-1.995h-1.996v-0.998h1.996v-1.995h0.997v1.995h1.996v0.998h-1.996v1.995z"></path>
</svg>
