<?xml version="1.0" encoding="utf-8"?>
<!-- Generated by IcoMoon.io -->
<!DOCTYPE svg PUBLIC "-//W3C//DTD SVG 1.1//EN" "http://www.w3.org/Graphics/SVG/1.1/DTD/svg11.dtd">
<svg version="1.1" xmlns="http://www.w3.org/2000/svg" xmlns:xlink="http://www.w3.org/1999/xlink" width="32" height="32" viewBox="0 0 32 32">
<path fill="#444444" d="M21.5 20.988c1.934 0 3.5 2.016 3.5 4.5 0 2.486-1.566 4.5-3.5 4.5s-3.5-2.014-3.5-4.5c0-1.498 0.576-2.816 1.452-3.635l-3.452-4.955-3.453 4.955c0.877 0.819 1.453 2.137 1.453 3.635 0 2.486-1.567 4.5-3.5 4.5s-3.5-2.014-3.5-4.5c0-2.484 1.567-4.5 3.5-4.5 0.199 0 0.392 0.035 0.582 0.076l3.475-6.238-3.631-5.212c-2.961-5.129-0.62-7.604-0.62-7.604l5.694 10.225 5.694-10.224c0 0 2.341 2.475-0.62 7.604l-3.631 5.212 3.475 6.238c0.189-0.042 0.383-0.077 0.582-0.077zM10.5 22.969c-1.104 0-2 1.119-2 2.5s0.896 2.5 2 2.5 2-1.119 2-2.5-0.896-2.5-2-2.5zM16 14.073c-0.552 0-1 0.447-1 1 0 0.552 0.448 1 1 1 0.553 0 1-0.448 1-1 0-0.553-0.447-1-1-1zM19.5 25.469c0 1.381 0.896 2.5 2 2.5s2-1.119 2-2.5-0.896-2.5-2-2.5-2 1.119-2 2.5z"></path>
</svg>
