<?xml version="1.0" encoding="utf-8"?>
<!-- Generated by IcoMoon.io -->
<!DOCTYPE svg PUBLIC "-//W3C//DTD SVG 1.1//EN" "http://www.w3.org/Graphics/SVG/1.1/DTD/svg11.dtd">
<svg version="1.1" xmlns="http://www.w3.org/2000/svg" xmlns:xlink="http://www.w3.org/1999/xlink" width="18" height="18" viewBox="0 0 18 18">
<path fill="#444444" d="M17 4h-4l-1.707-1.707c-0.188-0.188-0.442-0.293-0.707-0.293h-3.172c-0.265 0-0.52 0.105-0.707 0.293l-1.707 1.707h-4c-0.552 0-1 0.448-1 1v10c0 0.552 0.448 1 1 1h2c0.552 0 1-0.448 1-1s-0.448-1-1-1h-0.5c-0.276 0-0.5-0.224-0.5-0.5v-7c0-0.276 0.224-0.5 0.5-0.5h3.329l2-2h2.343l2 2h3.329c0.276 0 0.5 0.224 0.5 0.5v7c0 0.276-0.224 0.5-0.5 0.5h-0.5c-0.552 0-1 0.448-1 1 0 0.547 0.439 0.99 0.985 0.999l-0 0.001h2.016c0.552 0 1-0.448 1-1v-10c0-0.552-0.448-1-1-1z"></path>
<path fill="#444444" d="M9 9c1.103 0 2 0.897 2 2s-0.897 2-2 2-2-0.897-2-2 0.897-2 2-2zM9 7c-2.209 0-4 1.791-4 4s1.791 4 4 4 4-1.791 4-4-1.791-4-4-4v0z"></path>
</svg>
