<?xml version="1.0" encoding="utf-8"?>
<!-- Generated by IcoMoon.io -->
<!DOCTYPE svg PUBLIC "-//W3C//DTD SVG 1.1//EN" "http://www.w3.org/Graphics/SVG/1.1/DTD/svg11.dtd">
<svg version="1.1" xmlns="http://www.w3.org/2000/svg" xmlns:xlink="http://www.w3.org/1999/xlink" width="24" height="24" viewBox="0 0 24 24">
<path fill="#444444" d="M13.374 7.083l3.711-3.71-0.438-0.434c-0.566-0.566-1.555-0.566-2.121 0l-1.586 1.586c-0.284 0.284-0.44 0.661-0.44 1.061s0.156 0.777 0.438 1.060l0.436 0.437z"></path>
<path fill="#444444" d="M6.646 12.939c-0.566-0.566-1.555-0.566-2.121 0l-1.586 1.586c-0.283 0.284-0.439 0.661-0.439 1.061s0.156 0.777 0.441 1.062l0.437 0.432 3.703-3.703-0.435-0.438z"></path>
<path fill="#444444" d="M18.437 4.729l-0.354-0.354-3.708 3.708 0.65 0.649c0.095 0.095 0.146 0.22 0.146 0.354s-0.052 0.259-0.146 0.354l-5.586 5.586c-0.189 0.188-0.518 0.189-0.707 0l-0.65-0.65-3.702 3.71 0.354 0.354c0.26 0.26 1.246 1.105 3.056 1.105 1.616 0 4.256-0.712 7.65-4.105 6.773-6.775 3.158-10.55 2.997-10.711z"></path>
</svg>
