<?xml version="1.0" encoding="utf-8"?>
<!-- Generated by IcoMoon.io -->
<!DOCTYPE svg PUBLIC "-//W3C//DTD SVG 1.1//EN" "http://www.w3.org/Graphics/SVG/1.1/DTD/svg11.dtd">
<svg version="1.1" xmlns="http://www.w3.org/2000/svg" xmlns:xlink="http://www.w3.org/1999/xlink" width="32" height="32" viewBox="0 0 32 32">
<path fill="#444444" d="M16 0c-8.837 0-16 7.164-16 16s7.163 16 16 16 16-7.164 16-16c0-8.836-7.163-16-16-16zM18 27.82v-3.82c0-0.553-0.447-1-1-1h-2c-0.553 0-1 0.447-1 1v3.82c-5.021-0.844-8.982-4.8-9.827-9.82h3.827c0.553 0 1-0.447 1-1v-2c0-0.553-0.447-1-1-1h-3.82c0.844-5.022 4.8-8.982 9.82-9.827v3.827c0 0.552 0.447 1 1 1h2c0.553 0 1-0.448 1-1v-3.827c5.020 0.845 8.976 4.805 9.82 9.827h-3.82c-0.553 0-1 0.447-1 1v2c0 0.553 0.447 1 1 1h3.827c-0.845 5.020-4.806 8.976-9.827 9.82z"></path>
</svg>
