<?xml version="1.0" encoding="UTF-8"?>
<!DOCTYPE svg PUBLIC "-//W3C//DTD SVG 1.1//EN" "http://www.w3.org/Graphics/SVG/1.1/DTD/svg11.dtd">
<!-- Creator: CorelDRAW X8 -->
<svg xmlns="http://www.w3.org/2000/svg" xml:space="preserve" width="1.64286in" height="1.5275in" version="1.1" style="shape-rendering:geometricPrecision; text-rendering:geometricPrecision; image-rendering:optimizeQuality; fill-rule:evenodd; clip-rule:evenodd"
viewBox="0 0 3247 3019"
 xmlns:xlink="http://www.w3.org/1999/xlink">
 <defs>
  <style type="text/css">
   <![CDATA[
    .fil0 {fill:black}
   ]]>
  </style>
 </defs>
 <g id="Layer_x0020_1">
  <metadata id="CorelCorpID_0Corel-Layer"/>
  <path class="fil0" d="M1706 247c1,17 31,114 38,121 14,17 190,85 190,323 0,102 -47,172 -94,230 -41,51 -149,107 -223,107l-57 0c-168,0 -323,-162 -323,-330 0,-166 51,-152 37,-202l-31 -103c-98,23 -753,239 -787,241 2,55 237,749 267,876 -36,3 -88,31 -121,31 -5,0 -58,-22 -73,-28 -94,-30 -214,-19 -301,22 -78,37 -153,116 -189,191 -78,163 -34,374 83,473 160,137 385,164 552,16 116,-104 49,-109 145,-140 24,-8 46,-19 75,-20l112 358c14,42 26,79 38,121l113 362c7,22 10,39 17,59 6,20 16,40 18,64 30,-2 619,-188 684,-210 29,-9 73,-24 103,-31 -1,-29 -28,-110 -37,-134 -15,-40 -39,-28 -95,-83 -273,-267 35,-726 385,-569 161,72 244,238 196,417 -5,20 -27,62 -28,71 0,7 42,139 48,152 23,-11 70,-22 96,-31l703 -216c-3,-40 -169,-548 -193,-632l-117 -377c-154,36 -55,48 -184,147 -299,229 -706,-110 -516,-453 7,-14 14,-23 23,-34 46,-57 92,-95 166,-120 77,-25 158,-26 237,5 28,10 39,35 128,-8l-279 -913c-36,3 -356,108 -405,122 -63,17 -133,44 -198,62 -34,9 -69,21 -102,31 -18,5 -29,10 -48,16 -18,6 -39,10 -53,16z"/>
 </g>
</svg>
