<?xml version="1.0" encoding="utf-8"?>
<!-- Generated by IcoMoon.io -->
<!DOCTYPE svg PUBLIC "-//W3C//DTD SVG 1.1//EN" "http://www.w3.org/Graphics/SVG/1.1/DTD/svg11.dtd">
<svg version="1.1" xmlns="http://www.w3.org/2000/svg" xmlns:xlink="http://www.w3.org/1999/xlink" width="32" height="32" viewBox="0 0 32 32">
<path fill="#444444" d="M11.757 11.758c-2.343 2.343-2.343 6.142 0 8.485s6.142 2.343 8.485 0c2.344-2.344 2.344-6.143 0-8.485-2.343-2.344-6.141-2.344-8.485 0zM17.414 17.414c-0.781 0.781-2.047 0.781-2.828 0s-0.781-2.047 0-2.828 2.047-0.781 2.828 0 0.781 2.047 0 2.828zM27.313 4.687c-6.248-6.249-16.379-6.249-22.627 0-6.249 6.248-6.249 16.379 0 22.627 6.248 6.249 16.379 6.249 22.627 0 6.249-6.249 6.249-16.379 0-22.627zM21.656 21.657c-3.123 3.124-8.189 3.124-11.313 0-3.125-3.125-3.125-8.189 0-11.314s8.19-3.124 11.313 0c3.125 3.125 3.125 8.189 0 11.314zM22.363 9.636l3.536-4.949 1.414 1.414-4.95 3.535z"></path>
</svg>
