<?xml version="1.0" encoding="utf-8"?>
<!-- Generated by IcoMoon.io -->
<!DOCTYPE svg PUBLIC "-//W3C//DTD SVG 1.1//EN" "http://www.w3.org/Graphics/SVG/1.1/DTD/svg11.dtd">
<svg version="1.1" xmlns="http://www.w3.org/2000/svg" xmlns:xlink="http://www.w3.org/1999/xlink" width="24" height="24" viewBox="0 0 24 24">
<path fill="#444444" d="M17.719 18.984h-14.719v-0.984l2.016-2.016v-5.484q0-1.781 0.891-3.328l-2.906-2.906 1.266-1.266 16.734 16.734-1.266 1.266zM18 10.5v3.703l-9.469-9.469q0.75-0.375 1.453-0.563v-0.656q0-0.609 0.445-1.055t1.055-0.445 1.055 0.445 0.445 1.055v0.656q2.156 0.516 3.586 2.297t1.43 4.031zM11.484 21.984q-0.797 0-1.383-0.586t-0.586-1.383h3.984q0 0.797-0.609 1.383t-1.406 0.586z"></path>
</svg>
