<?xml version="1.0" encoding="utf-8"?>
<!-- Generated by IcoMoon.io -->
<!DOCTYPE svg PUBLIC "-//W3C//DTD SVG 1.1//EN" "http://www.w3.org/Graphics/SVG/1.1/DTD/svg11.dtd">
<svg version="1.1" xmlns="http://www.w3.org/2000/svg" xmlns:xlink="http://www.w3.org/1999/xlink" width="24" height="24" viewBox="0 0 24 24">
<path fill="#444444" d="M12 4c-4.411 0-8 3.589-8 8s3.589 8 8 8c1.616 0 3.172-0.479 4.499-1.384 0.456-0.312 0.574-0.934 0.263-1.39-0.311-0.457-0.932-0.572-1.39-0.263-0.994 0.679-2.16 1.037-3.372 1.037-3.309 0-6-2.691-6-6s2.691-6 6-6 6 2.691 6 6v0.5c0 0.552-0.448 1-1 1s-1-0.448-1-1v-3c0-0.553-0.447-1-1-1-0.441 0-0.805 0.29-0.938 0.688-0.58-0.427-1.289-0.688-2.062-0.688-1.93 0-3.5 1.57-3.5 3.5s1.57 3.5 3.5 3.5c1.045 0 1.975-0.47 2.616-1.199 0.548 0.723 1.408 1.199 2.384 1.199 1.654 0 3-1.346 3-3v-0.5c0-4.411-3.589-8-8-8zM12 13.5c-0.827 0-1.5-0.673-1.5-1.5s0.673-1.5 1.5-1.5 1.5 0.673 1.5 1.5-0.673 1.5-1.5 1.5z"></path>
</svg>
