<?xml version="1.0" encoding="utf-8"?>
<!-- Generated by IcoMoon.io -->
<!DOCTYPE svg PUBLIC "-//W3C//DTD SVG 1.1//EN" "http://www.w3.org/Graphics/SVG/1.1/DTD/svg11.dtd">
<svg version="1.1" xmlns="http://www.w3.org/2000/svg" xmlns:xlink="http://www.w3.org/1999/xlink" width="32" height="32" viewBox="0 0 32 32">
<path fill="#444444" d="M3 4v25h25v-25h-25zM11 28h-7v-7h7v7zM11 20h-7v-7h7v7zM11 12h-7v-7h7v7zM19 28h-7v-7h7v7zM19 20h-7v-7h7v7zM19 12h-7v-7h7v7zM27 28h-7v-7h7v7zM27 20h-7v-7h7v7zM27 12h-7v-7h7v7z"></path>
</svg>
