<?xml version="1.0" encoding="utf-8"?>
<!-- Generated by IcoMoon.io -->
<!DOCTYPE svg PUBLIC "-//W3C//DTD SVG 1.1//EN" "http://www.w3.org/Graphics/SVG/1.1/DTD/svg11.dtd">
<svg version="1.1" xmlns="http://www.w3.org/2000/svg" xmlns:xlink="http://www.w3.org/1999/xlink" width="36" height="32" viewBox="0 0 36 32">
<path fill="#444444" d="M25 8c-0.35 0-0.678 0.070-1.020 0.104-2.301-3.656-6.342-6.104-10.98-6.104-7.18 0-13 5.82-13 13v2c0 6.838 5.297 12.482 12 13h14c5.6-0.512 10-5.268 10-11 0-6.074-4.926-11-11-11zM26 26h-14c-1.119-0.125-2.166-0.547-3.123-1.043-0.020-0.010-0.037-0.021-0.057-0.031-0.447-0.236-0.871-0.502-1.269-0.809-0.059-0.043-0.111-0.092-0.168-0.137-0.352-0.283-0.688-0.582-0.994-0.916-0.098-0.104-0.18-0.221-0.271-0.33-0.248-0.297-0.492-0.598-0.701-0.926-0.123-0.191-0.217-0.398-0.324-0.598-0.15-0.281-0.309-0.553-0.428-0.85-0.125-0.303-0.203-0.625-0.293-0.943-0.064-0.225-0.148-0.438-0.195-0.67-0.111-0.564-0.176-1.148-0.176-1.748v-2c0-4.971 4.029-9 9-9 0.672 0 1.322 0.086 1.953 0.227 0.129 0.029 0.25 0.082 0.377 0.117 0.512 0.137 1.008 0.309 1.479 0.529 0.080 0.039 0.154 0.086 0.234 0.127 0.518 0.262 1.002 0.57 1.457 0.924 0.021 0.018 0.043 0.035 0.066 0.053 1.533 1.219 2.66 2.908 3.145 4.871 0.981-0.531 2.094-0.848 3.289-0.848 3.865 0 7 3.135 7 7 0 3.523-2.611 6.512-6 7z"></path>
</svg>
