<?xml version="1.0" encoding="utf-8"?>
<!-- Generated by IcoMoon.io -->
<!DOCTYPE svg PUBLIC "-//W3C//DTD SVG 1.1//EN" "http://www.w3.org/Graphics/SVG/1.1/DTD/svg11.dtd">
<svg version="1.1" xmlns="http://www.w3.org/2000/svg" xmlns:xlink="http://www.w3.org/1999/xlink" width="32" height="32" viewBox="0 0 32 32">
<path fill="#444444" d="M29 15v-4.5c0-3.038-2.463-5.5-5.5-5.5-3.038 0-5.5 2.462-5.5 5.5v4.571h5v15.929h-23v-16h15v-5c0-4.418 3.581-8 8-8h1c4.418 0 8 3.582 8 8v5h-3zM11.5 18.938c-1.105 0-2 0.896-2 2 0 0.837 0.515 1.552 1.244 1.85l-0.744 5.212h3l-0.745-5.213c0.729-0.298 1.245-1.013 1.245-1.85 0-1.104-0.896-1.999-2-1.999z"></path>
</svg>
