<?xml version="1.0" encoding="utf-8"?>
<!-- Generated by IcoMoon.io -->
<!DOCTYPE svg PUBLIC "-//W3C//DTD SVG 1.1//EN" "http://www.w3.org/Graphics/SVG/1.1/DTD/svg11.dtd">
<svg version="1.1" xmlns="http://www.w3.org/2000/svg" xmlns:xlink="http://www.w3.org/1999/xlink" width="32" height="32" viewBox="0 0 32 32">
<path fill="#444444" d="M22 4h-12c-1.105 0-2 0.896-2 2v20c0 1.104 0.895 2 2 2h12c1.104 0 2-0.896 2-2v-20c0-1.104-0.896-2-2-2zM16 26c-1.934 0-3.5-1.567-3.5-3.5 0-1.934 1.566-3.5 3.5-3.5s3.5 1.566 3.5 3.5c0 1.933-1.567 3.5-3.5 3.5zM22 17h-12l0.021-11h11.979v11zM16 20.5c-1.104 0-2 0.896-2 2s0.896 2 2 2 2-0.896 2-2-0.896-2-2-2z"></path>
</svg>
