<?xml version="1.0" encoding="utf-8"?>
<!-- Generated by IcoMoon.io -->
<!DOCTYPE svg PUBLIC "-//W3C//DTD SVG 1.1//EN" "http://www.w3.org/Graphics/SVG/1.1/DTD/svg11.dtd">
<svg version="1.1" xmlns="http://www.w3.org/2000/svg" xmlns:xlink="http://www.w3.org/1999/xlink" width="32" height="32" viewBox="0 0 32 32">
<path fill="#444444" d="M16.247 4.733c0 1.684 1.271 2.825 2.84 2.825s2.842-1.142 2.842-2.825c0-1.685-1.272-2.826-2.842-2.826-1.568 0-2.84 1.141-2.84 2.826zM10.096 14.375c0 0.334-0.061 1.163 0.008 1.662l2.479-2.983c0.513-0.562 1.106-0.955 1.409-0.849s0.47 0.463 0.371 0.795l-4.103 13.59c-0.473 1.588 0.421 3.148 2.599 3.504 3.189 0 5.084-2.158 6.948-4.955 0-0.334 0.111-1.213 0.044-1.713l-2.479 2.982c-0.514 0.562-1.151 0.955-1.455 0.85-0.28-0.098-0.444-0.41-0.389-0.721l4.132-13.653c0.344-1.734-0.59-3.312-2.564-3.514-2.076 0.001-5.136 2.209-7 5.005z"></path>
</svg>
