<?xml version="1.0" encoding="utf-8"?>
<!-- Generated by IcoMoon.io -->
<!DOCTYPE svg PUBLIC "-//W3C//DTD SVG 1.1//EN" "http://www.w3.org/Graphics/SVG/1.1/DTD/svg11.dtd">
<svg version="1.1" xmlns="http://www.w3.org/2000/svg" xmlns:xlink="http://www.w3.org/1999/xlink" width="48" height="48" viewBox="0 0 48 48">
<path fill="#444444" d="M23.11 27.641l-16.95 16.949c-0.36 0.36-0.58 0.86-0.58 1.41 0 1.1 0.89 2 2 2 0.29 0 0.56-0.061 0.81-0.17 0 0 28.24-12.24 28.561-12.391 0.659-0.299 1.17-0.879 1.37-1.6l4.57-16.47 0.92 0.91c0.959 0.96 2.51 0.96 3.469 0 0.961-0.96 0.961-2.511 0-3.47l-14.091-14.089c-0.959-0.96-2.51-0.96-3.469 0-0.961 0.96-0.961 2.511 0 3.47l0.91 0.91-16.5 4.59c-0.72 0.211-1.3 0.73-1.6 1.41l-12.37 28.541c-0.1 0.239-0.16 0.5-0.16 0.779 0 1.11 0.9 2 2 2 0.57 0 1.080-0.23 1.44-0.609l16.92-16.92c-0.23-0.591-0.36-1.221-0.36-1.891 0-2.76 2.24-5 5-5s5 2.24 5 5-2.24 5-5 5c-0.67 0-1.3-0.13-1.89-0.359z"></path>
</svg>
