<?xml version="1.0" encoding="utf-8"?>
<!-- Generated by IcoMoon.io -->
<!DOCTYPE svg PUBLIC "-//W3C//DTD SVG 1.1//EN" "http://www.w3.org/Graphics/SVG/1.1/DTD/svg11.dtd">
<svg version="1.1" xmlns="http://www.w3.org/2000/svg" xmlns:xlink="http://www.w3.org/1999/xlink" width="24" height="24" viewBox="0 0 24 24">
<path fill="#444444" d="M19.707 5.293c-0.391-0.391-1.023-0.391-1.414 0l-1.551 1.551c-0.345-0.688-0.987-1.020-1.604-1.020-0.449 0-0.905 0.152-1.356 0.453l-2.672 1.781c-0.753 0.503-2.206 0.942-3.11 0.942-1.654 0-3 1.346-3 3v2c0 1.237 0.754 2.302 1.826 2.76l-1.533 1.533c-0.391 0.391-0.391 1.023 0 1.414 0.195 0.195 0.451 0.293 0.707 0.293s0.512-0.098 0.707-0.293l2.527-2.527c0.697 0.174 1.416 0.455 1.875 0.762l2.672 1.781c0.451 0.301 0.907 0.453 1.356 0.453 0.898 0 1.863-0.681 1.863-2.176v-8.586l2.707-2.707c0.391-0.391 0.391-1.023 0-1.414zM14.891 7.941c0.038-0.025 0.073-0.046 0.104-0.062 0.003 0.035 0.005 0.075 0.005 0.121v1.293l-2 2v-2.091l1.891-1.261zM7 12c0-0.552 0.448-1 1-1 1.211 0 2.907-0.495 4-1.146v2.439l-2.83 2.83c-0.413-0.077-0.814-0.123-1.17-0.123-0.552 0-1-0.448-1-1v-2zM10.301 15.406l1.699-1.699v2.439c-0.481-0.287-1.075-0.542-1.699-0.74zM14.994 18.12c-0.030-0.016-0.065-0.036-0.104-0.062l-1.89-1.26v-4.091l2-2v7.293c0 0.046-0.002 0.086-0.006 0.12z"></path>
</svg>
