<?xml version="1.0" encoding="utf-8"?>
<!-- Generated by IcoMoon.io -->
<!DOCTYPE svg PUBLIC "-//W3C//DTD SVG 1.1//EN" "http://www.w3.org/Graphics/SVG/1.1/DTD/svg11.dtd">
<svg version="1.1" xmlns="http://www.w3.org/2000/svg" xmlns:xlink="http://www.w3.org/1999/xlink" width="24" height="24" viewBox="0 0 24 24">
<path fill="#444444" d="M16 8.551v-1.551c0-1.105-0.896-2-2-2h-10v10c0 1.104 0.896 2 2 2h1.066c0.893 2.887 3.646 5 6.809 5 3.859 0 7.062-3.016 7.062-6.875 0.001-3.161-2.068-5.74-4.937-6.574zM8 10.413v3.243c0 0.552-0.448 1-1 1s-1-0.448-1-1v-6.656h6.656c0.552 0 1 0.448 1 1s-0.448 1-1 1h-3.243l4.801 4.799c0.392 0.391 0.392 1.025 0.001 1.415-0.189 0.188-0.439 0.292-0.708 0.292s-0.519-0.104-0.707-0.291l-4.8-4.802zM14 20.031c-2.757 0-5-2.26-5-5.016 0-0.705-0.004-1.371 0.21-1.979l2.883 2.884c0.39 0.39 0.901 0.584 1.414 0.584s1.022-0.194 1.414-0.584c0.781-0.78 0.781-2.049 0-2.83l-2.567-2.567c0.517-0.226 1.065-0.398 1.646-0.398 2.757 0 5 2.182 5 4.938 0 2.757-2.243 4.968-5 4.968z"></path>
</svg>
