<?xml version="1.0" encoding="UTF-8"?>
<!DOCTYPE svg PUBLIC "-//W3C//DTD SVG 1.1//EN" "http://www.w3.org/Graphics/SVG/1.1/DTD/svg11.dtd">
<!-- Creator: CorelDRAW X8 -->
<svg xmlns="http://www.w3.org/2000/svg" xml:space="preserve" width="1.81805in" height="1.81805in" version="1.1" style="shape-rendering:geometricPrecision; text-rendering:geometricPrecision; image-rendering:optimizeQuality; fill-rule:evenodd; clip-rule:evenodd"
viewBox="0 0 574 574"
 xmlns:xlink="http://www.w3.org/1999/xlink">
 <defs>
  <style type="text/css">
   <![CDATA[
    .fil0 {fill:black}
   ]]>
  </style>
 </defs>
 <g id="Layer_x0020_1">
  <metadata id="CorelCorpID_0Corel-Layer"/>
  <g id="_133444957632">
   <path class="fil0" d="M70 231c0,-28 2,-49 14,-73 4,-9 8,-16 13,-23 5,-7 15,-19 21,-24 16,-12 13,-14 38,-26l26 -10c146,-36 249,123 164,240l-29 29c-6,5 -10,8 -16,12 -60,36 -137,25 -187,-25 -25,-25 -44,-66 -44,-100zm-70 -16c0,41 5,72 21,104 7,13 12,23 21,34 8,11 15,20 25,30 23,22 37,30 66,44 20,10 42,14 65,18 5,1 8,0 13,0 45,4 92,-8 130,-32 5,-4 8,-6 13,-9l24 23c-6,9 -10,11 -10,25 0,17 14,28 23,37l61 62c15,15 21,23 44,23 10,0 20,-8 25,-13l40 -40c10,-10 13,-16 13,-30l0 -1c0,-17 -14,-28 -23,-37l-60 -61c-15,-15 -21,-24 -42,-24 -10,0 -17,6 -23,10l-22 -23c4,-9 10,-16 14,-24 5,-8 9,-17 13,-26 17,-42 19,-88 10,-131 -4,-20 -13,-40 -21,-57 -2,-4 -5,-7 -7,-11 -10,-17 -15,-21 -25,-33 -9,-11 -28,-27 -41,-36 -32,-21 -76,-37 -116,-37l-1 0c-32,0 -54,2 -83,13l-19 8c-26,10 -50,32 -69,51l-18 22c-9,11 -19,31 -25,44 -1,3 -2,6 -3,10 -3,7 -4,12 -6,20 -4,14 -7,30 -7,47l0 0z"/>
   <path class="fil0" d="M89 249c0,14 17,45 27,58 4,7 7,10 13,16 15,15 32,25 53,32 4,2 19,6 23,6 27,0 32,-36 10,-45 -14,-5 -30,-5 -47,-21 -35,-31 -29,-53 -40,-63 -6,-6 -16,-8 -26,-4 -6,3 -13,12 -13,21z"/>
   <path class="fil0" d="M94 179c0,8 3,13 6,17 12,13 33,7 38,-7 8,-20 -12,-37 -29,-30 -8,3 -15,10 -15,20z"/>
  </g>
 </g>
</svg>
