<?xml version="1.0" encoding="utf-8"?>
<!-- Generated by IcoMoon.io -->
<!DOCTYPE svg PUBLIC "-//W3C//DTD SVG 1.1//EN" "http://www.w3.org/Graphics/SVG/1.1/DTD/svg11.dtd">
<svg version="1.1" xmlns="http://www.w3.org/2000/svg" xmlns:xlink="http://www.w3.org/1999/xlink" width="32" height="32" viewBox="0 0 32 32">
<path fill="#444444" d="M25.5 9c-0.295 0-0.58 0.037-0.857 0.097-0.123-1.821-1.624-3.264-3.476-3.264-0.415 0-0.808 0.085-1.177 0.218-1.15-1.828-3.172-3.051-5.49-3.051-3.522 0-6.373 2.807-6.48 6.303-0.469-0.193-0.981-0.303-1.52-0.303-2.209 0-4 1.791-4 4 0 2.152 1.703 3.894 3.833 3.982l1.604-1.604 1.622 1.622h0.758l1.621-1.622 1.621 1.622h0.758l1.621-1.622 1.621 1.622h0.758l1.621-1.622 1.621 1.622h0.758l1.621-1.622 1.616 1.616c2.183-0.029 3.946-1.803 3.946-3.994 0-2.209-1.791-4-4-4zM24 16.566l-1.434 1.434h-1.258l-1.371-1.371-1.371 1.371h-1.258l-1.371-1.371-1.371 1.371h-1.258l-1.371-1.371-1.371 1.371h-1.257l-1.371-1.371-1.372 1.371h-0.066l2.65 11h13.625l2.725-11h-0.066l-1.434-1.434zM11.5 28l-2.083-9h1l2.083 9h-1zM13.5 28l-1.062-9h1l1.062 9h-1zM16.5 28h-1v-9h1v9zM17.5 28l1.062-9h1l-1.062 9h-1zM20.5 28h-1l2.062-9h1l-2.062 9z"></path>
</svg>
