<?xml version="1.0" encoding="utf-8"?>
<!-- Generated by IcoMoon.io -->
<!DOCTYPE svg PUBLIC "-//W3C//DTD SVG 1.1//EN" "http://www.w3.org/Graphics/SVG/1.1/DTD/svg11.dtd">
<svg version="1.1" xmlns="http://www.w3.org/2000/svg" xmlns:xlink="http://www.w3.org/1999/xlink" width="32" height="32" viewBox="0 0 32 32">
<path fill="#444444" d="M18.973 17.802l-7.794-4.5c-0.956-0.553-2.18-0.225-2.732 0.731-0.552 0.957-0.224 2.18 0.732 2.732l7.793 4.5c0.957 0.553 2.18 0.225 2.732-0.732 0.554-0.956 0.226-2.179-0.731-2.731zM12.545 12.936l6.062 3.5 2.062-5.738-4.186-2.416-3.938 4.654zM8.076 27.676l5.799-7.044-2.598-1.5-3.201 8.544zM23.174 7.525l-5.195-3c-0.718-0.414-1.635-0.169-2.049 0.549-0.415 0.718-0.168 1.635 0.549 2.049l5.196 3c0.718 0.414 1.635 0.169 2.049-0.549s0.168-1.635-0.55-2.049z"></path>
</svg>
