<?xml version="1.0" encoding="utf-8"?>
<!-- Generated by IcoMoon.io -->
<!DOCTYPE svg PUBLIC "-//W3C//DTD SVG 1.1//EN" "http://www.w3.org/Graphics/SVG/1.1/DTD/svg11.dtd">
<svg version="1.1" xmlns="http://www.w3.org/2000/svg" xmlns:xlink="http://www.w3.org/1999/xlink" width="24" height="24" viewBox="0 0 24 24">
<path fill="#444444" d="M12 21c-1.654 0-3-1.346-3-3v-4.764c-1.143 1.024-3.025 0.979-4.121-0.115-1.17-1.169-1.17-3.073 0-4.242l7.121-7.121 7.121 7.121c1.17 1.169 1.17 3.073 0 4.242-1.094 1.095-2.979 1.14-4.121 0.115v4.764c0 1.654-1.346 3-3 3zM11 8.414v9.586c0 0.551 0.448 1 1 1s1-0.449 1-1v-9.586l3.293 3.293c0.379 0.378 1.035 0.378 1.414 0 0.391-0.391 0.391-1.023 0-1.414l-5.707-5.707-5.707 5.707c-0.391 0.391-0.391 1.023 0 1.414 0.379 0.378 1.035 0.378 1.414 0l3.293-3.293z"></path>
</svg>
