<?xml version="1.0" encoding="utf-8"?>
<!-- Generated by IcoMoon.io -->
<!DOCTYPE svg PUBLIC "-//W3C//DTD SVG 1.1//EN" "http://www.w3.org/Graphics/SVG/1.1/DTD/svg11.dtd">
<svg version="1.1" xmlns="http://www.w3.org/2000/svg" xmlns:xlink="http://www.w3.org/1999/xlink" width="24" height="24" viewBox="0 0 24 24">
<path fill="#444444" d="M20 1h-17c-1.654 0-3 1.346-3 3v12c0 1.654 2 2 3 2v6l9-6h8c1.654 0 3-1.346 3-3v-11c0-1.654-1.346-3-3-3zM21 15c0 0.551-0.449 1-1 1h-9l-6 5v-5h-2c-0.551 0-1-0.449-1-1v-11c0-0.551 0.449-1 1-1h17c0.551 0 1 0.449 1 1v11z"></path>
</svg>
