<?xml version="1.0" encoding="utf-8"?>
<!-- Generated by IcoMoon.io -->
<!DOCTYPE svg PUBLIC "-//W3C//DTD SVG 1.1//EN" "http://www.w3.org/Graphics/SVG/1.1/DTD/svg11.dtd">
<svg version="1.1" xmlns="http://www.w3.org/2000/svg" xmlns:xlink="http://www.w3.org/1999/xlink" width="24" height="24" viewBox="0 0 24 24">
<path fill="#444444" d="M4 19.999c-0.096 0-0.191-0.015-0.286-0.042-0.424-0.126-0.714-0.516-0.714-0.958v-1c0-4.8 3.381-8.864 8-9.796v-1.704c0-0.534 0.208-1.036 0.585-1.414 0.756-0.757 2.075-0.756 2.829-0.001l6.288 6.203c0.191 0.188 0.298 0.443 0.298 0.712s-0.107 0.524-0.298 0.712l-6.293 6.207c-0.746 0.746-2.067 0.751-2.823-0.005-0.378-0.378-0.586-0.88-0.586-1.414v-1.437c-2.495 0.201-4.523 0.985-6.164 3.484-0.19 0.288-0.505 0.453-0.836 0.453zM12 14.010c0.262 0 1-0.010 1-0.010v3.499l5.576-5.5-5.576-5.496v3.497c0 0-0.384-0.004-0.891 0.052-3.416 0.378-6.125 2.864-6.892 6.080 2.121-1.728 4.551-2.066 6.783-2.122z"></path>
</svg>
