<?xml version="1.0" encoding="utf-8"?>
<!-- Generated by IcoMoon.io -->
<!DOCTYPE svg PUBLIC "-//W3C//DTD SVG 1.1//EN" "http://www.w3.org/Graphics/SVG/1.1/DTD/svg11.dtd">
<svg version="1.1" xmlns="http://www.w3.org/2000/svg" xmlns:xlink="http://www.w3.org/1999/xlink" width="24" height="24" viewBox="0 0 24 24">
<path fill="#444444" d="M6.121 13c-0.553 0-1 0.448-1 1s0.447 1 1 1h1.465l-3.293 3.293c-0.391 0.391-0.391 1.023 0 1.414 0.195 0.195 0.451 0.293 0.707 0.293s0.512-0.098 0.707-0.293l3.414-3.414v1.707c0 0.552 0.447 1 1 1s0.879-0.448 0.879-1v-5h-4.879z"></path>
<path fill="#444444" d="M7 11c0.552 0 1-0.448 1-1v-2h2c0.553 0 1-0.448 1-1s-0.447-1-1-1h-3.999l-0.001 4c0 0.552 0.447 1 1 1z"></path>
<path fill="#444444" d="M17 13c-0.553 0-1 0.448-1 1v2h-2c-0.553 0-1 0.448-1 1s0.447 1 1 1h4v-4c0-0.552-0.447-1-1-1z"></path>
<path fill="#444444" d="M18.293 4.293l-3.293 3.293v-1.586c0-0.552-0.447-1-1-1s-1 0.448-1 1v5h5c0.552 0 1-0.448 1-1s-0.447-1-1-1h-1.586l3.293-3.292c0.391-0.391 0.391-1.023 0-1.414s-1.023-0.392-1.414-0.001z"></path>
</svg>
