<?xml version="1.0" encoding="utf-8"?>
<!-- Generated by IcoMoon.io -->
<!DOCTYPE svg PUBLIC "-//W3C//DTD SVG 1.1//EN" "http://www.w3.org/Graphics/SVG/1.1/DTD/svg11.dtd">
<svg version="1.1" xmlns="http://www.w3.org/2000/svg" xmlns:xlink="http://www.w3.org/1999/xlink" width="24" height="24" viewBox="0 0 24 24">
<path fill="#444444" d="M21.329 7.207c0-1.212-0.472-2.352-1.329-3.207s-1.996-1.329-3.207-1.329c-1.199 0-2.327 0.463-3.18 1.304-0.027 0.025-7.967 7.964-7.967 7.964-0.373 0.373-0.717 0.91-0.967 1.514-0.195 0.473-1.979 5.863-2.336 6.939-0.119 0.358-0.025 0.754 0.242 1.021 0.189 0.189 0.445 0.293 0.707 0.293 0.105 0 0.211-0.018 0.314-0.051 1.076-0.355 6.465-2.141 6.938-2.336 0.603-0.248 1.14-0.592 1.515-0.967l2.157-2.156c0.025 0.001 0.050 0.010 0.076 0.010 0.64 0 1.28-0.244 1.769-0.732l4.5-4.5c0.696-0.695 0.887-1.699 0.588-2.572 0.107-0.386 0.18-0.783 0.18-1.195zM9.465 17.586c-0.406 0.143-1.145 0.393-2.038 0.691l-1.704-1.704c0.301-0.894 0.551-1.634 0.691-2.038l3.051 3.051zM5.368 17.633l0.999 0.999c-0.493 0.164-1 0.333-1.498 0.499 0.166-0.498 0.335-1.006 0.499-1.498zM13.066 14.52l-2.42 2.42c-0.061 0.061-0.151 0.119-0.235 0.18l-3.53-3.529c0.061-0.084 0.12-0.176 0.18-0.234l7.131-7.131 2.731 2.731-3.69 3.69c-0.513 0.512-0.549 1.289-0.167 1.873zM19.146 9.561l-4.5 4.5c-0.098 0.099-0.226 0.146-0.354 0.146s-0.256-0.049-0.354-0.146c-0.195-0.194-0.195-0.512 0-0.707l4.5-4.5c0.194-0.194 0.512-0.194 0.707 0 0.196 0.195 0.197 0.511 0.001 0.707zM19.253 7.797c-0.519-0.168-1.108-0.062-1.521 0.35l-0.102 0.102-2.731-2.731 0.078-0.078c0.984-0.98 2.652-0.981 3.608-0.023 0.479 0.479 0.743 1.116 0.743 1.793 0.001 0.199-0.030 0.394-0.075 0.587z"></path>
</svg>
