<?xml version="1.0" encoding="utf-8"?>
<!-- Generated by IcoMoon.io -->
<!DOCTYPE svg PUBLIC "-//W3C//DTD SVG 1.1//EN" "http://www.w3.org/Graphics/SVG/1.1/DTD/svg11.dtd">
<svg version="1.1" xmlns="http://www.w3.org/2000/svg" xmlns:xlink="http://www.w3.org/1999/xlink" width="48" height="48" viewBox="0 0 48 48">
<path fill="#444444" d="M26 18.5c0-1.38-1.12-2.5-2.5-2.5s-2.5 1.12-2.5 2.5 1.12 2.5 2.5 2.5 2.5-1.12 2.5-2.5zM8 0c-2.76 0-5 2.24-5 5v38c0 2.76 2.24 5 5 5h31c2.76 0 5-2.24 5-5v-38c0-2.76-2.24-5-5-5h-31zM23.5 5c7.46 0 13.5 6.040 13.5 13.5 0 3.89-1.641 7.4-4.28 9.86-1.35-1.021-2.61-2.021-3.33-2.75-2.149-2.15-5.63-2.15-7.78 0-1.629 1.63-2.020 4.040-1.18 6.040-5.98-1.39-10.43-6.75-10.43-13.15 0-7.46 6.040-13.5 13.5-13.5zM8 40.5c0-1.38 1.12-2.5 2.5-2.5s2.5 1.12 2.5 2.5-1.12 2.5-2.5 2.5-2.5-1.12-2.5-2.5zM24.45 28.45c0.6-0.601 1.569-0.601 2.18 0 0.351 0.36 10.181 7.28 11.32 8.42 1.399 1.41 1.399 3.68 0 5.080-1.4 1.399-3.671 1.399-5.080 0-1.2-1.2-8.091-11-8.42-11.32-0.6-0.61-0.6-1.58 0-2.18z"></path>
</svg>
