<?xml version="1.0" encoding="utf-8"?>
<!-- Generated by IcoMoon.io -->
<!DOCTYPE svg PUBLIC "-//W3C//DTD SVG 1.1//EN" "http://www.w3.org/Graphics/SVG/1.1/DTD/svg11.dtd">
<svg version="1.1" xmlns="http://www.w3.org/2000/svg" xmlns:xlink="http://www.w3.org/1999/xlink" width="24" height="24" viewBox="0 0 24 24">
<path fill="#444444" d="M19 5c-0.553 0-1 0.447-1 1s0.447 1 1 1c0.552 0 1 0.448 1 1s-0.448 1-1 1h-11c-0.553 0-1 0.447-1 1s0.447 1 1 1h6c0.552 0 1 0.448 1 1s-0.448 1-1 1h-6.4c-1.654 0-3 1.346-3 3s1.346 3 3 3c0.553 0 1-0.447 1-1s-0.447-1-1-1c-0.552 0-1-0.448-1-1s0.448-1 1-1h6.4c1.654 0 3-1.346 3-3 0-0.353-0.072-0.686-0.185-1h2.185c1.654 0 3-1.346 3-3s-1.346-3-3-3z"></path>
</svg>
