<?xml version="1.0" encoding="utf-8"?>
<!-- Generated by IcoMoon.io -->
<!DOCTYPE svg PUBLIC "-//W3C//DTD SVG 1.1//EN" "http://www.w3.org/Graphics/SVG/1.1/DTD/svg11.dtd">
<svg version="1.1" xmlns="http://www.w3.org/2000/svg" xmlns:xlink="http://www.w3.org/1999/xlink" width="28" height="32" viewBox="0 0 28 32">
<path fill="#444444" d="M8 16c0-2 0-6 0-6s-5 0-6 0-2 1-2 2 0 9 0 10 1 2 2 2 2 0 2 0v6l6.063-6s5.063 0 6 0 1.938-1 1.938-2 0-2 0-2-4 0-6 0-4-2-4-4zM26 4c-1 0-13 0-14 0s-2 1-2 2 0 9 0 10 1 2 2 2 5.938 0 5.938 0l6.063 6v-6s1 0 2 0 2-1 2-2 0-9 0-10-1-2-2-2z"></path>
</svg>
