<?xml version="1.0" encoding="utf-8"?>
<!-- Generated by IcoMoon.io -->
<!DOCTYPE svg PUBLIC "-//W3C//DTD SVG 1.1//EN" "http://www.w3.org/Graphics/SVG/1.1/DTD/svg11.dtd">
<svg version="1.1" xmlns="http://www.w3.org/2000/svg" xmlns:xlink="http://www.w3.org/1999/xlink" width="32" height="32" viewBox="0 0 32 32">
<path fill="#444444" d="M24.462 8.981h-17.969l0.018-1.934h1.436l3.039-2.995h9.109l2.977 2.995h1.436l-0.046 1.934zM17.037 6.049h-2.995v0.998h2.995v-0.998zM22.857 17.030h-3.377c-0.745-1.451-2.239-2.454-3.982-2.454s-3.237 1.003-3.981 2.454h-3.318l-0.646-6.988h15.973l-0.669 6.988zM13.044 19.026c0-1.378 1.117-2.496 2.496-2.496 1.378 0 2.495 1.118 2.495 2.496s-1.117 2.496-2.495 2.496c-1.379 0-2.496-1.118-2.496-2.496zM15.498 23.561c1.794 0 3.33-1.059 4.050-2.579h2.931l-0.762 7.966h-12.416l-0.736-7.966h2.884c0.72 1.52 2.255 2.579 4.049 2.579z"></path>
</svg>
