<?xml version="1.0" encoding="utf-8"?>
<!-- Generated by IcoMoon.io -->
<!DOCTYPE svg PUBLIC "-//W3C//DTD SVG 1.1//EN" "http://www.w3.org/Graphics/SVG/1.1/DTD/svg11.dtd">
<svg version="1.1" xmlns="http://www.w3.org/2000/svg" xmlns:xlink="http://www.w3.org/1999/xlink" width="32" height="32" viewBox="0 0 32 32">
<path fill="#444444" d="M16-0.034c-8.842 0-16.034 7.192-16.034 16.034s7.192 16.034 16.034 16.034 16.034-7.192 16.034-16.034-7.192-16.034-16.034-16.034zM16 30.966c-8.252 0-14.966-6.714-14.966-14.966s6.714-14.966 14.966-14.966 14.966 6.714 14.966 14.966-6.714 14.966-14.966 14.966zM21.851 10.505c-1.538-1.638-3.615-2.539-5.851-2.539-1.050 0-2.075 0.202-3.047 0.602-2.758 1.13-4.653 3.672-4.947 6.631-0.025 0.264-0.040 0.53-0.040 0.801 0 2.428 1.082 4.7 2.971 6.235 1.427 1.16 3.226 1.799 5.063 1.799 1.159 0 2.286-0.248 3.352-0.738 2.176-1.002 3.78-2.901 4.401-5.211 0 0 0-0.001 0-0.001 0.186-0.7 0.281-1.401 0.281-2.084 0-2.046-0.775-3.997-2.183-5.495zM22.836 17.305c-0.177-0.038-0.349-0.055-0.525-0.086-0.233-0.041-0.466-0.084-0.696-0.114-0.273-0.035-0.54-0.053-0.808-0.071-0.216-0.014-0.432-0.033-0.644-0.036-0.066-0.001-0.136-0.011-0.202-0.011-0.352 0-0.701 0.017-1.048 0.047-0.045 0.004-0.089 0.013-0.134 0.017-0.28 0.028-0.559 0.060-0.833 0.108-0.045-0.117-0.096-0.227-0.142-0.343-0.186-0.471-0.378-0.935-0.576-1.392-0.049-0.112-0.092-0.23-0.141-0.341 0.105-0.042 0.199-0.089 0.301-0.133 0.104-0.045 0.208-0.089 0.308-0.136 0.222-0.104 0.433-0.212 0.637-0.324 0.065-0.036 0.134-0.069 0.197-0.105 0.26-0.15 0.505-0.307 0.736-0.468 0.055-0.039 0.105-0.079 0.158-0.118 0.174-0.127 0.341-0.255 0.498-0.385 0.068-0.057 0.132-0.113 0.197-0.17 0.137-0.12 0.267-0.24 0.39-0.36 0.056-0.054 0.112-0.108 0.165-0.163 0.14-0.143 0.27-0.286 0.393-0.428 0.024-0.028 0.052-0.056 0.075-0.084 0.131-0.156 0.254-0.31 0.366-0.461 0.944 1.217 1.458 2.703 1.458 4.252 0 0.427-0.044 0.864-0.13 1.305zM16 9.034c1.796 0 3.474 0.672 4.772 1.902-0.014 0.021-0.026 0.040-0.041 0.060-0.038 0.053-0.080 0.107-0.12 0.16-0.073 0.097-0.15 0.195-0.232 0.295-0.049 0.059-0.1 0.119-0.152 0.178-0.086 0.098-0.177 0.197-0.272 0.296-0.057 0.060-0.115 0.12-0.176 0.18-0.107 0.105-0.223 0.21-0.341 0.314-0.059 0.052-0.114 0.104-0.176 0.156-0.184 0.154-0.378 0.306-0.588 0.453-0.013 0.009-0.029 0.018-0.043 0.028-0.197 0.137-0.407 0.27-0.628 0.398-0.081 0.047-0.17 0.091-0.255 0.137-0.162 0.088-0.328 0.174-0.502 0.255-0.107 0.050-0.22 0.098-0.332 0.145-0.090 0.038-0.187 0.073-0.28 0.11-0.025-0.053-0.051-0.099-0.076-0.152-0.209-0.435-0.418-0.857-0.625-1.253-0.016-0.031-0.032-0.059-0.048-0.090-0.198-0.378-0.392-0.733-0.584-1.074-0.044-0.078-0.087-0.156-0.131-0.232-0.193-0.338-0.38-0.657-0.56-0.955-0.041-0.068-0.079-0.129-0.119-0.194-0.162-0.264-0.318-0.512-0.465-0.74-0.015-0.023-0.033-0.053-0.048-0.076 0.655-0.199 1.333-0.301 2.022-0.301zM12.961 9.734c0.006 0.009 0.012 0.018 0.018 0.027 0.158 0.241 0.33 0.512 0.509 0.8 0.038 0.061 0.077 0.124 0.115 0.187 0.185 0.301 0.376 0.621 0.575 0.969 0.022 0.038 0.044 0.079 0.066 0.117 0.187 0.328 0.379 0.679 0.574 1.045 0.037 0.070 0.074 0.138 0.112 0.21 0.207 0.394 0.416 0.811 0.626 1.246 0.015 0.031 0.030 0.063 0.045 0.094-0.332 0.093-0.658 0.194-1.012 0.261-0.054 0.010-0.11 0.017-0.164 0.027-1.074 0.19-2.246 0.258-3.5 0.21-0.097-0.004-0.191-0.004-0.29-0.009-0.482-0.025-0.986-0.083-1.492-0.143 0.39-2.195 1.805-4.066 3.818-5.041zM9.034 16c0-0.048 0.001-0.097 0.002-0.145 0.142 0.017 0.274 0.018 0.415 0.032 0.392 0.040 0.777 0.071 1.156 0.091 0.225 0.012 0.448 0.021 0.668 0.025 0.135 0.003 0.279 0.016 0.412 0.016 0 0 0 0 0.001 0 0.287 0 0.563-0.017 0.841-0.030 0.117-0.005 0.237-0.005 0.352-0.012 0.517-0.034 1.019-0.091 1.505-0.169 0.126-0.020 0.245-0.048 0.368-0.071 0.373-0.070 0.735-0.153 1.086-0.25 0.073-0.020 0.153-0.030 0.224-0.052 0.051 0.113 0.1 0.228 0.15 0.343 0.187 0.428 0.369 0.863 0.544 1.304 0.042 0.106 0.084 0.213 0.126 0.32-0.108 0.031-0.208 0.070-0.314 0.104-0.138 0.043-0.275 0.087-0.408 0.135-0.219 0.078-0.429 0.164-0.637 0.253-0.113 0.049-0.229 0.094-0.339 0.146-0.249 0.117-0.488 0.243-0.72 0.374-0.056 0.031-0.116 0.060-0.171 0.092-0.285 0.166-0.555 0.342-0.813 0.523-0.072 0.050-0.137 0.103-0.207 0.154-0.182 0.134-0.361 0.268-0.529 0.406-0.085 0.070-0.164 0.14-0.246 0.21-0.143 0.123-0.281 0.246-0.414 0.37-0.080 0.076-0.158 0.15-0.234 0.226-0.121 0.12-0.237 0.238-0.348 0.357-0.071 0.076-0.143 0.151-0.21 0.226-0.025 0.028-0.054 0.057-0.079 0.084-1.391-1.315-2.181-3.132-2.181-5.062zM12.052 21.737c0.018-0.020 0.032-0.038 0.050-0.058 0.060-0.067 0.126-0.134 0.189-0.202 0.102-0.109 0.208-0.218 0.319-0.327 0.071-0.070 0.145-0.14 0.22-0.21 0.116-0.109 0.238-0.218 0.363-0.326 0.080-0.069 0.16-0.138 0.243-0.206 0.138-0.113 0.284-0.223 0.431-0.332 0.081-0.060 0.159-0.121 0.242-0.179 0.2-0.14 0.41-0.274 0.626-0.404 0.040-0.024 0.076-0.050 0.117-0.074 0.258-0.15 0.529-0.291 0.811-0.423 0.086-0.040 0.178-0.074 0.266-0.112 0.203-0.088 0.409-0.173 0.624-0.249 0.114-0.040 0.232-0.075 0.35-0.112 0.116-0.036 0.238-0.067 0.358-0.1 0.225 0.627 0.445 1.258 0.642 1.904 0.009 0.029 0.019 0.056 0.028 0.085 0.207 0.686 0.387 1.385 0.56 2.087-2.138 0.827-4.582 0.524-6.439-0.762zM19.486 22.023c-0.158-0.628-0.332-1.251-0.517-1.867-0.007-0.024-0.013-0.049-0.020-0.073-0.193-0.637-0.399-1.265-0.618-1.883 0.145-0.023 0.289-0.050 0.436-0.067 0.122-0.014 0.244-0.030 0.367-0.039 0.357-0.027 0.718-0.038 1.086-0.030 0.041 0.001 0.081-0.003 0.122-0.001 0.413 0.014 0.832 0.054 1.257 0.112 0.115 0.016 0.232 0.040 0.348 0.059 0.198 0.033 0.399 0.077 0.599 0.119-0.554 1.55-1.634 2.846-3.060 3.67z"></path>
</svg>
