<?xml version="1.0" encoding="utf-8"?>
<!-- Generated by IcoMoon.io -->
<!DOCTYPE svg PUBLIC "-//W3C//DTD SVG 1.1//EN" "http://www.w3.org/Graphics/SVG/1.1/DTD/svg11.dtd">
<svg version="1.1" xmlns="http://www.w3.org/2000/svg" xmlns:xlink="http://www.w3.org/1999/xlink" width="48" height="48" viewBox="0 0 48 48">
<path fill="#444444" d="M27 27.5c0-1.38 1.12-2.5 2.5-2.5s2.5 1.12 2.5 2.5-1.12 2.5-2.5 2.5-2.5-1.12-2.5-2.5zM29.5 21c-3.59 0-6.5 2.91-6.5 6.5s2.91 6.5 6.5 6.5 6.5-2.91 6.5-6.5-2.91-6.5-6.5-6.5zM0 39c0 2.21 1.79 4 4 4h40c2.21 0 4-1.79 4-4l-0-23c0-2.21-1.79-4-4-4h-3.75l-5.12-5.12c-0.59-0.59-1.36-0.88-2.13-0.88h-6.99c-0.77 0-1.55 0.29-2.13 0.88l-5.1 5.12h-3.78v-2.25c0-0.97-0.78-1.75-1.75-1.75h-6.5c-0.97 0-1.75 0.78-1.75 1.75v2.25h-1c-2.21 0-4 1.79-4 4v23zM13 21h-6c-1.1 0-2-0.9-2-2s0.9-2 2-2h6c1.1 0 2 0.9 2 2s-0.9 2-2 2zM29.5 17c5.8 0 10.5 4.7 10.5 10.5s-4.7 10.5-10.5 10.5-10.5-4.7-10.5-10.5 4.7-10.5 10.5-10.5z"></path>
</svg>
