<?xml version="1.0" encoding="UTF-8"?>
<!DOCTYPE svg PUBLIC "-//W3C//DTD SVG 1.1//EN" "http://www.w3.org/Graphics/SVG/1.1/DTD/svg11.dtd">
<!-- Creator: CorelDRAW X8 -->
<svg xmlns="http://www.w3.org/2000/svg" xml:space="preserve" width="1.94998in" height="2.1409in" version="1.1" style="shape-rendering:geometricPrecision; text-rendering:geometricPrecision; image-rendering:optimizeQuality; fill-rule:evenodd; clip-rule:evenodd"
viewBox="0 0 1057 1161"
 xmlns:xlink="http://www.w3.org/1999/xlink">
 <defs>
  <style type="text/css">
   <![CDATA[
    .fil0 {fill:black}
   ]]>
  </style>
 </defs>
 <g id="Layer_x0020_1">
  <metadata id="CorelCorpID_0Corel-Layer"/>
  <path class="fil0" d="M584 273c0,-29 35,-56 63,-83 15,-15 60,-67 80,-67 36,0 39,11 62,34l132 132c42,43 -14,83 -38,107 -15,15 -28,29 -43,44 -19,18 -30,33 -56,33 -26,0 -44,-26 -59,-40l-100 -100c-14,-15 -41,-34 -41,-60zm-123 -2c0,91 65,128 83,155 -8,12 -460,461 -515,516 -18,18 -29,24 -29,49 0,23 21,39 34,51 14,15 27,28 42,43 15,14 28,27 42,42 36,36 53,49 92,10 13,-12 23,-17 23,-40 0,-26 -22,-36 -33,-52l10 -9c17,12 23,33 54,33 20,0 27,-13 38,-23 13,-13 23,-18 23,-41 0,-35 -63,-71 -85,-103l390 -389c33,22 61,83 158,83 39,0 76,-17 99,-34 15,-12 121,-116 132,-131 42,-55 50,-119 22,-182 -15,-31 -48,-61 -71,-85 -14,-14 -26,-26 -40,-40 -30,-29 -66,-70 -99,-94 -58,-43 -149,-39 -202,6 -26,23 -114,109 -133,135 -20,26 -35,65 -35,100z"/>
 </g>
</svg>
