<?xml version="1.0" encoding="utf-8"?>
<!-- Generated by IcoMoon.io -->
<!DOCTYPE svg PUBLIC "-//W3C//DTD SVG 1.1//EN" "http://www.w3.org/Graphics/SVG/1.1/DTD/svg11.dtd">
<svg version="1.1" xmlns="http://www.w3.org/2000/svg" xmlns:xlink="http://www.w3.org/1999/xlink" width="24" height="24" viewBox="0 0 24 24">
<path fill="#444444" d="M7.5 18q-2.297 0-3.891-1.594t-1.594-3.891 1.594-3.914 3.891-1.617h10.5q1.641 0 2.813 1.195t1.172 2.836-1.172 2.813-2.813 1.172h-8.484q-1.031 0-1.781-0.727t-0.75-1.758 0.75-1.781 1.781-0.75h7.5v1.5h-7.5q-0.422 0-0.727 0.305t-0.305 0.727 0.305 0.703 0.727 0.281h8.484q1.031 0 1.758-0.727t0.727-1.758-0.727-1.781-1.758-0.75h-10.5q-1.641 0-2.813 1.195t-1.172 2.836 1.172 2.813 2.813 1.172h9.516v1.5h-9.516z"></path>
</svg>
