<?xml version="1.0" encoding="UTF-8"?>
<!DOCTYPE svg PUBLIC "-//W3C//DTD SVG 1.1//EN" "http://www.w3.org/Graphics/SVG/1.1/DTD/svg11.dtd">
<!-- Creator: CorelDRAW X8 -->
<svg xmlns="http://www.w3.org/2000/svg" xml:space="preserve" width="2.35402in" height="2.05976in" version="1.1" style="shape-rendering:geometricPrecision; text-rendering:geometricPrecision; image-rendering:optimizeQuality; fill-rule:evenodd; clip-rule:evenodd"
viewBox="0 0 1430 1251"
 xmlns:xlink="http://www.w3.org/1999/xlink">
 <defs>
  <style type="text/css">
   <![CDATA[
    .fil0 {fill:black}
   ]]>
  </style>
 </defs>
 <g id="Layer_x0020_1">
  <metadata id="CorelCorpID_0Corel-Layer"/>
  <g id="_133441747808">
   <path class="fil0" d="M715 715l268 0 0 89 -268 0 0 -89zm-268 0l0 89 -90 0 0 -89 90 0zm89 -89l0 89 -89 0 0 -89 89 0zm0 -90l90 0 0 90 -90 0 0 -90zm-89 -89l89 0 0 89 -89 0 0 -89zm0 0l-90 0 0 -90 90 0 0 90zm-268 625l1072 0 0 -893 -1072 0 0 893z"/>
   <path class="fil0" d="M89 89l1251 0 0 1073 -1251 0 0 -1073zm-89 1162l1430 0 0 -1251 -1430 0 0 1251z"/>
  </g>
 </g>
</svg>
