<?xml version="1.0" encoding="utf-8"?>
<!-- Generated by IcoMoon.io -->
<!DOCTYPE svg PUBLIC "-//W3C//DTD SVG 1.1//EN" "http://www.w3.org/Graphics/SVG/1.1/DTD/svg11.dtd">
<svg version="1.1" xmlns="http://www.w3.org/2000/svg" xmlns:xlink="http://www.w3.org/1999/xlink" width="24" height="24" viewBox="0 0 24 24">
<path fill="#444444" d="M19.715 17.301c-0.017-0.018-1.717-1.854-1.73-6.32-0.009-2.607-1.69-4.824-4.019-5.641 0.018-0.111 0.034-0.223 0.034-0.34 0-1.103-0.896-2-2-2s-2 0.897-2 2c0 0.116 0.016 0.228 0.034 0.338-2.336 0.816-4.019 3.036-4.019 5.646 0 4.462-1.711 6.296-1.721 6.306-0.287 0.286-0.374 0.716-0.22 1.091s0.521 0.619 0.926 0.619h3.143c0.447 1.72 1.999 3 3.857 3s3.41-1.28 3.857-3h3.143c0.4 0 0.758-0.243 0.915-0.61s0.076-0.799-0.2-1.089zM12 7c2.189 0 3.978 1.789 3.984 3.987 0.002 0.728 0.046 1.396 0.118 2.013h-8.2c0.071-0.617 0.113-1.286 0.113-2.016 0.001-2.196 1.788-3.984 3.985-3.984zM12 20c-0.737 0-1.375-0.405-1.722-1h3.443c-0.346 0.595-0.984 1-1.721 1zM6.814 17c0.352-0.736 0.705-1.731 0.938-3h8.502c0.234 1.269 0.588 2.264 0.938 3h-10.378z"></path>
</svg>
