<?xml version="1.0" encoding="utf-8"?>
<!-- Generated by IcoMoon.io -->
<!DOCTYPE svg PUBLIC "-//W3C//DTD SVG 1.1//EN" "http://www.w3.org/Graphics/SVG/1.1/DTD/svg11.dtd">
<svg version="1.1" xmlns="http://www.w3.org/2000/svg" xmlns:xlink="http://www.w3.org/1999/xlink" width="32" height="32" viewBox="0 0 32 32">
<path fill="#444444" d="M18 19.109v-5.109c0-3.314-2.686-6-6-6s-6 2.686-6 6v5.109c-3.572 1.387-6 3.938-6 6.891 0 0.354 0 4 0 4 0 1.105 0.894 2 2 2h20c1.105 0 2-0.895 2-2 0 0 0-3.646 0-4 0-2.953-2.428-5.504-6-6.891zM10 14c0-1.105 0.895-2 2-2s2 0.895 2 2v6c0 1.105-0.895 2-2 2s-2-0.895-2-2v-6zM20 28h-16v-2c0-1.215 1.107-2.291 2.818-3.025 1.037 1.801 2.957 3.025 5.182 3.025s4.145-1.225 5.182-3.025c1.711 0.734 2.818 1.811 2.818 3.025v2zM26 11.109v-5.109c0-3.314-2.686-6-6-6s-6 2.686-6 6v0.283c1.58 0.408 2.957 1.283 4 2.477v-2.76c0-1.106 0.895-2 2-2s2 0.894 2 2v6c0 1.105-0.895 2-2 2v4c2.225 0 4.145-1.225 5.182-3.025 1.711 0.734 2.818 1.811 2.818 3.025v2h-7.299c2.014 1.037 3.561 2.406 4.441 4h4.857c1.105 0 2-0.895 2-2 0 0 0-3.646 0-4 0-2.953-2.428-5.504-6-6.891z"></path>
</svg>
