<?xml version="1.0" encoding="UTF-8"?>
<!DOCTYPE svg PUBLIC "-//W3C//DTD SVG 1.1//EN" "http://www.w3.org/Graphics/SVG/1.1/DTD/svg11.dtd">
<!-- Creator: CorelDRAW X8 -->
<svg xmlns="http://www.w3.org/2000/svg" xml:space="preserve" width="2.42603in" height="2.42603in" version="1.1" style="shape-rendering:geometricPrecision; text-rendering:geometricPrecision; image-rendering:optimizeQuality; fill-rule:evenodd; clip-rule:evenodd"
viewBox="0 0 1623 1623"
 xmlns:xlink="http://www.w3.org/1999/xlink">
 <defs>
  <style type="text/css">
   <![CDATA[
    .fil0 {fill:black}
   ]]>
  </style>
 </defs>
 <g id="Layer_x0020_1">
  <metadata id="CorelCorpID_0Corel-Layer"/>
  <path class="fil0" d="M0 68l0 684c0,48 78,90 123,31 16,-21 12,-36 12,-69l0 -477 1252 1250 -474 1c-32,0 -50,-4 -70,10 -62,43 -22,125 28,125l684 0c39,0 68,-29 68,-68l0 -684c0,-48 -78,-90 -123,-31 -16,21 -12,36 -12,69l0 477 -1252 -1250 474 -1c32,0 50,4 70,-10 62,-43 22,-125 -28,-125l-684 0c-38,0 -68,31 -68,68z"/>
 </g>
</svg>
