<?xml version="1.0" encoding="utf-8"?>
<!-- Generated by IcoMoon.io -->
<!DOCTYPE svg PUBLIC "-//W3C//DTD SVG 1.1//EN" "http://www.w3.org/Graphics/SVG/1.1/DTD/svg11.dtd">
<svg version="1.1" xmlns="http://www.w3.org/2000/svg" xmlns:xlink="http://www.w3.org/1999/xlink" width="48" height="48" viewBox="0 0 48 48">
<path fill="#444444" d="M48 17.98c0-1.090-0.9-1.98-2-1.98-0.55 0-1.050 0.221-1.41 0.58l-8.59 7.391v-5.99c0-1.091-0.9-1.981-2-1.981-0.55 0-1.050 0.221-1.41 0.58l-8.59 7.391v-5.99c0-1.091-0.9-1.981-2-1.981-0.55 0-1.050 0.221-1.41 0.58l-8.68 7.46-1.91-21.84c0-1.22-0.98-2.2-2.2-2.2h-3.6c-1.22 0-2.2 0.98-2.2 2.2l-2 41.8c0 2.21 1.79 4 4 4h40c2.21 0 4-1.79 4-4l-0-26.020zM19 30.87v2.26c0 1.030-0.84 1.87-1.87 1.87h-2.26c-1.030-0-1.87-0.84-1.87-1.87v-2.26c0-1.030 0.84-1.87 1.87-1.87h2.26c1.030 0 1.87 0.84 1.87 1.87zM31 30.87v2.26c0 1.030-0.84 1.87-1.87 1.87h-2.26c-1.030-0-1.87-0.84-1.87-1.87v-2.26c0-1.030 0.84-1.87 1.87-1.87h2.26c1.030 0 1.87 0.84 1.87 1.87zM43 30.87v2.26c0 1.030-0.84 1.87-1.87 1.87h-2.26c-1.030-0-1.87-0.84-1.87-1.87v-2.26c0-1.030 0.84-1.87 1.87-1.87h2.26c1.030 0 1.87 0.84 1.87 1.87z"></path>
</svg>
