<?xml version="1.0" encoding="utf-8"?>
<!-- Generated by IcoMoon.io -->
<!DOCTYPE svg PUBLIC "-//W3C//DTD SVG 1.1//EN" "http://www.w3.org/Graphics/SVG/1.1/DTD/svg11.dtd">
<svg version="1.1" xmlns="http://www.w3.org/2000/svg" xmlns:xlink="http://www.w3.org/1999/xlink" width="32" height="32" viewBox="0 0 32 32">
<path fill="#444444" d="M16.014 22.082c-0.037 0-0.074 0-0.111 0-8.782 0-15.885-2.133-15.887-3.771l-0.016-6.433c0-0.010 0.004-0.019 0.004-0.027 1.446 0.686 3.145 1.002 4.161 1.191 3.157 0.587 7.327 0.911 11.738 0.911h0.111c4.439-0.005 8.633-0.337 11.813-0.934 1.017-0.191 2.71-0.509 4.157-1.191 0 0.003 0 0.009 0 0.009l0.017 6.433c0.002 1.645-7.153 3.8-15.987 3.812zM16.014 12.016c-0.037 0-0.074 0-0.111 0-8.782 0-15.885-1.946-15.887-3.584l-0.016-5.434c-0.003-1.644 7.156-2.987 15.99-2.998 0.039 0 0.076 0 0.115 0 8.779 0 15.877 1.32 15.879 2.958l0.017 5.434c0.002 1.644-7.153 3.612-15.987 3.624zM15.902 24.020h0.111c4.439-0.006 8.634-0.524 11.813-1.121 1.017-0.191 2.71-0.509 4.158-1.192l0.016 7.296c0.002 1.645-7.153 2.987-15.987 2.998-0.038 0-0.074 0-0.113 0-8.78 0-15.883-1.32-15.885-2.957l-0.015-7.315c1.446 0.687 3.146 1.003 4.164 1.192 3.157 0.588 7.326 1.099 11.738 1.099z"></path>
</svg>
