<?xml version="1.0" encoding="utf-8"?>
<!-- Generated by IcoMoon.io -->
<!DOCTYPE svg PUBLIC "-//W3C//DTD SVG 1.1//EN" "http://www.w3.org/Graphics/SVG/1.1/DTD/svg11.dtd">
<svg version="1.1" xmlns="http://www.w3.org/2000/svg" xmlns:xlink="http://www.w3.org/1999/xlink" width="32" height="32" viewBox="0 0 32 32">
<path fill="#444444" d="M28 22h-2c-2.209 0-4-1.791-4-4s1.791-4 4-4h2c2.209 0 4 1.791 4 4s-1.791 4-4 4zM28 16h-2c-1.104 0-2 0.896-2 2s0.896 2 2 2h2c1.104 0 2-0.896 2-2s-0.896-2-2-2zM20 18c0 0.086 0.021 0.165 0.025 0.25-0.004 0.084-0.025 0.164-0.025 0.25 0 1.052 0.376 2.006 0.98 2.772 1.071 1.64 2.916 2.728 5.020 2.728h4v4c0 1.104-0.896 2-2 2h-26c-1.104 0-2-0.896-2-2v-22.5c0-1.573 1.045-2.889 2.475-3.329 0.154-0.099 0.328-0.171 0.525-0.171h26c0.553 0 1 0.447 1 1s-0.447 1-1 1h-26c-0.553 0-1 0.447-1 1v1h26c1.104 0 2 0.896 2 2v4h-4c-3.313 0-6 2.687-6 6zM2.5 28h25c0.276 0 0.5-0.224 0.5-0.5s-0.224-0.5-0.5-0.5h-25c-0.276 0-0.5 0.224-0.5 0.5s0.224 0.5 0.5 0.5zM28 8.5c0-0.276-0.224-0.5-0.5-0.5h-25c-0.276 0-0.5 0.224-0.5 0.5s0.224 0.5 0.5 0.5h25c0.276 0 0.5-0.224 0.5-0.5z"></path>
</svg>
