<?xml version="1.0" encoding="utf-8"?>
<!-- Generated by IcoMoon.io -->
<!DOCTYPE svg PUBLIC "-//W3C//DTD SVG 1.1//EN" "http://www.w3.org/Graphics/SVG/1.1/DTD/svg11.dtd">
<svg version="1.1" xmlns="http://www.w3.org/2000/svg" xmlns:xlink="http://www.w3.org/1999/xlink" width="48" height="48" viewBox="0 0 48 48">
<path fill="#444444" d="M24 1c-0.891 0-1.63 0.6-1.86 1.42l-4.72 14.58h-15.5c-1.070 0-1.92 0.931-1.92 2.010 0 0.66 0.33 1.25 0.83 1.601 0.31 0.21 12.52 9.13 12.52 9.13s-4.689 14.4-4.78 14.63c-0.070 0.209-0.12 0.44-0.12 0.679 0 1.080 0.869 1.95 1.939 1.95 0.41 0 0.79-0.13 1.11-0.35l12.501-9.1c0 0 12.22 8.9 12.5 9.101 0.319 0.22 0.7 0.35 1.109 0.35 1.070 0 1.94-0.88 1.94-1.95 0-0.239-0.050-0.47-0.12-0.68-0.090-0.229-4.779-14.63-4.779-14.63s12.209-8.92 12.52-9.13c0.5-0.351 0.83-0.941 0.83-1.611 0-1.069-0.83-2-1.9-2l-15.5-0-4.74-14.58c-0.23-0.82-0.97-1.42-1.86-1.42z"></path>
</svg>
