<?xml version="1.0" encoding="UTF-8"?>
<!DOCTYPE svg PUBLIC "-//W3C//DTD SVG 1.1//EN" "http://www.w3.org/Graphics/SVG/1.1/DTD/svg11.dtd">
<!-- Creator: CorelDRAW X8 -->
<svg xmlns="http://www.w3.org/2000/svg" xml:space="preserve" width="0.804728in" height="1.28769in" version="1.1" style="shape-rendering:geometricPrecision; text-rendering:geometricPrecision; image-rendering:optimizeQuality; fill-rule:evenodd; clip-rule:evenodd"
viewBox="0 0 95 152"
 xmlns:xlink="http://www.w3.org/1999/xlink">
 <defs>
  <style type="text/css">
   <![CDATA[
    .fil0 {fill:black}
   ]]>
  </style>
 </defs>
 <g id="Layer_x0020_1">
  <metadata id="CorelCorpID_0Corel-Layer"/>
  <g id="_133444955616">
   <path class="fil0" d="M0 124c0,4 0,7 2,11 0,1 1,2 2,2l2 3c2,3 7,5 10,7 18,7 46,7 63,0 3,-2 8,-4 11,-7 5,-5 5,-9 5,-16 0,-5 -1,-12 -2,-16 -1,-4 -2,-7 -4,-10 -2,-5 -6,-11 -10,-16 -7,-8 -18,-15 -30,-15 -9,0 -15,1 -23,6 0,1 -1,1 -1,1 -1,1 -1,1 -2,2 -2,1 -2,2 -4,3 -3,3 -3,3 -6,7 -1,1 -1,2 -2,3 -4,6 -5,8 -7,14 0,1 -1,3 -1,4 -2,5 -3,12 -3,17z"/>
   <path class="fil0" d="M19 28c0,8 3,15 9,21 2,2 4,4 7,5 13,7 28,2 36,-9 15,-21 -4,-45 -22,-45 -9,0 -15,3 -21,9 -5,4 -9,11 -9,19z"/>
  </g>
 </g>
</svg>
