<?xml version="1.0" encoding="utf-8"?>
<!-- Generated by IcoMoon.io -->
<!DOCTYPE svg PUBLIC "-//W3C//DTD SVG 1.1//EN" "http://www.w3.org/Graphics/SVG/1.1/DTD/svg11.dtd">
<svg version="1.1" xmlns="http://www.w3.org/2000/svg" xmlns:xlink="http://www.w3.org/1999/xlink" width="24" height="24" viewBox="0 0 24 24">
<path fill="#444444" d="M12 13h2c0.55 0 1-0.45 1-1s-0.45-1-1-1h-1v-1c0-0.55-0.45-1-1-1s-1 0.45-1 1v2c0 0.55 0.45 1 1 1z"></path>
<path fill="#444444" d="M17 7.105v-2.105c0-1.654-1.346-3-3-3h-4c-1.654 0-3 1.346-3 3v2.105c-1.236 1.263-2 2.989-2 4.895s0.764 3.632 2 4.895v2.105c0 1.654 1.346 3 3 3h4c1.654 0 3-1.346 3-3v-2.105c1.236-1.262 2-2.988 2-4.895s-0.764-3.632-2-4.895zM9 5c0-0.551 0.449-1 1-1h4c0.551 0 1 0.449 1 1v1.809c-0.883-0.512-1.906-0.809-3-0.809s-2.117 0.297-3 0.809v-1.809zM15 19c0 0.551-0.449 1-1 1h-4c-0.551 0-1-0.449-1-1v-1.811c0.883 0.513 1.906 0.811 3 0.811s2.117-0.298 3-0.811v1.811zM12 17c-2.757 0-5-2.243-5-5s2.243-5 5-5 5 2.243 5 5-2.243 5-5 5z"></path>
</svg>
