<?xml version="1.0" encoding="utf-8"?>
<!-- Generated by IcoMoon.io -->
<!DOCTYPE svg PUBLIC "-//W3C//DTD SVG 1.1//EN" "http://www.w3.org/Graphics/SVG/1.1/DTD/svg11.dtd">
<svg version="1.1" xmlns="http://www.w3.org/2000/svg" xmlns:xlink="http://www.w3.org/1999/xlink" width="32" height="32" viewBox="0 0 32 32">
<path fill="#444444" d="M29 32h-22c-0.552 0-1-0.447-1-1v-1h-3c-0.553 0-1-0.447-1-1v-2c0-0.553 0.447-1 1-1h3v-2h-3c-0.553 0-1-0.447-1-1v-2c0-0.553 0.447-1 1-1h3v-2h-3c-0.553 0-1-0.447-1-1v-2c0-0.553 0.447-1 1-1h3v-2h-3c-0.553 0-1-0.447-1-1v-2c0-0.553 0.447-1 1-1h3v-2h-3c-0.553 0-1-0.447-1-1v-2c0-0.553 0.447-1 1-1h3v-1c0-0.553 0.448-1 1-1h22c0.553 0 1 0.447 1 1v30c0 0.553-0.447 1-1 1zM6 3h-2c-0.553 0-1 0.447-1 1s0.447 1 1 1h2c0.553 0 1-0.447 1-1s-0.447-1-1-1zM6 9h-2c-0.553 0-1 0.447-1 1s0.447 1 1 1h2c0.553 0 1-0.447 1-1s-0.447-1-1-1zM6 15h-2c-0.553 0-1 0.447-1 1s0.447 1 1 1h2c0.553 0 1-0.447 1-1s-0.447-1-1-1zM6 21h-2c-0.553 0-1 0.447-1 1s0.447 1 1 1h2c0.553 0 1-0.447 1-1s-0.447-1-1-1zM6 27h-2c-0.553 0-1 0.447-1 1s0.447 1 1 1h2c0.553 0 1-0.447 1-1s-0.447-1-1-1zM24 20.875c0-1.705-2.118-2.317-4.912-2.573 0.116-0.071 0.222-0.188 0.327-0.302h-0.415c0.553 0 1-0.447 1-1v-6c0-0.553-0.447-1-1-1h-2c-0.553 0-1 0.447-1 1v6c0 0.553 0.447 1 1 1h-0.415c0.105 0.114 0.212 0.23 0.327 0.302-2.794 0.256-4.912 0.891-4.912 2.573v1.125h12v-1.125z"></path>
</svg>
