<?xml version="1.0" encoding="utf-8"?>
<!-- Generated by IcoMoon.io -->
<!DOCTYPE svg PUBLIC "-//W3C//DTD SVG 1.1//EN" "http://www.w3.org/Graphics/SVG/1.1/DTD/svg11.dtd">
<svg version="1.1" xmlns="http://www.w3.org/2000/svg" xmlns:xlink="http://www.w3.org/1999/xlink" width="24" height="24" viewBox="0 0 24 24">
<path fill="#444444" d="M11 20c-0.801 0-1.555-0.312-2.121-0.879l-4-4c-0.567-0.566-0.879-1.32-0.879-2.121s0.312-1.555 0.879-2.122c1.133-1.133 3.109-1.133 4.242 0l1.188 1.188 3.069-5.523c0.526-0.952 1.533-1.544 2.624-1.544 0.507 0 1.012 0.131 1.456 0.378 0.7 0.39 1.206 1.028 1.427 1.798s0.127 1.581-0.263 2.282l-5 9c-0.454 0.818-1.279 1.384-2.206 1.514-0.139 0.019-0.277 0.029-0.416 0.029zM7 12c-0.268 0-0.518 0.104-0.707 0.293s-0.293 0.439-0.293 0.707 0.104 0.518 0.293 0.707l4 4c0.223 0.221 0.523 0.33 0.844 0.283 0.312-0.043 0.586-0.232 0.737-0.504l5-9c0.13-0.233 0.161-0.503 0.088-0.76s-0.243-0.47-0.478-0.6c-0.473-0.264-1.101-0.078-1.357 0.388l-4.357 7.841-3.062-3.062c-0.19-0.189-0.44-0.293-0.708-0.293z"></path>
</svg>
