<?xml version="1.0" encoding="utf-8"?>
<!-- Generated by IcoMoon.io -->
<!DOCTYPE svg PUBLIC "-//W3C//DTD SVG 1.1//EN" "http://www.w3.org/Graphics/SVG/1.1/DTD/svg11.dtd">
<svg version="1.1" xmlns="http://www.w3.org/2000/svg" xmlns:xlink="http://www.w3.org/1999/xlink" width="18" height="18" viewBox="0 0 18 18">
<path fill="#444444" d="M16 1h-14c-0.552 0-1 0.448-1 1v14c0 0.552 0.448 1 1 1h14c0.552 0 1-0.448 1-1v-14c0-0.552-0.448-1-1-1zM3 3.5c0-0.276 0.224-0.5 0.5-0.5h1.5v2h-2v-1.5zM15 14.5c0 0.276-0.224 0.5-0.5 0.5h-11c-0.276 0-0.5-0.224-0.5-0.5v-7.5h12v7.5zM15 5h-8v-2h7.5c0.276 0 0.5 0.224 0.5 0.5v1.5z"></path>
</svg>
