<?xml version="1.0" encoding="utf-8"?>
<!-- Generated by IcoMoon.io -->
<!DOCTYPE svg PUBLIC "-//W3C//DTD SVG 1.1//EN" "http://www.w3.org/Graphics/SVG/1.1/DTD/svg11.dtd">
<svg version="1.1" xmlns="http://www.w3.org/2000/svg" xmlns:xlink="http://www.w3.org/1999/xlink" width="48" height="48" viewBox="0 0 48 48">
<path fill="#444444" d="M0 42.5c0 1.38 1.12 2.5 2.5 2.5 1.21 0 2.22-0.859 2.45-2h0.050c0-1.1 0.9-2 2-2s2 0.9 2 2v1c0 2.21 1.79 4 4 4h4c2.21 0 4-1.79 4-4v-15c0-2.21-1.79-4-4-4h-4c-2.21 0-4 1.79-4 4v1c0 1.1-0.9 2-2 2s-2-0.9-2-2v-6c0-10.49 8.51-19 19-19s19 8.51 19 19v6c0 1.1-0.9 2-2 2s-2-0.9-2-2v-1c0-2.21-1.79-4-4-4h-4c-2.21 0-4 1.79-4 4v15c0 2.21 1.79 4 4 4h4c2.21 0 4-1.79 4-4v-1c0-1.1 0.9-2 2-2s2 0.9 2 2h0.050c0.229 1.141 1.24 2 2.45 2 1.38 0 2.5-1.12 2.5-2.5v-18.5c0-13.26-10.74-24-24-24s-24 10.74-24 24v18.5z"></path>
</svg>
