<?xml version="1.0" encoding="utf-8"?>
<!-- Generated by IcoMoon.io -->
<!DOCTYPE svg PUBLIC "-//W3C//DTD SVG 1.1//EN" "http://www.w3.org/Graphics/SVG/1.1/DTD/svg11.dtd">
<svg version="1.1" xmlns="http://www.w3.org/2000/svg" xmlns:xlink="http://www.w3.org/1999/xlink" width="48" height="48" viewBox="0 0 48 48">
<path fill="#444444" d="M19.609 12.431l0.021 0.029c0.45 0.36 0.729 0.92 0.729 1.54 0 1.1-0.89 2-2 2l-11.339 0c-2.21 0-4 1.79-4 4v7.721c0 1.1 0.9 2 2 2 0.61 0 1.15-0.271 1.521-0.701 0.069-0.080 0.31-0.33 0.359-0.379 1.079-1.021 2.53-1.641 4.12-1.641 3.311 0 6 2.689 6 6s-2.689 6-6 6c-1.6 0-3.060-0.63-4.14-1.65-0.040-0.039-0.28-0.27-0.34-0.359-0.37-0.43-0.92-0.71-1.54-0.71-1.101 0-2 0.9-2 2l0.020 5.719c0 2.21 1.79 4 4 4h34c2.21 0 4-1.79 4-4v-8.72c0-1.1-0.9-2-2-2-0.561 0-1.070 0.229-1.439 0.61l-0.391 0.42c-1.081 1.050-2.55 1.69-4.17 1.69-3.311 0-6-2.689-6-6s2.689-6 6-6c1.63 0 3.1 0.65 4.18 1.7l0.311 0.33c0.37 0.42 0.91 0.69 1.51 0.69 1.1 0 2-0.9 2-2v-4.72c0-2.21-1.79-4-4-4h-11.36c-1.1 0-2-0.9-2-2 0-0.561 0.23-1.069 0.61-1.439 1.668-1.271 2.749-3.291 2.749-5.561 0-3.87-3.13-7-7-7s-7 3.13-7 7c0 2.189 1.009 4.15 2.589 5.431z"></path>
</svg>
