<?xml version="1.0" encoding="utf-8"?>
<!-- Generated by IcoMoon.io -->
<!DOCTYPE svg PUBLIC "-//W3C//DTD SVG 1.1//EN" "http://www.w3.org/Graphics/SVG/1.1/DTD/svg11.dtd">
<svg version="1.1" xmlns="http://www.w3.org/2000/svg" xmlns:xlink="http://www.w3.org/1999/xlink" width="24" height="24" viewBox="0 0 24 24">
<path fill="#444444" d="M13.414 19.412c0.783-0.779 0.783-2.047 0-2.826-0.781-0.785-2.049-0.785-2.828-0.002-0.783 0.783-0.783 2.051 0 2.831 0.781 0.78 2.049 0.781 2.828-0.003z"></path>
<path fill="#444444" d="M20.485 11.515c-0.512 0-1.024-0.195-1.414-0.586-3.899-3.899-10.243-3.898-14.143 0-0.782 0.781-2.048 0.78-2.829 0-0.781-0.781-0.781-2.047 0-2.829 5.459-5.458 14.341-5.458 19.799 0 0.781 0.781 0.781 2.047 0 2.828-0.389 0.391-0.901 0.587-1.413 0.587z"></path>
<path fill="#444444" d="M7.757 15.757c-0.512 0-1.024-0.195-1.414-0.586-0.781-0.781-0.781-2.047 0-2.828 3.118-3.119 8.194-3.119 11.313 0 0.781 0.781 0.781 2.047 0 2.829s-2.047 0.781-2.829 0c-1.559-1.56-4.097-1.559-5.657 0-0.389 0.39-0.901 0.585-1.413 0.585z"></path>
</svg>
