<?xml version="1.0" encoding="utf-8"?>
<!-- Generated by IcoMoon.io -->
<!DOCTYPE svg PUBLIC "-//W3C//DTD SVG 1.1//EN" "http://www.w3.org/Graphics/SVG/1.1/DTD/svg11.dtd">
<svg version="1.1" xmlns="http://www.w3.org/2000/svg" xmlns:xlink="http://www.w3.org/1999/xlink" width="45" height="32" viewBox="0 0 45 32">
<path fill="#444444" d="M13.428 8.050c1.715 0 2.144 0.857 3.286 0.714 1.143-0.143 0.143-2.143-0.857-3.571s-3.285-0.714-5 0.286c-1.714 1-10.821 6.536-10.821 6.536h7.964c0-0.001 3.714-3.965 5.428-3.965zM0 13.049v13c0 1.104 0.895 2 2 2 0 0 7.71 0 16.083 0 1.502 0 2.875-4.667 4.417-4.667 1.339 0 2.346 4.667 3.666 4.667 8.893 0 16.833 0 16.833 0 1.105 0 2.001-0.896 2.001-2v-13h-45zM18 22.050c0 1.656-1.344 3-3 3h-9c-1.657 0-3-1.344-3-3v-3c0-1.657 1.343-3 3-3h9c1.656 0 3 1.343 3 3v3zM42 22.050c0 1.656-1.344 3-3 3h-9c-1.657 0-3-1.344-3-3v-3c0-1.657 1.343-3 3-3h9c1.656 0 3 1.343 3 3v3zM28.285 8.764c1.143 0.143 1.571-0.714 3.286-0.714s5.429 3.964 5.429 3.964h7.964c0 0-9.107-5.536-10.821-6.536-1.715-1-4-1.714-5-0.286s-2 3.429-0.858 3.572z"></path>
</svg>
