<?xml version="1.0" encoding="utf-8"?>
<!-- Generated by IcoMoon.io -->
<!DOCTYPE svg PUBLIC "-//W3C//DTD SVG 1.1//EN" "http://www.w3.org/Graphics/SVG/1.1/DTD/svg11.dtd">
<svg version="1.1" xmlns="http://www.w3.org/2000/svg" xmlns:xlink="http://www.w3.org/1999/xlink" width="32" height="32" viewBox="0 0 32 32">
<path fill="#444444" d="M16 32c-8.836 0-16-7.163-16-16 0-8.836 7.164-16 16-16s16 7.164 16 16c0 8.837-7.164 16-16 16zM16 4c-6.627 0-12 5.373-12 12s5.373 12 12 12 12-5.373 12-12-5.373-12-12-12zM16 8c-3.314 0-6 2.687-6 6h4c0-1.104 0.895-2 2-2s2 0.896 2 2-0.895 2-2 2c-0.077 0-0.319 0-1 0-0.553 0-1 0.448-1 1v3h4v-0.367c2.324-0.826 4-3.024 4-5.633 0-3.313-2.686-6-6-6zM16 22h-2v2h4v-2z"></path>
</svg>
