<?xml version="1.0" encoding="utf-8"?>
<!-- Generated by IcoMoon.io -->
<!DOCTYPE svg PUBLIC "-//W3C//DTD SVG 1.1//EN" "http://www.w3.org/Graphics/SVG/1.1/DTD/svg11.dtd">
<svg version="1.1" xmlns="http://www.w3.org/2000/svg" xmlns:xlink="http://www.w3.org/1999/xlink" width="32" height="32" viewBox="0 0 32 32">
<path fill="#444444" d="M11.623 7.603l6.062 3.5c0.479 0.276 1.090 0.112 1.365-0.366 0.277-0.478 0.113-1.090-0.365-1.365l-6.062-3.5c-0.479-0.276-1.090-0.112-1.366 0.365s-0.112 1.089 0.366 1.366zM17.186 11.969l-6.062-3.5-3.5 6.062 6.062 3.5 3.5-6.062zM6.123 17.129l6.062 3.5c0.478 0.276 1.090 0.112 1.365-0.366s0.112-1.090-0.365-1.365l-6.062-3.5c-0.479-0.276-1.090-0.112-1.366 0.365-0.277 0.478-0.112 1.090 0.366 1.366zM27.012 19.951l-11.076-5.817-1 1.732 10.576 6.683c0.717 0.414 1.635 0.169 2.049-0.549s0.168-1.635-0.549-2.049zM16.033 25c0-0.553-0.448-1-1-1h-9c-0.553 0-1 0.447-1 1 0 0.552 0 1 0 1l-1.033-0.021 0.033 1.021h13l0.047-0.958-0.984-0.042c0 0-0.063-0.448-0.063-1z"></path>
</svg>
