<?xml version="1.0" encoding="utf-8"?>
<!-- Generated by IcoMoon.io -->
<!DOCTYPE svg PUBLIC "-//W3C//DTD SVG 1.1//EN" "http://www.w3.org/Graphics/SVG/1.1/DTD/svg11.dtd">
<svg version="1.1" xmlns="http://www.w3.org/2000/svg" xmlns:xlink="http://www.w3.org/1999/xlink" width="16" height="32" viewBox="0 0 16 32">
<path fill="#444444" d="M14 6c0-3.313-2.686-6-6-6s-6 2.688-6 6c0 3.314 2.686 6 6 6s6-2.686 6-6zM8 10c-2.208 0-4-1.792-4-4s1.792-4 4-4c2.207 0 4 1.792 4 4s-1.793 4-4 4zM12 12h-8c-2.208 0-4 1.792-4 4v4c0 2.207 1.792 4 4 4v8h8v-8c2.207 0 4-1.793 4-4v-4c0-2.208-1.793-4-4-4zM14 20c0 1.105-0.895 2-2 2v-4h-2v12h-4v-12h-2v4c-1.103 0-2-0.895-2-2v-4c0-1.104 0.897-2 2-2h8c1.105 0 2 0.896 2 2v4z"></path>
</svg>
