<?xml version="1.0" encoding="utf-8"?>
<!-- Generated by IcoMoon.io -->
<!DOCTYPE svg PUBLIC "-//W3C//DTD SVG 1.1//EN" "http://www.w3.org/Graphics/SVG/1.1/DTD/svg11.dtd">
<svg version="1.1" xmlns="http://www.w3.org/2000/svg" xmlns:xlink="http://www.w3.org/1999/xlink" width="48" height="48" viewBox="0 0 48 48">
<path fill="#444444" d="M14 0c-2.21 0-4 1.79-4 4v42c0 1.1 0.9 2 2 2 0.55 0 1.050-0.22 1.41-0.58l5.18-5.15c0.78-0.789 2.050-0.789 2.83 0l5.17 5.15c0.36 0.36 0.86 0.58 1.41 0.58 1.1 0 2-0.9 2-2v-39c0-1.16 0.9-2 2-2h2.5c1.38-0 2.5-1.12 2.5-2.5s-1.12-2.5-2.5-2.5h-20.5z"></path>
</svg>
