<?xml version="1.0" encoding="UTF-8"?>
<!DOCTYPE svg PUBLIC "-//W3C//DTD SVG 1.1//EN" "http://www.w3.org/Graphics/SVG/1.1/DTD/svg11.dtd">
<!-- Creator: CorelDRAW X8 -->
<svg xmlns="http://www.w3.org/2000/svg" xml:space="preserve" width="3.28354in" height="3.27034in" version="1.1" style="shape-rendering:geometricPrecision; text-rendering:geometricPrecision; image-rendering:optimizeQuality; fill-rule:evenodd; clip-rule:evenodd"
viewBox="0 0 1461 1456"
 xmlns:xlink="http://www.w3.org/1999/xlink">
 <defs>
  <style type="text/css">
   <![CDATA[
    .fil0 {fill:black}
   ]]>
  </style>
 </defs>
 <g id="Layer_x0020_1">
  <metadata id="CorelCorpID_0Corel-Layer"/>
  <g id="_133300542816">
   <path class="fil0" d="M922 294l148 0 0 220 49 0 0 51 -197 0 0 -51 54 0 0 -169 -54 0 0 -51zm539 44l0 43c-3,40 -15,80 -37,118 -32,56 -50,70 -90,107 -60,54 -171,93 -252,102 -14,2 -20,2 -37,3 -17,0 -21,4 -37,3 -14,-1 -60,-9 -71,-3l-22 19c-34,29 -83,50 -128,65 -28,9 -103,23 -133,24 2,-10 8,-11 15,-19 35,-40 64,-105 76,-158 -35,-23 -81,-55 -107,-89 -9,-12 -20,-25 -27,-37 -102,-159 -34,-334 113,-432 55,-37 117,-61 185,-74 26,-5 95,-12 118,-9 16,2 42,3 60,5 48,5 108,22 149,43 8,3 15,5 24,10l57 36c82,59 137,148 144,243zm-499 -153c0,-82 117,-83 117,0 0,31 -29,55 -49,55 -21,0 -35,2 -53,-18 -8,-9 -15,-21 -15,-37z"/>
   <path class="fil0" d="M782 1404c-33,0 -88,-11 -114,-34 31,3 79,12 116,-10 41,-24 42,-54 55,-81l77 42c-4,7 -7,8 -12,14 -29,37 -69,69 -122,69zm-782 -747l0 -26c0,-24 9,-50 19,-64 21,-28 98,-108 141,-108 35,0 53,4 80,28 34,30 58,60 81,99 22,37 24,52 24,88 0,55 -82,89 -82,131 0,39 46,102 66,125 8,9 14,18 21,27l23 26c27,30 88,87 121,118 6,5 7,5 13,10l26 23c40,31 115,84 156,37 19,-23 11,-11 27,-27 69,-71 138,-24 204,25 21,15 32,28 48,46 12,13 28,43 28,67 0,66 -100,158 -140,167 -11,3 -42,8 -53,6 -41,-4 -69,-9 -103,-20 -94,-29 -203,-91 -278,-153 -12,-9 -23,-16 -34,-26l-113 -104c-7,-6 -8,-8 -13,-15l-46 -49c-61,-69 -117,-155 -159,-237 -19,-39 -39,-93 -49,-137 -6,-28 -8,-39 -8,-57zm97 119c-16,-12 -43,-83 -43,-114 0,-60 31,-89 64,-119 7,-7 6,-9 16,-12 2,8 6,11 10,18l36 56c-30,7 -67,25 -80,54 -5,11 -12,41 -10,56 1,10 1,22 2,32 1,7 4,21 5,29z"/>
  </g>
 </g>
</svg>
