<?xml version="1.0" encoding="utf-8"?>
<!-- Generated by IcoMoon.io -->
<!DOCTYPE svg PUBLIC "-//W3C//DTD SVG 1.1//EN" "http://www.w3.org/Graphics/SVG/1.1/DTD/svg11.dtd">
<svg version="1.1" xmlns="http://www.w3.org/2000/svg" xmlns:xlink="http://www.w3.org/1999/xlink" width="32" height="32" viewBox="0 0 32 32">
<path fill="#444444" d="M28.831 19.019l-2.84-2.841v14.822c0 0.553-0.446 1-0.999 1h-3.996c-0.553 0-0.999-0.447-0.999-1v-11.994c0-0.553-0.447-1-1-1h-5.995c-0.552 0-0.999 0.447-0.999 1v11.994c0 0.553-0.448 1-0.999 1h-3.996c-0.552 0-1-0.447-1-1v-14.822l-2.84 2.841-3.168-3.17 15.842-15.849 0.158 0.158 0.158-0.158 7.835 7.839v-5.826h3.997v9.825l4.010 4.011-3.169 3.17z"></path>
</svg>
