<?xml version="1.0" encoding="utf-8"?>
<!-- Generated by IcoMoon.io -->
<!DOCTYPE svg PUBLIC "-//W3C//DTD SVG 1.1//EN" "http://www.w3.org/Graphics/SVG/1.1/DTD/svg11.dtd">
<svg version="1.1" xmlns="http://www.w3.org/2000/svg" xmlns:xlink="http://www.w3.org/1999/xlink" width="24" height="24" viewBox="0 0 24 24">
<path fill="#444444" d="M14.435 12.973c0.269 0 0.492 0.133 0.686 0.396 0.192 0.265 0.294 0.588 0.294 0.975 0 0.385-0.102 0.711-0.294 0.973-0.193 0.265-0.417 0.396-0.686 0.396-0.278 0-0.522-0.131-0.715-0.396-0.192-0.262-0.294-0.588-0.294-0.973 0-0.387 0.102-0.71 0.294-0.975 0.192-0.264 0.436-0.396 0.715-0.396zM17.875 9.414c0.746 0.811 1.125 1.795 1.125 2.953 0 0.748-0.086 1.423-0.259 2.023-0.175 0.597-0.394 1.084-0.654 1.459-0.264 0.376-0.588 0.705-0.974 0.989-0.386 0.286-0.741 0.492-1.065 0.623-0.325 0.132-0.695 0.233-1.111 0.306-0.417 0.071-0.726 0.111-0.943 0.123-0.213 0.009-0.438 0.014-0.685 0.014-0.055 0-0.243 0.004-0.547 0.015-0.301 0.013-0.56 0.016-0.762 0.016s-0.461-0.003-0.762-0.016c-0.304-0.011-0.492-0.015-0.547-0.015-0.246 0-0.472-0.005-0.685-0.014-0.218-0.012-0.526-0.052-0.943-0.123-0.423-0.072-0.786-0.174-1.111-0.306-0.324-0.131-0.68-0.337-1.064-0.623-0.387-0.284-0.711-0.613-0.975-0.989-0.261-0.375-0.479-0.862-0.654-1.459-0.173-0.6-0.259-1.275-0.259-2.023 0-1.158 0.379-2.143 1.125-2.953-0.082-0.041-0.085-0.447-0.008-1.217 0.063-0.771 0.227-1.482 0.495-2.132 0.934 0.099 2.090 0.629 3.471 1.581 0.466-0.119 1.101-0.183 1.917-0.183 0.852 0 1.491 0.064 1.918 0.184 0.629-0.425 1.23-0.771 1.805-1.034 0.584-0.261 1.005-0.416 1.269-0.457l0.396-0.090c0.27 0.649 0.434 1.36 0.496 2.132 0.076 0.769 0.073 1.175-0.009 1.216zM12.030 17.234c1.688 0 2.954-0.202 3.821-0.607 0.855-0.404 1.292-1.238 1.292-2.496 0-0.73-0.273-1.34-0.822-1.828-0.278-0.263-0.613-0.425-0.989-0.486s-0.949-0.061-1.72 0c-0.769 0.062-1.298 0.090-1.582 0.090-0.385 0-0.8-0.018-1.319-0.059-0.52-0.040-0.928-0.065-1.223-0.078-0.294-0.009-0.609 0.027-0.958 0.108-0.345 0.082-0.629 0.224-0.853 0.425-0.521 0.469-0.79 1.077-0.79 1.828 0 1.258 0.426 2.092 1.28 2.496 0.85 0.405 2.113 0.607 3.802 0.607h0.061zM9.596 12.973c0.268 0 0.492 0.133 0.685 0.396 0.192 0.265 0.294 0.588 0.294 0.975 0 0.385-0.102 0.711-0.294 0.973-0.192 0.265-0.417 0.396-0.685 0.396-0.279 0-0.522-0.131-0.716-0.396-0.192-0.262-0.294-0.588-0.294-0.973 0-0.387 0.102-0.71 0.294-0.975 0.193-0.264 0.436-0.396 0.716-0.396z"></path>
</svg>
