<?xml version="1.0" encoding="utf-8"?>
<!-- Generated by IcoMoon.io -->
<!DOCTYPE svg PUBLIC "-//W3C//DTD SVG 1.1//EN" "http://www.w3.org/Graphics/SVG/1.1/DTD/svg11.dtd">
<svg version="1.1" xmlns="http://www.w3.org/2000/svg" xmlns:xlink="http://www.w3.org/1999/xlink" width="24" height="32" viewBox="0 0 24 32">
<path fill="#444444" d="M24 4c0-2.219-1.781-4-4-4s-4 1.781-4 4c0 1.469 0.813 2.781 2 3.469v3.313l-6 6.625-6-6.625v-3.313c1.188-0.688 2-1.969 2-3.469 0-2.219-1.781-4-4-4s-4 1.781-4 4c0 1.469 0.813 2.781 2 3.469v4.875l8 8.813v3.406c-1.188 0.688-2 1.969-2 3.469 0 2.219 1.781 4 4 4s4-1.781 4-4c0-1.469-0.813-2.781-2-3.469v-3.406l8-8.813v-4.875c1.188-0.688 2-1.969 2-3.469zM4 2.031c1.063 0 1.938 0.875 1.938 1.938s-0.875 1.938-1.938 1.938-1.938-0.875-1.938-1.938 0.875-1.938 1.938-1.938zM12 29.875c-1.063 0-1.938-0.875-1.938-1.938s0.875-1.938 1.938-1.938 1.938 0.875 1.938 1.938-0.875 1.938-1.938 1.938zM20 2.031c1.063 0 1.938 0.875 1.938 1.938s-0.875 1.938-1.938 1.938-1.938-0.875-1.938-1.938 0.875-1.938 1.938-1.938z"></path>
</svg>
