<?xml version="1.0" encoding="utf-8"?>
<!-- Generated by IcoMoon.io -->
<!DOCTYPE svg PUBLIC "-//W3C//DTD SVG 1.1//EN" "http://www.w3.org/Graphics/SVG/1.1/DTD/svg11.dtd">
<svg version="1.1" xmlns="http://www.w3.org/2000/svg" xmlns:xlink="http://www.w3.org/1999/xlink" width="24" height="24" viewBox="0 0 24 24">
<path fill="#444444" d="M12.486 4.771c-4.23 0-6.363 3.033-6.363 5.562 0 1.533 0.581 2.894 1.823 3.401 0.205 0.084 0.387 0.004 0.446-0.221 0.041-0.157 0.138-0.553 0.182-0.717 0.061-0.221 0.037-0.3-0.127-0.495-0.359-0.422-0.588-0.972-0.588-1.747 0-2.25 1.683-4.264 4.384-4.264 2.392 0 3.706 1.463 3.706 3.412 0 2.568-1.137 4.734-2.824 4.734-0.932 0-1.629-0.77-1.405-1.715 0.268-1.13 0.786-2.347 0.786-3.16 0-0.729-0.392-1.336-1.2-1.336-0.952 0-1.718 0.984-1.718 2.304 0 0.841 0.286 1.409 0.286 1.409s-0.976 4.129-1.146 4.852c-0.34 1.44-0.051 3.206-0.025 3.385 0.013 0.104 0.149 0.131 0.21 0.051 0.088-0.115 1.223-1.517 1.607-2.915 0.111-0.396 0.627-2.445 0.627-2.445 0.311 0.589 1.213 1.108 2.175 1.108 2.863 0 4.804-2.608 4.804-6.103-0.003-2.64-2.24-5.1-5.64-5.1z"></path>
</svg>
