<?xml version="1.0" encoding="utf-8"?>
<!-- Generated by IcoMoon.io -->
<!DOCTYPE svg PUBLIC "-//W3C//DTD SVG 1.1//EN" "http://www.w3.org/Graphics/SVG/1.1/DTD/svg11.dtd">
<svg version="1.1" xmlns="http://www.w3.org/2000/svg" xmlns:xlink="http://www.w3.org/1999/xlink" width="32" height="32" viewBox="0 0 32 32">
<path fill="#444444" d="M30 2c-1 0-27 0-28 0s-2 1-2 2 0 17 0 18 1 2 2 2 10 0 10 0-6 2-6 4c0 1 1 2 2 2s15 0 16 0 2-1 2-2c0-2-6-4-6-4s9 0 10 0 2-1 2-2 0-17 0-18-1-2-2-2zM30 22h-28v-18h28v18zM28 6h-6c-12 2-16.938 9.375-18 12v2h24v-14z"></path>
</svg>
