<?xml version="1.0" encoding="utf-8"?>
<!-- Generated by IcoMoon.io -->
<!DOCTYPE svg PUBLIC "-//W3C//DTD SVG 1.1//EN" "http://www.w3.org/Graphics/SVG/1.1/DTD/svg11.dtd">
<svg version="1.1" xmlns="http://www.w3.org/2000/svg" xmlns:xlink="http://www.w3.org/1999/xlink" width="32" height="32" viewBox="0 0 32 32">
<path fill="#444444" d="M4.685 27.313c-6.248-6.248-6.248-16.379 0-22.627 6.25-6.248 16.379-6.248 22.629 0 6.248 6.248 6.248 16.379 0 22.627-6.25 6.249-16.379 6.249-22.629 0zM24.486 7.514c-4.688-4.687-12.285-4.687-16.971 0-4.688 4.687-4.688 12.284 0 16.971 4.686 4.687 12.283 4.687 16.971 0 4.686-4.687 4.686-12.284 0-16.971zM11.758 23.071l-2.828-2.829 4.242-4.242-4.242-4.242 2.828-2.829 4.242 4.243 4.242-4.243 2.828 2.829-4.242 4.242 4.242 4.242-2.828 2.829-4.242-4.243-4.242 4.243z"></path>
</svg>
