<?xml version="1.0" encoding="utf-8"?>
<!-- Generated by IcoMoon.io -->
<!DOCTYPE svg PUBLIC "-//W3C//DTD SVG 1.1//EN" "http://www.w3.org/Graphics/SVG/1.1/DTD/svg11.dtd">
<svg version="1.1" xmlns="http://www.w3.org/2000/svg" xmlns:xlink="http://www.w3.org/1999/xlink" width="32" height="32" viewBox="0 0 32 32">
<path fill="#444444" d="M30.309 8.973l-9.973 9.973h11.367c0.18-0.962 0.297-1.938 0.297-2.946 0-2.533-0.641-4.898-1.691-7.027zM21.055 15.24l8.203-8.199c-1.953-2.879-4.844-5.021-8.203-6.146v14.345zM16.748 21.055l8.205 8.207c2.883-1.949 5.027-4.844 6.152-8.207h-14.357zM18.943 11.744v-11.447c-0.957-0.178-1.935-0.297-2.943-0.297-2.555 0-4.938 0.654-7.080 1.721l10.023 10.023zM13.057 20.352v11.352c0.957 0.179 1.935 0.296 2.943 0.296 2.531 0 4.891-0.641 7.020-1.688l-9.963-9.96zM10.943 16.773l-8.193 8.192c1.949 2.875 4.838 5.016 8.193 6.141v-14.333zM0.297 13.057c-0.178 0.957-0.297 1.935-0.297 2.943 0 2.539 0.645 4.906 1.695 7.035l9.979-9.979h-11.377zM6.996 2.781c-2.855 1.949-4.982 4.823-6.101 8.162h14.264l-8.163-8.162z"></path>
</svg>
