<?xml version="1.0" encoding="utf-8"?>
<!-- Generated by IcoMoon.io -->
<!DOCTYPE svg PUBLIC "-//W3C//DTD SVG 1.1//EN" "http://www.w3.org/Graphics/SVG/1.1/DTD/svg11.dtd">
<svg version="1.1" xmlns="http://www.w3.org/2000/svg" xmlns:xlink="http://www.w3.org/1999/xlink" width="48" height="48" viewBox="0 0 48 48">
<path fill="#444444" d="M17 19.37l-16.22 22.25c-0.49 0.67-0.78 1.49-0.78 2.38 0 2.21 1.79 4 4 4h40c2.21 0 4-1.79 4-4 0-0.89-0.29-1.71-0.779-2.38l-16.221-22.25v-14.37h0.5c1.38 0 2.5-1.12 2.5-2.5s-1.12-2.5-2.5-2.5h-15c-1.38 0-2.5 1.12-2.5 2.5s1.12 2.5 2.5 2.5h0.5v14.37zM22 5h4v15l7 10h-18l7-10v-15z"></path>
</svg>
