<?xml version="1.0" encoding="utf-8"?>
<!-- Generated by IcoMoon.io -->
<!DOCTYPE svg PUBLIC "-//W3C//DTD SVG 1.1//EN" "http://www.w3.org/Graphics/SVG/1.1/DTD/svg11.dtd">
<svg version="1.1" xmlns="http://www.w3.org/2000/svg" xmlns:xlink="http://www.w3.org/1999/xlink" width="32" height="32" viewBox="0 0 32 32">
<path fill="#444444" d="M32 12c0 8.873-16 20-16 20s-16-11.127-16-20c-0.018-0.885 0.074-1.877 0-3-0.33-4.959 4.029-9 9-9 2.846 0 5.352 1.939 7 4 1.648-2.061 4.154-4 7-4 4.971 0 9.33 4.041 9 9-0.074 1.123 0.018 2.115 0 3zM28 9c0.248-2.75-2.238-5-5-5-5.182 0-5 4-5 4 0 1.105-0.895 2-2 2s-2-0.895-2-2c0 0 0.182-4-5-4-2.762 0-5.248 2.25-5 5 0.102 1.129-0.064 2.164 0.027 3-0.002 0-0.023 0-0.027 0 0.125-0.029-0.688 5.893 11.977 14.951 0.010-0.006 0.016-0.012 0.023-0.018 0.008 0.006 0.014 0.012 0.023 0.018 12.664-9.059 11.852-14.98 11.977-14.951-0.004 0-0.025 0-0.027 0 0.092-0.836-0.074-1.871 0.027-3z"></path>
</svg>
