<?xml version="1.0" encoding="utf-8"?>
<!-- Generated by IcoMoon.io -->
<!DOCTYPE svg PUBLIC "-//W3C//DTD SVG 1.1//EN" "http://www.w3.org/Graphics/SVG/1.1/DTD/svg11.dtd">
<svg version="1.1" xmlns="http://www.w3.org/2000/svg" xmlns:xlink="http://www.w3.org/1999/xlink" width="32" height="32" viewBox="0 0 32 32">
<path fill="#444444" d="M12 24c0-2.211-1.793-4-4-4-2.211 0-4 1.789-4 4v0.008c0 2.957-1.609 5.535-4 6.918l0.016 0.012c1.172 0.675 2.531 1.062 3.984 1.062 4.418 0 8-3.582 8-8v0zM30.826 1.172c-1.562-1.562-4.094-1.562-5.656 0l-15.123 15.125c2.758 0.738 4.922 2.898 5.656 5.66l15.123-15.129c1.563-1.562 1.563-4.094 0-5.656z"></path>
</svg>
