<?xml version="1.0" encoding="utf-8"?>
<!-- Generated by IcoMoon.io -->
<!DOCTYPE svg PUBLIC "-//W3C//DTD SVG 1.1//EN" "http://www.w3.org/Graphics/SVG/1.1/DTD/svg11.dtd">
<svg version="1.1" xmlns="http://www.w3.org/2000/svg" xmlns:xlink="http://www.w3.org/1999/xlink" width="24" height="24" viewBox="0 0 24 24">
<path fill="#444444" d="M20.016 3.984l-2.391 2.391q2.391 2.391 2.391 5.625 0 2.25-1.219 4.219l-1.5-1.453q0.703-1.406 0.703-2.766 0-2.438-1.781-4.219l-2.203 2.203v-6h6zM2.859 5.391l1.266-1.266 15.703 15.75-1.266 1.266-2.344-2.344q-1.125 0.656-2.25 0.938v-2.063q0.375-0.141 0.797-0.375l-8.063-8.063q-0.703 1.406-0.703 2.766 0 2.438 1.781 4.219l2.203-2.203v6h-6l2.391-2.391q-2.391-2.391-2.391-5.625 0-2.25 1.219-4.219zM9.984 6.328q-0.281 0.094-0.75 0.375l-1.453-1.5q1.172-0.703 2.203-0.938v2.063z"></path>
</svg>
