<?xml version="1.0" encoding="UTF-8"?>
<!DOCTYPE svg PUBLIC "-//W3C//DTD SVG 1.1//EN" "http://www.w3.org/Graphics/SVG/1.1/DTD/svg11.dtd">
<!-- Creator: CorelDRAW X8 -->
<svg xmlns="http://www.w3.org/2000/svg" xml:space="preserve" width="2.50275in" height="2.4607in" version="1.1" style="shape-rendering:geometricPrecision; text-rendering:geometricPrecision; image-rendering:optimizeQuality; fill-rule:evenodd; clip-rule:evenodd"
viewBox="0 0 919 904"
 xmlns:xlink="http://www.w3.org/1999/xlink">
 <defs>
  <style type="text/css">
   <![CDATA[
    .fil0 {fill:black}
   ]]>
  </style>
 </defs>
 <g id="Layer_x0020_1">
  <metadata id="CorelCorpID_0Corel-Layer"/>
  <g id="_133437531584">
   <path class="fil0" d="M239 706l0 0zm0 0c11,2 30,11 63,19 18,4 55,9 75,9 41,62 150,39 154,-18 1,-24 -21,-43 -40,-51 -37,-15 -89,-9 -112,26 -70,-5 -130,-18 -178,-66 -15,-14 -18,-38 -22,-61 -7,-38 -5,-64 -5,-101 40,-1 86,-37 111,-67 25,-30 45,-78 45,-132 11,7 38,65 108,98 38,18 105,34 131,48 6,4 10,7 16,10 -7,-32 -21,-41 -23,-48 17,0 52,8 68,12 32,8 61,19 88,35 29,18 27,19 27,55 0,8 0,12 1,19 1,8 -1,11 -1,19 -2,71 -19,126 -58,186l-26 35c-28,32 -52,53 -88,75 -20,13 -47,25 -71,32 -67,19 -133,-12 -184,-50 -15,-12 -29,-25 -43,-38 -4,-5 -5,-6 -9,-11 -6,-7 -24,-25 -27,-35zm-147 -316c0,-2 5,-63 8,-80 10,-47 23,-86 50,-126 17,-25 40,-51 65,-68 39,-26 75,-43 123,-53 25,-5 54,-10 79,-11 7,0 14,0 21,0 28,-1 9,-3 42,0 6,1 14,0 21,0 53,1 129,21 175,46 24,14 32,22 52,37 23,18 51,61 64,89 15,34 18,45 27,85 2,11 4,28 5,39 1,8 2,38 4,42 -48,0 -22,14 -49,-76 -27,-89 -85,-161 -174,-197 -85,-34 -206,-34 -290,0 -47,19 -90,49 -119,88 -3,4 -5,7 -8,12l-24 39c-5,9 -9,18 -13,28 -11,24 -22,71 -27,97 -1,10 0,9 -11,9 -7,0 -14,0 -21,0zm-49 9c-12,8 -20,13 -28,25 -7,10 -15,24 -15,41l0 101c0,26 19,54 41,66 29,15 57,11 99,11 15,28 18,53 50,96l40 50c3,3 5,5 8,9l30 26c102,82 208,111 330,38 25,-15 72,-50 91,-72 32,-38 60,-72 79,-120 4,-9 7,-19 11,-27 18,0 36,0 54,0 31,0 56,-12 72,-36 7,-10 14,-25 14,-41l0 -101c0,-16 -7,-30 -14,-40 -8,-13 -16,-18 -29,-26 0,-69 -9,-124 -29,-174 -11,-26 -20,-46 -35,-67 -16,-23 -38,-50 -60,-67 -6,-5 -9,-7 -14,-11 -51,-38 -119,-65 -183,-72 -16,-2 -32,-4 -46,-6l-49 -2c-8,0 -13,2 -24,2 -7,0 -17,-1 -25,0 -101,11 -162,26 -242,88 -6,4 -9,8 -15,12 -32,25 -67,86 -81,122 -20,50 -30,105 -30,175z"/>
   <path class="fil0" d="M532 497c0,42 49,64 80,36 31,-30 8,-82 -28,-82l-9 0c-23,0 -43,23 -43,46z"/>
   <path class="fil0" d="M293 497c0,15 6,27 14,35 7,7 20,13 33,14 24,0 48,-21 48,-49 0,-23 -20,-46 -43,-46l-9 0c-23,0 -43,23 -43,46z"/>
  </g>
 </g>
</svg>
