<?xml version="1.0" encoding="utf-8"?>
<!-- Generated by IcoMoon.io -->
<!DOCTYPE svg PUBLIC "-//W3C//DTD SVG 1.1//EN" "http://www.w3.org/Graphics/SVG/1.1/DTD/svg11.dtd">
<svg version="1.1" xmlns="http://www.w3.org/2000/svg" xmlns:xlink="http://www.w3.org/1999/xlink" width="48" height="48" viewBox="0 0 48 48">
<path fill="#444444" d="M45 24.050c0-5.97-4.33-10.93-10.010-11.88-0.17-6.75-5.7-12.17-12.49-12.17-6.9 0-12.5 5.6-12.5 12.5v15.5c0 2.76-2.24 5-5 5h-0.5c-1.38 0-2.5 1.12-2.5 2.5s1.12 2.5 2.5 2.5h0.5c5.52 0 10-4.48 10-10v-15.5c0-4.14 3.36-7.5 7.5-7.5 4.1 0 7.439 3.29 7.5 7.38-5.18 1.34-9 6.060-9 11.67v11.9c0 6.65 5.37 12.050 12 12.050s12-5.4 12-12.050v-11.9zM35 19v6c0 1.1-0.9 2-2 2s-2-0.9-2-2v-6c0-1.1 0.9-2 2-2s2 0.9 2 2z"></path>
</svg>
