<?xml version="1.0" encoding="utf-8"?>
<!-- Generated by IcoMoon.io -->
<!DOCTYPE svg PUBLIC "-//W3C//DTD SVG 1.1//EN" "http://www.w3.org/Graphics/SVG/1.1/DTD/svg11.dtd">
<svg version="1.1" xmlns="http://www.w3.org/2000/svg" xmlns:xlink="http://www.w3.org/1999/xlink" width="32" height="32" viewBox="0 0 32 32">
<path fill="#444444" d="M14.121 6.255l-7.5 12.99c-0.414 0.718 0.982 2.299 0.982 2.299l9-15.588c0 0-2.068-0.419-2.482 0.299zM16.5 15.134c0.717 0.414 1.635 0.168 2.049-0.549l4-6.928c0.414-0.718 0.168-1.635-0.549-2.050-0.717-0.414-1.635-0.168-2.049 0.549l-4 6.928c-0.414 0.718-0.168 1.636 0.549 2.050zM15.5 16.866c-0.718-0.414-1.635-0.168-2.049 0.549l-4 6.929c-0.414 0.717-0.169 1.635 0.549 2.049s1.635 0.168 2.049-0.549l4-6.929c0.414-0.718 0.168-1.635-0.549-2.049zM24.396 10.456l-9 15.588c0 0 2.068 0.419 2.482-0.299l7.5-12.99c0.415-0.718-0.982-2.299-0.982-2.299z"></path>
</svg>
