<?xml version="1.0" encoding="utf-8"?>
<!-- Generated by IcoMoon.io -->
<!DOCTYPE svg PUBLIC "-//W3C//DTD SVG 1.1//EN" "http://www.w3.org/Graphics/SVG/1.1/DTD/svg11.dtd">
<svg version="1.1" xmlns="http://www.w3.org/2000/svg" xmlns:xlink="http://www.w3.org/1999/xlink" width="24" height="24" viewBox="0 0 24 24">
<path fill="#444444" d="M14 13.242v6.758l-3.379-3.379-1.379 1.379h0.525l4 5c1 0 2.232 0 2.232 0v-11.758l-1.999 2zM5.017 15.155c-0.004-0.052-0.017-0.1-0.017-0.155v-5.75c0-0.551 0.215-1.25 0.768-1.25h3.232v3.172l1-1v-2.172l4-4v2.172l2-2v-3.172c-1 0-1.232 0-2.232 0l-4 5h-4c-1.655 0-2.768 1.596-2.768 3.25v5.75c0 0.636 0.167 1.223 0.463 1.709l1.554-1.554zM3.414 21.707l-1.414-1.414 18.5-18.5 1.414 1.414-18.5 18.5z"></path>
</svg>
