<?xml version="1.0" encoding="utf-8"?>
<!-- Generated by IcoMoon.io -->
<!DOCTYPE svg PUBLIC "-//W3C//DTD SVG 1.1//EN" "http://www.w3.org/Graphics/SVG/1.1/DTD/svg11.dtd">
<svg version="1.1" xmlns="http://www.w3.org/2000/svg" xmlns:xlink="http://www.w3.org/1999/xlink" width="32" height="32" viewBox="0 0 32 32">
<path fill="#444444" d="M20.133 0c-6.539 0-11.86 5.32-11.86 11.863 0 1.566 0.32 3.051 0.871 4.418l-9.144 9.145 6.57 6.574 9.148-9.152c1.367 0.555 2.852 0.875 4.414 0.875 6.543 0 11.867-5.32 11.867-11.858 0.001-6.545-5.323-11.865-11.866-11.865zM20.133 19.727c-4.332 0-7.863-3.531-7.863-7.862 0-4.336 3.531-7.867 7.863-7.867 4.34 0 7.871 3.531 7.871 7.867 0 4.33-3.531 7.862-7.871 7.862z"></path>
</svg>
