<?xml version="1.0" encoding="utf-8"?>
<!-- Generated by IcoMoon.io -->
<!DOCTYPE svg PUBLIC "-//W3C//DTD SVG 1.1//EN" "http://www.w3.org/Graphics/SVG/1.1/DTD/svg11.dtd">
<svg version="1.1" xmlns="http://www.w3.org/2000/svg" xmlns:xlink="http://www.w3.org/1999/xlink" width="24" height="32" viewBox="0 0 24 32">
<path fill="#444444" d="M12 0c-6.627 0-12 5.373-12 12v2c0 1.105 0.895 2 2 2v10c0 2.209 4.477 4 10 4s10-1.791 10-4v-10c1.105 0 2-0.895 2-2v-2c0-6.627-5.373-12-12-12zM18 20v1c0 0.552-0.448 1-1 1s-1-0.448-1-1v-1c0-0.552-0.448-1-1-1s-1 0.448-1 1v5c0 0.552-0.448 1-1 1s-1-0.448-1-1v-4c0-0.552-0.448-1-1-1s-1 0.448-1 1v1c0 1.105-0.895 2-2 2s-2-0.895-2-2v-2c-1.105 0-2-0.895-2-2v-3.6c1.824 0.971 4.729 1.6 8 1.6s6.176-0.628 8-1.6v3.6c0 1.105-0.895 2-2 2zM12 14c-3.357 0-6.231-0.827-7.418-2 1.187-1.173 4.061-2 7.418-2s6.231 0.827 7.418 2c-1.187 1.173-4.061 2-7.418 2zM12 8c-5.519 0-9.994 1.789-10 3.996-0-0-0-0-0-0 0.002-5.521 4.479-9.996 10-9.996 5.523 0 10 4.477 10 10 0-2.209-4.477-4-10-4z"></path>
</svg>
