<?xml version="1.0" encoding="utf-8"?>
<!-- Generated by IcoMoon.io -->
<!DOCTYPE svg PUBLIC "-//W3C//DTD SVG 1.1//EN" "http://www.w3.org/Graphics/SVG/1.1/DTD/svg11.dtd">
<svg version="1.1" xmlns="http://www.w3.org/2000/svg" xmlns:xlink="http://www.w3.org/1999/xlink" width="24" height="24" viewBox="0 0 24 24">
<path fill="#444444" d="M8 20c-1.654 0-3-1.346-3-3v-9c0-1.654 1.346-3 3-3s3 1.346 3 3v9c0 1.654-1.346 3-3 3zM8 7c-0.552 0-1 0.449-1 1v9c0 0.551 0.448 1 1 1s1-0.449 1-1v-9c0-0.551-0.448-1-1-1z"></path>
<path fill="#444444" d="M15 20c-1.654 0-3-1.346-3-3v-9c0-1.654 1.346-3 3-3s3 1.346 3 3v9c0 1.654-1.346 3-3 3zM15 7c-0.552 0-1 0.449-1 1v9c0 0.551 0.448 1 1 1s1-0.449 1-1v-9c0-0.551-0.448-1-1-1z"></path>
</svg>
