<?xml version="1.0" encoding="utf-8"?>
<!-- Generated by IcoMoon.io -->
<!DOCTYPE svg PUBLIC "-//W3C//DTD SVG 1.1//EN" "http://www.w3.org/Graphics/SVG/1.1/DTD/svg11.dtd">
<svg version="1.1" xmlns="http://www.w3.org/2000/svg" xmlns:xlink="http://www.w3.org/1999/xlink" width="24" height="24" viewBox="0 0 24 24">
<path fill="#444444" d="M15 24v-2.016h2.016v2.016h-2.016zM16.547 4.453q3.469 2.438 3.469 6.563 0 3.281-2.344 5.625t-5.672 2.344-5.672-2.344-2.344-5.625q0-4.125 3.469-6.563l1.406 1.406q-2.859 1.781-2.859 5.156 0 2.484 1.758 4.242t4.242 1.758 4.242-1.758 1.758-4.242q0-3.375-2.906-5.109zM12.984 2.016v9.984h-1.969v-9.984h1.969zM11.016 24v-2.016h1.969v2.016h-1.969zM6.984 24v-2.016h2.016v2.016h-2.016z"></path>
</svg>
