<?xml version="1.0" encoding="utf-8"?>
<!-- Generated by IcoMoon.io -->
<!DOCTYPE svg PUBLIC "-//W3C//DTD SVG 1.1//EN" "http://www.w3.org/Graphics/SVG/1.1/DTD/svg11.dtd">
<svg version="1.1" xmlns="http://www.w3.org/2000/svg" xmlns:xlink="http://www.w3.org/1999/xlink" width="32" height="32" viewBox="0 0 32 32">
<path fill="#444444" d="M16 32.034c8.842 0 16.034-7.192 16.034-16.034s-7.192-16.034-16.034-16.034-16.034 7.192-16.034 16.034 7.192 16.034 16.034 16.034zM16 1.034c8.252 0 14.966 6.714 14.966 14.966s-6.714 14.966-14.966 14.966-14.966-6.714-14.966-14.966 6.714-14.966 14.966-14.966zM9.987 26.414c0.084 0.049 0.176 0.071 0.268 0.071 0.181 0 0.356-0.091 0.457-0.257l5.288-8.699 5.289 8.699c0.101 0.166 0.276 0.257 0.457 0.257 0.092 0 0.184-0.022 0.268-0.071 3.883-2.247 6.021-5.768 6.021-9.914 0-0.295-0.239-0.534-0.534-0.5h-10.597l5.311-9.693c0.14-0.255 0.051-0.575-0.201-0.721-3.664-2.119-8.364-2.119-12.026 0-0.253 0.145-0.342 0.466-0.202 0.721l5.31 9.693h-10.596c-0.295-0.034-0.534 0.205-0.534 0.5 0 4.146 2.138 7.667 6.021 9.914zM26.952 17c-0.169 3.393-1.934 6.268-5.026 8.218l-4.976-8.218h10.002zM21.020 6.261l-5.020 9.13-5.019-9.13c3.106-1.608 6.931-1.608 10.039 0zM15.050 17l-4.975 8.218c-3.093-1.949-4.858-4.824-5.027-8.218h10.002z"></path>
</svg>
