<?xml version="1.0" encoding="utf-8"?>
<!-- Generated by IcoMoon.io -->
<!DOCTYPE svg PUBLIC "-//W3C//DTD SVG 1.1//EN" "http://www.w3.org/Graphics/SVG/1.1/DTD/svg11.dtd">
<svg version="1.1" xmlns="http://www.w3.org/2000/svg" xmlns:xlink="http://www.w3.org/1999/xlink" width="24" height="24" viewBox="0 0 24 24">
<path fill="#444444" d="M19.707 7.293l-4-4c-0.187-0.188-0.441-0.293-0.707-0.293h-8c-1.654 0-3 1.346-3 3v12c0 1.654 1.346 3 3 3h10c1.654 0 3-1.346 3-3v-10c0-0.266-0.105-0.52-0.293-0.707zM17.586 8h-1.086c-0.827 0-1.5-0.673-1.5-1.5v-1.086l2.586 2.586zM17 19h-10c-0.552 0-1-0.448-1-1v-12c0-0.552 0.448-1 1-1h7v1.5c0 1.379 1.121 2.5 2.5 2.5h1.5v9c0 0.552-0.448 1-1 1z"></path>
</svg>
