<?xml version="1.0" encoding="utf-8"?>
<!-- Generated by IcoMoon.io -->
<!DOCTYPE svg PUBLIC "-//W3C//DTD SVG 1.1//EN" "http://www.w3.org/Graphics/SVG/1.1/DTD/svg11.dtd">
<svg version="1.1" xmlns="http://www.w3.org/2000/svg" xmlns:xlink="http://www.w3.org/1999/xlink" width="24" height="24" viewBox="0 0 24 24">
<path fill="#444444" d="M21.989 16.049c0.009-0.315 0.011-0.657 0.011-1.049v-9c0-1.654-1.346-3-3-3h-14c-1.654 0-3 1.346-3 3v9c0 0.385 0.002 0.73 0.012 1.049-1.145 0.228-2.012 1.24-2.012 2.451 0 1.378 1.122 2.5 2.5 2.5h19c1.378 0 2.5-1.122 2.5-2.5 0-1.211-0.866-2.222-2.011-2.451zM4 6c0-0.551 0.449-1 1-1h14c0.551 0 1 0.449 1 1v9c0 0.388-0.005 0.726-0.014 1h-0.986v-9c0-0.55-0.45-1-1-1h-12c-0.55 0-1 0.45-1 1v9h-0.98c-0.012-0.264-0.020-0.599-0.020-1v-9zM18 16h-12v-9h12v9zM21.5 19h-19c-0.271 0-0.5-0.229-0.5-0.5s0.229-0.5 0.5-0.5h19c0.271 0 0.5 0.229 0.5 0.5s-0.229 0.5-0.5 0.5z"></path>
</svg>
