<?xml version="1.0" encoding="UTF-8"?>
<!DOCTYPE svg PUBLIC "-//W3C//DTD SVG 1.1//EN" "http://www.w3.org/Graphics/SVG/1.1/DTD/svg11.dtd">
<!-- Creator: CorelDRAW X8 -->
<svg xmlns="http://www.w3.org/2000/svg" xml:space="preserve" width="2.50533in" height="2.56546in" version="1.1" style="shape-rendering:geometricPrecision; text-rendering:geometricPrecision; image-rendering:optimizeQuality; fill-rule:evenodd; clip-rule:evenodd"
viewBox="0 0 1450 1485"
 xmlns:xlink="http://www.w3.org/1999/xlink">
 <defs>
  <style type="text/css">
   <![CDATA[
    .fil0 {fill:black}
   ]]>
  </style>
 </defs>
 <g id="Layer_x0020_1">
  <metadata id="CorelCorpID_0Corel-Layer"/>
  <g id="_133325640320">
   <path class="fil0" d="M377 1111l0 0zm307 -1111l72 0c48,2 97,7 145,15 137,23 265,87 353,196 65,81 98,170 117,274 4,23 6,47 9,69l3 75c31,8 67,63 67,110l0 142c0,52 -31,94 -65,113 -20,11 -42,18 -71,18 -29,0 -59,0 -88,0 -2,12 -6,22 -11,32 -3,6 -12,23 -12,32 0,53 29,82 69,111 24,18 83,60 117,63 -15,20 -85,17 -105,17 3,4 26,30 31,34 28,22 81,65 117,68 -5,7 -7,9 -14,14 -48,37 -50,40 -115,68 -50,21 -106,32 -163,34l-40 0c-69,-3 -138,-17 -198,-41 -15,-6 -25,-11 -40,-18 -48,-24 -22,-21 -60,-12 -48,11 -83,12 -132,4 -9,-2 -46,-10 -47,-10 -3,0 -63,31 -77,37 -79,30 -131,40 -224,40 -91,0 -214,-37 -278,-91 -9,-8 -20,-16 -27,-25 14,-2 34,-13 46,-19 35,-17 84,-53 105,-86 -23,0 -44,-2 -66,-9 -8,-3 -7,-4 -18,-5 7,-10 2,-4 15,-8 33,-12 68,-33 95,-54 28,-21 29,-19 38,-46 18,-55 20,-64 2,-100 -5,-10 -8,-19 -11,-30 -29,0 -60,1 -90,0 -73,-2 -133,-55 -133,-131l0 -142c0,-27 10,-52 21,-69 8,-12 30,-37 46,-41 0,-18 2,-22 3,-37 1,-48 0,-53 9,-107 14,-81 40,-161 85,-229 38,-57 40,-49 69,-87 8,-9 13,-10 21,-19 23,-22 87,-66 117,-78 17,-7 34,-17 54,-24 84,-30 171,-45 259,-48zm-307 1111l47 16c65,21 166,28 166,29 12,4 3,0 9,5 2,3 5,7 8,10 17,19 32,28 59,36 123,36 242,-85 120,-155 -51,-30 -148,-26 -189,35 -30,-7 -60,-2 -145,-25 -41,-11 -137,-56 -152,-104 -18,-61 -21,-84 -25,-149 0,-14 -4,-22 -2,-40 2,-14 2,-23 2,-41 60,-2 140,-58 174,-105 44,-59 73,-133 73,-208l35 45c13,16 25,29 40,42 15,14 23,17 44,37 15,14 33,20 52,29 49,24 120,40 178,66 11,5 18,7 28,13 7,4 17,12 26,14 -8,-16 -2,-13 -18,-42 -10,-17 -20,-24 -28,-36 23,0 85,13 108,19 37,9 67,18 98,32 16,7 28,14 42,22l28 19c3,2 8,6 10,7 8,8 7,12 9,23l2 94c-6,49 -1,53 -14,114 -13,63 -42,129 -76,181 -64,98 -177,197 -291,226 -112,28 -198,-10 -290,-76l-36 -28c-15,-14 -87,-85 -92,-105zm-183 -499l-49 0c3,-7 4,-51 6,-61 8,-91 22,-136 57,-215 24,-52 78,-116 125,-150 119,-86 253,-108 406,-108 84,0 173,15 237,36 58,20 90,37 137,69 14,10 25,20 37,32 40,39 48,46 77,95 43,72 65,154 72,238 1,11 3,58 6,64l-50 0c-2,-30 -13,-75 -22,-103 -9,-31 -20,-64 -34,-91 -15,-30 -27,-53 -45,-79 -39,-55 -106,-116 -167,-143 -16,-7 -30,-13 -45,-19 -126,-47 -306,-46 -432,-1 -16,6 -28,13 -43,19 -9,3 -13,6 -21,11 -28,16 -24,12 -56,36 -7,5 -12,8 -18,14 -8,7 -8,8 -17,15 -13,10 -47,51 -58,67 -19,26 -31,49 -46,79 -23,45 -52,142 -57,195z"/>
   <path class="fil0" d="M461 780c0,70 82,100 127,57 46,-43 25,-130 -57,-130 -35,0 -70,38 -70,73z"/>
   <path class="fil0" d="M838 777c0,81 87,100 128,59 42,-42 24,-129 -58,-129 -34,0 -70,36 -70,70z"/>
  </g>
 </g>
</svg>
