<?xml version="1.0" encoding="utf-8"?>
<!-- Generated by IcoMoon.io -->
<!DOCTYPE svg PUBLIC "-//W3C//DTD SVG 1.1//EN" "http://www.w3.org/Graphics/SVG/1.1/DTD/svg11.dtd">
<svg version="1.1" xmlns="http://www.w3.org/2000/svg" xmlns:xlink="http://www.w3.org/1999/xlink" width="24" height="24" viewBox="0 0 24 24">
<path fill="#444444" d="M13 12h-3c-0.276 0-0.5 0.224-0.5 0.5s0.224 0.5 0.5 0.5h3c0.276 0 0.5-0.224 0.5-0.5s-0.224-0.5-0.5-0.5z"></path>
<path fill="#444444" d="M20 5h-17c-0.553 0-1 0.448-1 1s0.447 1 1 1h17c0.553 0 1-0.448 1-1s-0.447-1-1-1z"></path>
<path fill="#444444" d="M18 8h-13c-0.553 0-1 0.448-1 1v8c0 1.654 1.346 3 3 3h9c1.654 0 3-1.346 3-3v-8c0-0.552-0.447-1-1-1zM16 18h-9c-0.552 0-1-0.449-1-1v-7h11v7c0 0.551-0.448 1-1 1z"></path>
</svg>
