<?xml version="1.0" encoding="utf-8"?>
<!-- Generated by IcoMoon.io -->
<!DOCTYPE svg PUBLIC "-//W3C//DTD SVG 1.1//EN" "http://www.w3.org/Graphics/SVG/1.1/DTD/svg11.dtd">
<svg version="1.1" xmlns="http://www.w3.org/2000/svg" xmlns:xlink="http://www.w3.org/1999/xlink" width="32" height="32" viewBox="0 0 32 32">
<path fill="#444444" d="M23.998 6c-0.375 0-0.733 0.061-1.103 0.111-1.389-2.465-3.969-4.111-6.895-4.111-2.987 0-5.565 1.666-6.94 4.1-0.353-0.047-0.705-0.1-1.060-0.1-4.41 0-8 3.588-8 8s3.59 8 8 8h15.998c4.414 0 8-3.588 8-8s-3.586-8-8-8zM23.998 18h-15.998c-2.207 0-4-1.795-4-4 0-2.193 1.941-3.885 4.004-3.945 0.009 0.943 0.172 1.869 0.5 2.744l3.746-1.402c-0.168-0.444-0.25-0.915-0.25-1.397 0-2.205 1.793-4 4-4 1.293 0 2.465 0.641 3.199 1.639-1.928 1.461-3.199 3.756-3.199 6.361h4c0-2.205 1.795-4 3.998-4 2.211 0 4 1.795 4 4s-1.789 4-4 4zM3.281 29.438c-0.75 0.75-1.969 0.75-2.719 0s-0.75-1.969 0-2.719 5.438-2.719 5.438-2.719-1.969 4.688-2.719 5.438zM11.285 29.438c-0.75 0.75-1.965 0.75-2.719 0-0.75-0.75-0.75-1.969 0-2.719 0.754-0.75 5.438-2.719 5.438-2.719s-1.965 4.688-2.719 5.438zM19.28 29.438c-0.75 0.75-1.969 0.75-2.719 0s-0.75-1.969 0-2.719 5.437-2.719 5.437-2.719-1.968 4.688-2.718 5.438z"></path>
</svg>
