<?xml version="1.0" encoding="utf-8"?>
<!-- Generated by IcoMoon.io -->
<!DOCTYPE svg PUBLIC "-//W3C//DTD SVG 1.1//EN" "http://www.w3.org/Graphics/SVG/1.1/DTD/svg11.dtd">
<svg version="1.1" xmlns="http://www.w3.org/2000/svg" xmlns:xlink="http://www.w3.org/1999/xlink" width="32" height="32" viewBox="0 0 32 32">
<path fill="#444444" d="M32 4.906c0 3.765-10.101 12.581-11.987 16.347v7.789c0 0.021-0.012 0.036-0.014 0.057v0.901c0 1.104-0.896 2-1.999 2h-4c-1.104 0-2-0.896-2-2v-0.899c-0.002-0.021-0.015-0.036-0.015-0.059v-7.789c-1.883-3.766-11.985-12.582-11.985-16.347h0.029c-0.006-0.042-0.029-0.078-0.029-0.118 0-2.141 7.167-4.788 16-4.788s16 2.647 16 4.788c0 0.040-0.023 0.076-0.030 0.118h0.030zM16.17 1.984c-7.751 0-14.184 1.245-14.184 3.528 0 2.282 6.433 4.505 14.184 4.505 7.752 0 13.81-2.223 13.81-4.505-0.001-2.283-6.058-3.528-13.81-3.528z"></path>
</svg>
