<?xml version="1.0" encoding="utf-8"?>
<!-- Generated by IcoMoon.io -->
<!DOCTYPE svg PUBLIC "-//W3C//DTD SVG 1.1//EN" "http://www.w3.org/Graphics/SVG/1.1/DTD/svg11.dtd">
<svg version="1.1" xmlns="http://www.w3.org/2000/svg" xmlns:xlink="http://www.w3.org/1999/xlink" width="24" height="32" viewBox="0 0 24 32">
<path fill="#444444" d="M16 0h-8c-4.418 0-8 3.582-8 8v16c0 4.418 3.582 8 8 8h8c4.418 0 8-3.582 8-8v-16c0-4.418-3.582-8-8-8zM12 30.062c-1.139 0-2.062-0.922-2.062-2.062s0.924-2.062 2.062-2.062 2.062 0.922 2.062 2.062-0.923 2.062-2.062 2.062zM20 24h-16v-16c0-2.203 1.795-4 4-4h8c2.203 0 4 1.797 4 4v16z"></path>
</svg>
