<?xml version="1.0" encoding="utf-8"?>
<!-- Generated by IcoMoon.io -->
<!DOCTYPE svg PUBLIC "-//W3C//DTD SVG 1.1//EN" "http://www.w3.org/Graphics/SVG/1.1/DTD/svg11.dtd">
<svg version="1.1" xmlns="http://www.w3.org/2000/svg" xmlns:xlink="http://www.w3.org/1999/xlink" width="48" height="48" viewBox="0 0 48 48">
<path fill="#444444" d="M6 34.681c0 0 3-2.681 9-2.681 7.040 0 12.689 5 18.779 5 5.201 0 9-2.25 11.061-4.319 0.66-0.661 1.16-1.801 1.16-2.87v-24.38c0-1.221-0.84-2.221-2.070-2.221-0.83 0-1.46 0.5-2.090 1.13-0.85 0.849-3.34 2.66-9.311 2.66-5.449 0-9.77-5-16.81-5-6.78-0-9.719 2.21-9.719 2.21v-1.71c0-1.38-1.12-2.5-2.5-2.5s-2.5 1.12-2.5 2.5v43c0 1.38 1.12 2.5 2.5 2.5s2.5-1.12 2.5-2.5v-10.819zM10 10v16c0 1.1-0.9 2-2 2s-2-0.9-2-2l-0-16c0-1.1 0.9-2 2-2s2 0.9 2 2z"></path>
</svg>
