<?xml version="1.0" encoding="utf-8"?>
<!-- Generated by IcoMoon.io -->
<!DOCTYPE svg PUBLIC "-//W3C//DTD SVG 1.1//EN" "http://www.w3.org/Graphics/SVG/1.1/DTD/svg11.dtd">
<svg version="1.1" xmlns="http://www.w3.org/2000/svg" xmlns:xlink="http://www.w3.org/1999/xlink" width="24" height="24" viewBox="0 0 24 24">
<path fill="#444444" d="M11.5 3c-5.238 0-9.5 4.262-9.5 9.5s4.262 9.5 9.5 9.5 9.5-4.262 9.5-9.5-4.262-9.5-9.5-9.5zM4 12.5c0-4.136 3.364-7.5 7.5-7.5 1.526 0 2.946 0.461 4.132 1.247l-10.385 10.385c-0.786-1.186-1.247-2.606-1.247-4.132zM11.5 20c-1.526 0-2.946-0.461-4.132-1.247l10.385-10.385c0.786 1.186 1.247 2.606 1.247 4.132 0 4.136-3.364 7.5-7.5 7.5z"></path>
</svg>
