<?xml version="1.0" encoding="utf-8"?>
<!-- Generated by IcoMoon.io -->
<!DOCTYPE svg PUBLIC "-//W3C//DTD SVG 1.1//EN" "http://www.w3.org/Graphics/SVG/1.1/DTD/svg11.dtd">
<svg version="1.1" xmlns="http://www.w3.org/2000/svg" xmlns:xlink="http://www.w3.org/1999/xlink" width="32" height="32" viewBox="0 0 32 32">
<path fill="#444444" d="M28 29v-1h-1v-1h-1v-13h1v-1h1v-1h1v17h-1zM27 13h-1v1h-20v-1h-1v-1h-1v-1h24v1h-1v1zM5 13v1h1v13h-1v1h-1v1h-1v-17h1v1h1zM5 28h1v-1h20v1h1v1h1v1h-24v-1h1v-1zM12.856 22.982l2.286-3.697 2.286 2.304 3.143-4.731 3.286 8.142h-14.572l1.857-3.715 1.714 1.697zM11.491 19.009c-0.829 0-1.5-0.672-1.5-1.5s0.671-1.5 1.5-1.5c0.828 0 1.5 0.672 1.5 1.5s-0.672 1.5-1.5 1.5zM25 11l-7.322-5.45c-0.344 0.277-0.775 0.45-1.25 0.45-0.661 0-1.244-0.325-1.607-0.821l-7.821 5.821h-1l8.493-6.518c-0.038-0.155-0.064-0.315-0.064-0.482 0-1.104 0.895-2 1.999-2 1.105 0 2 0.896 2 2 0 0.359-0.103 0.692-0.269 0.984l7.841 6.016h-1z"></path>
</svg>
