<?xml version="1.0" encoding="utf-8"?>
<!-- Generated by IcoMoon.io -->
<!DOCTYPE svg PUBLIC "-//W3C//DTD SVG 1.1//EN" "http://www.w3.org/Graphics/SVG/1.1/DTD/svg11.dtd">
<svg version="1.1" xmlns="http://www.w3.org/2000/svg" xmlns:xlink="http://www.w3.org/1999/xlink" width="48" height="48" viewBox="0 0 48 48">
<path fill="#444444" d="M8 32.78c0 8.409 6.94 15.22 15.5 15.22s15.5-6.811 15.5-15.22c0-10.78-12.029-17.78-13-29.78v-0.5c0-1.38-1.12-2.5-2.5-2.5s-2.5 1.12-2.5 2.5v0.5c-1 12-13 19-13 29.78zM25.65 39c2.16-0.5 3.879-2.34 4.379-4.35 0.171-0.94 0.991-1.65 1.971-1.65 1.1 0 2 0.9 2 2 0 1.439-1.21 3.63-2.859 5.27-1.621 1.6-3.551 2.73-5.141 2.73-1.1 0-2-0.93-2-2.029 0-0.981 0.71-1.801 1.65-1.971z"></path>
</svg>
