<?xml version="1.0" encoding="utf-8"?>
<!-- Generated by IcoMoon.io -->
<!DOCTYPE svg PUBLIC "-//W3C//DTD SVG 1.1//EN" "http://www.w3.org/Graphics/SVG/1.1/DTD/svg11.dtd">
<svg version="1.1" xmlns="http://www.w3.org/2000/svg" xmlns:xlink="http://www.w3.org/1999/xlink" width="24" height="24" viewBox="0 0 24 24">
<path fill="#444444" d="M20.383 3.076c-0.373-0.155-0.804-0.069-1.090 0.217l-3.867 3.867-4.301-3.441c-0.396-0.316-0.973-0.287-1.332 0.074l-4.5 4.5c-0.188 0.187-0.293 0.441-0.293 0.707v10c0 0.404 0.243 0.77 0.617 0.924 0.124 0.053 0.254 0.076 0.383 0.076 0.26 0 0.516-0.102 0.707-0.293l3.867-3.867 4.301 3.441c0.396 0.316 0.971 0.285 1.332-0.074l4.5-4.5c0.188-0.187 0.293-0.441 0.293-0.707v-10c0-0.404-0.243-0.77-0.617-0.924zM7 16.586v-7.172l3-3v7.24c-0.070 0.043-3 2.932-3 2.932zM11.125 13.719c-0.038-0.029-0.084-0.045-0.125-0.068v-7.469c0 0 3.959 3.143 4 3.166v7.473l-3.875-3.102zM19 13.586l-3 3v-7.236c0.070-0.043 3-2.936 3-2.936v7.172z"></path>
</svg>
