<?xml version="1.0" encoding="utf-8"?>
<!-- Generated by IcoMoon.io -->
<!DOCTYPE svg PUBLIC "-//W3C//DTD SVG 1.1//EN" "http://www.w3.org/Graphics/SVG/1.1/DTD/svg11.dtd">
<svg version="1.1" xmlns="http://www.w3.org/2000/svg" xmlns:xlink="http://www.w3.org/1999/xlink" width="48" height="48" viewBox="0 0 48 48">
<path fill="#444444" d="M23.5 1c-1.38 0-2.5 1.12-2.5 2.5v3.67c-1.39 0.2-2.73 0.57-4 1.070l-1.83-3.18c-0.7-1.19-2.22-1.6-3.42-0.91s-1.61 2.22-0.92 3.41l1.84 3.19c-1.080 0.86-2.060 1.84-2.92 2.92l-3.19-1.84c-1.19-0.69-2.72-0.28-3.41 0.92s-0.28 2.72 0.91 3.42l3.18 1.84c-0.5 1.26-0.87 2.6-1.070 3.99l-3.67 0c-1.38 0-2.5 1.12-2.5 2.5s1.12 2.5 2.5 2.5h3.67c0.2 1.391 0.57 2.73 1.070 3.99l-3.18 1.84c-1.19 0.7-1.6 2.22-0.91 3.42s2.22 1.609 3.41 0.92l3.19-1.84c0.86 1.080 1.84 2.061 2.92 2.92l-1.84 3.189c-0.69 1.19-0.28 2.721 0.92 3.41 1.2 0.69 2.72 0.28 3.42-0.91l1.83-3.179c1.27 0.5 2.61 0.87 4 1.070v3.67c0 1.38 1.12 2.5 2.5 2.5s2.5-1.12 2.5-2.5v-3.67c1.391-0.2 2.73-0.57 4-1.070l1.83 3.18c0.699 1.19 2.22 1.601 3.42 0.91 1.2-0.689 1.609-2.22 0.92-3.41l-1.84-3.189c1.080-0.859 2.061-1.84 2.92-2.92l3.189 1.84c1.19 0.689 2.721 0.28 3.41-0.92 0.69-1.2 0.28-2.72-0.91-3.42l-3.18-1.84c0.5-1.26 0.87-2.6 1.070-3.99h3.67c1.38 0 2.5-1.12 2.5-2.5s-1.119-2.501-2.499-2.501h-3.67c-0.2-1.39-0.57-2.73-1.070-3.99l3.18-1.84c1.19-0.7 1.601-2.22 0.91-3.42-0.689-1.2-2.22-1.61-3.41-0.92l-3.189 1.84c-0.859-1.080-1.84-2.060-2.92-2.92l1.84-3.19c0.689-1.19 0.28-2.72-0.92-3.41s-2.721-0.28-3.42 0.91l-1.831 3.18c-1.27-0.5-2.609-0.87-4-1.070v-3.67c0-1.38-1.12-2.5-2.5-2.5zM17 30c0-2.76 2.24-5 5-5s5 2.24 5 5-2.24 5-5 5-5-2.24-5-5zM27 20.5c0-1.93 1.57-3.5 3.5-3.5s3.5 1.57 3.5 3.5c0 1.93-1.57 3.5-3.5 3.5s-3.5-1.57-3.5-3.5zM19 15.5c0-1.38 1.12-2.5 2.5-2.5s2.5 1.12 2.5 2.5-1.12 2.5-2.5 2.5-2.5-1.12-2.5-2.5z"></path>
</svg>
