<?xml version="1.0" encoding="utf-8"?>
<!-- Generated by IcoMoon.io -->
<!DOCTYPE svg PUBLIC "-//W3C//DTD SVG 1.1//EN" "http://www.w3.org/Graphics/SVG/1.1/DTD/svg11.dtd">
<svg version="1.1" xmlns="http://www.w3.org/2000/svg" xmlns:xlink="http://www.w3.org/1999/xlink" width="28" height="32" viewBox="0 0 28 32">
<path fill="#444444" d="M22 0h-6c0 1-1.031 2-3.031 2s-2.969-1-2.969-2h-6c0 4-0.063 12-4 12 0 0-0.031 17-0.031 18s1 2 2 2 21 0 22 0 2-1 2-2 0-18 0-18c-3.938 0-4-8-4-12zM2.969 30c-0.5 0-0.969-0.313-0.969-1 0-1 0-15 0-15 3.719-2 4-6 4-12h2c0 3 1 5.969 5 6s5-3 5-6h2c0 5.813 1 8.625 2 10.594v17.406s-18.531 0-19.031 0zM15 12l-1 1v10l1 1h4l1-1v-10l-1-1h-4zM18 22h-2v-8h2v8zM7 12l-1 1v10l1 1h4l1-1v-10l-1-1h-4zM10 22h-2v-8h2v8z"></path>
</svg>
