<?xml version="1.0" encoding="utf-8"?>
<!-- Generated by IcoMoon.io -->
<!DOCTYPE svg PUBLIC "-//W3C//DTD SVG 1.1//EN" "http://www.w3.org/Graphics/SVG/1.1/DTD/svg11.dtd">
<svg version="1.1" xmlns="http://www.w3.org/2000/svg" xmlns:xlink="http://www.w3.org/1999/xlink" width="32" height="32" viewBox="0 0 32 32">
<path fill="#444444" d="M28.857 18c-0.8 5.65-5.227 10.125-10.857 10.997v1.003h-4v-1.003c-5.63-0.871-10.057-5.347-10.858-10.997h-1.142v-4h1.188c0.924-5.493 5.293-9.81 10.812-10.664v-1.336h4v1.336c5.52 0.854 9.887 5.171 10.812 10.664h1.188v4h-1.143zM15 29h2v-2h-2v2zM3 15v2h2v-2h-2zM17 3h-2v2h2v-2zM18 4.852v1.148h-4v-1.148c-4.69 0.824-8.401 4.483-9.292 9.148h1.292v4h-1.346c0.775 4.822 4.545 8.638 9.346 9.481v-1.481h4v1.481c4.801-0.844 8.571-4.659 9.346-9.481h-1.346v-4h1.292c-0.892-4.665-4.602-8.324-9.292-9.148zM29 15h-2v2h2v-2z"></path>
</svg>
