<?xml version="1.0" encoding="utf-8"?>
<!-- Generated by IcoMoon.io -->
<!DOCTYPE svg PUBLIC "-//W3C//DTD SVG 1.1//EN" "http://www.w3.org/Graphics/SVG/1.1/DTD/svg11.dtd">
<svg version="1.1" xmlns="http://www.w3.org/2000/svg" xmlns:xlink="http://www.w3.org/1999/xlink" width="32" height="32" viewBox="0 0 32 32">
<path fill="#444444" d="M16.401 25.911v2.995c2.995 0.162 5.312 1.154 5.312 2.078 0 0.023-12.282 0.023-12.282 0 0-0.891 2.144-1.851 4.979-2.064v-3.021c-3.619-0.519-6.41-3.6-6.41-7.363v-1.493h0.996v1.493c0 3.574 2.897 6.472 6.471 6.473h0.004c3.574-0.001 6.533-2.898 6.533-6.473v-1.493h0.996v1.493c0 3.806-2.919 6.911-6.599 7.375zM15.468 23.951c-3.024 0-5.478-2.453-5.478-5.478v-1.431h11.018v1.431c0 3.025-2.516 5.478-5.54 5.478zM9.99 7.475c0-3.025 2.453-5.477 5.478-5.477s5.54 2.452 5.54 5.477v8.572h-11.018v-8.572z"></path>
</svg>
