<?xml version="1.0" encoding="utf-8"?>
<!-- Generated by IcoMoon.io -->
<!DOCTYPE svg PUBLIC "-//W3C//DTD SVG 1.1//EN" "http://www.w3.org/Graphics/SVG/1.1/DTD/svg11.dtd">
<svg version="1.1" xmlns="http://www.w3.org/2000/svg" xmlns:xlink="http://www.w3.org/1999/xlink" width="18" height="18" viewBox="0 0 18 18">
<path fill="#444444" d="M16 11h-1v-4c0-3.314-2.687-6-6-6s-6 2.686-6 6v4h-1c-0.552 0-1 0.448-1 1s0.448 1 1 1h14c0.552 0 1-0.448 1-1s-0.448-1-1-1zM13 11h-8v-4c0-2.206 1.794-4 4-4s4 1.794 4 4v4z"></path>
<path fill="#444444" d="M7 15c0 1.105 0.896 2 2 2s2-0.895 2-2v-1h-4v1z"></path>
</svg>
