<?xml version="1.0" encoding="utf-8"?>
<!-- Generated by IcoMoon.io -->
<!DOCTYPE svg PUBLIC "-//W3C//DTD SVG 1.1//EN" "http://www.w3.org/Graphics/SVG/1.1/DTD/svg11.dtd">
<svg version="1.1" xmlns="http://www.w3.org/2000/svg" xmlns:xlink="http://www.w3.org/1999/xlink" width="48" height="48" viewBox="0 0 48 48">
<path fill="#444444" d="M0 32.5c0 1.38 1.12 2.5 2.5 2.5s2.5-1.12 2.5-2.5v-2.3c0-1.22 0.98-2.2 2.2-2.2h0.88c-0.050 0.46-0.080 0.939-0.080 1.43 0 1.95 0.37 3.811 1.040 5.521l-3.040 3.27c-0.57 0.609-1 1.959-1 2.779v4.5c0 1.38 1.12 2.5 2.5 2.5s2.5-1.12 2.5-2.5v-3.061c0-0.449 0.13-0.859 0.36-1.209l1.53-1.631c1.92 2.17 4.11 4.381 7.35 5.26 0.070 0.031 0.15 0.051 0.23 0.070 0.17 0.051 0.35 0.071 0.53 0.071 1.1 0 2-0.9 2-2l0-17c0-1.1 0.9-2 2-2s2 0.9 2 2v17c0 1.1 0.9 2 2 2 0.21 0 0.42-0.029 0.62-0.1l0.25-0.070c3.101-0.859 5.34-3.080 7.239-5.23l1.531 1.631c0.23 0.349 0.36 0.759 0.36 1.208v3.061c0 1.38 1.12 2.5 2.5 2.5s2.5-1.12 2.5-2.5v-4.5c0-0.82-0.43-2.17-1-2.779l-3.040-3.271c0.67-1.71 1.040-3.57 1.040-5.52 0-0.49-0.029-0.97-0.080-1.43h0.88c1.22 0 2.2 0.98 2.2 2.2v2.3c0 1.38 1.12 2.5 2.5 2.5s2.5-1.12 2.5-2.5l-0-4.5c0-2.76-2.24-5-5-5h-4.71c-0.45-0.84-0.96-1.65-1.479-2.46l4.189-4.54c0.57-0.61 1-2.040 1-3v-4.5c0-1.38-1.12-2.5-2.5-2.5s-2.5 1.12-2.5 2.5v3.3c0 0.45-0.13 0.86-0.359 1.21l-2.69 2.88c-1.121-2.18-1.951-4.67-1.951-7.89 0-3.73-2.55-6.86-6-7.75v4.75c0 1.1-0.9 2-2 2s-2-0.9-2-2v-4.75c-3.45 0.89-6 4.020-6 7.75 0 3.21-0.84 5.69-1.96 7.87l-2.68-2.86c-0.23-0.35-0.36-0.76-0.36-1.21v-3.3c0-1.38-1.12-2.5-2.5-2.5s-2.5 1.12-2.5 2.5v4.5c0 0.96 0.43 2.39 1 3l4.17 4.52c-0.53 0.81-1.030 1.63-1.48 2.48h-4.69c-2.76 0-5 2.24-5 5v4.5z"></path>
</svg>
