<?xml version="1.0" encoding="utf-8"?>
<!-- Generated by IcoMoon.io -->
<!DOCTYPE svg PUBLIC "-//W3C//DTD SVG 1.1//EN" "http://www.w3.org/Graphics/SVG/1.1/DTD/svg11.dtd">
<svg version="1.1" xmlns="http://www.w3.org/2000/svg" xmlns:xlink="http://www.w3.org/1999/xlink" width="24" height="24" viewBox="0 0 24 24">
<path fill="#444444" d="M21.5 12.473c0-2.495-0.818-4.426-2.653-6.259-0.309-0.309-0.676-0.533-1.073-0.682l-4.653-4.653c-0.566-0.567-1.32-0.879-2.121-0.879s-1.555 0.312-2.121 0.879c-0.567 0.566-0.879 1.32-0.879 2.121 0 0.277 0.037 0.549 0.11 0.809-1.029 0.461-1.974 1.12-2.827 1.974-1.795 1.793-2.783 4.178-2.783 6.717 0 2.495 0.818 4.426 2.653 6.259 0.299 0.298 0.652 0.521 1.034 0.669l4.692 4.693c0.566 0.567 1.32 0.879 2.121 0.879s1.555-0.312 2.121-0.879c0.567-0.566 0.879-1.32 0.879-2.121 0-0.286-0.040-0.566-0.117-0.834 1.031-0.461 1.978-1.121 2.833-1.975 1.796-1.794 2.784-4.18 2.784-6.718zM12.37 19.957l1.337 1.336c0.391 0.391 0.391 1.023 0 1.414-0.195 0.195-0.451 0.293-0.707 0.293s-0.512-0.098-0.707-0.293l-3.707-3.707 3.707-3.707c0.195-0.195 0.451-0.293 0.707-0.293s0.512 0.098 0.707 0.293c0.391 0.391 0.391 1.023 0 1.414l-1.247 1.247c1.351-0.091 2.425-0.59 3.428-1.593 1.039-1.038 1.611-2.419 1.611-3.888 0-1.422-0.401-2.351-1.48-3.429-0.391-0.391-0.391-1.023 0-1.415 0.195-0.195 0.451-0.293 0.708-0.293s0.512 0.098 0.707 0.292c1.448 1.447 2.066 2.896 2.066 4.844 0 2.004-0.78 3.887-2.197 5.303-1.39 1.39-3.010 2.1-4.933 2.182zM11.604 5.018l-1.311-1.311c-0.391-0.391-0.391-1.023 0-1.414 0.195-0.195 0.451-0.293 0.707-0.293s0.512 0.098 0.707 0.293l3.707 3.707-3.707 3.707c-0.195 0.195-0.451 0.293-0.707 0.293s-0.512-0.098-0.707-0.293c-0.391-0.391-0.391-1.023 0-1.414l1.275-1.275c-1.365 0.086-2.448 0.584-3.456 1.593-1.040 1.039-1.612 2.42-1.612 3.889 0 1.422 0.401 2.351 1.48 3.429 0.391 0.391 0.391 1.023 0 1.415-0.195 0.195-0.452 0.293-0.708 0.293s-0.512-0.098-0.707-0.292c-1.447-1.448-2.065-2.897-2.065-4.845 0-2.004 0.78-3.887 2.197-5.303 1.382-1.383 2.993-2.093 4.907-2.179zM8.688 15.222c-0.888-0.887-1.188-1.574-1.188-2.722 0-1.202 0.468-2.332 1.318-3.181 0.063-0.062 0.124-0.122 0.187-0.179 0.033 0.481 0.236 0.93 0.581 1.274 0.378 0.378 0.88 0.586 1.414 0.586s1.036-0.208 1.414-0.586l2.339-2.339c-0.078 0.596 0.104 1.219 0.56 1.675 0.888 0.887 1.188 1.574 1.188 2.722 0 1.202-0.468 2.332-1.318 3.181-0.062 0.062-0.125 0.123-0.188 0.181-0.039-0.472-0.241-0.91-0.579-1.248-0.38-0.378-0.882-0.586-1.416-0.586s-1.036 0.208-1.414 0.586l-2.342 2.342c0.089-0.605-0.093-1.242-0.556-1.706z"></path>
</svg>
