<?xml version="1.0" encoding="utf-8"?>
<!-- Generated by IcoMoon.io -->
<!DOCTYPE svg PUBLIC "-//W3C//DTD SVG 1.1//EN" "http://www.w3.org/Graphics/SVG/1.1/DTD/svg11.dtd">
<svg version="1.1" xmlns="http://www.w3.org/2000/svg" xmlns:xlink="http://www.w3.org/1999/xlink" width="48" height="48" viewBox="0 0 48 48">
<path fill="#444444" d="M43 30v-24c0-2.21-1.79-4-4-4h-30c-2.21 0-4 1.79-4 4v24l-5 10v2c0 2.21 1.79 4 4 4h40c2.21 0 4-1.79 4-4v-2l-5-10zM12.2 7h23.6c1.22 0 2.2 0.98 2.2 2.2v15.6c0 1.22-0.98 2.2-2.2 2.2h-23.6c-1.22 0-2.2-0.98-2.2-2.2l0-15.6c0-1.22 0.98-2.2 2.2-2.2zM18 36h12l1 4h-14l1-4z"></path>
</svg>
