<?xml version="1.0" encoding="utf-8"?>
<!-- Generated by IcoMoon.io -->
<!DOCTYPE svg PUBLIC "-//W3C//DTD SVG 1.1//EN" "http://www.w3.org/Graphics/SVG/1.1/DTD/svg11.dtd">
<svg version="1.1" xmlns="http://www.w3.org/2000/svg" xmlns:xlink="http://www.w3.org/1999/xlink" width="32" height="32" viewBox="0 0 32 32">
<path fill="#444444" d="M16.062 16.037c-0.476 0-0.877 0.186-1.205 0.558-0.329 0.372-0.493 0.921-0.493 1.647 0 0.803 0.185 1.422 0.555 1.858 0.369 0.437 0.791 0.655 1.267 0.655 0.457 0 0.839-0.18 1.144-0.537s0.457-0.942 0.457-1.757c0-0.838-0.164-1.451-0.492-1.841s-0.74-0.583-1.233-0.583zM16 3c-7.18 0-13 5.82-13 13s5.82 13 13 13 13-5.82 13-13-5.82-13-13-13zM19.047 21.607c-0.773 0.797-1.768 1.194-2.98 1.194-1.302 0-2.372-0.505-3.21-1.516s-1.258-2.667-1.258-4.97c0-2.361 0.438-4.063 1.312-5.106s2.008-1.564 3.404-1.564c0.979 0 1.79 0.275 2.432 0.825 0.643 0.551 1.052 1.349 1.228 2.396l-2.391 0.263c-0.059-0.49-0.212-0.853-0.458-1.086-0.247-0.234-0.567-0.351-0.961-0.351-0.523 0-0.966 0.233-1.327 0.701s-0.589 1.44-0.683 2.92c0.615-0.726 1.381-1.089 2.297-1.089 1.032 0 1.916 0.392 2.652 1.176s1.104 1.797 1.104 3.038c0 1.318-0.387 2.374-1.161 3.169z"></path>
</svg>
