<?xml version="1.0" encoding="utf-8"?>
<!-- Generated by IcoMoon.io -->
<!DOCTYPE svg PUBLIC "-//W3C//DTD SVG 1.1//EN" "http://www.w3.org/Graphics/SVG/1.1/DTD/svg11.dtd">
<svg version="1.1" xmlns="http://www.w3.org/2000/svg" xmlns:xlink="http://www.w3.org/1999/xlink" width="32" height="32" viewBox="0 0 32 32">
<path fill="#444444" d="M28.154 3.72c-4.957-4.956-13.604-4.96-18.558 0l-5.597 5.601v-5.32h-4v11.999h11.999v-4l-5.023 0.003 5.453-5.453c3.445-3.449 9.452-3.449 12.897 0.004 1.723 1.723 2.672 4.012 2.672 6.449 0 2.44-0.949 4.73-2.672 6.458l-3.016 3.015 2.828 2.827 3.016-3.008c2.477-2.485 3.844-5.783 3.844-9.291 0-3.507-1.367-6.804-3.844-9.283zM18.448 32l-2.828-2.832 2.83-2.827 2.828 2.832z"></path>
</svg>
