<?xml version="1.0" encoding="utf-8"?>
<!-- Generated by IcoMoon.io -->
<!DOCTYPE svg PUBLIC "-//W3C//DTD SVG 1.1//EN" "http://www.w3.org/Graphics/SVG/1.1/DTD/svg11.dtd">
<svg version="1.1" xmlns="http://www.w3.org/2000/svg" xmlns:xlink="http://www.w3.org/1999/xlink" width="48" height="48" viewBox="0 0 48 48">
<path fill="#444444" d="M41.689 34.59c-1.17-1.529-2.479-2.76-4.050-3.729-2.429 5.389-7.849 9.139-14.139 9.139s-11.71-3.75-14.141-9.14c-1.56 0.97-2.879 2.2-4.049 3.729-0.83 1.081-1.281 3.251-1.31 4.411 0.010 0.3 0 5 0 5 0 2.21 1.79 4 4 4h31c2.21 0 4-1.79 4-4 0 0-0.010-4.7 0-5-0.030-1.16-0.48-3.33-1.311-4.41zM18.069 28.25c-0.839 0.090-1.64 0.2-2.399 0.33-0.87 0.22-1.53 1.010-1.53 1.95 0 0.39 0.11 0.739 0.3 1.050 2.1 2.69 5.379 4.42 9.060 4.42 3.59 0 6.79-1.64 8.9-4.21 0.279-0.34 0.439-0.78 0.439-1.26 0-0.98-0.71-1.8-1.65-1.97-0.779-0.141-1.6-0.261-2.479-0.351-1.13-0.209-1.98-1.009-1.98-2.209 0-1.1 0.819-1.939 1.92-2.080 0.109-0.020 0.369-0.029 0.369-0.029 5.381-0.381 9.041-1.471 11.45-3.551 0.331-0.35 0.531-0.82 0.531-1.34 0-1.040-0.79-1.89-1.8-1.99-2.97-0.6-5.2-3.060-5.2-6.010v-0.42c0-5.84-4.7-10.58-10.5-10.58s-10.5 4.74-10.5 10.58v0.42c0 2.95-2.23 5.41-5.2 6.010-1.010 0.1-1.8 0.95-1.8 1.99 0 0.52 0.2 0.99 0.529 1.34 2.421 2.080 6.080 3.17 11.471 3.551 0.16 0 0.311 0.010 0.45 0.029 1.119 0.16 1.819 0.96 1.819 2.080 0.001 1.28-0.958 2.1-2.2 2.25z"></path>
</svg>
