<?xml version="1.0" encoding="utf-8"?>
<!-- Generated by IcoMoon.io -->
<!DOCTYPE svg PUBLIC "-//W3C//DTD SVG 1.1//EN" "http://www.w3.org/Graphics/SVG/1.1/DTD/svg11.dtd">
<svg version="1.1" xmlns="http://www.w3.org/2000/svg" xmlns:xlink="http://www.w3.org/1999/xlink" width="48" height="48" viewBox="0 0 48 48">
<path fill="#444444" d="M41.689 34.59c-2.899-3.79-6.64-5.75-12.959-6.38-1.141-0.229-2-1.24-2-2.44 0-0.879 2.819-3.51 2.799-3.529 2.91-3.011 4.471-7.901 4.471-11.661 0-5.84-4.7-10.58-10.5-10.58s-10.5 4.74-10.5 10.58c0 3.78 1.52 8.7 4.46 11.71 0 0 2.81 2.601 2.81 3.479 0 1.271-0.96 2.33-2.2 2.48-6.19 0.65-9.89 2.6-12.76 6.34-0.83 1.081-1.28 3.251-1.31 4.411 0.010 0.3 0 5 0 5 0 2.21 1.79 4 4 4h31c2.21 0 4-1.79 4-4 0 0-0.010-4.7 0-5-0.029-1.16-0.48-3.33-1.311-4.41z"></path>
</svg>
