<?xml version="1.0" encoding="utf-8"?>
<!-- Generated by IcoMoon.io -->
<!DOCTYPE svg PUBLIC "-//W3C//DTD SVG 1.1//EN" "http://www.w3.org/Graphics/SVG/1.1/DTD/svg11.dtd">
<svg version="1.1" xmlns="http://www.w3.org/2000/svg" xmlns:xlink="http://www.w3.org/1999/xlink" width="32" height="32" viewBox="0 0 32 32">
<path fill="#444444" d="M28 10v4h-4v-4l-6 6 6 6v-4h6c0 0 2-0.012 2-2s0-6 0-6h-4zM7 9c-3.866 0-7 3.134-7 7s3.134 7 7 7 7-3.133 7-7c0-3.866-3.134-7-7-7zM3 16c0-2.208 1.792-4 4-4 0.586 0 1.138 0.132 1.64 0.36l-5.279 5.28c-0.228-0.504-0.36-1.055-0.36-1.641zM7 20c-0.586 0-1.138-0.133-1.64-0.359l5.279-5.28c0.229 0.502 0.36 1.054 0.36 1.64 0 2.207-1.792 4-4 4z"></path>
</svg>
