<?xml version="1.0" encoding="utf-8"?>
<!-- Generated by IcoMoon.io -->
<!DOCTYPE svg PUBLIC "-//W3C//DTD SVG 1.1//EN" "http://www.w3.org/Graphics/SVG/1.1/DTD/svg11.dtd">
<svg version="1.1" xmlns="http://www.w3.org/2000/svg" xmlns:xlink="http://www.w3.org/1999/xlink" width="18" height="18" viewBox="0 0 18 18">
<path fill="#444444" d="M9 1c-4.418 0-8 3.582-8 8s3.582 8 8 8 8-3.582 8-8-3.582-8-8-8zM3 9c0-1.294 0.416-2.491 1.116-3.472l8.356 8.356c-0.981 0.7-2.178 1.116-3.472 1.116-3.309 0-6-2.691-6-6zM13.884 12.472l-8.356-8.356c0.981-0.7 2.178-1.116 3.472-1.116 3.309 0 6 2.691 6 6 0 1.294-0.416 2.491-1.116 3.472z"></path>
</svg>
