<?xml version="1.0" encoding="utf-8"?>
<!-- Generated by IcoMoon.io -->
<!DOCTYPE svg PUBLIC "-//W3C//DTD SVG 1.1//EN" "http://www.w3.org/Graphics/SVG/1.1/DTD/svg11.dtd">
<svg version="1.1" xmlns="http://www.w3.org/2000/svg" xmlns:xlink="http://www.w3.org/1999/xlink" width="48" height="48" viewBox="0 0 48 48">
<path fill="#444444" d="M16 37v3.010c0 1.4 0.58 2.671 1.51 3.58l2.94 2.94c1.96 1.96 5.14 1.96 7.1 0l2.94-2.94c0.93-0.909 1.51-2.18 1.51-3.58l-0-2.010h-8.9c-1.16 0-2.1-0.9-2.1-2s0.939-2 2.1-2h9.16c1.37-7.71 7.74-10.91 7.74-18.43 0-8.599-7.16-15.57-16-15.57s-16 6.971-16 15.57c0 8.491 8 11.491 8 21.43zM26.65 9c-0.94-0.17-1.65-0.99-1.65-1.97 0-1.099 0.9-2.030 2-2.030 1.59 0 3.52 1.13 5.14 2.73 1.65 1.64 2.86 3.831 2.86 5.27 0 1.1-0.9 2-2 2-0.98 0-1.8-0.71-1.971-1.65-0.5-2.010-2.218-3.85-4.379-4.35z"></path>
</svg>
