<?xml version="1.0" encoding="utf-8"?>
<!-- Generated by IcoMoon.io -->
<!DOCTYPE svg PUBLIC "-//W3C//DTD SVG 1.1//EN" "http://www.w3.org/Graphics/SVG/1.1/DTD/svg11.dtd">
<svg version="1.1" xmlns="http://www.w3.org/2000/svg" xmlns:xlink="http://www.w3.org/1999/xlink" width="24" height="32" viewBox="0 0 24 32">
<path fill="#444444" d="M10 18v-2h-2v2h2zM10 14v-2h-2v2h2zM10 10v-2h-2v2h2zM6 12h2v-2h-2v2zM18 2h-18v28h24v-22l-6-6zM22 28h-20v-24h6v2h2v-2h6l6 6v18zM6 8h2v-2h-2v2zM6 16h2v-2h-2v2zM6 20l-2 2v4h8v-4l-2-2h-2v-2h-2v2zM10 22v2h-4v-2h4z"></path>
</svg>
