<?xml version="1.0" encoding="utf-8"?>
<!-- Generated by IcoMoon.io -->
<!DOCTYPE svg PUBLIC "-//W3C//DTD SVG 1.1//EN" "http://www.w3.org/Graphics/SVG/1.1/DTD/svg11.dtd">
<svg version="1.1" xmlns="http://www.w3.org/2000/svg" xmlns:xlink="http://www.w3.org/1999/xlink" width="32" height="32" viewBox="0 0 32 32">
<path fill="#444444" d="M30 29h-29c-0.553 0-1-0.448-1-1v-17h31v17c0 0.552-0.448 1-1 1zM27 14c0-0.553-0.448-1-1-1h-21c-0.553 0-1 0.447-1 1v12c0 0.552 0.447 1 1 1h21c0.552 0 1-0.448 1-1v-12zM9 15h13v1h-13v-1zM0 6c0-0.553 0.447-1 1-1h2c0 0 0.224-1 0.499-1h8.001c0.275 0 0.5 1 0.5 1h7c0 0 0.224-1 0.5-1h8c0.275 0 0.5 1 0.5 1h2c0.552 0 1 0.447 1 1v4h-31v-4zM28.479 9.021c0.829 0 1.5-0.671 1.5-1.5 0-0.828-0.671-1.5-1.5-1.5-0.828 0-1.5 0.672-1.5 1.5 0 0.829 0.671 1.5 1.5 1.5zM24.541 9.021c0.828 0 1.5-0.671 1.5-1.5 0-0.828-0.672-1.5-1.5-1.5s-1.5 0.672-1.5 1.5c0 0.829 0.672 1.5 1.5 1.5zM20.541 9.021c0.829 0 1.5-0.671 1.5-1.5 0-0.828-0.671-1.5-1.5-1.5-0.828 0-1.5 0.672-1.5 1.5 0 0.829 0.672 1.5 1.5 1.5zM16.541 9.021c0.828 0 1.5-0.671 1.5-1.5 0-0.828-0.672-1.5-1.5-1.5s-1.5 0.672-1.5 1.5c0 0.829 0.672 1.5 1.5 1.5z"></path>
</svg>
