<?xml version="1.0" encoding="utf-8"?>
<!-- Generated by IcoMoon.io -->
<!DOCTYPE svg PUBLIC "-//W3C//DTD SVG 1.1//EN" "http://www.w3.org/Graphics/SVG/1.1/DTD/svg11.dtd">
<svg version="1.1" xmlns="http://www.w3.org/2000/svg" xmlns:xlink="http://www.w3.org/1999/xlink" width="32" height="32" viewBox="0 0 32 32">
<path fill="#444444" d="M4 13v15c0 0.553 0.447 1 1 1h21c0.552 0 1-0.447 1-1v-15c0 0-5.643-2.062-11.51-2.062-5.628 0-11.49 2.062-11.49 2.062zM21.5 20.125c0 3.176-2.574 5.75-5.75 5.75s-5.75-2.574-5.75-5.75 2.574-5.75 5.75-5.75 5.75 2.574 5.75 5.75zM26 4h-21c-0.553 0-1 0.447-1 1v7c0 0 5.812-2 11.49-2 5.822 0 11.51 2 11.51 2v-7c0-0.553-0.448-1-1-1zM11 8h-5v-2h5v2zM18.499 8c-0.552 0-0.999-0.448-0.999-1s0.447-1 0.999-1c0.553 0 1.001 0.448 1.001 1s-0.448 1-1.001 1zM21.5 8c-0.553 0-1-0.448-1-1s0.447-1 1-1c0.552 0 1 0.448 1 1s-0.448 1-1 1zM24.438 8c-0.553 0-1-0.448-1-1s0.447-1 1-1c0.552 0 1 0.448 1 1s-0.449 1-1 1zM11.062 20.125c0 2.589 2.099 4.688 4.688 4.688s4.688-2.099 4.688-4.688c0-0.006-1.604 1.646-4.688-0.188-3.084-1.833-4.688 0.182-4.688 0.188z"></path>
</svg>
