<?xml version="1.0" encoding="utf-8"?>
<!-- Generated by IcoMoon.io -->
<!DOCTYPE svg PUBLIC "-//W3C//DTD SVG 1.1//EN" "http://www.w3.org/Graphics/SVG/1.1/DTD/svg11.dtd">
<svg version="1.1" xmlns="http://www.w3.org/2000/svg" xmlns:xlink="http://www.w3.org/1999/xlink" width="24" height="24" viewBox="0 0 24 24">
<path fill="#444444" d="M22.711 9.796c-0.041-0.041-4.055-4.096-5.982-6.146-0.42-0.414-0.999-0.65-1.586-0.65-1.182 0-2.143 0.896-2.143 2h-8c-0.553 0-1 0.448-1 1v14c0 0.552 0.447 1 1 1h14c0.553 0 1-0.448 1-1v-6.045c1.434-1.461 2.688-2.729 2.711-2.751 0.387-0.39 0.387-1.018 0-1.408zM15.279 15.941c-0.022 0.027-0.065 0.059-0.136 0.059-0.074 0-0.121-0.023-0.144-0.040v-3.96h-1c-1.771 0.034-3.336 0.68-4.753 1.958 0.43-2.215 1.6-4.958 4.753-4.958h1v-3.958c0.028-0.021 0.071-0.042 0.144-0.042 0.090 0 0.152 0.050 0.154 0.050 1.436 1.525 4.051 4.187 5.297 5.45-0.253 0.257-4.342 4.422-5.315 5.441zM6 19v-12h8c0 0.348 0 0.695 0 1-4.66 0-6 4.871-6 8.5v0.5c1.691-2.578 3.6-3.953 6-4 0 1.045 0 2.838 0 3 0 0.551 0.512 1 1.143 1 0.364 0 0.676-0.158 0.883-0.391 0.539-0.565 1.242-1.291 1.976-2.043v4.434h-12.002z"></path>
</svg>
