<?xml version="1.0" encoding="utf-8"?>
<!-- Generated by IcoMoon.io -->
<!DOCTYPE svg PUBLIC "-//W3C//DTD SVG 1.1//EN" "http://www.w3.org/Graphics/SVG/1.1/DTD/svg11.dtd">
<svg version="1.1" xmlns="http://www.w3.org/2000/svg" xmlns:xlink="http://www.w3.org/1999/xlink" width="32" height="32" viewBox="0 0 32 32">
<path fill="#444444" d="M20 6c4.414 0 8 3.586 8 8s-3.586 8-8 8h-8c-2.609 0-4.934 1.258-6.395 3.203-0.972-0.734-1.605-1.898-1.605-3.203v-10c0-3.309 2.695-6 6-6h10zM20 2h-10c-5.523 0-10 4.477-10 10v10c0 4.418 3.586 8 8 8 0-2.211 1.793-4 4-4h8c6.629 0 12-5.375 12-12s-5.371-12-12-12v0z"></path>
</svg>
