<?xml version="1.0" encoding="utf-8"?>
<!-- Generated by IcoMoon.io -->
<!DOCTYPE svg PUBLIC "-//W3C//DTD SVG 1.1//EN" "http://www.w3.org/Graphics/SVG/1.1/DTD/svg11.dtd">
<svg version="1.1" xmlns="http://www.w3.org/2000/svg" xmlns:xlink="http://www.w3.org/1999/xlink" width="20" height="32" viewBox="0 0 20 32">
<path fill="#444444" d="M4.25 2c-2.347 0-4.25 3.134-4.25 7 0 2.151 0.532 4.433 1.063 7.954 0.416 2.759 1.427 5.046 3.188 5.046s2.94-1.525 2.94-4.312c0-0.949-0.78-2.461-0.815-3.751-0.063-2.327 1.56-3.255 1.56-5.406 0-3.866-1.338-6.531-3.685-6.531zM15.718 10c-2.347 0-3.685 2.665-3.685 6.531 0 2.151 1.623 3.079 1.56 5.406-0.035 1.29-0.815 2.802-0.815 3.751 0 2.787 1.18 4.312 2.94 4.312s2.772-2.287 3.188-5.046c0.531-3.522 1.063-5.803 1.063-7.954 0-3.866-1.903-7-4.25-7z"></path>
</svg>
