<?xml version="1.0" encoding="utf-8"?>
<!-- Generated by IcoMoon.io -->
<!DOCTYPE svg PUBLIC "-//W3C//DTD SVG 1.1//EN" "http://www.w3.org/Graphics/SVG/1.1/DTD/svg11.dtd">
<svg version="1.1" xmlns="http://www.w3.org/2000/svg" xmlns:xlink="http://www.w3.org/1999/xlink" width="32" height="32" viewBox="0 0 32 32">
<path fill="#444444" d="M17.073 14.997v4.006c0.553 0 1.001 0.448 1.001 1.002v1.001c0 0 3.067 1.252 3.067 3.943s-2.212 5.070-2.212 5.070h-5.737c0 0-2.128-2.379-2.19-5.070 0-2.754 3.066-3.943 3.066-3.943v-1.001c0-0.554 0.448-1.002 1.001-1.002v-4.006h-6.258v6.686c0.429 0.113 0.752 0.486 0.752 0.951 0 0.553-0.449 1.001-1.002 1.001s-1.001-0.448-1.001-1.001c0-0.465 0.322-0.838 0.751-0.951v-6.686h-3.255l7.635-12.017h6.846l7.407 12.017h-9.871z"></path>
</svg>
