<?xml version="1.0" encoding="UTF-8"?>
<!DOCTYPE svg PUBLIC "-//W3C//DTD SVG 1.1//EN" "http://www.w3.org/Graphics/SVG/1.1/DTD/svg11.dtd">
<!-- Creator: CorelDRAW X8 -->
<svg xmlns="http://www.w3.org/2000/svg" xml:space="preserve" width="1.37569in" height="1.37569in" version="1.1" style="shape-rendering:geometricPrecision; text-rendering:geometricPrecision; image-rendering:optimizeQuality; fill-rule:evenodd; clip-rule:evenodd"
viewBox="0 0 369 369"
 xmlns:xlink="http://www.w3.org/1999/xlink">
 <defs>
  <style type="text/css">
   <![CDATA[
    .fil0 {fill:black}
   ]]>
  </style>
 </defs>
 <g id="Layer_x0020_1">
  <metadata id="CorelCorpID_0Corel-Layer"/>
  <g id="_133325636704">
   <path class="fil0" d="M53 98c5,0 11,0 16,0l32 -2c12,-2 12,9 7,12 -2,1 -18,2 -21,2l51 150c2,7 5,15 7,22 1,-1 1,-1 1,-2l32 -95c2,-7 3,-6 1,-10l-15 -43c-2,-4 -8,-18 -8,-22 -3,0 -18,-1 -20,-2 -5,-2 -4,-11 3,-12l21 1c8,0 28,2 35,1 5,-1 9,0 13,-1 10,-1 22,-4 22,5 0,6 -4,7 -9,7l-15 1c2,7 5,15 7,22l47 138c1,2 1,4 2,6 1,2 1,3 2,5 1,-4 2,-8 3,-11 2,-5 2,-8 4,-12 4,-14 18,-59 20,-71 3,-17 -1,-34 -9,-48l-11 -19c-8,-15 -13,-31 0,-44 5,-5 11,-8 20,-8 -1,-2 -2,-3 -4,-4 -2,-2 -3,-3 -5,-5 -10,-8 -24,-15 -35,-20 -2,-1 -3,-2 -6,-3 -34,-11 -65,-14 -100,-4 -23,7 -48,20 -65,37 -8,8 -12,12 -18,21 -3,3 -5,5 -5,8z"/>
   <path class="fil0" d="M9 185c0,-47 18,-92 51,-124 13,-13 27,-24 44,-32 1,-1 2,-2 3,-2 48,-25 111,-23 158,1l14 8c39,27 67,62 77,109 25,112 -60,216 -171,216 -97,0 -176,-79 -176,-176zm168 -185l13 0c16,1 32,3 49,8 3,1 5,1 8,3 18,6 35,16 51,28 13,10 29,26 38,40l5 7c4,6 9,14 12,21 2,6 4,10 6,16 6,19 10,36 10,54l0 13c0,16 -3,32 -8,49 -4,17 -12,31 -21,46 -4,6 -9,13 -14,19 -2,2 -3,3 -5,6 -2,2 -3,3 -6,5 -2,3 -3,4 -6,6 -8,8 -21,18 -32,24 -9,5 -20,11 -30,14 -6,2 -12,4 -18,5 -22,5 -26,5 -49,5 -44,0 -88,-19 -120,-48 -2,-2 -4,-3 -6,-6 -10,-9 -22,-26 -29,-38 -8,-14 -16,-32 -20,-48 -4,-22 -5,-26 -5,-49 0,-16 3,-28 5,-40 5,-20 14,-38 24,-55 2,-3 3,-4 5,-7 2,-3 3,-4 5,-6 1,-3 3,-4 4,-6l11 -12c18,-18 45,-35 69,-44 19,-6 36,-9 54,-10z"/>
   <path class="fil0" d="M140 337c33,8 50,9 85,1 4,-1 8,-3 12,-3 0,-2 -2,-6 -3,-9 -1,-2 -2,-5 -3,-8 -10,-28 -21,-58 -31,-86 -1,-3 -10,-32 -13,-34 0,4 -20,60 -23,69l-18 52c-2,5 -6,14 -6,18z"/>
   <path class="fil0" d="M26 183c0,37 12,67 27,90 6,9 6,8 12,16 3,3 12,12 15,15 11,9 13,11 26,18 3,2 6,3 9,6 0,-3 -16,-46 -18,-52 -2,-5 -3,-8 -5,-13l-14 -39c-3,-8 -6,-17 -9,-26l-29 -78c-3,3 -9,24 -10,29 -2,9 -4,22 -4,34z"/>
   <path class="fil0" d="M265 321c10,-2 36,-29 42,-35 15,-18 26,-41 32,-64 4,-16 6,-37 4,-53 -3,-19 -6,-30 -12,-46l-7 -13c0,14 2,14 -1,32 -3,25 -15,53 -23,77 -10,29 -22,60 -31,89 -1,3 -4,10 -4,13z"/>
   <polygon class="fil0" points="324,110 324,109 323,110 "/>
   <polygon class="fil0" points="265,321 264,321 265,322 "/>
  </g>
 </g>
</svg>
