<?xml version="1.0" encoding="utf-8"?>
<!-- Generated by IcoMoon.io -->
<!DOCTYPE svg PUBLIC "-//W3C//DTD SVG 1.1//EN" "http://www.w3.org/Graphics/SVG/1.1/DTD/svg11.dtd">
<svg version="1.1" xmlns="http://www.w3.org/2000/svg" xmlns:xlink="http://www.w3.org/1999/xlink" width="24" height="24" viewBox="0 0 24 24">
<path fill="#444444" d="M9 4c1.279 0 2.559 0.488 3.535 1.465l3.465 3.535 5 5-7 7-5.498-5.498c-0.037 0.033-3.037-2.967-3.037-2.967-1.953-1.953-1.953-5.119 0-7.070 0.976-0.977 2.256-1.465 3.535-1.465zM9 2c-1.87 0-3.628 0.729-4.949 2.051-1.322 1.32-2.051 3.078-2.051 4.948s0.729 3.628 2.051 4.95l3 3c0.107 0.107 0.227 0.201 0.35 0.279l5.187 5.186c0.391 0.391 0.9 0.586 1.413 0.586s1.022-0.195 1.414-0.586l7-7c0.78-0.781 0.78-2.047 0-2.828l-5-5-3.45-3.521c-1.337-1.336-3.095-2.065-4.965-2.065z"></path>
<path fill="#444444" d="M9 7.498c0.829 0 1.5 0.672 1.5 1.502s-0.671 1.498-1.5 1.498-1.5-0.668-1.5-1.498 0.671-1.502 1.5-1.502zM9 6.498c-1.379 0-2.5 1.122-2.5 2.502 0 1.377 1.121 2.498 2.5 2.498s2.5-1.121 2.5-2.498c0-1.38-1.121-2.502-2.5-2.502z"></path>
</svg>
