<?xml version="1.0" encoding="utf-8"?>
<!-- Generated by IcoMoon.io -->
<!DOCTYPE svg PUBLIC "-//W3C//DTD SVG 1.1//EN" "http://www.w3.org/Graphics/SVG/1.1/DTD/svg11.dtd">
<svg version="1.1" xmlns="http://www.w3.org/2000/svg" xmlns:xlink="http://www.w3.org/1999/xlink" width="18" height="18" viewBox="0 0 18 18">
<path fill="#444444" d="M15 5c-0.552 0-1 0.448-1 1v1.824c0 2.66-2.003 4.987-4.658 5.165-2.911 0.195-5.342-2.118-5.342-4.989v-2c0-0.552-0.448-1-1-1s-1 0.448-1 1v1.802c0 3.545 2.563 6.625 6 7.126v1.072c0 0.552 0.448 1 1 1s1-0.448 1-1v-1.071c3.392-0.485 6-3.402 6-6.929v-2c0-0.552-0.448-1-1-1z"></path>
<path fill="#444444" d="M9 1c-1.657 0-3 1.343-3 3v4c0 1.657 1.343 3 3 3s3-1.343 3-3v-4c0-1.657-1.343-3-3-3zM10 8c0 0.551-0.449 1-1 1s-1-0.449-1-1v-4c0-0.551 0.448-1 1-1s1 0.449 1 1v4z"></path>
</svg>
