<?xml version="1.0" encoding="utf-8"?>
<!-- Generated by IcoMoon.io -->
<!DOCTYPE svg PUBLIC "-//W3C//DTD SVG 1.1//EN" "http://www.w3.org/Graphics/SVG/1.1/DTD/svg11.dtd">
<svg version="1.1" xmlns="http://www.w3.org/2000/svg" xmlns:xlink="http://www.w3.org/1999/xlink" width="48" height="48" viewBox="0 0 48 48">
<path fill="#444444" d="M0 44c0 2.21 1.79 4 4 4h40c2.21 0 4-1.79 4-4l-0-28c0-2.21-1.79-4-4-4h-17.53l7.81-7.81c0.961-0.96 0.961-2.51 0-3.47-0.96-0.96-2.51-0.96-3.469 0l-11.291 11.28h-0.050l-8.28-8.28c-0.96-0.96-2.51-0.96-3.47 0s-0.96 2.51 0 3.47l4.8 4.81h-8.52c-2.21 0-4 1.79-4 4v28zM7.2 17h24.6c1.22 0 2.2 0.98 2.2 2.2v21.6c0 1.22-0.98 2.2-2.2 2.2h-24.6c-1.22 0-2.2-0.98-2.2-2.2v-21.6c0-1.22 0.98-2.2 2.2-2.2zM38 19.5c0-1.38 1.12-2.5 2.5-2.5s2.5 1.12 2.5 2.5-1.12 2.5-2.5 2.5-2.5-1.12-2.5-2.5zM38 27.5c0-1.38 1.12-2.5 2.5-2.5s2.5 1.12 2.5 2.5-1.12 2.5-2.5 2.5-2.5-1.12-2.5-2.5z"></path>
</svg>
