<?xml version="1.0" encoding="utf-8"?>
<!-- Generated by IcoMoon.io -->
<!DOCTYPE svg PUBLIC "-//W3C//DTD SVG 1.1//EN" "http://www.w3.org/Graphics/SVG/1.1/DTD/svg11.dtd">
<svg version="1.1" xmlns="http://www.w3.org/2000/svg" xmlns:xlink="http://www.w3.org/1999/xlink" width="32" height="32" viewBox="0 0 32 32">
<path fill="#444444" d="M21.6 8h-11l-6.6 10v5c0 1.104 0.896 2 2 2h20c1.104 0 2-0.896 2-2v-5l-6.4-10zM22.465 18.023l-2.052 4.002-8.589-0.020-2.201-3.995-4.086-0.023 5.662-8.975h9.801l5.6 8.975-4.135 0.036zM12 21h8v-1h-8v1zM11.833 9.997l-4.416 7.003h17.416l-4.5-7.003h-8.5zM11 19h10v-1h-10v1z"></path>
</svg>
