<?xml version="1.0" encoding="utf-8"?>
<!-- Generated by IcoMoon.io -->
<!DOCTYPE svg PUBLIC "-//W3C//DTD SVG 1.1//EN" "http://www.w3.org/Graphics/SVG/1.1/DTD/svg11.dtd">
<svg version="1.1" xmlns="http://www.w3.org/2000/svg" xmlns:xlink="http://www.w3.org/1999/xlink" width="24" height="24" viewBox="0 0 24 24">
<path fill="#444444" d="M13 17.5c-2.481 0-4.5-2.019-4.5-4.5 0-0.553-0.447-1-1-1s-1 0.447-1 1c0 3.584 2.916 6.5 6.5 6.5s6.5-2.916 6.5-6.5-2.916-6.5-6.5-6.5c-0.553 0-1 0.447-1 1s0.447 1 1 1c2.481 0 4.5 2.019 4.5 4.5s-2.019 4.5-4.5 4.5z"></path>
<path fill="#444444" d="M10.656 4c0.552 0 1 0.448 1 1s-0.448 1-1 1h-3.243l5.801 5.799c0.391 0.391 0.391 1.025 0.001 1.415-0.189 0.188-0.44 0.292-0.708 0.292s-0.519-0.104-0.707-0.291l-5.8-5.802v3.243c0 0.552-0.448 1-1 1s-1-0.448-1-1v-6.656h6.656z"></path>
</svg>
