<?xml version="1.0" encoding="utf-8"?>
<!-- Generated by IcoMoon.io -->
<!DOCTYPE svg PUBLIC "-//W3C//DTD SVG 1.1//EN" "http://www.w3.org/Graphics/SVG/1.1/DTD/svg11.dtd">
<svg version="1.1" xmlns="http://www.w3.org/2000/svg" xmlns:xlink="http://www.w3.org/1999/xlink" width="48" height="48" viewBox="0 0 48 48">
<path fill="#444444" d="M23.311 9.681c-2.96 2.96-2.271 6.81-3.261 10.56l-16.6-16.761c-0.36-0.38-0.88-0.62-1.45-0.62-1.1 0-2 0.89-2 2v0.68c0 6.030 2.601 17.19 10.721 26.13l-9.561 9.551c-1.55 1.549-1.55 4.069 0 5.619 1.55 1.551 4.070 1.551 5.61 0l9.53-9.54 5.7 5.7 4.92-4.47 8.311 8.31c1.539 1.551 4.060 1.551 5.609 0 1.551-1.55 1.551-4.070 0-5.619l-13.151-13.261c3.791-1.040 7.67-0.31 10.631-3.271l8.939-8.939c0.99-0.98 0.99-2.58 0-3.569-0.99-0.991-2.59-0.991-3.57 0l-7.869 7.859c-0.59 0.59-1.551 0.59-2.141 0-0.6-0.59-0.6-1.55 0-2.14l7.86-7.87c0.989-0.98 0.989-2.58 0-3.57-0.99-0.989-2.59-0.989-3.569 0l-7.87 7.86c-0.59 0.6-1.55 0.6-2.14 0-0.59-0.59-0.59-1.551 0-2.14l7.86-7.87c0.99-0.98 0.99-2.58 0-3.57s-2.59-0.99-3.57 0l-8.939 8.941z"></path>
</svg>
