<?xml version="1.0" encoding="utf-8"?>
<!-- Generated by IcoMoon.io -->
<!DOCTYPE svg PUBLIC "-//W3C//DTD SVG 1.1//EN" "http://www.w3.org/Graphics/SVG/1.1/DTD/svg11.dtd">
<svg version="1.1" xmlns="http://www.w3.org/2000/svg" xmlns:xlink="http://www.w3.org/1999/xlink" width="42" height="32" viewBox="0 0 42 32">
<path fill="#444444" d="M33.958 12.988c-0.427-6.612-5.025-12.988-13.458-12.988-7.713 0-13.661 5.733-13.976 13.384-4.22 1.313-6.524 5.829-6.524 9.116 0 5.061 4.206 9.5 9 9.5h24c4.847 0 9-5.224 9-9.5 0-5.167-4.223-9.208-8.042-9.512zM33 31h-24c-4.262 0-8-3.972-8-8.5 0-3.051 2.674-8.5 8-8.5h1.5c0.276 0 0.5-0.224 0.5-0.5s-0.224-0.5-0.5-0.5h-1.5c-0.509 0-0.99 0.057-1.459 0.139 0.392-5.99 4.945-12.139 12.959-12.139 8.588 0 12.5 6.739 12.5 13v1.5c0 0.276 0.224 0.5 0.5 0.5s0.5-0.224 0.5-0.5v-1.5c0-0.003 0-0.006 0-0.009 3.019 0.331 7 3.571 7 8.509 0 3.826-3.691 8.5-8 8.5z"></path>
</svg>
