<?xml version="1.0" encoding="utf-8"?>
<!-- Generated by IcoMoon.io -->
<!DOCTYPE svg PUBLIC "-//W3C//DTD SVG 1.1//EN" "http://www.w3.org/Graphics/SVG/1.1/DTD/svg11.dtd">
<svg version="1.1" xmlns="http://www.w3.org/2000/svg" xmlns:xlink="http://www.w3.org/1999/xlink" width="32" height="32" viewBox="0 0 32 32">
<path fill="#444444" d="M16 3c-7.18 0-13 5.82-13 13s5.82 13 13 13 13-5.82 13-13-5.82-13-13-13zM16 27c-6.075 0-11-4.925-11-11s4.925-11 11-11 11 4.925 11 11-4.925 11-11 11zM14.592 12.174c0.419-0.221 0.628-0.497 0.628-0.828 0-0.209-0.071-0.383-0.214-0.521s-0.325-0.207-0.545-0.207c-0.551 0-1.31 0.32-2.278 0.959-1.145 0.75-2.055 1.662-2.731 2.737s-1.015 2.137-1.015 3.185c0 0.496 0.094 0.989 0.281 1.48 0.187 0.49 0.44 0.906 0.759 1.249 0.671 0.739 1.474 1.108 2.409 1.108 0.979 0 1.777-0.337 2.393-1.010 0.253-0.275 0.453-0.604 0.603-0.984 0.148-0.381 0.223-0.758 0.223-1.133 0-0.794-0.22-1.472-0.659-2.035s-1.018-0.893-1.732-0.992l-0.264-0.016-0.198-0.034c-0.329-0.044-0.495-0.171-0.495-0.38 0-0.221 0.215-0.568 0.645-1.042 0.448-0.483 1.178-0.996 2.19-1.536zM22.49 12.174c0.42-0.221 0.629-0.497 0.629-0.828 0-0.209-0.071-0.383-0.215-0.521s-0.325-0.207-0.546-0.207c-0.551 0-1.312 0.32-2.282 0.959-1.146 0.75-2.061 1.662-2.744 2.737s-1.025 2.137-1.025 3.185c0 0.496 0.094 0.989 0.281 1.48 0.188 0.49 0.44 0.906 0.76 1.249 0.673 0.739 1.482 1.108 2.43 1.108 0.971 0 1.77-0.337 2.398-1.010 0.253-0.275 0.455-0.601 0.604-0.976 0.148-0.376 0.223-0.756 0.223-1.142 0-0.794-0.224-1.469-0.67-2.026s-1.029-0.89-1.747-1l-0.249-0.016-0.215-0.034c-0.33-0.044-0.496-0.171-0.496-0.38 0-0.221 0.221-0.568 0.662-1.042 0.463-0.506 1.197-1.018 2.202-1.536z"></path>
</svg>
