<?xml version="1.0" encoding="utf-8"?>
<!-- Generated by IcoMoon.io -->
<!DOCTYPE svg PUBLIC "-//W3C//DTD SVG 1.1//EN" "http://www.w3.org/Graphics/SVG/1.1/DTD/svg11.dtd">
<svg version="1.1" xmlns="http://www.w3.org/2000/svg" xmlns:xlink="http://www.w3.org/1999/xlink" width="24" height="24" viewBox="0 0 24 24">
<path fill="#444444" d="M20.987 16c0-0.105-0.004-0.211-0.039-0.316l-2-6c-0.136-0.409-0.517-0.684-0.948-0.684h-4v2h3.279l1.667 5h-13.892l1.667-5h3.279v-2h-4c-0.431 0-0.812 0.275-0.948 0.684l-2 6c-0.035 0.105-0.039 0.211-0.039 0.316-0.013 0-0.013 5-0.013 5 0 0.553 0.447 1 1 1h16c0.553 0 1-0.447 1-1 0 0 0-5-0.013-5z"></path>
<path fill="#444444" d="M16 7.904c0.259 0 0.518-0.095 0.707-0.283 0.39-0.39 0.39-1.024 0-1.414l-4.707-4.707-4.707 4.707c-0.39 0.39-0.39 1.024 0 1.414 0.189 0.189 0.448 0.283 0.707 0.283s0.518-0.094 0.707-0.283l2.293-2.293v6.672c0 0.552 0.448 1 1 1s1-0.448 1-1v-6.672l2.293 2.293c0.189 0.189 0.448 0.283 0.707 0.283z"></path>
</svg>
