<?xml version="1.0" encoding="utf-8"?>
<!-- Generated by IcoMoon.io -->
<!DOCTYPE svg PUBLIC "-//W3C//DTD SVG 1.1//EN" "http://www.w3.org/Graphics/SVG/1.1/DTD/svg11.dtd">
<svg version="1.1" xmlns="http://www.w3.org/2000/svg" xmlns:xlink="http://www.w3.org/1999/xlink" width="24" height="24" viewBox="0 0 24 24">
<path fill="#444444" d="M15.527 17.921v-2.066c-0.669 0.448-1.32 0.67-1.952 0.67-0.298 0-0.631-0.094-1.004-0.277-0.223-0.151-0.354-0.317-0.393-0.503-0.11-0.224-0.178-0.708-0.178-1.454v-3.291h3v-2h-3v-3.356h-1.772c-0.149 0.782-0.298 1.338-0.448 1.673-0.184 0.41-0.482 0.782-0.891 1.116-0.411 0.337-0.837 0.577-1.285 0.725v1.842h1.396v4.521c0 0.52 0.073 0.964 0.223 1.337 0.111 0.298 0.334 0.595 0.671 0.893 0.259 0.262 0.631 0.484 1.115 0.67 0.595 0.15 1.114 0.223 1.562 0.223 0.52 0 1.004-0.056 1.45-0.167 0.521-0.112 1.023-0.298 1.506-0.556z"></path>
</svg>
