<?xml version="1.0" encoding="utf-8"?>
<!-- Generated by IcoMoon.io -->
<!DOCTYPE svg PUBLIC "-//W3C//DTD SVG 1.1//EN" "http://www.w3.org/Graphics/SVG/1.1/DTD/svg11.dtd">
<svg version="1.1" xmlns="http://www.w3.org/2000/svg" xmlns:xlink="http://www.w3.org/1999/xlink" width="48" height="48" viewBox="0 0 48 48">
<path fill="#444444" d="M34 12.5c0 1.38 1.12 2.5 2.5 2.5s2.5-1.12 2.5-2.5-1.12-2.5-2.5-2.5-2.5 1.12-2.5 2.5zM9 26v2.75c0 1.24 1.010 2.25 2.25 2.25h27.75l-9.561-9.4c-0.8-0.8-2.080-0.8-2.879 0l-2.021 1.99-5.101-4.99c-0.8-0.8-2.239-0.8-3.029 0l-7.409 7.4zM0 43c0 2.21 1.79 4 4 4h40c2.21 0 4-1.79 4-4l-0-38c0-2.21-1.79-4-4-4l-40 0c-2.21 0-4 1.79-4 4v38zM7.2 6h33.6c1.22 0 2.2 0.98 2.2 2.2v24.6c0 1.22-0.98 2.2-2.2 2.2l-33.6-0c-1.22 0-2.2-0.98-2.2-2.2v-24.6c0-1.22 0.98-2.2 2.2-2.2z"></path>
</svg>
