<?xml version="1.0" encoding="utf-8"?>
<!-- Generated by IcoMoon.io -->
<!DOCTYPE svg PUBLIC "-//W3C//DTD SVG 1.1//EN" "http://www.w3.org/Graphics/SVG/1.1/DTD/svg11.dtd">
<svg version="1.1" xmlns="http://www.w3.org/2000/svg" xmlns:xlink="http://www.w3.org/1999/xlink" width="24" height="24" viewBox="0 0 24 24">
<path fill="#444444" d="M8 8v7h8v-7h-8zM15 14h-6v-5h6v5z"></path>
<path fill="#444444" d="M17 2h-3v2h-4v-2h-3c-1.654 0-3 1.346-3 3v13c0 1.654 1.346 3 3 3h3v-2h4v2h3c1.654 0 3-1.346 3-3v-13c0-1.654-1.346-3-3-3zM18 6c-0.553 0-1 0.447-1 1s0.447 1 1 1v1c-0.553 0-1 0.447-1 1s0.447 1 1 1v1c-0.553 0-1 0.447-1 1s0.447 1 1 1v1c-0.553 0-1 0.447-1 1s0.447 1 1 1v1c0 0.551-0.448 1-1 1h-1v-2h-8v2h-1c-0.552 0-1-0.449-1-1v-1c0.553 0 1-0.447 1-1s-0.447-1-1-1v-1c0.553 0 1-0.447 1-1s-0.447-1-1-1v-1c0.553 0 1-0.447 1-1s-0.447-1-1-1v-1c0.553 0 1-0.447 1-1s-0.447-1-1-1v-1c0-0.551 0.448-1 1-1h1v2h8v-2h1c0.552 0 1 0.449 1 1v1z"></path>
</svg>
