<?xml version="1.0" encoding="utf-8"?>
<!-- Generated by IcoMoon.io -->
<!DOCTYPE svg PUBLIC "-//W3C//DTD SVG 1.1//EN" "http://www.w3.org/Graphics/SVG/1.1/DTD/svg11.dtd">
<svg version="1.1" xmlns="http://www.w3.org/2000/svg" xmlns:xlink="http://www.w3.org/1999/xlink" width="24" height="24" viewBox="0 0 24 24">
<path fill="#444444" d="M21.824 14.785c-0.080-0.047-0.162-0.090-0.247-0.133l-0.186-0.121-4.077-2.863 1.184-0.883c1.119 0.475 2.605-0.465 3.248-0.869 1.633-1.031 2.121-3.197 1.090-4.828-0.94-1.488-2.824-2.027-4.387-1.328l-0.017-0.030c-0.883-1.398-2.74-1.818-4.139-0.936-0.918 0.58-1.59 2.229-0.857 4.090l-1.42 1.064-1.625-1.141c0.674-1.883-0.047-3.51-0.982-4.062-1.426-0.84-3.27-0.363-4.107 1.062l-0.020 0.029c-1.583-0.647-3.45-0.051-4.344 1.465-0.979 1.662-0.425 3.812 1.238 4.793 0.655 0.385 2.172 1.277 3.275 0.768l1.383 0.969-4.158 3.113-0.182 0.126c-0.082 0.045-0.162 0.090-0.24 0.141-1.634 1.029-2.121 3.197-1.092 4.828 1.031 1.631 3.197 2.121 4.828 1.090 0.781-0.492 1.32-1.258 1.529-2.148l4.612-3.443 4.543 3.18c0.237 0.883 0.8 1.631 1.595 2.1 1.662 0.98 3.814 0.424 4.792-1.238 0.982-1.664 0.425-3.814-1.237-4.795zM13.85 9.236l2.268-1.68-0.533-0.846c-0.752-1.189-0.382-2.094-0.223-2.225 0.465-0.295 1.084-0.154 1.379 0.311l1.068 1.691 1.268-0.801c0.698-0.441 1.627-0.232 2.070 0.467 0.441 0.699 0.23 1.629-0.469 2.070-0.766 0.484-1.152 0.643-1.347 0.676l-0.454-0.719-3.563 2.59-1.862-1.238 0.398-0.296zM9.292 15.148l-3.643 2.648-0.042 0.494c-0.039 0.48-0.289 0.898-0.684 1.146-0.699 0.441-1.629 0.232-2.070-0.467s-0.232-1.627 0.467-2.068c0.085-0.055 0.176-0.1 0.27-0.135l1-0.668 4.459-3.305 1.814 1.211-1.571 1.144zM21.34 18.562c-0.42 0.713-1.343 0.951-2.056 0.531-0.402-0.238-0.663-0.646-0.718-1.125l-0.059-0.494-13.515-9.204-0.433 0.736c-0.196-0.027-0.586-0.176-1.368-0.635-0.712-0.422-0.949-1.342-0.531-2.055 0.422-0.713 1.342-0.951 2.054-0.531l2.31-0.961c0.279-0.477 0.895-0.633 1.369-0.354 0.16 0.125 0.559 1.020-0.154 2.23l-0.509 0.862 11.785 8.183 1.020 0.637c0.096 0.031 0.188 0.076 0.272 0.125 0.714 0.423 0.951 1.343 0.533 2.055z"></path>
</svg>
