<?xml version="1.0" encoding="utf-8"?>
<!-- Generated by IcoMoon.io -->
<!DOCTYPE svg PUBLIC "-//W3C//DTD SVG 1.1//EN" "http://www.w3.org/Graphics/SVG/1.1/DTD/svg11.dtd">
<svg version="1.1" xmlns="http://www.w3.org/2000/svg" xmlns:xlink="http://www.w3.org/1999/xlink" width="32" height="32" viewBox="0 0 32 32">
<path fill="#444444" d="M26 4v2.047c0 2.211-1.789 4-4 4s-4-1.789-4-4v-2.047h-4v2.047c0 2.211-1.789 4-4 4s-4-1.789-4-4v-2.047h-6v28h32v-28h-6zM10 28h-4v-4h4v4zM10 20h-4v-4h4v4zM18 28h-4v-4h4v4zM18 20h-4v-4h4v4zM22 28v-4h4l-4 4zM26 20h-4v-4h4v4zM8 6v-4c0-1.105 0.895-2 2-2s2 0.895 2 2v4c0 1.105-0.895 2-2 2s-2-0.895-2-2zM20 6v-4c0-1.105 0.895-2 2-2s2 0.895 2 2v4c0 1.105-0.895 2-2 2s-2-0.895-2-2z"></path>
</svg>
