<?xml version="1.0" encoding="utf-8"?>
<!-- Generated by IcoMoon.io -->
<!DOCTYPE svg PUBLIC "-//W3C//DTD SVG 1.1//EN" "http://www.w3.org/Graphics/SVG/1.1/DTD/svg11.dtd">
<svg version="1.1" xmlns="http://www.w3.org/2000/svg" xmlns:xlink="http://www.w3.org/1999/xlink" width="24" height="24" viewBox="0 0 24 24">
<path fill="#444444" d="M11.844 7.5c-2.481 0-4.438 2.019-4.438 4.5s2.050 4.5 4.531 4.5c0.908 0 1.799-0.27 2.547-0.778 0.228-0.155 0.295-0.466 0.139-0.694-0.155-0.229-0.462-0.287-0.691-0.132-0.58 0.396-1.258 0.604-1.965 0.604-1.93 0-3.499-1.57-3.499-3.5s1.446-3.5 3.376-3.5 3.375 1.57 3.375 3.5v0.25c0 0.414-0.336 0.75-0.75 0.75s-0.75-0.336-0.75-0.75v-1.75c0-0.276-0.099-0.5-0.375-0.5-0.205 0-0.318 0.124-0.396 0.301-0.303-0.188-0.628-0.301-1.010-0.301-1.104 0-1.984 0.896-1.984 2s0.904 2 2.008 2c0.562 0 1.073-0.235 1.438-0.609 0.319 0.369 0.664 0.609 1.192 0.609 0.965 0 1.627-0.785 1.627-1.75v-0.25c0-2.481-1.894-4.5-4.375-4.5zM11.969 13c-0.551 0-1-0.449-1-1s0.449-1 1-1 1 0.449 1 1-0.449 1-1 1z"></path>
<path fill="#444444" d="M12 21c-4.963 0-9-4.037-9-9s4.037-9 9-9 9 4.037 9 9-4.037 9-9 9zM12 5c-3.859 0-7 3.141-7 7s3.141 7 7 7 7-3.141 7-7-3.141-7-7-7z"></path>
</svg>
