<?xml version="1.0" encoding="utf-8"?>
<!-- Generated by IcoMoon.io -->
<!DOCTYPE svg PUBLIC "-//W3C//DTD SVG 1.1//EN" "http://www.w3.org/Graphics/SVG/1.1/DTD/svg11.dtd">
<svg version="1.1" xmlns="http://www.w3.org/2000/svg" xmlns:xlink="http://www.w3.org/1999/xlink" width="32" height="32" viewBox="0 0 32 32">
<path fill="#444444" d="M14 20h-3v-0.061c-0.33 0.034-0.661 0.061-1 0.061-5.522 0-10-4.477-10-10s4.478-10 10-10 10 4.477 10 10v4h1v1h1v1h1v1h1v1h1v1h1v1h1v1h1v1h1v1h1v1h1v1h1v6c0 0.553-0.447 1-1 1h-4c-0.553 0-1-0.447-1-1v-4h-5c-0.552 0-1-0.447-1-1v-4h-5zM8 4c-2.209 0-4 1.791-4 4s1.791 4 4 4 4-1.791 4-4-1.791-4-4-4z"></path>
</svg>
