<?xml version="1.0" encoding="utf-8"?>
<!-- Generated by IcoMoon.io -->
<!DOCTYPE svg PUBLIC "-//W3C//DTD SVG 1.1//EN" "http://www.w3.org/Graphics/SVG/1.1/DTD/svg11.dtd">
<svg version="1.1" xmlns="http://www.w3.org/2000/svg" xmlns:xlink="http://www.w3.org/1999/xlink" width="24" height="24" viewBox="0 0 24 24">
<path fill="#444444" d="M18 6v12h-12v-12h3.984v2.016h-1.969v7.969h7.969v-7.969h-3v2.25q1.031 0.563 1.031 1.734 0 0.797-0.609 1.406t-1.406 0.609-1.406-0.609-0.609-1.406q0-1.172 1.031-1.734v-2.25q0-0.797 0.586-1.406t1.383-0.609h5.016zM20.016 20.016v-16.031h-16.031v16.031h16.031zM20.016 2.016q0.797 0 1.383 0.586t0.586 1.383v16.031q0 0.797-0.586 1.383t-1.383 0.586h-16.031q-0.797 0-1.383-0.586t-0.586-1.383v-16.031q0-0.797 0.586-1.383t1.383-0.586h16.031z"></path>
</svg>
