<?xml version="1.0" encoding="utf-8"?>
<!-- Generated by IcoMoon.io -->
<!DOCTYPE svg PUBLIC "-//W3C//DTD SVG 1.1//EN" "http://www.w3.org/Graphics/SVG/1.1/DTD/svg11.dtd">
<svg version="1.1" xmlns="http://www.w3.org/2000/svg" xmlns:xlink="http://www.w3.org/1999/xlink" width="32" height="32" viewBox="0 0 32 32">
<path fill="#444444" d="M24 17c-1.105 0-2 0.895-2 2v4h-5v-14h11v8h-4zM19 10h-1v2h1v-2zM19 20h-1v2h1v-2zM21 10h-1v2h1v-2zM21 20h-1v2h1v-2zM23 10h-1v2h1v-2zM25 10h-1v2h1v-2zM27 10h-1v2h1v-2zM4 6h13v2h-13v-2zM16 9v14h-11v-14h11zM17 26h-13v-2h13v2z"></path>
</svg>
