<?xml version="1.0" encoding="utf-8"?>
<!-- Generated by IcoMoon.io -->
<!DOCTYPE svg PUBLIC "-//W3C//DTD SVG 1.1//EN" "http://www.w3.org/Graphics/SVG/1.1/DTD/svg11.dtd">
<svg version="1.1" xmlns="http://www.w3.org/2000/svg" xmlns:xlink="http://www.w3.org/1999/xlink" width="32" height="32" viewBox="0 0 32 32">
<path fill="#444444" d="M19.951 16c0-6.447 3.332-10.069 3.332-10.069s-2.941-2.386-7.333-2.386c-4.392 0-7.334 2.388-7.334 2.388s3.392 2.755 3.392 10.067c0 7.056-3.414 10.052-3.414 10.052s3.549 2.403 7.356 2.403c3.897 0 7.336-2.39 7.336-2.39s-3.335-3.125-3.335-10.065zM7.779 6.592c0 0-4.143 2.525-4.143 9.45 0 6.924 4.189 9.19 4.189 9.19s3.053-2.267 3.053-9.19c0-6.925-3.099-9.45-3.099-9.45zM24.121 6.779c0 0-3.098 2.338-3.098 9.263 0 6.924 3.051 9.19 3.051 9.19s4.289-2.267 4.289-9.19c0-6.925-4.242-9.263-4.242-9.263z"></path>
</svg>
