<?xml version="1.0" encoding="utf-8"?>
<!-- Generated by IcoMoon.io -->
<!DOCTYPE svg PUBLIC "-//W3C//DTD SVG 1.1//EN" "http://www.w3.org/Graphics/SVG/1.1/DTD/svg11.dtd">
<svg version="1.1" xmlns="http://www.w3.org/2000/svg" xmlns:xlink="http://www.w3.org/1999/xlink" width="24" height="24" viewBox="0 0 24 24">
<path fill="#444444" d="M4 16h3v-3h-3v3zM5 14h1v1h-1v-1zM8 16h3v-3h-3v3zM9 14h1v1h-1v-1zM8 20h3v-3h-3v3zM9 18h1v1h-1v-1zM4 20h3v-3h-3v3zM5 18h1v1h-1v-1zM12 16h3v-3h-3v3zM13 14h1v1h-1v-1zM10 10h1v-1h-1v1zM8 10h1v-1h-1v1zM4 12h16v-9h-16v9zM5 4h14v7h-14v-7zM20 0h-16c-1.657 0-3 1.343-3 3v18c0 1.657 1.343 3 3 3h16c1.657 0 3-1.343 3-3v-18c0-1.657-1.343-3-3-3zM21 21c0 0.553-0.447 1-1 1h-16c-0.553 0-1-0.447-1-1v-18c0-0.553 0.447-1 1-1h16c0.553 0 1 0.447 1 1v18zM12 20h3v-3h-3v3zM13 18h1v1h-1v-1zM16 20h4v-7h-4v7zM17 14h2v5h-2v-5zM6 10h1v-1h-1v1z"></path>
</svg>
