<?xml version="1.0" encoding="utf-8"?>
<!-- Generated by IcoMoon.io -->
<!DOCTYPE svg PUBLIC "-//W3C//DTD SVG 1.1//EN" "http://www.w3.org/Graphics/SVG/1.1/DTD/svg11.dtd">
<svg version="1.1" xmlns="http://www.w3.org/2000/svg" xmlns:xlink="http://www.w3.org/1999/xlink" width="18" height="18" viewBox="0 0 18 18">
<path fill="#444444" d="M10.996 7.001l-3.979 0.002c-0.006 0-0.012-0.002-0.019-0.002h-1.604l3.317-3.319c0.382-0.382 0.382-1 0-1.382l-0.014-0.014c-0.381-0.381-1-0.381-1.381 0l-4.915 4.918c-0.035 0.026-0.070 0.051-0.101 0.083l-0.005 0.005c-0.001 0.001-0.002 0.002-0.003 0.004l-0.005 0.005c-0.034 0.034-0.061 0.071-0.088 0.109-0.009 0.011-0.020 0.021-0.027 0.033-0.114 0.167-0.171 0.36-0.17 0.554 0 0.002-0 0.003-0 0.005s0 0.003 0 0.004c-0.001 0.194 0.056 0.387 0.17 0.554 0.008 0.012 0.018 0.021 0.026 0.033 0.028 0.037 0.056 0.075 0.089 0.109l0.005 0.005c0.001 0.001 0.002 0.002 0.003 0.003l0.005 0.005c0.031 0.032 0.066 0.057 0.101 0.083l4.915 4.918c0.381 0.381 1 0.381 1.381 0l0.014-0.014c0.382-0.381 0.382-1 0-1.382l-3.317-3.319h1.604c0.007 0 0.013-0.002 0.019-0.002v0.002h3.979c1.654 0 2.999 1.346 2.999 3.001v2.998c0 0.553 0.448 1 1 1s1-0.448 1-1v-2.998c0-2.762-2.237-5.001-4.998-5.001z"></path>
</svg>
