<?xml version="1.0" encoding="utf-8"?>
<!-- Generated by IcoMoon.io -->
<!DOCTYPE svg PUBLIC "-//W3C//DTD SVG 1.1//EN" "http://www.w3.org/Graphics/SVG/1.1/DTD/svg11.dtd">
<svg version="1.1" xmlns="http://www.w3.org/2000/svg" xmlns:xlink="http://www.w3.org/1999/xlink" width="32" height="32" viewBox="0 0 32 32">
<path fill="#444444" d="M31 15h-5.148c-0.182-1.357-0.551-2.631-1.059-3.793l3.207-3.207c0.553 0 1-0.448 1-1v-5c0-0.552-0.447-1-1-1s-1 0.448-1 1v5l-3.306 2.204c-0.509-0.751-1.083-1.432-1.725-2.005-0.301-4.042-2.858-7.199-5.969-7.199s-5.668 3.157-5.97 7.199c-0.641 0.572-1.216 1.253-1.724 2.005l-3.306-2.204v-5c0-0.552-0.448-1-1-1s-1 0.448-1 1v5c0 0.552 0.448 1 1 1l3.207 3.207c-0.508 1.162-0.877 2.436-1.059 3.793h-5.148c-0.552 0-1 0.447-1 1s0.448 1 1 1h5.143c0.111 0.834 0.297 3.635 0.537 4.4l-2.917 3.648c-0.435 0.11-0.763 0.484-0.763 0.952v5c0 0.553 0.448 1 1 1s1-0.447 1-1v-5l2.521-2.521c1.688 3.316 4.625 5.521 7.979 5.521 0.169 0 0.333-0.030 0.5-0.042 0.167 0.012 0.331 0.042 0.5 0.042 3.354 0 6.291-2.205 7.979-5.521l2.521 2.521v5c0 0.553 0.447 1 1 1s1-0.447 1-1v-5c0-0.468-0.328-0.842-0.762-0.951l-2.918-3.649c0.24-0.766 0.426-3.566 0.537-4.4h5.143c0.553 0 1-0.447 1-1s-0.447-1-1-1z"></path>
</svg>
