<?xml version="1.0" encoding="utf-8"?>
<!-- Generated by IcoMoon.io -->
<!DOCTYPE svg PUBLIC "-//W3C//DTD SVG 1.1//EN" "http://www.w3.org/Graphics/SVG/1.1/DTD/svg11.dtd">
<svg version="1.1" xmlns="http://www.w3.org/2000/svg" xmlns:xlink="http://www.w3.org/1999/xlink" width="32" height="32" viewBox="0 0 32 32">
<path fill="#444444" d="M24 27h-3c-0.553 0-1-0.447-1-1v-2c0-0.553 0.447-1 1-1h2v-6h-7v6h1c0.552 0 1 0.447 1 1v2c0 0.553-0.448 1-1 1h-3c-0.553 0-1-0.447-1-1v-2c0-0.553 0.447-1 1-1h1v-6h-7v6h2c0.552 0 1 0.447 1 1v2c0 0.553-0.448 1-1 1h-3c-0.553 0-1-0.447-1-1v-2c0-0.553 0.447-1 1-1v-7h8v-7h-1c-0.553 0-1-0.448-1-1v-2c0-0.552 0.447-1 1-1h3c0.552 0 1 0.448 1 1v2c0 0.552-0.448 1-1 1h-1v7h8v7c0.552 0 1 0.447 1 1v2c0 0.553-0.448 1-1 1z"></path>
</svg>
