<?xml version="1.0" encoding="utf-8"?>
<!-- Generated by IcoMoon.io -->
<!DOCTYPE svg PUBLIC "-//W3C//DTD SVG 1.1//EN" "http://www.w3.org/Graphics/SVG/1.1/DTD/svg11.dtd">
<svg version="1.1" xmlns="http://www.w3.org/2000/svg" xmlns:xlink="http://www.w3.org/1999/xlink" width="33" height="32" viewBox="0 0 33 32">
<path fill="#444444" d="M22.303 26.393c-8.369 4.832-17.84 4.097-21.154-1.643s0.785-14.311 9.155-19.143c8.37-4.832 17.84-4.098 21.155 1.643 3.314 5.739-0.785 14.31-9.156 19.143zM2.51 17.232c-0.783 2.356-0.731 4.662 0.365 6.562 1.097 1.899 3.067 3.097 5.5 3.596l-5.865-10.158zM20.459 4.471c-2.9 0.19-6.099 1.146-9.161 2.913-3.115 1.8-5.577 4.142-7.191 6.606l7.875 13.64c2.941-0.166 6.2-1.126 9.317-2.925 3.061-1.768 5.488-4.061 7.104-6.478l-7.944-13.756zM30.057 14.943c0.814-2.387 0.775-4.726-0.334-6.649-1.111-1.924-3.117-3.126-5.592-3.614l5.926 10.263zM17.205 18.811l-0.811 0.469-0.97-1.678-0.004 0.002-0.916 0.529 0.969 1.678-0.812 0.469-0.969-1.678-0.004 0.002-0.916 0.529 0.969 1.678-0.812 0.469-0.969-1.679-0.004 0.003-1.732 1-0.5-0.866 1.736-1.003-1.012-1.753 0.812-0.469 1.013 1.753 0.92-0.531-1.013-1.755 0.812-0.468 1.013 1.753 0.92-0.531-1.012-1.754 0.812-0.468 1.013 1.753 0.92-0.531-1.012-1.754 0.812-0.468 1.012 1.753 0.92-0.531-1.012-1.753 0.811-0.469 1.014 1.753 0.92-0.531-1.014-1.754 0.812-0.468 1.012 1.753 1.809-1.043 0.5 0.866-1.809 1.044 0.969 1.678-0.811 0.469-0.969-1.678-0.92 0.531 0.969 1.678-0.812 0.469-0.969-1.678-0.004 0.002-0.916 0.529 0.969 1.678-0.812 0.469-0.969-1.678-0.004 0.002-0.916 0.529 0.967 1.679z"></path>
</svg>
