<?xml version="1.0" encoding="utf-8"?>
<!-- Generated by IcoMoon.io -->
<!DOCTYPE svg PUBLIC "-//W3C//DTD SVG 1.1//EN" "http://www.w3.org/Graphics/SVG/1.1/DTD/svg11.dtd">
<svg version="1.1" xmlns="http://www.w3.org/2000/svg" xmlns:xlink="http://www.w3.org/1999/xlink" width="24" height="24" viewBox="0 0 24 24">
<path fill="#444444" d="M20.221 10.761c0.498-0.552 0.779-1.252 0.779-2 0-0.801-0.312-1.555-0.879-2.121-0.566-0.567-1.32-0.879-2.121-0.879s-1.555 0.312-2.121 0.879c-0.233 0.232-0.546 0.361-0.879 0.361s-0.646-0.129-0.879-0.362c-1.366-1.366-3.185-2.118-5.121-2.118s-3.755 0.752-5.121 2.118c-0.567 0.567-0.879 1.321-0.879 2.122 0 0.748 0.281 1.448 0.779 2-0.498 0.551-0.779 1.252-0.779 2s0.281 1.448 0.779 2c-0.498 0.551-0.779 1.252-0.779 2 0 0.801 0.312 1.555 0.879 2.121 0.566 0.566 1.32 0.879 2.121 0.879s1.555-0.312 2.121-0.879c0.234-0.233 0.545-0.362 0.878-0.362s0.646 0.129 0.88 0.363c1.367 1.365 3.185 2.117 5.121 2.117s3.755-0.752 5.121-2.118c0.567-0.567 0.879-1.32 0.879-2.121 0-0.748-0.281-1.448-0.779-2 0.498-0.552 0.779-1.252 0.779-2s-0.281-1.449-0.779-2zM18.707 17.468c-1.021 1.021-2.364 1.532-3.707 1.532s-2.685-0.511-3.707-1.532c-0.633-0.632-1.463-0.948-2.293-0.948s-1.661 0.316-2.292 0.948c-0.196 0.195-0.452 0.293-0.708 0.293s-0.512-0.098-0.707-0.293c-0.391-0.391-0.391-1.023 0-1.414 1.021-1.021 2.364-1.532 3.706-1.532s2.686 0.511 3.708 1.532c0.632 0.632 1.463 0.947 2.293 0.947s1.661-0.315 2.293-0.947c0.195-0.195 0.451-0.293 0.707-0.293s0.512 0.098 0.707 0.293c0.391 0.39 0.391 1.023 0 1.414zM5.293 8.054c1.021-1.022 2.365-1.533 3.707-1.533 1.343 0 2.685 0.511 3.707 1.532 0.632 0.633 1.463 0.948 2.293 0.948s1.661-0.315 2.293-0.947c0.195-0.196 0.451-0.293 0.707-0.293s0.512 0.098 0.707 0.293c0.391 0.391 0.391 1.023 0 1.414-1.021 1.021-2.364 1.532-3.707 1.532s-2.685-0.511-3.707-1.532c-0.633-0.632-1.463-0.948-2.293-0.948s-1.661 0.316-2.292 0.948c-0.196 0.195-0.452 0.293-0.708 0.293s-0.512-0.098-0.707-0.293c-0.391-0.391-0.391-1.024 0-1.414zM18.707 13.468c-1.021 1.021-2.364 1.532-3.707 1.532s-2.685-0.511-3.707-1.532c-0.633-0.632-1.463-0.948-2.293-0.948s-1.661 0.316-2.292 0.948c-0.196 0.195-0.452 0.293-0.708 0.293s-0.512-0.098-0.707-0.293c-0.391-0.391-0.391-1.023 0-1.414 1.021-1.021 2.364-1.532 3.706-1.532s2.686 0.511 3.708 1.532c0.632 0.632 1.463 0.947 2.293 0.947s1.661-0.315 2.293-0.947c0.195-0.195 0.451-0.293 0.707-0.293s0.512 0.098 0.707 0.293c0.391 0.39 0.391 1.023 0 1.414z"></path>
</svg>
