<?xml version="1.0" encoding="utf-8"?>
<!-- Generated by IcoMoon.io -->
<!DOCTYPE svg PUBLIC "-//W3C//DTD SVG 1.1//EN" "http://www.w3.org/Graphics/SVG/1.1/DTD/svg11.dtd">
<svg version="1.1" xmlns="http://www.w3.org/2000/svg" xmlns:xlink="http://www.w3.org/1999/xlink" width="24" height="24" viewBox="0 0 24 24">
<path fill="#444444" d="M10 16.5c0 0.275-0.225 0.5-0.5 0.5s-0.5-0.225-0.5-0.5v-6c0-0.275 0.225-0.5 0.5-0.5s0.5 0.225 0.5 0.5v6z"></path>
<path fill="#444444" d="M12 16.5c0 0.275-0.225 0.5-0.5 0.5s-0.5-0.225-0.5-0.5v-6c0-0.275 0.225-0.5 0.5-0.5s0.5 0.225 0.5 0.5v6z"></path>
<path fill="#444444" d="M14 16.5c0 0.275-0.225 0.5-0.5 0.5s-0.5-0.225-0.5-0.5v-6c0-0.275 0.225-0.5 0.5-0.5s0.5 0.225 0.5 0.5v6z"></path>
<path fill="#444444" d="M18.5 6h-0.5v-1c0-1.104-0.896-2-2-2h-9c-1.104 0-2 0.896-2 2v13c0 1.656 1.344 3 3 3h7c1.656 0 3-1.344 3-3h0.5c1.93 0 3.5-1.57 3.5-3.5v-5c0-1.93-1.57-3.5-3.5-3.5zM7 5h9v1h-4.444l-0.118 0.332c-0.164 0.458-0.663 0.73-1.117 0.648l-0.348-0.058-0.173 0.307c-0.267 0.475-0.765 0.771-1.3 0.771-0.827 0-1.5-0.673-1.5-1.5v-1.5zM16 18c0 0.552-0.448 1-1 1h-7c-0.552 0-1-0.448-1-1v-9.51c0.419 0.317 0.936 0.51 1.5 0.51 0.784 0 1.521-0.376 1.989-1 0.728 0 1.383-0.391 1.736-1h3.775v11zM20 14.5c0 0.827-0.673 1.5-1.5 1.5h-1.5v-8h1.5c0.827 0 1.5 0.673 1.5 1.5v5z"></path>
</svg>
