<?xml version="1.0" encoding="utf-8"?>
<!-- Generated by IcoMoon.io -->
<!DOCTYPE svg PUBLIC "-//W3C//DTD SVG 1.1//EN" "http://www.w3.org/Graphics/SVG/1.1/DTD/svg11.dtd">
<svg version="1.1" xmlns="http://www.w3.org/2000/svg" xmlns:xlink="http://www.w3.org/1999/xlink" width="48" height="48" viewBox="0 0 48 48">
<path fill="#444444" d="M13 22.1l-7.4 7.47c-0.37 0.36-0.6 0.869-0.6 1.43 0 1.1 0.89 2 1.98 2h14.020v12.5c0 1.38 1.12 2.5 2.5 2.5s2.5-1.12 2.5-2.5l-0-12.5h15.020c1.090 0 1.98-0.9 1.98-2 0-0.55-0.221-1.050-0.58-1.41l-7.42-7.5v-17.090h1.5c1.38 0 2.5-1.12 2.5-2.5s-1.12-2.5-2.5-2.5h-25c-1.38 0-2.5 1.12-2.5 2.5s1.12 2.5 2.5 2.5h1.5v17.1zM22 7v13c0 1.1-0.9 2-2 2s-2-0.9-2-2l-0-13c0-1.1 0.9-2 2-2s2 0.9 2 2z"></path>
</svg>
