<?xml version="1.0" encoding="utf-8"?>
<!-- Generated by IcoMoon.io -->
<!DOCTYPE svg PUBLIC "-//W3C//DTD SVG 1.1//EN" "http://www.w3.org/Graphics/SVG/1.1/DTD/svg11.dtd">
<svg version="1.1" xmlns="http://www.w3.org/2000/svg" xmlns:xlink="http://www.w3.org/1999/xlink" width="24" height="24" viewBox="0 0 24 24">
<path fill="#444444" d="M17.368 4.998c-0.488 0-1.2 0.145-1.956 0.773-1.036-0.489-2.189-0.771-3.412-0.771-4.418 0-8 3.582-8 8s3.582 8 8 8c4.312 0 8-3.316 8-8 0-0.043 0-4.936 0-4.936-0.016-2.111-1.375-3.066-2.632-3.066zM18 13h-5.128c-1.134 0-1.407-0.561-0.604-1.363l1.448-1.402c-0.562-0.371-1.22-0.549-1.909-0.549-0.93 0-1.805 0.375-2.464 1.033-0.657 0.656-1.020 1.537-1.020 2.467 0 0.933 0.362 1.811 1.020 2.469s1.534 1.021 2.464 1.021 1.805-0.36 2.465-1.019c0.177-0.18 0.334-0.372 0.468-0.579 0.222-0.345 0.596-0.533 0.979-0.533 0.216 0 0.433 0.060 0.625 0.185 0.54 0.346 0.697 1.063 0.351 1.604-0.223 0.344-0.484 0.668-0.78 0.965-1.097 1.099-2.556 1.703-4.106 1.703s-3.009-0.604-4.104-1.701c-1.097-1.096-1.701-2.555-1.701-4.106s0.604-3.012 1.702-4.104c1.096-1.098 2.554-1.7 4.104-1.7 1.311 0 2.551 0.436 3.566 1.229l1.154-1.158c0.311-0.312 0.602-0.461 0.841-0.461 0.377 0 0.627 0.372 0.632 1.065v4.934zM10.92 13.050c0.162 0.392 0.63 0.95 1.952 0.95h1.299c0 0-0.21 0.504-0.614 0.907s-1.086 0.745-1.75 0.745-1.289-0.246-1.758-0.715c-0.468-0.47-0.727-1.088-0.727-1.752s0.258-1.139 0.726-1.604c0.472-0.472 1.097-0.581 1.759-0.581 0.023 0-0.246 0.123-0.246 0.123-0.935 0.934-0.803 1.536-0.641 1.927z"></path>
</svg>
