<?xml version="1.0" encoding="utf-8"?>
<!-- Generated by IcoMoon.io -->
<!DOCTYPE svg PUBLIC "-//W3C//DTD SVG 1.1//EN" "http://www.w3.org/Graphics/SVG/1.1/DTD/svg11.dtd">
<svg version="1.1" xmlns="http://www.w3.org/2000/svg" xmlns:xlink="http://www.w3.org/1999/xlink" width="32" height="32" viewBox="0 0 32 32">
<path fill="#444444" d="M27 29.016h-22c-1.105 0-2-0.896-2-2v-13c0-1.104 0.895-2 2-2l1.058 0.006c0-1.634 0.497-2.694 1.492-3.807 0.994-1.112 2.229-1.668 3.702-1.668 0.699 0 1.474 0.118 2.323 0.354 0 0 1.847 0.614 3.129 0.614 1.957 0 3.291-0.858 4.001-2.574 0.333-0.825 0.672-1.238 1.017-1.238 0.494 0 0.742 0.23 0.742 0.691 0 0.815-0.441 1.717-1.322 2.703-1.182 1.341-2.638 2.012-4.367 2.012-1.343 0-3.644-0.63-3.644-0.63-0.935-0.226-1.601-0.339-1.998-0.339-0.957 0-1.776 0.408-2.458 1.226s-1.023 1.54-1.023 2.669l19.348-0.019c1.104 0 2 0.896 2 2v13c0 1.104-0.896 2-2 2zM28 14.016c0-0.553-0.448-1-1-1h-22c-0.553 0-1 0.447-1 1v13c0 0.552 0.447 1 1 1h22c0.552 0 1-0.448 1-1v-13zM20.003 21.027h6.018v1.981h-6.018v-1.981zM21.988 18.027h4.021v1.981h-4.021v-1.981zM24.007 15.016h2.003v2.044h-2.003v-2.044zM21.037 15.016h1.961v2.044h-1.961v-2.044zM19.008 18.027h1.981v1.981h-1.981v-1.981zM18.025 15.016h2.002v2.044h-2.002v-2.044zM15.954 18.027h2.044v1.981h-2.044v-1.981zM14.972 15.016h2.044v2.044h-2.044v-2.044zM12.002 15.016h2.023v2.044h-2.023v-2.044zM8.928 15.016h2.065v2.044h-2.065v-2.044zM6 15.016h2.044v2.044h-2.044v-2.044zM12.018 20.009h-6.018v-1.981h6.018v1.981zM8.044 26.053h-2.044v-2.044h2.044v2.044zM6.011 21.027h4.021v1.981h-4.021v-1.981zM11.035 26.053h-2.045v-2.044h2.045v2.044zM16.004 23.009h-2.045v-1.981h2.045v1.981zM13.013 23.009h-2.044v-1.981h2.044v1.981zM15.008 20.009h-2.045v-1.981h2.045v1.981zM18.994 21.027v1.981h-1.981v-1.981h1.981zM20.007 26.053h-7.963v-2.044h7.963v2.044zM22.998 26.053h-2.045v-2.044h2.045v2.044zM25.988 26.053h-1.981v-2.044h1.981v2.044z"></path>
</svg>
