<?xml version="1.0" encoding="utf-8"?>
<!-- Generated by IcoMoon.io -->
<!DOCTYPE svg PUBLIC "-//W3C//DTD SVG 1.1//EN" "http://www.w3.org/Graphics/SVG/1.1/DTD/svg11.dtd">
<svg version="1.1" xmlns="http://www.w3.org/2000/svg" xmlns:xlink="http://www.w3.org/1999/xlink" width="24" height="24" viewBox="0 0 24 24">
<path fill="#444444" d="M12 14c2.764 0 5-2.238 5-5s-2.236-5-5-5-5 2.238-5 5 2.236 5 5 5zM12 6c1.654 0 3 1.346 3 3s-1.346 3-3 3-3-1.346-3-3 1.346-3 3-3z"></path>
<path fill="#444444" d="M20 15c1.381 0 2.5-1.117 2.5-2.5 0-1.381-1.119-2.5-2.5-2.5s-2.5 1.119-2.5 2.5c0 1.383 1.118 2.5 2.5 2.5zM20 11c0.827 0 1.5 0.673 1.5 1.5s-0.673 1.5-1.5 1.5-1.5-0.673-1.5-1.5 0.673-1.5 1.5-1.5z"></path>
<path fill="#444444" d="M20 15.59c-1.331 0-2.332 0.406-2.917 0.969-1.115-0.918-2.878-1.559-5.083-1.559-2.266 0-3.995 0.648-5.092 1.564-0.596-0.565-1.608-0.975-2.908-0.975-2.188 0-3.5 1.091-3.5 2.183 0 0.545 1.312 1.092 3.5 1.092 0.604 0 1.146-0.051 1.623-0.133-0.010 0.090-0.040 0.18-0.040 0.27 0 1 2.405 2 6.417 2 3.762 0 6.417-1 6.417-2 0-0.085-0.011-0.17-0.021-0.255 0.463 0.073 0.996 0.118 1.604 0.118 2.051 0 3.5-0.547 3.5-1.092 0-1.092-1.373-2.182-3.5-2.182zM4 17.863c-1.309 0-2.068-0.207-2.417-0.354 0.239-0.405 1.003-0.92 2.417-0.92 1.107 0 1.837 0.351 2.208 0.706-0.084 0.114-0.169 0.227-0.235 0.344-0.452 0.119-1.108 0.224-1.973 0.224zM12 19c-2.163 0-3.501-0.312-4.184-0.561 0.521-0.678 1.918-1.439 4.184-1.439 2.169 0 3.59 0.761 4.148 1.425-0.755 0.27-2.162 0.575-4.148 0.575zM20 17.863c-0.914 0-1.546-0.103-1.973-0.213-0.072-0.127-0.155-0.252-0.248-0.375 0.356-0.345 1.071-0.685 2.221-0.685 1.324 0 2.141 0.501 2.404 0.911-0.39 0.163-1.205 0.362-2.404 0.362z"></path>
<path fill="#444444" d="M4 15c1.381 0 2.5-1.119 2.5-2.5 0-1.379-1.119-2.5-2.5-2.5s-2.5 1.121-2.5 2.5c0 1.381 1.118 2.5 2.5 2.5zM4 11c0.827 0 1.5 0.673 1.5 1.5s-0.673 1.5-1.5 1.5-1.5-0.673-1.5-1.5 0.673-1.5 1.5-1.5z"></path>
</svg>
