<?xml version="1.0" encoding="UTF-8"?>
<!DOCTYPE svg PUBLIC "-//W3C//DTD SVG 1.1//EN" "http://www.w3.org/Graphics/SVG/1.1/DTD/svg11.dtd">
<!-- Creator: CorelDRAW X8 -->
<svg xmlns="http://www.w3.org/2000/svg" xml:space="preserve" width="1.08212in" height="1.08212in" version="1.1" style="shape-rendering:geometricPrecision; text-rendering:geometricPrecision; image-rendering:optimizeQuality; fill-rule:evenodd; clip-rule:evenodd"
viewBox="0 0 1156 1156"
 xmlns:xlink="http://www.w3.org/1999/xlink">
 <defs>
  <style type="text/css">
   <![CDATA[
    .fil0 {fill:black}
   ]]>
  </style>
 </defs>
 <g id="Layer_x0020_1">
  <metadata id="CorelCorpID_0Corel-Layer"/>
  <g id="_133325632192">
   <path class="fil0" d="M470 411c0,32 20,69 44,85 6,3 10,4 10,10l0 650 111 0 0 -650c0,-8 9,-8 23,-22 8,-8 13,-16 18,-27 23,-46 9,-103 -26,-131 -82,-63 -180,-2 -180,85z"/>
   <path class="fil0" d="M910 76c9,11 19,20 27,30 29,38 47,58 68,106 54,121 61,273 0,393 -26,52 -30,60 -66,106 -6,6 -9,8 -14,15 -6,7 -8,10 -15,15l76 77c13,-9 25,-25 34,-35l44 -58c4,-7 9,-14 13,-20 41,-71 79,-175 79,-260l0 -68c0,-73 -29,-168 -55,-218 -18,-38 -38,-72 -65,-104 -12,-16 -34,-45 -49,-55l-77 76z"/>
   <path class="fil0" d="M0 409c0,89 22,174 50,236 15,32 33,66 53,93 10,14 19,28 31,41 8,9 31,32 33,39 10,-3 15,-11 21,-18 7,-7 12,-12 19,-19 11,-10 32,-30 39,-40 -11,-18 -40,-40 -72,-95l-28 -56c-49,-118 -48,-267 8,-379l19 -38c28,-50 61,-78 73,-96l-75 -76c-12,7 -25,25 -35,36 -18,18 -46,61 -60,85 -8,14 -17,32 -24,47 -32,66 -52,161 -52,240z"/>
   <path class="fil0" d="M745 242c2,5 17,21 25,32l16 25c36,67 35,139 6,208 -13,32 -33,48 -47,69l77 77 39 -47c12,-17 22,-36 31,-55 10,-19 16,-40 22,-64 5,-18 9,-57 10,-76 0,-9 -2,-11 -2,-18 -2,-23 0,-28 -7,-59 -5,-20 -13,-46 -21,-64l-31 -55c-8,-12 -30,-41 -41,-48 -10,3 -73,69 -77,75z"/>
   <path class="fil0" d="M235 409c0,53 13,103 31,141 6,12 7,18 14,28 5,10 10,18 16,27 12,15 26,36 41,45l76 -75c-13,-20 -21,-18 -45,-65 -40,-79 -25,-193 32,-252 5,-5 10,-11 13,-16l-76 -75c-14,9 -30,32 -41,46 -6,9 -11,17 -16,26 -6,11 -8,18 -14,29 -18,34 -31,90 -31,141z"/>
  </g>
 </g>
</svg>
