<?xml version="1.0" encoding="utf-8"?>
<!-- Generated by IcoMoon.io -->
<!DOCTYPE svg PUBLIC "-//W3C//DTD SVG 1.1//EN" "http://www.w3.org/Graphics/SVG/1.1/DTD/svg11.dtd">
<svg version="1.1" xmlns="http://www.w3.org/2000/svg" xmlns:xlink="http://www.w3.org/1999/xlink" width="24" height="24" viewBox="0 0 24 24">
<path fill="#444444" d="M13 6h-6v2h6v-2zM16 9h-9v1h9v-1zM16 11h-9v1h9v-1zM20 12.001v-11.001h-17v11.033l-2-1.033v13h21v-12.992l-2 0.993zM5 3h13v9.909l-2 1.072v-0.981h-9v1h8.965l-4.492 2.408-6.473-3.343v-10.065zM3 22v-7.866l14.651 7.866h-14.651zM20 20.949l-6.378-3.407 6.378-3.408v6.815z"></path>
</svg>
