<?xml version="1.0" encoding="utf-8"?>
<!-- Generated by IcoMoon.io -->
<!DOCTYPE svg PUBLIC "-//W3C//DTD SVG 1.1//EN" "http://www.w3.org/Graphics/SVG/1.1/DTD/svg11.dtd">
<svg version="1.1" xmlns="http://www.w3.org/2000/svg" xmlns:xlink="http://www.w3.org/1999/xlink" width="32" height="32" viewBox="0 0 32 32">
<path fill="#444444" d="M32 10l-6-6v4h-12v4h12v4l6-6zM22 20h-16v-18h16v4h2s0-3 0-4-1-2-2-2-19 0-20 0-2 1-2 2 0 23 0 24 1 2 2 2 4 0 4 0v4l3-3 3 3v-4s9 0 10 0 2-1 2-2 0-12 0-12h-2v6zM22 25c0 0.469-0.469 1-1 1s-9 0-9 0v-2h-6v2s-2.469 0-3 0-1-0.5-1-1 0-3 0-3h20s0 2.531 0 3zM10 8h-2v2h2v-2zM10 4h-2v2h2v-2zM10 12h-2v2h2v-2zM8 18h2v-2h-2v2z"></path>
</svg>
