<?xml version="1.0" encoding="utf-8"?>
<!-- Generated by IcoMoon.io -->
<!DOCTYPE svg PUBLIC "-//W3C//DTD SVG 1.1//EN" "http://www.w3.org/Graphics/SVG/1.1/DTD/svg11.dtd">
<svg version="1.1" xmlns="http://www.w3.org/2000/svg" xmlns:xlink="http://www.w3.org/1999/xlink" width="24" height="24" viewBox="0 0 24 24">
<path fill="#444444" d="M17.138 5.824c-0.449 0-0.905 0.152-1.356 0.453l-2.672 1.781c-0.753 0.503-2.206 0.942-3.11 0.942-1.654 0-3 1.346-3 3v2c0 1.654 1.346 3 3 3 0.904 0 2.357 0.439 3.109 0.941l2.672 1.781c0.451 0.301 0.907 0.453 1.356 0.453 0.898 0.001 1.863-0.68 1.863-2.175v-10c0-1.495-0.965-2.176-1.862-2.176zM14 16.146c-1.093-0.651-2.789-1.146-4-1.146-0.552 0-1-0.448-1-1v-2c0-0.552 0.448-1 1-1 1.211 0 2.907-0.495 4-1.146v6.292zM17 18c0 0.046-0.002 0.086-0.006 0.12-0.030-0.016-0.065-0.036-0.104-0.062l-1.89-1.26v-7.596l1.891-1.261c0.038-0.025 0.073-0.046 0.104-0.062 0.003 0.035 0.005 0.075 0.005 0.121v10z"></path>
</svg>
