<?xml version="1.0" encoding="utf-8"?>
<!-- Generated by IcoMoon.io -->
<!DOCTYPE svg PUBLIC "-//W3C//DTD SVG 1.1//EN" "http://www.w3.org/Graphics/SVG/1.1/DTD/svg11.dtd">
<svg version="1.1" xmlns="http://www.w3.org/2000/svg" xmlns:xlink="http://www.w3.org/1999/xlink" width="32" height="32" viewBox="0 0 32 32">
<path fill="#444444" d="M25.785 4.952h-19.57c-1.235 0-2.236 1.002-2.236 2.236v12.488c0 1.234 1.001 2.236 2.236 2.236h3.729l0.001 5.137 5.704-5.137h10.137c1.236 0 2.236-1.002 2.236-2.236v-12.488c-0.001-1.234-1.001-2.236-2.237-2.236zM10 13.969c-0.553 0-1-0.448-1-1 0-0.553 0.447-1 1-1 0.552 0 1 0.447 1 1 0 0.552-0.448 1-1 1zM14 13.927c-0.553 0-1-0.448-1-1 0-0.553 0.447-1 1-1 0.552 0 1 0.447 1 1 0 0.552-0.448 1-1 1zM18.020 13.948c-0.552 0-1-0.447-1-1 0-0.552 0.448-1 1-1 0.553 0 1 0.448 1 1s-0.448 1-1 1zM22 13.969c-0.553 0-1-0.448-1-1 0-0.553 0.447-1 1-1 0.552 0 1 0.447 1 1 0 0.552-0.448 1-1 1z"></path>
</svg>
