<?xml version="1.0" encoding="utf-8"?>
<!-- Generated by IcoMoon.io -->
<!DOCTYPE svg PUBLIC "-//W3C//DTD SVG 1.1//EN" "http://www.w3.org/Graphics/SVG/1.1/DTD/svg11.dtd">
<svg version="1.1" xmlns="http://www.w3.org/2000/svg" xmlns:xlink="http://www.w3.org/1999/xlink" width="28" height="32" viewBox="0 0 28 32">
<path fill="#444444" d="M26 6h-11c-0.5 0-1-0.5-1-1s0 0 0-1-1-2-2-2h-10c-1 0-2 1-2 2s0 22 0 22h28s0-17 0-18-1-2-2-2zM2 5c0-0.531 0.5-1 1-1h8c0.469 0 1 0.469 1 1s0 1 0 1h-10s0-0.469 0-1zM14 22v-4c-3.906 0-7 1.75-8 6 0-6.531 3.344-10 8-10 0-1.531 0-4 0-4l8 6-8 6z"></path>
</svg>
