<?xml version="1.0" encoding="utf-8"?>
<!-- Generated by IcoMoon.io -->
<!DOCTYPE svg PUBLIC "-//W3C//DTD SVG 1.1//EN" "http://www.w3.org/Graphics/SVG/1.1/DTD/svg11.dtd">
<svg version="1.1" xmlns="http://www.w3.org/2000/svg" xmlns:xlink="http://www.w3.org/1999/xlink" width="18" height="18" viewBox="0 0 18 18">
<path fill="#444444" d="M9 2c-3.263 0-6.525 2.333-9 7 2.475 4.666 5.737 7 9 7s6.525-2.333 9-7c-2.475-4.666-5.737-7-9-7zM9 14c-2.373 0-4.779-1.808-6.703-5 1.924-3.192 4.331-5 6.703-5s4.779 1.808 6.703 5c-1.924 3.192-4.331 5-6.703 5z"></path>
<path fill="#444444" d="M11 9c0 1.105-0.896 2-2 2s-2-0.896-2-2 0.896-2 2-2 2 0.896 2 2z"></path>
</svg>
