<?xml version="1.0" encoding="utf-8"?>
<!-- Generated by IcoMoon.io -->
<!DOCTYPE svg PUBLIC "-//W3C//DTD SVG 1.1//EN" "http://www.w3.org/Graphics/SVG/1.1/DTD/svg11.dtd">
<svg version="1.1" xmlns="http://www.w3.org/2000/svg" xmlns:xlink="http://www.w3.org/1999/xlink" width="24" height="24" viewBox="0 0 24 24">
<path fill="#444444" d="M17 3h-10c-1.654 0-3 1.346-3 3v12c0 1.654 1.346 3 3 3h10c1.654 0 3-1.346 3-3v-12c0-1.654-1.346-3-3-3zM9 5h6v1c0 0.551-0.449 1-1 1h-4c-0.551 0-1-0.449-1-1v-1zM18 18c0 0.551-0.449 1-1 1h-10c-0.551 0-1-0.449-1-1v-12c0-0.551 0.449-1 1-1h1c0 0.262 0 0.601 0 1 0 1.1 0.9 2 2 2h4c1.1 0 2-0.9 2-2 0-0.399 0-0.738 0-1h1c0.551 0 1 0.449 1 1v12z"></path>
<path fill="#444444" d="M16 17h-8c-0.276 0-0.5-0.224-0.5-0.5s0.224-0.5 0.5-0.5h8c0.276 0 0.5 0.224 0.5 0.5s-0.224 0.5-0.5 0.5z"></path>
<path fill="#444444" d="M16 14h-8c-0.276 0-0.5-0.224-0.5-0.5s0.224-0.5 0.5-0.5h8c0.276 0 0.5 0.224 0.5 0.5s-0.224 0.5-0.5 0.5z"></path>
<path fill="#444444" d="M16 11h-8c-0.276 0-0.5-0.224-0.5-0.5s0.224-0.5 0.5-0.5h8c0.276 0 0.5 0.224 0.5 0.5s-0.224 0.5-0.5 0.5z"></path>
</svg>
