<?xml version="1.0" encoding="utf-8"?>
<!-- Generated by IcoMoon.io -->
<!DOCTYPE svg PUBLIC "-//W3C//DTD SVG 1.1//EN" "http://www.w3.org/Graphics/SVG/1.1/DTD/svg11.dtd">
<svg version="1.1" xmlns="http://www.w3.org/2000/svg" xmlns:xlink="http://www.w3.org/1999/xlink" width="18" height="18" viewBox="0 0 18 18">
<path fill="#444444" d="M2.393 8.001l4.318-4.32c0.381-0.381 0.381-1 0-1.382l-0.014-0.014c-0.381-0.382-1-0.382-1.381 0l-4.917 4.918c-0.034 0.026-0.069 0.051-0.101 0.083l-0.014 0.014c-0.193 0.193-0.287 0.447-0.284 0.7-0.002 0.253 0.091 0.507 0.284 0.7l0.014 0.014c0.032 0.031 0.067 0.056 0.101 0.083l4.917 4.918c0.381 0.382 1 0.382 1.381 0l0.014-0.014c0.381-0.381 0.381-1 0-1.382l-4.318-4.319z"></path>
<path fill="#444444" d="M12.996 7.001h-4.604l3.318-3.319c0.381-0.381 0.381-1 0-1.382l-0.014-0.014c-0.381-0.382-1-0.382-1.381 0l-4.917 4.918c-0.034 0.026-0.069 0.051-0.101 0.083l-0.005 0.005c-0.001 0.001-0.002 0.002-0.003 0.004l-0.006 0.005c-0.033 0.034-0.061 0.072-0.088 0.109-0.008 0.011-0.019 0.021-0.027 0.033-0.114 0.166-0.171 0.36-0.17 0.554 0 0.001-0.001 0.003-0.001 0.004s0.001 0.003 0.001 0.004c-0.001 0.194 0.056 0.387 0.17 0.554 0.008 0.011 0.018 0.021 0.026 0.033 0.028 0.037 0.055 0.075 0.089 0.109l0.006 0.005c0.001 0.001 0.002 0.002 0.003 0.003l0.006 0.005c0.031 0.031 0.066 0.056 0.101 0.083l4.917 4.918c0.381 0.382 1 0.382 1.381 0l0.014-0.014c0.381-0.381 0.381-1 0-1.382l-3.318-3.319h4.604c1.654 0 3 1.346 3 3.001v2.998c0 0.552 0.447 1 1 1s1-0.448 1-1v-2.998c0-2.762-2.238-5.001-4.999-5.001z"></path>
</svg>
