<?xml version="1.0" encoding="utf-8"?>
<!-- Generated by IcoMoon.io -->
<!DOCTYPE svg PUBLIC "-//W3C//DTD SVG 1.1//EN" "http://www.w3.org/Graphics/SVG/1.1/DTD/svg11.dtd">
<svg version="1.1" xmlns="http://www.w3.org/2000/svg" xmlns:xlink="http://www.w3.org/1999/xlink" width="18" height="18" viewBox="0 0 18 18">
<path fill="#444444" d="M16 8h-1.083c-0.422-2.512-2.404-4.495-4.917-4.917v-1.083c0-0.552-0.448-1-1-1s-1 0.448-1 1v1.083c-2.512 0.422-4.495 2.404-4.917 4.917h-1.083c-0.552 0-1 0.448-1 1s0.448 1 1 1h1.083c0.422 2.512 2.404 4.495 4.917 4.917v1.083c0 0.552 0.448 1 1 1s1-0.448 1-1v-1.083c2.512-0.422 4.495-2.404 4.917-4.917h1.083c0.552 0 1-0.448 1-1s-0.448-1-1-1zM10 12.873v-0.873c0-0.552-0.448-1-1-1s-1 0.448-1 1v0.873c-1.404-0.363-2.511-1.47-2.873-2.873h0.873c0.552 0 1-0.448 1-1s-0.448-1-1-1h-0.873c0.363-1.404 1.47-2.511 2.873-2.873v0.873c0 0.552 0.448 1 1 1s1-0.448 1-1v-0.873c1.404 0.363 2.511 1.47 2.873 2.873h-0.873c-0.552 0-1 0.448-1 1s0.448 1 1 1h0.873c-0.363 1.404-1.47 2.511-2.873 2.873z"></path>
</svg>
