<?xml version="1.0" encoding="utf-8"?>
<!-- Generated by IcoMoon.io -->
<!DOCTYPE svg PUBLIC "-//W3C//DTD SVG 1.1//EN" "http://www.w3.org/Graphics/SVG/1.1/DTD/svg11.dtd">
<svg version="1.1" xmlns="http://www.w3.org/2000/svg" xmlns:xlink="http://www.w3.org/1999/xlink" width="48" height="48" viewBox="0 0 48 48">
<path fill="#444444" d="M37 38.42c0.93 0.37 1.939 0.58 3 0.58 4.42 0 8-3.58 8-8v-15c0-4.42-3.58-8-8-8-1.061 0-2.070 0.21-3 0.58v-4.58c0-2.21-1.79-4-4-4h-29c-2.21 0-4 1.79-4 4v40c0 2.21 1.79 4 4 4h29c2.21 0 4-1.79 4-4v-5.58zM7.2 5h22.6c1.22 0 2.2 0.98 2.2 2.2v5.6c0 1.22-0.98 2.2-2.2 2.2h-22.6c-1.22 0-2.2-0.98-2.2-2.2v-5.6c0-1.22 0.98-2.2 2.2-2.2zM43 31c0 1.66-1.34 3-3 3s-3-1.34-3-3v-15c0-1.66 1.34-3 3-3s3 1.34 3 3v15z"></path>
</svg>
