<?xml version="1.0" encoding="utf-8"?>
<!-- Generated by IcoMoon.io -->
<!DOCTYPE svg PUBLIC "-//W3C//DTD SVG 1.1//EN" "http://www.w3.org/Graphics/SVG/1.1/DTD/svg11.dtd">
<svg version="1.1" xmlns="http://www.w3.org/2000/svg" xmlns:xlink="http://www.w3.org/1999/xlink" width="27" height="32" viewBox="0 0 27 32">
<path fill="#444444" d="M17.5 1c0.276 0 0.5-0.224 0.5-0.5s-0.224-0.5-0.5-0.5h-9c-0.276 0-0.5 0.224-0.5 0.5s0.224 0.5 0.5 0.5h9zM0.99 27.635c-1.074 1.511-0.954 2.498-0.664 3.060 0.307 0.595 1.107 1.305 3.174 1.305h20c2.067 0 2.867-0.71 3.174-1.306 0.29-0.562 0.41-1.549-0.648-3.034l-6.219-9.95-0.088-0.124c-0.447-0.638-2.719-4.564-2.719-7.836v-7.25c0-0.276-0.224-0.5-0.5-0.5h-7c-0.276 0-0.5 0.224-0.5 0.5v7.25c0 3.491-2.465 7.957-2.493 8.005l-5.517 9.88zM25.786 30.235c-0.251 0.487-1.084 0.765-2.286 0.765h-20c-1.202 0-2.035-0.278-2.286-0.765-0.229-0.444-0.020-1.162 0.62-2.066l4.999-8.948 0.007 0.004c0.91 0.525 1.851 1.068 3.719 1.068s2.81-0.542 3.719-1.066c0.833-0.48 1.619-0.934 3.22-0.934 0.607 0 1.133 0.075 1.617 0.21l6.080 9.712c0.611 0.858 0.82 1.576 0.591 2.020zM10 9.75v-6.75h6v6.75c0 2.84 1.516 6.042 2.404 7.602-0.29-0.033-0.585-0.059-0.905-0.059-1.869 0-2.81 0.542-3.719 1.066-0.833 0.48-1.619 0.934-3.22 0.934s-2.387-0.454-3.219-0.934l-0.019-0.011 0.046-0.082c0.025-0.040 2.632-4.686 2.632-8.516z"></path>
</svg>
