<?xml version="1.0" encoding="utf-8"?>
<!-- Generated by IcoMoon.io -->
<!DOCTYPE svg PUBLIC "-//W3C//DTD SVG 1.1//EN" "http://www.w3.org/Graphics/SVG/1.1/DTD/svg11.dtd">
<svg version="1.1" xmlns="http://www.w3.org/2000/svg" xmlns:xlink="http://www.w3.org/1999/xlink" width="24" height="24" viewBox="0 0 24 24">
<path fill="#444444" d="M6.422 9.797q-3.469-3.469-3.563-3.516l1.406-1.453 3.563 3.563zM12.984 2.016v4.969h-1.969v-4.969h1.969zM21.141 6.281l-3.563 3.516-1.406-1.406 3.563-3.563zM23.719 16.688q0.281 0.281 0.281 0.703t-0.281 0.703l-2.484 2.484q-0.281 0.281-0.703 0.281t-0.703-0.281q-1.313-1.219-2.672-1.875-0.563-0.234-0.563-0.891v-3.094q-2.156-0.703-4.594-0.703t-4.594 0.703v3.094q0 0.703-0.563 0.938-1.5 0.703-2.672 1.828-0.281 0.281-0.703 0.281t-0.703-0.281l-2.484-2.484q-0.281-0.281-0.281-0.703t0.281-0.703q4.922-4.688 11.719-4.688t11.719 4.688z"></path>
</svg>
