<?xml version="1.0" encoding="utf-8"?>
<!-- Generated by IcoMoon.io -->
<!DOCTYPE svg PUBLIC "-//W3C//DTD SVG 1.1//EN" "http://www.w3.org/Graphics/SVG/1.1/DTD/svg11.dtd">
<svg version="1.1" xmlns="http://www.w3.org/2000/svg" xmlns:xlink="http://www.w3.org/1999/xlink" width="32" height="32" viewBox="0 0 32 32">
<path fill="#444444" d="M28 30h-24c-1.104 0-2-0.896-2-2v-21c0-1.104 0.896-2 2-2h2v1c0 1.657 1.343 3 3 3s3-1.343 3-3v-1h8v1c0 1.657 1.344 3 3 3s3-1.343 3-3v-1h2c1.104 0 2 0.896 2 2v21c0 1.104-0.896 2-2 2zM28 12h-24v16h24v-16zM13.069 19.829c0.197-0.314 0.296-0.646 0.296-0.993 0-0.773-0.416-1.16-1.248-1.16-0.723 0-1.414 0.287-2.074 0.861v-1.629c0.73-0.473 1.555-0.709 2.473-0.709 0.859 0 1.53 0.216 2.013 0.647s0.724 1.015 0.724 1.749c0 0.98-0.588 1.994-1.764 3.041l-1.729 1.535v0.035h3.41v1.535h-5.531v-1.441l2.408-2.303c0.484-0.464 0.825-0.853 1.022-1.168zM19.837 23.166c0.264-0.203 0.396-0.486 0.396-0.85 0-0.375-0.163-0.664-0.489-0.867s-0.774-0.305-1.345-0.305h-0.756v-1.418h0.697c1.094 0 1.641-0.363 1.641-1.090 0-0.684-0.42-1.025-1.26-1.025-0.562 0-1.109 0.182-1.641 0.545v-1.512c0.59-0.297 1.277-0.445 2.062-0.445 0.859 0 1.528 0.193 2.007 0.58s0.718 0.889 0.718 1.506c0 1.098-0.557 1.785-1.67 2.062v0.029c0.594 0.074 1.062 0.29 1.406 0.647s0.516 0.796 0.516 1.315c0 0.785-0.287 1.406-0.861 1.863s-1.367 0.686-2.379 0.686c-0.867 0-1.572-0.141-2.115-0.422v-1.611c0.562 0.41 1.219 0.615 1.969 0.615 0.472 0.002 0.84-0.1 1.104-0.303zM22.969 8c-1.088 0-1.969-0.881-1.969-1.969v-2.062c0-1.088 0.881-1.969 1.969-1.969s1.969 0.881 1.969 1.969v2.062c0 1.088-0.881 1.969-1.969 1.969zM8.969 8c-1.088 0-1.969-0.881-1.969-1.969v-2.062c0-1.088 0.881-1.969 1.969-1.969s1.969 0.881 1.969 1.969v2.062c0 1.088-0.882 1.969-1.969 1.969z"></path>
</svg>
