<?xml version="1.0" encoding="utf-8"?>
<!-- Generated by IcoMoon.io -->
<!DOCTYPE svg PUBLIC "-//W3C//DTD SVG 1.1//EN" "http://www.w3.org/Graphics/SVG/1.1/DTD/svg11.dtd">
<svg version="1.1" xmlns="http://www.w3.org/2000/svg" xmlns:xlink="http://www.w3.org/1999/xlink" width="24" height="24" viewBox="0 0 24 24">
<path fill="#444444" d="M19.359 6.656q2.625 2.625 2.625 6.352t-2.625 6.352q-2.578 2.625-6.375 2.625-2.297 0-4.313-1.125l1.5-1.453q1.266 0.609 2.813 0.609 2.906 0 4.969-2.063 2.016-2.016 2.016-4.922t-2.016-4.969q-2.063-2.063-4.969-2.063v3.234l-4.219-4.219 4.219-4.266v3.234q3.797 0 6.375 2.672zM3.703 12.891l3.656 3.656 3.656-3.656-3.656-3.656zM7.359 6.422l6.469 6.469-6.469 6.469-6.516-6.469z"></path>
</svg>
