<?xml version="1.0" encoding="utf-8"?>
<!-- Generated by IcoMoon.io -->
<!DOCTYPE svg PUBLIC "-//W3C//DTD SVG 1.1//EN" "http://www.w3.org/Graphics/SVG/1.1/DTD/svg11.dtd">
<svg version="1.1" xmlns="http://www.w3.org/2000/svg" xmlns:xlink="http://www.w3.org/1999/xlink" width="32" height="32" viewBox="0 0 32 32">
<path fill="#444444" d="M28 0h-24c-0.552 0-1 0.448-1 1v6c0 0.552 0.448 1 1 1h1c0.552 0 1-0.448 1-1l2-3h6v24l-5 2c-0.552 0-1 0.447-1 1s0.448 1 1 1h14c0.553 0 1-0.447 1-1s-0.447-1-1-1l-5-2v-24h6l2 3c0 0.552 0.447 1 1 1h1c0.553 0 1-0.448 1-1v-6c0-0.552-0.447-1-1-1z"></path>
</svg>
