<?xml version="1.0" encoding="utf-8"?>
<!-- Generated by IcoMoon.io -->
<!DOCTYPE svg PUBLIC "-//W3C//DTD SVG 1.1//EN" "http://www.w3.org/Graphics/SVG/1.1/DTD/svg11.dtd">
<svg version="1.1" xmlns="http://www.w3.org/2000/svg" xmlns:xlink="http://www.w3.org/1999/xlink" width="24" height="24" viewBox="0 0 24 24">
<path fill="#444444" d="M17 4h-9c-0.55 0-1 0.45-1 1v12c0 0.55 0.45 1 1 1h3.5c0 0.553 0.448 1 1 1s1-0.447 1-1h3.5c0.55 0 1-0.45 1-1v-12c0-0.55-0.45-1-1-1zM17 17h-9v-12h9v12z"></path>
<path fill="#444444" d="M18 1h-11c-1.654 0-3 1.346-3 3v15c0 1.654 1.346 3 3 3h11c1.654 0 3-1.346 3-3v-15c0-1.654-1.346-3-3-3zM19 19c0 0.551-0.449 1-1 1h-11c-0.551 0-1-0.449-1-1v-15c0-0.551 0.449-1 1-1h11c0.551 0 1 0.449 1 1v15z"></path>
</svg>
