<?xml version="1.0" encoding="utf-8"?>
<!-- Generated by IcoMoon.io -->
<!DOCTYPE svg PUBLIC "-//W3C//DTD SVG 1.1//EN" "http://www.w3.org/Graphics/SVG/1.1/DTD/svg11.dtd">
<svg version="1.1" xmlns="http://www.w3.org/2000/svg" xmlns:xlink="http://www.w3.org/1999/xlink" width="32" height="32" viewBox="0 0 32 32">
<path fill="#444444" d="M26.573 14.5h1.927v3h-1.927c-0.131 0.956-0.374 1.876-0.734 2.737l1.669 0.964-1.5 2.598-1.698-0.98c-0.583 0.736-1.26 1.392-2.011 1.958l1 1.731-2.598 1.5-1.021-1.767c-0.849 0.331-1.745 0.562-2.681 0.673v2.086h-3v-2.143c-0.912-0.141-1.791-0.381-2.614-0.731l-1.087 1.882-2.598-1.5 1.113-1.928c-0.697-0.559-1.319-1.203-1.862-1.913l-1.961 1.132-1.5-2.598 1.979-1.143c-0.321-0.811-0.546-1.668-0.668-2.559h-2.301v-3h2.302c0.122-0.892 0.347-1.749 0.668-2.559l-1.979-1.143 1.5-2.598 1.961 1.132c0.543-0.71 1.165-1.354 1.862-1.914l-1.113-1.925 2.598-1.5 1.087 1.882c0.823-0.35 1.702-0.591 2.614-0.731v-2.143h3v2.085c0.936 0.111 1.832 0.342 2.681 0.673l1.021-1.767 2.598 1.5-1 1.732c0.751 0.566 1.428 1.222 2.011 1.958l1.698-0.98 1.5 2.598-1.669 0.964c0.359 0.861 0.602 1.781 0.733 2.737zM15.491 9.491c-3.59 0-6.5 2.91-6.5 6.5s2.91 6.5 6.5 6.5 6.5-2.91 6.5-6.5-2.91-6.5-6.5-6.5zM15.5 18.5c-1.381 0-2.5-1.119-2.5-2.5s1.119-2.5 2.5-2.5 2.5 1.119 2.5 2.5-1.119 2.5-2.5 2.5z"></path>
</svg>
