<?xml version="1.0" encoding="utf-8"?>
<!-- Generated by IcoMoon.io -->
<!DOCTYPE svg PUBLIC "-//W3C//DTD SVG 1.1//EN" "http://www.w3.org/Graphics/SVG/1.1/DTD/svg11.dtd">
<svg version="1.1" xmlns="http://www.w3.org/2000/svg" xmlns:xlink="http://www.w3.org/1999/xlink" width="24" height="32" viewBox="0 0 24 32">
<path fill="#444444" d="M4 20c-2.208 0-4 1.793-4 4s1.792 4 4 4 4-1.793 4-4-1.792-4-4-4zM4 12c0 0-2 0.063-2 2s2 2 2 2c4.418 0 8 3.582 8 8 0 0 0 2 2 2s2-2 2-2c0-6.625-5.374-12-12-12zM4 4c0 0-2 0-2 2s2 2 2 2c8.836 0 16 7.164 16 16 0 0 0 2 2 2s2-2 2-2c0-11.044-8.953-20-20-20z"></path>
</svg>
