<?xml version="1.0" encoding="utf-8"?>
<!-- Generated by IcoMoon.io -->
<!DOCTYPE svg PUBLIC "-//W3C//DTD SVG 1.1//EN" "http://www.w3.org/Graphics/SVG/1.1/DTD/svg11.dtd">
<svg version="1.1" xmlns="http://www.w3.org/2000/svg" xmlns:xlink="http://www.w3.org/1999/xlink" width="24" height="24" viewBox="0 0 24 24">
<path fill="#444444" d="M19.885 6.177c-0.221-0.771-0.728-1.409-1.427-1.798-0.445-0.248-0.949-0.379-1.457-0.379-0.862 0-1.661 0.381-2.219 1h-6.782c-1.654 0-3 1.346-3 3v8c0 1.654 1.346 3 3 3h8c1.654 0 3-1.346 3-3v-6.454l0.622-1.088c0.39-0.7 0.482-1.51 0.263-2.281zM16.127 6.515c0.104-0.189 0.27-0.328 0.459-0.416 0.301-0.113 0.623-0.127 0.9 0.027 0.232 0.13 0.402 0.343 0.476 0.6 0.033 0.117 0.039 0.236 0.030 0.353-0.012 0.115-0.043 0.227-0.092 0.332-0.010 0.021-0.010 0.045-0.021 0.065l-4.006 7.011c-0.151 0.273-0.427 0.461-0.742 0.506-0.044 0.006-0.088 0.009-0.132 0.009-0.267 0-0.518-0.104-0.707-0.293l-3-3c-0.39-0.39-0.39-1.024 0-1.414 0.189-0.189 0.44-0.293 0.707-0.293s0.518 0.104 0.707 0.293l2.045 2.045 3.376-5.825zM16 17h-8c-0.552 0-1-0.449-1-1v-8c0-0.551 0.448-1 1-1h6.689l-2.15 3.712-1.125-1.125c-0.391-0.391-0.902-0.586-1.414-0.586s-1.023 0.195-1.414 0.586c-0.781 0.781-0.781 2.047 0 2.828l3 3c0.378 0.378 0.888 0.586 1.414 0.586 0.092 0 0.185-0.006 0.277-0.020 0.621-0.087 1.166-0.461 1.471-1.010l2.252-3.94v4.969c0 0.551-0.448 1-1 1z"></path>
</svg>
