<?xml version="1.0" encoding="utf-8"?>
<!-- Generated by IcoMoon.io -->
<!DOCTYPE svg PUBLIC "-//W3C//DTD SVG 1.1//EN" "http://www.w3.org/Graphics/SVG/1.1/DTD/svg11.dtd">
<svg version="1.1" xmlns="http://www.w3.org/2000/svg" xmlns:xlink="http://www.w3.org/1999/xlink" width="32" height="32" viewBox="0 0 32 32">
<path fill="#444444" d="M11 0h-6c-0.553 0-1 0.448-1 1v30c0 0.553 0.447 1 1 1h6c0.553 0 1-0.447 1-1v-30c0-0.552-0.447-1-1-1zM27 0h-6c-0.553 0-1 0.448-1 1v30c0 0.553 0.447 1 1 1h6c0.553 0 1-0.447 1-1v-30c0-0.552-0.447-1-1-1z"></path>
</svg>
