<?xml version="1.0" encoding="utf-8"?>
<!-- Generated by IcoMoon.io -->
<!DOCTYPE svg PUBLIC "-//W3C//DTD SVG 1.1//EN" "http://www.w3.org/Graphics/SVG/1.1/DTD/svg11.dtd">
<svg version="1.1" xmlns="http://www.w3.org/2000/svg" xmlns:xlink="http://www.w3.org/1999/xlink" width="24" height="24" viewBox="0 0 24 24">
<path fill="#444444" d="M20.486 3.516c-2.172-2.172-5.172-3.516-8.486-3.516-3.312 0-6.312 1.344-8.484 3.516s-3.516 5.172-3.516 8.484c0 3.314 1.344 6.314 3.516 8.486 2.172 2.17 5.172 3.514 8.484 3.514 3.314 0 6.314-1.344 8.486-3.514 2.17-2.172 3.514-5.172 3.514-8.486 0-3.312-1.344-6.312-3.514-8.484zM16 12c0 1.104-0.449 2.104-1.172 2.828-0.724 0.723-1.724 1.172-2.828 1.172-1.102 0-2.102-0.449-2.826-1.172-0.725-0.724-1.174-1.724-1.174-2.828 0-1.102 0.449-2.102 1.174-2.826s1.724-1.174 2.826-1.174c1.104 0 2.104 0.449 2.828 1.174 0.723 0.724 1.172 1.724 1.172 2.826zM2 12c0-2.756 1.121-5.256 2.932-7.068l2.826 2.826c-1.086 1.086-1.758 2.586-1.758 4.242s0.672 3.156 1.758 4.242l-2.826 2.826c-1.811-1.81-2.932-4.31-2.932-7.068zM19.068 19.068l-2.826-2.826c1.086-1.086 1.758-2.586 1.758-4.242s-0.672-3.156-1.758-4.242l2.826-2.826c1.811 1.812 2.932 4.312 2.932 7.068 0 2.758-1.121 5.258-2.932 7.068z"></path>
</svg>
