<?xml version="1.0" encoding="utf-8"?>
<!-- Generated by IcoMoon.io -->
<!DOCTYPE svg PUBLIC "-//W3C//DTD SVG 1.1//EN" "http://www.w3.org/Graphics/SVG/1.1/DTD/svg11.dtd">
<svg version="1.1" xmlns="http://www.w3.org/2000/svg" xmlns:xlink="http://www.w3.org/1999/xlink" width="24" height="24" viewBox="0 0 24 24">
<path fill="#444444" d="M13.839 17.525c-0.006 0.002-0.559 0.186-1.039 0.186-0.265 0-0.372-0.055-0.406-0.079-0.168-0.117-0.48-0.336 0.054-1.4l1-1.994c0.593-1.184 0.681-2.329 0.245-3.225-0.356-0.733-1.039-1.236-1.92-1.416-0.317-0.065-0.639-0.097-0.958-0.097-1.849 0-3.094 1.080-3.146 1.126-0.179 0.158-0.221 0.42-0.102 0.626 0.12 0.206 0.367 0.3 0.595 0.222 0.005-0.002 0.559-0.187 1.039-0.187 0.263 0 0.369 0.055 0.402 0.078 0.169 0.118 0.482 0.34-0.051 1.402l-1 1.995c-0.594 1.185-0.681 2.33-0.245 3.225 0.356 0.733 1.038 1.236 1.921 1.416 0.314 0.063 0.636 0.097 0.954 0.097 1.85 0 3.096-1.080 3.148-1.126 0.179-0.157 0.221-0.42 0.102-0.626-0.12-0.205-0.369-0.297-0.593-0.223z"></path>
<path fill="#444444" d="M15.5 6.001c0 1.381-1.119 2.5-2.5 2.5s-2.5-1.119-2.5-2.5c0-1.381 1.119-2.5 2.5-2.5s2.5 1.119 2.5 2.5z"></path>
</svg>
