<?xml version="1.0" encoding="utf-8"?>
<!-- Generated by IcoMoon.io -->
<!DOCTYPE svg PUBLIC "-//W3C//DTD SVG 1.1//EN" "http://www.w3.org/Graphics/SVG/1.1/DTD/svg11.dtd">
<svg version="1.1" xmlns="http://www.w3.org/2000/svg" xmlns:xlink="http://www.w3.org/1999/xlink" width="32" height="32" viewBox="0 0 32 32">
<path fill="#444444" d="M32 32h-4.57c0-15.125-12.305-27.428-27.43-27.428v-4.572c17.641 0 32 14.355 32 32v0zM22.855 32h-4.57c0-10.082-8.207-18.285-18.285-18.285v-4.572c12.602 0 22.855 10.255 22.855 22.857v0zM13.715 32h-4.574c0-5.043-4.098-9.141-9.141-9.141v-4.574c7.562 0 13.715 6.153 13.715 13.715v0zM4.57 32c0-2.523-2.043-4.57-4.57-4.57v4.57h4.57z"></path>
</svg>
