<?xml version="1.0" encoding="utf-8"?>
<!-- Generated by IcoMoon.io -->
<!DOCTYPE svg PUBLIC "-//W3C//DTD SVG 1.1//EN" "http://www.w3.org/Graphics/SVG/1.1/DTD/svg11.dtd">
<svg version="1.1" xmlns="http://www.w3.org/2000/svg" xmlns:xlink="http://www.w3.org/1999/xlink" width="48" height="48" viewBox="0 0 48 48">
<path fill="#444444" d="M1.79 33.080c5.020 12.27 19.030 18.141 31.29 13.13 12.27-5.021 18.141-19.029 13.13-31.29-5.021-12.27-19.030-18.14-31.29-13.13-12.27 5.021-18.14 19.030-13.13 31.29zM6.58 31.12l6.42-2.62c1.24 3.040 3.6 5.28 6.4 6.46l-2.68 6.39c-4.44-1.86-8.17-5.419-10.14-10.23zM31.13 41.42l-2.63-6.42c3.040-1.24 5.279-3.6 6.46-6.41l6.39 2.69c-1.86 4.441-5.42 8.17-10.22 10.14zM41.42 16.87l-6.42 2.63c-1.24-3.040-3.6-5.279-6.4-6.46l2.68-6.39c4.441 1.86 8.17 5.42 10.14 10.22zM16.88 6.58l2.62 6.42c-3.040 1.24-5.28 3.6-6.46 6.41l-6.39-2.689c1.86-4.441 5.42-8.171 10.23-10.141zM17.58 26.62c-1.45-3.54 0.25-7.59 3.8-9.040 3.54-1.45 7.591 0.25 9.040 3.79 1.45 3.55-0.25 7.601-3.79 9.050-3.55 1.45-7.6-0.25-9.050-3.8z"></path>
</svg>
