<?xml version="1.0" encoding="utf-8"?>
<!-- Generated by IcoMoon.io -->
<!DOCTYPE svg PUBLIC "-//W3C//DTD SVG 1.1//EN" "http://www.w3.org/Graphics/SVG/1.1/DTD/svg11.dtd">
<svg version="1.1" xmlns="http://www.w3.org/2000/svg" xmlns:xlink="http://www.w3.org/1999/xlink" width="24" height="24" viewBox="0 0 24 24">
<path fill="#444444" d="M16.5 15.984q1.031 0 1.758-0.727t0.727-1.758-0.727-1.758-1.758-0.727h-0.516q0-1.641-1.172-2.836t-2.813-1.195q-1.406 0-2.461 0.867t-1.383 2.18l-0.141-0.047q-1.219 0-2.109 0.891t-0.891 2.109 0.891 2.109 2.109 0.891h8.484zM12 2.016q4.125 0 7.055 2.93t2.93 7.055-2.93 7.055-7.055 2.93-7.055-2.93-2.93-7.055 2.93-7.055 7.055-2.93z"></path>
</svg>
