<?xml version="1.0" encoding="utf-8"?>
<!-- Generated by IcoMoon.io -->
<!DOCTYPE svg PUBLIC "-//W3C//DTD SVG 1.1//EN" "http://www.w3.org/Graphics/SVG/1.1/DTD/svg11.dtd">
<svg version="1.1" xmlns="http://www.w3.org/2000/svg" xmlns:xlink="http://www.w3.org/1999/xlink" width="24" height="24" viewBox="0 0 24 24">
<path fill="#444444" d="M20 11.25v-1.75c0-1.93-1.57-3.5-3.5-3.5h-0.759c-0.141-1.982-1.953-3.5-4.241-3.5s-4.1 1.518-4.241 3.5h-0.759c-1.93 0-3.5 1.57-3.5 3.5v1.75c0 1.012 0.514 1.847 1.295 2.246-0.358 0.188-0.668 0.469-0.894 0.825-0.262 0.414-0.401 0.908-0.401 1.429v2.75c0 1.93 1.57 3.5 3.5 3.5h2.75c0.976 0 1.831-0.497 2.242-1.299 0.013 0.024 0.024 0.046 0.036 0.066 0.435 0.772 1.266 1.233 2.222 1.233h2.75c1.93 0 3.5-1.57 3.5-3.5v-2.75c0-1.013-0.515-1.849-1.297-2.247 0.776-0.411 1.297-1.256 1.297-2.253zM18 18.5c0 0.825-0.675 1.5-1.5 1.5h-2.75c-0.356 0-0.724-0.216-0.391-0.766 0.246-0.28 0.391-0.619 0.391-0.984 0-0.967-1.007-1.75-2.25-1.75s-2.25 0.783-2.25 1.75c0 0.3 0.095 0.576 0.255 0.823 0.507 0.673 0.136 0.927-0.255 0.927h-2.75c-0.825 0-1.5-0.675-1.5-1.5v-2.75c0-0.258 0.113-0.521 0.384-0.521 0.104 0 0.229 0.039 0.382 0.13 0.28 0.246 0.62 0.391 0.984 0.391 0.966 0 1.75-1.008 1.75-2.25s-0.784-2.25-1.75-2.25c-0.3 0-0.576 0.095-0.822 0.255-0.237 0.171-0.422 0.243-0.562 0.243-0.26 0-0.366-0.245-0.366-0.498v-1.75c0-0.825 0.675-1.5 1.5-1.5h2.75c0.391 0 0.762-0.254 0.243-0.927-0.148-0.247-0.243-0.523-0.243-0.823 0-0.967 1.007-1.75 2.25-1.75s2.25 0.783 2.25 1.75c0 0.365-0.145 0.704-0.391 0.984-0.333 0.55 0.035 0.766 0.391 0.766h2.75c0.825 0 1.5 0.675 1.5 1.5v1.75c0 0.258-0.113 0.521-0.384 0.521-0.104 0-0.229-0.039-0.382-0.13-0.28-0.246-0.62-0.391-0.984-0.391-0.966 0-1.75 1.008-1.75 2.25s0.784 2.25 1.75 2.25c0.3 0 0.576-0.095 0.822-0.255 0.237-0.171 0.422-0.244 0.562-0.243 0.259 0 0.365 0.245 0.365 0.498v2.75zM5 12.694c0.116 0.032 0.236 0.054 0.365 0.054 0.342 0 0.683-0.119 1.038-0.364 0.023-0.013 0.047-0.026 0.069-0.041 0.097-0.063 0.188-0.093 0.278-0.093 0.354 0 0.75 0.535 0.75 1.25s-0.396 1.25-0.75 1.25c-0.108 0-0.217-0.048-0.324-0.142-0.045-0.039-0.092-0.074-0.143-0.104-0.301-0.183-0.604-0.275-0.899-0.275-0.134 0-0.261 0.023-0.384 0.059v-1.594zM17.635 14.252c-0.342 0-0.683 0.119-1.038 0.364-0.023 0.013-0.047 0.026-0.069 0.041-0.097 0.063-0.188 0.093-0.277 0.093-0.354 0-0.75-0.535-0.75-1.25s0.396-1.25 0.75-1.25c0.108 0 0.217 0.048 0.324 0.142 0.045 0.039 0.092 0.074 0.143 0.104 0.302 0.183 0.604 0.275 0.899 0.275 0.136 0 0.262-0.025 0.384-0.062v1.597c-0.117-0.032-0.237-0.054-0.366-0.054zM10.692 20c0.101-0.346 0.093-0.816-0.305-1.396-0.014-0.025-0.028-0.050-0.044-0.074-0.062-0.098-0.094-0.189-0.094-0.279 0-0.354 0.534-0.75 1.25-0.75s1.25 0.396 1.25 0.75c0 0.108-0.048 0.217-0.143 0.325-0.038 0.044-0.073 0.091-0.104 0.142-0.325 0.537-0.311 0.979-0.22 1.284h-1.59z"></path>
</svg>
