<?xml version="1.0" encoding="UTF-8"?>
<!DOCTYPE svg PUBLIC "-//W3C//DTD SVG 1.1//EN" "http://www.w3.org/Graphics/SVG/1.1/DTD/svg11.dtd">
<!-- Creator: CorelDRAW X8 -->
<svg xmlns="http://www.w3.org/2000/svg" xml:space="preserve" width="2.57837in" height="3.02646in" version="1.1" style="shape-rendering:geometricPrecision; text-rendering:geometricPrecision; image-rendering:optimizeQuality; fill-rule:evenodd; clip-rule:evenodd"
viewBox="0 0 1057 1241"
 xmlns:xlink="http://www.w3.org/1999/xlink">
 <defs>
  <style type="text/css">
   <![CDATA[
    .fil0 {fill:black}
   ]]>
  </style>
 </defs>
 <g id="Layer_x0020_1">
  <metadata id="CorelCorpID_0Corel-Layer"/>
  <g id="_134485457664">
   <path class="fil0" d="M778 807c0,-109 139,-88 139,-12 0,75 -75,94 -117,56 -10,-8 -22,-27 -22,-44zm-140 434l419 0c0,-17 -92,-461 -97,-475 -8,-22 -22,-42 -40,-55 -31,-23 -72,-31 -110,-18 -36,12 -60,35 -74,71 -9,23 -73,351 -82,396l-16 81z"/>
   <path class="fil0" d="M206 211c3,8 8,11 14,18l274 334c50,57 109,133 159,192 5,6 11,15 16,18 8,-16 13,-66 60,-103 34,-26 68,-45 117,-45 9,0 31,3 37,5 -4,-9 -68,-58 -76,-65l-270 -222c-48,-38 -242,-203 -270,-222 -3,7 -6,19 -9,28 -5,12 -6,15 -13,25 -8,12 -24,33 -39,37z"/>
   <path class="fil0" d="M122 51c34,0 55,12 55,51 0,54 -91,62 -95,-1 -1,-13 3,-24 10,-34 5,-6 19,-16 30,-16zm0 -51l17 0c18,2 36,8 50,20 14,12 24,21 32,41 13,35 9,69 -15,98 -18,22 -25,22 -46,32l0 148c29,7 55,26 71,46 68,86 6,210 -102,210 -107,0 -150,-124 -119,-152 4,-4 12,-9 20,-9 39,0 31,39 40,59 17,39 73,54 108,17 37,-39 12,-107 -42,-110 -47,-3 -39,-39 -39,-87 0,-42 0,-83 0,-124 -16,-1 -36,-19 -44,-30 -21,-27 -21,-39 -21,-72 0,-21 17,-47 28,-59 17,-17 40,-26 62,-28z"/>
  </g>
 </g>
</svg>
