<?xml version="1.0" encoding="utf-8"?>
<!-- Generated by IcoMoon.io -->
<!DOCTYPE svg PUBLIC "-//W3C//DTD SVG 1.1//EN" "http://www.w3.org/Graphics/SVG/1.1/DTD/svg11.dtd">
<svg version="1.1" xmlns="http://www.w3.org/2000/svg" xmlns:xlink="http://www.w3.org/1999/xlink" width="24" height="24" viewBox="0 0 24 24">
<path fill="#444444" d="M21.422 9.594l-6.465-6.535c-1.329-1.33-3.087-2.059-4.957-2.059s-3.628 0.729-4.95 2.051c-1.416 1.414-2.127 3.356-2.027 5.314-0.662 1.085-1.023 2.33-1.023 3.634 0 1.87 0.729 3.628 2.051 4.95l3.053 2.984 3.482 3.48c0.391 0.392 0.902 0.587 1.414 0.587s1.023-0.195 1.414-0.586l7-7c0.778-0.778 0.782-2.038 0.008-2.82l-0.093-0.094 1.085-1.086c0.778-0.778 0.782-2.038 0.008-2.82zM12 22l-3.498-3.497-3.037-2.968c-1.953-1.953-1.953-5.119 0-7.070 0.976-0.977 2.256-1.465 3.535-1.465s2.559 0.488 3.535 1.465l6.465 6.535-7 7zM13.957 7.059c-1.329-1.33-3.087-2.059-4.957-2.059-1.276 0-2.497 0.347-3.565 0.982 0.241-0.55 0.579-1.067 1.030-1.518 0.976-0.976 2.256-1.464 3.535-1.464s2.559 0.488 3.535 1.465l6.465 6.535-1.078 1.078-4.965-5.019z"></path>
<path fill="#444444" d="M9 10.499c0.83 0 1.5 0.672 1.5 1.501s-0.67 1.499-1.5 1.499-1.5-0.669-1.5-1.499c0-0.829 0.67-1.501 1.5-1.501zM9 9.499c-1.378 0-2.5 1.122-2.5 2.501s1.122 2.499 2.5 2.499 2.5-1.121 2.5-2.499c0-1.379-1.122-2.501-2.5-2.501z"></path>
</svg>
