<?xml version="1.0" encoding="utf-8"?>
<!-- Generated by IcoMoon.io -->
<!DOCTYPE svg PUBLIC "-//W3C//DTD SVG 1.1//EN" "http://www.w3.org/Graphics/SVG/1.1/DTD/svg11.dtd">
<svg version="1.1" xmlns="http://www.w3.org/2000/svg" xmlns:xlink="http://www.w3.org/1999/xlink" width="23" height="32" viewBox="0 0 23 32">
<path fill="#444444" d="M22.802 7.661c0-2.253-0.687-5.534-1.999-7.444-0.093-0.136-0.247-0.217-0.412-0.217h-17.98c-0.165 0-0.319 0.081-0.412 0.217-1.312 1.912-1.999 5.192-1.999 7.444 0 5.932 4.73 12.529 11 12.869v8.47h-4.099c-1.141-0.075-2 0.784-2 1.925v0.575c0 0.276 0.224 0.5 0.5 0.5h12c0.276 0 0.5-0.224 0.5-0.5v-0.5c0-1.164-0.879-2.075-2-2h-3.901v-8.47c6.27-0.34 10.802-6.937 10.802-12.869zM16.901 31h-11v-0.075c0-0.589 0.411-1 1-1h9c0.571 0 1 0.462 1 1.075zM2.682 1h17.438c1.053 1.692 1.631 4.47 1.673 6.428-0.845-0.196-1.746-0.31-2.77-0.31-3.161 0-4.759 0.921-6.305 1.812-1.497 0.863-2.911 1.678-5.804 1.678s-4.305-0.817-5.801-1.68l-0.030-0.018c-0.050-0.419-0.083-0.837-0.083-1.249 0-1.963 0.588-4.902 1.682-6.661zM1.311 10.188c1.357 0.749 2.913 1.418 5.604 1.418 3.16 0 4.758-0.921 6.304-1.812 1.497-0.862 2.911-1.678 5.805-1.678 1.025 0 1.919 0.11 2.739 0.32-0.397 5.312-4.777 11.125-10.361 11.125-4.974 0.001-8.989-4.612-10.091-9.373z"></path>
</svg>
