<?xml version="1.0" encoding="utf-8"?>
<!-- Generated by IcoMoon.io -->
<!DOCTYPE svg PUBLIC "-//W3C//DTD SVG 1.1//EN" "http://www.w3.org/Graphics/SVG/1.1/DTD/svg11.dtd">
<svg version="1.1" xmlns="http://www.w3.org/2000/svg" xmlns:xlink="http://www.w3.org/1999/xlink" width="24" height="24" viewBox="0 0 24 24">
<path fill="#444444" d="M18.92 8.776c-0.329 1.929-1.211 3.758-2.649 5.48-1.436 1.725-2.71 2.957-3.819 3.695-0.699 0.331-1.293 0.34-1.786 0.034-0.493-0.31-0.883-0.751-1.169-1.325-0.165-0.328-0.565-1.569-1.202-3.728-0.636-2.155-1.017-3.315-1.139-3.479-0.083-0.163-0.288-0.184-0.616-0.061-0.33 0.122-0.555 0.226-0.678 0.309-0.123 0.081-0.226 0.165-0.308 0.245l-0.554-0.737 0.616-0.74c0.452-0.492 1.026-1.007 1.724-1.54 0.7-0.534 1.314-0.862 1.848-0.987 0.371-0.080 0.679-0.028 0.924 0.156 0.247 0.184 0.452 0.484 0.616 0.894s0.289 0.811 0.369 1.199c0.083 0.392 0.165 0.854 0.248 1.387 0.081 0.534 0.164 0.945 0.246 1.232 0.451 1.93 0.821 2.896 1.109 2.896 0.41 0 1.067-0.863 1.971-2.59 0.41-0.779 0.432-1.426 0.062-1.941-0.369-0.512-0.943-0.522-1.724-0.029 0.123-0.78 0.472-1.456 1.046-2.031 1.026-1.109 2.157-1.521 3.388-1.234 1.273 0.247 1.765 1.213 1.477 2.895z"></path>
</svg>
