<?xml version="1.0" encoding="utf-8"?>
<!-- Generated by IcoMoon.io -->
<!DOCTYPE svg PUBLIC "-//W3C//DTD SVG 1.1//EN" "http://www.w3.org/Graphics/SVG/1.1/DTD/svg11.dtd">
<svg version="1.1" xmlns="http://www.w3.org/2000/svg" xmlns:xlink="http://www.w3.org/1999/xlink" width="32" height="32" viewBox="0 0 32 32">
<path fill="#444444" d="M11.493 8.757l-3.454-3.453-2.665 2.665 3.454 3.453-2.59 2.59 7.797 0.004-0.017-7.784-2.525 2.525zM23.172 11.422l3.454-3.453-2.665-2.665-3.454 3.453-2.525-2.525-0.017 7.784 7.797-0.004-2.59-2.59zM8.828 20.578l-3.454 3.453 2.665 2.665 3.454-3.453 2.526 2.525 0.017-7.784-7.797 0.004 2.589 2.59zM25.762 17.988l-7.797-0.004 0.017 7.784 2.525-2.525 3.454 3.453 2.665-2.665-3.454-3.453 2.59-2.59z"></path>
</svg>
