<?xml version="1.0" encoding="utf-8"?>
<!-- Generated by IcoMoon.io -->
<!DOCTYPE svg PUBLIC "-//W3C//DTD SVG 1.1//EN" "http://www.w3.org/Graphics/SVG/1.1/DTD/svg11.dtd">
<svg version="1.1" xmlns="http://www.w3.org/2000/svg" xmlns:xlink="http://www.w3.org/1999/xlink" width="48" height="48" viewBox="0 0 48 48">
<path fill="#444444" d="M0 44c0 2.21 1.79 4 4 4h40c2.21 0 4-1.79 4-4l-0-40c0-2.21-1.79-4-4-4h-40c-2.21 0-4 1.79-4 4v40zM9 24c0-3.31 2.69-6 6-6 1.38 0 2.65 0.47 3.66 1.24l8.359-3.79c-0.019-0.15-0.019-0.3-0.019-0.45 0-3.31 2.689-6 6-6s6 2.69 6 6-2.689 6-6 6c-1.54 0-2.95-0.58-4.010-1.54l-8.060 3.66c0.050 0.29 0.070 0.58 0.070 0.88s-0.020 0.59-0.070 0.88l8.060 3.65c1.060-0.95 2.47-1.53 4.010-1.53 3.311 0 6 2.689 6 6s-2.689 6-6 6-6-2.689-6-6c0-0.15 0-0.3 0.020-0.45l-8.359-3.8c-1.011 0.78-2.281 1.25-3.661 1.25-3.31 0-6-2.689-6-6z"></path>
</svg>
