<?xml version="1.0" encoding="utf-8"?>
<!-- Generated by IcoMoon.io -->
<!DOCTYPE svg PUBLIC "-//W3C//DTD SVG 1.1//EN" "http://www.w3.org/Graphics/SVG/1.1/DTD/svg11.dtd">
<svg version="1.1" xmlns="http://www.w3.org/2000/svg" xmlns:xlink="http://www.w3.org/1999/xlink" width="32" height="32" viewBox="0 0 32 32">
<path fill="#444444" d="M18.093 16.037c2.289-3.963 2.942-6.523 2.942-8.956 0-3.713-3.337-5.115-5.276-5.115s-5.257 1.354-5.257 5.116c0 2.402 0.62 4.985 2.906 8.921l-5.365 9.46 2.286 4.572 5.371-9.945 6.029 9.945 2.229-4.139-5.865-9.859zM13.396 6.461c0-1.909 1.174-2.325 2.359-2.325 1.188 0 2.328 0.406 2.328 2.316s-2.325 5.091-2.325 5.091-2.362-3.171-2.362-5.082z"></path>
</svg>
