<?xml version="1.0" encoding="utf-8"?>
<!-- Generated by IcoMoon.io -->
<!DOCTYPE svg PUBLIC "-//W3C//DTD SVG 1.1//EN" "http://www.w3.org/Graphics/SVG/1.1/DTD/svg11.dtd">
<svg version="1.1" xmlns="http://www.w3.org/2000/svg" xmlns:xlink="http://www.w3.org/1999/xlink" width="32" height="32" viewBox="0 0 32 32">
<path fill="#444444" d="M0 16c0 8.822 7.178 16 16 16s16-7.178 16-16-7.178-16-16-16-16 7.178-16 16zM16 1c8.271 0 15 6.729 15 15s-6.729 15-15 15-15-6.729-15-15 6.729-15 15-15zM16 29c7.168 0 13-5.832 13-13s-5.832-13-13-13-13 5.832-13 13 5.832 13 13 13zM15 4.051v1.526c0 0.276 0.224 0.5 0.5 0.5s0.5-0.224 0.5-0.5v-1.577c6.279 0 11.438 4.85 11.949 11h-1.527c-0.276 0-0.5 0.224-0.5 0.5s0.224 0.5 0.5 0.5h1.578c0 6.617-5.383 12-12 12v-1.577c0-0.276-0.224-0.5-0.5-0.5s-0.5 0.224-0.5 0.5v1.526c-6.149-0.511-11-5.669-11-11.949h1.578c0.276 0 0.5-0.224 0.5-0.5s-0.224-0.5-0.5-0.5h-1.527c0.483-5.819 5.13-10.466 10.949-10.949zM9.386 23.041c0.102 0 0.204-0.031 0.292-0.094l5.614-4.036c0.228 0.056 0.463 0.093 0.708 0.093 1.654 0 3-1.346 3-3 0-0.237-0.035-0.465-0.087-0.687l4.106-5.712c0.143-0.199 0.121-0.473-0.052-0.646s-0.446-0.193-0.646-0.053l-5.778 4.153c-0.177-0.033-0.358-0.055-0.544-0.055-1.654 0-3 1.346-3 3 0 0.195 0.022 0.386 0.058 0.571l-4.077 5.674c-0.143 0.199-0.121 0.473 0.052 0.646 0.097 0.096 0.225 0.146 0.354 0.146zM14 16.005c0-1.103 0.897-2 2-2s2 0.897 2 2-0.897 2-2 2-2-0.898-2-2zM20.424 11.503l-1.987 2.765c-0.216-0.301-0.482-0.563-0.792-0.767l2.779-1.998zM13.505 17.667c0.199 0.298 0.454 0.553 0.743 0.763l-2.672 1.921 1.929-2.684z"></path>
</svg>
