<?xml version="1.0" encoding="utf-8"?>
<!-- Generated by IcoMoon.io -->
<!DOCTYPE svg PUBLIC "-//W3C//DTD SVG 1.1//EN" "http://www.w3.org/Graphics/SVG/1.1/DTD/svg11.dtd">
<svg version="1.1" xmlns="http://www.w3.org/2000/svg" xmlns:xlink="http://www.w3.org/1999/xlink" width="32" height="32" viewBox="0 0 32 32">
<path fill="#444444" d="M17.293 15.292l-2.829-2.829-4 4c-1.953 1.953-1.953 5.119 0 7.071 1.953 1.953 5.118 1.953 7.071 0l10.122-9.879c3.123-3.124 3.123-8.188 0-11.313-3.125-3.124-8.19-3.124-11.313 0l-11.121 10.88c-4.296 4.295-4.296 11.26 0 15.557s11.261 4.296 15.556 0l6-6-2.829-2.829-5.999 6c-2.733 2.732-7.166 2.732-9.9 0s-2.733-7.166 0-9.899l11.121-10.881c1.562-1.562 4.095-1.562 5.656 0 1.563 1.563 1.563 4.097 0 5.657l-10.121 9.879c-0.391 0.391-1.023 0.391-1.414 0s-0.391-1.023 0-1.414l4-4z"></path>
</svg>
