<?xml version="1.0" encoding="utf-8"?>
<!-- Generated by IcoMoon.io -->
<!DOCTYPE svg PUBLIC "-//W3C//DTD SVG 1.1//EN" "http://www.w3.org/Graphics/SVG/1.1/DTD/svg11.dtd">
<svg version="1.1" xmlns="http://www.w3.org/2000/svg" xmlns:xlink="http://www.w3.org/1999/xlink" width="32" height="32" viewBox="0 0 32 32">
<path fill="#444444" d="M30.854 28.014h-29.709c-0.631 0-1.144 0.496-1.144 1.109v1.771c0 0.613 0.513 1.109 1.144 1.109h29.71c0.633 0 1.145-0.496 1.145-1.109v-1.771c-0.001-0.613-0.513-1.109-1.146-1.109zM21.332 11.985h-10.686l-2.659 5.988h16.005zM17.743 1.071c0 0-0.21-1.074-1.659-1.074s-1.676 1.111-1.676 1.111l-2.902 8.871h9.154l-2.917-8.908zM25.102 19.977h-18.037l-2.777 7.023h23.592z"></path>
</svg>
