<?xml version="1.0" encoding="utf-8"?>
<!-- Generated by IcoMoon.io -->
<!DOCTYPE svg PUBLIC "-//W3C//DTD SVG 1.1//EN" "http://www.w3.org/Graphics/SVG/1.1/DTD/svg11.dtd">
<svg version="1.1" xmlns="http://www.w3.org/2000/svg" xmlns:xlink="http://www.w3.org/1999/xlink" width="24" height="24" viewBox="0 0 24 24">
<path fill="#444444" d="M7 7v2h6v-2h-6zM7 11h9v-1h-9v1zM16 12h-3v1h3v-1zM13 15h3v-1h-3v1zM3 2v10h2v-8h13v17h-5v2h7v-21h-17zM9.707 17.5c0-0.24-0.036-0.47-0.088-0.693l1.388-0.931-0.891-1.526-1.404 0.938c-0.259-0.228-0.557-0.402-0.884-0.515v-1.773h-1.679v1.781c-0.319 0.113-0.608 0.286-0.862 0.51l-1.4-0.941-0.89 1.526 1.388 0.93c-0.052 0.223-0.088 0.454-0.088 0.694 0 0.241 0.036 0.472 0.088 0.695l-1.385 0.929 0.891 1.526 1.396-0.941c0.253 0.224 0.543 0.396 0.862 0.51v1.781h1.679v-1.772c0.327-0.112 0.625-0.286 0.884-0.514l1.4 0.937 0.893-1.526-1.386-0.93c0.051-0.224 0.088-0.454 0.088-0.695zM7.002 19.301c-0.926 0-1.679-0.807-1.679-1.801s0.753-1.8 1.679-1.8c0.928 0 1.679 0.806 1.679 1.8s-0.751 1.801-1.679 1.801z"></path>
</svg>
