<?xml version="1.0" encoding="utf-8"?>
<!-- Generated by IcoMoon.io -->
<!DOCTYPE svg PUBLIC "-//W3C//DTD SVG 1.1//EN" "http://www.w3.org/Graphics/SVG/1.1/DTD/svg11.dtd">
<svg version="1.1" xmlns="http://www.w3.org/2000/svg" xmlns:xlink="http://www.w3.org/1999/xlink" width="32" height="32" viewBox="0 0 32 32">
<path fill="#444444" d="M29 32h-1v-10h4v7c0 1.656-1.343 3-3 3zM28 10h1c1.657 0 3 1.344 3 3v8h-4v-11zM6 22h8v2c0 0.553 0.448 1 1 1h2c0.553 0 1-0.447 1-1v-2h8v10h-20v-10zM18 21v-3c0-0.553-0.447-1-1-1h-2c-0.552 0-1 0.447-1 1v3h-8v-11h2v-2.5c0-4.142 3.582-7.5 8-7.5s8 3.358 8 7.5v2.5h2v11h-8zM20 8c0-2.209-1.791-4-4-4s-4 1.791-4 4v2h8v-2zM0 29v-7h4v10h-1c-1.657 0-3-1.344-3-3zM0 13c0-1.656 1.343-3 3-3h1v11h-4v-8z"></path>
</svg>
