<?xml version="1.0" encoding="utf-8"?>
<!-- Generated by IcoMoon.io -->
<!DOCTYPE svg PUBLIC "-//W3C//DTD SVG 1.1//EN" "http://www.w3.org/Graphics/SVG/1.1/DTD/svg11.dtd">
<svg version="1.1" xmlns="http://www.w3.org/2000/svg" xmlns:xlink="http://www.w3.org/1999/xlink" width="24" height="24" viewBox="0 0 24 24">
<path fill="#444444" d="M13 15.071v-5.571c0-0.275-0.225-0.5-0.5-0.5s-0.5 0.225-0.5 0.5v5.571c-0.86 0.224-1.5 1-1.5 1.929 0 1.103 0.896 2 2 2s2-0.897 2-2c0-0.929-0.64-1.705-1.5-1.929z"></path>
<path fill="#444444" d="M16 13.459v-7.959c0-1.93-1.57-3.5-3.5-3.5s-3.5 1.57-3.5 3.5v7.959c-0.922 0.902-1.5 2.151-1.5 3.541 0 2.757 2.243 5 5 5s5-2.243 5-5c0-1.39-0.578-2.639-1.5-3.541zM12.5 20c-1.654 0-3-1.346-3-3 0-1.105 0.607-2.062 1.5-2.583v-8.917c0-0.827 0.673-1.5 1.5-1.5s1.5 0.673 1.5 1.5v8.917c0.893 0.521 1.5 1.478 1.5 2.583 0 1.654-1.346 3-3 3z"></path>
</svg>
