<?xml version="1.0" encoding="utf-8"?>
<!-- Generated by IcoMoon.io -->
<!DOCTYPE svg PUBLIC "-//W3C//DTD SVG 1.1//EN" "http://www.w3.org/Graphics/SVG/1.1/DTD/svg11.dtd">
<svg version="1.1" xmlns="http://www.w3.org/2000/svg" xmlns:xlink="http://www.w3.org/1999/xlink" width="24" height="24" viewBox="0 0 24 24">
<path fill="#444444" d="M12 20c3.86 0 7-3.141 7-7s-3.14-7-7.003-7c-3.858 0-6.997 3.141-6.997 7s3.14 7 7 7zM11 8.102v1.898c0 0.553 0.448 1 1 1s1-0.447 1-1v-1.898c1.956 0.398 3.5 1.942 3.899 3.898h-1.899c-0.552 0-1 0.447-1 1s0.448 1 1 1h1.899c-0.399 1.956-1.943 3.5-3.899 3.898v-1.898c0-0.553-0.448-1-1-1s-1 0.447-1 1v1.898c-1.956-0.398-3.5-1.942-3.899-3.898h1.899c0.552 0 1-0.447 1-1s-0.448-1-1-1h-1.899c0.399-1.956 1.942-3.5 3.899-3.898z"></path>
</svg>
