<?xml version="1.0" encoding="utf-8"?>
<!-- Generated by IcoMoon.io -->
<!DOCTYPE svg PUBLIC "-//W3C//DTD SVG 1.1//EN" "http://www.w3.org/Graphics/SVG/1.1/DTD/svg11.dtd">
<svg version="1.1" xmlns="http://www.w3.org/2000/svg" xmlns:xlink="http://www.w3.org/1999/xlink" width="32" height="32" viewBox="0 0 32 32">
<path fill="#444444" d="M21.6 8h-11l-6.6 9v5c0 1.104 0.896 2 2 2h20c1.104 0 2-0.896 2-2v-5l-6.4-9zM22.465 17.022l-2.052 3.003-8.589-0.020-2.201-2.995-4.086-0.023 5.662-7.975h9.801l5.6 7.975-4.135 0.035zM13.125 14l2.438 0.062v3.938c0 0.553 0.385 1 0.938 1 0.552 0 0.875-0.447 0.875-1v-3.938l2.436-0.062-3.312-3.812-3.375 3.812z"></path>
</svg>
