<?xml version="1.0" encoding="utf-8"?>
<!-- Generated by IcoMoon.io -->
<!DOCTYPE svg PUBLIC "-//W3C//DTD SVG 1.1//EN" "http://www.w3.org/Graphics/SVG/1.1/DTD/svg11.dtd">
<svg version="1.1" xmlns="http://www.w3.org/2000/svg" xmlns:xlink="http://www.w3.org/1999/xlink" width="48" height="48" viewBox="0 0 48 48">
<path fill="#444444" d="M16 30v11c0 1.1-0.9 2-2 2l-5.5 0c-1.38 0-2.5 1.12-2.5 2.5s1.12 2.5 2.5 2.5h20c1.38 0 2.5-1.12 2.5-2.5s-1.12-2.5-2.5-2.5h-5.5c-1.1 0-2-0.9-2-2v-11l8.090-8.189c1.96 1.378 4.34 2.189 6.91 2.189 6.63 0 12-5.37 12-12s-5.37-12-12-12c-6.29 0-11.45 4.84-11.96 11h-22.060c-1.090 0-1.98 0.9-1.98 2 0 0.561 0.23 1.070 0.6 1.431l15.4 15.569zM32.7 18.181l3.72-3.771c0.359-0.36 0.58-0.86 0.58-1.41 0-1.1-0.891-2-1.98-2h-5.95c0.491-3.39 3.4-6 6.931-6 3.87 0 7 3.13 7 7s-3.13 7-7 7c-1.19-0-2.321-0.3-3.301-0.819z"></path>
</svg>
