<?xml version="1.0" encoding="utf-8"?>
<!-- Generated by IcoMoon.io -->
<!DOCTYPE svg PUBLIC "-//W3C//DTD SVG 1.1//EN" "http://www.w3.org/Graphics/SVG/1.1/DTD/svg11.dtd">
<svg version="1.1" xmlns="http://www.w3.org/2000/svg" xmlns:xlink="http://www.w3.org/1999/xlink" width="32" height="32" viewBox="0 0 32 32">
<path fill="#444444" d="M18.125 13.879c0.797 0.799 1.008 1.93 0.719 2.943l5.156-8.822-8.703 5.139c0.984-0.243 2.058-0.030 2.828 0.74zM13.883 18.121c-0.773-0.771-0.984-1.85-0.742-2.836l-5.141 8.715 8.832-5.16c-1.016 0.293-2.148 0.082-2.949-0.719zM16 4c6.617 0 12 5.383 12 12s-5.383 12-12 12-12-5.383-12-12 5.383-12 12-12zM16 0c-8.836 0-16 7.164-16 16s7.164 16 16 16 16-7.164 16-16-7.164-16-16-16v0z"></path>
</svg>
