<?xml version="1.0" encoding="utf-8"?>
<!-- Generated by IcoMoon.io -->
<!DOCTYPE svg PUBLIC "-//W3C//DTD SVG 1.1//EN" "http://www.w3.org/Graphics/SVG/1.1/DTD/svg11.dtd">
<svg version="1.1" xmlns="http://www.w3.org/2000/svg" xmlns:xlink="http://www.w3.org/1999/xlink" width="32" height="32" viewBox="0 0 32 32">
<path fill="#444444" d="M31.676 12.779c-0.211-1.027-0.525-2.040-0.934-3.007-0.4-0.949-0.897-1.863-1.476-2.718-0.572-0.847-1.229-1.643-1.952-2.366-0.725-0.725-1.521-1.382-2.367-1.953-0.855-0.579-1.771-1.075-2.719-1.476-0.967-0.407-1.979-0.724-3.007-0.933-1.053-0.216-2.137-0.326-3.221-0.326s-2.168 0.11-3.223 0.326c-1.027 0.209-2.039 0.525-3.006 0.933-0.948 0.401-1.863 0.897-2.718 1.476-0.847 0.571-1.644 1.228-2.367 1.953-0.724 0.723-1.38 1.519-1.952 2.366-0.579 0.854-1.075 1.768-1.476 2.717-0.409 0.967-0.723 1.98-0.934 3.007-0.215 1.053-0.324 2.138-0.324 3.22 0 1.087 0.109 2.172 0.324 3.225 0.211 1.026 0.524 2.039 0.934 3.005 0.401 0.948 0.897 1.865 1.476 2.72 0.572 0.847 1.229 1.642 1.952 2.366 0.724 0.723 1.521 1.379 2.367 1.951 0.855 0.578 1.771 1.075 2.719 1.476 0.967 0.41 1.979 0.722 3.006 0.934 1.054 0.216 2.138 0.325 3.222 0.325s2.168-0.109 3.222-0.326c1.028-0.212 2.040-0.523 3.007-0.934 0.948-0.4 1.863-0.897 2.719-1.476 0.847-0.572 1.643-1.229 2.367-1.951 0.723-0.725 1.38-1.52 1.952-2.366 0.578-0.854 1.075-1.771 1.476-2.72 0.408-0.966 0.723-1.979 0.934-3.005 0.214-1.052 0.323-2.137 0.323-3.224 0-1.082-0.109-2.167-0.324-3.219zM29.66 15.863c-0.197-0.043-4.822-1.037-9.518-0.447-0.096-0.234-0.193-0.469-0.295-0.705-0.283-0.67-0.59-1.332-0.908-1.983 5.396-2.202 7.588-5.37 7.613-5.408 1.918 2.328 3.077 5.301 3.108 8.543zM25.025 5.746c-0.033 0.054-1.98 3.015-7.138 4.947-2.336-4.292-4.902-7.7-5.108-7.971 1.033-0.251 2.112-0.386 3.221-0.386 3.46 0 6.617 1.289 9.025 3.41zM12.728 2.733c-0.001 0.002-0.003 0.003-0.003 0.003s-0.016 0.004-0.041 0.009c0.013-0.004 0.029-0.007 0.044-0.012zM10.17 3.642c0.182 0.244 2.709 3.669 5.074 7.873-6.561 1.743-12.255 1.675-12.616 1.668 0.888-4.232 3.731-7.74 7.542-9.541zM2.336 15.998c0-0.145 0.006-0.287 0.012-0.431 0.24 0.005 6.992 0.158 14.027-1.947 0.393 0.766 0.767 1.545 1.109 2.323-0.182 0.051-0.359 0.104-0.539 0.163-7.374 2.383-11.114 9.018-11.114 9.018s0.005 0.004 0.006 0.006c-2.176-2.42-3.501-5.62-3.501-9.132zM16 29.663c-3.307 0-6.34-1.176-8.704-3.131 0.181 0.146 0.306 0.239 0.306 0.239s2.619-5.713 10.725-8.535c0.029-0.012 0.060-0.020 0.090-0.029 1.923 4.995 2.717 9.181 2.919 10.374-1.641 0.696-3.443 1.082-5.336 1.082zM23.636 27.333c-0.14-0.826-0.867-4.836-2.659-9.761 4.411-0.705 8.233 0.505 8.516 0.598-0.609 3.806-2.789 7.091-5.857 9.163z"></path>
</svg>
