<?xml version="1.0" encoding="utf-8"?>
<!-- Generated by IcoMoon.io -->
<!DOCTYPE svg PUBLIC "-//W3C//DTD SVG 1.1//EN" "http://www.w3.org/Graphics/SVG/1.1/DTD/svg11.dtd">
<svg version="1.1" xmlns="http://www.w3.org/2000/svg" xmlns:xlink="http://www.w3.org/1999/xlink" width="24" height="24" viewBox="0 0 24 24">
<path fill="#444444" d="M19 20h-14c-1.654 0-3-1.346-3-3v-8c0-1.654 1.346-3 3-3h1.586l1-1c0.579-0.579 1.596-1 2.414-1h4c0.818 0 1.835 0.421 2.414 1l1 1h1.586c1.654 0 3 1.346 3 3v8c0 1.654-1.346 3-3 3zM5 8c-0.552 0-1 0.448-1 1v8c0 0.552 0.448 1 1 1h14c0.552 0 1-0.448 1-1v-8c0-0.552-0.448-1-1-1h-2c-0.266 0-0.52-0.105-0.707-0.293l-1.293-1.293c-0.201-0.201-0.715-0.414-1-0.414h-4c-0.285 0-0.799 0.213-1 0.414l-1.293 1.293c-0.187 0.188-0.441 0.293-0.707 0.293h-2z"></path>
<path fill="#444444" d="M12 10c1.379 0 2.5 1.121 2.5 2.5s-1.121 2.5-2.5 2.5-2.5-1.121-2.5-2.5 1.121-2.5 2.5-2.5zM12 9c-1.934 0-3.5 1.566-3.5 3.5 0 1.932 1.566 3.5 3.5 3.5s3.5-1.568 3.5-3.5c0-1.934-1.566-3.5-3.5-3.5z"></path>
<path fill="#444444" d="M18 8.699c-0.719 0-1.3 0.582-1.3 1.301s0.581 1.299 1.3 1.299 1.3-0.58 1.3-1.299-0.581-1.301-1.3-1.301z"></path>
</svg>
