<?xml version="1.0" encoding="utf-8"?>
<!-- Generated by IcoMoon.io -->
<!DOCTYPE svg PUBLIC "-//W3C//DTD SVG 1.1//EN" "http://www.w3.org/Graphics/SVG/1.1/DTD/svg11.dtd">
<svg version="1.1" xmlns="http://www.w3.org/2000/svg" xmlns:xlink="http://www.w3.org/1999/xlink" width="48" height="48" viewBox="0 0 48 48">
<path fill="#444444" d="M11.88 34l12.71 12.42c0.36 0.36 0.86 0.58 1.41 0.58 1.1 0 2-0.891 2-1.98l0-42.040c0-1.090-0.9-1.98-2-1.98-0.561 0-1.070 0.23-1.431 0.6l-12.679 12.4h-7.89c-2.21 0-4 1.79-4 4v12c0 2.21 1.79 4 4 4h7.88zM39.25 11.72c-0.96 0.95-0.96 2.5 0 3.46 2.38 2.39 3.859 5.68 3.859 9.32 0 3.641-1.489 6.93-3.869 9.32-0.961 0.96-0.961 2.51 0 3.46 0.949 0.96 2.5 0.96 3.46 0 3.27-3.27 5.3-7.79 5.3-12.78 0-4.98-2.010-9.49-5.27-12.76l-0.021-0.020c-0.959-0.96-2.499-0.96-3.459 0zM37.18 31.75c1.85-1.859 2.99-4.42 2.99-7.25s-1.141-5.39-2.99-7.25c-0.96-0.96-2.51-0.96-3.46 0-0.96 0.95-0.96 2.5 0 3.46 0.96 0.97 1.56 2.31 1.56 3.79s-0.6 2.82-1.56 3.79c-0.96 0.96-0.96 2.5 0 3.46 0.95 0.95 2.5 0.96 3.46-0z"></path>
</svg>
