<?xml version="1.0" encoding="utf-8"?>
<!-- Generated by IcoMoon.io -->
<!DOCTYPE svg PUBLIC "-//W3C//DTD SVG 1.1//EN" "http://www.w3.org/Graphics/SVG/1.1/DTD/svg11.dtd">
<svg version="1.1" xmlns="http://www.w3.org/2000/svg" xmlns:xlink="http://www.w3.org/1999/xlink" width="32" height="32" viewBox="0 0 32 32">
<path fill="#444444" d="M28.908 19.576l-9.311 9.311c-0.791 0.791-2.074 0.791-2.865 0l-11.414-11.415-2.82-8.729 2.060-2.060 3.947 3.947c-0.106 0.76 0.124 1.557 0.708 2.141 0.989 0.989 2.592 0.989 3.581 0s0.988-2.592 0-3.581c-0.584-0.584-1.381-0.813-2.141-0.708l-3.947-3.947 2.014-2.015 8.774 2.775 11.414 11.415c0.791 0.792 0.791 2.074 0 2.866zM11.361 11.339c-0.198 0.198-0.518 0.198-0.716 0l-7.879-7.879c-0.198-0.198-0.198-0.519 0-0.716s0.519-0.198 0.716 0l7.878 7.878c0.199 0.198 0.199 0.519 0.001 0.717z"></path>
</svg>
