<?xml version="1.0" encoding="UTF-8"?>
<!DOCTYPE svg PUBLIC "-//W3C//DTD SVG 1.1//EN" "http://www.w3.org/Graphics/SVG/1.1/DTD/svg11.dtd">
<!-- Creator: CorelDRAW X8 -->
<svg xmlns="http://www.w3.org/2000/svg" xml:space="preserve" width="2.41674in" height="1.04685in" version="1.1" style="shape-rendering:geometricPrecision; text-rendering:geometricPrecision; image-rendering:optimizeQuality; fill-rule:evenodd; clip-rule:evenodd"
viewBox="0 0 1357 588"
 xmlns:xlink="http://www.w3.org/1999/xlink">
 <defs>
  <style type="text/css">
   <![CDATA[
    .fil0 {fill:black}
   ]]>
  </style>
 </defs>
 <g id="Layer_x0020_1">
  <metadata id="CorelCorpID_0Corel-Layer"/>
  <path class="fil0" d="M599 276l159 0c10,0 28,46 29,53l-217 0c0,-8 19,-53 29,-53zm758 148l0 10c-2,8 -8,16 -19,19 -13,4 -86,3 -103,3 1,11 2,6 2,16 0,22 -10,48 -25,64 -31,30 -43,31 -83,31 -39,0 -85,-44 -85,-98 0,-7 2,-3 3,-13l-173 0c-3,13 -21,42 -29,52 -6,6 -15,17 -21,22 -66,67 -187,79 -269,18 -8,-6 -18,-13 -24,-19 -17,-19 -43,-48 -49,-73l-172 0c1,13 7,23 -5,53 -8,19 -25,37 -43,47 -21,13 -34,11 -58,11 -39,0 -85,-44 -85,-98 0,-7 2,-3 3,-13 -19,0 -91,2 -106,-3 -10,-4 -15,-11 -16,-19l0 -9c1,-5 3,-10 6,-13 10,-11 82,-20 102,-23 40,-7 81,-14 122,-21 47,-8 197,-32 242,-42 10,-42 25,-67 52,-96l9 -10c23,-22 49,-37 79,-47 11,-4 23,-4 32,-9 8,-34 13,-115 24,-161 12,-5 14,-2 21,0 7,31 13,87 18,122 2,13 3,27 6,39 15,7 64,9 112,57 1,1 1,1 1,2 1,0 2,2 3,3 29,31 45,51 56,100 19,4 40,7 61,11l395 69c9,3 14,10 16,18z"/>
 </g>
</svg>
