<?xml version="1.0" encoding="utf-8"?>
<!-- Generated by IcoMoon.io -->
<!DOCTYPE svg PUBLIC "-//W3C//DTD SVG 1.1//EN" "http://www.w3.org/Graphics/SVG/1.1/DTD/svg11.dtd">
<svg version="1.1" xmlns="http://www.w3.org/2000/svg" xmlns:xlink="http://www.w3.org/1999/xlink" width="48" height="48" viewBox="0 0 48 48">
<path fill="#444444" d="M0 41c0 3.87 3.13 7 7 7 1.93 0 3.73-0.73 5-2l12.76-12.77 3.42 3.42c-0.46 1.68-0.020 3.56 1.311 4.899l4.96 4.96c1.979 1.971 5.149 1.99 7.1 0.040s1.931-5.119-0.040-7.1l-4.96-4.96c-1.34-1.33-3.22-1.77-4.899-1.31l-3.42-3.411 2.199-2.199c4.68 1.18 9.84-0.051 13.49-3.62 2.51-2.46 3.891-5.58 4.080-8.81v-0.17c-0.001-1.089-0.901-1.969-2.011-1.969-0.551 0-1.051 0.221-1.421 0.57l-0.589 0.58-2.020 1.98c-1.271 1.24-3.080 1.97-5.030 1.97-1.939 0-3.65-0.85-4.92-2.1-1.25-1.27-2.109-2.99-2.109-4.93 0-1.95 0.729-3.76 1.97-5.030l1.979-2.020 0.58-0.589c0.349-0.37 0.57-0.87 0.57-1.421 0-1.11-0.88-2.010-1.971-2.010h-0.17c-3.229 0.189-6.35 1.57-8.81 4.080-3.569 3.65-4.79 8.811-3.61 13.48l-2.209 2.21-9.23-9.24v-2.53l-6-3-3 3 3 6h2.52l9.24 9.23-12.76 12.77c-1.27 1.27-2 3.070-2 5zM5 40.5c0-1.38 1.12-2.5 2.5-2.5s2.5 1.12 2.5 2.5-1.12 2.5-2.5 2.5-2.5-1.12-2.5-2.5z"></path>
</svg>
