<?xml version="1.0" encoding="utf-8"?>
<!-- Generated by IcoMoon.io -->
<!DOCTYPE svg PUBLIC "-//W3C//DTD SVG 1.1//EN" "http://www.w3.org/Graphics/SVG/1.1/DTD/svg11.dtd">
<svg version="1.1" xmlns="http://www.w3.org/2000/svg" xmlns:xlink="http://www.w3.org/1999/xlink" width="24" height="24" viewBox="0 0 24 24">
<path fill="#444444" d="M18.516 15q1.453 0 2.461-1.031t1.008-2.484-1.008-2.461-2.461-1.008-2.484 1.008-1.031 2.461 1.031 2.484 2.484 1.031zM5.484 15q1.453 0 2.484-1.031t1.031-2.484-1.031-2.461-2.484-1.008-2.461 1.008-1.008 2.461 1.008 2.484 2.461 1.031zM18.516 6q2.297 0 3.891 1.594t1.594 3.891-1.594 3.914-3.891 1.617h-13.031q-2.297 0-3.891-1.617t-1.594-3.914 1.594-3.891 3.891-1.594 3.914 1.594 1.617 3.891q0 2.016-1.266 3.516h4.5q-1.266-1.5-1.266-3.516 0-2.297 1.617-3.891t3.914-1.594z"></path>
</svg>
