<?xml version="1.0" encoding="utf-8"?>
<!-- Generated by IcoMoon.io -->
<!DOCTYPE svg PUBLIC "-//W3C//DTD SVG 1.1//EN" "http://www.w3.org/Graphics/SVG/1.1/DTD/svg11.dtd">
<svg version="1.1" xmlns="http://www.w3.org/2000/svg" xmlns:xlink="http://www.w3.org/1999/xlink" width="32" height="32" viewBox="0 0 32 32">
<path fill="#444444" d="M28.789 10.153c-0.006-0.015-0.014-0.030-0.021-0.046l0.029 0.005-0.008 0.041zM25.25 22.217l-4.668 0.194-2.438-4.285 2.523-4.556 4.887 0.162 2.086 4.259-2.39 4.226zM12.708 18.065l-2.449-4.431 2.56-4.271 5.221-0.080 2.564 4.253-2.52 4.547-5.376-0.018zM12.816 9.29l-1.93-3.323 2.564-3.128 4.475-0.143 2.385 2.954-2.283 3.56-5.211 0.080zM10.374 22.249l-4.135-0.404-1.992-3.983 1.738-4.038 4.205-0.161 2.45 4.433-2.266 4.153zM24.811 6.159l0.396-0.787c1.5 1.301 2.717 2.912 3.561 4.735l-1.482-0.236-2.475-3.712zM20.385 5.625l-2.389-2.957c0.059-0.072 0.377-0.459 0.383-0.465-2.141-0.358-4.094-0.175-5.381 0.127 0.009 0.006 0.319 0.398 0.383 0.479l-2.565 3.128-3.825 0.644-0.341-1.043-0.059 0.018c2.494-2.248 5.786-3.629 9.409-3.629 3.498 0 6.689 1.283 9.15 3.395l-0.404 0.804-4.361-0.501zM4.639 10.222l-1.608 0.379 0.018 0.070 1.58-0.372 1.3 3.472-1.744 4.053c-0.236-0.023-2.061-0.198-2.061-0.087 0.32 2.685 1.339 5.021 3.094 7.206l1.030-3.023 4.128 0.403 2.607 3.956-1.8 2.931c-5.395-1.971-9.256-7.133-9.256-13.21 0-4.146 1.803-7.86 4.655-10.436l0.346 1.062-2.289 3.596zM17.859 26.435l2.146 3.005 0.061-0.043-2.133-2.983 2.65-3.93 4.664-0.193c0.094 0.211 1.289 2.898 1.281 2.898 1.967-2.303 2.955-4.611 3.312-7.242-0.004 0-1.914 0.008-2.139 0.010l-2.088-4.268 1.684-3.741 1.486 0.237 0.004-0.031c0.816 1.782 1.283 3.758 1.283 5.847 0 7.772-6.301 14.073-14.072 14.073-1.669 0-3.262-0.306-4.747-0.839l1.797-2.925 4.811 0.125zM11.234 29.267l-0.062-0.038 0.012-0.020c0.023 0.009 0.047 0.017 0.070 0.025l-0.020 0.033zM6.581 5.56l0.011-0.004c-0.004 0.003-0.007 0.006-0.009 0.008l-0.002-0.004zM25.164 5.295l0.064 0.032-0.021 0.045c-0.020-0.017-0.037-0.034-0.057-0.051l0.014-0.026z"></path>
</svg>
