<?xml version="1.0" encoding="utf-8"?>
<!-- Generated by IcoMoon.io -->
<!DOCTYPE svg PUBLIC "-//W3C//DTD SVG 1.1//EN" "http://www.w3.org/Graphics/SVG/1.1/DTD/svg11.dtd">
<svg version="1.1" xmlns="http://www.w3.org/2000/svg" xmlns:xlink="http://www.w3.org/1999/xlink" width="48" height="48" viewBox="0 0 48 48">
<path fill="#444444" d="M0 41c0 2.21 1.79 4 4 4h40c2.21 0 4-1.79 4-4l-0-33c0-2.21-1.79-4-4-4l-31 0c-2.21 0-4 1.79-4 4v30c0 1.1-0.9 2-2 2s-2-0.9-2-2l-0-26.5c0-1.38-1.12-2.5-2.5-2.5s-2.5 1.12-2.5 2.5v29.5zM28 11.2v7.6c0 1.22-0.98 2.2-2.2 2.2h-9.6c-1.22 0-2.2-0.98-2.2-2.2v-7.6c0-1.22 0.98-2.2 2.2-2.2h9.6c1.22 0 2.2 0.98 2.2 2.2zM41 29h-25c-1.1 0-2-0.9-2-2s0.9-2 2-2h25c1.1 0 2 0.9 2 2s-0.9 2-2 2zM41 37h-25c-1.1 0-2-0.9-2-2s0.9-2 2-2h25c1.1 0 2 0.9 2 2s-0.9 2-2 2zM41 13h-7c-1.1 0-2-0.9-2-2s0.9-2 2-2h7c1.1 0 2 0.9 2 2s-0.9 2-2 2zM41 21h-7c-1.1 0-2-0.9-2-2s0.9-2 2-2h7c1.1 0 2 0.9 2 2s-0.9 2-2 2z"></path>
</svg>
