<?xml version="1.0" encoding="utf-8"?>
<!-- Generated by IcoMoon.io -->
<!DOCTYPE svg PUBLIC "-//W3C//DTD SVG 1.1//EN" "http://www.w3.org/Graphics/SVG/1.1/DTD/svg11.dtd">
<svg version="1.1" xmlns="http://www.w3.org/2000/svg" xmlns:xlink="http://www.w3.org/1999/xlink" width="32" height="32" viewBox="0 0 32 32">
<path fill="#444444" d="M24 28v-2h-0.025c0.009-0.166 0.025-0.331 0.025-0.5v-11c0-4.694-3.806-8.5-8.5-8.5s-8.5 3.806-8.5 8.5v11c0 0.169 0.016 0.334 0.025 0.5h-0.025v2c0 0-5-0.084-5-5.5 0-3.072 1.607-4.427 3-5.025v-2.975c0-5.799 4.701-10.5 10.5-10.5s10.5 4.701 10.5 10.5v2.975c1.393 0.599 3 1.953 3 5.025 0 5.416-5 5.5-5 5.5zM9 28h-1v-11h1v11zM23 28h-1v-11h1v11z"></path>
</svg>
