<?xml version="1.0" encoding="utf-8"?>
<!-- Generated by IcoMoon.io -->
<!DOCTYPE svg PUBLIC "-//W3C//DTD SVG 1.1//EN" "http://www.w3.org/Graphics/SVG/1.1/DTD/svg11.dtd">
<svg version="1.1" xmlns="http://www.w3.org/2000/svg" xmlns:xlink="http://www.w3.org/1999/xlink" width="28" height="32" viewBox="0 0 28 32">
<path fill="#444444" d="M26 2h-24c-1 0-2 1-2 2v24c0 1 1 2 2 2h24c1 0 2-1 2-2v-24c0-1-1-2-2-2zM24 25c0 0.5-0.531 1-1 1h-18c-0.563 0-1-0.375-1-1v-18c0-0.5 0.5-1 1-1h18c0.469 0 1 0.5 1 1v18zM14 14h-6v4h6v4l8-6-8-6v4z"></path>
</svg>
