<?xml version="1.0" encoding="utf-8"?>
<!-- Generated by IcoMoon.io -->
<!DOCTYPE svg PUBLIC "-//W3C//DTD SVG 1.1//EN" "http://www.w3.org/Graphics/SVG/1.1/DTD/svg11.dtd">
<svg version="1.1" xmlns="http://www.w3.org/2000/svg" xmlns:xlink="http://www.w3.org/1999/xlink" width="32" height="32" viewBox="0 0 32 32">
<path fill="#444444" d="M31.576 26.211l-11.999-24c-0.677-1.355-2.061-2.211-3.577-2.211s-2.9 0.856-3.577 2.211l-11.999 24c-0.62 1.24-0.554 2.713 0.175 3.893 0.729 1.178 2.016 1.896 3.402 1.896h23.997c1.387 0 2.674-0.718 3.402-1.896 0.729-1.18 0.795-2.653 0.176-3.893zM17.998 27c0 0.553-0.447 1-1 1h-2c-0.553 0-1-0.447-1-1v-2c0-0.553 0.447-1 1-1h2c0.553 0 1 0.447 1 1v2zM17.998 19c0 0.553-0.447 1-1 1h-2c-0.553 0-1-0.447-1-1v-10c0-0.552 0.447-1 1-1h2c0.553 0 1 0.448 1 1v10z"></path>
</svg>
