<?xml version="1.0" encoding="utf-8"?>
<!-- Generated by IcoMoon.io -->
<!DOCTYPE svg PUBLIC "-//W3C//DTD SVG 1.1//EN" "http://www.w3.org/Graphics/SVG/1.1/DTD/svg11.dtd">
<svg version="1.1" xmlns="http://www.w3.org/2000/svg" xmlns:xlink="http://www.w3.org/1999/xlink" width="32" height="32" viewBox="0 0 32 32">
<path fill="#444444" d="M16 20c4.418 0 7.996-3.582 7.996-8v-4c0-5.521-3.996-8-7.996-8h-8.004c-3.996 0-7.996 2.125-7.996 8 0 5.75 4 8 7.996 8h4.004c2.207 0 4 1.793 4 4zM25.98 12.213c-0.117 5.412-4.542 9.787-9.98 9.787h-2v-2c0-1.104-0.898-2-2-2h-3.801c-0.12 0.597-0.194 1.236-0.199 1.926v4.151c0.042 4.382 3.608 7.923 8 7.923 0-2.211 1.793-4 4-4h3.996c4.004 0 8.004-2.25 8.004-8 0-4.893-2.785-7.16-6.020-7.787z"></path>
</svg>
