<?xml version="1.0" encoding="utf-8"?>
<!-- Generated by IcoMoon.io -->
<!DOCTYPE svg PUBLIC "-//W3C//DTD SVG 1.1//EN" "http://www.w3.org/Graphics/SVG/1.1/DTD/svg11.dtd">
<svg version="1.1" xmlns="http://www.w3.org/2000/svg" xmlns:xlink="http://www.w3.org/1999/xlink" width="32" height="32" viewBox="0 0 32 32">
<path fill="#444444" d="M24.653 11.192c0 0 0.479-6.444-5.426-7.18-5.062-0.517-6.602 4.187-6.602 4.187s-1.523-1.466-3.592-0.269c-1.851 1.143-1.523 3.234-1.523 3.234s-4.11 0.8-4.11 4.99c0.092 4.186 4.464 4.228 4.464 4.228h16.082c0 0 4.068 0.004 4.641-3.977 0.271-4.354-3.934-5.213-3.934-5.213zM9.756 22.947c-0.179-0.354-0.339-0.831-0.479-1.429-0.138 0.598-0.297 1.074-0.476 1.429-0.376 0.747-0.977 1.328-0.977 1.328-0.479 0.533-0.718 1.067-0.718 1.601 0 0.59 0.214 1.095 0.641 1.518 0.427 0.422 0.937 0.633 1.529 0.633 0.596 0 1.106-0.211 1.533-0.633 0.428-0.423 0.641-0.928 0.641-1.518 0-0.533-0.239-1.067-0.717-1.601 0 0-0.6-0.581-0.977-1.328zM16.756 22.947c-0.179-0.354-0.339-0.831-0.479-1.429-0.139 0.598-0.297 1.074-0.476 1.429-0.376 0.747-0.978 1.328-0.978 1.328-0.478 0.533-0.717 1.067-0.717 1.601 0 0.59 0.213 1.095 0.641 1.518 0.426 0.422 0.936 0.633 1.529 0.633 0.596 0 1.106-0.211 1.533-0.633 0.428-0.423 0.641-0.928 0.641-1.518 0-0.533-0.239-1.067-0.718-1.601 0 0-0.6-0.581-0.976-1.328zM23.756 22.947c-0.179-0.354-0.339-0.831-0.479-1.429-0.139 0.598-0.297 1.074-0.476 1.429-0.377 0.747-0.978 1.328-0.978 1.328-0.478 0.533-0.717 1.067-0.717 1.601 0 0.59 0.213 1.095 0.641 1.518 0.426 0.422 0.936 0.633 1.529 0.633 0.596 0 1.106-0.211 1.533-0.633 0.428-0.423 0.641-0.928 0.641-1.518 0-0.533-0.239-1.067-0.717-1.601 0 0-0.601-0.581-0.977-1.328z"></path>
</svg>
