<?xml version="1.0" encoding="utf-8"?>
<!-- Generated by IcoMoon.io -->
<!DOCTYPE svg PUBLIC "-//W3C//DTD SVG 1.1//EN" "http://www.w3.org/Graphics/SVG/1.1/DTD/svg11.dtd">
<svg version="1.1" xmlns="http://www.w3.org/2000/svg" xmlns:xlink="http://www.w3.org/1999/xlink" width="48" height="48" viewBox="0 0 48 48">
<path fill="#444444" d="M44.22 25.38c0.49-0.67 0.78-1.49 0.78-2.38 0-2.21-1.79-4-4-4h-4c-1.1 0-2-0.899-2-2v-12c0-2.21-1.79-4-4-4l-14 0c-2.21 0-4 1.79-4 4v12c0 1.101-0.9 2-2 2h-4c-2.21 0-4 1.79-4 4 0 0.89 0.29 1.71 0.779 2.38l16.671 20.15c1.96 1.96 5.14 1.96 7.1 0l16.67-20.15z"></path>
</svg>
