<?xml version="1.0" encoding="utf-8"?>
<!-- Generated by IcoMoon.io -->
<!DOCTYPE svg PUBLIC "-//W3C//DTD SVG 1.1//EN" "http://www.w3.org/Graphics/SVG/1.1/DTD/svg11.dtd">
<svg version="1.1" xmlns="http://www.w3.org/2000/svg" xmlns:xlink="http://www.w3.org/1999/xlink" width="32" height="32" viewBox="0 0 32 32">
<path fill="#444444" d="M2 14c-1.105 0-2 0.895-2 2s0.895 2 2 2 2-0.895 2-2-0.896-2-2-2zM6 8c1.104 0 2-0.894 2-2s-0.896-2-2-2-2 0.894-2 2 0.896 2 2 2zM16 4c1.105 0 2-0.894 2-2 0-1.103-0.895-2-2-2s-2 0.896-2 2c0 1.106 0.896 2 2 2zM6 24c-1.104 0-2 0.895-2 2s0.896 2 2 2 2-0.895 2-2-0.896-2-2-2zM26 24c-1.105 0-2 0.895-2 2s0.895 2 2 2 2-0.895 2-2-0.895-2-2-2zM16 8c-4.418 0-8 3.582-8 8s3.582 8 8 8 8-3.582 8-8-3.582-8-8-8zM16 20c-2.209 0-4-1.791-4-4s1.791-4 4-4 4 1.791 4 4-1.791 4-4 4zM30 14c-1.105 0-2 0.895-2 2s0.895 2 2 2 2-0.895 2-2-0.895-2-2-2zM16 28c-1.104 0-2 0.896-2 2 0 1.105 0.896 2 2 2s2-0.895 2-2c0-1.104-0.895-2-2-2zM26 8c1.105 0 2-0.894 2-2s-0.895-2-2-2-2 0.894-2 2 0.895 2 2 2z"></path>
</svg>
