<?xml version="1.0" encoding="utf-8"?>
<!-- Generated by IcoMoon.io -->
<!DOCTYPE svg PUBLIC "-//W3C//DTD SVG 1.1//EN" "http://www.w3.org/Graphics/SVG/1.1/DTD/svg11.dtd">
<svg version="1.1" xmlns="http://www.w3.org/2000/svg" xmlns:xlink="http://www.w3.org/1999/xlink" width="24" height="24" viewBox="0 0 24 24">
<path fill="#444444" d="M9.362 9.158c0 0-3.16 0.35-5.268 0.584-0.19 0.023-0.358 0.15-0.421 0.343s0 0.394 0.14 0.521c1.566 1.429 3.919 3.569 3.919 3.569-0.002 0-0.646 3.113-1.074 5.19-0.036 0.188 0.032 0.387 0.196 0.506 0.163 0.119 0.373 0.121 0.538 0.028 1.844-1.048 4.606-2.624 4.606-2.624s2.763 1.576 4.604 2.625c0.168 0.092 0.378 0.090 0.541-0.029s0.232-0.318 0.195-0.505c-0.428-2.078-1.071-5.191-1.071-5.191s2.353-2.14 3.919-3.566c0.14-0.131 0.202-0.332 0.14-0.524s-0.23-0.319-0.42-0.341c-2.108-0.236-5.269-0.586-5.269-0.586s-1.31-2.898-2.183-4.83c-0.082-0.173-0.254-0.294-0.456-0.294s-0.375 0.122-0.453 0.294c-0.874 1.932-2.183 4.83-2.183 4.83z"></path>
</svg>
