<?xml version="1.0" encoding="utf-8"?>
<!-- Generated by IcoMoon.io -->
<!DOCTYPE svg PUBLIC "-//W3C//DTD SVG 1.1//EN" "http://www.w3.org/Graphics/SVG/1.1/DTD/svg11.dtd">
<svg version="1.1" xmlns="http://www.w3.org/2000/svg" xmlns:xlink="http://www.w3.org/1999/xlink" width="24" height="24" viewBox="0 0 24 24">
<path fill="#444444" d="M16 19h-8c-1.654 0-3-1.346-3-3v-8c0-1.654 1.346-3 3-3h5c0.553 0 1 0.448 1 1s-0.447 1-1 1h-5c-0.552 0-1 0.449-1 1v8c0 0.551 0.448 1 1 1h8c0.552 0 1-0.449 1-1v-3c0-0.552 0.447-1 1-1s1 0.448 1 1v3c0 1.654-1.346 3-3 3z"></path>
<path fill="#444444" d="M13.166 14.833c-0.35 0-0.689-0.139-0.941-0.391l-2.668-2.667c-0.52-0.521-0.52-1.365 0-1.885s1.365-0.521 1.887 0l1.416 1.417 3.475-5.455c0.357-0.644 1.17-0.877 1.814-0.519s0.875 1.17 0.518 1.813l-4.334 7c-0.203 0.366-0.566 0.615-0.98 0.673-0.064 0.010-0.124 0.014-0.187 0.014z"></path>
</svg>
