<?xml version="1.0" encoding="utf-8"?>
<!-- Generated by IcoMoon.io -->
<!DOCTYPE svg PUBLIC "-//W3C//DTD SVG 1.1//EN" "http://www.w3.org/Graphics/SVG/1.1/DTD/svg11.dtd">
<svg version="1.1" xmlns="http://www.w3.org/2000/svg" xmlns:xlink="http://www.w3.org/1999/xlink" width="48" height="48" viewBox="0 0 48 48">
<path fill="#444444" d="M40 48c2.21 0 4-1.79 4-4v-5h1.8c1.22 0 2.2-0.98 2.2-2.2l-0-10.6c0-1.22-0.98-2.2-2.2-2.2h-1.8v-4h1.8c1.22 0 2.2-0.98 2.2-2.2v-10.6c0-1.22-0.98-2.2-2.2-2.2h-1.8v-1c0-2.21-1.79-4-4-4h-31c-2.21 0-4 1.79-4 4v4l-2.5-0c-1.38 0-2.5 1.12-2.5 2.5s1.12 2.5 2.5 2.5h2.5v4l-2.5-0c-1.38 0-2.5 1.12-2.5 2.5s1.12 2.5 2.5 2.5h2.5v4l-2.5-0c-1.38 0-2.5 1.12-2.5 2.5s1.12 2.5 2.5 2.5h2.5v4l-2.5-0c-1.38 0-2.5 1.12-2.5 2.5s1.12 2.5 2.5 2.5h2.5v4c0 2.21 1.79 4 4 4l31-0zM10 40.8v-0.8h3.5c1.38 0 2.5-1.12 2.5-2.5s-1.12-2.5-2.5-2.5h-3.5v-4h3.5c1.38 0 2.5-1.12 2.5-2.5s-1.12-2.5-2.5-2.5h-3.5v-4h3.5c1.38 0 2.5-1.12 2.5-2.5s-1.12-2.5-2.5-2.5h-3.5v-4h3.5c1.38 0 2.5-1.12 2.5-2.5s-1.12-2.5-2.5-2.5h-3.5v-0.8c0-1.22 0.98-2.2 2.2-2.2h6.6c1.22 0 2.2 0.98 2.2 2.2v33.6c0 1.22-0.98 2.2-2.2 2.2h-6.6c-1.22 0-2.2-0.98-2.2-2.2z"></path>
</svg>
