<?xml version="1.0" encoding="utf-8"?>
<!-- Generated by IcoMoon.io -->
<!DOCTYPE svg PUBLIC "-//W3C//DTD SVG 1.1//EN" "http://www.w3.org/Graphics/SVG/1.1/DTD/svg11.dtd">
<svg version="1.1" xmlns="http://www.w3.org/2000/svg" xmlns:xlink="http://www.w3.org/1999/xlink" width="48" height="48" viewBox="0 0 48 48">
<path fill="#444444" d="M26.811 16.72l-3.051 3.030-12.22-12.22c-0.36-0.36-0.85-0.58-1.4-0.58-0.89 0-1.65 0.59-1.9 1.39l-0.11 0.36c-0.73 2.3-1.13 4.75-1.13 7.3 0 5.95 2.16 11.391 5.74 15.58l-0.38 0.5c-1.76 1.75-2.77 3.97-3.020 6.26-3.37 0.881-6.050 3.381-7.11 6.6 0 0-0.23 0.61-0.23 1.061 0 1.1 0.92 2 2.050 2h15.9c1.13 0 2.050-0.9 2.050-2 0-0.63-0.28-1.2-0.28-1.2-1.12-3.229-3.87-5.71-7.3-6.52 0.22-0.98 0.71-1.91 1.47-2.671l0.46-0.6c4.050 3.131 9.13 4.99 14.65 4.99 2.51 0 4.93-0.38 7.2-1.1 0.11-0.030 0.51-0.2 0.51-0.2 0.761-0.28 1.31-1.011 1.31-1.87 0-0.561-0.229-1.070-0.609-1.43l-0.311-0.3-11.86-11.87 3.039-3.040c0.961-0.96 0.961-2.51 0-3.47-0.959-0.96-2.509-0.96-3.468 0zM34 18.5c0 1.38 1.12 2.5 2.5 2.5s2.5-1.12 2.5-2.5l-0.010-0.5c-0.12-2.52-1.141-5-3.070-6.92-1.92-1.93-4.4-2.95-6.92-3.070l-0.5-0.010c-1.38 0-2.5 1.12-2.5 2.5s1.12 2.5 2.5 2.5c0.17 0 0.5 0.020 0.5 0.020 1.24 0.12 2.439 0.64 3.391 1.59 0.949 0.95 1.469 2.15 1.58 3.39 0 0 0.029 0.33 0.029 0.5zM42 18.5c0 1.38 1.12 2.5 2.5 2.5s2.5-1.12 2.5-2.5l-0.010-0.5c-0.12-4.57-1.92-9.1-5.41-12.58-3.48-3.49-8.010-5.29-12.58-5.41l-0.5-0.010c-1.38 0-2.5 1.12-2.5 2.5s1.12 2.5 2.5 2.5l0.5 0.010c3.29 0.12 6.54 1.44 9.050 3.94 2.5 2.51 3.82 5.76 3.94 9.050l0.010 0.5z"></path>
</svg>
