<?xml version="1.0" encoding="utf-8"?>
<!-- Generated by IcoMoon.io -->
<!DOCTYPE svg PUBLIC "-//W3C//DTD SVG 1.1//EN" "http://www.w3.org/Graphics/SVG/1.1/DTD/svg11.dtd">
<svg version="1.1" xmlns="http://www.w3.org/2000/svg" xmlns:xlink="http://www.w3.org/1999/xlink" width="32" height="32" viewBox="0 0 32 32">
<path fill="#444444" d="M22 0c-5.523 0-10 4.477-10 10 0 0.625 0.074 1.227 0.184 1.816l-12.184 12.184v8h12v-4h4v-4h4v-4l0.184-0.184c0.589 0.11 1.191 0.184 1.816 0.184 5.523 0 10-4.477 10-10s-4.477-10-10-10zM22.008 12c-1.105 0-2-0.895-2-2s0.895-2 2-2 2 0.895 2 2-0.895 2-2 2z"></path>
</svg>
