<?xml version="1.0" encoding="utf-8"?>
<!-- Generated by IcoMoon.io -->
<!DOCTYPE svg PUBLIC "-//W3C//DTD SVG 1.1//EN" "http://www.w3.org/Graphics/SVG/1.1/DTD/svg11.dtd">
<svg version="1.1" xmlns="http://www.w3.org/2000/svg" xmlns:xlink="http://www.w3.org/1999/xlink" width="24" height="24" viewBox="0 0 24 24">
<path fill="#444444" d="M12 5.109l-2.297 2.25-1.406-1.406 3.703-3.703 5.672 5.672q1.781 1.781 2.203 4.289t-0.609 4.711l-7.266-7.219v-4.594zM12 19.594v-4.828l-4.781-4.781q-1.219 1.594-1.219 3.609 0 2.438 1.781 4.219t4.219 1.781zM20.672 20.859l0.328 0.375-1.266 1.266-2.719-2.719q-2.203 1.781-5.016 1.781-3.328 0-5.672-2.344-2.156-2.203-2.32-5.273t1.758-5.414l-2.766-2.766 1.266-1.266q14.016 14.016 16.406 16.359z"></path>
</svg>
