<?xml version="1.0" encoding="utf-8"?>
<!-- Generated by IcoMoon.io -->
<!DOCTYPE svg PUBLIC "-//W3C//DTD SVG 1.1//EN" "http://www.w3.org/Graphics/SVG/1.1/DTD/svg11.dtd">
<svg version="1.1" xmlns="http://www.w3.org/2000/svg" xmlns:xlink="http://www.w3.org/1999/xlink" width="24" height="24" viewBox="0 0 24 24">
<path fill="#444444" d="M12 5.511c0.561 0 1.119 0.354 1.544 1.062l5.912 9.854c0.851 1.415 0.194 2.573-1.456 2.573h-12c-1.65 0-2.307-1.159-1.456-2.573l5.912-9.854c0.425-0.708 0.983-1.062 1.544-1.062zM12 3.511c-1.296 0-2.482 0.74-3.259 2.031l-5.912 9.856c-0.786 1.309-0.872 2.705-0.235 3.83s1.879 1.772 3.406 1.772h12c1.527 0 2.77-0.646 3.406-1.771s0.551-2.521-0.235-3.83l-5.912-9.854c-0.777-1.294-1.963-2.034-3.259-2.034z"></path>
<path fill="#444444" d="M13.5 16.748c0 0-0.711 0.361-1.075 0.182-0.362-0.184-0.434-0.541-0.229-1.152l0.406-1.221c0.403-1.221-0.121-2.076-1.082-2.131-1.258-0.070-2.020 0.826-2.020 0.826s0.71-0.365 1.075-0.182c0.362 0.184 0.432 0.541 0.229 1.152l-0.406 1.221c-0.405 1.221 0.119 2.074 1.082 2.131 1.258 0.071 2.020-0.826 2.020-0.826z"></path>
<path fill="#444444" d="M13.301 10c0 0.719-0.582 1.301-1.301 1.301s-1.301-0.582-1.301-1.301c0-0.719 0.582-1.301 1.301-1.301s1.301 0.582 1.301 1.301z"></path>
</svg>
