<?xml version="1.0" encoding="utf-8"?>
<!-- Generated by IcoMoon.io -->
<!DOCTYPE svg PUBLIC "-//W3C//DTD SVG 1.1//EN" "http://www.w3.org/Graphics/SVG/1.1/DTD/svg11.dtd">
<svg version="1.1" xmlns="http://www.w3.org/2000/svg" xmlns:xlink="http://www.w3.org/1999/xlink" width="24" height="24" viewBox="0 0 24 24">
<path fill="#444444" d="M5.618 14h2.764l-1.382-2.764z"></path>
<path fill="#444444" d="M21 14l2.4-3.2c0.686-0.915 0.795-2.119 0.284-3.142s-1.54-1.658-2.684-1.658h-6c-1.654 0-3 1.346-3 3 0 0.77 0.295 1.469 0.774 2h-0.274c-0.368 0-0.708 0.107-1.005 0.281l-1.811-3.623c-0.498-0.995-1.527-1.614-2.684-1.614s-2.186 0.619-2.684 1.614l-4 8c-0.358 0.717-0.416 1.53-0.163 2.291s0.788 1.376 1.504 1.735c0.414 0.207 0.879 0.316 1.342 0.316 1.143 0 2.171-0.635 2.684-1.657l0.171-0.343h2.291l0.171 0.342c0.512 1.023 1.54 1.658 2.684 1.658 0.464 0 0.928-0.109 1.342-0.316 0.243-0.122 0.455-0.282 0.652-0.458 0.54 0.488 1.246 0.774 2.006 0.774h6c1.654 0 3-1.346 3-3s-1.346-3-3-3zM11.447 17.895c-0.143 0.071-0.296 0.105-0.446 0.105-0.368 0-0.721-0.203-0.896-0.553l-0.723-1.447h-4.764l-0.724 1.447c-0.175 0.35-0.528 0.553-0.895 0.553-0.15 0-0.303-0.034-0.446-0.106-0.494-0.247-0.694-0.848-0.447-1.342l4-8c0.169-0.338 0.532-0.508 0.894-0.508s0.725 0.169 0.895 0.508l4 8c0.247 0.495 0.046 1.095-0.448 1.343zM12.5 14c-0.552 0-1-0.448-1-1s0.448-1 1-1h1c0.552 0 1 0.448 1 1s-0.448 1-1 1h-1zM21 18h-6c-0.379 0-0.725-0.214-0.895-0.553s-0.132-0.744 0.095-1.047l4.8-6.4h-4c-0.552 0-1-0.448-1-1s0.448-1 1-1h6c0.379 0 0.725 0.214 0.895 0.553s0.132 0.744-0.095 1.047l-4.8 6.4h4c0.552 0 1 0.448 1 1s-0.448 1-1 1z"></path>
</svg>
