<?xml version="1.0" encoding="utf-8"?>
<!-- Generated by IcoMoon.io -->
<!DOCTYPE svg PUBLIC "-//W3C//DTD SVG 1.1//EN" "http://www.w3.org/Graphics/SVG/1.1/DTD/svg11.dtd">
<svg version="1.1" xmlns="http://www.w3.org/2000/svg" xmlns:xlink="http://www.w3.org/1999/xlink" width="24" height="24" viewBox="0 0 24 24">
<path fill="#444444" d="M12 14c1.381 0 2.631-0.56 3.536-1.465 0.904-0.904 1.464-2.154 1.464-3.535s-0.56-2.631-1.464-3.535c-0.905-0.905-2.155-1.465-3.536-1.465s-2.631 0.56-3.536 1.465c-0.904 0.904-1.464 2.154-1.464 3.535s0.56 2.631 1.464 3.535c0.905 0.905 2.155 1.465 3.536 1.465z"></path>
<path fill="#444444" d="M20 15c0.69 0 1.315-0.279 1.768-0.731s0.732-1.077 0.732-1.769c0-0.69-0.279-1.315-0.732-1.768s-1.078-0.732-1.768-0.732c-0.691 0-1.316 0.279-1.769 0.732-0.452 0.453-0.731 1.078-0.731 1.768 0 0.691 0.279 1.316 0.731 1.769s1.078 0.731 1.769 0.731z"></path>
<path fill="#444444" d="M20 15.59c-1.331 0-2.332 0.406-2.917 0.968-1.115-0.917-2.878-1.558-5.083-1.558-2.266 0-3.995 0.648-5.092 1.564-0.596-0.565-1.608-0.974-2.908-0.974-2.188 0-3.5 1.090-3.5 2.182 0 0.545 1.312 1.092 3.5 1.092 0.604 0 1.146-0.051 1.623-0.133-0.010 0.091-0.040 0.18-0.040 0.27 0 1 2.406 2 6.417 2 3.762 0 6.417-1 6.417-2 0-0.085-0.011-0.17-0.020-0.255 0.463 0.073 0.995 0.118 1.603 0.118 2.051 0 3.5-0.547 3.5-1.092 0-1.092-1.373-2.182-3.5-2.182z"></path>
<path fill="#444444" d="M4 15c0.69 0 1.315-0.279 1.768-0.732s0.732-1.078 0.732-1.768c0-0.689-0.279-1.314-0.732-1.768-0.453-0.452-1.078-0.732-1.768-0.732-0.691 0-1.316 0.28-1.769 0.732-0.452 0.454-0.731 1.079-0.731 1.768s0.279 1.315 0.731 1.768c0.453 0.453 1.078 0.732 1.769 0.732z"></path>
</svg>
