<?xml version="1.0" encoding="utf-8"?>
<!-- Generated by IcoMoon.io -->
<!DOCTYPE svg PUBLIC "-//W3C//DTD SVG 1.1//EN" "http://www.w3.org/Graphics/SVG/1.1/DTD/svg11.dtd">
<svg version="1.1" xmlns="http://www.w3.org/2000/svg" xmlns:xlink="http://www.w3.org/1999/xlink" width="24" height="24" viewBox="0 0 24 24">
<path fill="#444444" d="M12 21.312l-7.121-7.121c-1.17-1.17-1.17-3.073 0-4.242 1.094-1.094 2.978-1.138 4.121-0.115v-4.834c0-1.654 1.346-3 3-3s3 1.346 3 3v4.834c1.143-1.023 3.027-0.979 4.121 0.115 1.17 1.169 1.17 3.072 0 4.242l-7.121 7.121zM7 11.070c-0.268 0-0.518 0.104-0.707 0.293-0.391 0.39-0.391 1.023 0 1.414l5.707 5.707 5.707-5.707c0.391-0.391 0.391-1.024 0-1.414-0.379-0.379-1.035-0.379-1.414 0l-3.293 3.293v-9.656c0-0.551-0.448-1-1-1s-1 0.449-1 1v9.656l-3.293-3.293c-0.189-0.189-0.439-0.293-0.707-0.293z"></path>
</svg>
