<?xml version="1.0" encoding="utf-8"?>
<!-- Generated by IcoMoon.io -->
<!DOCTYPE svg PUBLIC "-//W3C//DTD SVG 1.1//EN" "http://www.w3.org/Graphics/SVG/1.1/DTD/svg11.dtd">
<svg version="1.1" xmlns="http://www.w3.org/2000/svg" xmlns:xlink="http://www.w3.org/1999/xlink" width="24" height="24" viewBox="0 0 24 24">
<path fill="#444444" d="M19 3h-5.243c-1.302 0-2.401 0.838-2.815 2h-6.942v7.061c0 0.041 0.011 0.079 0.012 0.12-1.167 0.41-2.012 1.512-2.012 2.819v7h7c1.311 0 2.593-0.826 3-2h7v-7.061c0-0.041-0.011-0.079-0.012-0.12 1.167-0.41 2.012-1.512 2.012-2.819v-7h-2zM17 18h-5c-0.553 0-1-0.448-1-1s0.447-1 1-1h3v-3.061c0-0.552 0.447-1 1-1s1 0.448 1 1v5.061zM6 7h5.061c0.553 0 1 0.448 1 1s-0.447 1-1 1h-3.061v3.061c0 0.552-0.448 1-1 1-0.553 0-1-0.448-1-1v-5.061zM19 10c0 0.552-0.447 1-1 1s-1-0.448-1-1v-1.586l-3.293 3.293c-0.195 0.195-0.451 0.293-0.707 0.293s-0.512-0.098-0.707-0.293c-0.391-0.391-0.391-1.023 0-1.414l3.293-3.293h-1.586c-0.553 0-1-0.448-1-1s0.447-1 1-1h5v5zM9 20h-3.996c-0.008 0-1.004 0-1.004 0v-5c0-0.552 0.447-1 1-1s1 0.448 1 1v1.586l3.293-3.293c0.195-0.195 0.451-0.293 0.707-0.293s0.512 0.098 0.707 0.293c0.391 0.391 0.391 1.023 0 1.414l-3.293 3.293h1.586c0.553 0 1 0.448 1 1s-0.448 1-1 1zM11.414 12.586c-0.378-0.378-0.88-0.586-1.414-0.586-0.367 0-0.716 0.105-1.023 0.289 0.008-0.076 0.023-0.15 0.023-0.228v-2.061h2.061c0.078 0 0.152-0.014 0.229-0.023-0.186 0.307-0.29 0.656-0.29 1.023 0 0.534 0.208 1.036 0.586 1.414s0.88 0.586 1.414 0.586c0.367 0 0.716-0.105 1.023-0.289-0.008 0.076-0.023 0.15-0.023 0.228v2.061h-1.939c-0.122 0-0.24 0.015-0.356 0.036 0.189-0.31 0.295-0.664 0.295-1.036 0-0.534-0.208-1.036-0.586-1.414z"></path>
</svg>
