<?xml version="1.0" encoding="utf-8"?>
<!-- Generated by IcoMoon.io -->
<!DOCTYPE svg PUBLIC "-//W3C//DTD SVG 1.1//EN" "http://www.w3.org/Graphics/SVG/1.1/DTD/svg11.dtd">
<svg version="1.1" xmlns="http://www.w3.org/2000/svg" xmlns:xlink="http://www.w3.org/1999/xlink" width="24" height="32" viewBox="0 0 24 32">
<path fill="#444444" d="M14.004 0c-5.51 0-9.998 4.484-9.998 10v2h-4.006v14c0 3.305 2.695 6 5.998 6h12.002c3.313 0 6-2.695 6-6v-16c0-5.516-4.484-10-9.996-10zM8.006 10c0-3.312 2.693-6 5.998-6 3.309 0 5.996 2.688 5.996 6v2h-11.994v-2zM18 28h-12.002c-1.102 0-2-0.898-2-2v-10h16.002v10c0 1.102-0.891 2-2 2zM14 22c0 1.102-0.898 2-2 2-1.109 0-2-0.898-2-2 0-1.109 0.891-2 2-2 1.102 0 2 0.891 2 2z"></path>
</svg>
