<?xml version="1.0" encoding="utf-8"?>
<!-- Generated by IcoMoon.io -->
<!DOCTYPE svg PUBLIC "-//W3C//DTD SVG 1.1//EN" "http://www.w3.org/Graphics/SVG/1.1/DTD/svg11.dtd">
<svg version="1.1" xmlns="http://www.w3.org/2000/svg" xmlns:xlink="http://www.w3.org/1999/xlink" width="48" height="48" viewBox="0 0 48 48">
<path fill="#444444" d="M18 21.5c0 2.14 1.22 3.99 3 4.9v14.6c0 1.1-0.9 2-2 2h-5.5c-1.38 0-2.5 1.12-2.5 2.5s1.12 2.5 2.5 2.5h20c1.38 0 2.5-1.12 2.5-2.5s-1.12-2.5-2.5-2.5h-5.5c-1.1 0-2-0.9-2-2l-0-14.6c1.779-0.91 3-2.76 3-4.9 0-3.040-2.46-5.5-5.5-5.5s-5.5 2.46-5.5 5.5zM10 21.7c0 2.5 0.67 4.84 1.83 6.86l0.15 0.229c0.409 0.819 1.25 1.38 2.22 1.38 1.38 0 2.5-1.13 2.5-2.529 0-0.48-0.131-0.931-0.36-1.311l-0.271-0.46c-0.679-1.239-1.069-2.659-1.069-4.169 0-4.74 3.811-8.7 8.5-8.7s8.5 3.96 8.5 8.7c0 1.51-0.391 2.93-1.070 4.17l-0.27 0.46c-0.23 0.38-0.36 0.83-0.36 1.311 0 1.399 1.12 2.529 2.5 2.529 0.97 0 1.81-0.561 2.22-1.38l0.15-0.229c1.16-2.021 1.83-4.361 1.83-6.861 0-7.53-6.040-13.7-13.5-13.7s-13.5 6.17-13.5 13.7zM2 21.7c0 4.89 1.6 9.399 4.311 13.030l0.18 0.25c0.448 0.62 1.189 1.020 2.009 1.020 1.38 0 2.5-1.13 2.5-2.52 0-0.58-0.189-1.121-0.52-1.551l-0.19-0.26c-2.070-2.778-3.29-6.23-3.29-9.969 0-9.2 7.39-16.7 16.5-16.7 9.109 0 16.5 7.5 16.5 16.7 0 3.739-1.221 7.19-3.29 9.97l-0.19 0.26c-0.331 0.429-0.52 0.97-0.52 1.55 0 1.39 1.12 2.52 2.5 2.52 0.819 0 1.561-0.4 2.010-1.020l0.18-0.25c2.71-3.63 4.31-8.14 4.31-13.030 0-11.99-9.63-21.7-21.5-21.7s-21.5 9.71-21.5 21.7z"></path>
</svg>
