<?xml version="1.0" encoding="utf-8"?>
<!-- Generated by IcoMoon.io -->
<!DOCTYPE svg PUBLIC "-//W3C//DTD SVG 1.1//EN" "http://www.w3.org/Graphics/SVG/1.1/DTD/svg11.dtd">
<svg version="1.1" xmlns="http://www.w3.org/2000/svg" xmlns:xlink="http://www.w3.org/1999/xlink" width="42" height="32" viewBox="0 0 42 32">
<path fill="#444444" d="M1.5 17c-0.276 0-0.5 0.224-0.5 0.5v12c0 0.827 0.673 1.5 1.5 1.5h10c0.276 0 0.5-0.224 0.5-0.5s-0.224-0.5-0.5-0.5h-10c-0.276 0-0.5-0.224-0.5-0.5v-12c0-0.276-0.224-0.5-0.5-0.5zM40.5 17c-0.276 0-0.5 0.224-0.5 0.5v12c0 0.276-0.224 0.5-0.5 0.5h-21c-0.276 0-0.5 0.224-0.5 0.5s0.224 0.5 0.5 0.5h21c0.827 0 1.5-0.673 1.5-1.5v-12c0-0.276-0.224-0.5-0.5-0.5zM18 1.5c0 0.276 0.224 0.5 0.5 0.5h21c0.276 0 0.5 0.224 0.5 0.5v8.958c0 0.276 0.224 0.5 0.5 0.5s0.5-0.224 0.5-0.5v-8.958c0-0.827-0.673-1.5-1.5-1.5h-21c-0.276 0-0.5 0.224-0.5 0.5zM2.5 1c-0.827 0-1.5 0.673-1.5 1.5v8.958c0 0.276 0.224 0.5 0.5 0.5s0.5-0.224 0.5-0.5v-8.958c0-0.276 0.224-0.5 0.5-0.5h10c0.276 0 0.5-0.224 0.5-0.5s-0.224-0.5-0.5-0.5h-10zM41.5 13.958h-20.4c0.397-0.176 0.74-0.381 0.984-0.625 1.511-1.511 1.511-3.969 0-5.48-1.464-1.464-4.016-1.464-5.48 0-0.235 0.235-0.432 0.563-0.604 0.94v-8.293c0-0.276-0.224-0.5-0.5-0.5s-0.5 0.224-0.5 0.5v13.225c-1.703-0.702-4.701-2.144-5.316-3.387-0.4-0.808-0.461-1.722-0.173-2.576s0.892-1.543 1.699-1.943c0.248-0.123 0.349-0.422 0.227-0.67-0.124-0.248-0.422-0.35-0.67-0.227-1.047 0.518-1.829 1.413-2.203 2.52s-0.294 2.293 0.224 3.339c0.605 1.222 2.63 2.391 4.275 3.177h-12.563c-0.276 0-0.5 0.224-0.5 0.5s0.224 0.5 0.5 0.5h9.346c-0.387 0.174-0.722 0.375-0.961 0.614-1.511 1.511-1.511 3.969 0 5.48 0.732 0.732 1.705 1.135 2.74 1.135s2.008-0.403 2.74-1.135c0.248-0.248 0.456-0.599 0.635-1.005v11.453c0 0.276 0.224 0.5 0.5 0.5s0.5-0.224 0.5-0.5v-16.305c1.708 0.706 4.673 2.138 5.285 3.374 0.4 0.808 0.461 1.722 0.173 2.576-0.289 0.854-0.892 1.543-1.699 1.943-0.248 0.123-0.349 0.422-0.227 0.67 0.087 0.176 0.265 0.278 0.449 0.278 0.074 0 0.15-0.017 0.221-0.052 1.047-0.518 1.829-1.413 2.203-2.52s0.294-2.292-0.224-3.339c-0.602-1.216-2.611-2.38-4.252-3.167h23.571c0.276 0 0.5-0.224 0.5-0.5s-0.224-0.5-0.5-0.5zM17.311 8.561c0.543-0.543 1.265-0.842 2.033-0.842s1.49 0.299 2.033 0.842c1.121 1.121 1.121 2.945 0 4.066-0.854 0.854-3.79 1.202-5.367 1.3 0.112-1.864 0.522-4.587 1.301-5.366zM13.658 20.345c-1.086 1.086-2.98 1.086-4.066 0-1.121-1.121-1.121-2.945 0-4.066 0.854-0.854 3.79-1.202 5.367-1.3-0.112 1.864-0.522 4.587-1.301 5.366z"></path>
</svg>
