<?xml version="1.0" encoding="utf-8"?>
<!-- Generated by IcoMoon.io -->
<!DOCTYPE svg PUBLIC "-//W3C//DTD SVG 1.1//EN" "http://www.w3.org/Graphics/SVG/1.1/DTD/svg11.dtd">
<svg version="1.1" xmlns="http://www.w3.org/2000/svg" xmlns:xlink="http://www.w3.org/1999/xlink" width="32" height="32" viewBox="0 0 32 32">
<path fill="#444444" d="M19.317 7.005h1.031c1.999-2.752-1.372-4.003 0-7.005h-1.031c-1.199 2.952 1.621 4.103 0 7.005zM15.294 8.006h1.048c-1.394-3.002 2.031-5.254 0-8.006h-1.048c1.647 2.902-1.219 5.054 0 8.006zM30.467 25.417c-0.2-0.771-0.439-1.165-1.531-1.251-0.415-0.027-0.812-0.051-1.224-0.078 0.011-0.020 0.018-0.049 0.027-0.070h-3.19c-0.278 0-0.504-0.224-0.504-0.5 0-0.277 0.226-0.501 0.504-0.501h3.406c0.070-0.85-0.031-1.893-0.333-2.437-0.447-0.861-0.863-1.561-1.267-2.114-0.697-0.87-1.989-1.453-2.944-1.767-0.112-0.029-0.248-0.055-0.395-0.079-0.051 0.223-0.242 0.393-0.481 0.393h-3.021c-0.278 0-0.504-0.224-0.504-0.501 0-0.117 0.409-0.224 0.896-0.31-0.606-1.433 0.111-3.192 0.111-3.192 0-1.105-2.015-3.335-2.015-2.001s-4.793 0-4.793 0c-0.651-0.729-1.249-2.001-1.249-2.001s-1.756 0.992-1.972 2.256c-0.623 0.34-1.050 0.99-1.050 1.747v1c0 0.467 0.083 1.25 0.292 2.001h2.226c0.278 0 0.504 0.224 0.504 0.5 0 0.277-0.226 0.501-0.504 0.501h-3.019c-0.226 0-0.409-0.148-0.474-0.352-0.666-0.145-1.34-0.334-2.024-0.593-1.122 0.023-2.033 0.903-2.033 1.998v1.979c0.001 0.369 0.106 0.718 0.291 1.021 0.064-0.030 0.136-0.050 0.212-0.050h4.028c0.278 0 0.503 0.224 0.503 0.5s-0.225 0.501-0.503 0.501h-3.083c0.088 0.034 0.177 0.068 0.271 0.093-0.562-0.006-1.125-0.025-1.686-0.025-0.982 0.005-2.324 0.849-2.779 1.614-0.679 1.188-1.033 2.142-1.156 4.017-0.066 1.252 0.785 4.284 1.729 4.284s27.215-0.022 27.215-0.022 2.995-1.861 3.045-3.007c0.118-1.718-1.28-2.39-1.526-3.554zM11.608 6.004h1.048c-1.647-2.902 1.219-3.052 0-6.004h-1.048c1.393 3.002-2.030 3.252 0 6.004z"></path>
</svg>
