<?xml version="1.0" encoding="utf-8"?>
<!-- Generated by IcoMoon.io -->
<!DOCTYPE svg PUBLIC "-//W3C//DTD SVG 1.1//EN" "http://www.w3.org/Graphics/SVG/1.1/DTD/svg11.dtd">
<svg version="1.1" xmlns="http://www.w3.org/2000/svg" xmlns:xlink="http://www.w3.org/1999/xlink" width="24" height="24" viewBox="0 0 24 24">
<path fill="#444444" d="M21.169 4.707l-2.828-2.828c-1.95-1.949-5.122-1.949-7.071 0l-9.9 9.899 1.414 1.414 9.9-9.899c1.17-1.17 3.073-1.17 4.242 0l2.829 2.829c1.17 1.169 1.17 3.072 0 4.242l-9.899 9.899c-1.275 1.275-2.693 1.549-3.073 1.17l-0.463-0.462-2.254-2.254c-0.176-0.176-0.032-1.119 0.486-1.637l9.897-9.897c0.116-0.115 1.062 0.354 1.768 1.061v0c-0.309 0.309-0.237 0.238-0.353 0.354l-7.182 7.181 1.414 1.414 7.182-7.181c0.855-0.854 1.918-1.618 0.354-3.182v0c-1.563-1.564-3.137-2.52-4.596-1.061l-9.9 9.897c-1.168 1.17-1.623 3.326-0.484 4.465l1.545 1.547 1.172 1.17c1.326 1.326 3.918 0.812 5.9-1.17l9.899-9.899c1.95-1.95 1.95-5.122 0.001-7.072z"></path>
</svg>
