<?xml version="1.0" encoding="utf-8"?>
<!-- Generated by IcoMoon.io -->
<!DOCTYPE svg PUBLIC "-//W3C//DTD SVG 1.1//EN" "http://www.w3.org/Graphics/SVG/1.1/DTD/svg11.dtd">
<svg version="1.1" xmlns="http://www.w3.org/2000/svg" xmlns:xlink="http://www.w3.org/1999/xlink" width="24" height="24" viewBox="0 0 24 24">
<path fill="#444444" d="M20.625 5.515c-1-1.522-2.915-1.67-4.397-0.824l-0.186 0.107c-0.025-0.002-0.050-0.003-0.076-0.003-1.042 0-2.010 0.511-2.604 1.369-0.012 0.015-0.023 0.029-0.034 0.045-0.43 0.645-0.723 1.236-1.005 1.809-0.255 0.516-0.5 1.010-0.824 1.483-0.325-0.475-0.57-0.97-0.826-1.486-0.283-0.571-0.575-1.162-1.004-1.806-0.010-0.016-0.021-0.030-0.033-0.044-0.593-0.859-1.562-1.37-2.603-1.37-1.747 0-3.167 1.42-3.167 3.166 0 1.747 1.421 3.168 3.167 3.168 0.775 0 1.515-0.287 2.087-0.791l0.652 1.198c-1.621 1.876-2.979 4.054-3.019 4.121-1.236 1.702 0.705 4.42 0.789 4.534 0.094 0.131 0.245 0.207 0.405 0.207 0.204-0.012 0.357-0.11 0.439-0.261l3.112-5.717 3.113 5.717c0.082 0.15 0.235 0.249 0.407 0.26 0.174 0.019 0.336-0.066 0.437-0.206 0.083-0.114 2.024-2.832 0.809-4.504l-0.323-0.521c-1.076-1.736-1.187-1.916-2.715-3.634l0.651-1.195c0.572 0.504 1.313 0.791 2.088 0.791 1.746 0 3.167-1.421 3.167-3.168 0-0.634-0.191-1.246-0.547-1.768 0.472-0.27 0.997-0.123 1.456 0.095 0.466 0.191 0.897-0.377 0.584-0.772zM7 9c-0.552 0-1-0.447-1-1s0.448-1 1-1 1 0.447 1 1-0.448 1-1 1zM11.5 12.395c-0.277 0-0.5-0.225-0.5-0.5 0-0.277 0.223-0.5 0.5-0.5s0.5 0.223 0.5 0.5c0 0.275-0.223 0.5-0.5 0.5zM16 9c-0.552 0-1-0.447-1-1s0.448-1 1-1 1 0.447 1 1-0.448 1-1 1z"></path>
</svg>
