<?xml version="1.0" encoding="UTF-8"?>
<!DOCTYPE svg PUBLIC "-//W3C//DTD SVG 1.1//EN" "http://www.w3.org/Graphics/SVG/1.1/DTD/svg11.dtd">
<!-- Creator: CorelDRAW X8 -->
<svg xmlns="http://www.w3.org/2000/svg" xml:space="preserve" width="2.54089in" height="1.65671in" version="1.1" style="shape-rendering:geometricPrecision; text-rendering:geometricPrecision; image-rendering:optimizeQuality; fill-rule:evenodd; clip-rule:evenodd"
viewBox="0 0 2803 2103"
 xmlns:xlink="http://www.w3.org/1999/xlink">
 <defs>
  <style type="text/css">
   <![CDATA[
    .fil0 {fill:black}
   ]]>
  </style>
 </defs>
 <g id="Layer_x0020_1">
  <metadata id="CorelCorpID_0Corel-Layer"/>
  <path class="fil0" d="M1839 882l194 255c13,17 21,27 33,44 11,14 26,30 31,46l-170 0c-1,43 -12,109 -24,151 -14,48 -32,83 -54,121 -12,20 -22,35 -36,52 -21,25 -38,47 -64,67 -35,27 -28,28 -79,58 -128,77 -286,97 -428,50 -56,-19 -106,-51 -125,-56 18,-33 78,-103 104,-142 170,90 354,57 467,-97 44,-60 64,-123 64,-204l-170 0c6,-21 169,-231 190,-259 14,-19 54,-76 67,-86zm-257 44c-272,-144 -531,48 -531,301l170 0c-5,18 -113,156 -127,174l-131 171c-13,-10 -51,-65 -64,-83 -20,-26 -187,-242 -193,-262l170 0c2,-114 43,-237 114,-324 43,-53 82,-89 143,-125 61,-37 121,-58 194,-69 20,-3 69,-8 85,-8 162,7 240,75 274,83 -18,33 -78,103 -104,142zm-389 -646c-20,-2 -39,-8 -60,-11 -277,-38 -557,126 -651,373 -32,87 -44,143 -44,262 -31,7 -60,21 -88,33 -37,17 -82,46 -115,71 -127,97 -235,275 -235,454 0,110 10,196 58,292 9,18 15,31 25,47 10,15 18,29 28,43 64,89 140,152 237,201 53,26 157,58 232,58l1555 0c165,0 349,-89 464,-204 115,-114 204,-298 204,-464 0,-175 -26,-282 -115,-416 -57,-86 -148,-175 -241,-224 0,-110 22,-125 -16,-269 -33,-121 -94,-233 -182,-321 -17,-17 -28,-23 -44,-39 -16,-14 -28,-23 -46,-36 -272,-188 -624,-171 -868,45l-98 105z"/>
 </g>
</svg>
