<?xml version="1.0" encoding="utf-8"?>
<!-- Generated by IcoMoon.io -->
<!DOCTYPE svg PUBLIC "-//W3C//DTD SVG 1.1//EN" "http://www.w3.org/Graphics/SVG/1.1/DTD/svg11.dtd">
<svg version="1.1" xmlns="http://www.w3.org/2000/svg" xmlns:xlink="http://www.w3.org/1999/xlink" width="24" height="24" viewBox="0 0 24 24">
<path fill="#444444" d="M17 9c-0.115 0-0.231 0.005-0.351 0.015-0.825-2.377-3.062-4.015-5.649-4.015-3.309 0-6 2.691-6 6 0 0.042 0 0.084 0.001 0.126-1.724 0.445-3.001 2.013-3.001 3.874 0 2.206 1.794 4 4 4h5v-4.586l-1.293 1.293c-0.195 0.195-0.451 0.293-0.707 0.293s-0.512-0.098-0.707-0.293c-0.391-0.391-0.391-1.023 0-1.414l2.999-2.999c0.093-0.093 0.203-0.166 0.326-0.217 0.244-0.101 0.52-0.101 0.764 0 0.123 0.051 0.233 0.124 0.326 0.217l2.999 2.999c0.391 0.391 0.391 1.023 0 1.414-0.195 0.195-0.451 0.293-0.707 0.293s-0.512-0.098-0.707-0.293l-1.293-1.293v4.586h4c2.757 0 5-2.243 5-5s-2.243-5-5-5z"></path>
</svg>
