<?xml version="1.0" encoding="utf-8"?>
<!-- Generated by IcoMoon.io -->
<!DOCTYPE svg PUBLIC "-//W3C//DTD SVG 1.1//EN" "http://www.w3.org/Graphics/SVG/1.1/DTD/svg11.dtd">
<svg version="1.1" xmlns="http://www.w3.org/2000/svg" xmlns:xlink="http://www.w3.org/1999/xlink" width="18" height="18" viewBox="0 0 18 18">
<path fill="#444444" d="M16.693 8.51l-7.18-7.208c-0.192-0.193-0.454-0.302-0.726-0.302h-6.753c-0.566 0-1.026 0.459-1.026 1.027v6.752c0 0.272 0.108 0.534 0.301 0.726l7.195 7.195c0.2 0.2 0.463 0.3 0.725 0.3s0.525-0.1 0.725-0.3l6.738-6.739c0.4-0.4 0.401-1.050 0.001-1.451zM14.239 9.587l-4.658 4.658c-0.195 0.195-0.511 0.195-0.706 0l-5.869-5.869v-4.875c0-0.276 0.224-0.5 0.499-0.5h4.877l5.856 5.88c0.195 0.195 0.194 0.512-0 0.707z"></path>
<path fill="#444444" d="M8.002 6.5c0 0.828-0.671 1.5-1.499 1.5s-1.499-0.672-1.499-1.5c0-0.828 0.671-1.5 1.499-1.5s1.499 0.672 1.499 1.5z"></path>
</svg>
