<?xml version="1.0" encoding="utf-8"?>
<!-- Generated by IcoMoon.io -->
<!DOCTYPE svg PUBLIC "-//W3C//DTD SVG 1.1//EN" "http://www.w3.org/Graphics/SVG/1.1/DTD/svg11.dtd">
<svg version="1.1" xmlns="http://www.w3.org/2000/svg" xmlns:xlink="http://www.w3.org/1999/xlink" width="48" height="48" viewBox="0 0 48 48">
<path fill="#444444" d="M12 44c0 2.21 1.79 4 4 4h15c2.21 0 4-1.79 4-4v-1.17c0-0.939 0.65-1.73 1.529-1.939 4.801-0.741 8.471-4.891 8.471-9.891 0-2.25-0.74-4.33-2-6v-6.84c0-10.030-8.73-18.16-19.5-18.16s-19.5 8.13-19.5 18.16v6.84c-1.26 1.67-2 3.75-2 6 0 5 3.67 9.15 8.47 9.891 0.88 0.209 1.53 1 1.53 1.939l-0 1.17zM10 24c0-2.76 2.24-5 5-5s5 2.24 5 5-2.24 5-5 5-5-2.24-5-5zM27 24c0-2.76 2.24-5 5-5s5 2.24 5 5-2.24 5-5 5-5-2.24-5-5zM18.569 34.68l3.521-3.52c0.78-0.78 2.040-0.78 2.82 0l3.52 3.52c0.76 0.76 0.76 1.99 0 2.75s-1.99 0.76-2.75 0l-2.18-2.18-2.181 2.18c-0.759 0.76-1.989 0.76-2.75 0-0.758-0.76-0.758-1.991-0-2.75z"></path>
</svg>
