<?xml version="1.0" encoding="utf-8"?>
<!-- Generated by IcoMoon.io -->
<!DOCTYPE svg PUBLIC "-//W3C//DTD SVG 1.1//EN" "http://www.w3.org/Graphics/SVG/1.1/DTD/svg11.dtd">
<svg version="1.1" xmlns="http://www.w3.org/2000/svg" xmlns:xlink="http://www.w3.org/1999/xlink" width="24" height="24" viewBox="0 0 24 24">
<path fill="#444444" d="M12.499 9c-2.485 0-4.499 2.015-4.499 4.5s2.014 4.5 4.499 4.5c2.484 0 4.499-2.015 4.499-4.5s-2.015-4.5-4.499-4.5zM10.757 10.483c0.514-0.299 1.105-0.483 1.743-0.483 1.791 0 3.256 1.358 3.459 3.097-1.73-1.332-3.775-2.154-5.202-2.614zM22.5 5h-4.834l-0.666-2h-10l-0.666 2h-3.834c-1.104 0-2.5 0.896-2.5 2v12c0 1.104 1.396 2 2.5 2h20c1.104 0 1.5-0.896 1.5-2v-12c0-1.104-0.396-2-1.5-2zM12.5 20c-3.59 0-6.5-2.91-6.5-6.5s2.91-6.5 6.5-6.5 6.5 2.91 6.5 6.5-2.91 6.5-6.5 6.5zM22 9h-2v-2h2v2z"></path>
</svg>
