<?xml version="1.0" encoding="utf-8"?>
<!-- Generated by IcoMoon.io -->
<!DOCTYPE svg PUBLIC "-//W3C//DTD SVG 1.1//EN" "http://www.w3.org/Graphics/SVG/1.1/DTD/svg11.dtd">
<svg version="1.1" xmlns="http://www.w3.org/2000/svg" xmlns:xlink="http://www.w3.org/1999/xlink" width="48" height="48" viewBox="0 0 48 48">
<path fill="#444444" d="M27.47 21.59l11.53-8.59c1.33-1.33 1.33-2.67 0-4l-11.53-8.59c-0.361-0.26-0.81-0.41-1.29-0.41-1.21 0-2.18 0.939-2.18 2.101v3.899c-11.6 0.030-21 9.42-21 21 0 11.601 9.43 21 21.050 21 10.79 0 19.681-8.090 20.91-18.51 0.010-0.030 0.040-0.35 0.040-0.49 0-1.1-0.9-2-2.010-2h-5.040c-1.65 0-2.9 1.14-3.070 2.090-0.97 5.080-5.45 8.91-10.83 8.91-6.090 0-11.021-4.92-11.021-11 0-6.061 4.9-10.97 10.971-11v3.9c0 1.16 0.97 2.1 2.18 2.1 0.48 0 0.929-0.149 1.29-0.41z"></path>
</svg>
