<?xml version="1.0" encoding="utf-8"?>
<!-- Generated by IcoMoon.io -->
<!DOCTYPE svg PUBLIC "-//W3C//DTD SVG 1.1//EN" "http://www.w3.org/Graphics/SVG/1.1/DTD/svg11.dtd">
<svg version="1.1" xmlns="http://www.w3.org/2000/svg" xmlns:xlink="http://www.w3.org/1999/xlink" width="32" height="32" viewBox="0 0 32 32">
<path fill="#444444" d="M23.001 4h-15c-1.105 0-2.001 0.896-2.001 2v20c0 1.104 0.896 2 2.001 2h15c1.104 0 1.999-0.896 1.999-2v-20c0-1.104-0.895-2-1.999-2zM15.5 27c-0.552 0-0.999-0.447-0.999-1s0.447-1 0.999-1c0.553 0 1.001 0.447 1.001 1s-0.448 1-1.001 1zM22.991 23.938h-15.026v-17.912h15.026v17.912z"></path>
</svg>
