<?xml version="1.0" encoding="UTF-8"?>
<!DOCTYPE svg PUBLIC "-//W3C//DTD SVG 1.1//EN" "http://www.w3.org/Graphics/SVG/1.1/DTD/svg11.dtd">
<!-- Creator: CorelDRAW X8 -->
<svg xmlns="http://www.w3.org/2000/svg" xml:space="preserve" width="2.31684in" height="2.31684in" version="1.1" style="shape-rendering:geometricPrecision; text-rendering:geometricPrecision; image-rendering:optimizeQuality; fill-rule:evenodd; clip-rule:evenodd"
viewBox="0 0 1600 1600"
 xmlns:xlink="http://www.w3.org/1999/xlink">
 <defs>
  <style type="text/css">
   <![CDATA[
    .fil0 {fill:black}
   ]]>
  </style>
 </defs>
 <g id="Layer_x0020_1">
  <metadata id="CorelCorpID_0Corel-Layer"/>
  <g id="_133437495776">
   <path class="fil0" d="M459 1000l682 0c4,9 9,25 13,36 5,14 10,26 15,39l84 225 -906 0 98 -261c5,-14 12,-27 14,-39zm-259 400l1200 0c-3,-12 -6,-18 -11,-30l-177 -470 -825 0 -46 125c-17,42 -31,84 -47,125l-94 250z"/>
   <path class="fil0" d="M797 106l6 0c1,11 17,51 22,63l162 431 -375 0 162 -429c5,-13 22,-54 23,-65zm-7 -106l19 0c31,3 61,20 78,50l178 463c12,32 23,62 35,93l34 94 -668 0 228 -606c12,-32 20,-58 50,-78 14,-9 30,-15 46,-16z"/>
   <path class="fil0" d="M0 1544c0,34 21,56 44,56l1512 0c23,0 44,-22 44,-56 0,-21 -23,-44 -44,-44l-1512 0c-21,0 -44,23 -44,44z"/>
  </g>
 </g>
</svg>
