<?xml version="1.0" encoding="utf-8"?>
<!-- Generated by IcoMoon.io -->
<!DOCTYPE svg PUBLIC "-//W3C//DTD SVG 1.1//EN" "http://www.w3.org/Graphics/SVG/1.1/DTD/svg11.dtd">
<svg version="1.1" xmlns="http://www.w3.org/2000/svg" xmlns:xlink="http://www.w3.org/1999/xlink" width="48" height="48" viewBox="0 0 48 48">
<path fill="#444444" d="M48 41.64c-5.58 3.45-12.061 5.36-18.46 5.36-2.819 0-5.58-0.29-8.25-1-1.84-0.52-3.29-2.030-3.29-4 0-1.189 0.52-2.27 1.35-3h-0.35c-2.21 0-4-1.79-4-4s1.79-4 4-4h-2c-2.21 0-4-1.79-4-4s1.79-4 4-4l-13 0c-2.21 0-4-1.79-4-4s1.79-4 4-4h22.811c1.109 0 2-0.899 2-2 0-0.189-0.031-0.37-0.080-0.54l-2.301-5.66c-0.27-0.54-0.43-1.15-0.43-1.8 0-2.21 1.79-4 4-4 1.66 0 3.090 1.020 3.7 2.46 3.35 6.49 7.46 11.69 14.3 15.33v22.85z"></path>
</svg>
