<?xml version="1.0" encoding="utf-8"?>
<!-- Generated by IcoMoon.io -->
<!DOCTYPE svg PUBLIC "-//W3C//DTD SVG 1.1//EN" "http://www.w3.org/Graphics/SVG/1.1/DTD/svg11.dtd">
<svg version="1.1" xmlns="http://www.w3.org/2000/svg" xmlns:xlink="http://www.w3.org/1999/xlink" width="28" height="32" viewBox="0 0 28 32">
<path fill="#444444" d="M26 16c-1 0-6 0-6 0 0-1-1-2-2-2s-3 0-4 0-2 1-2 2 0 10 0 10h16s0-7 0-8-1-2-2-2zM18 18h-4s0-0.531 0-1 0.469-1 1-1 1.5 0 2 0 1 0.469 1 1 0 1 0 1zM26 8c-1 0-10.5 0-11 0s-1-0.531-1-1 0 0 0-1-1-2-2-2-9 0-10 0-2 1-2 2 0 20 0 20h10s0-11 0-12 1-2 2-2 7 0 8 0 2 1 2 2h6s0-3 0-4-1-2-2-2zM12 8h-10s0-0.5 0-1 0.5-1 1-1 7.5 0 8 0 1 0.531 1 1 0 1 0 1z"></path>
</svg>
