<?xml version="1.0" encoding="utf-8"?>
<!-- Generated by IcoMoon.io -->
<!DOCTYPE svg PUBLIC "-//W3C//DTD SVG 1.1//EN" "http://www.w3.org/Graphics/SVG/1.1/DTD/svg11.dtd">
<svg version="1.1" xmlns="http://www.w3.org/2000/svg" xmlns:xlink="http://www.w3.org/1999/xlink" width="24" height="32" viewBox="0 0 24 32">
<path fill="#444444" d="M20 14c-1.488 0-2.77 0.822-3.457 2.028-0.18-0.013-0.355-0.028-0.543-0.028-4.096 0-7.982-3.12-9.4-6.982 0.853-0.733 1.4-1.808 1.4-3.018 0-2.208-1.792-4-4-4s-4 1.792-4 4c0 1.476 0.808 2.752 2 3.446v13.108c-1.192 0.693-2 1.969-2 3.445 0 2.207 1.792 4 4 4s4-1.793 4-4c0-1.477-0.808-2.752-2-3.445v-7.196c2.63 2.782 6.262 4.642 10 4.642 0.199 0 0.363-0.014 0.543-0.020 0.691 1.201 1.973 2.020 3.457 2.020 2.207 0 4-1.793 4-4s-1.793-4-4-4zM4 28c-1.103 0-2-0.895-2-2 0-1.104 0.897-2 2-2 1.106 0 2 0.896 2 2 0 1.105-0.894 2-2 2zM4 8c-1.103 0-2-0.894-2-2s0.897-2 2-2c1.106 0 2 0.894 2 2s-0.894 2-2 2zM20 20c-1.104 0-2-0.895-2-2s0.896-2 2-2c1.105 0 2 0.894 2 2s-0.895 2-2 2z"></path>
</svg>
