<?xml version="1.0" encoding="utf-8"?>
<!-- Generated by IcoMoon.io -->
<!DOCTYPE svg PUBLIC "-//W3C//DTD SVG 1.1//EN" "http://www.w3.org/Graphics/SVG/1.1/DTD/svg11.dtd">
<svg version="1.1" xmlns="http://www.w3.org/2000/svg" xmlns:xlink="http://www.w3.org/1999/xlink" width="32" height="32" viewBox="0 0 32 32">
<path fill="#444444" d="M27.013 25.278v1.825h-22.026v-1.825c0 0-0.471-1.009 2.085-3.429 2.554-2.419 2.218-8.672 2.218-12.907s5.948-4.325 5.948-4.325h0.204c0 0.002 0-0.029 0-0.688 0-0.423-1.42-1.955-1.42-1.955l-0.021-0.927h4.010l-0.027 0.962c0 0-1.539 1.531-1.539 1.982 0 0.436 0 0.582 0 0.625h0.317c0 0 5.948 0.090 5.948 4.325s-0.336 10.489 2.219 12.909 2.084 3.428 2.084 3.428zM18.512 28.070c0 1.385-1.122 2.883-2.506 2.883s-2.506-1.498-2.506-2.883c0 0.031 5.012-0.032 5.012 0z"></path>
</svg>
