<?xml version="1.0" encoding="utf-8"?>
<!-- Generated by IcoMoon.io -->
<!DOCTYPE svg PUBLIC "-//W3C//DTD SVG 1.1//EN" "http://www.w3.org/Graphics/SVG/1.1/DTD/svg11.dtd">
<svg version="1.1" xmlns="http://www.w3.org/2000/svg" xmlns:xlink="http://www.w3.org/1999/xlink" width="24" height="32" viewBox="0 0 24 32">
<path fill="#444444" d="M10 0c-1 0-2 1-2 2s0 2 0 2h-2l-6 6v4h6l2 12-4 2v2h16v-2l-4-2 2-12h6v-4l-6-6h-8v-2s0.438 0 1 0 1-0.531 1-1-0.5-1-1-1 0 0-1 0zM10 26l-1.656-10h3.688l-0.031 10h-2zM3 10l4-4h1v2h2v-2h7l4 4h-18z"></path>
</svg>
