<?xml version="1.0" encoding="utf-8"?>
<!-- Generated by IcoMoon.io -->
<!DOCTYPE svg PUBLIC "-//W3C//DTD SVG 1.1//EN" "http://www.w3.org/Graphics/SVG/1.1/DTD/svg11.dtd">
<svg version="1.1" xmlns="http://www.w3.org/2000/svg" xmlns:xlink="http://www.w3.org/1999/xlink" width="24" height="24" viewBox="0 0 24 24">
<path fill="#444444" d="M19 6h-1.586l-1-1c-0.579-0.579-1.595-1-2.414-1h-4c-0.819 0-1.835 0.421-2.414 1l-1 1h-1.586c-1.654 0-3 1.346-3 3v8c0 1.654 1.346 3 3 3h14c1.654 0 3-1.346 3-3v-8c0-1.654-1.346-3-3-3zM12 16c-1.933 0-3.5-1.568-3.5-3.5 0-1.934 1.567-3.5 3.5-3.5s3.5 1.566 3.5 3.5c0 1.932-1.567 3.5-3.5 3.5zM18 11.299c-0.719 0-1.3-0.58-1.3-1.299s0.581-1.301 1.3-1.301 1.3 0.582 1.3 1.301-0.581 1.299-1.3 1.299z"></path>
</svg>
