<?xml version="1.0" encoding="utf-8"?>
<!-- Generated by IcoMoon.io -->
<!DOCTYPE svg PUBLIC "-//W3C//DTD SVG 1.1//EN" "http://www.w3.org/Graphics/SVG/1.1/DTD/svg11.dtd">
<svg version="1.1" xmlns="http://www.w3.org/2000/svg" xmlns:xlink="http://www.w3.org/1999/xlink" width="32" height="32" viewBox="0 0 32 32">
<path fill="#444444" d="M18.023 13.975h5.789c-0.734-2.836-2.953-5.057-5.789-5.789v5.789zM18.023 18.025v5.787c2.836-0.73 5.055-2.953 5.789-5.787h-5.789zM13.973 13.975v-5.789c-2.836 0.732-5.059 2.953-5.789 5.789h5.789zM13.973 18.025h-5.789c0.73 2.834 2.953 5.057 5.789 5.787v-5.787zM18.023 4.053c5.074 0.859 9.062 4.848 9.922 9.922h4.055c-0.926-7.311-6.664-13.051-13.977-13.975v4.053zM4.051 13.975c0.859-5.075 4.847-9.063 9.922-9.922v-4.053c-7.309 0.924-13.051 6.664-13.973 13.975h4.051zM13.973 27.945c-5.074-0.859-9.062-4.844-9.922-9.92h-4.051c0.922 7.311 6.664 13.053 13.973 13.975v-4.055zM27.945 18.025c-0.859 5.076-4.848 9.061-9.922 9.92v4.055c7.313-0.922 13.051-6.664 13.977-13.975h-4.055z"></path>
</svg>
