<?xml version="1.0" encoding="utf-8"?>
<!-- Generated by IcoMoon.io -->
<!DOCTYPE svg PUBLIC "-//W3C//DTD SVG 1.1//EN" "http://www.w3.org/Graphics/SVG/1.1/DTD/svg11.dtd">
<svg version="1.1" xmlns="http://www.w3.org/2000/svg" xmlns:xlink="http://www.w3.org/1999/xlink" width="48" height="48" viewBox="0 0 48 48">
<path fill="#444444" d="M9 48h24c1.38 0 2.641-0.561 3.54-1.47l5.080-5.060c0.851-0.861 1.38-2.050 1.38-3.39v-34.080c0-2.21-1.79-4-4-4h-30c-2.21 0-4 1.79-4 4v40c0 2.21 1.79 4 4 4zM12.2 5h23.6c1.22 0 2.2 0.98 2.2 2.2v10.6c0 1.22-0.98 2.2-2.2 2.2l-23.6-0c-1.22 0-2.2-0.98-2.2-2.2l0-10.6c0-1.22 0.98-2.2 2.2-2.2zM18 28.1v2.9h2.9c1.16 0 2.1 0.9 2.1 2s-0.94 2-2.1 2h-2.9v2.9c0 1.16-0.9 2.1-2 2.1s-2-0.939-2-2.1l-0-2.9h-2.9c-1.16 0-2.1-0.9-2.1-2s0.94-2 2.1-2h2.9v-2.9c0-1.16 0.9-2.1 2-2.1s2 0.939 2 2.1zM33 29.5c0-1.38 1.12-2.5 2.5-2.5s2.5 1.12 2.5 2.5-1.12 2.5-2.5 2.5-2.5-1.12-2.5-2.5zM28 35.5c0-1.38 1.12-2.5 2.5-2.5s2.5 1.12 2.5 2.5-1.12 2.5-2.5 2.5-2.5-1.12-2.5-2.5z"></path>
</svg>
