<?xml version="1.0" encoding="utf-8"?>
<!-- Generated by IcoMoon.io -->
<!DOCTYPE svg PUBLIC "-//W3C//DTD SVG 1.1//EN" "http://www.w3.org/Graphics/SVG/1.1/DTD/svg11.dtd">
<svg version="1.1" xmlns="http://www.w3.org/2000/svg" xmlns:xlink="http://www.w3.org/1999/xlink" width="48" height="48" viewBox="0 0 48 48">
<path fill="#444444" d="M21 2.5v1.63c-11.040 1.16-19.81 9.87-20.99 20.841l-0.010 0.029c0 1.1 0.9 2 2.010 2h18.99v13.5c0 4.14 3.359 7.5 7.5 7.5s7.5-3.36 7.5-7.5c0-1.38-1.12-2.5-2.5-2.5s-2.5 1.12-2.5 2.5-1.12 2.5-2.5 2.5-2.5-1.12-2.5-2.5v-13.5h18.98c1.080 0 1.959-0.84 2.010-1.9 0.010-0.050 0.010-0.1 0.010-0.15-1.189-10.96-9.96-19.67-21-20.82v-1.63c0-1.38-1.12-2.5-2.5-2.5s-2.5 1.12-2.5 2.5z"></path>
</svg>
