<?xml version="1.0" encoding="utf-8"?>
<!-- Generated by IcoMoon.io -->
<!DOCTYPE svg PUBLIC "-//W3C//DTD SVG 1.1//EN" "http://www.w3.org/Graphics/SVG/1.1/DTD/svg11.dtd">
<svg version="1.1" xmlns="http://www.w3.org/2000/svg" xmlns:xlink="http://www.w3.org/1999/xlink" width="24" height="24" viewBox="0 0 24 24">
<path fill="#444444" d="M17.51 6.062c-0.814-0.815-1.98-1.050-3.010-0.729v-0.333c0-1.656-1.344-3-3-3s-3 1.344-3 3v0.332c-1.029-0.319-2.195-0.085-3.010 0.73-1.605 1.606-2.49 3.741-2.49 6.011s0.885 4.405 2.49 6.011c1.604 1.605 3.739 2.489 6.010 2.489s4.405-0.884 6.010-2.489c1.605-1.605 2.49-3.74 2.49-6.011s-0.885-4.405-2.49-6.011zM10.5 5c0-0.552 0.447-1 1-1s1 0.448 1 1v5c0 0.552-0.447 1-1 1s-1-0.448-1-1v-5zM9.5 8.803v1.197c0 1.104 0.896 2 2 2s2-0.896 2-2v-1.182c0.095 0.284 0.248 0.554 0.475 0.78 0.661 0.661 1.025 1.54 1.025 2.475s-0.364 1.814-1.025 2.476c-1.322 1.321-3.627 1.321-4.949 0-0.662-0.662-1.026-1.541-1.026-2.476s0.364-1.814 1.025-2.476c0.231-0.23 0.383-0.504 0.475-0.794zM16.096 16.67c-1.228 1.228-2.859 1.903-4.596 1.903s-3.368-0.676-4.596-1.903c-1.227-1.228-1.904-2.86-1.904-4.597s0.677-3.369 1.904-4.597c0.391-0.391 1.023-0.391 1.414 0s0.391 1.023 0 1.414c-0.85 0.851-1.318 1.981-1.318 3.183s0.468 2.333 1.318 3.183c0.85 0.85 1.979 1.317 3.182 1.317s2.332-0.468 3.182-1.317c0.851-0.85 1.318-1.98 1.318-3.183s-0.468-2.333-1.318-3.183c-0.391-0.391-0.391-1.023 0-1.414s1.023-0.391 1.414 0c1.227 1.229 1.904 2.861 1.904 4.597s-0.677 3.369-1.904 4.597z"></path>
</svg>
