<?xml version="1.0" encoding="utf-8"?>
<!-- Generated by IcoMoon.io -->
<!DOCTYPE svg PUBLIC "-//W3C//DTD SVG 1.1//EN" "http://www.w3.org/Graphics/SVG/1.1/DTD/svg11.dtd">
<svg version="1.1" xmlns="http://www.w3.org/2000/svg" xmlns:xlink="http://www.w3.org/1999/xlink" width="32" height="32" viewBox="0 0 32 32">
<path fill="#444444" d="M6 4c-0.553 0-1 0.447-1 1 0 0.552 0.447 1 1 1h20v21c0 1.104-0.896 2-2 2h-18c-1.104 0-2-0.896-2-2h0.5c0.828 0 1.5-0.672 1.5-1.5s-0.672-1.5-1.5-1.5h-0.5v-1h0.5c0.828 0 1.5-0.672 1.5-1.5s-0.672-1.5-1.5-1.5h-0.5v-1h0.5c0.828 0 1.5-0.672 1.5-1.5s-0.672-1.5-1.5-1.5h-0.5v-1h0.5c0.828 0 1.5-0.672 1.5-1.5s-0.672-1.5-1.5-1.5h-0.5v-1h0.5c0.828 0 1.5-0.672 1.5-1.5s-0.672-1.5-1.5-1.5h-0.5v-3c0-1.104 0.896-2 2-2h18c0.738 0 1.376 0.404 1.723 1h-19.723zM10.49 19.525c0.239 0.533 0.596 1.005 1.068 1.415 0.473 0.409 1.045 0.716 1.716 0.92 0.672 0.204 1.404 0.307 2.199 0.307 0.863 0 1.601-0.114 2.213-0.341 0.612-0.228 1.141-0.536 1.585-0.926 0.443-0.39 0.757-0.772 0.939-1.147h-0.969c-0.315 0.449-0.79 0.831-1.424 1.146s-1.42 0.472-2.357 0.472c-0.878 0-1.677-0.151-2.398-0.454s-1.273-0.771-1.654-1.403c-0.382-0.634-0.572-1.389-0.572-2.266 0-0.838 0.19-1.622 0.571-2.354s0.918-1.294 1.61-1.686c0.691-0.393 1.457-0.588 2.294-0.588 0.733 0 1.403 0.155 2.010 0.467s1.062 0.728 1.368 1.246c0.306 0.52 0.459 1.078 0.459 1.676 0 0.512-0.119 1.009-0.357 1.49-0.239 0.482-0.562 0.866-0.972 1.152-0.309 0.219-0.558 0.328-0.747 0.328-0.104 0-0.193-0.035-0.267-0.105-0.073-0.069-0.11-0.153-0.11-0.25 0-0.054 0.054-0.331 0.161-0.833l0.776-3.608h-0.961l-0.186 0.832c-0.204-0.333-0.447-0.581-0.73-0.744-0.282-0.163-0.58-0.244-0.891-0.244-0.408 0-0.829 0.143-1.263 0.43s-0.795 0.716-1.087 1.287c-0.292 0.572-0.438 1.143-0.438 1.713 0 0.462 0.094 0.887 0.282 1.274s0.433 0.674 0.733 0.859c0.301 0.187 0.61 0.279 0.929 0.279 0.29 0 0.579-0.081 0.867-0.244s0.55-0.379 0.782-0.647c0.021 0.219 0.056 0.373 0.103 0.464 0.071 0.14 0.183 0.247 0.335 0.323 0.152 0.075 0.353 0.112 0.6 0.112 0.774 0 1.487-0.361 2.14-1.084 0.731-0.806 1.097-1.728 1.097-2.766 0-0.727-0.174-1.4-0.521-2.020-0.407-0.72-0.965-1.261-1.672-1.624s-1.504-0.545-2.393-0.545c-1.146 0-2.119 0.257-2.923 0.772s-1.424 1.258-1.86 2.228c-0.358 0.791-0.537 1.623-0.537 2.496 0.001 0.785 0.151 1.516 0.452 2.191zM15.489 18.357c-0.202 0.236-0.414 0.415-0.636 0.535-0.223 0.12-0.434 0.181-0.634 0.181-0.301 0-0.567-0.137-0.801-0.409-0.232-0.272-0.349-0.654-0.349-1.146 0-0.309 0.058-0.647 0.172-1.018 0.114-0.369 0.267-0.683 0.456-0.941s0.386-0.445 0.588-0.562c0.202-0.117 0.418-0.175 0.647-0.175 0.348 0 0.642 0.134 0.884 0.403s0.362 0.647 0.362 1.135c0 0.366-0.064 0.731-0.193 1.095-0.128 0.365-0.294 0.666-0.496 0.902zM5 9.5c0 0.276-0.224 0.5-0.5 0.5h-1c-0.276 0-0.5-0.224-0.5-0.5s0.224-0.5 0.5-0.5h1c0.276 0 0.5 0.224 0.5 0.5zM3.5 13h1c0.276 0 0.5 0.224 0.5 0.5s-0.224 0.5-0.5 0.5h-1c-0.276 0-0.5-0.224-0.5-0.5s0.224-0.5 0.5-0.5zM3.5 17h1c0.276 0 0.5 0.224 0.5 0.5s-0.224 0.5-0.5 0.5h-1c-0.276 0-0.5-0.224-0.5-0.5s0.224-0.5 0.5-0.5zM3.5 21h1c0.276 0 0.5 0.224 0.5 0.5s-0.224 0.5-0.5 0.5h-1c-0.276 0-0.5-0.224-0.5-0.5s0.224-0.5 0.5-0.5zM3.5 25h1c0.276 0 0.5 0.224 0.5 0.5s-0.224 0.5-0.5 0.5h-1c-0.276 0-0.5-0.224-0.5-0.5s0.224-0.5 0.5-0.5zM29 9.938h-2v-3h2v3zM29 14h-2v-3h2v3zM29 17.938h-2v-3h2v3z"></path>
</svg>
