<?xml version="1.0" encoding="utf-8"?>
<!-- Generated by IcoMoon.io -->
<!DOCTYPE svg PUBLIC "-//W3C//DTD SVG 1.1//EN" "http://www.w3.org/Graphics/SVG/1.1/DTD/svg11.dtd">
<svg version="1.1" xmlns="http://www.w3.org/2000/svg" xmlns:xlink="http://www.w3.org/1999/xlink" width="24" height="24" viewBox="0 0 24 24">
<path fill="#444444" d="M15.984 13.031v-2.016h-3v-3h-1.969v3h-3v2.016h3v3h1.969v-3h3zM18.891 16.828l2.109 2.109v1.078h-18v-1.078l2.109-2.109v-5.813q0-2.391 1.5-4.289t3.797-2.414v-0.703q0-0.656 0.469-1.125t1.125-0.469 1.125 0.469 0.469 1.125v0.703q2.297 0.516 3.797 2.414t1.5 4.289v5.813zM10.031 21h3.938q0 0.797-0.586 1.406t-1.383 0.609-1.383-0.609-0.586-1.406z"></path>
</svg>
