<?xml version="1.0" encoding="utf-8"?>
<!-- Generated by IcoMoon.io -->
<!DOCTYPE svg PUBLIC "-//W3C//DTD SVG 1.1//EN" "http://www.w3.org/Graphics/SVG/1.1/DTD/svg11.dtd">
<svg version="1.1" xmlns="http://www.w3.org/2000/svg" xmlns:xlink="http://www.w3.org/1999/xlink" width="24" height="24" viewBox="0 0 24 24">
<path fill="#444444" d="M17.5 5.999c0.282 0 0.562 0.106 0.777 0.321 0.431 0.431 0.431 1.127 0 1.557l-1.72 1.723 0.307 0.308c0.585 0.584 0.906 1.362 0.906 2.192s-0.321 1.607-0.906 2.191l-4.172 4.172c-0.584 0.584-1.361 0.906-2.191 0.906s-1.607-0.322-2.191-0.906l-0.31-0.309-1.723 1.723c-0.215 0.215-0.495 0.322-0.777 0.322s-0.562-0.107-0.777-0.322c-0.431-0.43-0.431-1.126 0-1.557l1.72-1.72-0.308-0.309c-0.583-0.584-0.905-1.361-0.905-2.191s0.321-1.608 0.905-2.192l4.173-4.173c0.584-0.584 1.387-0.875 2.191-0.875s1.607 0.291 2.191 0.875l0.31 0.308 1.723-1.723c0.215-0.215 0.495-0.321 0.777-0.321zM17.5 3.999c-0.828 0-1.605 0.321-2.191 0.908l-0.492 0.491c-0.707-0.351-1.504-0.539-2.316-0.539-1.363 0-2.677 0.533-3.605 1.461l-4.172 4.173c-0.964 0.962-1.494 2.241-1.494 3.607 0 0.822 0.192 1.616 0.558 2.327l-0.479 0.48c-0.586 0.585-0.909 1.364-0.909 2.193 0 0.827 0.322 1.605 0.908 2.191 0.584 0.586 1.363 0.908 2.191 0.908s1.605-0.322 2.191-0.908l0.48-0.48c0.711 0.365 1.504 0.559 2.328 0.559 1.363 0 2.645-0.53 3.605-1.492l4.172-4.172c0.963-0.962 1.492-2.242 1.492-3.605 0-0.824-0.192-1.617-0.558-2.328l0.479-0.48c0.589-0.587 0.912-1.366 0.912-2.193 0-0.828-0.322-1.606-0.908-2.192-0.587-0.588-1.364-0.909-2.192-0.909z"></path>
<path fill="#444444" d="M11.4 11.168c0.017 0.535 0.233 1.036 0.613 1.416s0.881 0.598 1.416 0.614l-1.832 1.831c-0.017-0.534-0.234-1.035-0.613-1.415-0.381-0.38-0.881-0.597-1.416-0.614l1.832-1.832zM12.5 9.029c-0.242 0-0.468 0.094-0.637 0.262l-4.172 4.172c-0.168 0.168-0.26 0.395-0.26 0.637 0 0.24 0.092 0.467 0.26 0.635l0.309 0.308 0.723-0.723c0.215-0.215 0.495-0.321 0.777-0.321s0.562 0.106 0.777 0.321c0.431 0.431 0.431 1.127 0 1.557l-0.72 0.723 0.308 0.308c0.168 0.168 0.401 0.253 0.636 0.253s0.468-0.084 0.637-0.253l4.172-4.173c0.168-0.168 0.26-0.395 0.26-0.635 0-0.242-0.092-0.469-0.26-0.637l-0.31-0.309-0.723 0.723c-0.215 0.215-0.495 0.322-0.777 0.322s-0.562-0.107-0.777-0.322c-0.431-0.43-0.431-1.126 0-1.557l0.72-0.72-0.307-0.309c-0.169-0.168-0.395-0.262-0.636-0.262z"></path>
</svg>
