<?xml version="1.0" encoding="utf-8"?>
<!-- Generated by IcoMoon.io -->
<!DOCTYPE svg PUBLIC "-//W3C//DTD SVG 1.1//EN" "http://www.w3.org/Graphics/SVG/1.1/DTD/svg11.dtd">
<svg version="1.1" xmlns="http://www.w3.org/2000/svg" xmlns:xlink="http://www.w3.org/1999/xlink" width="24" height="24" viewBox="0 0 24 24">
<path fill="#444444" d="M21.436 7.586l-3.998-4.020c-0.752-0.756-2.063-0.764-2.83-0.006-0.196 0.196-0.35 0.436-0.418 0.629-0.653 1.362-1.354 2.215-2.254 2.727l-0.217 0.105c-0.968 0.485-2.285 0.979-4.719 0.979-0.266 0-0.521 0.052-0.766 0.152-0.484 0.202-0.879 0.595-1.082 1.084-0.199 0.484-0.199 1.041 0 1.525 0.104 0.249 0.25 0.471 0.435 0.651l3.235 3.235-3.822 5.353 5.352-3.822 3.227 3.227c0.186 0.189 0.406 0.339 0.656 0.441 0.247 0.103 0.503 0.154 0.766 0.154s0.519-0.052 0.765-0.154c0.498-0.205 0.883-0.592 1.080-1.078 0.103-0.242 0.155-0.507 0.155-0.768 0-2.436 0.494-3.752 0.978-4.721 0.496-0.992 1.369-1.748 2.754-2.414 0.271-0.104 0.51-0.256 0.711-0.457 0.772-0.782 0.768-2.051-0.008-2.822zM16.188 12.387c-0.819 1.643-1.188 3.37-1.195 5.604l-7.993-7.991c2.139 0 3.814-0.335 5.396-1.084l0.235-0.105c1.399-0.699 2.468-1.893 3.388-3.834l3.924 4.051c-1.863 0.893-3.056 1.96-3.755 3.359z"></path>
</svg>
