<?xml version="1.0" encoding="utf-8"?>
<!-- Generated by IcoMoon.io -->
<!DOCTYPE svg PUBLIC "-//W3C//DTD SVG 1.1//EN" "http://www.w3.org/Graphics/SVG/1.1/DTD/svg11.dtd">
<svg version="1.1" xmlns="http://www.w3.org/2000/svg" xmlns:xlink="http://www.w3.org/1999/xlink" width="32" height="32" viewBox="0 0 32 32">
<path fill="#444444" d="M16.5 24.447v-0.996c3.352 0.099 5.993 1.174 5.993 2.487 0 1.379-2.906 2.56-6.492 2.56s-6.492-1.181-6.492-2.56c0-1.313 2.641-2.389 5.992-2.487v0.996c-2.799 0.069-4.993 0.71-4.993 1.491 0 0.827 2.459 1.623 5.493 1.623 3.033 0 5.492-0.796 5.492-1.623-0.001-0.781-2.194-1.421-4.993-1.491zM10.516 8.995c0-3.033 2.521-5.493 5.556-5.493 3.034 0 5.493 2.46 5.493 5.493 0 2.607-1.818 4.786-4.256 5.348l-1.309 13.219-1.313-13.256c-2.362-0.615-4.171-2.756-4.171-5.311zM16 7.524c0-0.828-0.671-1.498-1.498-1.498s-1.499 0.67-1.499 1.498c0 0.827 0.671 1.498 1.499 1.498s1.498-0.67 1.498-1.498z"></path>
</svg>
