<?xml version="1.0" encoding="utf-8"?>
<!-- Generated by IcoMoon.io -->
<!DOCTYPE svg PUBLIC "-//W3C//DTD SVG 1.1//EN" "http://www.w3.org/Graphics/SVG/1.1/DTD/svg11.dtd">
<svg version="1.1" xmlns="http://www.w3.org/2000/svg" xmlns:xlink="http://www.w3.org/1999/xlink" width="24" height="24" viewBox="0 0 24 24">
<path fill="#444444" d="M12 17.5c-3.859 0-7-3.141-7-7h2c0 2.757 2.243 5 5 5s5-2.243 5-5h2c0 3.859-3.141 7-7 7z"></path>
<path fill="#444444" d="M18 12c-0.553 0-1-0.447-1-1v-3h-10v3c0 0.553-0.447 1-1 1s-1-0.447-1-1v-4c0-0.553 0.447-1 1-1h12c0.553 0 1 0.447 1 1v4c0 0.553-0.447 1-1 1z"></path>
<path fill="#444444" d="M10 3v3h-2v-3h2zM10 2h-2c-0.553 0-1 0.447-1 1v3c0 0.553 0.447 1 1 1h2c0.553 0 1-0.447 1-1v-3c0-0.553-0.447-1-1-1z"></path>
<path fill="#444444" d="M13 17.5v2.5h-2v-2.5h2zM13 15.5h-2c-1.104 0-2 0.896-2 2v2.5c0 1.104 0.896 2 2 2h2c1.104 0 2-0.896 2-2v-2.5c0-1.104-0.896-2-2-2z"></path>
<path fill="#444444" d="M16 3v3h-2v-3h2zM16 2h-2c-0.553 0-1 0.447-1 1v3c0 0.553 0.447 1 1 1h2c0.553 0 1-0.447 1-1v-3c0-0.553-0.447-1-1-1z"></path>
<path fill="#444444" d="M18 12h-12c-0.276 0-0.5-0.224-0.5-0.5s0.224-0.5 0.5-0.5h12c0.276 0 0.5 0.224 0.5 0.5s-0.224 0.5-0.5 0.5z"></path>
<path fill="#444444" d="M12 16.5c-0.343 0-0.677-0.035-1-0.101v1.601h2v-1.601c-0.323 0.066-0.657 0.101-1 0.101z"></path>
<path fill="#444444" d="M9 16h1v2h-1v-2z"></path>
<path fill="#444444" d="M14 16h1v2h-1v-2z"></path>
</svg>
