<?xml version="1.0" encoding="utf-8"?>
<!-- Generated by IcoMoon.io -->
<!DOCTYPE svg PUBLIC "-//W3C//DTD SVG 1.1//EN" "http://www.w3.org/Graphics/SVG/1.1/DTD/svg11.dtd">
<svg version="1.1" xmlns="http://www.w3.org/2000/svg" xmlns:xlink="http://www.w3.org/1999/xlink" width="32" height="32" viewBox="0 0 32 32">
<path fill="#444444" d="M22.626 19.941l-0.010-0.006-0.066 0.053 0.094 0.014c0 0 4.052 10.204 3.203 11.683-1.669 1.265-8.842-5.595-9.774-6.501l0.006 0.035c0 0-8.059 8.048-9.925 6.609-1.118-0.812 2.947-12.030 2.947-12.030l0.019-0.003c-1.493-0.853-9.693-6.646-9.087-8.731 0.018-1.255 11.414-1.168 11.777-1.119 0.044-0.255 1.997-9.945 4.191-9.945 2.205 0 4.1 9.918 4.123 10.056h0.006l0.002 0.010 0.025-0.053c0 0 11.793-0.181 11.811 1.051 0.668 2.293-9.342 8.877-9.342 8.877z"></path>
</svg>
