<?xml version="1.0" encoding="UTF-8"?>
<!DOCTYPE svg PUBLIC "-//W3C//DTD SVG 1.1//EN" "http://www.w3.org/Graphics/SVG/1.1/DTD/svg11.dtd">
<!-- Creator: CorelDRAW X8 -->
<svg xmlns="http://www.w3.org/2000/svg" xml:space="preserve" width="1.68938in" height=".8.26703in" version="1.1" style="shape-rendering:geometricPrecision; text-rendering:geometricPrecision; image-rendering:optimizeQuality; fill-rule:evenodd; clip-rule:evenodd"
viewBox="0 0 10326 7744"
 xmlns:xlink="http://www.w3.org/1999/xlink">
 <defs>
  <style type="text/css">
   <![CDATA[
    .fil0 {fill:black}
   ]]>
  </style>
 </defs>
 <g id="Layer_x0020_1">
  <metadata id="CorelCorpID_0Corel-Layer"/>
  <g id="_133441755424">
   <path class="fil0" d="M8248 3307c410,96 831,408 1069,746 64,91 115,164 169,276 567,1189 -174,2770 -1883,2770l-5223 0c-853,0 -1513,-483 -1686,-1259 -17,-76 -52,-298 -48,-373 5,-92 30,-260 52,-353 146,-631 686,-1133 1324,-1216 58,-8 149,-18 182,-21 85,-9 109,15 196,15 -14,-172 -470,-1000 388,-1850 185,-184 544,-371 865,-405 213,-23 350,-23 554,24 111,26 153,41 247,76 77,29 137,78 225,98 51,-219 275,-444 374,-573 113,-146 381,-331 553,-415 1068,-524 2407,61 2707,1226 59,229 35,218 65,419 49,328 -124,745 -130,815zm-8248 2322l0 -276c28,-449 192,-900 507,-1297 232,-292 766,-700 1106,-728 0,-638 174,-1218 610,-1649 51,-51 89,-93 141,-142 107,-98 377,-276 506,-341 469,-236 1008,-288 1526,-167 69,-130 249,-298 357,-390 543,-459 1038,-639 1822,-639 360,0 905,172 1193,359 71,46 115,67 184,119l483 445c47,52 87,113 131,172l221 383c220,513 248,674 248,1265 0,101 -18,90 -20,181 318,169 703,518 888,826 29,47 56,81 86,136 272,489 337,825 337,1398 0,360 -172,905 -359,1194 -115,176 -242,366 -392,516l-172 150c-212,190 -513,348 -780,451 -186,71 -543,149 -758,149l-5727 0c-272,0 -665,-120 -854,-215 -785,-393 -1236,-1126 -1284,-1900z"/>
   <path class="fil0" d="M4699 4497l-903 -892 -917 907 1825 1836 2743 -2733 -908 -918c-93,29 -177,148 -242,212 -221,222 -1503,1525 -1598,1588z"/>
  </g>
 </g>
</svg>
