<?xml version="1.0" encoding="utf-8"?>
<!-- Generated by IcoMoon.io -->
<!DOCTYPE svg PUBLIC "-//W3C//DTD SVG 1.1//EN" "http://www.w3.org/Graphics/SVG/1.1/DTD/svg11.dtd">
<svg version="1.1" xmlns="http://www.w3.org/2000/svg" xmlns:xlink="http://www.w3.org/1999/xlink" width="28" height="32" viewBox="0 0 28 32">
<path fill="#444444" d="M14 12c1.094 0 2-0.906 2-2s-0.906-2-2-2-2 0.906-2 2 0.906 2 2 2zM14 2c-7.719 0-14 6.281-14 14s6.281 14 14 14 14-6.281 14-14-6.281-14-14-14zM14 26c-5.531 0-10-4.469-10-10s4.469-10 10-10 10 4.469 10 10-4.469 10-10 10zM16 16c0-1-1-2-2-2s-1 0-2 0-2 1-2 2h2s0 5 0 6 1 2 2 2 1 0 2 0 2-1 2-2h-2s0-5 0-6z"></path>
</svg>
