<?xml version="1.0" encoding="utf-8"?>
<!-- Generated by IcoMoon.io -->
<!DOCTYPE svg PUBLIC "-//W3C//DTD SVG 1.1//EN" "http://www.w3.org/Graphics/SVG/1.1/DTD/svg11.dtd">
<svg version="1.1" xmlns="http://www.w3.org/2000/svg" xmlns:xlink="http://www.w3.org/1999/xlink" width="32" height="32" viewBox="0 0 32 32">
<path fill="#444444" d="M16 2c-8.844 0-16 7.156-16 16 0 0 0 6 0 8s2 4 4 4 22 0 24 0 4-2 4-4 0-8 0-8c0-8.844-7.156-16-16-16zM19 26h-6c-0.563 0-1-0.438-1-1s0.438-1 1-1h6c0.563 0 1 0.438 1 1s-0.438 1-1 1zM28 22c0 1-1 2-2 2s-4 0-4 0c0-1-1-2-2-2s-7 0-8 0-2 1-2 2c0 0-3 0-4 0s-2-1-2-2 0-11.25 0-11.25c2.438-4.031 6.875-6.75 12-6.75s9.563 2.719 12 6.75c0 0 0 10.25 0 11.25zM24 10c-1 0-15 0-16 0s-2 1-2 2 0 3 0 4 1 2 2 2 15 0 16 0 2-1 2-2 0-3 0-4-1-2-2-2zM24 14l-2 2h-4l-2-2-2 2h-4l-2-2v-2h2l2 2 2-2h4l2 2 2-2h2v2z"></path>
</svg>
