<?xml version="1.0" encoding="utf-8"?>
<!-- Generated by IcoMoon.io -->
<!DOCTYPE svg PUBLIC "-//W3C//DTD SVG 1.1//EN" "http://www.w3.org/Graphics/SVG/1.1/DTD/svg11.dtd">
<svg version="1.1" xmlns="http://www.w3.org/2000/svg" xmlns:xlink="http://www.w3.org/1999/xlink" width="32" height="32" viewBox="0 0 32 32">
<path fill="#444444" d="M28 14c-0.553 0-1 0-1 0v-1c0-1.104-0.896-2-2-2h-20c-1.104 0-2 0.896-2 2v7c0 1.104 0.896 2 2 2h20c1.104 0 2-0.896 2-2v-1c0 0 0.447 0 1 0 0.552 0 1-0.448 1-1v-3c0-0.553-0.448-1-1-1zM26 20c0 0.552-0.448 1-1 1h-20c-0.553 0-1-0.448-1-1v-7c0-0.553 0.447-1 1-1h20c0.552 0 1 0.447 1 1v7zM5 20h6v-7h-6v7zM12 20h6v-7h-6v7zM19 20h6v-7h-6v7z"></path>
</svg>
