<?xml version="1.0" encoding="utf-8"?>
<!-- Generated by IcoMoon.io -->
<!DOCTYPE svg PUBLIC "-//W3C//DTD SVG 1.1//EN" "http://www.w3.org/Graphics/SVG/1.1/DTD/svg11.dtd">
<svg version="1.1" xmlns="http://www.w3.org/2000/svg" xmlns:xlink="http://www.w3.org/1999/xlink" width="32" height="32" viewBox="0 0 32 32">
<path fill="#444444" d="M24.064 6.583l-3.773 8.375h-1.098l4.024-8.916h-6.213v20.771c1.28 0.047 7.813 2.167 7.813 2.167v1.020h-17.56v-1.089c0 0 6.678-2.099 7.684-2.099v-20.77h-6.015l4.025 8.916h-1.098l-3.773-8.375-3.773 8.375h-1.098l4.048-8.966v-1.034h6.754c0-1.353 0.907-2.458 1.965-2.458 1.119 0 1.965 1.168 1.965 2.458h6.878v0.887l4.116 9.113h-1.098l-3.773-8.375zM13.020 15.979c0 2.693-1.868 5.282-4.939 5.282-3.002 0-4.939-2.589-4.939-5.282-0.001 0.004 9.878 0.004 9.878 0zM19.262 15.979c0 0.005 9.879 0.005 9.879 0 0 2.693-1.868 5.282-4.939 5.282-3.003 0-4.94-2.589-4.94-5.282z"></path>
</svg>
