<?xml version="1.0" encoding="utf-8"?>
<!-- Generated by IcoMoon.io -->
<!DOCTYPE svg PUBLIC "-//W3C//DTD SVG 1.1//EN" "http://www.w3.org/Graphics/SVG/1.1/DTD/svg11.dtd">
<svg version="1.1" xmlns="http://www.w3.org/2000/svg" xmlns:xlink="http://www.w3.org/1999/xlink" width="32" height="32" viewBox="0 0 32 32">
<path fill="#444444" d="M21.172 13.98l5.691-9.664c-2.855-2.658-6.652-4.316-10.863-4.316-0.998 0-1.965 0.119-2.912 0.293l8.084 13.687zM19.953 20h11.48c0.333-1.285 0.567-2.609 0.567-4 0-3.873-1.43-7.377-3.723-10.145l-8.324 14.145zM16.5 10l-5.408-9.152c-4.5 1.459-8.139 4.798-9.904 9.152h15.312zM15.633 22l5.391 9.117c4.449-1.484 8.039-4.801 9.789-9.117h-15.18zM12.105 12h-11.539c-0.334 1.285-0.566 2.609-0.566 4 0 3.891 1.445 7.41 3.756 10.188l8.349-14.188zM10.918 17.961l-5.744 9.758c2.853 2.633 6.635 4.281 10.826 4.281 1.041 0 2.055-0.117 3.039-0.305l-8.121-13.734z"></path>
</svg>
