<?xml version="1.0" encoding="UTF-8"?>
<!DOCTYPE svg PUBLIC "-//W3C//DTD SVG 1.1//EN" "http://www.w3.org/Graphics/SVG/1.1/DTD/svg11.dtd">
<!-- Creator: CorelDRAW X8 -->
<svg xmlns="http://www.w3.org/2000/svg" xml:space="preserve" width="4.59148in" height="3.37955in" version="1.1" style="shape-rendering:geometricPrecision; text-rendering:geometricPrecision; image-rendering:optimizeQuality; fill-rule:evenodd; clip-rule:evenodd"
viewBox="0 0 6906 5083"
 xmlns:xlink="http://www.w3.org/1999/xlink">
 <defs>
  <style type="text/css">
   <![CDATA[
    .fil0 {fill:black}
   ]]>
  </style>
 </defs>
 <g id="Layer_x0020_1">
  <metadata id="CorelCorpID_0Corel-Layer"/>
  <g id="_133236936672">
   <path class="fil0" d="M4532 2150l0 -580c0,-61 26,-135 81,-135l756 0c72,0 101,67 164,159 63,92 402,539 402,610 0,21 -17,44 -26,54 -19,20 -30,27 -68,27l-1228 0c-55,0 -81,-74 -81,-135zm2374 1821l0 294c-7,41 -22,71 -51,87 -46,24 -769,10 -839,10 -14,-169 -118,-341 -232,-455 -63,-63 -119,-98 -199,-138 -248,-124 -468,-105 -712,3 -214,95 -402,355 -422,590l-2536 0c-22,-46 -35,-171 -104,-286 -19,-31 -57,-81 -81,-108 -33,-37 -70,-53 -84,-105l539 0 -445 -2590c-9,-52 -26,-122 -27,-175 -42,3 -48,13 -94,13 -278,0 -205,-47 -351,-81l0 378c250,21 460,465 172,712 -71,60 -185,111 -300,103 -370,-26 -522,-518 -290,-518 112,0 91,128 125,199 30,64 94,111 185,111 161,0 253,-153 189,-297 -86,-197 -273,-41 -296,-243 -19,-177 4,-476 0,-674 -3,-118 -60,-134 -26,-349 73,-458 691,-607 962,-264 292,368 36,508 133,649 305,441 617,930 916,1378 127,190 1009,1538 1049,1567l0 -2320c0,-189 -40,-414 64,-516 31,-31 81,-50 138,-50l945 0c126,0 233,41 321,83 94,45 148,96 222,169 69,69 403,573 482,692 214,321 324,415 324,850l0 1173c156,0 323,-30 323,108zm-4680 -2253c33,25 320,464 360,531l355 535c239,358 475,721 714,1079l-1065 0 -276 -1599c-19,-109 -88,-466 -88,-546zm0 0l-16 -26 16 26zm-675 -1429c408,0 375,539 14,539 -349,0 -338,-539 -14,-539z"/>
   <path class="fil0" d="M4937 4497c0,-431 593,-408 593,-13 0,384 -593,370 -593,13zm-310 -27c0,355 281,613 607,613 160,1 314,-67 423,-176 384,-383 130,-1012 -413,-1040 -233,-11 -461,140 -559,351 -32,69 -58,157 -58,252z"/>
   <path class="fil0" d="M823 4484c0,-170 123,-291 288,-305 257,-22 419,314 215,511 -201,193 -503,24 -503,-206zm904 40c0,-199 -45,-372 -193,-495 -548,-456 -1210,143 -967,684 33,75 61,122 117,179 104,104 219,179 417,188 248,12 444,-116 554,-317 25,-45 30,-48 47,-102 12,-41 25,-79 25,-137z"/>
   <path class="fil0" d="M0 4265c6,33 16,59 35,75 36,31 27,22 85,23 71,2 146,-1 217,-1 11,-46 19,-108 37,-152 93,-242 202,-282 220,-347 -117,0 -234,0 -351,0 -123,0 -243,-16 -243,108l0 294z"/>
  </g>
 </g>
</svg>
