<?xml version="1.0" encoding="utf-8"?>
<!-- Generated by IcoMoon.io -->
<!DOCTYPE svg PUBLIC "-//W3C//DTD SVG 1.1//EN" "http://www.w3.org/Graphics/SVG/1.1/DTD/svg11.dtd">
<svg version="1.1" xmlns="http://www.w3.org/2000/svg" xmlns:xlink="http://www.w3.org/1999/xlink" width="28" height="32" viewBox="0 0 28 32">
<path fill="#444444" d="M12 12h4v-6h4l-6-6-6 6h4v6zM18 8v2h7l-4 4h-14l-4-4h7v-2h-10v2l5 5-5 5v2h10v-2h-7l4-4h14l4 4h-7v2h10v-2l-5-5 5-5v-2h-10zM16 18h-4v6h-4l6 6 6-6h-4v-6z"></path>
</svg>
