<?xml version="1.0" encoding="utf-8"?>
<!-- Generated by IcoMoon.io -->
<!DOCTYPE svg PUBLIC "-//W3C//DTD SVG 1.1//EN" "http://www.w3.org/Graphics/SVG/1.1/DTD/svg11.dtd">
<svg version="1.1" xmlns="http://www.w3.org/2000/svg" xmlns:xlink="http://www.w3.org/1999/xlink" width="24" height="24" viewBox="0 0 24 24">
<path fill="#444444" d="M21 6.983v-2h-14.074l-1.156-3.279c-0.188-0.519-0.76-0.819-1.28-0.632s-0.791 0.803-0.603 1.323l0.914 2.589h-2.801v2h-2v9h3v8h17v-8h3v-9h-2zM3 14.983h-2v-7h1v3h1v4zM18 21.983h-13v-6h3.096c0.207 1 0.758 1 1.408 1h4c0.65 0 1.201 0 1.408-1h3.088v6zM9 15.502v-0.002c0-0.275 0.225-0.5 0.5-0.5h4.004c0.275 0 0.5 0.225 0.5 0.5v0.002c0 0.275-0.225 0.5-0.5 0.5h-4.004c-0.275 0-0.5-0.225-0.5-0.5zM18 14.983h-3.088c-0.207-1-0.758-1-1.408-1h-4c-0.65 0-1.201 0-1.408 1h-3.096v-5h13v5zM19 8.983h-15v-2h15v2zM22 14.983h-2v-4h1v-3h1v7z"></path>
</svg>
