<?xml version="1.0" encoding="utf-8"?>
<!-- Generated by IcoMoon.io -->
<!DOCTYPE svg PUBLIC "-//W3C//DTD SVG 1.1//EN" "http://www.w3.org/Graphics/SVG/1.1/DTD/svg11.dtd">
<svg version="1.1" xmlns="http://www.w3.org/2000/svg" xmlns:xlink="http://www.w3.org/1999/xlink" width="48" height="48" viewBox="0 0 48 48">
<path fill="#444444" d="M11 1c-0.81-0.5-1.94-1-3-1-4.42 0-8 3.61-8 8.070 0 6.45 6.87 8.75 11 11.93v1.5c0 6.050 4.29 11.090 10 12.25v7.25c0 1.1-0.9 2-2 2h-5.5c-1.38 0-2.5 1.12-2.5 2.5s1.12 2.5 2.5 2.5h20c1.38 0 2.5-1.12 2.5-2.5s-1.12-2.5-2.5-2.5h-5.5c-1.1 0-2-0.9-2-2v-7.25c5.71-1.16 10-6.2 10-12.25l-0-1.5c4.13-3.18 11-5.48 11-11.93 0-4.46-3.58-8.070-8-8.070-1.061 0-2.189 0.5-3 1h-25zM20 8v12c0 1.1-0.9 2-2 2s-2-0.9-2-2v-12c0-1.1 0.9-2 2-2s2 0.9 2 2zM5 8.070c0-1.67 1.34-3.030 3-3.030s3 1.36 3 3.030v6.15c-2.88-1.82-6-3.031-6-6.15zM42 8.070c0 3.119-3.12 4.33-6 6.15v-6.15c0-1.67 1.34-3.030 3-3.030s3 1.36 3 3.030z"></path>
</svg>
