<?xml version="1.0" encoding="utf-8"?>
<!-- Generated by IcoMoon.io -->
<!DOCTYPE svg PUBLIC "-//W3C//DTD SVG 1.1//EN" "http://www.w3.org/Graphics/SVG/1.1/DTD/svg11.dtd">
<svg version="1.1" xmlns="http://www.w3.org/2000/svg" xmlns:xlink="http://www.w3.org/1999/xlink" width="24" height="24" viewBox="0 0 24 24">
<path fill="#444444" d="M12 0c-6.627 0-12 5.373-12 12s5.373 12 12 12 12-5.373 12-12-5.373-12-12-12zM12 22c-5.514 0-10-4.486-10-10s4.486-10 10-10 10 4.486 10 10-4.486 10-10 10zM7.108 5.669c0 0-0.003 0.003-0.004 0.003 0 0.001 0 0.001 0 0.001-0.002 0.001-0.003 0.003-0.004 0.003-0.001 0.001-0.001 0.001-0.002 0.002-0.002 0.001-0.005 0.004-0.007 0.005-0.001 0.001-0.001 0.001-0.001 0.001-0.002 0.002-0.003 0.002-0.004 0.003l-0.002 0.001c-0.001 0.001-0.002 0.001-0.003 0.003-0.001 0-0.003 0.001-0.004 0.002 0 0-0.001 0.001-0.002 0.002-0.002 0.001-0.003 0.002-0.005 0.004 0 0-0.002 0.001-0.002 0.002-0.002 0-0.003 0.002-0.004 0.002 0 0-0.001 0.002-0.002 0.002l-0.003 0.003c-0.001 0.001-0.001 0.001-0.001 0.001-0.003 0.002-0.005 0.004-0.007 0.005v0.001c-0.002 0.001-0.004 0.002-0.005 0.004 0 0-0.001 0-0.002 0-0.001 0.002-0.003 0.003-0.004 0.004 0 0-0.001 0.001-0.002 0.002-0.004 0.002-0.007 0.005-0.011 0.007-0.001 0.001-0.001 0.001-0.001 0.001-0.002 0.001-0.004 0.003-0.005 0.005v0c-0.007 0.005-0.013 0.010-0.019 0.014v0.001c-0.107 0.087-0.213 0.175-0.316 0.267-0.006 0.005-0.012 0.010-0.017 0.015h-0.001c-0.002 0.002-0.003 0.004-0.005 0.006h-0.001c-0.004 0.003-0.007 0.006-0.011 0.010h-0.001c-0.001 0.002-0.003 0.004-0.004 0.005 0 0.001-0.001 0.001-0.001 0.001-0.002 0.002-0.003 0.003-0.005 0.004v0.001c-0.002 0-0.004 0.002-0.006 0.004 0 0-0.001 0-0.001 0.001l-0.004 0.004c-0.001 0.001-0.001 0.001-0.001 0.001-0.002 0.002-0.004 0.003-0.004 0.003-0.002 0.002-0.002 0.002-0.002 0.002-0.002 0.002-0.004 0.003-0.006 0.005 0 0 0 0-0.001 0.001l-0.004 0.004c-0.001 0.001-0.001 0.001-0.001 0.001-0.002 0.002-0.003 0.003-0.005 0.004 0 0.001-0.001 0.001-0.001 0.001l-0.004 0.005c0 0-0.001 0.001-0.002 0.002s-0.002 0.002-0.004 0.003c0 0-0.002 0.002-0.002 0.003 0 0-0.002 0.001-0.003 0.002s-0.002 0.001-0.003 0.001c0 0-0.001 0.002-0.002 0.003-0.002 0.001-0.003 0.003-0.004 0.003-0.001 0.002-0.002 0.002-0.004 0.004 0 0-0.001 0.002-0.002 0.002l-0.002 0.002c-0.002 0.001-0.003 0.002-0.004 0.003 0 0.001-0.001 0.001-0.001 0.001l-0.011 0.012h-0.001c-0.001 0.002-0.002 0.003-0.004 0.004 0 0 0 0-0.001 0.001s-0.002 0.001-0.002 0.001l0.682 0.732c0.212-0.197 0.44-0.385 0.675-0.555l-0.586-0.81c-0.071 0.050-0.141 0.103-0.211 0.157zM5.355 9.791l-0.949-0.315c-0.060 0.181-0.113 0.363-0.16 0.549-0.002 0.009-0.004 0.017-0.006 0.024h-0.001c0 0.002-0.001 0.004-0.001 0.006l-0.006 0.023c-0.001 0.002-0.001 0.004-0.002 0.006 0 0 0 0 0 0.001-0.002 0.008-0.004 0.015-0.006 0.022v0.002c0 0.002-0.001 0.004-0.001 0.004v0.002c-0.002 0.006-0.003 0.012-0.005 0.018 0 0.002-0.001 0.004-0.001 0.006-0.001 0.002-0.001 0.004-0.002 0.006v0.001c-0.001 0.005-0.003 0.011-0.004 0.017 0 0 0 0 0 0.001-0.001 0.002-0.001 0.003-0.001 0.005s0 0.002-0.001 0.002c0 0.002-0.001 0.004-0.001 0.005v0.001c-0.001 0.006-0.003 0.011-0.004 0.017 0 0.001 0 0.001 0 0.001-0.001 0.002-0.001 0.004-0.002 0.006-0.002 0.008-0.003 0.016-0.005 0.023v0.001c-0.001 0.002-0.001 0.003-0.002 0.005v0.002c-0.002 0.008-0.003 0.016-0.005 0.022v0.001c0 0.001 0 0.003-0.001 0.005-0.001 0.006-0.002 0.012-0.004 0.018 0 0.002-0.001 0.004-0.001 0.006 0 0 0 0.001 0 0.002-0.001 0.001-0.001 0.003-0.001 0.005l-0.001 0.001c-0.001 0.008-0.003 0.016-0.005 0.023s-0.003 0.016-0.005 0.024c-0.001 0.002-0.001 0.004-0.001 0.006-0.007 0.032-0.014 0.065-0.021 0.097l0.981 0.194c0.058-0.285 0.133-0.57 0.224-0.845zM12 5c0.080 0 0.159 0.002 0.238 0.004l0.033-1c-0.067-0.002-0.134-0.003-0.203-0.004h-0.001c-0.002 0-0.005 0-0.005 0h-0.020c0 0 0 0-0.001 0h-0.007c-0.001 0-0.001 0-0.001 0h-0.017c0 0-0.001 0-0.002 0h-0.004c0 0-0.001 0-0.002 0h-0.016c0 0-0.001 0-0.002 0h-0.008c0 0-0.003 0-0.005 0 0 0-0.001 0-0.002 0h-0.005c0 0-0.001 0-0.002 0h-0.007c-0.001 0-0.001 0-0.001 0h-0.054c0 0-0.001 0-0.002 0h-0.007c-0.003 0-0.005 0-0.008 0.001h-0.008c0 0-0.001 0-0.002 0h-0.005c-0.001 0-0.002 0-0.002 0h-0.006c-0.001 0-0.001 0-0.001 0-0.006 0-0.011 0.001-0.016 0.001-0.001 0-0.001 0-0.001 0h-0.007c-0.001 0-0.001 0-0.001 0h-0.031c0 0 0 0-0.001 0h-0.007c-0.008 0-0.016 0.001-0.023 0.001-0.003 0-0.006 0-0.008 0.001h-0.040c-0.222 0.008-0.442 0.024-0.66 0.049-0.007 0.002-0.015 0.002-0.022 0.004h-0.008c-0.002 0-0.004 0.001-0.004 0.001-0.002 0-0.003 0-0.004 0.001h-0.005c-0.001 0-0.001 0-0.001 0-0.003 0-0.006 0.001-0.008 0.001s-0.002 0.001-0.003 0.001h-0.008l-0.003 0.001h-0.003l0.124 0.992c0.289-0.036 0.583-0.054 0.875-0.054zM4.365 14.395v0.002c0.001 0.004 0.003 0.009 0.004 0.014 0.001 0.003 0.002 0.005 0.002 0.008h0.001c0.099 0.312 0.216 0.616 0.351 0.91l0.909-0.416c-0.121-0.265-0.226-0.539-0.312-0.816l-0.955 0.298zM19.675 9.734c-0.079-0.27-0.173-0.535-0.28-0.792v-0.001c-0.001-0.002-0.001-0.003-0.001-0.003l-0.001-0.003c-0.002-0.005-0.005-0.010-0.007-0.016v0c-0.001-0.001-0.002-0.003-0.002-0.005l-0.001-0.001c-0.001-0.001-0.001-0.003-0.002-0.005 0 0 0-0.001-0.001-0.002-0.001-0.002-0.002-0.004-0.003-0.007 0-0.001-0.001-0.002-0.001-0.003 0 0-0.001-0.002-0.001-0.003-0.001-0.001-0.001-0.003-0.001-0.003-0.001-0.002-0.002-0.002-0.002-0.004-0.001-0.001-0.001-0.002-0.002-0.004l-0.004-0.008c0-0.001 0-0.002 0-0.002-0.001-0.002-0.002-0.004-0.003-0.005 0 0 0-0.001 0-0.003-0.001-0.001-0.002-0.002-0.002-0.004-0.001 0-0.001-0.002-0.001-0.002l-0.003-0.006v0.001c-0.001-0.002-0.002-0.005-0.003-0.007l-0.001-0.001c0-0.001-0.001-0.003-0.002-0.005s0-0.002 0-0.002c-0.002-0.002-0.002-0.004-0.003-0.006l-0.010-0.022c-0.002-0.006-0.004-0.010-0.006-0.015l-0.917 0.401c0.117 0.266 0.218 0.541 0.3 0.82l0.96-0.282zM18.844 13.48c-0.062 0.284-0.142 0.567-0.237 0.841l0.943 0.331c0.021-0.059 0.041-0.119 0.061-0.18l0.026-0.082c0.071-0.229 0.133-0.462 0.185-0.699l-0.978-0.211zM16.709 5.532c0 0 0-0.001 0 0-0.005-0.004-0.009-0.007-0.014-0.011h-0.002c-0.001-0.001-0.002-0.001-0.003-0.002s-0.002-0.001-0.002-0.001c-0.001-0.002-0.003-0.002-0.003-0.002-0.002-0.002-0.004-0.004-0.004-0.004-0.001-0.002-0.002-0.002-0.003-0.002-0.001-0.002-0.002-0.002-0.004-0.003 0-0.001-0.001-0.001-0.002-0.002s-0.003-0.001-0.004-0.003c0 0-0.001 0-0.002-0.001-0.002-0.001-0.004-0.003-0.006-0.004s-0.004-0.003-0.006-0.005h-0.001c-0.002-0.002-0.003-0.003-0.005-0.004l-0.001-0.001c-0.187-0.133-0.378-0.259-0.576-0.375l-0.509 0.86c0.249 0.148 0.493 0.313 0.723 0.492l0.613-0.791c-0.061-0.047-0.122-0.093-0.185-0.139-0.001 0-0.002-0.001-0.004-0.002zM10.154 8.248c0 0-1.484 5.945-1.047 7.543s2.086 2.539 3.685 2.102c1.599-0.436 2.54-2.086 2.103-3.685-0.438-1.598-4.741-5.96-4.741-5.96zM12.527 16.929c-1.064 0.292-2.164-0.336-2.455-1.401s0.334-2.165 1.401-2.457c1.065-0.291 2.165 0.336 2.456 1.402 0.292 1.064-0.335 2.164-1.402 2.456z"></path>
</svg>
