<?xml version="1.0" encoding="utf-8"?>
<!-- Generated by IcoMoon.io -->
<!DOCTYPE svg PUBLIC "-//W3C//DTD SVG 1.1//EN" "http://www.w3.org/Graphics/SVG/1.1/DTD/svg11.dtd">
<svg version="1.1" xmlns="http://www.w3.org/2000/svg" xmlns:xlink="http://www.w3.org/1999/xlink" width="48" height="48" viewBox="0 0 48 48">
<path fill="#444444" d="M24.078 44.919c4.099 4.11 10.74 4.11 14.839 0 2.551-2.55 3.52-6.080 2.891-9.38 1.080-0.55 2.049-1.19 2.859-1.79 0.090-0.070 0.49-0.35 0.59-0.43 0.451-0.37 0.74-0.93 0.74-1.561 0-0.6-0.26-1.14-0.68-1.5l-8.25-6.8c-0.34-0.28-0.779-0.45-1.26-0.45-0.541 0-1.031 0.21-1.391 0.55-0.141 0.14-1.379 1.41-1.379 1.41-0.861 0.86-2.25 0.86-3.111 0l-8.419-8.43c-0.86-0.86-0.86-2.26 0-3.12l1.37-1.37c0.36-0.36 0.57-0.86 0.57-1.399s-0.21-1.021-0.55-1.38l-7.070-8.54c-0.37-0.44-0.93-0.73-1.55-0.73-0.66 0-1.24 0.32-1.61 0.81l-0.12 0.16c-1.54 2.080-3.55 5.38-3.55 8.48 0 8.54 19.041 27.55 27.5 27.55 0.16 0 0.32-0.010 0.471-0.010 0.15 1.57-0.381 3.189-1.58 4.4-2.15 2.149-5.631 2.149-7.781 0l-13.809-14.19c-2.93-2.93-7.67-2.93-10.6 0s-2.93 7.67 0 10.6l4.53 4.47c0.98 0.971 2.56 0.971 3.54 0 0.97-0.979 0.97-2.56 0-3.539l-4.54-4.461c-0.97-0.979-0.97-2.56 0-3.539 0.98-0.971 2.56-0.971 3.54 0l13.81 14.189z"></path>
</svg>
