<?xml version="1.0" encoding="utf-8"?>
<!-- Generated by IcoMoon.io -->
<!DOCTYPE svg PUBLIC "-//W3C//DTD SVG 1.1//EN" "http://www.w3.org/Graphics/SVG/1.1/DTD/svg11.dtd">
<svg version="1.1" xmlns="http://www.w3.org/2000/svg" xmlns:xlink="http://www.w3.org/1999/xlink" width="24" height="24" viewBox="0 0 24 24">
<path fill="#444444" d="M18.998 1.998v0.415c-0.999-0.296-1.769-0.461-2.688-0.461-1.793 0-3.58 0.559-5.262 1.099-1.605 0.514-3.147 1.002-4.625 1.002-1.119 0-2.033-0.292-2.968-0.892l-1.455-0.99v15.376l0.363 0.295c1.266 0.814 2.57 1.211 4.084 1.211 1.792 0 3.507-0.559 5.188-1.1 1.605-0.516 3.207-1.002 4.687-1.002 0.938 0 1.678 0.219 2.678 0.639v6.459h2v-22.051h-2.002zM19 15.393c-1-0.297-1.771-0.441-2.689-0.441-1.793 0-3.58 0.559-5.262 1.098-1.606 0.516-3.051 1.004-4.529 1.004-0.938 0-1.52-0.205-2.52-0.625v-10.818c1 0.296 1.578 0.441 2.496 0.441 1.791 0 3.482-0.559 5.164-1.099 1.605-0.516 3.195-1.003 4.674-1.003 0.937 0.001 1.666 0.206 2.666 0.625v10.818z"></path>
</svg>
