<?xml version="1.0" encoding="utf-8"?>
<!-- Generated by IcoMoon.io -->
<!DOCTYPE svg PUBLIC "-//W3C//DTD SVG 1.1//EN" "http://www.w3.org/Graphics/SVG/1.1/DTD/svg11.dtd">
<svg version="1.1" xmlns="http://www.w3.org/2000/svg" xmlns:xlink="http://www.w3.org/1999/xlink" width="32" height="32" viewBox="0 0 32 32">
<path fill="#444444" d="M22.565 4.014c-0.188 0-0.371 0.021-0.555 0.035v1.74c4.291 0 7.77 4.571 7.77 10.211s-3.479 10.211-7.77 10.211v1.74c0.184 0.014 0.367 0.035 0.555 0.035 5.212 0 9.435-5.366 9.435-11.986s-4.223-11.986-9.435-11.986zM27.005 16c0-3.486-2.118-6.395-4.994-7.305v2.4c1.472 0.877 2.497 2.734 2.497 4.904s-1.025 4.027-2.497 4.904v2.4c2.876-0.908 4.994-3.817 4.994-7.303zM17.008 0c-0.553 0-1 0.447-1 1l-10.006 11h-5.002c-0.553 0-1 0.447-1 1v8c0 0.553 0.448 1 1 1h5.002l10.005 9c0 0.553 0.447 1 1 1s1.001-0.447 1.001-1v-30c0.001-0.553-0.446-1-1-1z"></path>
</svg>
