<?xml version="1.0" encoding="utf-8"?>
<!-- Generated by IcoMoon.io -->
<!DOCTYPE svg PUBLIC "-//W3C//DTD SVG 1.1//EN" "http://www.w3.org/Graphics/SVG/1.1/DTD/svg11.dtd">
<svg version="1.1" xmlns="http://www.w3.org/2000/svg" xmlns:xlink="http://www.w3.org/1999/xlink" width="32" height="32" viewBox="0 0 32 32">
<path fill="#444444" d="M31 14h-3.173c-0.845-5.020-4.806-8.975-9.827-9.82v-3.18c0-0.553-0.447-1-1-1h-2c-0.553 0-1 0.447-1 1v3.18c-5.021 0.845-8.982 4.8-9.827 9.82h-3.173c-0.553 0-1 0.447-1 1v2c0 0.553 0.447 1 1 1h3.173c0.845 5.020 4.806 8.976 9.827 9.82v3.18c0 0.553 0.447 1 1 1h2c0.553 0 1-0.447 1-1v-3.18c5.021-0.845 8.982-4.801 9.827-9.82h3.173c0.553 0 1-0.447 1-1v-2c0-0.553-0.447-1-1-1zM23.746 14h-5.746v-5.738c2.809 0.725 5.021 2.931 5.746 5.738zM14 8.262v5.738h-5.747c0.725-2.807 2.938-5.013 5.747-5.738zM8.253 18h5.747v5.737c-2.809-0.723-5.022-2.929-5.747-5.737zM18 23.737v-5.737h5.746c-0.725 2.808-2.937 5.014-5.746 5.737z"></path>
</svg>
