<?xml version="1.0" encoding="utf-8"?>
<!-- Generated by IcoMoon.io -->
<!DOCTYPE svg PUBLIC "-//W3C//DTD SVG 1.1//EN" "http://www.w3.org/Graphics/SVG/1.1/DTD/svg11.dtd">
<svg version="1.1" xmlns="http://www.w3.org/2000/svg" xmlns:xlink="http://www.w3.org/1999/xlink" width="32" height="32" viewBox="0 0 32 32">
<path fill="#444444" d="M24 10c-0.379 0-0.738 0.061-1.102 0.111-1.394-2.465-3.972-4.111-6.898-4.111-2.988 0-5.566 1.666-6.941 4.1-0.352-0.047-0.704-0.1-1.059-0.1-4.41 0-8 3.588-8 8 0 4.414 3.59 8 8 8h16c4.41 0 8-3.586 8-8 0-4.412-3.59-8-8-8zM24 22h-16c-2.207 0-4-1.797-4-4 0-2.193 1.941-3.885 4.004-3.945 0.008 0.943 0.172 1.869 0.5 2.744l3.746-1.402c-0.168-0.444-0.25-0.915-0.25-1.397 0-2.205 1.793-4 4-4 1.293 0 2.465 0.641 3.199 1.639-1.929 1.461-3.199 3.756-3.199 6.361h4c0-2.205 1.793-4 4-4s4 1.795 4 4c0 2.203-1.793 4-4 4z"></path>
</svg>
