<?xml version="1.0" encoding="utf-8"?>
<!-- Generated by IcoMoon.io -->
<!DOCTYPE svg PUBLIC "-//W3C//DTD SVG 1.1//EN" "http://www.w3.org/Graphics/SVG/1.1/DTD/svg11.dtd">
<svg version="1.1" xmlns="http://www.w3.org/2000/svg" xmlns:xlink="http://www.w3.org/1999/xlink" width="48" height="48" viewBox="0 0 48 48">
<path fill="#444444" d="M25.38 3.78c-0.67-0.49-1.49-0.78-2.38-0.78-2.21 0-4 1.79-4 4v4c0 1.101-0.9 2-2 2h-12c-2.21 0-4 1.79-4 4v14c0 2.21 1.79 4 4 4h12c1.1 0 2 0.9 2 2v4c0 2.21 1.79 4 4 4 0.89 0 1.71-0.29 2.38-0.78l20.149-16.67c1.961-1.96 1.961-5.14 0-7.1l-20.149-16.67z"></path>
</svg>
