<?xml version="1.0" encoding="utf-8"?>
<!-- Generated by IcoMoon.io -->
<!DOCTYPE svg PUBLIC "-//W3C//DTD SVG 1.1//EN" "http://www.w3.org/Graphics/SVG/1.1/DTD/svg11.dtd">
<svg version="1.1" xmlns="http://www.w3.org/2000/svg" xmlns:xlink="http://www.w3.org/1999/xlink" width="24" height="32" viewBox="0 0 24 32">
<path fill="#444444" d="M22 4h-8c0 0 0-0.752 0-1 0-0.552-0.448-1-1-1s-1 0.448-1 1c0 0.552 0 1 0 1h-8c-1.105 0-2 0.895-2 2v2c0 1.105 0.895 2 2 2v18c0 1.105 0.895 2 2 2h14c1.105 0 2-0.895 2-2v-18c1.105 0 2-0.895 2-2v-2c0-1.105-0.895-2-2-2zM20 27c0 0.552-0.448 1-1 1h-12c-0.552 0-1-0.448-1-1v-17h2v15c0 0.552 0.448 1 1 1s1-0.448 1-1l0.012-15h1.988v15c0 0.552 0.448 1 1 1s1-0.448 1-1l0.012-15h2l-0.012 15c0 0.552 0.448 1 1 1s1-0.448 1-1v-15h2v17zM22 7.5c0 0.276-0.224 0.5-0.5 0.5h-17c-0.276 0-0.5-0.224-0.5-0.5v-1c0-0.276 0.224-0.5 0.5-0.5h17c0.276 0 0.5 0.224 0.5 0.5v1z"></path>
</svg>
