<?xml version="1.0" encoding="utf-8"?>
<!-- Generated by IcoMoon.io -->
<!DOCTYPE svg PUBLIC "-//W3C//DTD SVG 1.1//EN" "http://www.w3.org/Graphics/SVG/1.1/DTD/svg11.dtd">
<svg version="1.1" xmlns="http://www.w3.org/2000/svg" xmlns:xlink="http://www.w3.org/1999/xlink" width="48" height="48" viewBox="0 0 48 48">
<path fill="#444444" d="M0 44c0 2.21 1.79 4 4 4h40c2.21 0 4-1.79 4-4l-0-35c0-2.21-1.79-4-4-4h-4l0-2.5c0-1.38-1.12-2.5-2.5-2.5s-2.5 1.12-2.5 2.5v2.5h-4l0-2.5c0-1.38-1.12-2.5-2.5-2.5s-2.5 1.12-2.5 2.5v2.5h-4l0-2.5c0-1.38-1.12-2.5-2.5-2.5s-2.5 1.12-2.5 2.5v2.5h-4l0-2.5c0-1.38-1.12-2.5-2.5-2.5s-2.5 1.12-2.5 2.5v2.5h-4c-2.21 0-4 1.79-4 4v35zM7.2 10h0.8v3.5c0 1.38 1.12 2.5 2.5 2.5s2.5-1.12 2.5-2.5v-3.5h4v3.5c0 1.38 1.12 2.5 2.5 2.5s2.5-1.12 2.5-2.5l-0-3.5h4v3.5c0 1.38 1.12 2.5 2.5 2.5s2.5-1.12 2.5-2.5l-0-3.5h4v3.5c0 1.38 1.12 2.5 2.5 2.5s2.5-1.12 2.5-2.5l-0-3.5h0.8c1.22 0 2.2 0.98 2.2 2.2v10.6c0 1.22-0.98 2.2-2.2 2.2l-33.6-0c-1.22 0-2.2-0.98-2.2-2.2v-10.6c0-1.22 0.98-2.2 2.2-2.2z"></path>
</svg>
