<?xml version="1.0" encoding="utf-8"?>
<!-- Generated by IcoMoon.io -->
<!DOCTYPE svg PUBLIC "-//W3C//DTD SVG 1.1//EN" "http://www.w3.org/Graphics/SVG/1.1/DTD/svg11.dtd">
<svg version="1.1" xmlns="http://www.w3.org/2000/svg" xmlns:xlink="http://www.w3.org/1999/xlink" width="32" height="32" viewBox="0 0 32 32">
<path fill="#444444" d="M31.12 26.869l-5.304-5.303c1.398-2.181 2.232-4.759 2.232-7.542 0-7.746-6.278-14.024-14.024-14.024s-14.024 6.278-14.024 14.024 6.279 14.024 14.024 14.024c2.783 0 5.361-0.834 7.541-2.232l5.304 5.304c1.174 1.174 3.077 1.174 4.25 0s1.174-3.077 0-4.25zM14.024 24.041c-5.532 0-10.017-4.484-10.017-10.017s4.485-10.017 10.017-10.017c5.533 0 10.017 4.485 10.017 10.017s-4.484 10.017-10.017 10.017zM8.014 16.027h12.021v-4.007h-12.021v4.007z"></path>
</svg>
