<?xml version="1.0" encoding="utf-8"?>
<!-- Generated by IcoMoon.io -->
<!DOCTYPE svg PUBLIC "-//W3C//DTD SVG 1.1//EN" "http://www.w3.org/Graphics/SVG/1.1/DTD/svg11.dtd">
<svg version="1.1" xmlns="http://www.w3.org/2000/svg" xmlns:xlink="http://www.w3.org/1999/xlink" width="32" height="32" viewBox="0 0 32 32">
<path fill="#444444" d="M14 24h4v-4h-4v4zM16 8c-3 0-6 3-6 6h4c0-1 1-2 2-2s2 1 2 2c0 2-4 2-4 4h4c2-0.688 4-2 4-5s-3-5-6-5zM16 0c-8.844 0-16 7.156-16 16s7.156 16 16 16 16-7.156 16-16-7.156-16-16-16zM16 28c-6.625 0-12-5.375-12-12s5.375-12 12-12 12 5.375 12 12-5.375 12-12 12z"></path>
</svg>
