<?xml version="1.0" encoding="utf-8"?>
<!-- Generated by IcoMoon.io -->
<!DOCTYPE svg PUBLIC "-//W3C//DTD SVG 1.1//EN" "http://www.w3.org/Graphics/SVG/1.1/DTD/svg11.dtd">
<svg version="1.1" xmlns="http://www.w3.org/2000/svg" xmlns:xlink="http://www.w3.org/1999/xlink" width="32" height="32" viewBox="0 0 32 32">
<path fill="#444444" d="M27.393 2.664l-3.646 2.218-0.026 2.005-8.048 8.028-1.103-1.103c-0.391-0.391-1.024-0.391-1.415 0s-0.751 0.662-0.751 0.662l0.41 0.41c-0.004-0.004-0.009-0.008-0.013-0.012-1.988 1.987-3.27 2.562-3.27 2.562l-6.238 6.321c-0.391 0.392-0.391 1.022 0 1.414l3.536 3.536c0.39 0.391 1.023 0.391 1.414 0l6.237-6.321c0 0 0.574-1.28 2.564-3.271l0.354 0.354c0 0 0.315-0.316 0.707-0.707 0.391-0.391 0.391-1.023 0-1.414l-1.072-1.072 8.018-8.057 2.047-0.001 2.203-3.644-1.908-1.908zM3.979 24.402l6.348-6.348 0.707 0.706-6.348 6.349-0.707-0.707zM5.393 25.861l6.348-6.35 0.707 0.709-6.348 6.348-0.707-0.707zM7.514 27.982l-0.707-0.707 6.348-6.349 0.708 0.707-6.349 6.349z"></path>
</svg>
