<?xml version="1.0" encoding="utf-8"?>
<!-- Generated by IcoMoon.io -->
<!DOCTYPE svg PUBLIC "-//W3C//DTD SVG 1.1//EN" "http://www.w3.org/Graphics/SVG/1.1/DTD/svg11.dtd">
<svg version="1.1" xmlns="http://www.w3.org/2000/svg" xmlns:xlink="http://www.w3.org/1999/xlink" width="32" height="32" viewBox="0 0 32 32">
<path fill="#444444" d="M19.182 26.328c-5.635 0-10.26-4.656-10.26-10.328 0-5.715 4.539-10.328 10.373-10.328 2 0 4 0.806 4 0.806-2.277-1.6-4.645-2.399-7.104-2.399-3.342 0-6.18 1.157-8.516 3.472s-3.503 5.131-3.503 8.449c0 3.297 1.163 6.108 3.488 8.434s5.136 3.488 8.434 3.488c4.262 0 6.872-2.201 7.201-2.416 0 0-2.113 0.822-4.113 0.822zM21.553 16.66l-1.064 3.304 2.807-2.030 2.791 2.030-1.064-3.304 2.807-2.020h-3.47l-1.065-3.298-1.080 3.298h-3.469l2.807 2.020z"></path>
</svg>
