<?xml version="1.0" encoding="utf-8"?>
<!-- Generated by IcoMoon.io -->
<!DOCTYPE svg PUBLIC "-//W3C//DTD SVG 1.1//EN" "http://www.w3.org/Graphics/SVG/1.1/DTD/svg11.dtd">
<svg version="1.1" xmlns="http://www.w3.org/2000/svg" xmlns:xlink="http://www.w3.org/1999/xlink" width="24" height="24" viewBox="0 0 24 24">
<path fill="#444444" d="M14 4v-1c0-1.104-0.896-2-2-2h-4c-1.104 0-2 0.896-2 2v1h-4v3h-1v7h2v-5h18v12h-11v2h13v-19h-9zM21 7h-17v-1h4v-3h4v3h9v1zM7.448 19.521c0.040-0.168 0.051-0.342 0.051-0.521 0-0.18-0.024-0.353-0.063-0.521l1.543-0.923-0.888-1.356-1.455 0.927c-0.213-0.162-0.619-0.291-0.619-0.38v-1.747h-2.034v1.747c0 0.089-0.406 0.218-0.619 0.38l-1.455-0.927-0.888 1.356 1.543 0.923c-0.038 0.168-0.063 0.341-0.063 0.521 0 0.179 0.011 0.353 0.051 0.521l-1.554 0.923 0.863 1.357 1.502-0.928c0.214 0.162 0.62 0.291 0.62 0.381v1.746h2.033v-1.746c0-0.090 0.406-0.219 0.62-0.381l1.502 0.928 0.863-1.357-1.553-0.923zM5 20.599c-0.918-0.006-1.662-0.719-1.662-1.599s0.744-1.593 1.662-1.599c0.918 0.006 1.662 0.719 1.662 1.599s-0.744 1.593-1.662 1.599z"></path>
</svg>
