<?xml version="1.0" encoding="utf-8"?>
<!-- Generated by IcoMoon.io -->
<!DOCTYPE svg PUBLIC "-//W3C//DTD SVG 1.1//EN" "http://www.w3.org/Graphics/SVG/1.1/DTD/svg11.dtd">
<svg version="1.1" xmlns="http://www.w3.org/2000/svg" xmlns:xlink="http://www.w3.org/1999/xlink" width="24" height="24" viewBox="0 0 24 24">
<path fill="#444444" d="M19.445 16.809l-2.64-9.809h1.195c0.552 0 1-0.448 1-1s-0.448-1-1-1h-12c-0.552 0-1 0.448-1 1s0.448 1 1 1h1.135c-0.013 0.176-0.048 0.402-0.121 0.671l-2.459 9.138c-0.218 0.809-0.074 1.623 0.393 2.231 0.466 0.61 1.214 0.96 2.052 0.96h10c0.838 0 1.586-0.35 2.055-0.959 0.466-0.609 0.609-1.423 0.39-2.232zM14.732 7l1.352 5.018c-0.027-0.006-0.055-0.018-0.084-0.018h-8c-0.029 0-0.057 0.012-0.084 0.018l1.029-3.826c0.084-0.312 0.173-0.744 0.192-1.192h5.595zM17.466 17.824c-0.087 0.114-0.252 0.176-0.466 0.176h-10c-0.214 0-0.379-0.062-0.466-0.176-0.086-0.113-0.104-0.289-0.048-0.496l1.197-4.45c0.088 0.073 0.195 0.122 0.317 0.122h8c0.122 0 0.229-0.049 0.316-0.121l1.197 4.45c0.057 0.206 0.040 0.382-0.047 0.495z"></path>
</svg>
