<?xml version="1.0" encoding="utf-8"?>
<!-- Generated by IcoMoon.io -->
<!DOCTYPE svg PUBLIC "-//W3C//DTD SVG 1.1//EN" "http://www.w3.org/Graphics/SVG/1.1/DTD/svg11.dtd">
<svg version="1.1" xmlns="http://www.w3.org/2000/svg" xmlns:xlink="http://www.w3.org/1999/xlink" width="32" height="32" viewBox="0 0 32 32">
<path fill="#444444" d="M0 28c0-2.209 1.791-4 4-4s4 1.791 4 4c0 2.209-1.791 4-4 4s-4-1.791-4-4zM6 0v4c12.148 0 22 9.851 22 22h4c0-14.358-11.643-26-26-26zM6.023 8.008c-0.008 0-0.015 0.001-0.023 0.001v4c0.008 0 0.015-0.001 0.023-0.001 7.729 0 13.996 6.265 14 13.992h4c-0.004-9.937-8.062-17.992-18-17.992zM6.023 16.008c-0.008 0-0.015 0.001-0.023 0.001v4c0.008 0 0.015-0.001 0.023-0.001 3.311 0 5.996 2.683 6 5.992h4c-0.004-5.519-4.48-9.992-10-9.992z"></path>
</svg>
