<?xml version="1.0" encoding="utf-8"?>
<!-- Generated by IcoMoon.io -->
<!DOCTYPE svg PUBLIC "-//W3C//DTD SVG 1.1//EN" "http://www.w3.org/Graphics/SVG/1.1/DTD/svg11.dtd">
<svg version="1.1" xmlns="http://www.w3.org/2000/svg" xmlns:xlink="http://www.w3.org/1999/xlink" width="24" height="24" viewBox="0 0 24 24">
<path fill="#444444" d="M18 18.516q0.656 0 1.078-0.445t0.422-1.055-0.422-1.055-1.078-0.445-1.078 0.445-0.422 1.055 0.422 1.055 1.078 0.445zM19.5 9.516h-2.484v2.484h4.453zM6 18.516q0.656 0 1.078-0.445t0.422-1.055-0.422-1.055-1.078-0.445-1.078 0.445-0.422 1.055 0.422 1.055 1.078 0.445zM20.016 8.016l3 3.984v5.016h-2.016q0 1.219-0.891 2.109t-2.109 0.891-2.109-0.891-0.891-2.109h-6q0 1.219-0.891 2.109t-2.109 0.891-2.109-0.891-0.891-2.109h-2.016v-11.016q0-0.797 0.609-1.406t1.406-0.609h14.016v4.031h3z"></path>
</svg>
