<?xml version="1.0" encoding="utf-8"?>
<!-- Generated by IcoMoon.io -->
<!DOCTYPE svg PUBLIC "-//W3C//DTD SVG 1.1//EN" "http://www.w3.org/Graphics/SVG/1.1/DTD/svg11.dtd">
<svg version="1.1" xmlns="http://www.w3.org/2000/svg" xmlns:xlink="http://www.w3.org/1999/xlink" width="24" height="24" viewBox="0 0 24 24">
<path fill="#444444" d="M12 20.5c-4.688 0-8.5-3.812-8.5-8.5s3.812-8.5 8.497-8.5c4.69 0 8.503 3.812 8.503 8.5s-3.812 8.5-8.5 8.5zM12 5.5c-3.586 0-6.5 2.916-6.5 6.5s2.916 6.5 6.5 6.5 6.5-2.916 6.5-6.5-2.916-6.5-6.5-6.5z"></path>
<path fill="#444444" d="M12.003 8.5c1.929 0 3.497 1.57 3.497 3.5 0 0.206-0.020 0.412-0.057 0.615l-4.057-4.059c0.203-0.036 0.408-0.056 0.614-0.056zM12.003 7.5c-0.882 0-1.696 0.262-2.39 0.697l6.188 6.188c0.438-0.692 0.699-1.508 0.699-2.387 0-2.48-2.014-4.498-4.497-4.498z"></path>
<path fill="#444444" d="M8.557 11.384l4.059 4.060c-0.204 0.036-0.409 0.056-0.616 0.056-1.93 0-3.5-1.57-3.5-3.502 0-0.206 0.020-0.412 0.057-0.614zM8.199 9.611c-0.435 0.694-0.699 1.508-0.699 2.387 0 2.486 2.016 4.502 4.5 4.502 0.879 0 1.693-0.264 2.387-0.699l-6.188-6.19z"></path>
</svg>
