<?xml version="1.0" encoding="utf-8"?>
<!-- Generated by IcoMoon.io -->
<!DOCTYPE svg PUBLIC "-//W3C//DTD SVG 1.1//EN" "http://www.w3.org/Graphics/SVG/1.1/DTD/svg11.dtd">
<svg version="1.1" xmlns="http://www.w3.org/2000/svg" xmlns:xlink="http://www.w3.org/1999/xlink" width="24" height="24" viewBox="0 0 24 24">
<path fill="#444444" d="M18 13.5c-0.553 0-1 0.447-1 1 0 2.414-1.721 4.434-4 4.898v-7.398h4c0.553 0 1-0.447 1-1s-0.447-1-1-1h-4v-1.184c1.162-0.413 2-1.511 2-2.816 0-1.657-1.343-3-3-3s-3 1.343-3 3c0 1.305 0.838 2.403 2 2.816v1.184h-4c-0.553 0-1 0.447-1 1s0.447 1 1 1h4v7.398c-2.279-0.465-4-2.484-4-4.898 0-0.553-0.447-1-1-1s-1 0.447-1 1c0 3.859 3.141 7 7 7s7-3.141 7-7c0-0.553-0.447-1-1-1zM12 5c0.551 0 1 0.449 1 1s-0.449 1-1 1-1-0.449-1-1 0.449-1 1-1z"></path>
</svg>
