<?xml version="1.0" encoding="utf-8"?>
<!-- Generated by IcoMoon.io -->
<!DOCTYPE svg PUBLIC "-//W3C//DTD SVG 1.1//EN" "http://www.w3.org/Graphics/SVG/1.1/DTD/svg11.dtd">
<svg version="1.1" xmlns="http://www.w3.org/2000/svg" xmlns:xlink="http://www.w3.org/1999/xlink" width="24" height="24" viewBox="0 0 24 24">
<path fill="#444444" d="M15.942 16.182c2.374 0 3.558-0.791 3.558-2.373 0-1.304-0.749-2.132-2.254-2.49l-1.119-0.235c-0.637-0.159-0.951-0.495-0.951-1.009 0-0.594 0.396-0.889 1.186-0.889 0.869 0 1.323 0.334 1.363 1.006l1.717-0.178c-0.114-1.463-1.109-2.195-2.962-2.195-2.019 0-3.026 0.832-3.026 2.495 0 1.182 0.654 1.935 1.958 2.251l1.188 0.236c0.79 0.196 1.186 0.555 1.186 1.068 0 0.631-0.614 0.949-1.842 0.949-1.498 0-2.489-0.732-2.962-2.195l-0.597-1.721c-0.354-1.145-0.796-1.947-1.334-2.401-0.53-0.45-1.367-0.683-2.519-0.683-1.069 0-2.007 0.396-2.815 1.188-0.811 0.791-1.217 1.838-1.217 3.142 0 1.223 0.383 2.203 1.156 2.935 0.774 0.733 1.688 1.099 2.756 1.099 1.069 0 1.918-0.256 2.55-0.77l-0.53-1.485c-0.554 0.556-1.211 0.833-1.96 0.833-0.63 0-1.175-0.248-1.628-0.744-0.455-0.492-0.686-1.137-0.686-1.927 0-0.989 0.247-1.708 0.743-2.163 0.497-0.455 1.056-0.681 1.689-0.681 0.674 0 1.155 0.177 1.457 0.53 0.296 0.357 0.56 0.912 0.797 1.662l0.537 1.721c0.632 2.014 2.154 3.024 4.561 3.024z"></path>
</svg>
