<?xml version="1.0" encoding="utf-8"?>
<!-- Generated by IcoMoon.io -->
<!DOCTYPE svg PUBLIC "-//W3C//DTD SVG 1.1//EN" "http://www.w3.org/Graphics/SVG/1.1/DTD/svg11.dtd">
<svg version="1.1" xmlns="http://www.w3.org/2000/svg" xmlns:xlink="http://www.w3.org/1999/xlink" width="33" height="32" viewBox="0 0 33 32">
<path fill="#444444" d="M31.625 13.938c-0.508 0-1.731 0.563-2.603 1h-1.985c-0.12-2.543-1.141-4.845-2.755-6.6l1.312-1.313c0.932-0.305 2.302-0.799 2.679-1.176 0.586-0.586 0.586-1.536 0-2.122s-1.535-0.585-2.121 0c-0.359 0.359-0.826 1.624-1.133 2.548l-1.403 1.402c-1.763-1.605-4.070-2.612-6.616-2.718v-1.857c0.442-0.875 1.062-2.194 1.062-2.727 0-0.828-0.672-1.5-1.5-1.5s-1.5 0.672-1.5 1.5c0 0.508 0.563 1.731 1 2.603v1.985c-2.543 0.12-4.846 1.14-6.601 2.755l-1.312-1.313c-0.305-0.932-0.8-2.303-1.177-2.68-0.585-0.585-1.535-0.585-2.121 0s-0.586 1.536 0 2.122c0.359 0.36 1.623 0.826 2.547 1.133l1.403 1.403c-1.591 1.749-2.594 4.033-2.713 6.554h-1.985c-0.871-0.437-2.094-1-2.603-1-0.829 0-1.5 0.672-1.5 1.5s0.671 1.5 1.5 1.5c0.533 0 1.852-0.62 2.727-1.062h1.858c0.105 2.546 1.113 4.853 2.717 6.616l-1.402 1.403c-0.925 0.307-2.188 0.773-2.548 1.133-0.586 0.586-0.586 1.536 0 2.121 0.586 0.586 1.536 0.586 2.121 0 0.377-0.376 0.871-1.746 1.177-2.678l1.313-1.313c1.755 1.614 4.057 2.635 6.6 2.755v1.985c-0.437 0.871-1 2.095-1 2.603 0 0.828 0.672 1.5 1.5 1.5s1.5-0.672 1.5-1.5c0-0.533-0.62-1.852-1.062-2.727v-1.858c2.546-0.104 4.853-1.112 6.616-2.716l1.403 1.402c0.307 0.924 0.773 2.188 1.133 2.547 0.586 0.586 1.535 0.586 2.121 0s0.586-1.535 0-2.121c-0.377-0.377-1.747-0.871-2.679-1.177l-1.312-1.312c1.628-1.77 2.652-4.095 2.758-6.663h1.858c0.875 0.443 2.193 1.062 2.727 1.062 0.828 0 1.5-0.672 1.5-1.5s-0.673-1.499-1.501-1.499zM10.215 9.798l3.552 3.552c-0.342 0.457-0.569 0.997-0.655 1.587h-5.024c0.115-1.969 0.896-3.755 2.127-5.139zM8.084 15.875h5.022c0.078 0.615 0.308 1.178 0.662 1.65l-3.553 3.552c-1.243-1.398-2.028-3.208-2.131-5.202zM16.062 23.912c-1.992-0.116-3.795-0.914-5.186-2.17l3.55-3.55c0.467 0.362 1.023 0.606 1.636 0.694v5.026zM16.062 11.988c-0.613 0.088-1.169 0.333-1.636 0.695l-3.55-3.55c1.391-1.255 3.194-2.054 5.186-2.17v5.025zM25.037 14.938h-5.025c-0.088-0.612-0.332-1.169-0.694-1.636l3.55-3.55c1.255 1.39 2.053 3.194 2.169 5.186zM22.202 9.090l-3.552 3.553c-0.473-0.354-1.035-0.584-1.65-0.662v-5.022c1.994 0.103 3.804 0.888 5.202 2.131zM17 23.915v-5.021c0.615-0.078 1.178-0.308 1.65-0.661l3.552 3.552c-1.398 1.243-3.208 2.028-5.202 2.13zM22.867 21.123l-3.55-3.55c0.375-0.482 0.621-1.062 0.701-1.698h5.021c-0.101 2.017-0.903 3.844-2.172 5.248z"></path>
</svg>
