<?xml version="1.0" encoding="utf-8"?>
<!-- Generated by IcoMoon.io -->
<!DOCTYPE svg PUBLIC "-//W3C//DTD SVG 1.1//EN" "http://www.w3.org/Graphics/SVG/1.1/DTD/svg11.dtd">
<svg version="1.1" xmlns="http://www.w3.org/2000/svg" xmlns:xlink="http://www.w3.org/1999/xlink" width="24" height="24" viewBox="0 0 24 24">
<path fill="#444444" d="M20 3v-2h-6v2h2v18h-2v2h6v-2h-2v-18zM14 5.342c0-0.104-0.195-0.229-0.32-0.318-0.551-0.411-1.16-0.679-1.836-0.803-0.676-0.125-1.465-0.187-2.373-0.187-0.658 0-1.334 0.104-2.025 0.316-0.692 0.211-1.28 0.467-1.766 0.771-0.563 0.356-1.019 0.762-1.37 1.215-0.351 0.454-0.527 0.93-0.527 1.427 0 0.476 0.127 0.905 0.381 1.289s0.651 0.575 1.191 0.575c0.605 0 1.078-0.156 1.419-0.471 0.341-0.312 0.511-0.658 0.511-1.037 0-0.356-0.052-0.745-0.154-1.167-0.104-0.421-0.154-0.74-0.154-0.956 0.173-0.184 0.473-0.359 0.9-0.527 0.426-0.168 0.889-0.251 1.386-0.251 0.724 0 1.283 0.148 1.678 0.445 0.395 0.298 0.7 0.646 0.916 1.046 0.194 0.357 0.143 1.166 0.143 1.166v2.385c0 0.281-1.357 0.67-2.844 1.167s-2.391 0.837-2.878 1.021c-0.388 0.152-0.762 0.355-1.206 0.608-0.443 0.255-0.78 0.543-1.051 0.868-0.346 0.389-0.595 0.826-0.768 1.312s-0.253 1.037-0.253 1.654c0 1.189 0.389 2.151 1.162 2.886 0.772 0.734 1.76 1.103 2.959 1.103 1.135 0 2.105-0.445 2.91-0.855 0.807-0.413 1.561-1.024 2.263-2.024h0.098c0.141 1 0.454 1.571 0.956 1.966l0.652 0.034v-14.658zM12.262 17.227c-0.4 0.509-0.892 0.949-1.475 1.324-0.584 0.373-1.26 0.561-2.027 0.561-0.725 0-1.321-0.211-1.791-0.635-0.471-0.422-0.705-1.082-0.705-1.98 0-0.693 0.156-1.293 0.471-1.796 0.312-0.505 0.74-0.94 1.279-1.308 0.596-0.391 1.238-0.715 1.93-0.976 0.691-0.26 1.398-0.498 2.318-0.767v5.577z"></path>
</svg>
