<?xml version="1.0" encoding="utf-8"?>
<!-- Generated by IcoMoon.io -->
<!DOCTYPE svg PUBLIC "-//W3C//DTD SVG 1.1//EN" "http://www.w3.org/Graphics/SVG/1.1/DTD/svg11.dtd">
<svg version="1.1" xmlns="http://www.w3.org/2000/svg" xmlns:xlink="http://www.w3.org/1999/xlink" width="32" height="32" viewBox="0 0 32 32">
<path fill="#444444" d="M24.16 9.207c0.378 0.377 0.378 0.989 0 1.367s-0.685 0.684-0.685 0.684l0.685 0.684c0.755 0.755 0.755 1.979 0 2.735l-10.255 10.253c-0.756 0.756-1.98 0.756-2.735 0l-0.684-0.684-2.734 2.736 1.367 1.367c0.378 0.377 0.378 0.988 0 1.367-0.378 0.377-0.99 0.377-1.367 0l-5.47-5.471c-0.377-0.377-0.377-0.988 0-1.367 0.378-0.377 0.99-0.377 1.367 0l1.367 1.367 2.735-2.734-0.684-0.684c-0.756-0.754-0.756-1.979 0-2.734l10.256-10.254c0.756-0.756 1.979-0.756 2.734 0l0.684 0.684c0 0 0.307-0.307 0.684-0.684 0.378-0.378 0.99-0.378 1.367 0l0.342 0.342 5.47-5.47v1.367l-4.786 4.786 0.342 0.343zM19.374 8.523c-0.377-0.378-0.989-0.378-1.367 0l-2.051 2.051 1.367 1.367-0.684 0.684-1.367-1.367-2.051 2.051 1.367 1.368-0.684 0.684-1.368-1.368-0.684 0.684 2.735 2.734-0.684 0.684-2.735-2.734-2.049 2.049 2.734 2.734-0.684 0.684-2.734-2.734-0.684 0.684c-0.378 0.377-0.378 0.99 0 1.367l4.102 4.102c0.378 0.379 0.99 0.379 1.368 0l10.254-10.254c0.379-0.377 0.379-0.989 0-1.367l-4.101-4.103zM16.64 9.89l0.684-0.684 2.734 2.734-0.684 0.684-2.734-2.734zM16.64 15.359l-2.734-2.735 0.684-0.684 2.734 2.735-0.684 0.684zM9.803 16.727l0.684-0.684 1.367 1.367-0.684 0.684-1.367-1.367zM29.942 9.386c0 0.725-0.588 1.312-1.312 1.312-0.726 0-1.313-0.588-1.313-1.312 0-0.726 1.313-2.708 1.313-2.708s1.312 1.983 1.312 2.708z"></path>
</svg>
