<?xml version="1.0" encoding="utf-8"?>
<!-- Generated by IcoMoon.io -->
<!DOCTYPE svg PUBLIC "-//W3C//DTD SVG 1.1//EN" "http://www.w3.org/Graphics/SVG/1.1/DTD/svg11.dtd">
<svg version="1.1" xmlns="http://www.w3.org/2000/svg" xmlns:xlink="http://www.w3.org/1999/xlink" width="32" height="32" viewBox="0 0 32 32">
<path fill="#444444" d="M24.982 9.718c0.373 0.373 0.978 0.373 1.35 0l5.283-4.159c0.879 2.764 0.258 5.902-1.935 8.095-2.092 2.093-5.046 2.752-7.714 2.048l-6.266 6.266c0.704 2.669 0.044 5.622-2.047 7.714-2.193 2.193-5.332 2.814-8.096 1.935l4.161-5.282c0.373-0.374 0.373-0.978 0-1.351l-2.7-2.699c-0.373-0.373-0.978-0.373-1.35 0l-5.283 4.159c-0.879-2.764-0.258-5.901 1.934-8.094 2.093-2.093 5.046-2.753 7.715-2.048l6.267-6.267c-0.705-2.668-0.045-5.622 2.046-7.714 2.193-2.193 5.332-2.814 8.097-1.936l-4.161 5.284c-0.372 0.372-0.372 0.977 0 1.349l2.699 2.7z"></path>
</svg>
