<?xml version="1.0" encoding="utf-8"?>
<!-- Generated by IcoMoon.io -->
<!DOCTYPE svg PUBLIC "-//W3C//DTD SVG 1.1//EN" "http://www.w3.org/Graphics/SVG/1.1/DTD/svg11.dtd">
<svg version="1.1" xmlns="http://www.w3.org/2000/svg" xmlns:xlink="http://www.w3.org/1999/xlink" width="32" height="32" viewBox="0 0 32 32">
<path fill="#444444" d="M16.738 11.478c-0.233-0.19-0.5-0.286-0.801-0.286s-0.569 0.096-0.805 0.286c-0.236 0.191-0.419 0.532-0.549 1.024-0.171 0.639-0.256 1.714-0.256 3.226s0.076 2.551 0.229 3.116 0.347 0.941 0.579 1.13c0.233 0.188 0.5 0.28 0.801 0.28s0.568-0.095 0.805-0.285 0.418-0.532 0.549-1.024c0.17-0.633 0.256-1.705 0.256-3.217s-0.076-2.551-0.23-3.116c-0.153-0.565-0.345-0.943-0.578-1.134zM16 3c-7.18 0-13 5.82-13 13s5.82 13 13 13 13-5.82 13-13-5.82-13-13-13zM18.858 20.983c-0.698 0.879-1.672 1.318-2.921 1.318-1.255 0-2.267-0.481-3.035-1.445s-1.152-2.682-1.152-5.154c0-2.426 0.422-4.172 1.267-5.238 0.698-0.879 1.672-1.318 2.921-1.318s2.226 0.445 2.93 1.336c0.838 1.055 1.258 2.803 1.258 5.247-0.001 2.437-0.424 4.189-1.268 5.254z"></path>
</svg>
