<?xml version="1.0" encoding="utf-8"?>
<!-- Generated by IcoMoon.io -->
<!DOCTYPE svg PUBLIC "-//W3C//DTD SVG 1.1//EN" "http://www.w3.org/Graphics/SVG/1.1/DTD/svg11.dtd">
<svg version="1.1" xmlns="http://www.w3.org/2000/svg" xmlns:xlink="http://www.w3.org/1999/xlink" width="24" height="24" viewBox="0 0 24 24">
<path fill="#444444" d="M20.121 7.121c-0.566-0.567-1.32-0.879-2.121-0.879s-1.555 0.312-2.121 0.879c-0.233 0.233-0.546 0.362-0.879 0.362s-0.646-0.129-0.879-0.362c-1.366-1.366-3.185-2.118-5.121-2.118s-3.755 0.752-5.121 2.118c-0.567 0.567-0.879 1.32-0.879 2.121s0.312 1.555 0.879 2.121c0.566 0.567 1.32 0.879 2.121 0.879v4.758c0 1.654 1.346 3 3 3s3-1.346 3-3c0 1.654 1.346 3 3 3s3-1.346 3-3v-4.166c0.784-0.356 1.501-0.851 2.12-1.47 0.568-0.567 0.88-1.321 0.88-2.122s-0.312-1.554-0.879-2.121zM18.707 9.949c-0.768 0.767-1.715 1.245-2.707 1.437v5.614c0 0.553-0.447 1-1 1s-1-0.447-1-1v-5.614c-0.992-0.191-1.939-0.67-2.707-1.437-0.374-0.374-0.821-0.623-1.293-0.775v7.826c0 0.553-0.447 1-1 1s-1-0.447-1-1v-7.827c-0.473 0.152-0.919 0.402-1.293 0.776-0.195 0.196-0.451 0.293-0.707 0.293s-0.512-0.098-0.707-0.293c-0.391-0.391-0.391-1.023 0-1.414 1.021-1.021 2.364-1.532 3.707-1.532s2.685 0.511 3.707 1.532c0.633 0.632 1.463 0.948 2.293 0.948s1.661-0.316 2.293-0.948c0.195-0.195 0.451-0.293 0.707-0.293s0.512 0.098 0.707 0.293c0.391 0.391 0.391 1.024 0 1.414z"></path>
</svg>
