<?xml version="1.0" encoding="utf-8"?>
<!-- Generated by IcoMoon.io -->
<!DOCTYPE svg PUBLIC "-//W3C//DTD SVG 1.1//EN" "http://www.w3.org/Graphics/SVG/1.1/DTD/svg11.dtd">
<svg version="1.1" xmlns="http://www.w3.org/2000/svg" xmlns:xlink="http://www.w3.org/1999/xlink" width="24" height="24" viewBox="0 0 24 24">
<path fill="#444444" d="M19 3h-11c-1.654 0-3 1.346-3 3v1h-1c-0.553 0-1 0.448-1 1s0.447 1 1 1h1v2h-1c-0.553 0-1 0.448-1 1s0.447 1 1 1h1v2h-1c-0.553 0-1 0.448-1 1s0.447 1 1 1h1v1c0 1.654 1.346 3 3 3h11c1.654 0 3-1.346 3-3v-12c0-1.654-1.346-3-3-3zM7 6c0-0.551 0.449-1 1-1v2h-1v-1zM7 9h1v2h-1v-2zM7 13h1v2h-1v-2zM7 18v-1h1v2c-0.551 0-1-0.449-1-1zM20 18c0 0.551-0.449 1-1 1h-10v-14h10c0.551 0 1 0.449 1 1v12z"></path>
<path fill="#444444" d="M16 10.5c0 1.105-0.895 2-2 2s-2-0.895-2-2c0-1.105 0.895-2 2-2s2 0.895 2 2z"></path>
<path fill="#444444" d="M14 13.356c-1.562 0-2.5 0.715-2.5 1.429 0 0.357 0.938 0.715 2.5 0.715 1.466 0 2.5-0.357 2.5-0.715 0-0.714-0.98-1.429-2.5-1.429z"></path>
</svg>
