<?xml version="1.0" encoding="utf-8"?>
<!-- Generated by IcoMoon.io -->
<!DOCTYPE svg PUBLIC "-//W3C//DTD SVG 1.1//EN" "http://www.w3.org/Graphics/SVG/1.1/DTD/svg11.dtd">
<svg version="1.1" xmlns="http://www.w3.org/2000/svg" xmlns:xlink="http://www.w3.org/1999/xlink" width="32" height="32" viewBox="0 0 32 32">
<path fill="#444444" d="M22 9.876l-3 3 5 5.124 8-8-3-3-4.961 4.962-2.039-2.086zM16 26c-5.524 0-10-4.477-10-10s4.476-10 10-10c2.762 0 5.262 1.12 7.070 2.93l2.83-2.828c-2.533-2.535-6.033-4.102-9.9-4.102-7.732 0-14 6.268-14 14s6.268 14 14 14c7.732 0 14-6.268 14-14l-6.258 6.258c0.279-0.344-2.344 3.742-7.742 3.742zM18 8h-4v10h4v-10zM14 24h4v-4h-4v4z"></path>
</svg>
