<?xml version="1.0" encoding="utf-8"?>
<!-- Generated by IcoMoon.io -->
<!DOCTYPE svg PUBLIC "-//W3C//DTD SVG 1.1//EN" "http://www.w3.org/Graphics/SVG/1.1/DTD/svg11.dtd">
<svg version="1.1" xmlns="http://www.w3.org/2000/svg" xmlns:xlink="http://www.w3.org/1999/xlink" width="48" height="48" viewBox="0 0 48 48">
<path fill="#444444" d="M32 43v-22h1.5c0.83 0 1.5 0.67 1.5 1.5v14c0 3.59 2.91 6.5 6.5 6.5s6.5-2.91 6.5-6.5l0-26.92c0-1.41-0.58-2.68-1.51-3.59l-5.301-5.27c-0.959-0.961-2.51-0.961-3.47 0-0.96 0.96-0.96 2.51 0 3.469l3.44 3.45-2.54 2.65c-0.83 0.85-0.83 2.22 0 3.070 0.409 0.439 0.96 0.649 1.51 0.64l2.871-0.009v22.51c0 0.83-0.67 1.5-1.5 1.5s-1.5-0.67-1.5-1.5v-14c0-3.59-2.91-6.5-6.5-6.5h-1.5v-12c0-2.21-1.79-4-4-4h-21c-2.21 0-4 1.79-4 4v39h-0.5c-1.38 0-2.5 1.12-2.5 2.5s1.12 2.5 2.5 2.5h30c1.38 0 2.5-1.12 2.5-2.5s-1.12-2.5-2.5-2.5h-0.5zM10.2 5h14.6c1.22 0 2.2 0.98 2.2 2.2v10.6c0 1.22-0.98 2.2-2.2 2.2l-14.6-0c-1.22 0-2.2-0.98-2.2-2.2v-10.6c0-1.22 0.98-2.2 2.2-2.2z"></path>
</svg>
