<?xml version="1.0" encoding="utf-8"?>
<!-- Generated by IcoMoon.io -->
<!DOCTYPE svg PUBLIC "-//W3C//DTD SVG 1.1//EN" "http://www.w3.org/Graphics/SVG/1.1/DTD/svg11.dtd">
<svg version="1.1" xmlns="http://www.w3.org/2000/svg" xmlns:xlink="http://www.w3.org/1999/xlink" width="32" height="32" viewBox="0 0 32 32">
<path fill="#444444" d="M26 0h-4v4h4v-4zM30 0h-2v6h-8v-6h-8v6h-8v-6h-2c-1.105 0-2 0.895-2 2v28c0 1.105 0.894 2 2 2h28c1.105 0 2-0.895 2-2v-28c0-1.105-0.895-2-2-2zM28 28h-24v-18h24v18zM10 0h-4v4h4v-4zM18 14h-4v4h4v-4zM24 14h-4v4h4v-4zM12 20h-4v4h4v-4zM12 14h-4v4h4v-4zM18 20h-4v4h4v-4zM24 20h-4v4h4v-4z"></path>
</svg>
