<?xml version="1.0" encoding="utf-8"?>
<!-- Generated by IcoMoon.io -->
<!DOCTYPE svg PUBLIC "-//W3C//DTD SVG 1.1//EN" "http://www.w3.org/Graphics/SVG/1.1/DTD/svg11.dtd">
<svg version="1.1" xmlns="http://www.w3.org/2000/svg" xmlns:xlink="http://www.w3.org/1999/xlink" width="24" height="24" viewBox="0 0 24 24">
<path fill="#444444" d="M9 16c0 0.552-0.448 1-1 1s-1-0.448-1-1c0-0.552 0.448-1 1-1s1 0.448 1 1z"></path>
<path fill="#444444" d="M20.733 4.657c-0.392-0.378-1.013-0.377-1.399 0.009 0.387-0.386 0.388-1.008 0.010-1.4-1.078-0.792-2.405-1.266-3.844-1.266-3.59 0-6.5 2.91-6.5 6.5 0 0.129 0.023 0.252 0.031 0.379-0.337 0.239-2.893 2.147-4.258 3.301-1.135 0.99-1.773 2.375-1.773 3.82 0 2.757 2.243 5 5 5 1.465 0 2.854-0.65 3.811-1.784 1.173-1.375 3.080-3.923 3.317-4.229 0.12-0.010 0.243 0.013 0.372 0.013 3.59 0 6.5-2.91 6.5-6.5 0-1.44-0.474-2.766-1.267-3.843zM8 19c-1.656 0-3-1.343-3-3 0-0.92 0.423-1.732 1.064-2.292 2.368-2.002 3.617-2.748 5.115-4.015-0.105-0.382-0.179-0.777-0.179-1.193 0-2.485 2.015-4.5 4.5-4.5 0.47 0 0.914 0.092 1.339 0.226l-2.839 2.774 0.5 2.5 2.5 0.5 2.805-2.741c0.115 0.396 0.195 0.807 0.195 1.241 0 2.485-2.015 4.5-4.5 4.5-0.416 0-0.811-0.074-1.193-0.18-1.267 1.498-2.013 2.748-4.024 5.105-0.551 0.652-1.363 1.075-2.283 1.075zM19.384 6.271l-2.705 2.645-1.329-0.266-0.263-1.314 2.726-2.663c0.651 0.393 1.19 0.939 1.571 1.598z"></path>
</svg>
