<?xml version="1.0" encoding="utf-8"?>
<!-- Generated by IcoMoon.io -->
<!DOCTYPE svg PUBLIC "-//W3C//DTD SVG 1.1//EN" "http://www.w3.org/Graphics/SVG/1.1/DTD/svg11.dtd">
<svg version="1.1" xmlns="http://www.w3.org/2000/svg" xmlns:xlink="http://www.w3.org/1999/xlink" width="24" height="24" viewBox="0 0 24 24">
<path fill="#444444" d="M8 1v4h-7v15h6.137l1.685 4h11l2.178-2v-21h-14zM3 18v-8.25l3.295 8.25h-3.295zM7.5 17l-4-10h4v10zM20 21l-1.179 1h-8.821v-19h10v18zM11 5h5v1h-5zM11 11h5v1h-5zM11 13h5v1h-5zM11 15h5v1h-5zM11 17h5v1h-5zM11 19h5v1h-5zM17.002 4.999h1.998v1.002h-1.998zM17.002 7h0.999v1.002h-0.999zM14.998 7h0.999v1.002h-0.999zM14.002 7h-3.002v1.002h3.002zM18.001 11h0.996v1.002h-0.996zM18.001 12.999h0.996v1.002h-0.996zM18.001 15h0.996v1.002h-0.996zM18.001 16.999h0.996v1.002h-0.996z"></path>
</svg>
