<?xml version="1.0" encoding="utf-8"?>
<!-- Generated by IcoMoon.io -->
<!DOCTYPE svg PUBLIC "-//W3C//DTD SVG 1.1//EN" "http://www.w3.org/Graphics/SVG/1.1/DTD/svg11.dtd">
<svg version="1.1" xmlns="http://www.w3.org/2000/svg" xmlns:xlink="http://www.w3.org/1999/xlink" width="32" height="32" viewBox="0 0 32 32">
<path fill="#444444" d="M27 28.031h-2v1.938h-4v-1.938h-11v1.938h-4v-1.938h-2c-1.105 0-2-0.896-2-2v-17c0-1.105 0.895-2 2-2h23c1.104 0 2 0.896 2 2v17c0 1.105-0.896 2-2 2zM20.999 16.031h-3.999v-4h-3v4h-4v3h4v4h3v-4h3.999v-3zM19 4.010h-6v2.021h-2v-0.979h1v-3.021h7.958v3h1.042v1h-2v-2.021z"></path>
</svg>
