<?xml version="1.0" encoding="utf-8"?>
<!-- Generated by IcoMoon.io -->
<!DOCTYPE svg PUBLIC "-//W3C//DTD SVG 1.1//EN" "http://www.w3.org/Graphics/SVG/1.1/DTD/svg11.dtd">
<svg version="1.1" xmlns="http://www.w3.org/2000/svg" xmlns:xlink="http://www.w3.org/1999/xlink" width="32" height="32" viewBox="0 0 32 32">
<path fill="#444444" d="M16 4c-6.627 0-12 5.373-12 12 0 6.628 5.373 12 12 12 6.628 0 12-5.372 12-12 0-6.627-5.372-12-12-12zM23.575 17.816l-2.364 2.63-0.509-3.697c-3.062-0.938-6.562-0.947-9.812-0.010l-0.316 3.743c0 0-2.566-2.641-2.612-2.641-1.201 0.427-2.503 1.367-2.503 1.367l-0.062-0.812c0 0 9.917-6.917 20.751 0l-0.062 0.812c-0.002 0.001-1.198-1.017-2.511-1.392z"></path>
</svg>
