<?xml version="1.0" encoding="utf-8"?>
<!-- Generated by IcoMoon.io -->
<!DOCTYPE svg PUBLIC "-//W3C//DTD SVG 1.1//EN" "http://www.w3.org/Graphics/SVG/1.1/DTD/svg11.dtd">
<svg version="1.1" xmlns="http://www.w3.org/2000/svg" xmlns:xlink="http://www.w3.org/1999/xlink" width="32" height="32" viewBox="0 0 32 32">
<path fill="#444444" d="M24.653 10.731c0 0 0.479-6.444-5.426-7.18-5.062-0.517-6.602 4.187-6.602 4.187s-1.522-1.466-3.591-0.268c-1.851 1.143-1.523 3.234-1.523 3.234s-4.111 0.799-4.111 4.989c0.092 4.186 4.464 4.228 4.464 4.228h16.082c0 0 4.068 0.004 4.641-3.977 0.271-4.354-3.934-5.213-3.934-5.213zM9.828 24.572c1.291-1.992 0.989-2.272-0.905-0.843-0.496-2.321-0.908-2.307-1.236 0.044-1.992-1.291-2.273-0.989-0.844 0.905-2.321 0.496-2.307 0.908 0.044 1.237-1.291 1.991-0.988 2.272 0.906 0.843 0.495 2.321 0.907 2.307 1.236-0.044 1.992 1.291 2.273 0.989 0.843-0.906 2.322-0.495 2.307-0.907-0.044-1.236zM16.828 24.572c1.291-1.992 0.989-2.272-0.905-0.843-0.496-2.321-0.908-2.307-1.236 0.044-1.992-1.291-2.273-0.989-0.844 0.905-2.321 0.496-2.307 0.908 0.044 1.237-1.291 1.991-0.988 2.272 0.906 0.843 0.495 2.321 0.907 2.307 1.236-0.044 1.992 1.291 2.273 0.989 0.843-0.906 2.322-0.495 2.307-0.907-0.044-1.236zM23.828 24.572c1.291-1.992 0.989-2.272-0.905-0.843-0.496-2.321-0.908-2.307-1.236 0.044-1.992-1.291-2.273-0.989-0.844 0.905-2.321 0.496-2.307 0.908 0.044 1.237-1.291 1.991-0.989 2.272 0.905 0.843 0.496 2.321 0.908 2.307 1.237-0.044 1.991 1.291 2.272 0.989 0.843-0.906 2.322-0.495 2.307-0.907-0.044-1.236z"></path>
</svg>
