<?xml version="1.0" encoding="UTF-8"?>
<!DOCTYPE svg PUBLIC "-//W3C//DTD SVG 1.1//EN" "http://www.w3.org/Graphics/SVG/1.1/DTD/svg11.dtd">
<!-- Creator: CorelDRAW X8 -->
<svg xmlns="http://www.w3.org/2000/svg" xml:space="preserve" width="1.31006in" height="0.928807in" version="1.1" style="shape-rendering:geometricPrecision; text-rendering:geometricPrecision; image-rendering:optimizeQuality; fill-rule:evenodd; clip-rule:evenodd"
viewBox="0 0 307 218"
 xmlns:xlink="http://www.w3.org/1999/xlink">
 <defs>
  <style type="text/css">
   <![CDATA[
    .fil0 {fill:black}
   ]]>
  </style>
 </defs>
 <g id="Layer_x0020_1">
  <metadata id="CorelCorpID_0Corel-Layer"/>
  <g id="_133444947040">
   <path class="fil0" d="M227 150l-21 0 35 -80 23 0 16 80 -19 0 -3 -11 -27 0 -4 11zm-159 -41l0 2 0 -2zm-27 -23l0 0zm164 3c-4,-1 -9,-5 -16,-5 -6,1 -13,2 -13,8 0,10 30,11 30,33 0,14 -20,28 -34,28 -10,0 -18,0 -26,-4l3 -17c10,2 8,4 22,4 7,0 13,-2 13,-8 0,-12 -28,-9 -30,-33 -1,-19 16,-27 35,-27 8,0 14,3 20,3l-4 18zm-73 61l-21 0 12 -80 22 0 -13 80zm-91 -64c10,2 30,28 30,41l1 0 20 -57 22 0 -32 80 -24 0 -17 -64zm27 23c-7,-7 -6,-13 -21,-24 -10,-7 -28,-15 -28,-15 12,0 33,-3 40,4 4,3 4,10 5,16 1,5 4,15 4,19zm-68 -85l0 170c0,12 12,24 24,24l259 0c12,0 24,-12 24,-24l0 -170c0,-12 -12,-24 -24,-24l-259 0c-12,0 -24,12 -24,24z"/>
   <path class="fil0" d="M237 123l18 0 -6 -30c-2,1 -5,11 -6,15 -1,3 -5,13 -6,15z"/>
  </g>
 </g>
</svg>
