<?xml version="1.0" encoding="utf-8"?>
<!-- Generated by IcoMoon.io -->
<!DOCTYPE svg PUBLIC "-//W3C//DTD SVG 1.1//EN" "http://www.w3.org/Graphics/SVG/1.1/DTD/svg11.dtd">
<svg version="1.1" xmlns="http://www.w3.org/2000/svg" xmlns:xlink="http://www.w3.org/1999/xlink" width="28" height="32" viewBox="0 0 28 32">
<path fill="#444444" d="M13.5 1h-11c-0.276 0-0.5 0.224-0.5 0.5v15c0 0.276 0.224 0.5 0.5 0.5h11.002c0.251 0 1.498 0.074 1.498 1.5 0 0.276 0.224 0.5 0.5 0.5s0.5-0.224 0.5-0.5v-15.016c-0.027-0.859-0.584-2.484-2.5-2.484zM15 16.456c-0.501-0.337-1.088-0.456-1.5-0.456h-10.5v-14h10.5c1.396 0 1.494 1.363 1.5 1.5v12.956zM26.329 21h-13.842c0.006 0.001-0.703 0.009-1.14-0.419-0.251-0.247-0.379-0.61-0.379-1.081 0-0.276-0.224-0.5-0.5-0.5s-0.5 0.224-0.5 0.5c0 0.754 0.231 1.36 0.688 1.803 0.687 0.665 1.648 0.697 1.819 0.697 0.015 0 13.854 0 13.854 0 0.389 0 0.719-0.157 0.931-0.443 0.281-0.379 0.275-0.863 0.185-1.162-0.563-1.853-3.541-5.883-4.379-6.996 0.807-1.241 3.815-5.94 4.379-7.793 0.091-0.299 0.097-0.782-0.185-1.162-0.212-0.287-0.542-0.444-0.931-0.444h-8.787c-0.276 0-0.5 0.224-0.5 0.5s0.224 0.5 0.5 0.5h8.787c0.099 0 0.119 0.028 0.127 0.039 0.047 0.062 0.055 0.197 0.031 0.275-0.596 1.961-4.412 7.772-4.451 7.831-0.117 0.178-0.108 0.41 0.021 0.579 0.038 0.050 3.839 5.018 4.43 6.961 0.023 0.079 0.016 0.213-0.031 0.276-0.008 0.011-0.028 0.039-0.127 0.039zM1 31.5v-31c0-0.276-0.224-0.5-0.5-0.5s-0.5 0.224-0.5 0.5v31c0 0.276 0.224 0.5 0.5 0.5s0.5-0.224 0.5-0.5z"></path>
</svg>
