<?xml version="1.0" encoding="utf-8"?>
<!-- Generated by IcoMoon.io -->
<!DOCTYPE svg PUBLIC "-//W3C//DTD SVG 1.1//EN" "http://www.w3.org/Graphics/SVG/1.1/DTD/svg11.dtd">
<svg version="1.1" xmlns="http://www.w3.org/2000/svg" xmlns:xlink="http://www.w3.org/1999/xlink" width="48" height="48" viewBox="0 0 48 48">
<path fill="#444444" d="M5.561 20.207c-0.979 0.979-1.45 2.38-1.689 3.8l-3.812 18.020c-0.54 3.201 2.67 6.421 5.911 5.921l18.041-3.761c1.32-0.239 2.75-0.65 3.73-1.63l19.11-19.131c1.53-1.539 1.53-4.029 0-5.569l-16.69-16.71c-1.54-1.53-4.030-1.53-5.561 0l-19.040 19.060zM23.901 39.437l-9.34 1.791-7.74-7.75 1.779-9.351 13.911-13.93c0.77-0.771 2.010-0.771 2.78 0 0.771 0.77 0.771 2.020 0 2.79l-12.861 12.88c-0.96 0.96-0.96 2.521 0 3.479 0.96 0.961 2.51 0.961 3.47 0l12.871-12.88c0.771-0.77 2.010-0.77 2.78 0 0.771 0.771 0.771 2.011 0 2.78l-12.861 12.88c-0.96 0.96-0.96 2.521 0 3.48 0.96 0.96 2.511 0.96 3.47 0l12.871-12.88c0.761-0.761 2.011-0.761 2.781 0 0.77 0.77 0.77 2.020 0 2.789l-13.911 13.922z"></path>
</svg>
