<?xml version="1.0" encoding="utf-8"?>
<!-- Generated by IcoMoon.io -->
<!DOCTYPE svg PUBLIC "-//W3C//DTD SVG 1.1//EN" "http://www.w3.org/Graphics/SVG/1.1/DTD/svg11.dtd">
<svg version="1.1" xmlns="http://www.w3.org/2000/svg" xmlns:xlink="http://www.w3.org/1999/xlink" width="48" height="48" viewBox="0 0 48 48">
<path fill="#444444" d="M42.5 10h-6.5v-6c0-2.21-1.79-4-4-4h-16c-2.21 0-4 1.79-4 4v6h-6.5c-1.38 0-2.5 1.12-2.5 2.5s1.12 2.5 2.5 2.5h1.5v29c0 2.21 1.79 4 4 4h26c2.21 0 4-1.79 4-4l-0-29h1.5c1.38 0 2.5-1.12 2.5-2.5s-1.12-2.5-2.5-2.5zM31 10h-14v-2.8c0-1.22 0.98-2.2 2.2-2.2h9.6c1.22 0 2.2 0.98 2.2 2.2v2.8zM17 17v24c0 1.1-0.9 2-2 2s-2-0.9-2-2v-24c0-1.1 0.9-2 2-2s2 0.9 2 2zM26 17v24c0 1.1-0.9 2-2 2s-2-0.9-2-2v-24c0-1.1 0.9-2 2-2s2 0.9 2 2zM35 17v24c0 1.1-0.9 2-2 2s-2-0.9-2-2v-24c0-1.1 0.9-2 2-2s2 0.9 2 2z"></path>
</svg>
