<?xml version="1.0" encoding="utf-8"?>
<!-- Generated by IcoMoon.io -->
<!DOCTYPE svg PUBLIC "-//W3C//DTD SVG 1.1//EN" "http://www.w3.org/Graphics/SVG/1.1/DTD/svg11.dtd">
<svg version="1.1" xmlns="http://www.w3.org/2000/svg" xmlns:xlink="http://www.w3.org/1999/xlink" width="24" height="24" viewBox="0 0 24 24">
<path fill="#444444" d="M19.219 3.984v-0.469q0-0.703-0.516-1.219t-1.219-0.516-1.195 0.516-0.492 1.219v0.469h3.422zM20.016 3.984q0.422 0 0.703 0.305t0.281 0.727v3.984q0 0.422-0.281 0.703t-0.703 0.281h-5.016q-0.422 0-0.703-0.281t-0.281-0.703v-3.984q0-0.422 0.281-0.727t0.703-0.305v-0.469q0-1.031 0.727-1.781t1.758-0.75 1.781 0.75 0.75 1.781v0.469zM20.016 15.516q0.422 0 0.703 0.281t0.281 0.703v3.516q0 0.422-0.281 0.703t-0.703 0.281q-7.031 0-12.023-4.992t-4.992-12.023q0-0.422 0.281-0.703t0.703-0.281h3.516q0.422 0 0.703 0.281t0.281 0.703q0 1.875 0.563 3.563 0.188 0.609-0.234 1.031l-2.203 2.203q2.203 4.313 6.609 6.609l2.203-2.203q0.422-0.422 1.031-0.234 1.688 0.563 3.563 0.563z"></path>
</svg>
