<?xml version="1.0" encoding="utf-8"?>
<!-- Generated by IcoMoon.io -->
<!DOCTYPE svg PUBLIC "-//W3C//DTD SVG 1.1//EN" "http://www.w3.org/Graphics/SVG/1.1/DTD/svg11.dtd">
<svg version="1.1" xmlns="http://www.w3.org/2000/svg" xmlns:xlink="http://www.w3.org/1999/xlink" width="33" height="32" viewBox="0 0 33 32">
<path fill="#444444" d="M31 29.004h-29c-1.104 0-2-0.894-2-1.995v-16.964c0-1.103 0.896-1.996 2-1.996h21.188l-8.266-4.493c-0.18 0.331-0.518 0.564-0.922 0.564-0.587 0-1.062-0.475-1.062-1.060s0.475-1.060 1.062-1.060 1.062 0.475 1.062 1.061c0 0.14-0.030 0.271-0.080 0.394l11.893 4.595h4.125c1.104 0 2 0.894 2 1.996v16.964c0 1.1-0.896 1.994-2 1.994zM28 26.031c1.104 0 2-0.894 2-1.996s-0.896-1.995-2-1.995c-1.105 0-2 0.894-2 1.995 0 1.103 0.895 1.996 2 1.996zM22 26.011c1.104 0 2-0.894 2-1.996s-0.896-1.995-2-1.995-2 0.894-2 1.995c0 1.102 0.896 1.996 2 1.996zM10.5 11.043c-4.142 0-7.5 3.351-7.5 7.483 0 4.134 3.358 7.484 7.5 7.484 4.143 0 7.5-3.351 7.5-7.484 0-4.132-3.357-7.483-7.5-7.483zM30 11.043h-10v2.993h5.5l1-1.995 1 1.995h2.5v-2.993zM16 20.023h0.809c-0.082 0.345-0.193 0.677-0.328 0.998h-0.481v-0.998zM16 18.028h0.949c0.014 0.167 0.051 0.327 0.051 0.498s-0.037 0.332-0.051 0.499h-0.949v-0.997zM16 16.032h0.492c0.135 0.318 0.229 0.656 0.312 0.998h-0.804v-0.998zM14 15.034v-0.998h1v0.998h-1zM12 24.015h1v0.479c-0.321 0.133-0.655 0.241-1 0.325v-0.804zM12 22.020h1v0.998h-1v-0.998zM12 20.023h1v0.998h-1v-0.998zM12 18.028h1v0.997h-1v-0.997zM12 16.032h1v0.998h-1v-0.998zM12 14.036h1v0.998h-1v-0.998zM12 12.236c0.344 0.084 0.679 0.192 1 0.325v0.478h-1v-0.803zM10 24.96v-0.945h1v0.962c-0.166 0.013-0.33 0.036-0.5 0.036-0.172 0-0.332-0.039-0.5-0.053zM10 22.020h1v0.998h-1v-0.998zM10 20.023h1v0.998h-1v-0.998zM10 18.028h1v0.997h-1v-0.997zM10 16.032h1v0.998h-1v-0.998zM10 14.036h1v0.998h-1v-0.998zM10 12.094c0.168-0.014 0.328-0.053 0.5-0.053 0.17 0 0.334 0.023 0.5 0.036v0.962h-1v-0.945zM8 24.015h1v0.796c-0.342-0.085-0.681-0.182-1-0.317v-0.479zM8 22.020h1v0.998h-1v-0.998zM8 20.023h1v0.998h-1v-0.998zM8 18.028h1v0.997h-1v-0.997zM8 16.032h1v0.998h-1v-0.998zM8 14.036h1v0.998h-1v-0.998zM8 12.563c0.319-0.137 0.658-0.233 1-0.319v0.795h-1v-0.476zM6 22.020h1v0.998h-1v-0.998zM6 20.023h1v0.998h-1v-0.998zM6 18.028h1v0.997h-1v-0.997zM6 16.032h1v0.998h-1v-0.998zM6 14.036h1v0.998h-1v-0.998zM15 17.030h-1v-0.998h1v0.998zM15 19.025h-1v-0.997h1v0.997zM15 21.021h-1v-0.998h1v0.998zM15 23.018h-1v-0.998h1v0.998zM4.191 20.023h0.809v0.998h-0.48c-0.135-0.321-0.247-0.653-0.329-0.998zM4 18.526c0-0.171 0.038-0.331 0.051-0.498h0.949v0.997h-0.949c-0.014-0.167-0.051-0.328-0.051-0.499zM4.508 16.032h0.492v0.998h-0.804c0.083-0.342 0.177-0.679 0.312-0.998zM8 30.002c0 0.551-0.447 0.998-1 0.998h-2c-0.552 0-1-0.447-1-0.998s0-0.998 0-0.998h4c0 0 0 0.447 0 0.998zM29 30.002c0 0.551-0.447 0.998-1 0.998h-2c-0.553 0-1-0.447-1-0.998s0-0.998 0-0.998h4c0 0 0 0.447 0 0.998z"></path>
</svg>
