<?xml version="1.0" encoding="utf-8"?>
<!-- Generated by IcoMoon.io -->
<!DOCTYPE svg PUBLIC "-//W3C//DTD SVG 1.1//EN" "http://www.w3.org/Graphics/SVG/1.1/DTD/svg11.dtd">
<svg version="1.1" xmlns="http://www.w3.org/2000/svg" xmlns:xlink="http://www.w3.org/1999/xlink" width="24" height="24" viewBox="0 0 24 24">
<path fill="#444444" d="M21.821 12.43c-0.083-0.119-2.062-2.944-4.793-4.875-1.416-1.003-3.202-1.555-5.028-1.555s-3.611 0.552-5.030 1.555c-2.731 1.931-4.708 4.756-4.791 4.875-0.238 0.343-0.238 0.798 0 1.141 0.083 0.119 2.060 2.944 4.791 4.875 1.419 1.002 3.205 1.554 5.030 1.554 1.826 0 3.612-0.552 5.028-1.555 2.731-1.931 4.71-4.756 4.793-4.875 0.239-0.342 0.239-0.798 0-1.14zM12 16.5c-1.934 0-3.5-1.57-3.5-3.5 0-1.934 1.566-3.5 3.5-3.5 1.93 0 3.5 1.566 3.5 3.5 0 1.93-1.57 3.5-3.5 3.5z"></path>
<path fill="#444444" d="M14 13c0 1.102-0.898 2-2 2-1.105 0-2-0.898-2-2 0-1.105 0.895-2 2-2 1.102 0 2 0.895 2 2z"></path>
</svg>
