<?xml version="1.0" encoding="utf-8"?>
<!-- Generated by IcoMoon.io -->
<!DOCTYPE svg PUBLIC "-//W3C//DTD SVG 1.1//EN" "http://www.w3.org/Graphics/SVG/1.1/DTD/svg11.dtd">
<svg version="1.1" xmlns="http://www.w3.org/2000/svg" xmlns:xlink="http://www.w3.org/1999/xlink" width="24" height="24" viewBox="0 0 24 24">
<path fill="#444444" d="M8.5 11c0 0.732 0.166 1.424 0.449 2.051l-3.949 3.949c0 0 0 0.672 0 1.5s0.896 1.5 2 1.5h2v-2h2v-2c0 0 2.329 0 2.5 0 2.762 0 5-2.238 5-5s-2.238-5-5-5-5 2.238-5 5zM13.5 13c-1.104 0-2-0.896-2-2 0-1.105 0.896-2.002 2-2.002 1.105 0 2 0.896 2 2.002 0 1.104-0.895 2-2 2z"></path>
</svg>
