<?xml version="1.0" encoding="utf-8"?>
<!-- Generated by IcoMoon.io -->
<!DOCTYPE svg PUBLIC "-//W3C//DTD SVG 1.1//EN" "http://www.w3.org/Graphics/SVG/1.1/DTD/svg11.dtd">
<svg version="1.1" xmlns="http://www.w3.org/2000/svg" xmlns:xlink="http://www.w3.org/1999/xlink" width="32" height="32" viewBox="0 0 32 32">
<path fill="#444444" d="M31 6h-5.5l-1.5-3c0-0.552-0.447-1-1-1h-14c-0.553 0-1 0.448-1 1l-1.5 3h-5.5c-0.552 0-1 0.448-1 1v22c0 0.553 0.448 1 1 1h30c0.553 0 1-0.447 1-1v-22c0-0.552-0.447-1-1-1zM16 26c-4.418 0-8-3.582-8-8s3.582-8 8-8 8 3.582 8 8c0 4.418-3.582 8-8 8zM16 14c-2.209 0-4 1.791-4 4s1.791 4 4 4 4-1.791 4-4-1.791-4-4-4z"></path>
</svg>
