<?xml version="1.0" encoding="utf-8"?>
<!-- Generated by IcoMoon.io -->
<!DOCTYPE svg PUBLIC "-//W3C//DTD SVG 1.1//EN" "http://www.w3.org/Graphics/SVG/1.1/DTD/svg11.dtd">
<svg version="1.1" xmlns="http://www.w3.org/2000/svg" xmlns:xlink="http://www.w3.org/1999/xlink" width="24" height="24" viewBox="0 0 24 24">
<path fill="#444444" d="M9.844 21.75q0.188-0.328 2.016-3.516t2.813-4.828l3.656 6.328q-2.766 2.25-6.328 2.25-0.984 0-2.156-0.234zM2.438 15h9.703l-3.703 6.328q-2.156-0.797-3.727-2.461t-2.273-3.867zM4.641 5.25l5.063 8.766h-7.5q-0.188-0.891-0.188-2.016 0-3.891 2.625-6.75zM21.797 9.984q0.188 0.891 0.188 2.016 0 3.891-2.625 6.75l-4.781-8.25-0.281-0.516h7.5zM21.563 9h-9.703l3.703-6.328q2.156 0.797 3.727 2.461t2.273 3.867zM9.422 10.5l-0.094 0.094-3.656-6.328q2.766-2.25 6.328-2.25 0.984 0 2.156 0.234z"></path>
</svg>
