<?xml version="1.0" encoding="utf-8"?>
<!-- Generated by IcoMoon.io -->
<!DOCTYPE svg PUBLIC "-//W3C//DTD SVG 1.1//EN" "http://www.w3.org/Graphics/SVG/1.1/DTD/svg11.dtd">
<svg version="1.1" xmlns="http://www.w3.org/2000/svg" xmlns:xlink="http://www.w3.org/1999/xlink" width="24" height="24" viewBox="0 0 24 24">
<path fill="#444444" d="M11.614 13.98l4.908 4.922c0.39 0.391 0.99 0.36 1.286-0.106 0.88-1.394 1.393-3.044 1.393-4.815 0-2.131-0.741-4.086-1.972-5.631l-5.615 5.63z"></path>
<path fill="#444444" d="M9 14.396v-7.355c-3.391 0.487-6 3.405-6 6.939 0 3.876 3.134 7.020 7 7.020 1.572 0 3.018-0.526 4.186-1.403l-5.186-5.201z"></path>
<path fill="#444444" d="M16.331 6.213c0.39-0.391 0.365-0.999-0.089-1.313-1.253-0.868-2.695-1.479-4.251-1.765-0.544-0.1-0.991 0.312-0.991 0.865v7.56l5.331-5.347z"></path>
</svg>
