<?xml version="1.0" encoding="utf-8"?>
<!-- Generated by IcoMoon.io -->
<!DOCTYPE svg PUBLIC "-//W3C//DTD SVG 1.1//EN" "http://www.w3.org/Graphics/SVG/1.1/DTD/svg11.dtd">
<svg version="1.1" xmlns="http://www.w3.org/2000/svg" xmlns:xlink="http://www.w3.org/1999/xlink" width="18" height="18" viewBox="0 0 18 18">
<path fill="#444444" d="M17.001 4c-0.116 0-0.235 0.022-0.352 0.071l-4.649 1.913v-1.983c0-0.552-0.448-1-1-1h-10c-0.552 0-1 0.448-1 1v10c0 0.552 0.448 1 1 1h10c0.552 0 1-0.448 1-1v-1.983l4.649 1.913c0.117 0.048 0.236 0.071 0.352 0.071 0.53 0 0.999-0.47 0.999-1.098v-7.804c0-0.628-0.469-1.098-0.999-1.098zM10 12.5c0 0.276-0.224 0.5-0.5 0.5h-7c-0.276 0-0.5-0.224-0.5-0.5v-7c0-0.276 0.224-0.5 0.5-0.5h7c0.276 0 0.5 0.224 0.5 0.5v7zM16 11.5l-4-1.646v-1.708l4-1.646v4.999z"></path>
</svg>
