<?xml version="1.0" encoding="utf-8"?>
<!-- Generated by IcoMoon.io -->
<!DOCTYPE svg PUBLIC "-//W3C//DTD SVG 1.1//EN" "http://www.w3.org/Graphics/SVG/1.1/DTD/svg11.dtd">
<svg version="1.1" xmlns="http://www.w3.org/2000/svg" xmlns:xlink="http://www.w3.org/1999/xlink" width="24" height="24" viewBox="0 0 24 24">
<path fill="#444444" d="M12 5.484q-1.031 0-1.758 0.75t-0.727 1.781 0.727 1.758 1.758 0.727 1.758-0.727 0.727-1.758-0.727-1.781-1.758-0.75zM5.578 10.266q0-1.547 1.453-2.25-1.453-0.703-1.453-2.25 0-1.031 0.75-1.781t1.781-0.75q0.703 0 1.406 0.469v-0.188q0-1.031 0.727-1.781t1.758-0.75 1.758 0.75 0.727 1.781v0.188q0.703-0.469 1.406-0.469 1.031 0 1.781 0.75t0.75 1.781q0 1.547-1.453 2.25 1.453 0.703 1.453 2.25 0 1.031-0.75 1.758t-1.781 0.727q-0.797 0-1.406-0.422v0.188q0 1.031-0.727 1.758t-1.758 0.727-1.758-0.727-0.727-1.758v-0.188q-0.609 0.422-1.406 0.422-1.031 0-1.781-0.727t-0.75-1.758zM12 21.984q-3.75 0-6.375-2.648t-2.625-6.352q3.75 0 6.375 2.648t2.625 6.352zM12 21.984q0-3.703 2.625-6.352t6.375-2.648q0 3.703-2.625 6.352t-6.375 2.648z"></path>
</svg>
