<?xml version="1.0" encoding="utf-8"?>
<!-- Generated by IcoMoon.io -->
<!DOCTYPE svg PUBLIC "-//W3C//DTD SVG 1.1//EN" "http://www.w3.org/Graphics/SVG/1.1/DTD/svg11.dtd">
<svg version="1.1" xmlns="http://www.w3.org/2000/svg" xmlns:xlink="http://www.w3.org/1999/xlink" width="24" height="24" viewBox="0 0 24 24">
<path fill="#444444" d="M19.5 5h-10c-1.266 0-2.834 0.807-3.57 1.837l-2.61 3.653c-0.642 0.898-1.182 1.654-1.199 1.679-0.121 0.175-0.122 0.492 0.003 0.664 0.023 0.033 0.555 0.777 1.188 1.664l2.619 3.667c0.735 1.029 2.302 1.836 3.569 1.836h10c1.379 0 2.5-1.122 2.5-2.5v-10c0-1.378-1.121-2.5-2.5-2.5zM17.207 14.793c0.391 0.391 0.391 1.023 0 1.414-0.195 0.195-0.451 0.293-0.707 0.293s-0.512-0.098-0.707-0.293l-2.293-2.293-2.293 2.293c-0.195 0.195-0.451 0.293-0.707 0.293s-0.512-0.098-0.707-0.293c-0.391-0.391-0.391-1.023 0-1.414l2.293-2.293-2.293-2.293c-0.391-0.391-0.391-1.023 0-1.414s1.023-0.391 1.414 0l2.293 2.293 2.293-2.293c0.391-0.391 1.023-0.391 1.414 0s0.391 1.023 0 1.414l-2.293 2.293 2.293 2.293z"></path>
</svg>
