<?xml version="1.0" encoding="UTF-8"?>
<!DOCTYPE svg PUBLIC "-//W3C//DTD SVG 1.1//EN" "http://www.w3.org/Graphics/SVG/1.1/DTD/svg11.dtd">
<!-- Creator: CorelDRAW X8 -->
<svg xmlns="http://www.w3.org/2000/svg" xml:space="preserve" width="1.58338in" height="1.58338in" version="1.1" style="shape-rendering:geometricPrecision; text-rendering:geometricPrecision; image-rendering:optimizeQuality; fill-rule:evenodd; clip-rule:evenodd"
viewBox="0 0 738 738"
 xmlns:xlink="http://www.w3.org/1999/xlink">
 <defs>
  <style type="text/css">
   <![CDATA[
    .fil0 {fill:black}
   ]]>
  </style>
 </defs>
 <g id="Layer_x0020_1">
  <metadata id="CorelCorpID_0Corel-Layer"/>
  <path class="fil0" d="M491 120c0,17 2,17 3,28l-279 140c-11,-16 -36,-31 -57,-37 -74,-24 -158,34 -158,114 0,56 28,99 78,119 23,9 54,11 79,3 21,-6 47,-22 58,-37l279 139c-2,25 -6,25 1,55 5,23 17,42 33,58l7 7c3,2 5,4 8,6 19,14 42,22 66,23l12 0c23,-1 46,-9 65,-22 18,-14 29,-27 40,-48 7,-14 11,-29 12,-43l0 -19c-2,-28 -14,-55 -35,-77 0,0 0,0 -1,-1 -9,-9 -22,-20 -35,-25 -44,-18 -87,-16 -126,13 -5,4 -15,12 -16,17 -7,0 -60,-28 -71,-33l-140 -71c-10,-5 -64,-33 -70,-34 0,-9 2,-15 2,-26 0,-11 -2,-17 -2,-26 7,-2 26,-13 35,-17 24,-12 237,-121 246,-121 3,14 52,41 87,41 15,0 18,0 32,-3 22,-5 44,-18 59,-34l6 -6c2,-3 4,-5 6,-8 4,-6 8,-13 11,-19 7,-14 11,-30 12,-46l0 -13c-1,-23 -9,-46 -22,-65 -22,-31 -57,-49 -92,-52l-21 0c-13,1 -27,5 -40,11 -9,4 -20,11 -27,17 -2,2 -2,3 -4,4 -1,1 -1,1 -2,2 -23,21 -39,54 -39,86z"/>
 </g>
</svg>
