<?xml version="1.0" encoding="UTF-8"?>
<!DOCTYPE svg PUBLIC "-//W3C//DTD SVG 1.1//EN" "http://www.w3.org/Graphics/SVG/1.1/DTD/svg11.dtd">
<!-- Creator: CorelDRAW X8 -->
<svg xmlns="http://www.w3.org/2000/svg" xml:space="preserve" width="1.09472in" height="0.32104in" version="1.1" style="shape-rendering:geometricPrecision; text-rendering:geometricPrecision; image-rendering:optimizeQuality; fill-rule:evenodd; clip-rule:evenodd"
viewBox="0 0 1413 1060"
 xmlns:xlink="http://www.w3.org/1999/xlink">
 <defs>
  <style type="text/css">
   <![CDATA[
    .fil0 {fill:black}
   ]]>
  </style>
 </defs>
 <g id="Layer_x0020_1">
  <metadata id="CorelCorpID_0Corel-Layer"/>
  <g id="_133437526880">
   <path class="fil0" d="M1129 453c56,13 113,55 146,102 9,12 16,22 23,37 78,163 -24,379 -258,379l-714 0c-117,0 -207,-66 -231,-172 -2,-10 -7,-41 -7,-51 1,-13 5,-36 7,-48 20,-87 94,-155 182,-167 8,-1 20,-2 25,-3 11,-1 15,3 26,3 -2,-24 -64,-137 53,-254 26,-25 75,-50 119,-55 29,-3 48,-3 76,3 15,4 21,6 33,11 11,4 19,10 31,13 7,-30 38,-61 51,-78 16,-20 53,-46 76,-57 146,-72 329,8 371,168 8,31 4,29 8,57 7,45 -17,102 -17,112zm-1129 317l0 -37c4,-62 26,-124 69,-178 32,-40 105,-96 152,-100 0,-87 24,-166 83,-225 7,-7 12,-13 20,-20 14,-13 51,-37 69,-46 64,-33 138,-40 209,-23 9,-18 34,-41 48,-54 75,-62 142,-87 250,-87 49,0 123,24 163,49 10,6 16,9 25,16l66 61c7,7 12,16 18,24l30 52c30,70 34,92 34,173 0,14 -2,13 -2,25 43,23 96,71 121,113 4,7 8,11 12,19 37,67 46,113 46,191 0,49 -24,124 -49,163 -16,24 -33,50 -54,71l-23 21c-29,26 -71,47 -107,61 -26,10 -74,21 -104,21l-783 0c-38,0 -92,-17 -117,-30 -108,-54 -169,-154 -176,-260z"/>
   <polygon class="fil0" points="456,492 580,617 456,743 580,869 706,744 831,869 958,743 833,619 957,493 831,366 707,492 582,368 "/>
  </g>
 </g>
</svg>
