<?xml version="1.0" encoding="UTF-8"?>
<!DOCTYPE svg PUBLIC "-//W3C//DTD SVG 1.1//EN" "http://www.w3.org/Graphics/SVG/1.1/DTD/svg11.dtd">
<!-- Creator: CorelDRAW X8 -->
<svg xmlns="http://www.w3.org/2000/svg" xml:space="preserve" width="2.92778in" height="2.9861in" version="1.1" style="shape-rendering:geometricPrecision; text-rendering:geometricPrecision; image-rendering:optimizeQuality; fill-rule:evenodd; clip-rule:evenodd"
viewBox="0 0 1088 1110"
 xmlns:xlink="http://www.w3.org/1999/xlink">
 <defs>
  <style type="text/css">
   <![CDATA[
    .fil0 {fill:black}
   ]]>
  </style>
 </defs>
 <g id="Layer_x0020_1">
  <metadata id="CorelCorpID_0Corel-Layer"/>
  <g id="_135258558848">
   <path class="fil0" d="M512 204c-13,3 -62,5 -103,15 -32,7 -61,15 -90,26 -40,15 -79,38 -115,61 -15,10 -52,40 -66,53 -61,63 -112,135 -130,224 -3,13 -8,36 -8,52 55,-29 98,-38 162,-25 15,3 25,8 37,13 20,8 47,27 53,49 23,0 -1,-19 59,-48 49,-24 127,-26 178,0 6,3 17,10 23,11 0,60 0,119 0,178 0,43 5,145 -5,175 -7,21 -22,39 -41,48 -47,22 -100,-2 -114,-48 -4,-11 -4,-28 -7,-38 -12,-33 -63,-22 -63,8 0,48 12,79 43,109 27,27 60,41 95,43l18 0c56,-3 109,-37 130,-97 9,-24 9,-37 9,-70 0,-102 0,-205 0,-308 42,-22 62,-30 117,-30 32,0 59,8 82,18 18,7 31,18 43,32 5,6 7,8 9,17l9 0c3,-12 13,-23 22,-30 11,-9 18,-13 32,-20 49,-21 124,-24 174,2 7,3 18,10 23,11 0,-48 -31,-134 -58,-176 -7,-12 -14,-23 -23,-35 -5,-6 -8,-10 -12,-16l-27 -31c-100,-100 -197,-143 -337,-167 -16,-3 -39,-3 -54,-6 0,-15 2,-30 -4,-40 -12,-21 -44,-22 -57,-1 -6,11 -4,24 -4,41z"/>
   <path class="fil0" d="M588 78c0,43 66,58 73,-4 3,-26 5,-45 5,-74 -17,11 -78,51 -78,78z"/>
   <path class="fil0" d="M418 78c0,43 67,58 74,-4 3,-26 5,-45 5,-74 -9,5 -15,10 -23,16 -5,4 -8,5 -12,8l-21 18c-10,9 -23,21 -23,36z"/>
   <path class="fil0" d="M275 128c0,49 68,57 74,-3 2,-24 4,-47 4,-73 -6,4 -55,40 -64,50 -5,5 -14,17 -14,26z"/>
   <path class="fil0" d="M722 126c0,7 5,19 8,24 11,13 58,31 66,-28 3,-25 4,-46 4,-74 -7,5 -14,11 -22,16 -16,12 -56,42 -56,62z"/>
  </g>
 </g>
</svg>
