<?xml version="1.0" encoding="utf-8"?>
<!-- Generated by IcoMoon.io -->
<!DOCTYPE svg PUBLIC "-//W3C//DTD SVG 1.1//EN" "http://www.w3.org/Graphics/SVG/1.1/DTD/svg11.dtd">
<svg version="1.1" xmlns="http://www.w3.org/2000/svg" xmlns:xlink="http://www.w3.org/1999/xlink" width="18" height="18" viewBox="0 0 18 18">
<path fill="#444444" d="M16.091 9.234c0.558-0.847 0.886-1.875 0.886-2.984 0-2.899-2.233-5.25-4.989-5.25-2.391 0-4.386 1.771-4.873 4.134-0.356-0.085-0.724-0.134-1.104-0.134-2.755 0-4.989 2.351-4.989 5.25 0 1.109 0.328 2.136 0.886 2.984l-0.909 3.766 4.802-1.511c0.070 0.003 0.139 0.011 0.209 0.011 2.391 0 4.386-1.771 4.873-4.134 0.356 0.085 0.724 0.134 1.105 0.134 0.071 0 0.14-0.008 0.209-0.011l4.802 1.511-0.909-3.766zM8.991 10.439c0 0 0 0 0 0.001-0.017 0.317-0.075 0.621-0.17 0.907-0 0.002-0.001 0.003-0.001 0.005-0.031 0.093-0.065 0.184-0.104 0.272-0.002 0.004-0.004 0.009-0.006 0.014-0.037 0.085-0.077 0.168-0.12 0.249-0.005 0.010-0.011 0.019-0.017 0.029-0.041 0.075-0.084 0.148-0.131 0.218-0.011 0.016-0.022 0.032-0.033 0.048-0.043 0.063-0.087 0.124-0.134 0.184-0.019 0.023-0.038 0.046-0.058 0.069-0.042 0.050-0.083 0.099-0.127 0.145-0.030 0.032-0.063 0.062-0.094 0.093-0.036 0.035-0.071 0.071-0.108 0.104-0.048 0.042-0.098 0.081-0.148 0.12-0.024 0.019-0.047 0.039-0.072 0.057-0.073 0.053-0.149 0.103-0.227 0.149-0.004 0.002-0.007 0.005-0.011 0.007-0.339 0.2-0.718 0.331-1.121 0.375-0.005 0-0.011 0-0.016 0.001-0.083 0.008-0.168 0.015-0.254 0.016l-0.013-0.001c-0.001 0-0.001-0-0.002-0-0.007 0-0.015 0.001-0.022 0.001-0.106 0-0.212-0.006-0.315-0.018l-0.147-0.007-1.763 0.555 0.079-0.327 0.204-0.844-0.303-0.46c-0.468-0.573-0.754-1.324-0.754-2.149 0-1.795 1.343-3.25 3-3.25 0.002 0 0.004 0 0.006 0s0.003-0 0.005-0c0.099 0 0.197 0.006 0.293 0.017 0.009 0.001 0.019 0.003 0.027 0.004 0.086 0.010 0.171 0.024 0.254 0.042 0.045 0.010 0.088 0.023 0.132 0.034s0.091 0.023 0.136 0.038c0.055 0.018 0.108 0.039 0.162 0.060 0.024 0.009 0.049 0.017 0.073 0.027 0 0.001 0 0.001 0 0.002 1.118 0.473 1.911 1.647 1.911 3.026 0 0.064-0.006 0.126-0.009 0.189v0zM14.421 8.134l-0.478 0.725 0.283 1.171-1.763-0.555-0.352 0.015c-0.046 0.002-0.091 0.005-0.136 0.008l-0.013 0.001c-0.371-0.004-0.724-0.084-1.051-0.222-0.233-1.31-0.93-2.445-1.902-3.217 0.091-1.704 1.391-3.061 2.98-3.061 1.648 0 2.989 1.458 2.989 3.25-0 0.679-0.192 1.33-0.557 1.884z"></path>
</svg>
