<?xml version="1.0" encoding="utf-8"?>
<!-- Generated by IcoMoon.io -->
<!DOCTYPE svg PUBLIC "-//W3C//DTD SVG 1.1//EN" "http://www.w3.org/Graphics/SVG/1.1/DTD/svg11.dtd">
<svg version="1.1" xmlns="http://www.w3.org/2000/svg" xmlns:xlink="http://www.w3.org/1999/xlink" width="32" height="32" viewBox="0 0 32 32">
<path fill="#444444" d="M4 22h4v-2h-4v2zM10 22h4v-2h-4v2zM12 16h-8v2h8v-2zM8 14h2l4-4h-2l-4 4zM14 18h6v-2h-6v2zM30 6c-1 0-27 0-28 0s-2 1-2 2 0 15 0 16 1 2 2 2 27 0 28 0 2-1 2-2 0-15 0-16-1-2-2-2zM30 14v9s0 1-1 1h-26c-1 0-1-1-1-1v-9h2l4-4h-6v-1s0-1 1-1h26c1 0 1 1 1 1v1h-12l-4 4h16z"></path>
</svg>
