<?xml version="1.0" encoding="UTF-8"?>
<!DOCTYPE svg PUBLIC "-//W3C//DTD SVG 1.1//EN" "http://www.w3.org/Graphics/SVG/1.1/DTD/svg11.dtd">
<!-- Creator: CorelDRAW X8 -->
<svg xmlns="http://www.w3.org/2000/svg" xml:space="preserve" width="3.52504in" height="3.52504in" version="1.1" style="shape-rendering:geometricPrecision; text-rendering:geometricPrecision; image-rendering:optimizeQuality; fill-rule:evenodd; clip-rule:evenodd"
viewBox="0 0 824 824"
 xmlns:xlink="http://www.w3.org/1999/xlink">
 <defs>
  <style type="text/css">
   <![CDATA[
    .fil0 {fill:black}
   ]]>
  </style>
 </defs>
 <g id="Layer_x0020_1">
  <metadata id="CorelCorpID_0Corel-Layer"/>
  <g id="_133444948128">
   <path class="fil0" d="M55 422c-2,-11 5,-69 7,-82 10,-46 29,-87 53,-125 5,-9 13,-18 19,-26 4,-6 6,-7 11,-12l21 -23c5,-5 7,-6 12,-10l38 -30c35,-21 66,-37 108,-47 23,-6 77,-15 99,-11 17,2 25,-1 60,6 47,10 88,29 126,53 8,5 17,13 26,19 5,4 6,6 11,11l24 21c50,52 84,123 94,195 5,29 5,55 3,83 -1,12 -4,27 -6,39 -12,62 -36,104 -72,152 -15,20 -30,32 -44,45 -43,43 -124,76 -182,84 -67,10 -128,0 -190,-24 -35,-14 -56,-30 -84,-51 -6,-4 -7,-5 -12,-10l-23 -21c-50,-53 -84,-124 -95,-195 -3,-21 -1,-26 -4,-41zm-55 -24c0,72 10,131 38,188 33,66 75,120 136,163 62,42 143,75 224,75 93,0 148,-15 221,-56 31,-17 59,-40 84,-65 71,-71 121,-174 121,-278 0,-71 -10,-130 -39,-188 -13,-25 -20,-39 -36,-63 -25,-35 -65,-75 -100,-99 -61,-43 -143,-75 -224,-75 -92,0 -147,15 -220,55 -58,33 -117,92 -150,150 -30,54 -55,120 -55,193z"/>
   <path class="fil0" d="M165 244c0,19 11,30 24,30l446 0c12,0 24,-11 24,-30 0,-11 -14,-24 -24,-24l-446 0c-11,0 -24,13 -24,24z"/>
   <path class="fil0" d="M165 408c0,19 11,31 24,31l446 0c12,0 24,-12 24,-31 0,-10 -14,-24 -24,-24l-446 0c-11,0 -24,14 -24,24z"/>
   <path class="fil0" d="M165 573c0,19 11,31 24,31l446 0c12,0 24,-12 24,-31 0,-11 -14,-24 -24,-24l-446 0c-11,0 -24,13 -24,24z"/>
  </g>
 </g>
</svg>
