<?xml version="1.0" encoding="utf-8"?>
<!-- Generated by IcoMoon.io -->
<!DOCTYPE svg PUBLIC "-//W3C//DTD SVG 1.1//EN" "http://www.w3.org/Graphics/SVG/1.1/DTD/svg11.dtd">
<svg version="1.1" xmlns="http://www.w3.org/2000/svg" xmlns:xlink="http://www.w3.org/1999/xlink" width="24" height="24" viewBox="0 0 24 24">
<path fill="#444444" d="M9.004 3v19h11.989v-8h2.996v-11h-14.985zM18.994 20h-7.992v-3h7.992v3zM18.994 16h-7.992v-3h7.992v3zM21.991 12h-10.989v-3h10.989v3zM21.991 8h-10.989v-3h10.989v3zM0.011 22h6.995v-19h-6.995v19zM2.009 5h2.998v3h-2.998v-3zM2.009 9h2.998v3h-2.998v-3zM2.009 13h2.998v3h-2.998v-3zM2.009 17h2.998v3h-2.998v-3z"></path>
</svg>
