<?xml version="1.0" encoding="UTF-8"?>
<!DOCTYPE svg PUBLIC "-//W3C//DTD SVG 1.1//EN" "http://www.w3.org/Graphics/SVG/1.1/DTD/svg11.dtd">
<!-- Creator: CorelDRAW X8 -->
<svg xmlns="http://www.w3.org/2000/svg" xml:space="preserve" width="2.86772in" height="2.86772in" version="1.1" style="shape-rendering:geometricPrecision; text-rendering:geometricPrecision; image-rendering:optimizeQuality; fill-rule:evenodd; clip-rule:evenodd"
viewBox="0 0 2499 2499"
 xmlns:xlink="http://www.w3.org/1999/xlink">
 <defs>
  <style type="text/css">
   <![CDATA[
    .fil0 {fill:black}
   ]]>
  </style>
 </defs>
 <g id="Layer_x0020_1">
  <metadata id="CorelCorpID_0Corel-Layer"/>
  <g id="_133259722656">
   <path class="fil0" d="M234 1279l5 -122c8,-97 40,-219 77,-304 25,-58 57,-114 89,-165l54 -73c63,-84 180,-181 271,-236 114,-68 240,-113 375,-133 38,-6 82,-6 116,-10 20,-3 42,-3 60,0 23,4 38,2 61,3 204,16 383,99 542,220 64,48 136,130 184,196 98,132 160,283 185,450 17,117 13,232 -10,347 -33,167 -104,301 -203,432l-60 67c-12,11 -20,20 -32,32l-67 59c-14,11 -24,17 -37,26 -13,10 -22,18 -37,27l-122 68c-86,43 -190,75 -291,90 -83,12 -156,12 -237,6 -97,-7 -219,-39 -304,-76 -87,-38 -164,-87 -238,-143 -64,-49 -136,-130 -185,-196 -46,-62 -59,-86 -95,-159 -55,-111 -93,-248 -96,-377 0,-22 -3,-19 -5,-29zm962 -1279l122 0c158,8 314,46 460,115 269,130 481,337 607,609 83,179 114,334 114,559 0,323 -155,641 -365,851 -99,99 -224,188 -359,251 -180,83 -334,114 -560,114 -469,0 -908,-307 -1101,-724 -83,-180 -114,-334 -114,-560 0,-323 155,-640 365,-850 223,-223 524,-350 831,-365z"/>
   <path class="fil0" d="M625 1576c0,68 73,142 141,142 58,0 102,-11 140,-61 33,-43 31,-72 31,-144 0,-117 0,-234 0,-352 24,17 582,580 648,646 52,52 70,67 147,67 68,0 142,-74 142,-142 0,-74 -14,-94 -65,-145 -66,-66 -632,-626 -648,-650 116,0 231,0 347,0 74,0 102,3 146,-29 127,-91 47,-283 -78,-283l-951 0 0 951z"/>
  </g>
 </g>
</svg>
