<?xml version="1.0" encoding="utf-8"?>
<!-- Generated by IcoMoon.io -->
<!DOCTYPE svg PUBLIC "-//W3C//DTD SVG 1.1//EN" "http://www.w3.org/Graphics/SVG/1.1/DTD/svg11.dtd">
<svg version="1.1" xmlns="http://www.w3.org/2000/svg" xmlns:xlink="http://www.w3.org/1999/xlink" width="48" height="48" viewBox="0 0 48 48">
<path fill="#444444" d="M15 29.93c-1.2-0.59-2.56-0.93-4-0.93-4.97 0-9 4.030-9 9 0 4.971 4.030 9 9 9s9-4.029 9-9v-20c0-1.1 0.9-2 2-2h17c1.1 0 2 0.9 2 2v11.93c-1.2-0.59-2.561-0.93-4-0.93-4.971 0-9 4.030-9 9 0 4.971 4.029 9 9 9s9-4.029 9-9v-33.8c0-1.22-0.98-2.2-2.2-2.2h-26.6c-1.22 0-2.2 0.98-2.2 2.2v25.73z"></path>
</svg>
