<?xml version="1.0" encoding="utf-8"?>
<!-- Generated by IcoMoon.io -->
<!DOCTYPE svg PUBLIC "-//W3C//DTD SVG 1.1//EN" "http://www.w3.org/Graphics/SVG/1.1/DTD/svg11.dtd">
<svg version="1.1" xmlns="http://www.w3.org/2000/svg" xmlns:xlink="http://www.w3.org/1999/xlink" width="35" height="32" viewBox="0 0 35 32">
<path fill="#444444" d="M0.812 18.896l2.188-2.189v0.793c0 7.589 6.911 14.5 14.5 14.5s14.5-6.911 14.5-14.5v-0.772l2.209 2.209c0.098 0.098 0.226 0.146 0.354 0.146s0.256-0.049 0.354-0.146c0.195-0.195 0.195-0.512 0-0.707l-3.018-3.018c-0.092-0.125-0.232-0.212-0.399-0.212-0.045 0-0.084 0.014-0.126 0.025-0.092 0.019-0.181 0.054-0.249 0.121l-3.042 3.042c-0.195 0.195-0.195 0.512 0 0.707s0.512 0.195 0.707 0l2.21-2.209v0.814c0 6.898-6.135 13.177-13 13.472v-18.972h8.5c0.276 0 0.5-0.224 0.5-0.5s-0.224-0.5-0.5-0.5h-8.5v-4.051c1.692-0.245 3-1.691 3-3.449 0-1.93-1.57-3.5-3.5-3.5s-3.5 1.57-3.5 3.5c0 1.758 1.308 3.204 3 3.449v4.051h-8.5c-0.276 0-0.5 0.224-0.5 0.5s0.224 0.5 0.5 0.5h8.5v18.972c-6.865-0.295-13-6.574-13-13.472v-0.793l2.23 2.23c0.098 0.098 0.226 0.146 0.354 0.146s0.256-0.049 0.354-0.146c0.195-0.195 0.195-0.512 0-0.707l-3.083-3.082c-0.091-0.092-0.217-0.148-0.355-0.148s-0.264 0.056-0.354 0.147l-3.041 3.041c-0.195 0.195-0.195 0.512 0 0.707s0.512 0.196 0.707 0.001zM17.5 1c1.378 0 2.5 1.121 2.5 2.5s-1.122 2.5-2.5 2.5-2.5-1.121-2.5-2.5 1.122-2.5 2.5-2.5z"></path>
</svg>
