<?xml version="1.0" encoding="utf-8"?>
<!-- Generated by IcoMoon.io -->
<!DOCTYPE svg PUBLIC "-//W3C//DTD SVG 1.1//EN" "http://www.w3.org/Graphics/SVG/1.1/DTD/svg11.dtd">
<svg version="1.1" xmlns="http://www.w3.org/2000/svg" xmlns:xlink="http://www.w3.org/1999/xlink" width="24" height="24" viewBox="0 0 24 24">
<path fill="#444444" d="M0 3v18h24v-18h-24zM22 19h-20v-14h20v14zM14.5 12.444c1.103 0 2-0.896 2-2s-0.897-2-2-2-2 0.896-2 2 0.897 2 2 2zM13.5 9.444h2v2h-2v-2zM21 6h-18v12h18v-12zM4 12.965l6.049 1.728-6.049 1.068v-2.796zM20 17h-16v-0.225l16-2.823v3.048zM20 12.952l-8 1.492-8-2.479v-4.965h16v5.952z"></path>
</svg>
