<?xml version="1.0" encoding="utf-8"?>
<!-- Generated by IcoMoon.io -->
<!DOCTYPE svg PUBLIC "-//W3C//DTD SVG 1.1//EN" "http://www.w3.org/Graphics/SVG/1.1/DTD/svg11.dtd">
<svg version="1.1" xmlns="http://www.w3.org/2000/svg" xmlns:xlink="http://www.w3.org/1999/xlink" width="32" height="32" viewBox="0 0 32 32">
<path fill="#444444" d="M28 8h-5.938c0 0-0.062-0.119-0.062-1.5s-1.119-2.5-2.5-2.5h-8c-1.381 0-2.5 1.119-2.5 2.5s0.062 1.5 0.062 1.5h-6.062c-1.104 0-2 0.896-2 2v16c0 1.104 0.896 2 2 2h25c1.104 0 2-0.896 2-2v-16c0-1.104-0.896-2-2-2zM15.545 23.973c-3.314 0-6-2.686-6-6s2.686-6 6-6c3.313 0 6 2.686 6 6s-2.687 6-6 6z"></path>
</svg>
