<?xml version="1.0" encoding="UTF-8"?>
<!DOCTYPE svg PUBLIC "-//W3C//DTD SVG 1.1//EN" "http://www.w3.org/Graphics/SVG/1.1/DTD/svg11.dtd">
<!-- Creator: CorelDRAW X8 -->
<svg xmlns="http://www.w3.org/2000/svg" xml:space="preserve" width="2.75136in" height="1.53762in" version="1.1" style="shape-rendering:geometricPrecision; text-rendering:geometricPrecision; image-rendering:optimizeQuality; fill-rule:evenodd; clip-rule:evenodd"
viewBox="0 0 834 466"
 xmlns:xlink="http://www.w3.org/1999/xlink">
 <defs>
  <style type="text/css">
   <![CDATA[
    .fil0 {fill:black}
   ]]>
  </style>
 </defs>
 <g id="Layer_x0020_1">
  <metadata id="CorelCorpID_0Corel-Layer"/>
  <g id="_133259713440">
   <path class="fil0" d="M474 287c-5,-1 -10,-3 -10,-9l0 -231c0,-13 16,-13 16,0 0,26 3,227 -1,235l-5 5zm-77 0c-4,-1 -9,-3 -9,-9l0 -231c0,-13 16,-13 16,0 0,26 2,227 -2,235l-4 4c0,0 0,0 -1,1zm-76 0c-5,-1 -10,-3 -10,-9l0 -231c0,-13 16,-13 16,0 0,26 3,227 -1,235 -1,2 -1,1 -3,2l-1 2c0,0 -1,0 -1,1zm-77 0c-4,-1 -10,-3 -10,-9l0 -231c0,-13 17,-13 17,0 0,26 2,227 -2,235l-4 4c0,0 0,0 -1,1zm-76 0c-5,-1 -10,-3 -10,-9l0 -231c0,-13 16,-13 16,0 0,26 3,227 -1,235l-5 5zm-87 -12l0 -228c0,-13 17,-13 17,0l0 228c0,8 -3,9 -8,12 -5,-3 -9,-4 -9,-12zm-58 -247l0 283c0,5 7,10 13,10l482 0c6,0 9,-2 13,-3 1,-4 1,-4 1,-9l0 -285c0,-11 -13,-24 -24,-24l-461 0c-12,0 -24,15 -24,28z"/>
   <path class="fil0" d="M602 179l0 -54c0,-6 2,-14 9,-14 90,0 72,-7 91,18l28 40c6,9 12,11 6,23 -13,3 -117,3 -130,0 -2,-4 -4,-7 -4,-13zm232 179l0 28c-1,6 -3,10 -8,10l-75 0c-6,0 -5,-7 -7,-13 -1,-3 -4,-9 -5,-13 -5,-8 -10,-13 -16,-20 -34,-33 -111,-31 -129,46l-275 0c-2,-29 -22,-41 -24,-49l264 0 0 -262c0,-13 5,-26 17,-26l98 0c9,0 22,4 28,7 23,12 35,35 50,56 17,26 49,66 49,91l0 134c15,0 33,-3 33,11z"/>
   <path class="fil0" d="M244 436c-13,0 -29,-11 -29,-24l0 -10c0,-29 57,-35 57,5 0,17 -15,29 -28,29zm-60 -34c0,36 24,64 52,64 21,0 33,-1 50,-19 35,-35 9,-99 -38,-99 -19,0 -33,2 -47,17 -7,7 -17,24 -17,37z"/>
   <path class="fil0" d="M127 407c0,21 -23,37 -44,25 -5,-3 -8,-7 -11,-12 -2,-5 -4,-11 -3,-17 4,-20 22,-29 39,-23 11,5 19,16 19,27zm-88 -6c0,18 1,33 17,48 22,23 61,23 84,0 35,-35 10,-101 -37,-101 -19,0 -32,3 -46,16 -8,7 -18,24 -18,37z"/>
   <path class="fil0" d="M671 436c-39,0 -39,-58 0,-58 25,0 38,31 20,49 -3,4 -14,9 -20,9zm-7 30c27,0 38,-4 54,-24 18,-22 14,-57 -5,-77 -34,-33 -99,-16 -102,41 -1,31 28,60 53,60z"/>
   <path class="fil0" d="M0 387c1,2 2,4 5,9l16 0c13,-57 53,-49 -5,-49 -9,0 -16,2 -16,11l0 29z"/>
   <path class="fil0" d="M169 379c6,-4 3,-5 11,-17 4,-6 10,-8 12,-15l-42 0c1,5 5,7 11,15 3,5 7,11 8,17z"/>
  </g>
 </g>
</svg>
