<?xml version="1.0" encoding="utf-8"?>
<!-- Generated by IcoMoon.io -->
<!DOCTYPE svg PUBLIC "-//W3C//DTD SVG 1.1//EN" "http://www.w3.org/Graphics/SVG/1.1/DTD/svg11.dtd">
<svg version="1.1" xmlns="http://www.w3.org/2000/svg" xmlns:xlink="http://www.w3.org/1999/xlink" width="32" height="32" viewBox="0 0 32 32">
<path fill="#444444" d="M28.002 16.003c0-6.628-5.372-12.002-12.002-12.002-6.628 0-12.002 5.374-12.002 12.002 0 4.168 2.125 7.839 5.351 9.991l-3.343 3.341 2.661 2.665 4.365-4.365c0.949 0.242 1.944 0.37 2.968 0.37s2.019-0.129 2.968-0.37l4.365 4.365 2.661-2.665-3.342-3.341c3.226-2.152 5.351-5.823 5.351-9.991zM16 24.004c-4.419 0-8.001-3.583-8.001-8.001s3.583-8.001 8.001-8.001 8.001 3.583 8.001 8.001c0 4.419-3.583 8.001-8.001 8.001zM28.002 0c-2.209 0-4.001 1.791-4.001 4.001 0 0.182 0.013 0.361 0.037 0.536 1.332 0.935 2.493 2.096 3.428 3.428 0.175 0.024 0.354 0.037 0.536 0.037 2.209 0 4.001-1.791 4.001-4.001s-1.791-4.001-4.001-4.001zM4.534 7.965c0.935-1.332 2.096-2.493 3.428-3.428 0.024-0.175 0.037-0.354 0.037-0.536 0-2.209-1.791-4.001-4.001-4.001s-4.001 1.791-4.001 4.001c0 2.209 1.791 4.001 4.001 4.001 0.182-0 0.36-0.013 0.536-0.037zM18 14.003v-4.001h-4.001v8.002h6.001v-4.001z"></path>
</svg>
