<?xml version="1.0" encoding="utf-8"?>
<!-- Generated by IcoMoon.io -->
<!DOCTYPE svg PUBLIC "-//W3C//DTD SVG 1.1//EN" "http://www.w3.org/Graphics/SVG/1.1/DTD/svg11.dtd">
<svg version="1.1" xmlns="http://www.w3.org/2000/svg" xmlns:xlink="http://www.w3.org/1999/xlink" width="24" height="24" viewBox="0 0 24 24">
<path fill="#444444" d="M14.463 9.141c-0.512 0-0.988 0.238-1.43 0.715-0.311 0.312-0.5 0.678-0.566 1.101 0.207-0.131 0.387-0.196 0.541-0.196 0.159 0 0.29 0.070 0.393 0.212 0.199 0.278 0.188 0.629-0.033 1.051-0.489 0.934-0.846 1.4-1.066 1.4-0.156 0-0.356-0.522-0.602-1.567-0.043-0.155-0.088-0.378-0.133-0.667-0.045-0.288-0.088-0.538-0.133-0.75s-0.111-0.428-0.2-0.649-0.2-0.384-0.333-0.483c-0.094-0.069-0.202-0.104-0.327-0.104-0.055 0-0.112 0.007-0.173 0.021-0.289 0.067-0.623 0.245-1 0.534-0.379 0.288-0.689 0.566-0.934 0.833l-0.334 0.4 0.301 0.399c0.045-0.044 0.1-0.089 0.166-0.133s0.189-0.101 0.367-0.167c0.076-0.028 0.141-0.043 0.191-0.043 0.069 0 0.116 0.025 0.143 0.076 0.066 0.089 0.271 0.717 0.615 1.884 0.346 1.167 0.562 1.839 0.65 2.017 0.156 0.311 0.367 0.55 0.633 0.717 0.13 0.080 0.271 0.121 0.427 0.121 0.165 0 0.346-0.047 0.54-0.139 0.601-0.399 1.289-1.066 2.067-2s1.255-1.922 1.433-2.966c0.156-0.911-0.11-1.434-0.799-1.567-0.138-0.035-0.272-0.050-0.404-0.050z"></path>
<path fill="#444444" d="M12 21c-4.963 0-9-4.037-9-9s4.037-9 9-9 9 4.037 9 9-4.037 9-9 9zM12 5c-3.859 0-7 3.141-7 7s3.141 7 7 7 7-3.141 7-7-3.141-7-7-7z"></path>
</svg>
