<?xml version="1.0" encoding="utf-8"?>
<!-- Generated by IcoMoon.io -->
<!DOCTYPE svg PUBLIC "-//W3C//DTD SVG 1.1//EN" "http://www.w3.org/Graphics/SVG/1.1/DTD/svg11.dtd">
<svg version="1.1" xmlns="http://www.w3.org/2000/svg" xmlns:xlink="http://www.w3.org/1999/xlink" width="32" height="32" viewBox="0 0 32 32">
<path fill="#444444" d="M23 20c-0.553 0-1-0.448-1-1v-6c0-0.553 0.447-1 1-1 0.552 0 1 0.447 1 1v6c0 0.552-0.448 1-1 1zM19.998 7.209c0.998 1.722 1.002 3.791 1.002 3.791h-10c0 0-0.039-2.096 0.969-3.824l-1.883-1.883c-0.195-0.195-0.195-0.512 0-0.707s0.512-0.195 0.707 0l1.766 1.766c0.74-0.819 1.831-1.414 3.441-1.414 1.59 0 2.671 0.611 3.41 1.444l1.797-1.796c0.195-0.195 0.512-0.195 0.707 0s0.195 0.512 0 0.707l-1.916 1.916zM13.5 8c-0.276 0-0.5 0.224-0.5 0.5s0.224 0.5 0.5 0.5c0.275 0 0.5-0.224 0.5-0.5s-0.225-0.5-0.5-0.5zM18.5 8c-0.276 0-0.5 0.224-0.5 0.5s0.224 0.5 0.5 0.5c0.275 0 0.5-0.224 0.5-0.5s-0.225-0.5-0.5-0.5zM10 19c0 0.552-0.448 1-1 1-0.553 0-1-0.448-1-1v-6c0-0.553 0.447-1 1-1 0.552 0 1 0.447 1 1v6zM21 21c0 1.305-0.838 2.402-2 2.816v3.184c0 0.552-0.448 1-1 1-0.553 0-1-0.448-1-1v-3h-2v3c0 0.552-0.448 1-1 1-0.553 0-1-0.448-1-1v-3.184c-1.163-0.414-2-1.512-2-2.816v-9h10v9z"></path>
</svg>
