<?xml version="1.0" encoding="UTF-8"?>
<!DOCTYPE svg PUBLIC "-//W3C//DTD SVG 1.1//EN" "http://www.w3.org/Graphics/SVG/1.1/DTD/svg11.dtd">
<!-- Creator: CorelDRAW X8 -->
<svg xmlns="http://www.w3.org/2000/svg" xml:space="preserve" width="3.8668in" height="1.96361in" version="1.1" style="shape-rendering:geometricPrecision; text-rendering:geometricPrecision; image-rendering:optimizeQuality; fill-rule:evenodd; clip-rule:evenodd"
viewBox="0 0 6841 3474"
 xmlns:xlink="http://www.w3.org/1999/xlink">
 <defs>
  <style type="text/css">
   <![CDATA[
    .fil0 {fill:black}
   ]]>
  </style>
 </defs>
 <g id="Layer_x0020_1">
  <metadata id="CorelCorpID_0Corel-Layer"/>
  <path class="fil0" d="M1136 2178c0,-243 86,-452 194,-594 75,-98 103,-127 197,-204 40,-32 76,-57 116,-84 35,-23 84,-63 134,-67 15,65 445,906 468,1002l-674 169c-476,119 -403,125 -420,-24 -8,-74 -15,-117 -15,-198zm133 -2018l268 575c-224,52 -607,298 -797,446 -393,310 -740,864 -740,1371 0,235 5,341 78,563 22,64 45,120 73,181l90 178c65,-1 145,-31 206,-48l3000 -820c-14,-62 -66,-132 -102,-205 -22,-45 -36,-67 -57,-103l-723 -1336c634,-148 1456,-140 2045,93 178,71 592,308 681,442l-1082 267c-92,-175 -286,-460 -403,-652 -67,-110 -14,-83 -359,-83 -133,0 -352,27 -488,46 -147,19 -148,-28 30,292l659 1185 2985 -823c76,-19 138,-42 208,-59 -21,-92 -153,-254 -217,-317 -167,-167 -425,-324 -638,-431 -373,-187 -781,-307 -1210,-393 -604,-121 -765,-115 -1355,-115 -186,0 -395,10 -567,35 -109,15 -470,44 -529,72 -15,-56 -104,-197 -134,-254 -24,-46 -41,-85 -69,-131 -26,-43 -52,-84 -64,-136 -160,0 -437,65 -599,110 -47,13 -137,46 -190,50z"/>
 </g>
</svg>
