<?xml version="1.0" encoding="utf-8"?>
<!-- Generated by IcoMoon.io -->
<!DOCTYPE svg PUBLIC "-//W3C//DTD SVG 1.1//EN" "http://www.w3.org/Graphics/SVG/1.1/DTD/svg11.dtd">
<svg version="1.1" xmlns="http://www.w3.org/2000/svg" xmlns:xlink="http://www.w3.org/1999/xlink" width="24" height="24" viewBox="0 0 24 24">
<path fill="#444444" d="M16.266 17.531l-9.797-9.797q-1.453 1.922-1.453 4.266 0 2.906 2.039 4.945t4.945 2.039q2.344 0 4.266-1.453zM3 4.266l1.266-1.266 16.734 16.734-1.266 1.266-2.063-2.063q-2.109 1.734-4.688 2.016v2.063h-1.969v-2.063q-3.141-0.328-5.391-2.578t-2.578-5.391h-2.063v-1.969h2.063q0.281-2.578 2.016-4.688zM20.953 11.016h2.063v1.969h-2.063q-0.234 1.828-0.984 3.188l-1.5-1.5q0.516-1.266 0.516-2.672 0-2.906-2.039-4.945t-4.945-2.039q-1.406 0-2.672 0.516l-1.5-1.5q1.453-0.75 3.188-0.984v-2.063h1.969v2.063q3.141 0.328 5.391 2.578t2.578 5.391z"></path>
</svg>
