<?xml version="1.0" encoding="utf-8"?>
<!-- Generated by IcoMoon.io -->
<!DOCTYPE svg PUBLIC "-//W3C//DTD SVG 1.1//EN" "http://www.w3.org/Graphics/SVG/1.1/DTD/svg11.dtd">
<svg version="1.1" xmlns="http://www.w3.org/2000/svg" xmlns:xlink="http://www.w3.org/1999/xlink" width="48" height="48" viewBox="0 0 48 48">
<path fill="#444444" d="M4 28.5c0 10.77 8.73 19.5 19.5 19.5s19.5-8.73 19.5-19.5c0-8.75-5.76-16.15-13.7-18.62l-0.010-0.010c-0.761-0.29-1.29-1.020-1.29-1.87 0-1.1 0.9-2 2-2h0.5c1.38 0 2.5-1.12 2.5-2.5s-1.12-2.5-2.5-2.5h-14c-1.38 0-2.5 1.12-2.5 2.5s1.12 2.5 2.5 2.5h0.5c1.1 0 2 0.9 2 2 0 0.87-0.56 1.61-1.33 1.891-1.84 0.569-3.56 1.409-5.13 2.47l-1.84-1.841c-0.69-0.689-1.83-0.689-2.521 0l-2.66 2.661c-0.69 0.689-0.69 1.829 0 2.52l1.84 1.84c-2.119 3.129-3.359 6.898-3.359 10.959zM21 16.5c0-1.38 1.12-2.5 2.5-2.5s2.5 1.12 2.5 2.5-1.12 2.5-2.5 2.5-2.5-1.12-2.5-2.5zM9 28.5c0-1.38 1.12-2.5 2.5-2.5s2.5 1.12 2.5 2.5-1.12 2.5-2.5 2.5-2.5-1.12-2.5-2.5zM33 28.5c0-1.38 1.12-2.5 2.5-2.5s2.5 1.12 2.5 2.5-1.12 2.5-2.5 2.5-2.5-1.12-2.5-2.5zM21 40.5c0-1.38 1.12-2.5 2.5-2.5s2.5 1.12 2.5 2.5-1.12 2.5-2.5 2.5-2.5-1.12-2.5-2.5zM33.43 21.32l-8.109 8.11c-0.76 0.759-1.99 0.759-2.75 0-0.76-0.761-0.76-1.991 0-2.75l8.11-8.11c0.76-0.76 1.99-0.76 2.75 0s0.758 1.991-0.001 2.75z"></path>
</svg>
