<?xml version="1.0" encoding="utf-8"?>
<!-- Generated by IcoMoon.io -->
<!DOCTYPE svg PUBLIC "-//W3C//DTD SVG 1.1//EN" "http://www.w3.org/Graphics/SVG/1.1/DTD/svg11.dtd">
<svg version="1.1" xmlns="http://www.w3.org/2000/svg" xmlns:xlink="http://www.w3.org/1999/xlink" width="24" height="24" viewBox="0 0 24 24">
<path fill="#444444" d="M10.033 15.3h-1.6v-5.199h1.6v5.199zM9.233 9.434c-0.577 0-0.866-0.267-0.866-0.8 0-0.223 0.082-0.412 0.25-0.567 0.166-0.155 0.371-0.233 0.616-0.233 0.577 0 0.866 0.268 0.866 0.801s-0.288 0.799-0.866 0.799zM15.967 15.3h-1.633v-2.9c0-0.755-0.268-1.133-0.801-1.133-0.422 0-0.699 0.211-0.834 0.633-0.043 0.067-0.066 0.201-0.066 0.4v3h-1.633v-3.533c0-0.8-0.012-1.355-0.033-1.666h1.4l0.1 0.699c0.367-0.556 0.9-0.833 1.633-0.833 0.557 0 1.006 0.194 1.35 0.583 0.346 0.389 0.518 0.95 0.518 1.684v3.066z"></path>
<path fill="#444444" d="M12 21c-4.963 0-9-4.037-9-9s4.037-9 9-9 9 4.037 9 9-4.037 9-9 9zM12 5c-3.859 0-7 3.141-7 7s3.141 7 7 7 7-3.141 7-7-3.141-7-7-7z"></path>
</svg>
