<?xml version="1.0" encoding="utf-8"?>
<!-- Generated by IcoMoon.io -->
<!DOCTYPE svg PUBLIC "-//W3C//DTD SVG 1.1//EN" "http://www.w3.org/Graphics/SVG/1.1/DTD/svg11.dtd">
<svg version="1.1" xmlns="http://www.w3.org/2000/svg" xmlns:xlink="http://www.w3.org/1999/xlink" width="32" height="32" viewBox="0 0 32 32">
<path fill="#444444" d="M30.967 11.856c-0.179-3.894-1.738-7.779-4.768-10.753-3.035-2.978-7.001-4.509-10.975-4.68l-0.219-2.213c4.597 0.275 9.072 2.061 12.595 5.517 3.53 3.465 5.371 7.849 5.646 12.37l-2.279-0.241zM27.975 12.334l-2.194-0.303c0.036-2.702-0.974-5.438-3.075-7.5-2.060-2.021-4.779-3.014-7.479-3.020l-0.396-2.171c3.344 0.081 6.685 1.352 9.237 3.855 2.596 2.552 3.87 5.797 3.907 9.139zM22.682 12.204l-1.947-0.539c0.229-1.378-0.506-2.582-1.589-3.646-0.983-0.965-2.304-1.398-3.589-1.302l-0.753-2.16c2.054-0.133 4.152 0.571 5.722 2.112 1.548 1.52 2.267 3.546 2.156 5.535zM18.556 11.009c0 1.401-1.157 2.537-2.585 2.537-0.493 0-0.949-0.143-1.341-0.378l-1.111 1.092 8.040 7.806c-0.197 0.232-0.403 0.465-0.641 0.698-4.508 4.424-11.817 4.424-16.326 0-4.509-4.426-4.509-11.599 0-16.023 0.206-0.204 0.412-0.375 0.618-0.548l7.573 7.353 1.087-1.067c-0.303-0.415-0.485-0.92-0.485-1.47 0-1.401 1.158-2.537 2.586-2.537s2.585 1.135 2.585 2.537zM8.69 26.148c-0.095 0 2.627 5.852 2.627 5.852h-11.317l3.904-9.041c0 0 1.185 1.727 4.786 3.189z"></path>
</svg>
