<?xml version="1.0" encoding="utf-8"?>
<!-- Generated by IcoMoon.io -->
<!DOCTYPE svg PUBLIC "-//W3C//DTD SVG 1.1//EN" "http://www.w3.org/Graphics/SVG/1.1/DTD/svg11.dtd">
<svg version="1.1" xmlns="http://www.w3.org/2000/svg" xmlns:xlink="http://www.w3.org/1999/xlink" width="48" height="48" viewBox="0 0 48 48">
<path fill="#444444" d="M37 36.42c0.93 0.37 1.939 0.58 3 0.58 4.42 0 8-3.58 8-8v-15c0-4.42-3.58-8-8-8-1.061 0-2.070 0.21-3 0.58v-2.58c0-2.21-1.79-4-4-4h-29c-2.21 0-4 1.79-4 4v33.85c0 5.61 4.54 10.15 10.15 10.15h16.7c5.61 0 10.15-4.54 10.15-10.15v-1.43zM9 7v29c0 1.1-0.9 2-2 2s-2-0.9-2-2l-0-29c0-1.1 0.9-2 2-2s2 0.9 2 2zM43 29c0 1.66-1.34 3-3 3s-3-1.34-3-3v-15c0-1.66 1.34-3 3-3s3 1.34 3 3v15z"></path>
</svg>
