<?xml version="1.0" encoding="UTF-8"?>
<!DOCTYPE svg PUBLIC "-//W3C//DTD SVG 1.1//EN" "http://www.w3.org/Graphics/SVG/1.1/DTD/svg11.dtd">
<!-- Creator: CorelDRAW X8 -->
<svg xmlns="http://www.w3.org/2000/svg" xml:space="preserve" width="1.86917in" height="1.70999in" version="1.1" style="shape-rendering:geometricPrecision; text-rendering:geometricPrecision; image-rendering:optimizeQuality; fill-rule:evenodd; clip-rule:evenodd"
viewBox="0 0 508 465"
 xmlns:xlink="http://www.w3.org/1999/xlink">
 <defs>
  <style type="text/css">
   <![CDATA[
    .fil0 {fill:black}
   ]]>
  </style>
 </defs>
 <g id="Layer_x0020_1">
  <metadata id="CorelCorpID_0Corel-Layer"/>
  <path class="fil0" d="M138 66c0,38 28,67 61,69 0,6 14,71 15,74 -13,3 -27,16 -34,26l-48 -24c-1,-37 -53,-38 -53,-1 0,8 3,14 8,18 3,3 3,4 7,5 12,5 17,3 27,-4l50 25c0,5 -6,25 2,40 -23,15 -45,31 -67,46 -14,-3 -9,-10 -43,-10 -33,0 -63,33 -63,62 0,16 0,21 7,36 25,50 97,49 122,0 5,-12 6,-22 6,-35 0,-7 -2,-9 -2,-15l56 -57c8,5 19,17 37,18l2 32c-65,35 -2,119 48,74 17,-15 19,-44 2,-62 -7,-7 -16,-14 -29,-14 0,-12 -1,-18 -1,-30 14,0 34,-13 39,-22 9,4 14,8 22,14l64 42c0,32 10,52 34,67 30,17 73,7 93,-28 24,-39 -5,-100 -59,-100 -40,0 -41,23 -53,17l-51 -25c-8,-4 -27,-15 -34,-17 9,-18 -8,-50 -9,-54 4,-1 12,-8 15,-11 4,2 8,3 12,5 35,11 63,-20 63,-43 0,-15 -3,-31 -16,-40 -43,-35 -94,7 -79,52 2,6 4,7 5,12 -6,3 -10,8 -16,11 -4,-6 -23,-14 -34,-14l-5 -38c-1,-7 -1,-11 -2,-19 -1,-4 -2,-14 -2,-19 67,-36 40,-129 -31,-129 -35,0 -66,31 -66,66z"/>
 </g>
</svg>
