<?xml version="1.0" encoding="utf-8"?>
<!-- Generated by IcoMoon.io -->
<!DOCTYPE svg PUBLIC "-//W3C//DTD SVG 1.1//EN" "http://www.w3.org/Graphics/SVG/1.1/DTD/svg11.dtd">
<svg version="1.1" xmlns="http://www.w3.org/2000/svg" xmlns:xlink="http://www.w3.org/1999/xlink" width="32" height="32" viewBox="0 0 32 32">
<path fill="#444444" d="M16.033 30.004c0 0-11.037-6.833-11.037-12.339 0-3.053 1.745-6.071 5.042-6.538v-2.145c0-3.307 2.687-5.986 6-5.986 3.314 0 6 2.68 6 5.986v2.146c3.182 0.475 4.967 3.434 4.967 6.536-0.001 5.574-10.972 12.34-10.972 12.34zM14.475 23.947h3.062l-1.298-3.47c0.728-0.102 1.298-0.701 1.298-1.456 0-0.826-0.672-1.497-1.5-1.497s-1.5 0.671-1.5 1.497c0 0.718 0.518 1.29 1.194 1.435l-1.256 3.491zM20.037 8.982c0-2.204-1.791-3.991-4-3.991s-4 1.787-4 3.991v2.182c2.75 0.607 3.995 3.26 3.995 3.26s1.11-2.684 4.004-3.267v-2.175z"></path>
</svg>
