<?xml version="1.0" encoding="utf-8"?>
<!-- Generated by IcoMoon.io -->
<!DOCTYPE svg PUBLIC "-//W3C//DTD SVG 1.1//EN" "http://www.w3.org/Graphics/SVG/1.1/DTD/svg11.dtd">
<svg version="1.1" xmlns="http://www.w3.org/2000/svg" xmlns:xlink="http://www.w3.org/1999/xlink" width="18" height="18" viewBox="0 0 18 18">
<path fill="#444444" d="M9.587 6.056c-0.199-0.038-0.396-0.056-0.587-0.056-1.851 0-3.31 1.672-2.947 3.587 0.223 1.174 1.184 2.135 2.359 2.357 0.199 0.038 0.395 0.056 0.587 0.056 1.851 0 3.31-1.672 2.947-3.587-0.223-1.174-1.184-2.135-2.359-2.357zM9.771 9.637c-0.191 0.231-0.473 0.363-0.772 0.363-0.070 0-0.143-0.007-0.215-0.021-0.367-0.069-0.695-0.398-0.765-0.764-0.077-0.404 0.071-0.687 0.208-0.852 0.191-0.231 0.473-0.363 0.772-0.363 0.070 0 0.142 0.007 0.215 0.021 0.367 0.069 0.696 0.398 0.765 0.764 0.077 0.404-0.071 0.687-0.208 0.852z"></path>
<path fill="#444444" d="M17.011 10h-2.009c-0.551 0-0.997-0.446-0.997-0.996v-0.007c0-0.55 0.446-0.996 0.997-0.996h2.009c0.551 0 0.997 0.446 0.997 0.996v0.007c0 0.55-0.446 0.996-0.997 0.996z"></path>
<path fill="#444444" d="M9.004 14h-0.007c-0.551 0-0.997 0.446-0.997 0.996v2.007c0 0.55 0.446 0.996 0.997 0.996h0.007c0.551 0 0.997-0.446 0.997-0.996v-2.007c-0-0.55-0.446-0.996-0.997-0.996z"></path>
<path fill="#444444" d="M8.996 4h0.007c0.551 0 0.997-0.446 0.997-0.996v-2.007c0-0.55-0.446-0.996-0.997-0.996h-0.007c-0.551 0-0.997 0.446-0.997 0.996v2.007c-0 0.55 0.446 0.996 0.997 0.996z"></path>
<path fill="#444444" d="M3.996 9.004v-0.007c0-0.55-0.447-0.996-0.998-0.996h-2.009c-0.551 0-0.998 0.446-0.998 0.996v0.007c0 0.55 0.447 0.996 0.998 0.996h2.009c0.551 0 0.998-0.446 0.998-0.996z"></path>
<path fill="#444444" d="M14.613 4.724l1.118-1.117c0.368-0.368 0.368-0.964 0-1.332s-0.965-0.368-1.333 0l-1.118 1.117c-0.368 0.368-0.368 0.964 0 1.332s0.965 0.368 1.333 0z"></path>
<path fill="#444444" d="M3.603 2.276c-0.368-0.368-0.965-0.368-1.333 0s-0.368 0.964 0 1.332l1.118 1.117c0.368 0.368 0.964 0.368 1.333 0s0.368-0.964 0-1.332l-1.118-1.117z"></path>
<path fill="#444444" d="M3.388 13.276l-1.118 1.117c-0.368 0.368-0.368 0.964 0 1.332s0.965 0.368 1.333 0l1.118-1.117c0.368-0.368 0.368-0.964 0-1.332s-0.965-0.368-1.333 0z"></path>
<path fill="#444444" d="M14.613 13.276c-0.368-0.368-0.965-0.368-1.333 0s-0.368 0.964 0 1.332l1.118 1.117c0.368 0.368 0.964 0.368 1.333 0s0.368-0.964 0-1.332l-1.118-1.117z"></path>
</svg>
