<?xml version="1.0" encoding="utf-8"?>
<!-- Generated by IcoMoon.io -->
<!DOCTYPE svg PUBLIC "-//W3C//DTD SVG 1.1//EN" "http://www.w3.org/Graphics/SVG/1.1/DTD/svg11.dtd">
<svg version="1.1" xmlns="http://www.w3.org/2000/svg" xmlns:xlink="http://www.w3.org/1999/xlink" width="24" height="24" viewBox="0 0 24 24">
<path fill="#444444" d="M19.602 5.105l1.414 1.414 1.414-1.414-3.535-3.535-1.415 1.414 1.414 1.414-2.122 2.122-4.243-4.243-1.414 1.414 1.414 1.414-10.605 10.607 2.424 2.425-2.778 4.293 4.293-2.777 2.424 2.424 10.608-10.607 1.414 1.414 1.414-1.414-4.243-4.242 2.122-2.123zM17.48 10.056l-2.123 2.121-2.121-2.122-0.707 0.707 2.121 2.122-1.414 1.415-2.121-2.122-0.707 0.707 2.121 2.122-1.414 1.414-2.121-2.122-0.707 0.707 2.121 2.122-2.121 2.121-3.535-3.536 9.191-9.192 3.537 3.536z"></path>
</svg>
