<?xml version="1.0" encoding="utf-8"?>
<!-- Generated by IcoMoon.io -->
<!DOCTYPE svg PUBLIC "-//W3C//DTD SVG 1.1//EN" "http://www.w3.org/Graphics/SVG/1.1/DTD/svg11.dtd">
<svg version="1.1" xmlns="http://www.w3.org/2000/svg" xmlns:xlink="http://www.w3.org/1999/xlink" width="24" height="24" viewBox="0 0 24 24">
<path fill="#444444" d="M18.994 7.187c0.004-0.062 0.006-0.125 0.006-0.187 0-0.801-0.312-1.555-0.879-2.121-0.566-0.567-1.32-0.879-2.121-0.879s-1.555 0.312-2.121 0.879l-2.892 2.891c-0.53-0.473-1.221-0.77-1.987-0.77h-1c-3.859 0-7 3.14-7 7 0 3.306 2.14 6.084 5.006 6.813-0.004 0.062-0.006 0.125-0.006 0.187 0 0.801 0.312 1.555 0.879 2.121 0.566 0.567 1.32 0.879 2.121 0.879s1.555-0.312 2.121-0.879l2.892-2.891c0.53 0.473 1.221 0.77 1.987 0.77h1c3.859 0 7-3.14 7-7 0-3.306-2.14-6.084-5.006-6.813zM17 19h-1c-0.553 0-1-0.448-1-1s0.447-1 1-1h1c1.654 0 3-1.346 3-3s-1.121-3-2.5-3h-2.086l1.293 1.293c0.391 0.391 0.391 1.023 0 1.414-0.195 0.195-0.451 0.293-0.707 0.293s-0.512-0.098-0.707-0.293l-3.707-3.707 3.707-3.707c0.195-0.195 0.451-0.293 0.707-0.293s0.512 0.098 0.707 0.293c0.391 0.391 0.391 1.023 0 1.414l-1.293 1.293h2.086c2.481 0 4.5 2.243 4.5 5s-2.243 5-5 5zM17.749 12.029c0.7 0.164 1.251 1 1.251 1.971 0 1.103-0.897 2-2 2h-1c-0.857 0-1.584 0.544-1.868 1.304-0.011-0.011-3.718-3.718-3.718-3.718-0.378-0.378-0.88-0.586-1.414-0.586s-1.036 0.208-1.414 0.586-0.586 0.88-0.586 1.414c0 0.345 0.087 0.677 0.251 0.971-0.7-0.164-1.251-1-1.251-1.971 0-1.103 0.897-2 2-2h1c0.857 0 1.584-0.544 1.868-1.304 0.011 0.011 3.718 3.718 3.718 3.718 0.378 0.378 0.88 0.586 1.414 0.586s1.036-0.208 1.414-0.586 0.586-0.88 0.586-1.414c0-0.345-0.087-0.677-0.251-0.971zM10 10c0 0.552-0.447 1-1 1h-1c-1.654 0-3 1.346-3 3s1.121 3 2.5 3h2.086l-1.293-1.293c-0.391-0.391-0.391-1.023 0-1.414 0.195-0.195 0.451-0.293 0.707-0.293s0.512 0.098 0.707 0.293l3.707 3.707-3.707 3.707c-0.195 0.195-0.451 0.293-0.707 0.293s-0.512-0.098-0.707-0.293c-0.391-0.391-0.391-1.023 0-1.414l1.293-1.293h-2.086c-2.481 0-4.5-2.243-4.5-5s2.243-5 5-5h1c0.553 0 1 0.448 1 1z"></path>
</svg>
