<?xml version="1.0" encoding="UTF-8"?>
<!DOCTYPE svg PUBLIC "-//W3C//DTD SVG 1.1//EN" "http://www.w3.org/Graphics/SVG/1.1/DTD/svg11.dtd">
<!-- Creator: CorelDRAW X8 -->
<svg xmlns="http://www.w3.org/2000/svg" xml:space="preserve" width="1.2975in" height="1.66195in" version="1.1" style="shape-rendering:geometricPrecision; text-rendering:geometricPrecision; image-rendering:optimizeQuality; fill-rule:evenodd; clip-rule:evenodd"
viewBox="0 0 893 1035"
 xmlns:xlink="http://www.w3.org/1999/xlink">
 <defs>
  <style type="text/css">
   <![CDATA[
    .fil0 {fill:black}
   ]]>
  </style>
 </defs>
 <g id="Layer_x0020_1">
  <metadata id="CorelCorpID_0Corel-Layer"/>
  <g id="_133441738240">
   <path class="fil0" d="M435 872l37 0 0 10 -37 0 0 23 39 0 0 12 -54 0 0 -78 54 0 0 12 -39 0 0 21zm-151 -37l0 0zm454 -266c0,30 47,-5 47,37 0,35 -53,19 -54,19 -6,-3 -7,-12 -8,-21 28,0 6,12 21,12 25,0 24,3 27,-6 7,-20 -25,-17 -28,-17 -34,-6 -14,-38 -14,-39 4,-3 54,-13 54,11l0 6c-33,0 9,-10 -37,-10 -5,0 -8,3 -8,8zm-629 -19l15 0c1,15 14,46 14,64l21 -64 16 0c4,16 16,52 17,64 5,-4 4,-6 6,-14 1,-8 2,-10 4,-17 2,-8 8,-25 8,-33l15 0 -16 59c-5,19 0,18 -22,18 -8,0 -9,-18 -11,-26 -3,-10 -7,-21 -7,-32l-4 0c0,10 -11,44 -15,58l-22 0 -19 -77zm175 285c1,-8 25,-60 30,-72l84 -198c6,-12 12,-16 24,-27l38 -41c18,-17 33,-34 51,-52l37 -39c4,-5 8,-9 13,-14l51 -52 -114 269c-6,14 -25,32 -36,43l-178 183zm141 -505l-13 0 0 -78 25 0 32 66 1 -66 12 0 0 78c-30,0 -21,4 -48,-49 -3,-6 -5,-13 -9,-17l0 66zm-365 251c0,101 27,173 82,247l36 39c24,25 52,44 81,61 15,9 50,23 68,29 27,9 49,14 77,18l91 -2c24,-3 56,-9 77,-17 13,-5 23,-8 34,-14 30,-15 62,-32 88,-54l36 -36c5,-5 8,-7 13,-12 7,-8 14,-18 20,-27 81,-107 94,-269 35,-390 -44,-89 -108,-149 -195,-189 -40,-19 -89,-31 -135,-32 -11,0 -12,-2 -23,-2l-44 4c-40,6 -76,13 -113,31 -21,11 -41,21 -60,34 -22,16 -47,36 -64,56 -14,17 -26,26 -42,53 -38,65 -62,122 -62,203z"/>
   <path class="fil0" d="M441 177c84,0 173,24 240,73 42,31 46,38 80,73 12,13 44,60 52,76 20,43 37,90 42,137 3,28 6,66 2,94 -13,89 -41,164 -102,230 -9,9 -13,16 -25,27l-56 45c-74,47 -142,68 -239,68 -38,0 -94,-11 -127,-24 -13,-6 -24,-9 -36,-15 -23,-12 -44,-23 -64,-38l-79 -73c-23,-26 -44,-67 -58,-96 -6,-11 -10,-24 -14,-36 -10,-29 -20,-76 -20,-108 0,-11 -2,-15 -2,-24 0,-8 2,-12 2,-23 -1,-73 38,-161 82,-221 12,-15 34,-43 49,-54 12,-10 16,-15 42,-35 10,-7 21,-13 31,-20 54,-32 133,-56 200,-56zm10 -43c-66,0 -56,-84 -4,-84 56,0 54,84 4,84zm-97 -41c0,26 10,39 19,56 -7,3 -90,14 -153,56 -12,8 -21,13 -32,21 -29,21 -61,49 -83,77 -49,60 -91,141 -99,219 -1,12 -7,64 -6,73 6,50 0,54 18,115 8,28 17,54 29,78 18,35 31,50 52,80l51 54 45 35c6,4 10,7 16,11 6,3 11,6 17,10 119,66 276,78 401,18 7,-3 11,-4 17,-8 45,-25 36,-17 82,-52 45,-34 93,-97 118,-147 22,-43 46,-116 47,-166 0,-9 -1,-16 0,-24l-1 -50c-10,-98 -43,-170 -101,-245l-25 -27c-19,-20 -35,-33 -58,-50 -88,-66 -174,-72 -187,-78 9,-17 19,-30 19,-56 0,-28 -12,-50 -26,-65 -58,-60 -160,-18 -160,65z"/>
  </g>
 </g>
</svg>
