<?xml version="1.0" encoding="utf-8"?>
<!-- Generated by IcoMoon.io -->
<!DOCTYPE svg PUBLIC "-//W3C//DTD SVG 1.1//EN" "http://www.w3.org/Graphics/SVG/1.1/DTD/svg11.dtd">
<svg version="1.1" xmlns="http://www.w3.org/2000/svg" xmlns:xlink="http://www.w3.org/1999/xlink" width="32" height="32" viewBox="0 0 32 32">
<path fill="#444444" d="M10.681 18.207l-2.209 5.67 5.572-2.307-3.363-3.363zM26.855 6.097l-0.707-0.707c-0.78-0.781-2.047-0.781-2.828 0l-1.414 1.414 3.535 3.536 1.414-1.414c0.782-0.781 0.782-2.048 0-2.829zM10.793 17.918l0.506-0.506 3.535 3.535 9.9-9.9-3.535-3.535 0.707-0.708-11.113 11.114zM23.004 26.004l-17.026 0.006 0.003-17.026 11.921-0.004 1.868-1.98h-14.805c-0.552 0-1 0.447-1 1v19c0 0.553 0.448 1 1 1h19c0.553 0 1-0.447 1-1v-14.058l-2.015 1.977 0.054 11.085z"></path>
</svg>
