<?xml version="1.0" encoding="utf-8"?>
<!-- Generated by IcoMoon.io -->
<!DOCTYPE svg PUBLIC "-//W3C//DTD SVG 1.1//EN" "http://www.w3.org/Graphics/SVG/1.1/DTD/svg11.dtd">
<svg version="1.1" xmlns="http://www.w3.org/2000/svg" xmlns:xlink="http://www.w3.org/1999/xlink" width="24" height="24" viewBox="0 0 24 24">
<path fill="#444444" d="M13.5 20.016q0 0.891-0.586 1.43t-1.43 0.539q-0.797 0-1.383-0.586t-0.586-1.383h3.984zM18 10.5v5.484l2.016 2.016v0.984h-17.016v-0.984l2.016-2.016v-5.484q0-2.25 1.406-4.031t3.563-2.297v-0.656q0-0.609 0.445-1.055t1.055-0.445 1.055 0.445 0.445 1.055v0.656q2.156 0.516 3.586 2.297t1.43 4.031zM19.969 9.984q-0.234-4.078-3.563-6.422l1.453-1.406q3.891 3 4.125 7.828h-2.016zM6.563 3.563q-3.281 2.344-3.516 6.422h-2.016q0.234-4.828 4.125-7.828z"></path>
</svg>
