<?xml version="1.0" encoding="utf-8"?>
<!-- Generated by IcoMoon.io -->
<!DOCTYPE svg PUBLIC "-//W3C//DTD SVG 1.1//EN" "http://www.w3.org/Graphics/SVG/1.1/DTD/svg11.dtd">
<svg version="1.1" xmlns="http://www.w3.org/2000/svg" xmlns:xlink="http://www.w3.org/1999/xlink" width="24" height="24" viewBox="0 0 24 24">
<path fill="#444444" d="M12 20c-0.195 0-0.391-0.057-0.561-0.172-0.225-0.151-5.508-3.73-7.146-5.371-1.831-1.831-2.043-3.777-2.043-5.082 0-2.964 2.411-5.375 5.375-5.375 1.802 0 3.398 0.891 4.375 2.256 0.977-1.365 2.573-2.256 4.375-2.256 2.964 0 5.375 2.411 5.375 5.375 0 1.305-0.212 3.251-2.043 5.082-1.641 1.641-6.923 5.22-7.146 5.371-0.17 0.115-0.366 0.172-0.561 0.172zM7.625 6c-1.861 0-3.375 1.514-3.375 3.375 0 1.093 0.173 2.384 1.457 3.668 1.212 1.212 4.883 3.775 6.293 4.746 1.41-0.971 5.081-3.534 6.293-4.746 1.284-1.284 1.457-2.575 1.457-3.668 0-1.861-1.514-3.375-3.375-3.375s-3.375 1.514-3.375 3.375c0 0.552-0.447 1-1 1s-1-0.448-1-1c0-1.861-1.514-3.375-3.375-3.375z"></path>
</svg>
