<?xml version="1.0" encoding="utf-8"?>
<!-- Generated by IcoMoon.io -->
<!DOCTYPE svg PUBLIC "-//W3C//DTD SVG 1.1//EN" "http://www.w3.org/Graphics/SVG/1.1/DTD/svg11.dtd">
<svg version="1.1" xmlns="http://www.w3.org/2000/svg" xmlns:xlink="http://www.w3.org/1999/xlink" width="32" height="32" viewBox="0 0 32 32">
<path fill="#444444" d="M9.589 12.211c0.496-0.51 0.496-1.335 0-1.845-0.641-0.66-0.958-1.513-0.96-2.379 0.002-0.868 0.318-1.72 0.96-2.381 0.496-0.511 0.496-1.336 0-1.846-0.248-0.256-0.571-0.384-0.897-0.384-0.324 0-0.65 0.126-0.898 0.382-1.133 1.166-1.707 2.701-1.705 4.229-0.002 1.525 0.572 3.060 1.705 4.224 0.496 0.51 1.299 0.51 1.795 0zM4.659 1.036c-0.254-0.26-0.584-0.389-0.916-0.389-0.33 0-0.662 0.13-0.914 0.389-1.867 1.917-2.806 4.438-2.804 6.951-0.002 2.511 0.937 5.036 2.803 6.951 0.506 0.519 1.324 0.519 1.829 0 0.504-0.518 0.504-1.36 0-1.877-1.366-1.406-2.045-3.233-2.045-5.074s0.679-3.67 2.045-5.074c0.504-0.52 0.504-1.362 0.002-1.877zM16.032 11.245c1.792 0 3.249-1.455 3.249-3.249s-1.456-3.249-3.249-3.249c-1.793 0-3.249 1.455-3.249 3.249s1.455 3.249 3.249 3.249zM29.173 1.055c-0.506-0.519-1.324-0.519-1.827 0-0.506 0.518-0.506 1.36 0 1.877 1.365 1.404 2.044 3.233 2.044 5.074 0 1.839-0.681 3.668-2.046 5.072-0.504 0.519-0.504 1.362 0.002 1.877 0.252 0.26 0.582 0.389 0.914 0.389 0.33 0 0.662-0.13 0.914-0.389 1.866-1.915 2.805-4.441 2.802-6.951 0.004-2.509-0.935-5.034-2.801-6.949zM16.040 13.84v0c-0.828 0.002-1.658-0.202-2.409-0.607l-6.285 16.755h2.975l1.713-1.999h7.997l1.687 1.999h2.977l-6.284-16.751c-0.742 0.399-1.554 0.603-2.37 0.603zM16.020 14.797l2.011 7.193h-3.998l1.987-7.193zM12.034 25.989l1.999-1.999h3.998l1.999 1.999h-7.997zM22.412 3.783c-0.496 0.51-0.496 1.335 0 1.845 0.64 0.66 0.957 1.516 0.959 2.379-0.002 0.868-0.318 1.722-0.959 2.381-0.496 0.511-0.496 1.336 0 1.846 0.246 0.256 0.57 0.382 0.898 0.382 0.322 0 0.648-0.126 0.896-0.382 1.134-1.164 1.708-2.701 1.704-4.227 0.004-1.525-0.568-3.060-1.704-4.224-0.494-0.51-1.298-0.51-1.794 0z"></path>
</svg>
