<?xml version="1.0" encoding="utf-8"?>
<!-- Generated by IcoMoon.io -->
<!DOCTYPE svg PUBLIC "-//W3C//DTD SVG 1.1//EN" "http://www.w3.org/Graphics/SVG/1.1/DTD/svg11.dtd">
<svg version="1.1" xmlns="http://www.w3.org/2000/svg" xmlns:xlink="http://www.w3.org/1999/xlink" width="24" height="24" viewBox="0 0 24 24">
<path fill="#444444" d="M6.984 21v-2.016h2.016v2.016h-2.016zM11.016 21v-2.016h1.969v2.016h-1.969zM18.984 15v-9.984h-9.984v9.984h9.984zM18.984 3q0.797 0 1.406 0.609t0.609 1.406v9.984q0 0.797-0.609 1.406t-1.406 0.609h-9.984q-0.844 0-1.43-0.609t-0.586-1.406v-9.984q0-0.797 0.586-1.406t1.43-0.609h9.984zM15 21v-2.016h2.016v2.016h-2.016zM3 9v-2.016h2.016v2.016h-2.016zM5.016 21q-0.844 0-1.43-0.609t-0.586-1.406h2.016v2.016zM3 17.016v-2.016h2.016v2.016h-2.016zM3 12.984v-1.969h2.016v1.969h-2.016z"></path>
</svg>
