<?xml version="1.0" encoding="utf-8"?>
<!-- Generated by IcoMoon.io -->
<!DOCTYPE svg PUBLIC "-//W3C//DTD SVG 1.1//EN" "http://www.w3.org/Graphics/SVG/1.1/DTD/svg11.dtd">
<svg version="1.1" xmlns="http://www.w3.org/2000/svg" xmlns:xlink="http://www.w3.org/1999/xlink" width="32" height="32" viewBox="0 0 32 32">
<path fill="#444444" d="M29.844 24c1.371-2.355 2.156-5.078 2.156-8 0-8.836-7.164-16-16-16s-16 7.164-16 16 7.164 16 16 16c4.418 0 8.418-1.789 11.312-4.688l-2.832-2.832c-2.171 2.176-5.171 3.52-8.48 3.52-6.617 0-12-5.383-12-12s5.383-12 12-12 12 5.383 12 12c0 1.422-0.273 2.781-0.73 4.047l-0.032-0.047h-3.238v-11.957h-8c-4.418 0-8 3.582-8 8s3.582 8 8 8c1.836 0 3.508-0.645 4.859-1.684 0.727 0.969 1.836 1.641 3.141 1.641h5.844zM20 14.008v2.035c0 2.207-1.797 4-4 4s-4-1.793-4-4 1.797-4 4-4h4v1.965z"></path>
</svg>
