<?xml version="1.0" encoding="utf-8"?>
<!-- Generated by IcoMoon.io -->
<!DOCTYPE svg PUBLIC "-//W3C//DTD SVG 1.1//EN" "http://www.w3.org/Graphics/SVG/1.1/DTD/svg11.dtd">
<svg version="1.1" xmlns="http://www.w3.org/2000/svg" xmlns:xlink="http://www.w3.org/1999/xlink" width="24" height="24" viewBox="0 0 24 24">
<path fill="#444444" d="M12 21c-4.963 0-9-4.038-9-9s4.037-9 9-9 9 4.038 9 9-4.037 9-9 9zM12 5c-3.859 0-7 3.14-7 7s3.141 7 7 7 7-3.14 7-7-3.141-7-7-7z"></path>
<path fill="#444444" d="M13.565 12.626c0.171 0 0.316 0.084 0.441 0.255 0.124 0.169 0.187 0.378 0.187 0.625s-0.062 0.457-0.187 0.626c-0.125 0.169-0.271 0.254-0.441 0.254-0.181 0-0.337-0.084-0.461-0.254s-0.187-0.378-0.187-0.626c0-0.248 0.062-0.456 0.187-0.625 0.125-0.171 0.281-0.255 0.461-0.255zM15.775 10.337c0.482 0.522 0.725 1.155 0.725 1.898 0 0.482-0.057 0.915-0.166 1.301-0.111 0.384-0.252 0.698-0.42 0.939-0.171 0.242-0.378 0.454-0.627 0.635-0.249 0.184-0.478 0.316-0.685 0.401-0.208 0.085-0.446 0.15-0.716 0.196-0.266 0.047-0.467 0.072-0.606 0.079-0.135 0.006-0.282 0.009-0.44 0.009-0.035 0-0.155 0.004-0.352 0.010-0.193 0.008-0.359 0.011-0.488 0.011s-0.295-0.003-0.488-0.011c-0.196-0.006-0.316-0.010-0.352-0.010-0.158 0-0.306-0.002-0.44-0.009-0.14-0.007-0.341-0.032-0.606-0.079-0.271-0.045-0.508-0.11-0.716-0.196-0.207-0.084-0.436-0.217-0.684-0.401-0.25-0.182-0.457-0.394-0.628-0.635-0.168-0.241-0.309-0.555-0.42-0.939-0.109-0.386-0.166-0.819-0.166-1.301 0-0.743 0.242-1.376 0.725-1.898-0.053-0.026-0.056-0.286-0.008-0.782 0.043-0.496 0.148-0.953 0.319-1.37 0.602 0.064 1.343 0.404 2.23 1.017 0.3-0.078 0.71-0.118 1.233-0.118 0.549 0 0.959 0.040 1.234 0.118 0.404-0.273 0.791-0.496 1.16-0.666 0.374-0.168 0.644-0.267 0.814-0.293l0.254-0.058c0.172 0.417 0.277 0.875 0.32 1.37 0.050 0.496 0.047 0.756-0.006 0.782zM12.021 15.364c1.083 0 1.899-0.129 2.454-0.39 0.553-0.26 0.833-0.796 0.833-1.605 0-0.469-0.176-0.861-0.529-1.174-0.181-0.17-0.394-0.273-0.638-0.313-0.238-0.039-0.607-0.039-1.104 0-0.495 0.040-0.834 0.058-1.016 0.058-0.248 0-0.517-0.013-0.851-0.039s-0.596-0.041-0.783-0.049c-0.191-0.006-0.395 0.018-0.616 0.069-0.223 0.053-0.404 0.143-0.55 0.273-0.336 0.3-0.507 0.691-0.507 1.174 0 0.809 0.274 1.345 0.821 1.605 0.547 0.261 1.361 0.39 2.444 0.39zM10.455 12.626c0.17 0 0.316 0.084 0.44 0.255 0.124 0.169 0.187 0.378 0.187 0.625s-0.062 0.457-0.187 0.626c-0.124 0.169-0.271 0.254-0.44 0.254-0.182 0-0.337-0.084-0.462-0.254s-0.187-0.378-0.187-0.626c0-0.248 0.062-0.456 0.187-0.625 0.125-0.171 0.28-0.255 0.462-0.255z"></path>
</svg>
