<?xml version="1.0" encoding="utf-8"?>
<!-- Generated by IcoMoon.io -->
<!DOCTYPE svg PUBLIC "-//W3C//DTD SVG 1.1//EN" "http://www.w3.org/Graphics/SVG/1.1/DTD/svg11.dtd">
<svg version="1.1" xmlns="http://www.w3.org/2000/svg" xmlns:xlink="http://www.w3.org/1999/xlink" width="32" height="32" viewBox="0 0 32 32">
<path fill="#444444" d="M29.558 25.557c-2.941 3.985-8.062 6.489-13.558 6.442-5.496 0.047-10.617-2.457-13.558-6.442l-2.441 2.442v-8h8l-2.199 2.198c1.764 2.92 4.715 5.018 8.199 5.613v-12.095c-3.445-0.892-6-3.993-6-7.717 0-4.418 3.582-8 8-8s8 3.582 8 8c0 3.724-2.555 6.825-6 7.717v12.095c3.484-0.595 6.435-2.693 8.199-5.613l-2.199-2.198h8v8l-2.441-2.442zM20 8c0-2.209-1.791-4-4-4s-4 1.791-4 4c0 2.209 1.791 4 4 4s4-1.791 4-4z"></path>
</svg>
