<?xml version="1.0" encoding="UTF-8"?>
<!DOCTYPE svg PUBLIC "-//W3C//DTD SVG 1.1//EN" "http://www.w3.org/Graphics/SVG/1.1/DTD/svg11.dtd">
<!-- Creator: CorelDRAW X8 -->
<svg xmlns="http://www.w3.org/2000/svg" xml:space="preserve" width="2.73278in" height="2.63758in" version="1.1" style="shape-rendering:geometricPrecision; text-rendering:geometricPrecision; image-rendering:optimizeQuality; fill-rule:evenodd; clip-rule:evenodd"
viewBox="0 0 1265 1221"
 xmlns:xlink="http://www.w3.org/1999/xlink">
 <defs>
  <style type="text/css">
   <![CDATA[
    .fil0 {fill:black}
   ]]>
  </style>
 </defs>
 <g id="Layer_x0020_1">
  <metadata id="CorelCorpID_0Corel-Layer"/>
  <path class="fil0" d="M356 264l2 60c1,8 0,14 1,22 1,20 9,23 -3,39 -5,5 -7,8 -11,15 -23,46 -4,150 50,155 8,32 5,28 18,61 15,42 64,130 95,150 -5,24 -3,78 -29,90 0,0 -67,18 -93,28 -88,35 -193,89 -268,150l-75 77c-6,7 -8,9 -14,18 -15,25 -29,52 -29,92l1265 0c0,-56 -25,-86 -54,-124 -27,-37 -91,-84 -130,-110l-39 -24c-53,-32 -159,-83 -229,-101 -8,-2 -17,-3 -25,-5 -29,-11 -25,-63 -31,-91 31,-20 79,-106 95,-148 12,-33 10,-29 18,-63 54,-5 72,-107 51,-153 -10,-20 -16,-16 -18,-31 0,-9 2,-13 3,-20 13,-114 -5,-244 -101,-308 -13,-8 -27,-15 -43,-21 -92,-37 -258,-31 -338,50 -38,39 -68,115 -68,192z"/>
 </g>
</svg>
