<?xml version="1.0" encoding="utf-8"?>
<!-- Generated by IcoMoon.io -->
<!DOCTYPE svg PUBLIC "-//W3C//DTD SVG 1.1//EN" "http://www.w3.org/Graphics/SVG/1.1/DTD/svg11.dtd">
<svg version="1.1" xmlns="http://www.w3.org/2000/svg" xmlns:xlink="http://www.w3.org/1999/xlink" width="32" height="32" viewBox="0 0 32 32">
<path fill="#444444" d="M23.865 15.338c0.074-0.435 0.135-0.879 0.135-1.338v-6c0-4.418-3.582-8-8-8s-8 3.582-8 8v6c0 0.459 0.061 0.902 0.135 1.338-4.84 1.719-8.135 4.936-8.135 8.662v6c0 1.105 0.894 2 2 2h28c1.105 0 2-0.895 2-2v-6c0-3.727-3.295-6.943-8.135-8.662zM12 8c0-2.209 1.791-4 4-4s4 1.791 4 4v6c0 2.209-1.791 4-4 4s-4-1.791-4-4v-6zM28 28h-24v-4c0-2.16 2.301-4.037 5.725-5.094 1.465 1.871 3.717 3.094 6.275 3.094s4.811-1.223 6.275-3.094c3.424 1.057 5.725 2.934 5.725 5.094v4z"></path>
</svg>
