<?xml version="1.0" encoding="utf-8"?>
<!-- Generated by IcoMoon.io -->
<!DOCTYPE svg PUBLIC "-//W3C//DTD SVG 1.1//EN" "http://www.w3.org/Graphics/SVG/1.1/DTD/svg11.dtd">
<svg version="1.1" xmlns="http://www.w3.org/2000/svg" xmlns:xlink="http://www.w3.org/1999/xlink" width="24" height="24" viewBox="0 0 24 24">
<path fill="#444444" d="M15 11v-11h-5v11h-3.953l6.363 6.364 6.363-6.364zM20.16 7h-3.16v2h3.16c0.551 0 0.84 0.016 0.84 0.566v7.5c0 0.828-0.514 1.934-1.34 1.934h-15.318c-0.826 0-1.34-1.106-1.34-1.934v-7.5c0-0.55 0.289-0.566 0.84-0.566h3.16v-2h-3.16c-1.654 0-2.84 0.912-2.84 2.566v11c0 1.654 1.186 3.434 2.84 3.434h16.318c1.654 0 2.84-1.779 2.84-3.434v-11c0-1.654-1.186-2.566-2.84-2.566zM21 20.566c0 0.551-0.289 1.434-0.84 1.434h-16.318c-0.551 0-0.84-0.883-0.84-1.434v-1.513c0 0.317 0.775 0.946 1.34 0.946h15.318c0.564 0 1.34-0.629 1.34-0.946v1.513z"></path>
</svg>
