<?xml version="1.0" encoding="utf-8"?>
<!-- Generated by IcoMoon.io -->
<!DOCTYPE svg PUBLIC "-//W3C//DTD SVG 1.1//EN" "http://www.w3.org/Graphics/SVG/1.1/DTD/svg11.dtd">
<svg version="1.1" xmlns="http://www.w3.org/2000/svg" xmlns:xlink="http://www.w3.org/1999/xlink" width="24" height="24" viewBox="0 0 24 24">
<path fill="#444444" d="M21.767 9c-0.55 0-0.767 0.9-0.767 2v2c0 1.1 0.217 2 0.767 2s0.767-0.9 0.767-2h1.466v-2h-1.467c0-1.1-0.217-2-0.766-2zM18 6c-1 0-1 0.9-1 2v3h-10v-3c0-1.1 0-2-1-2-1.1 0-2 0.9-2 2v8c0 1.1 0.9 2 2 2 1 0 1-0.9 1-2v-3h10v3c0 1.1 0 2 1 2 1.1 0 2-0.9 2-2v-8c0-1.1-0.9-2-2-2zM2.233 9c0.55 0 0.767 0.9 0.767 2v2c0 1.1-0.217 2-0.767 2s-0.767-0.9-0.767-2h-1.466v-2h1.467c0-1.1 0.217-2 0.766-2z"></path>
</svg>
