<?xml version="1.0" encoding="utf-8"?>
<!-- Generated by IcoMoon.io -->
<!DOCTYPE svg PUBLIC "-//W3C//DTD SVG 1.1//EN" "http://www.w3.org/Graphics/SVG/1.1/DTD/svg11.dtd">
<svg version="1.1" xmlns="http://www.w3.org/2000/svg" xmlns:xlink="http://www.w3.org/1999/xlink" width="24" height="32" viewBox="0 0 24 32">
<path fill="#444444" d="M12 16c2.211 0 4-1.791 4-4v-8c0-2.209-1.789-4-4-4s-4 1.791-4 4v8c0 2.209 1.789 4 4 4zM16 28h-2v-4.203c5.664-0.957 10-5.865 10-11.797v-1.938c0-1.105-0.895-2-2-2s-2 0.895-2 2v1.938c0 4.412-3.586 8-8 8s-8-3.588-8-8v-1.938c0-1.105-0.895-2-2-2s-2 0.895-2 2v1.938c0 5.932 4.336 10.84 10 11.797v4.203h-2c-2.211 0-4 1.789-4 4h16c0-2.211-1.789-4-4-4z"></path>
</svg>
