<?xml version="1.0" encoding="utf-8"?>
<!-- Generated by IcoMoon.io -->
<!DOCTYPE svg PUBLIC "-//W3C//DTD SVG 1.1//EN" "http://www.w3.org/Graphics/SVG/1.1/DTD/svg11.dtd">
<svg version="1.1" xmlns="http://www.w3.org/2000/svg" xmlns:xlink="http://www.w3.org/1999/xlink" width="32" height="32" viewBox="0 0 32 32">
<path fill="#444444" d="M16.063 6c1.063-0.031 1.906-0.875 1.938-1.938 0.031-1.156-0.906-2.094-2.063-2.063-1.063 0.031-1.906 0.875-1.938 1.938-0.031 1.156 0.906 2.094 2.063 2.063zM30.563 18h-0.563l-3.969-7.688c0.563-0.063 1.125-0.281 1.625-0.5 0.75-0.344 0.906-1.344 0.344-1.938l-0.031-0.031c-0.344-0.344-0.875-0.469-1.344-0.25-0.438 0.188-1.063 0.406-1.656 0.406-1.75 0-2.531-2-8.969-2s-7.219 2-8.969 2c-0.625 0-1.219-0.188-1.656-0.406-0.469-0.188-1-0.094-1.344 0.25l-0.031 0.031c-0.563 0.594-0.406 1.563 0.344 1.938 0.5 0.25 1.063 0.438 1.625 0.5l-3.969 7.688h-0.563c-0.25 0-0.438 0.219-0.406 0.469 0.344 2 2.875 3.531 5.969 3.531s5.625-1.531 5.969-3.531c0.031-0.25-0.156-0.469-0.406-0.469h-0.563l-3.969-7.656c2.594-0.219 3.969-1.531 5.969-1.531v15.188c-1.094 0-2 0.906-2 2h-2.219c-0.875 0-1.781 0.906-1.781 2h16c0-1.094-0.906-2-2.219-2h-1.781c0-1.094-0.906-2-2-2v-15.188c2 0 3.375 1.313 5.969 1.531l-3.969 7.656h-0.563c-0.25 0-0.438 0.219-0.406 0.469 0.344 2 2.875 3.531 5.969 3.531s5.625-1.531 5.969-3.531c0.031-0.25-0.156-0.469-0.406-0.469zM10 18h-6l3-5.625 3 5.625zM22 18l3-5.625 3 5.625h-6z"></path>
</svg>
