<?xml version="1.0" encoding="utf-8"?>
<!-- Generated by IcoMoon.io -->
<!DOCTYPE svg PUBLIC "-//W3C//DTD SVG 1.1//EN" "http://www.w3.org/Graphics/SVG/1.1/DTD/svg11.dtd">
<svg version="1.1" xmlns="http://www.w3.org/2000/svg" xmlns:xlink="http://www.w3.org/1999/xlink" width="24" height="24" viewBox="0 0 24 24">
<path fill="#444444" d="M18.984 21v-2.016h2.016v2.016h-2.016zM15 21v-2.016h2.016v2.016h-2.016zM11.016 17.016v-2.016h1.969v2.016h-1.969zM18.984 9v-2.016h2.016v2.016h-2.016zM18.984 3h2.016v2.016h-2.016v-2.016zM3 12.984v-1.969h18v1.969h-18zM11.016 21v-2.016h1.969v2.016h-1.969zM18.984 17.016v-2.016h2.016v2.016h-2.016zM12.984 3v2.016h-1.969v-2.016h1.969zM12.984 6.984v2.016h-1.969v-2.016h1.969zM17.016 3v2.016h-2.016v-2.016h2.016zM9 3v2.016h-2.016v-2.016h2.016zM5.016 3v2.016h-2.016v-2.016h2.016zM6.984 21v-2.016h2.016v2.016h-2.016zM3 17.016v-2.016h2.016v2.016h-2.016zM5.016 6.984v2.016h-2.016v-2.016h2.016zM3 21v-2.016h2.016v2.016h-2.016z"></path>
</svg>
