<?xml version="1.0" encoding="utf-8"?>
<!-- Generated by IcoMoon.io -->
<!DOCTYPE svg PUBLIC "-//W3C//DTD SVG 1.1//EN" "http://www.w3.org/Graphics/SVG/1.1/DTD/svg11.dtd">
<svg version="1.1" xmlns="http://www.w3.org/2000/svg" xmlns:xlink="http://www.w3.org/1999/xlink" width="24" height="24" viewBox="0 0 24 24">
<path fill="#444444" d="M16.641 15.141l4.828 4.875-1.453 1.453-4.875-4.828q-1.875 1.359-4.125 1.359-2.906 0-4.969-2.063l-2.063 2.063v-6h6l-2.531 2.531q1.453 1.453 3.563 1.453 1.828 0 3.164-1.125t1.711-2.859h2.016q-0.188 1.688-1.266 3.141zM11.016 6q-1.828 0-3.188 1.125t-1.734 2.859h-2.016q0.375-2.531 2.344-4.266t4.594-1.734q2.859 0 4.922 2.063l2.063-2.063v6h-6l2.531-2.531q-1.453-1.453-3.516-1.453z"></path>
</svg>
