<?xml version="1.0" encoding="utf-8"?>
<!-- Generated by IcoMoon.io -->
<!DOCTYPE svg PUBLIC "-//W3C//DTD SVG 1.1//EN" "http://www.w3.org/Graphics/SVG/1.1/DTD/svg11.dtd">
<svg version="1.1" xmlns="http://www.w3.org/2000/svg" xmlns:xlink="http://www.w3.org/1999/xlink" width="32" height="32" viewBox="0 0 32 32">
<path fill="#444444" d="M29 17.518c0-0.276-0.224-0.5-0.5-0.5h-13.5v-13.518c0-0.276-0.224-0.5-0.5-0.5-7.995 0-14.5 6.495-14.5 14.479 0 8.278 6.243 14.521 14.521 14.521 7.713 0 14.479-6.768 14.479-14.482zM1 17.479c0-7.266 5.787-13.206 13-13.47v13.509c0 0.276 0.224 0.5 0.5 0.482h13.49c-0.283 6.99-6.455 13-13.469 13-7.708 0-13.521-5.812-13.521-13.521zM17.5 15h13.999c0.276 0.018 0.501-0.224 0.501-0.5 0-7.995-6.505-14.5-14.5-14.5-0.276 0-0.5 0.224-0.5 0.5v14.018c0 0.276 0.224 0.5 0.5 0.482zM18 1.009c7.063 0.259 12.759 5.97 12.994 13.009h-12.994v-13.009z"></path>
</svg>
