<?xml version="1.0" encoding="utf-8"?>
<!-- Generated by IcoMoon.io -->
<!DOCTYPE svg PUBLIC "-//W3C//DTD SVG 1.1//EN" "http://www.w3.org/Graphics/SVG/1.1/DTD/svg11.dtd">
<svg version="1.1" xmlns="http://www.w3.org/2000/svg" xmlns:xlink="http://www.w3.org/1999/xlink" width="24" height="24" viewBox="0 0 24 24">
<path fill="#444444" d="M13 5l0.855 3.42 3.389-0.971 1.501 2.6-2.535 2.449 2.535 2.451-1.5 2.6-3.39-0.971-0.855 3.422h-3l-0.855-3.422-3.39 0.971-1.501-2.6 2.535-2.451-2.534-2.449 1.5-2.6 3.39 0.971 0.855-3.42h3zM13 3h-3c-0.918 0-1.718 0.625-1.939 1.516l-0.354 1.412-1.4-0.4c-0.184-0.053-0.369-0.078-0.552-0.078-0.7 0-1.368 0.37-1.731 1l-1.5 2.6c-0.459 0.796-0.317 1.802 0.342 2.438l1.047 1.011-1.048 1.015c-0.66 0.637-0.802 1.643-0.343 2.438l1.502 2.6c0.363 0.631 1.031 1 1.731 1 0.183 0 0.368-0.025 0.552-0.076l1.399-0.401 0.354 1.415c0.222 0.885 1.022 1.51 1.94 1.51h3c0.918 0 1.718-0.625 1.939-1.516l0.354-1.414 1.399 0.4c0.184 0.053 0.369 0.077 0.552 0.077 0.7 0 1.368-0.37 1.731-1l1.5-2.6c0.459-0.796 0.317-1.8-0.342-2.438l-1.047-1.013 1.047-1.013c0.66-0.637 0.801-1.644 0.342-2.438l-1.5-2.6c-0.365-0.631-1.031-1-1.732-1-0.184 0-0.368 0.025-0.551 0.076l-1.4 0.401-0.354-1.413c-0.22-0.884-1.020-1.509-1.938-1.509z"></path>
<path fill="#444444" d="M11.5 10.5c1.104 0 2 0.895 2 2s-0.896 2-2 2-2-0.896-2-2c0-1.105 0.896-2 2-2zM11.5 9.5c-1.654 0-3 1.346-3 3s1.346 3 3 3 3-1.346 3-3-1.346-3-3-3z"></path>
</svg>
