<?xml version="1.0" encoding="utf-8"?>
<!-- Generated by IcoMoon.io -->
<!DOCTYPE svg PUBLIC "-//W3C//DTD SVG 1.1//EN" "http://www.w3.org/Graphics/SVG/1.1/DTD/svg11.dtd">
<svg version="1.1" xmlns="http://www.w3.org/2000/svg" xmlns:xlink="http://www.w3.org/1999/xlink" width="32" height="32" viewBox="0 0 32 32">
<path fill="#444444" d="M30 27l-6-5v5c0 1.104-0.896 2-2 2h-20c-1.104 0-2-0.896-2-2v-17c0-1.104 0.896-2 2-2h7.698l-2.958-4h-5.74c-0.552 0-1-0.447-1-1s0.448-1 1-1h6c0.552 0 1 0.447 1 1l4.072 5h9.928c1.104 0 2 0.896 2 2v5l6-6c1.104 0 2 0.896 2 2v14c0 1.104-0.771 2-2 2zM21 10h-6c-0.553 0-1 0.447-1 1s0.447 1 1 1h6c0.553 0 1-0.447 1-1s-0.447-1-1-1z"></path>
</svg>
