<?xml version="1.0" encoding="utf-8"?>
<!-- Generated by IcoMoon.io -->
<!DOCTYPE svg PUBLIC "-//W3C//DTD SVG 1.1//EN" "http://www.w3.org/Graphics/SVG/1.1/DTD/svg11.dtd">
<svg version="1.1" xmlns="http://www.w3.org/2000/svg" xmlns:xlink="http://www.w3.org/1999/xlink" width="24" height="24" viewBox="0 0 24 24">
<path fill="#444444" d="M22 9h-2v-8h-16v8h-2c-1.1 0-2 0.9-2 2v10c0 1.1 0.675 2 1.5 2h2.5v1h16v-1h2.5c0.825 0 1.5-0.9 1.5-2v-10c0-1.1-0.9-2-2-2zM4 22h-1v-5h1v5zM18 22h-12v-5h2v1h8v-1h2v5zM18 9h-12v-6h12v6zM21 22h-1v-5h1v5zM22 12h-2v-1h2v1zM8 20h8v-1h-8v1z"></path>
</svg>
